<svg width="288" height="152" viewBox="0 0 288 152" fill="none" xmlns="http://www.w3.org/2000/svg">
<g clip-path="url(#clip0)">
<path d="M154.468 75.9148H225.38" stroke="#161310" stroke-width="3" stroke-miterlimit="10" stroke-linejoin="round"/>
<path d="M155.648 134.703H231.109" stroke="#161310" stroke-width="3" stroke-miterlimit="10" stroke-linejoin="round"/>
<path d="M163.774 80.3199V87.2958" stroke="#161310" stroke-width="3" stroke-miterlimit="10" stroke-linejoin="round"/>
<path d="M175.51 80.3199V87.2958" stroke="#161310" stroke-width="3" stroke-miterlimit="10" stroke-linejoin="round"/>
<path d="M187.257 80.3199V87.2958" stroke="#161310" stroke-width="3" stroke-miterlimit="10" stroke-linejoin="round"/>
<path d="M197.612 80.3201V87.2959" stroke="#161310" stroke-width="3" stroke-miterlimit="10" stroke-linejoin="round"/>
<path d="M209.347 80.3201V87.2959" stroke="#161310" stroke-width="3" stroke-miterlimit="10" stroke-linejoin="round"/>
<path d="M221.095 80.3201V87.2959" stroke="#161310" stroke-width="3" stroke-miterlimit="10" stroke-linejoin="round"/>
<path d="M0.792969 75.9148H65.9861" stroke="#161310" stroke-width="3" stroke-miterlimit="10" stroke-linejoin="round"/>
<path d="M1.97119 134.703H62.4198" stroke="#161310" stroke-width="3" stroke-miterlimit="10" stroke-linejoin="round"/>
<path d="M10.0991 80.3199V87.2958" stroke="#161310" stroke-width="3" stroke-miterlimit="10" stroke-linejoin="round"/>
<path d="M21.8345 80.3199V87.2958" stroke="#161310" stroke-width="3" stroke-miterlimit="10" stroke-linejoin="round"/>
<path d="M33.5815 80.3199V87.2958" stroke="#161310" stroke-width="3" stroke-miterlimit="10" stroke-linejoin="round"/>
<path d="M45.3169 80.3199V87.2958" stroke="#161310" stroke-width="3" stroke-miterlimit="10" stroke-linejoin="round"/>
<path d="M57.0645 80.3199V87.2958" stroke="#161310" stroke-width="3" stroke-miterlimit="10" stroke-linejoin="round"/>
<path d="M70.2485 139.821L73.2963 122.271L73.81 85.1554L71.2644 76.2231L71.7782 53.9563H115.929" stroke="#161310" stroke-width="3" stroke-miterlimit="10" stroke-linejoin="round"/>
<path d="M150.097 139.821L147.05 122.271L146.547 85.1554L149.081 76.2231L148.568 53.9563H104.428" stroke="#161310" stroke-width="3" stroke-miterlimit="10" stroke-linejoin="round"/>
<path d="M85.6509 53.9563V63.9018" stroke="#161310" stroke-width="3" stroke-miterlimit="10" stroke-linejoin="round"/>
<path d="M102.221 53.9563V63.9018" stroke="#161310" stroke-width="3" stroke-miterlimit="10" stroke-linejoin="round"/>
<path d="M118.803 53.9563V63.9018" stroke="#161310" stroke-width="3" stroke-miterlimit="10" stroke-linejoin="round"/>
<path d="M135.384 53.9563V63.9018" stroke="#161310" stroke-width="3" stroke-miterlimit="10" stroke-linejoin="round"/>
<path d="M85.6499 85.1555V77.3761C85.6499 76.1766 86.6308 75.1984 87.8335 75.1984C89.0363 75.1984 90.0171 76.1766 90.0171 77.3761V84.3054" stroke="#161310" stroke-width="3" stroke-miterlimit="10" stroke-linejoin="round"/>
<path d="M101.355 84.5265V77.376C101.355 76.1764 100.385 75.2098 99.1827 75.2098C97.9799 75.2098 97.0107 76.1764 97.0107 77.376V84.9457" stroke="#161310" stroke-width="3" stroke-miterlimit="10" stroke-linejoin="round"/>
<path d="M112.694 84.7362V77.3644C112.694 76.1648 111.725 75.1982 110.522 75.1982C109.319 75.1982 108.35 76.1648 108.35 77.3644V84.7362" stroke="#161310" stroke-width="3" stroke-miterlimit="10" stroke-linejoin="round"/>
<path d="M124.032 84.9458V77.3527C124.032 76.1648 123.063 75.1982 121.872 75.1982C120.681 75.1982 119.711 76.1648 119.711 77.3527V84.5149" stroke="#161310" stroke-width="3" stroke-miterlimit="10" stroke-linejoin="round"/>
<path d="M135.382 85.1554V77.3411C135.382 76.1532 134.425 75.1982 133.234 75.1982C132.042 75.1982 131.085 76.1532 131.085 77.3411V84.3053" stroke="#161310" stroke-width="3" stroke-miterlimit="10" stroke-linejoin="round"/>
<path d="M74.6509 85.1556H146.547" stroke="#161310" stroke-width="3" stroke-miterlimit="10" stroke-linejoin="round"/>
<path d="M74.6509 121.432L97.6543 121.432" stroke="#161310" stroke-width="3" stroke-miterlimit="10" stroke-linejoin="round"/>
<path d="M121.57 121.432H146.255" stroke="#161310" stroke-width="3" stroke-miterlimit="10" stroke-linejoin="round"/>
<path d="M100.702 139.821V130.597C100.702 124.856 105.372 120.198 111.129 120.198C116.886 120.198 121.557 124.856 121.557 130.597V139.821" stroke="#161310" stroke-width="3" stroke-miterlimit="10" stroke-linejoin="round"/>
<path d="M91.5708 47.3765V52.9856" stroke="#161310" stroke-width="3" stroke-miterlimit="10" stroke-linejoin="round"/>
<path d="M127.793 47.7842V53.9565" stroke="#161310" stroke-width="3" stroke-miterlimit="10" stroke-linejoin="round"/>
<path d="M107.043 114.538H114.984V107.189C114.984 105 113.209 103.23 111.014 103.23C108.818 103.23 107.043 105 107.043 107.189V114.538V114.538Z" stroke="#161310" stroke-width="3" stroke-miterlimit="10" stroke-linejoin="round"/>
<path d="M90.3794 106.828H94.3496V102.508C94.3496 101.227 93.4622 100.179 92.3645 100.179C91.2669 100.179 90.3794 101.215 90.3794 102.508V106.828Z" stroke="#161310" stroke-width="3" stroke-miterlimit="10" stroke-linejoin="round"/>
<path d="M127.911 106.828H131.881V102.508C131.881 101.227 130.993 100.179 129.896 100.179C128.798 100.179 127.911 101.215 127.911 102.508V106.828Z" stroke="#161310" stroke-width="3" stroke-miterlimit="10" stroke-linejoin="round"/>
<path d="M119.411 106.828C119.411 102.045 115.66 98.1597 111.013 98.1597C106.382 98.1597 102.616 102.045 102.616 106.828" stroke="#161310" stroke-width="3" stroke-miterlimit="10" stroke-linejoin="round"/>
<path d="M88.5234 47.3765H131.997" stroke="#5ED48F" stroke-width="3" stroke-miterlimit="10" stroke-linejoin="round"/>
<path d="M93.0889 47.3765L109.834 21.22L127.256 47.3765" stroke="#5ED48F" stroke-width="3" stroke-miterlimit="10" stroke-linejoin="round"/>
<path d="M109.833 13.1262V21.2201" stroke="#5ED48F" stroke-width="3" stroke-miterlimit="10" stroke-linejoin="round"/>
<path d="M23.6685 128.033C21.0569 126.239 21.3846 123.098 22.4123 121.552C22.4123 121.552 17.9456 119.558 20.3599 113.786M21.5475 102.159C18.417 92.8841 32.8091 90.3025 35.1344 97.5882C39.453 97.1867 44.2103 98.9405 45.1203 105.17C45.9164 110.621 44.373 117.323 39.453 119.558C41.9655 120.994 41.8557 129.107 35.5752 128.731" stroke="#5ED48F" stroke-width="3" stroke-miterlimit="10" stroke-linejoin="round"/>
<path d="M15.8552 108.315C5.1336 108.315 6.28201 118.718 6.28201 118.718C1.68733 119.252 -0.737672 124.72 1.68718 128.744" stroke="#5ED48F" stroke-width="3" stroke-miterlimit="10" stroke-linejoin="round"/>
<path d="M180.883 117.903C173.275 117.903 174.09 125.285 174.09 125.285C170.829 125.664 169.108 129.545 170.829 132.4" stroke="#5ED48F" stroke-width="3" stroke-miterlimit="10" stroke-linejoin="round"/>
<path d="M205.871 105.29C219.701 105.29 218.219 118.708 218.219 118.708C224.146 119.397 227.274 126.451 224.146 131.641" stroke="#5ED48F" stroke-width="3" stroke-miterlimit="10" stroke-linejoin="round"/>
<path d="M30.0132 115.487V139.821" stroke="#161310" stroke-width="3" stroke-miterlimit="10" stroke-linejoin="round"/>
<path d="M199.872 129.746C202.319 127.903 202.012 124.679 201.049 123.092L202.319 122.52M188.715 130.462C182.83 130.848 182.727 122.52 185.081 121.045C180.471 118.751 179.025 111.871 179.771 106.276C180.624 99.8807 185.081 98.0803 189.128 98.4926C191.307 91.0136 204.793 93.6636 201.859 103.185C201.859 103.185 200.797 105.702 201.859 106.276C206.594 108.831 206.594 111.103 206.594 112.847" stroke="#5ED48F" stroke-width="3" stroke-miterlimit="10" stroke-linejoin="round"/>
<path d="M193.224 117.019V139.821" stroke="#161310" stroke-width="3" stroke-miterlimit="10" stroke-linejoin="round"/>
</g>
<defs>
<clipPath id="clip0">
<rect width="287" height="151" fill="white" transform="translate(0.730957 0.973633)"/>
</clipPath>
</defs>
</svg>
