<svg width="287" height="152" viewBox="0 0 287 152" fill="none" xmlns="http://www.w3.org/2000/svg">
<g clip-path="url(#clip0)">
<path d="M160.994 38.3518H112.124V46.7498H160.994V38.3518Z" stroke="#161310" stroke-width="3" stroke-miterlimit="10" stroke-linejoin="round"/>
<path d="M112.124 38.3519H108.756L137.016 21.8644L165.106 38.3519H160.998" stroke="#161310" stroke-width="3" stroke-miterlimit="10" stroke-linejoin="round"/>
<path d="M112.124 39.4607L37.334 51.1303" stroke="#161310" stroke-width="3" stroke-miterlimit="10" stroke-linejoin="round"/>
<path d="M37.8794 49.5941L40.0738 57.0608H113.037" stroke="#161310" stroke-width="3" stroke-miterlimit="10" stroke-linejoin="round"/>
<path d="M42.644 57.061V95.0892H38.875V95.8501" stroke="#161310" stroke-width="3" stroke-miterlimit="10" stroke-linejoin="round"/>
<path d="M62.4523 71.1649H54.5752V87.5208H62.4523V71.1649Z" stroke="#161310" stroke-width="3" stroke-miterlimit="10" stroke-linejoin="round"/>
<path d="M53.0586 65.2902L63.7799 65.2902" stroke="#161310" stroke-width="3" stroke-miterlimit="10" stroke-linejoin="round"/>
<path d="M82.0431 70.944H74.166V87.2999H82.0431V70.944Z" stroke="#161310" stroke-width="3" stroke-miterlimit="10" stroke-linejoin="round"/>
<path d="M72.6494 65.0692L83.3707 65.0692" stroke="#161310" stroke-width="3" stroke-miterlimit="10" stroke-linejoin="round"/>
<path d="M101.634 71.1108H93.7568V87.4668H101.634V71.1108Z" stroke="#161310" stroke-width="3" stroke-miterlimit="10" stroke-linejoin="round"/>
<path d="M92.2402 65.2361L102.962 65.2361" stroke="#161310" stroke-width="3" stroke-miterlimit="10" stroke-linejoin="round"/>
<path d="M178.367 70.9441H170.49V87.3H178.367V70.9441Z" stroke="#161310" stroke-width="3" stroke-miterlimit="10" stroke-linejoin="round"/>
<path d="M168.974 65.0693L179.695 65.0693" stroke="#161310" stroke-width="3" stroke-miterlimit="10" stroke-linejoin="round"/>
<path d="M197.958 70.7231H190.081V87.0791H197.958V70.7231Z" stroke="#161310" stroke-width="3" stroke-miterlimit="10" stroke-linejoin="round"/>
<path d="M188.564 64.8484L199.286 64.8484" stroke="#161310" stroke-width="3" stroke-miterlimit="10" stroke-linejoin="round"/>
<path d="M217.549 79.068V70.89H209.672V87.2459H213.61" stroke="#161310" stroke-width="3" stroke-miterlimit="10" stroke-linejoin="round"/>
<path d="M208.155 65.0153L218.877 65.0153" stroke="#161310" stroke-width="3" stroke-miterlimit="10" stroke-linejoin="round"/>
<path d="M54.6699 111.726H62.547V125.081" stroke="#161310" stroke-width="3" stroke-miterlimit="10" stroke-linejoin="round"/>
<path d="M53.1533 105.851L63.8746 105.851" stroke="#161310" stroke-width="3" stroke-miterlimit="10" stroke-linejoin="round"/>
<path d="M82.1379 111.505H74.2607V127.861H82.1379V111.505Z" stroke="#161310" stroke-width="3" stroke-miterlimit="10" stroke-linejoin="round"/>
<path d="M72.7441 105.63L83.4654 105.63" stroke="#161310" stroke-width="3" stroke-miterlimit="10" stroke-linejoin="round"/>
<path d="M101.729 111.672H93.8516V128.027H101.729V111.672Z" stroke="#161310" stroke-width="3" stroke-miterlimit="10" stroke-linejoin="round"/>
<path d="M92.335 105.797L103.056 105.797" stroke="#161310" stroke-width="3" stroke-miterlimit="10" stroke-linejoin="round"/>
<path d="M214.131 110.252H209.483V119.981" stroke="#161310" stroke-width="3" stroke-miterlimit="10" stroke-linejoin="round"/>
<path d="M218.876 104.377L208.155 104.377" stroke="#161310" stroke-width="3" stroke-miterlimit="10" stroke-linejoin="round"/>
<path d="M189.892 110.031H197.769V126.387H189.892V110.031Z" stroke="#161310" stroke-width="3" stroke-miterlimit="10" stroke-linejoin="round"/>
<path d="M199.286 104.156L188.564 104.156" stroke="#161310" stroke-width="3" stroke-miterlimit="10" stroke-linejoin="round"/>
<path d="M170.301 110.198H178.178V126.554H170.301V110.198Z" stroke="#161310" stroke-width="3" stroke-miterlimit="10" stroke-linejoin="round"/>
<path d="M179.695 104.323L168.974 104.323" stroke="#161310" stroke-width="3" stroke-miterlimit="10" stroke-linejoin="round"/>
<path d="M37.7725 95.5289H111.538" stroke="#161310" stroke-width="3" stroke-miterlimit="10" stroke-linejoin="round"/>
<path d="M64.7818 134.147H112.61" stroke="#161310" stroke-width="3" stroke-miterlimit="10" stroke-linejoin="round"/>
<path d="M43.7314 49.2545V32.8881H117.296" stroke="#161310" stroke-width="3" stroke-miterlimit="10" stroke-linejoin="round"/>
<path d="M230.1 49.0874V31.2775H152.684" stroke="#161310" stroke-width="3" stroke-miterlimit="10" stroke-linejoin="round"/>
<path d="M161.387 39.4607L236.181 51.1303" stroke="#161310" stroke-width="3" stroke-miterlimit="10" stroke-linejoin="round"/>
<path d="M236.181 51.1302L233.441 57.0609H160.474" stroke="#161310" stroke-width="3" stroke-miterlimit="10" stroke-linejoin="round"/>
<path d="M230.87 57.0609V74.7181" stroke="#161310" stroke-width="3" stroke-miterlimit="10" stroke-linejoin="round"/>
<path d="M213.737 95.5289H161.672" stroke="#161310" stroke-width="3" stroke-miterlimit="10" stroke-linejoin="round"/>
<path d="M205.437 134.147H160.901" stroke="#161310" stroke-width="3" stroke-miterlimit="10" stroke-linejoin="round"/>
<path d="M112.124 103.923V125.907" stroke="#161310" stroke-width="3" stroke-miterlimit="10" stroke-linejoin="round"/>
<path d="M121.845 52.6138H113.038V86.7391H121.845V52.6138Z" stroke="#161310" stroke-width="3" stroke-miterlimit="10" stroke-linejoin="round"/>
<path d="M111.526 95.5287L112.994 86.7393H117.463H121.64L123.269 95.5287" stroke="#161310" stroke-width="3" stroke-miterlimit="10" stroke-linejoin="round"/>
<path d="M160.034 52.8474H151.227V86.9728H160.034V52.8474Z" stroke="#161310" stroke-width="3" stroke-miterlimit="10" stroke-linejoin="round"/>
<path d="M150.028 47.1959L151.226 52.8473H154.14" stroke="#161310" stroke-width="3" stroke-miterlimit="10" stroke-linejoin="round"/>
<path d="M149.715 95.7624L151.183 86.9729H155.652H159.829L161.458 95.7624" stroke="#161310" stroke-width="3" stroke-miterlimit="10" stroke-linejoin="round"/>
<path d="M112.105 46.9623L113.299 52.6137H120.474L123.045 46.9623" stroke="#161310" stroke-width="3" stroke-miterlimit="10" stroke-linejoin="round"/>
<path d="M123.104 95.5287H111.689V103.922H123.104V95.5287Z" stroke="#161310" stroke-width="3" stroke-miterlimit="10" stroke-linejoin="round"/>
<path d="M123.104 125.907H111.689V137.452H123.104V125.907Z" stroke="#161310" stroke-width="3" stroke-miterlimit="10" stroke-linejoin="round"/>
<path d="M122.804 103.922V125.907" stroke="#161310" stroke-width="3" stroke-miterlimit="10" stroke-linejoin="round"/>
<path d="M157.085 52.8431H159.995L161.057 46.5942" stroke="#161310" stroke-width="3" stroke-miterlimit="10" stroke-linejoin="round"/>
<path d="M161.251 95.7622H149.836V104.156H161.251V95.7622Z" stroke="#161310" stroke-width="3" stroke-miterlimit="10" stroke-linejoin="round"/>
<path d="M161.251 126.137H149.836V137.681H161.251V126.137Z" stroke="#161310" stroke-width="3" stroke-miterlimit="10" stroke-linejoin="round"/>
<path d="M160.951 104.156V126.136" stroke="#161310" stroke-width="3" stroke-miterlimit="10" stroke-linejoin="round"/>
<path d="M121.844 60.9493H151.19" stroke="#161310" stroke-width="3" stroke-miterlimit="10" stroke-linejoin="round"/>
<path d="M128.025 60.3616C128.025 55.2645 131.848 51.1301 136.561 51.1301C141.274 51.1301 145.097 55.2645 145.097 60.3616" stroke="#161310" stroke-width="3" stroke-miterlimit="10" stroke-linejoin="round"/>
<path d="M129.128 97.5001V75.302C129.128 72.7521 132.483 70.6829 136.618 70.6829C140.753 70.6829 144.109 72.7521 144.109 75.302V97.5001" stroke="#161310" stroke-width="3" stroke-miterlimit="10" stroke-linejoin="round"/>
<path d="M123.281 97.5002H149.691" stroke="#161310" stroke-width="3" stroke-miterlimit="10" stroke-linejoin="round"/>
<path d="M123.281 134.147H149.691" stroke="#161310" stroke-width="3" stroke-miterlimit="10" stroke-linejoin="round"/>
<path d="M129.128 134.639V114.956C129.128 112.695 132.483 110.86 136.618 110.86C140.753 110.86 144.109 112.695 144.109 114.956V134.639" stroke="#161310" stroke-width="3" stroke-miterlimit="10" stroke-linejoin="round"/>
<path d="M149.987 125.907V104.156" stroke="#161310" stroke-width="3" stroke-miterlimit="10" stroke-linejoin="round"/>
<path d="M17.9648 136.577L17.9648 107.659" stroke="#161310" stroke-width="3" stroke-miterlimit="10" stroke-linejoin="round"/>
<path d="M40.7598 137.209L40.7598 119.517" stroke="#161310" stroke-width="3" stroke-miterlimit="10" stroke-linejoin="round"/>
<path d="M25.7689 88.8606C29.1625 76.8652 13.561 73.5264 11.0402 82.9491C6.35865 82.4297 1.20156 84.698 0.215142 92.7547C-0.647928 99.804 1.02524 108.472 6.35865 111.363C3.63509 113.22 3.75412 123.713 10.5624 123.227" stroke="#5ED48F" stroke-width="3" stroke-miterlimit="10" stroke-linejoin="round"/>
<path d="M26.0952 89.6221C32.749 88.2208 32.749 94.8992 32.749 94.8992" stroke="#5ED48F" stroke-width="3" stroke-miterlimit="10" stroke-linejoin="round"/>
<path d="M27.2052 128.057C24.7804 122.636 27.2054 115.269 31.8001 114.549C31.8001 114.549 28.2392 102.095 40.4868 102.095C52.7345 102.096 54.3407 117.058 54.3407 117.058C54.3407 117.058 68.9977 124.214 60.7657 134.839" stroke="#5ED48F" stroke-width="3" stroke-miterlimit="10" stroke-linejoin="round"/>
<path d="M246.602 122.625C249.947 119.883 249.527 115.084 248.211 112.723C248.211 112.723 264.727 97.4962 249.318 83.0933C253.328 68.9225 234.897 64.9783 231.919 76.1097C226.388 75.4962 220.296 78.1757 219.131 87.6935C218.111 96.0212 220.088 106.261 226.388 109.676C223.171 111.87 223.311 124.266 231.354 123.691" stroke="#5ED48F" stroke-width="3" stroke-miterlimit="10" stroke-linejoin="round"/>
<path d="M239.055 139.821L239.055 102.849" stroke="#161310" stroke-width="3" stroke-miterlimit="10" stroke-linejoin="round"/>
<path d="M223.19 106.062C210.605 106.062 211.953 119.751 211.953 119.751C206.56 120.453 203.713 127.649 206.559 132.944" stroke="#5ED48F" stroke-width="3" stroke-miterlimit="10" stroke-linejoin="round"/>
<path d="M257.42 109.18C270.005 109.18 268.657 122.868 268.657 122.868C274.05 123.571 276.897 130.767 274.05 136.061" stroke="#5ED48F" stroke-width="3" stroke-miterlimit="10" stroke-linejoin="round"/>
</g>
<defs>
<clipPath id="clip0">
<rect width="287" height="151" fill="white" transform="translate(0 0.973633)"/>
</clipPath>
</defs>
</svg>
