<svg width="287" height="152" viewBox="0 0 287 152" fill="none" xmlns="http://www.w3.org/2000/svg">
<g clip-path="url(#clip0)">
<path d="M204.117 114.978C201.323 112.725 201.078 110.331 202.177 108.39M201.848 82.4931C198.499 70.8484 213.895 67.6073 216.382 76.7544C221.002 76.2503 226.091 78.4522 227.065 86.2733C227.917 93.1165 226.265 101.531 221.002 104.337C223.69 106.14 223.572 116.326 216.854 115.854" stroke="#66DF98" stroke-width="3" stroke-miterlimit="10" stroke-linejoin="round"/>
<path d="M147.794 29.9845H47.1147V139.459H147.794V29.9845Z" stroke="#161310" stroke-width="3" stroke-miterlimit="10"/>
<path d="M98.8 40.0059V49.8461" stroke="#161310" stroke-width="3" stroke-miterlimit="10"/>
<path d="M98.801 57.7909V67.6191" stroke="#161310" stroke-width="3" stroke-miterlimit="10"/>
<path d="M98.801 75.5637V85.404" stroke="#161310" stroke-width="3" stroke-miterlimit="10"/>
<path d="M98.801 93.3485V103.189" stroke="#161310" stroke-width="3" stroke-miterlimit="10"/>
<path d="M98.801 111.121V120.962" stroke="#161310" stroke-width="3" stroke-miterlimit="10"/>
<path d="M98.801 128.906V138.747" stroke="#161310" stroke-width="3" stroke-miterlimit="10"/>
<path d="M110.245 40.0057V49.846" stroke="#161310" stroke-width="3" stroke-miterlimit="10"/>
<path d="M110.244 57.7908V67.619" stroke="#161310" stroke-width="3" stroke-miterlimit="10"/>
<path d="M110.244 75.5636V85.4039" stroke="#161310" stroke-width="3" stroke-miterlimit="10"/>
<path d="M110.244 93.3484V103.189" stroke="#161310" stroke-width="3" stroke-miterlimit="10"/>
<path d="M110.244 111.121V120.961" stroke="#161310" stroke-width="3" stroke-miterlimit="10"/>
<path d="M110.244 128.906V138.747" stroke="#161310" stroke-width="3" stroke-miterlimit="10"/>
<path d="M123.883 40.0057V49.846" stroke="#161310" stroke-width="3" stroke-miterlimit="10"/>
<path d="M123.882 57.7908V67.619" stroke="#161310" stroke-width="3" stroke-miterlimit="10"/>
<path d="M123.882 75.5636V85.4039" stroke="#161310" stroke-width="3" stroke-miterlimit="10"/>
<path d="M123.882 93.3484V103.189" stroke="#161310" stroke-width="3" stroke-miterlimit="10"/>
<path d="M123.882 111.121V120.961" stroke="#161310" stroke-width="3" stroke-miterlimit="10"/>
<path d="M123.882 128.906V138.747" stroke="#161310" stroke-width="3" stroke-miterlimit="10"/>
<path d="M75.0601 40.0057V49.846" stroke="#161310" stroke-width="3" stroke-miterlimit="10"/>
<path d="M75.0603 57.7908V67.619" stroke="#161310" stroke-width="3" stroke-miterlimit="10"/>
<path d="M75.0603 75.5636V85.4039" stroke="#161310" stroke-width="3" stroke-miterlimit="10"/>
<path d="M75.0603 93.3484V103.189" stroke="#161310" stroke-width="3" stroke-miterlimit="10"/>
<path d="M75.0603 111.121V120.961" stroke="#161310" stroke-width="3" stroke-miterlimit="10"/>
<path d="M75.0603 128.906V138.747" stroke="#161310" stroke-width="3" stroke-miterlimit="10"/>
<path d="M60.2407 40.0057V49.846" stroke="#161310" stroke-width="3" stroke-miterlimit="10"/>
<path d="M60.241 57.7908V67.619" stroke="#161310" stroke-width="3" stroke-miterlimit="10"/>
<path d="M60.241 75.5636V85.4039" stroke="#161310" stroke-width="3" stroke-miterlimit="10"/>
<path d="M60.241 93.3484V103.189" stroke="#161310" stroke-width="3" stroke-miterlimit="10"/>
<path d="M60.241 111.121V120.961" stroke="#161310" stroke-width="3" stroke-miterlimit="10"/>
<path d="M60.241 128.906V138.747" stroke="#161310" stroke-width="3" stroke-miterlimit="10"/>
<path d="M86.1743 40.006V49.8462" stroke="#161310" stroke-width="3" stroke-miterlimit="10"/>
<path d="M86.1758 57.7908V67.619" stroke="#161310" stroke-width="3" stroke-miterlimit="10"/>
<path d="M86.1758 75.5636V85.4039" stroke="#161310" stroke-width="3" stroke-miterlimit="10"/>
<path d="M86.1758 93.3486V103.189" stroke="#161310" stroke-width="3" stroke-miterlimit="10"/>
<path d="M86.1758 111.121V120.962" stroke="#161310" stroke-width="3" stroke-miterlimit="10"/>
<path d="M86.1758 128.906V138.747" stroke="#161310" stroke-width="3" stroke-miterlimit="10"/>
<path d="M169.341 67.6918V74.7067" stroke="#161310" stroke-width="3" stroke-miterlimit="10"/>
<path d="M169.342 80.3573V87.3602" stroke="#161310" stroke-width="3" stroke-miterlimit="10"/>
<path d="M169.342 93.0228V100.026" stroke="#161310" stroke-width="3" stroke-miterlimit="10"/>
<path d="M169.342 105.688V112.691" stroke="#161310" stroke-width="3" stroke-miterlimit="10"/>
<path d="M169.342 118.354V125.357" stroke="#161310" stroke-width="3" stroke-miterlimit="10"/>
<path d="M169.342 131.02V138.022" stroke="#161310" stroke-width="3" stroke-miterlimit="10"/>
<path d="M158.954 67.6918V74.7067" stroke="#161310" stroke-width="3" stroke-miterlimit="10"/>
<path d="M158.955 80.3573V87.3602" stroke="#161310" stroke-width="3" stroke-miterlimit="10"/>
<path d="M158.955 93.0228V100.026" stroke="#161310" stroke-width="3" stroke-miterlimit="10"/>
<path d="M158.955 105.688V112.691" stroke="#161310" stroke-width="3" stroke-miterlimit="10"/>
<path d="M158.955 118.354V125.357" stroke="#161310" stroke-width="3" stroke-miterlimit="10"/>
<path d="M158.955 131.02V138.022" stroke="#161310" stroke-width="3" stroke-miterlimit="10"/>
<path d="M190.092 67.6914V74.7064" stroke="#161310" stroke-width="3" stroke-miterlimit="10"/>
<path d="M190.092 80.3569V87.3598" stroke="#161310" stroke-width="3" stroke-miterlimit="10"/>
<path d="M190.092 93.0225V100.025" stroke="#161310" stroke-width="3" stroke-miterlimit="10"/>
<path d="M190.092 105.688V112.691" stroke="#161310" stroke-width="3" stroke-miterlimit="10"/>
<path d="M190.092 118.354V125.356" stroke="#161310" stroke-width="3" stroke-miterlimit="10"/>
<path d="M190.092 131.019V138.022" stroke="#161310" stroke-width="3" stroke-miterlimit="10"/>
<path d="M179.705 67.6914V74.7064" stroke="#161310" stroke-width="3" stroke-miterlimit="10"/>
<path d="M179.705 80.3569V87.3598" stroke="#161310" stroke-width="3" stroke-miterlimit="10"/>
<path d="M179.705 93.0225V100.025" stroke="#161310" stroke-width="3" stroke-miterlimit="10"/>
<path d="M179.705 105.688V112.691" stroke="#161310" stroke-width="3" stroke-miterlimit="10"/>
<path d="M179.705 118.354V125.356" stroke="#161310" stroke-width="3" stroke-miterlimit="10"/>
<path d="M179.705 131.019V138.022" stroke="#161310" stroke-width="3" stroke-miterlimit="10"/>
<path d="M56.3765 49.8461H81.2877" stroke="#161310" stroke-width="3" stroke-miterlimit="10"/>
<path d="M56.3779 67.4622H81.2892" stroke="#161310" stroke-width="3" stroke-miterlimit="10"/>
<path d="M56.3779 85.0779H81.2892" stroke="#161310" stroke-width="3" stroke-miterlimit="10"/>
<path d="M56.3779 102.706H81.2892" stroke="#161310" stroke-width="3" stroke-miterlimit="10"/>
<path d="M56.3779 120.322H81.2892" stroke="#161310" stroke-width="3" stroke-miterlimit="10"/>
<path d="M106.382 49.4841H131.293" stroke="#161310" stroke-width="3" stroke-miterlimit="10"/>
<path d="M106.382 67.1001H131.293" stroke="#161310" stroke-width="3" stroke-miterlimit="10"/>
<path d="M106.382 84.728H131.293" stroke="#161310" stroke-width="3" stroke-miterlimit="10"/>
<path d="M106.382 102.344H131.293" stroke="#161310" stroke-width="3" stroke-miterlimit="10"/>
<path d="M106.382 119.96H131.293" stroke="#161310" stroke-width="3" stroke-miterlimit="10"/>
<path d="M135.168 29.9845V139.459" stroke="#161310" stroke-width="3" stroke-miterlimit="10"/>
<path d="M200.321 58.6843H147.794V139.821H200.321V122.219V92.6713V69.335V58.6843Z" stroke="#161310" stroke-width="3" stroke-miterlimit="10"/>
<path d="M123.883 20.1564H97.4487V29.9966H123.883V20.1564Z" stroke="#161310" stroke-width="3" stroke-miterlimit="10"/>
<path d="M174.228 49.4841H147.794V58.3585H174.228V49.4841Z" stroke="#161310" stroke-width="3" stroke-miterlimit="10"/>
<path d="M9.105 107.941L6.64935 111.026C5.92175 111.907 5.92175 113.228 6.64935 114.11L7.286 114.881C8.0136 115.762 8.0136 117.084 7.286 117.965L6.64935 118.736C5.92175 119.617 5.92175 120.939 6.64935 121.82L7.4679 122.811C8.1955 123.692 8.1955 125.014 7.4679 125.895L7.1041 126.336C6.3765 127.217 6.3765 128.539 7.1041 129.42C7.8317 130.301 7.8317 131.623 7.1041 132.504L6.0127 133.826" stroke="#161310" stroke-width="3" stroke-miterlimit="10" stroke-linejoin="round"/>
<path d="M37.6345 105.429C34.2359 105.848 34.9975 109.638 34.9975 109.638C29.3885 108.619 28.4413 114.711 29.3887 116.69" stroke="#66DF98" stroke-width="3" stroke-miterlimit="10" stroke-linejoin="round"/>
<path d="M45.1047 75.4047C40.7558 74.9502 35.9651 76.9351 35.0488 83.9853C34.247 90.154 35.8013 97.739 40.7558 100.269C38.2257 101.894 38.3363 111.076 44.6609 110.651" stroke="#66DF98" stroke-width="3" stroke-miterlimit="10" stroke-linejoin="round"/>
<path d="M0 108.186L24.524 108.186" stroke="#5ED48F" stroke-width="3" stroke-miterlimit="10"/>
<path d="M16.5205 103.224V137.219" stroke="#5ED48F" stroke-width="3" stroke-miterlimit="10"/>
<path d="M0.350098 103.224V137.219" stroke="#5ED48F" stroke-width="3" stroke-miterlimit="10"/>
<path d="M24.5264 103.224V137.219" stroke="#5ED48F" stroke-width="3" stroke-miterlimit="10"/>
<path d="M16.5205 117.054H24.5241" stroke="#5ED48F" stroke-width="3" stroke-miterlimit="10"/>
<path d="M16.7031 125.078H24.071" stroke="#5ED48F" stroke-width="3" stroke-miterlimit="10"/>
<path d="M16.7949 133.84H24.0709" stroke="#5ED48F" stroke-width="3" stroke-miterlimit="10"/>
<path d="M26.3477 123.594H47.1147" stroke="#161310" stroke-width="3" stroke-miterlimit="10" stroke-linejoin="round"/>
<path d="M199.529 122.228L227.277 122.228" stroke="#161310" stroke-width="3" stroke-miterlimit="10" stroke-linejoin="round"/>
<path d="M221.471 109.679C229.196 109.679 231.679 116.743 231.679 116.743" stroke="#66DF98" stroke-width="3" stroke-miterlimit="10" stroke-linejoin="round"/>
<path d="M259.402 124.843C258.329 123.164 256.418 119.321 254.928 114.235M241.951 114.235L233.815 124.332M254.928 114.235C254.512 112.813 253.988 110.037 253.665 108.442H248.075M254.928 114.235C253.152 114.235 249.533 115.377 249.272 119.946C249.012 124.515 246.669 125.114 245.53 124.843L241.219 111.669H239.347" stroke="#161310" stroke-width="3" stroke-miterlimit="10" stroke-linejoin="round"/>
<ellipse cx="234.266" cy="124.569" rx="6.79239" ry="6.91033" stroke="#161310" stroke-width="3" stroke-miterlimit="10" stroke-linejoin="round"/>
<ellipse cx="259.518" cy="124.569" rx="6.79239" ry="6.91033" stroke="#161310" stroke-width="3" stroke-miterlimit="10" stroke-linejoin="round"/>
<path d="M211.062 94.1884V131.834" stroke="#161310" stroke-width="3" stroke-miterlimit="10" stroke-linejoin="round"/>
</g>
<defs>
<clipPath id="clip0">
<rect width="287" height="151" fill="white" transform="translate(0 0.973633)"/>
</clipPath>
</defs>
</svg>
