<svg width="332" height="58" viewBox="0 0 332 58" fill="none" xmlns="http://www.w3.org/2000/svg">
<path d="M267.793 1.21363V48.3996H297.535V1.21363H267.793ZM294.839 33.5307C294.839 40.2755 289.364 45.7927 282.671 45.7927C275.978 45.7927 270.503 40.2755 270.503 33.5307V15.5584C270.503 8.81359 275.978 3.29638 282.671 3.29638C289.364 3.29638 294.839 8.81359 294.839 15.5584V33.5307Z" fill="white"/>
<path d="M302.257 1.21363V48.3996H332V1.21363H302.257ZM329.304 33.5307C329.304 40.2755 323.829 45.7927 317.136 45.7927C310.442 45.7927 304.967 40.2755 304.967 33.5307V15.5584C304.967 8.81359 310.442 3.29638 317.136 3.29638C323.829 3.29638 329.304 8.81359 329.304 15.5584V33.5307Z" fill="white"/>
<path d="M233.52 1.21363V48.3996H263.262V1.21363H233.52ZM260.552 16.5791C260.552 19.586 258.882 22.8825 256.843 24.4825C258.745 26.0687 260.552 29.379 260.552 32.3859V33.3928C260.552 40.1376 255.077 45.6548 248.384 45.6548C241.691 45.6548 236.216 40.1376 236.216 33.3928V32.3859C236.216 29.379 238.187 25.7239 240.021 24.4825C238.31 23.2135 236.216 19.586 236.216 16.5791V15.5722C236.216 8.82738 241.691 3.31017 248.384 3.31017C255.077 3.31017 260.552 8.82738 260.552 15.5722V16.5791Z" fill="white"/>
<path d="M38.9815 48.4H6.18667V58H0V42.0828H0.479057C5.78974 42.0828 7.28166 37.4208 7.69228 28.7863L8.97889 0.965782H39.9944V42.0966H45.1682V58H38.9815V48.4ZM10.7446 42.0828H33.3287V7.2692H15.0971L14.0706 28.9932C13.8105 34.9656 12.9208 39.2828 10.7446 42.0828Z" fill="white"/>
<path d="M64.2757 48.4H51.3549V0.965782H63.4682C72.2418 0.965782 77.1418 5.283 77.1418 13.4347C77.1418 17.9588 75.1024 21.5864 71.7627 23.3795C75.91 25.1588 78.4284 28.8691 78.4284 34.6898C78.4284 43.3242 72.5839 48.4 64.2757 48.4ZM57.9522 6.85541V21.1174H63.126C67.7523 21.1174 70.2708 18.4416 70.2708 13.9174C70.2708 9.39333 67.8892 6.85541 63.126 6.85541H57.9522ZM57.9522 26.8001V42.4966H63.5366C68.7789 42.4966 71.489 39.2828 71.489 34.4829C71.489 29.8208 68.8336 26.8001 63.5366 26.8001H57.9522Z" fill="white"/>
<path d="M108.02 0C122.31 0 132.233 10.4827 132.233 24.6068C132.233 38.6619 122.296 49.2825 108.089 49.2825C93.8676 49.2825 84.0127 38.9929 84.0127 24.6757C83.999 10.4137 94.1413 0 108.02 0ZM108.075 43.0481C118.409 43.0481 125.212 35.3654 125.212 24.6757C125.212 13.9861 118.286 6.23445 108.075 6.23445C97.8095 6.23445 91.0069 13.9861 91.0069 24.6757C91.0069 35.4343 98.0148 43.0481 108.075 43.0481Z" fill="white"/>
<path d="M151.957 27.145H146.441V48.4H139.775V0.965782H151.957C160.73 0.965782 165.767 5.35197 165.767 13.8485C165.767 22.2071 160.115 27.145 151.957 27.145ZM146.441 6.85541V21.2553H151.615C156.378 21.2553 158.828 18.3726 158.828 13.9174C158.828 9.53126 156.378 6.85541 151.615 6.85541H146.441Z" fill="white"/>
<path d="M172.83 0.965782H179.496V19.7519H184.327C193.169 19.7519 198.809 24.9657 198.809 34.1518C198.809 43.407 193.224 48.4138 184.327 48.4138H172.83V0.965782ZM179.496 25.6415V42.5104H183.985C189.227 42.5104 191.869 39.3518 191.869 34.1518C191.869 28.9381 189.145 25.6553 183.985 25.6553H179.496V25.6415ZM210.525 48.4H203.859V0.965782H210.525V48.4Z" fill="white"/>
</svg>
