<svg width="375" height="230" viewBox="0 0 375 230" fill="none" xmlns="http://www.w3.org/2000/svg">
<mask id="mask0" mask-type="alpha" maskUnits="userSpaceOnUse" x="0" y="0" width="375" height="230">
<rect width="375" height="230" fill="#FAFAFA"/>
</mask>
<g mask="url(#mask0)">
<rect width="375" height="230" fill="#FAFAFA"/>
<path opacity="0.1" d="M491.987 204.753V171.386H460.192V117.672H430.028V102.21H396.603L385.19 90.8157H377.853V134.332M357.472 131.508L361.548 127.439V122.556H357.472V105.465L361.548 101.396V96.5126H357.472V79.422L361.548 75.3528V70.4697H357.472V66.4005H352.58V61.5175H343.612V66.4005H328.938V69.6559H323.231V66.4005H317.525V69.6559H313.448V73.7251H307.742V76.1666L313.448 81.8635V85.9327H293.883V110.348L279.208 95.6988V90.8157H273.501M149.584 21.0863C149.584 20.4352 149.584 20.8254 149.584 15.9424H127.573V42.7991H117.79V46.8683L121.051 50.1237V58.2621V96.5126H113.714V56.6344L115.344 55.0067V51.7514H98.2241V45.2406H73.7668V51.7514H55.0161V55.0067L56.6466 56.6344V98.9541C53.3856 96.2413 46.8637 90.4902 46.8637 89.188C46.8637 87.8859 46.8637 80.5071 46.8637 76.9804H49.3094V72.0974H46.8637V68.0282H37.896V62.3313H30.5588V68.0282H27.2978L21.5912 51.7514H-9.38815V94.8849L-17.5406 72.0974V65.5867H-23.2473V46.8683H-37.9217V70.4697H-45.2589V98.9541H-50.9656V140.46H-71.3467V128.252L-83.5753 116.045H-91.7277V110.348H-101.511V116.045H-111.294V125.811H-120.261V160.326" stroke="black" stroke-width="3.00991"/>
<path d="M160.119 145.138C162.125 147.953 170.995 149.09 176.336 146.836C177.418 152.026 179.232 157.841 180.39 164.212C181.548 170.583 186.182 179.789 189.078 183.904M140.636 140.006C118.909 135.373 117.357 97.862 134.428 88.1626C120.461 77.6872 124.341 48.5888 139.084 45.485C135.592 37.3375 140.551 17.9386 157.707 19.8785C160.726 6.52604 172.838 4.35938 182.04 9.24188C186.911 2.73088 202.336 2.73286 207.207 9.24188C212.079 4.35938 236.078 12.1189 230.647 28.802C257.543 22.5943 264.038 56.4395 257.543 63.7632C274.592 68.6457 281.575 97.2898 257.543 110.961C263.226 116.657 257.543 134.56 241.306 128.863C239.299 133.557 232.331 139.356 217.676 135.788L212.89 158.972C211.808 161.142 209.318 166.784 208.019 171.992C206.72 177.2 206.395 181.757 206.395 183.385M206.395 194.777C206.125 205.898 206.07 228.792 208.019 231.396M204.78 135.373C205.62 134.369 206.432 133.285 207.207 132.118C209.201 133.006 210.647 133.542 212.443 134.162C211.36 137.93 209.318 150.891 208.019 160.157C208.669 155.6 205.589 138.628 204.78 135.373ZM204.78 135.373C203.285 137.163 201.703 138.701 200.082 140.006M193.711 183.904C189.657 176.314 185.73 167.271 185.73 145.138C189.868 144.32 194.383 143.568 200.082 140.006M200.082 140.006C201.433 143.441 204.02 153.439 203.557 165.949C202.167 175.679 201.82 181.973 201.82 183.904M194.29 195.487C204.715 201.858 199.387 226.183 201.24 230.817" stroke="#161310" stroke-width="3.00991"/>
<path d="M398.929 231.396C405.454 225.708 403.823 210.273 393.221 207.836C398.929 198.901 398.929 180.217 383.435 178.592C382.62 170.47 370.388 168.843 364.679 174.531C363.048 172.094 355.728 168.399 351.651 168.399M341.869 170.281C337.791 171.093 332.06 175.018 328.798 183.467M323.905 194.839C321.459 196.193 316.729 200.363 317.381 206.212C310.858 208.649 305.965 212.711 304.334 218.397" stroke="#161310" stroke-width="3.00991"/>
<path d="M60.307 153.086C63.0368 155.544 66.5311 162.262 58.669 169.471C48.8414 178.483 43.1087 188.314 52.1173 194.868C59.3242 200.111 65.4936 197.053 67.6775 194.868M60.307 153.086C58.5233 154.275 51.5586 154.602 45.6823 154.691M60.307 153.086C62.2179 151.994 66.0394 151.448 69.3152 147.352L79.9618 158.822C78.878 160.448 76.8934 163.406 74.4482 167.014M67.6775 194.868C70.6804 196.233 77.8327 197.326 82.4189 190.772C86.1651 185.418 89.0735 181.886 90.6083 180.177M67.6775 194.868C67.6774 194.396 66.0251 193.474 65.1359 192.591M138.927 194.049C134.014 197.326 129.1 196.506 125.005 194.049C121.467 191.925 116.706 183.073 114.948 180.177M138.927 194.049C138.927 194.049 143.841 198.964 150.393 194.868C153.669 192.956 157.764 186.675 152.031 177.664C145.737 167.171 140.041 156.318 136.471 152.148M138.927 194.049L127.354 177.664M93.0654 143.254L97.1602 148.99H98.798M93.0654 143.254C93.0654 143.254 94.7033 140.796 94.7033 135.881C94.7033 134.789 93.8844 131.785 90.6085 128.508C86.5137 124.411 77.5051 111.303 67.6775 112.123C59.8154 112.778 57.8499 120.589 57.8499 124.413M93.0654 143.254C90.0626 139.432 82.4192 130.639 75.8674 126.052C69.3157 121.464 62.764 120.838 57.8499 124.413M57.8499 124.413C52.9359 122.775 50.5961 123.594 45.6823 128.508C40.7685 133.422 33.2812 141.617 33.2812 144.894C33.2812 153.087 34.0999 154.725 39.8327 154.725C41.4031 154.725 43.4652 154.725 45.6823 154.691M57.8499 124.413C51.8442 128.783 39.8327 139.816 39.8327 145.714C39.8327 153.086 40.8856 154.657 45.6823 154.691M90.6083 180.177C90.9524 179.794 91.2275 179.502 91.4275 179.302C92.9458 178 96.6009 176.078 100.996 176.658H126.643L127.354 177.664M90.6083 180.177C91.0294 180.149 98.8681 180.151 105.678 180.16M114.948 180.177C112.146 180.171 109.467 180.165 105.678 180.16M114.948 180.177H125.005C125.788 180.158 127.354 179.629 127.354 177.664M105.678 180.16C110.046 183.698 124.953 192.789 108.574 196.066C88.0999 200.163 79.9616 186.418 98.798 189.695C117.634 192.972 114.687 206.011 105.678 207.65C84.385 210.927 74.229 196.264 91.4275 199.541C108.626 203.638 112.99 216.989 99.8864 218.627C86.7829 220.266 74.2723 212.897 77.8777 209.967C81.4831 207.036 103.876 214.203 104.531 222.723M104.531 222.723C100.436 222.723 96.1773 222.723 85.6945 222.723C75.2118 222.723 69.8612 229.277 68.4963 232.554C82.4187 232.554 113.048 232.554 120.91 232.554C116.324 224.034 108.626 222.723 104.531 222.723ZM74.4482 167.014C71.9662 170.677 69.0097 175.01 66.0394 179.302C60.7937 186.881 62.9408 190.413 65.1359 192.591M74.4482 167.014H66.0394C64.6746 168.653 61.5376 172.725 57.6066 176.658C52.6928 181.573 48.6389 188.252 55.8691 192.591C59.9639 195.049 61.8605 193.736 65.1359 192.591M98.798 148.99H126.643C128.281 148.99 129.509 148.909 130.738 149.073M98.798 148.99C99.6169 149.81 101.255 159.641 113.539 159.641C125.824 159.641 129.373 152.868 130.738 149.073M130.738 149.073C131.272 149.144 131.807 149.262 132.376 149.453M132.376 149.453C133.113 149.702 133.908 150.074 134.833 150.629C135.311 150.916 135.86 151.434 136.471 152.148M132.376 149.453C136.198 144.384 145.971 135.391 154.488 139.979C165.135 145.714 160.221 156.364 153.669 155.545C145.96 154.581 147.117 148.171 143.023 148.99C138.928 149.809 137.563 151.641 136.471 152.148" stroke="#161310" stroke-width="3.00991"/>
<path d="M380.83 136.01L382.259 135.536L382.425 136.037L382.241 136.532L380.83 136.01ZM370.086 165.014L371.497 165.536L371.133 166.519H370.086V165.014ZM380.017 133.557L379.96 132.053L381.09 132.01L381.446 133.083L380.017 133.557ZM217.457 161.421L216.343 162.433L215.665 161.686L216.097 160.776L217.457 161.421ZM220.719 165.014V166.519H220.053L219.605 166.025L220.719 165.014ZM227.93 139.343L226.57 138.698L226.961 137.874L227.873 137.84L227.93 139.343ZM368.627 185.134L368.669 183.629L370.132 183.67V185.134H368.627ZM368.627 190.858H370.132V192.362H368.627V190.858ZM310.967 183.544L311.008 182.04L311.008 182.04L310.967 183.544ZM382.241 136.532L371.497 165.536L368.675 164.491L379.419 135.487L382.241 136.532ZM368.944 165.994L365.86 162.401L368.144 160.441L371.228 164.033L368.944 165.994ZM365.638 160.784L378.654 132.92L381.381 134.194L368.365 162.058L365.638 160.784ZM381.446 133.083L382.259 135.536L379.401 136.483L378.589 134.03L381.446 133.083ZM367.002 162.926H217.457V159.916H367.002V162.926ZM218.571 160.409L221.834 164.002L219.605 166.025L216.343 162.433L218.571 160.409ZM220.719 163.509H370.086V166.519H220.719V163.509ZM216.097 160.776L226.57 138.698L229.29 139.988L218.817 162.066L216.097 160.776ZM227.873 137.84L379.96 132.053L380.075 135.061L227.987 140.847L227.873 137.84ZM370.132 185.134V190.858H367.122V185.134H370.132ZM368.627 192.362H310.922V189.353H368.627V192.362ZM307.792 189.222V185.179H310.802V189.222H307.792ZM311.008 182.04L368.669 183.629L368.586 186.638L310.926 185.049L311.008 182.04ZM307.792 185.179C307.792 183.42 309.238 181.991 311.008 182.04L310.926 185.049C310.867 185.047 310.802 185.097 310.802 185.179H307.792ZM310.922 192.362C309.185 192.362 307.792 190.948 307.792 189.222H310.802C310.802 189.303 310.865 189.353 310.922 189.353V192.362Z" fill="#1671B8"/>
<path d="M349.206 164.261L343.077 184.653M343.861 165.062C343.077 166.894 338.858 177.429 336.557 184.653M352.779 164.261L348.782 184.653M348.782 191.194L349.596 230.999H345.522L339.817 194.465L316.184 195.283C312.924 195.283 306.241 196.918 305.589 203.459L303.145 231.816H298.255V191.194M229.548 164.964L222.465 183.835M224.482 165.766C224.106 167.271 219.477 177.294 215.945 183.835M232.759 164.964L228.17 183.835M227.355 191.194L228.17 230.999H224.095L219.205 195.283H195.572C192.312 195.283 185.629 196.918 184.978 203.459L181.718 231.816H176.828L177.643 191.194" stroke="#1671B8" stroke-width="3.00991"/>
<path d="M311.285 183.903H162.327C161.428 183.903 160.699 184.595 160.699 185.448V189.309C160.699 190.162 161.428 190.853 162.327 190.853H311.285" stroke="#1671B8" stroke-width="3.00991"/>
</g>
</svg>
