<svg width="904" height="302" viewBox="0 0 904 302" fill="none" xmlns="http://www.w3.org/2000/svg">
<path opacity="0.1" d="M901.999 268.313V223.97H859.746V152.587H819.66V132.038H775.24L760.072 116.896H750.321V174.726M723.236 170.974L728.653 165.566V159.077H723.236V136.364L728.653 130.956V124.467H723.236V101.754L728.653 96.3467V89.8574H723.236V84.4496H716.735V77.9603H704.818V84.4496H685.316V88.7758H677.732V84.4496H670.148V88.7758H664.731V94.1836H657.147V97.4282L664.731 104.999V110.407H638.729V142.853L619.228 123.385V116.896H611.644M446.965 37.943C446.965 37.0778 446.965 23.8829 446.965 17.3936H417.713V53.0847H404.712V58.4924L409.046 62.8186V73.6341V124.467H399.295V71.471L401.462 69.3079V64.9817H378.71V56.3293H346.208V64.9817H321.289V69.3079L323.456 71.471V127.712C319.122 124.106 310.455 116.463 310.455 114.733C310.455 113.003 310.455 103.196 310.455 98.5098H313.705V92.0205H310.455V86.6127H298.537V79.0419H288.787V86.6127H284.453L276.869 64.9817H235.699V122.304L224.865 92.0205V83.3681H217.281V58.4924H197.78V89.8574H188.029V127.712H180.445V182.871H153.36V166.647L137.109 150.424H126.274V142.853H113.273V150.424H100.272V163.403H88.3549V209.272" stroke="black" stroke-width="4"/>
<path d="M460.965 189.088C463.631 192.828 475.418 194.339 482.516 191.344C483.955 198.241 486.365 205.968 487.904 214.435C489.444 222.902 495.601 235.137 499.45 240.604M435.073 182.267C406.199 176.11 404.137 126.26 426.823 113.37C408.262 99.4486 413.418 60.7785 433.01 56.6537C428.37 45.8261 434.961 20.046 457.759 22.624C461.772 4.87938 477.868 2 490.096 8.48858C496.57 -0.164175 517.069 -0.161547 523.543 8.48858C530.017 2 561.911 12.312 554.692 34.4829C590.437 26.2333 599.068 71.2116 590.437 80.9444C613.094 87.433 622.373 125.499 590.437 143.667C597.989 151.237 590.437 175.029 568.858 167.459C566.191 173.697 556.931 181.403 537.455 176.662L531.095 207.472C529.657 210.356 526.348 217.854 524.621 224.775C522.895 231.696 522.464 237.752 522.464 239.915M522.464 255.055C522.104 269.834 522.032 300.259 524.621 303.719M520.318 176.11C521.433 174.775 522.512 173.335 523.543 171.785C526.193 172.965 528.114 173.677 530.5 174.5C529.062 179.508 526.348 196.732 524.621 209.047C525.485 202.991 521.393 180.436 520.318 176.11ZM520.318 176.11C518.33 178.489 516.228 180.533 514.074 182.267M505.607 240.604C500.219 230.518 495 218.5 495 189.088C500.5 188 506.5 187 514.074 182.267M514.074 182.267C515.87 186.832 519.308 200.119 518.692 216.744C516.845 229.675 516.383 238.039 516.383 240.604M506.377 255.998C520.231 264.465 513.15 296.792 515.613 302.949" stroke="#161310" stroke-width="4"/>
<path d="M778.331 303.718C787.002 296.16 784.834 275.648 770.746 272.41C778.331 260.535 778.331 235.705 757.74 233.546C756.657 222.751 740.401 220.59 732.815 228.149C730.647 224.91 720.919 220 715.5 220M702.5 222.5C697.082 223.58 689.465 228.796 685.13 240.024M678.628 255.137C675.377 256.937 669.091 262.478 669.958 270.251C661.288 273.49 654.786 278.887 652.619 286.444" stroke="#161310" stroke-width="4"/>
<path d="M328.32 199.65C331.948 202.916 336.592 211.844 326.143 221.425C313.083 233.401 305.464 246.466 317.436 255.176C327.014 262.144 335.213 258.079 338.115 255.176M328.32 199.65C325.95 201.23 316.694 201.664 308.885 201.783M328.32 199.65C330.86 198.199 335.938 197.474 340.292 192.03L354.44 207.272C353 209.434 350.362 213.364 347.113 218.16M338.115 255.176C342.106 256.99 351.611 258.442 357.706 249.732C362.684 242.617 366.549 237.924 368.589 235.652M338.115 255.176C338.115 254.548 335.919 253.323 334.737 252.15M432.802 254.087C426.272 258.442 419.742 257.353 414.3 254.087C409.598 251.265 403.271 239.501 400.935 235.652M432.802 254.087C432.802 254.087 439.333 260.619 448.039 255.176C452.393 252.635 457.835 244.288 450.216 232.312C441.852 218.367 434.282 203.946 429.538 198.403M432.802 254.087L417.421 232.312M371.854 186.584L377.296 194.206H379.472M371.854 186.584C371.854 186.584 374.031 183.318 374.031 176.785C374.031 175.334 372.943 171.342 368.589 166.987C363.147 161.543 351.175 144.123 338.115 145.212C327.667 146.083 325.055 156.464 325.055 161.545M371.854 186.584C367.864 181.504 357.706 169.82 348.999 163.723C340.292 157.626 331.585 156.794 325.055 161.545M325.055 161.545C318.524 159.368 315.415 160.456 308.885 166.987C302.355 173.517 292.404 184.409 292.404 188.764C292.404 199.651 293.492 201.829 301.111 201.829C303.198 201.829 305.938 201.828 308.885 201.783M325.055 161.545C317.074 167.352 301.111 182.014 301.111 189.852C301.111 199.65 302.51 201.738 308.885 201.783M368.589 235.652C369.046 235.143 369.412 234.756 369.678 234.49C371.695 232.76 376.553 230.205 382.394 230.975H416.477L417.421 232.312M368.589 235.652C369.148 235.615 379.566 235.618 388.616 235.629M400.935 235.652C397.211 235.644 393.651 235.636 388.616 235.629M400.935 235.652H414.3C415.341 235.627 417.421 234.924 417.421 232.312M388.616 235.629C394.42 240.331 414.231 252.413 392.464 256.768C365.255 262.212 354.44 243.947 379.472 248.302C404.505 252.657 400.588 269.985 388.616 272.162C360.318 276.517 346.822 257.032 369.678 261.387C392.533 266.83 398.333 284.573 380.919 286.75C363.505 288.928 346.879 279.135 351.671 275.241C356.462 271.347 386.221 280.871 387.091 292.194M387.091 292.194C381.65 292.194 375.99 292.194 362.059 292.194C348.128 292.194 341.017 300.904 339.203 305.259C357.705 305.259 398.41 305.259 408.858 305.259C402.763 293.936 392.533 292.194 387.091 292.194ZM347.113 218.16C343.815 223.028 339.886 228.786 335.938 234.49C328.967 244.562 331.82 249.256 334.737 252.15M347.113 218.16H335.938C334.124 220.337 329.956 225.749 324.731 230.975C318.201 237.508 312.814 246.383 322.422 252.15C327.864 255.416 330.385 253.671 334.737 252.15M379.472 194.206H416.477C418.654 194.207 420.286 194.098 421.919 194.316M379.472 194.206C380.561 195.296 382.738 208.361 399.063 208.361C415.388 208.361 420.105 199.361 421.919 194.316M421.919 194.316C422.629 194.411 423.34 194.568 424.096 194.822M424.096 194.822C425.076 195.152 426.131 195.647 427.361 196.384C427.997 196.766 428.726 197.454 429.538 198.403M424.096 194.822C429.175 188.085 442.163 176.134 453.482 182.231C467.63 189.852 461.1 204.006 452.393 202.917C442.148 201.636 443.686 193.118 438.245 194.206C432.803 195.295 430.989 197.73 429.538 198.403" stroke="#161310" stroke-width="4"/>
<path d="M754.278 176.955L756.177 176.326L756.397 176.992L756.154 177.65L754.278 176.955ZM740 215.5L741.875 216.195L741.392 217.5H740V215.5ZM753.198 173.695L753.122 171.697L754.624 171.64L755.097 173.066L753.198 173.695ZM537.164 210.725L535.684 212.07L534.783 211.078L535.357 209.868L537.164 210.725ZM541.5 215.5V217.5H540.615L540.019 216.845L541.5 215.5ZM551.083 181.386L549.276 180.528L549.795 179.433L551.007 179.387L551.083 181.386ZM738.061 242.238L738.117 240.239L740.061 240.293V242.238H738.061ZM738.061 249.845H740.061V251.845H738.061V249.845ZM661.434 240.126L661.489 238.127L661.434 240.126ZM756.154 177.65L741.875 216.195L738.125 214.805L752.403 176.261L756.154 177.65ZM738.482 216.803L734.384 212.028L737.419 209.423L741.518 214.197L738.482 216.803ZM734.089 209.879L751.386 172.849L755.01 174.542L737.713 211.572L734.089 209.879ZM755.097 173.066L756.177 176.326L752.38 177.584L751.3 174.324L755.097 173.066ZM735.901 212.725H537.164V208.725H735.901V212.725ZM538.645 209.381L542.981 214.155L540.019 216.845L535.684 212.07L538.645 209.381ZM541.5 213.5H740V217.5H541.5V213.5ZM535.357 209.868L549.276 180.528L552.89 182.243L538.971 211.583L535.357 209.868ZM551.007 179.387L753.122 171.697L753.274 175.694L551.159 183.384L551.007 179.387ZM740.061 242.238V249.845H736.061V242.238H740.061ZM738.061 251.845H661.375V247.845H738.061V251.845ZM657.215 247.672V242.299H661.215V247.672H657.215ZM661.489 238.127L738.117 240.239L738.006 244.238L661.379 242.126L661.489 238.127ZM657.215 242.299C657.215 239.961 659.136 238.062 661.489 238.127L661.379 242.126C661.301 242.123 661.215 242.189 661.215 242.299H657.215ZM661.375 251.845C659.066 251.845 657.215 249.965 657.215 247.672H661.215C661.215 247.779 661.298 247.845 661.375 247.845V251.845Z" fill="#1671B8"/>
<path d="M815.828 82.776L815.238 80.8652L815.828 82.776ZM833.11 301.998L834.675 300.753C834.957 301.107 835.11 301.546 835.11 301.998H833.11ZM805.028 82.776L805.618 80.8652L805.028 82.776ZM787.746 301.998H785.746C785.746 301.546 785.899 301.107 786.181 300.753L787.746 301.998ZM831.87 86.8462C831.87 95.9555 839.206 103.319 848.231 103.319V107.319C836.974 107.319 827.87 98.1417 827.87 86.8462H831.87ZM848.231 103.319C857.256 103.319 864.593 95.9555 864.593 86.8462H868.593C868.593 98.1417 859.488 107.319 848.231 107.319V103.319ZM864.593 86.8462C864.593 77.7368 857.256 70.373 848.231 70.373V66.373C859.488 66.373 868.593 75.5506 868.593 86.8462H864.593ZM848.231 70.373C839.206 70.373 831.87 77.7368 831.87 86.8462H827.87C827.87 75.5506 836.974 66.373 848.231 66.373V70.373ZM808.428 238.972V122.706H812.428V238.972H808.428ZM808.428 122.706V94.4528H812.428V122.706H808.428ZM810.428 120.706H844.991V124.706H810.428V120.706ZM847.311 118.359V112.926H851.311V118.359H847.311ZM849.311 110.926H851.471V114.926H849.311V110.926ZM853.792 108.579V104.233H857.792V108.579H853.792ZM810.428 236.972H815.828V240.972H810.428V236.972ZM815.828 236.972C816.871 236.972 818.388 237.27 819.702 238.222C821.117 239.246 822.149 240.933 822.149 243.319H818.149C818.149 242.227 817.741 241.74 817.355 241.461C816.869 241.108 816.226 240.972 815.828 240.972V236.972ZM822.149 243.319V250.925H818.149V243.319H822.149ZM822.149 250.925V294.391H818.149V250.925H822.149ZM820.637 292.452C822.223 292.851 824.744 293.72 827.333 295.06C829.905 296.392 832.701 298.27 834.675 300.753L831.544 303.243C830.063 301.379 827.818 299.816 825.494 298.612C823.186 297.417 820.955 296.656 819.661 296.331L820.637 292.452ZM835.11 301.998V305.258H831.11V301.998H835.11ZM823.389 252.925H820.149V248.925H823.389V252.925ZM849.311 114.926H847.151V110.926H849.311V114.926ZM840.831 108.579V104.233H844.831V108.579H840.831ZM847.151 114.926C843.649 114.926 840.831 112.073 840.831 108.579H844.831C844.831 109.887 845.881 110.926 847.151 110.926V114.926ZM844.991 120.706C846.261 120.706 847.311 119.667 847.311 118.359H851.311C851.311 121.853 848.493 124.706 844.991 124.706V120.706ZM851.471 110.926C852.742 110.926 853.792 109.887 853.792 108.579H857.792C857.792 112.073 854.974 114.926 851.471 114.926V110.926ZM810.428 94.4528C809.607 92.6292 809.606 92.6294 809.606 92.6296C809.606 92.6296 809.605 92.6298 809.605 92.6299C809.605 92.6301 809.604 92.6302 809.604 92.6304C809.603 92.6306 809.603 92.6308 809.603 92.6308C809.603 92.6309 809.604 92.6305 809.605 92.6297C809.609 92.6281 809.616 92.6247 809.627 92.6196C809.649 92.6093 809.685 92.5922 809.733 92.5686C809.83 92.5212 809.974 92.4486 810.149 92.3536C810.503 92.1611 810.963 91.8892 811.411 91.563C811.87 91.2288 812.248 90.8865 812.495 90.5691C812.615 90.4155 812.682 90.2952 812.717 90.2116C812.734 90.1714 812.742 90.1436 812.745 90.1273C812.747 90.1191 812.748 90.1136 812.748 90.1105C812.748 90.1089 812.748 90.1078 812.748 90.1071C812.748 90.1068 812.748 90.1065 812.748 90.1064C812.748 90.1062 812.748 90.1061 812.748 90.1061H816.748C816.748 91.3165 816.207 92.313 815.651 93.027C815.088 93.7497 814.387 94.344 813.766 94.7964C813.133 95.2567 812.513 95.6213 812.057 95.8688C811.827 95.9937 811.634 96.0919 811.494 96.1604C811.424 96.1947 811.367 96.2217 811.326 96.2411C811.305 96.2508 811.288 96.2586 811.275 96.2645C811.269 96.2674 811.264 96.2699 811.259 96.2719C811.257 96.2729 811.255 96.2737 811.253 96.2745C811.253 96.2748 811.252 96.2752 811.251 96.2755C811.251 96.2756 811.25 96.2758 811.25 96.2759C811.25 96.2761 811.249 96.2763 810.428 94.4528ZM810.428 81.5879C812.105 81.5879 813.719 81.3346 815.238 80.8652L816.419 84.6868C814.523 85.2731 812.51 85.5879 810.428 85.5879V81.5879ZM815.238 80.8652C821.922 78.7988 826.79 72.5315 826.79 65.1148H830.79C830.79 74.3211 824.745 82.1129 816.419 84.6868L815.238 80.8652ZM826.79 65.1148C826.79 56.0054 819.453 48.6416 810.428 48.6416V44.6416C821.685 44.6416 830.79 53.8192 830.79 65.1148H826.79ZM812.748 90.1061V83.0737H816.748V90.1061H812.748ZM792.986 86.8462C792.986 98.1417 783.882 107.319 772.625 107.319V103.319C781.65 103.319 788.986 95.9555 788.986 86.8462H792.986ZM772.625 107.319C761.368 107.319 752.263 98.1417 752.263 86.8462H756.263C756.263 95.9555 763.6 103.319 772.625 103.319V107.319ZM752.263 86.8462C752.263 75.5506 761.368 66.373 772.625 66.373V70.373C763.6 70.373 756.263 77.7368 756.263 86.8462H752.263ZM772.625 66.373C783.882 66.373 792.986 75.5506 792.986 86.8462H788.986C788.986 77.7368 781.65 70.373 772.625 70.373V66.373ZM810.428 124.706H775.865V120.706H810.428V124.706ZM769.545 118.359V112.926H773.545V118.359H769.545ZM771.545 114.926H769.384V110.926H771.545V114.926ZM763.064 108.579V104.233H767.064V108.579H763.064ZM810.428 240.972H805.028V236.972H810.428V240.972ZM805.028 240.972C804.63 240.972 803.987 241.108 803.501 241.461C803.115 241.74 802.707 242.227 802.707 243.319H798.707C798.707 240.933 799.739 239.246 801.154 238.222C802.468 237.27 803.985 236.972 805.028 236.972V240.972ZM802.707 243.319V250.925H798.707V243.319H802.707ZM802.707 250.925V294.391H798.707V250.925H802.707ZM801.195 296.331C799.901 296.656 797.67 297.417 795.362 298.612C793.038 299.816 790.793 301.379 789.311 303.243L786.181 300.753C788.155 298.27 790.951 296.392 793.523 295.06C796.111 293.72 798.633 292.851 800.219 292.452L801.195 296.331ZM789.746 301.998V305.258H785.746V301.998H789.746ZM797.467 248.925H800.707V252.925H797.467V248.925ZM771.545 110.926H773.705V114.926H771.545V110.926ZM776.025 108.579V104.233H780.025V108.579H776.025ZM773.705 110.926C774.975 110.926 776.025 109.887 776.025 108.579H780.025C780.025 112.073 777.207 114.926 773.705 114.926V110.926ZM775.865 124.706C772.363 124.706 769.545 121.853 769.545 118.359H773.545C773.545 119.667 774.595 120.706 775.865 120.706V124.706ZM769.384 114.926C765.882 114.926 763.064 112.073 763.064 108.579H767.064C767.064 109.887 768.114 110.926 769.384 110.926V114.926ZM810.428 94.4528C809.607 96.2763 809.606 96.2761 809.606 96.2759C809.606 96.2758 809.605 96.2756 809.605 96.2755C809.604 96.2752 809.603 96.2748 809.602 96.2745C809.601 96.2737 809.599 96.2729 809.597 96.2719C809.592 96.2699 809.587 96.2675 809.581 96.2645C809.568 96.2586 809.551 96.2508 809.53 96.2411C809.489 96.2217 809.432 96.1947 809.362 96.1604C809.222 96.0919 809.029 95.9937 808.798 95.8688C808.343 95.6213 807.723 95.2567 807.09 94.7964C806.469 94.344 805.768 93.7497 805.205 93.027C804.649 92.313 804.108 91.3165 804.108 90.1061H808.108C808.108 90.1061 808.108 90.1062 808.108 90.1064C808.108 90.1065 808.108 90.1068 808.108 90.1071C808.108 90.1078 808.108 90.1089 808.108 90.1105C808.108 90.1136 808.109 90.1191 808.111 90.1273C808.114 90.1436 808.122 90.1714 808.139 90.2116C808.174 90.2952 808.241 90.4155 808.361 90.5691C808.608 90.8865 808.986 91.2288 809.445 91.563C809.893 91.8892 810.353 92.1611 810.707 92.3536C810.882 92.4486 811.026 92.5212 811.123 92.5686C811.171 92.5922 811.207 92.6093 811.229 92.6196C811.24 92.6247 811.247 92.6281 811.251 92.6297C811.252 92.6305 811.253 92.6309 811.253 92.6308C811.253 92.6308 811.252 92.6306 811.252 92.6304C811.252 92.6302 811.251 92.6301 811.251 92.6299C811.251 92.6298 811.25 92.6296 811.25 92.6296C811.25 92.6294 811.249 92.6292 810.428 94.4528ZM810.428 85.5879C808.346 85.5879 806.333 85.2731 804.437 84.6868L805.618 80.8652C807.137 81.3346 808.751 81.5879 810.428 81.5879V85.5879ZM804.437 84.6868C796.111 82.1129 790.066 74.3211 790.066 65.1148H794.066C794.066 72.5315 798.934 78.7988 805.618 80.8652L804.437 84.6868ZM790.066 65.1148C790.066 53.8192 799.171 44.6416 810.428 44.6416V48.6416C801.403 48.6416 794.066 56.0054 794.066 65.1148H790.066ZM804.108 90.1061V83.0737H808.108V90.1061H804.108ZM820.149 296.391H800.707V292.391H820.149V296.391ZM820.149 252.925H800.707V248.925H820.149V252.925Z" fill="#1671B8"/>
<path d="M712.251 214.5L704.106 241.6M705.148 215.565C704.106 218 698.5 232 695.442 241.6M717 214.5L711.687 241.6M711.687 250.293L712.77 303.191H707.355L699.774 254.64L668.367 255.726C664.034 255.726 655.154 257.9 654.287 266.593L651.038 304.278H644.54V250.293M553.233 215.435L543.819 240.514M546.5 216.5C546 218.5 539.848 231.821 535.155 240.514M557.5 215.435L551.401 240.514M550.318 250.293L551.401 303.191H545.986L539.487 255.726H508.08C503.748 255.726 494.867 257.9 494.001 266.593L489.669 304.278H483.171L484.254 250.293" stroke="#1671B8" stroke-width="4"/>
<path d="M661.856 240.604H463.899C462.704 240.604 461.736 241.522 461.736 242.656V247.787C461.736 248.921 462.704 249.84 463.899 249.84H661.856" stroke="#1671B8" stroke-width="4"/>
<path d="M224.881 296.97C214.771 269.169 178.521 211.398 127.394 207.065C95.9481 203.921 43.2006 212.949 8.41548 296.97M224.881 296.97H210.799M224.881 296.97C228.131 296.97 230.296 301.303 230.297 304.553C224.52 304.553 211.449 304.553 205.384 304.553C206.25 299.353 209.355 297.331 210.799 296.97M210.799 296.97C200.69 267.725 167.472 214.648 113.313 214.648C64.4302 214.648 31.5485 266.291 19.7992 296.97M19.7992 296.97C23.0493 296.97 25.2145 301.303 25.2151 304.553C19.4381 304.553 9.06539 304.553 2.99955 304.553C3.8661 299.353 6.97123 297.331 8.41548 296.97M19.7992 296.97H8.41548" stroke="#161310" stroke-width="4"/>
<path d="M287.705 296.97C277.596 269.169 241.345 211.398 190.219 207.065C178.439 205.887 163.669 206.418 147.975 211.959M287.705 296.97H273.624M287.705 296.97C290.956 296.97 293.121 301.303 293.121 304.553C287.344 304.553 274.274 304.553 268.208 304.553C269.075 299.353 272.18 297.331 273.624 296.97M273.624 296.97C272.476 293.651 271.031 290.024 269.291 286.203M82.6237 296.97C85.8738 296.97 88.0391 301.303 88.0396 304.553C82.2626 304.553 71.8899 304.553 65.8241 304.553C66.6906 299.353 69.7958 297.331 71.24 296.97M82.6237 296.97H71.24M82.6237 296.97C91.7462 273.15 113.608 236.692 145.808 221.581M71.24 296.97C72.3913 294.189 73.5623 291.491 74.7515 288.872M134.976 217.674C133.854 218.269 132.731 218.894 131.606 219.548M203.217 219.317C211.758 222.351 219.582 226.706 226.676 231.908M121.784 226.047C117.122 229.523 112.476 233.572 107.897 238.273L106.814 239.045M101.32 245.544C97.4986 250.085 93.7433 255.123 90.0845 260.709M86.0216 267.208C83.2163 271.908 80.4772 276.955 77.8192 282.373M266.042 279.523C263.145 273.926 259.676 268.074 255.645 262.274M250.645 255.494C245.983 249.537 240.713 243.768 234.844 238.533" stroke="#161310" stroke-width="4"/>
<path d="M217.3 279.639H273.792C274.896 279.639 275.792 280.534 275.792 281.639V284.138C275.792 285.242 274.896 286.138 273.792 286.138H219.466" stroke="#161310" stroke-width="4"/>
<path d="M202.134 255.81H258.626C259.73 255.81 260.626 256.705 260.626 257.81V260.309C260.626 261.413 259.73 262.309 258.626 262.309H206.466" stroke="#161310" stroke-width="4"/>
<path d="M58.0716 239.046H109.148C110.252 239.046 111.148 239.941 111.148 241.046V243.545C111.148 244.65 110.252 245.545 109.148 245.545H51.5725" stroke="#161310" stroke-width="4"/>
<path d="M87.3162 219.548H130.81C131.915 219.548 132.81 220.443 132.81 221.548V224.047C132.81 225.152 131.915 226.047 130.81 226.047H74.6389" stroke="#161310" stroke-width="4"/>
<path d="M34.2402 267.21H93.9817C95.0863 267.21 95.9817 266.315 95.9817 265.21V262.711C95.9817 261.606 95.0863 260.711 93.9817 260.711H39.6561" stroke="#161310" stroke-width="4"/>
<path d="M23.4087 288.873H80.9839C82.0885 288.873 82.9839 287.978 82.9839 286.873V284.374C82.9839 283.269 82.0885 282.374 80.9839 282.374H26.6583" stroke="#161310" stroke-width="4"/>
<path d="M180.469 231.98H236.961C238.066 231.98 238.961 232.876 238.961 233.98V236.48C238.961 237.584 238.066 238.48 236.961 238.48H186.968" stroke="#161310" stroke-width="4"/>
<path d="M151.224 212.482H208.8C209.904 212.482 210.8 213.378 210.8 214.482V216.982C210.8 218.086 209.904 218.982 208.8 218.982H162.056" stroke="#161310" stroke-width="4"/>
<path d="M900.467 303.72C904.819 296.173 899.38 285.391 890.676 285.391C895.028 275.688 885.236 264.907 874.357 270.298C883.061 259.516 872.182 230.406 842.807 239.032C835.191 229.329 822.136 232.563 818.872 239.031" stroke="#161310" stroke-width="4"/>
</svg>
