<svg width="74" height="74" viewBox="0 0 74 74" fill="none" xmlns="http://www.w3.org/2000/svg">
<path d="M9.21756 55.1638L10.7837 57.1726C10.988 57.0024 11.1242 56.8321 11.2263 56.6278C11.3285 56.4236 11.3966 56.2193 11.4306 56.015C11.4647 55.8107 11.4306 55.6064 11.3625 55.3681C11.2944 55.1298 11.1923 54.9255 11.022 54.7212C10.8178 54.4488 10.6135 54.2446 10.3752 54.0743C10.1709 53.9041 9.96659 53.8019 9.79636 53.7339L10.5113 52.8486C10.7497 52.9508 10.988 53.121 11.2604 53.3253C11.5327 53.5296 11.7711 53.7679 11.9754 54.0403C12.2477 54.3807 12.452 54.7553 12.5882 55.0957C12.7244 55.4702 12.7584 55.8448 12.7244 56.2193C12.6563 56.5938 12.5201 57.0024 12.2818 57.3769C12.0435 57.7854 11.6349 58.16 11.1582 58.5685C10.6475 58.9771 10.1368 59.2495 9.69421 59.3856C9.21756 59.5218 8.80899 59.5559 8.40043 59.4878C7.99187 59.4197 7.6514 59.2495 7.31093 59.0452C6.97046 58.8068 6.69808 58.5345 6.42571 58.194C6.18738 57.9216 6.01714 57.6152 5.88096 57.3428C5.74477 57.0705 5.67668 56.8321 5.60858 56.6619L6.69808 56.2193C6.73213 56.3895 6.80022 56.5597 6.90237 56.7981C7.00451 57.0364 7.17474 57.2747 7.34498 57.5131C7.48116 57.7173 7.6514 57.8535 7.85568 57.9897C8.02591 58.1259 8.2302 58.194 8.46853 58.228C8.67281 58.2621 8.91114 58.2621 9.14946 58.194C9.38779 58.1259 9.66017 58.0238 9.93254 57.8195L8.33234 55.7767L9.21756 55.1638Z" fill="white"/>
<path d="M15.0396 62.7563L14.7672 62.552L13.0308 64.8332L11.9753 64.0501L15.9929 58.7388L17.0483 59.5218L15.2779 61.8711L15.6184 61.9392L18.7847 60.8156L19.9764 61.7009L16.7419 62.7563L16.1291 62.7223L16.3334 63.3351L16.1631 67.2165L14.8693 66.2291L15.0396 62.7563Z" fill="white"/>
<path d="M24.2323 70.7914C23.994 70.8595 23.7216 70.8255 23.3811 70.7914C23.0747 70.7233 22.7683 70.6212 22.4618 70.485C22.0873 70.3148 21.7809 70.1105 21.4745 69.8721C21.2021 69.6338 20.9638 69.3274 20.8276 68.9529C20.6914 68.5784 20.6233 68.1698 20.6574 67.6931C20.6914 67.2165 20.8276 66.7058 21.0659 66.127C21.3043 65.5141 21.6107 65.0375 21.9511 64.7311C22.2916 64.3906 22.6321 64.1523 23.0066 64.0161C23.3811 63.8799 23.7556 63.8118 24.1301 63.8458C24.5047 63.8799 24.8451 63.948 25.1856 64.0842C25.5261 64.2204 25.8325 64.3906 26.0368 64.5268C26.2751 64.663 26.4453 64.8332 26.5815 64.9353L25.9006 65.8546C25.7985 65.7184 25.6623 65.6163 25.492 65.5141C25.3218 65.412 25.1175 65.3099 24.8451 65.1737C24.3685 64.9694 23.8918 64.9694 23.4492 65.2077C23.0066 65.412 22.6321 65.8887 22.3257 66.6377C22.1895 66.9441 22.1214 67.2505 22.0533 67.557C22.0192 67.8634 22.0192 68.1017 22.0873 68.3741C22.1554 68.6124 22.2576 68.8507 22.4278 69.021C22.598 69.2253 22.8364 69.3614 23.1087 69.4976C23.3811 69.5998 23.6194 69.6679 23.8237 69.7019C24.028 69.736 24.1982 69.736 24.3685 69.7019L24.2323 70.7914Z" fill="white"/>
<path d="M33.1185 67.3867L30.8033 67.0803L30.0543 72.5278L28.7605 72.3576L29.6798 65.7524L34.5825 66.4334L33.6292 73.0044L32.3354 72.8342L33.1185 67.3867Z" fill="white"/>
<path d="M37.9532 66.3655L41.8686 65.9229L42.0048 67.0804L39.3832 67.3869L39.5534 68.919L41.9367 68.6466L42.0729 69.8042L39.6896 70.0766L39.8598 71.7108L42.5495 71.4044L42.6857 72.562L38.7022 73.0046L37.9532 66.3655Z" fill="white"/>
<path d="M45.103 65.2418C45.3414 65.1056 45.5797 64.9694 45.8861 64.8332C46.1925 64.697 46.4649 64.5608 46.7713 64.4587C47.0777 64.3566 47.3842 64.2544 47.7246 64.1863C48.0651 64.1182 48.3715 64.1182 48.678 64.1863C48.9844 64.2544 49.2568 64.3906 49.5291 64.5949C49.8015 64.7992 50.0058 65.1396 50.176 65.5482C50.3122 65.9568 50.3803 66.2972 50.3463 66.6037C50.3122 66.9101 50.2101 67.2165 50.0398 67.4889C49.8696 67.7613 49.6653 67.9655 49.3929 68.1698C49.1206 68.34 48.8482 68.5103 48.5418 68.6124C48.5077 68.6124 48.4737 68.6465 48.4056 68.6805C48.3375 68.7146 48.2694 68.7146 48.2013 68.7486C48.1332 68.7827 48.0651 68.7827 47.997 68.8167C47.9289 68.8508 47.8608 68.8508 47.8268 68.8508L48.6439 70.9957L47.4182 71.4383L45.103 65.2418ZM47.248 65.4461C47.1458 65.4801 47.0097 65.5482 46.9075 65.5822C46.8054 65.6163 46.7373 65.6844 46.6692 65.7184L47.4182 67.7613C47.4523 67.7613 47.4863 67.7612 47.5204 67.7272C47.5544 67.7272 47.6225 67.6932 47.6906 67.6932C47.7587 67.6591 47.7927 67.6591 47.8608 67.6251C47.9289 67.591 47.963 67.591 47.963 67.591C48.1332 67.5229 48.2694 67.4548 48.4396 67.3527C48.5758 67.2505 48.712 67.1484 48.8141 67.0122C48.9163 66.876 48.9503 66.7398 48.9844 66.5696C49.0184 66.3994 48.9844 66.1951 48.8822 65.9568C48.8141 65.7525 48.712 65.6163 48.5758 65.5142C48.4396 65.412 48.3375 65.3439 48.1673 65.3099C48.0311 65.2758 47.8608 65.2758 47.7246 65.3099C47.5544 65.3439 47.4182 65.412 47.248 65.4461Z" fill="white"/>
<path d="M56.5769 60.3731L54.9767 61.4967L58.143 66.0249L57.0876 66.7739L53.9212 62.2457L52.321 63.3693L51.6401 62.4159L55.8959 59.4539L56.5769 60.3731Z" fill="white"/>
<path d="M58.075 57.5132L58.8921 56.4918L60.7647 57.9899C60.7987 57.9218 60.8668 57.8196 60.9349 57.6834C61.003 57.5473 61.1051 57.4451 61.2073 57.3089C61.4116 57.0706 61.6158 56.8323 61.8542 56.662C62.0925 56.4918 62.3308 56.3556 62.6032 56.2875C62.8756 56.2194 63.1479 56.2194 63.4544 56.2875C63.7608 56.3556 64.0672 56.5258 64.3736 56.7982C64.9865 57.2749 65.2929 57.8196 65.2929 58.4325C65.2929 59.0113 65.0205 59.6582 64.4758 60.3731C64.4077 60.4412 64.3396 60.5434 64.2715 60.6455C64.1694 60.7477 64.0672 60.8498 63.9651 60.986C63.8629 61.0881 63.7267 61.2243 63.6246 61.3605C63.4884 61.4967 63.3863 61.5988 63.2501 61.6669L58.075 57.5132ZM61.3094 53.5297L62.1265 52.5083L67.3017 56.6961L66.4846 57.7175L61.3094 53.5297ZM63.5906 59.5901C63.8289 59.3177 63.931 59.0113 63.9651 58.7389C63.9651 58.4665 63.8289 58.1941 63.5225 57.9558C63.3522 57.8196 63.216 57.7515 63.0458 57.7175C62.9096 57.6834 62.7734 57.6834 62.6372 57.7175C62.5011 57.7515 62.3989 57.8196 62.2627 57.9218C62.1606 58.0239 62.0244 58.126 61.9223 58.2622C61.8542 58.3303 61.8201 58.4325 61.752 58.5346C61.6839 58.6368 61.6499 58.7048 61.6158 58.7729L63.182 60.0327C63.2501 59.9986 63.3182 59.9305 63.3863 59.8624C63.4544 59.7603 63.5225 59.6922 63.5906 59.5901Z" fill="white"/>
<path d="M4.21263 50.3294C2.40814 46.0735 1.42078 41.4091 1.42078 36.4723C1.42078 16.8953 17.3207 0.995361 36.8977 0.995361C56.4747 0.995361 72.4087 16.8953 72.4087 36.4723C72.4087 42.5326 70.8766 48.2525 68.2209 53.2574" stroke="white" stroke-opacity="0.15" stroke-width="1.51923" stroke-miterlimit="10"/>
<path d="M44.2859 28.0966C44.2859 32.3184 40.8812 35.7572 36.7275 35.7572C32.5397 35.7572 29.1691 32.3525 29.1691 28.0966C29.1691 23.8407 32.5738 20.436 36.7275 20.436C40.8812 20.436 44.2859 23.8748 44.2859 28.0966Z" stroke="white" stroke-width="2" stroke-miterlimit="10" stroke-linecap="round"/>
<path d="M51.8784 48.082C51.8784 41.1705 45.0009 35.5527 36.5232 35.5527C28.0455 35.5527 21.168 41.1705 21.168 48.082" stroke="white" stroke-width="2" stroke-miterlimit="10" stroke-linecap="round"/>
<path d="M56.0662 29.6286C56.0662 32.1821 53.9893 34.259 51.4698 34.259C48.9503 34.259 46.8735 32.1821 46.8735 29.6286C46.8735 27.0751 48.9503 24.9982 51.4698 24.9982C53.9893 24.9642 56.0662 27.041 56.0662 29.6286Z" stroke="white" stroke-width="2" stroke-miterlimit="10" stroke-linecap="round"/>
<path d="M58.6538 37.051C56.9514 35.2805 54.2958 34.157 51.3337 34.157C48.3035 34.157 45.6138 35.3146 43.9114 37.1531" stroke="white" stroke-width="2" stroke-miterlimit="10" stroke-linecap="round"/>
<path d="M17.0143 29.6286C17.0143 32.1821 19.0912 34.259 21.6107 34.259C24.1302 34.259 26.207 32.1821 26.207 29.6286C26.207 27.0751 24.1302 24.9982 21.6107 24.9982C19.0912 24.9642 17.0143 27.041 17.0143 29.6286Z" stroke="white" stroke-width="2" stroke-miterlimit="10" stroke-linecap="round"/>
<path d="M14.4268 37.051C16.1291 35.2805 18.7848 34.157 21.7469 34.157C24.777 34.157 27.4667 35.3146 29.1691 37.1531" stroke="white" stroke-width="2" stroke-miterlimit="10" stroke-linecap="round"/>
</svg>
