<svg width="73" height="74" viewBox="0 0 73 74" fill="none" xmlns="http://www.w3.org/2000/svg">
<path d="M10.8849 63.866C10.6466 63.8318 10.3742 63.6949 10.1359 63.5239C9.86359 63.3528 9.6253 63.1134 9.387 62.8739C9.11466 62.6003 8.87636 62.2582 8.74019 61.9161C8.56998 61.574 8.50189 61.1977 8.50189 60.8215C8.50189 60.4452 8.60402 60.0347 8.80827 59.59C9.01253 59.1795 9.35296 58.7348 9.79551 58.2901C10.2721 57.8454 10.7147 57.5033 11.1572 57.3322C11.5998 57.1612 12.0083 57.0928 12.4168 57.0928C12.8253 57.127 13.1657 57.1954 13.5061 57.4006C13.8466 57.5717 14.1189 57.7769 14.3913 58.0506C14.6636 58.3243 14.8679 58.5637 15.004 58.8032C15.1402 59.0426 15.2423 59.2137 15.3444 59.3847L14.3572 59.9662C14.2891 59.7952 14.221 59.6584 14.1189 59.4873C14.0168 59.3163 13.8466 59.1453 13.6423 58.94C13.2679 58.5637 12.8593 58.3927 12.3487 58.4269C11.8721 58.4611 11.3274 58.7348 10.7487 59.3163C10.5104 59.5558 10.3061 59.7952 10.1359 60.0689C9.99976 60.3083 9.89764 60.582 9.86359 60.8215C9.82955 61.0609 9.86359 61.3346 9.93168 61.574C9.99976 61.8135 10.17 62.0529 10.3742 62.2582C10.5785 62.4634 10.7487 62.6345 10.953 62.7371C11.1232 62.8397 11.2934 62.9081 11.4636 62.9424L10.8849 63.866Z" fill="white"/>
<path d="M15.6849 63.9003C16.2636 62.9424 16.9104 62.3267 17.6593 62.0872C18.3742 61.8136 19.1572 61.9504 19.9061 62.4293C20.3146 62.6688 20.621 62.9766 20.8253 63.2845C21.0295 63.6266 21.1657 63.9687 21.1998 64.345C21.2338 64.7212 21.1998 65.1317 21.0636 65.5422C20.9274 65.9527 20.7572 66.3974 20.4849 66.8421C19.9061 67.8 19.2593 68.4157 18.5104 68.6552C17.7615 68.8946 17.0125 68.792 16.2636 68.3131C15.8551 68.0736 15.5487 67.7658 15.3104 67.4237C15.0721 67.0816 14.97 66.7395 14.9359 66.3632C14.9019 65.9869 14.9359 65.5765 15.0721 65.166C15.2083 64.7555 15.4125 64.345 15.6849 63.9003ZM16.8423 64.6186C16.6721 64.8923 16.5359 65.2002 16.4338 65.4738C16.3317 65.7475 16.2976 65.9869 16.2636 66.2264C16.2636 66.4659 16.2976 66.6711 16.3998 66.8764C16.5019 67.0816 16.6381 67.2184 16.8763 67.3553C17.2849 67.5947 17.6593 67.6289 18.0678 67.4579C18.4764 67.2869 18.8849 66.8421 19.3274 66.158C19.4976 65.8843 19.6338 65.6107 19.7359 65.337C19.8381 65.0633 19.9061 64.8239 19.9061 64.5844C19.9061 64.345 19.8721 64.1397 19.77 63.9345C19.6678 63.7292 19.4976 63.5582 19.2934 63.4213C18.8849 63.1819 18.5104 63.1477 18.0678 63.3187C17.6934 63.4898 17.2849 63.9345 16.8423 64.6186Z" fill="white"/>
<path d="M25.1827 65.2002L29.1317 66.3633L28.7912 67.4921L26.1019 66.7054L25.7274 68.0395C25.8295 68.0395 25.9657 68.0737 26.1359 68.1079C26.3061 68.1421 26.4423 68.1763 26.5785 68.2105C26.9189 68.3131 27.2253 68.45 27.4976 68.5868C27.77 68.7236 27.9742 68.9289 28.1444 69.1341C28.3146 69.3394 28.4168 69.613 28.4508 69.8867C28.4849 70.1604 28.4508 70.5024 28.3487 70.8787C28.2466 71.255 28.1104 71.5287 27.9061 71.7681C27.7019 72.0076 27.4636 72.1786 27.1912 72.2813C26.9189 72.3839 26.6125 72.4523 26.2721 72.4523C25.9317 72.4523 25.5572 72.3839 25.1827 72.2813C25.0806 72.2471 24.9444 72.2128 24.8083 72.1444C24.6381 72.076 24.5019 72.0418 24.3317 71.9734C24.1615 71.905 23.9912 71.8366 23.821 71.7681C23.6508 71.6997 23.5146 71.6313 23.3785 71.5629L25.1827 65.2002ZM25.5572 71.2208C25.7274 71.255 25.8636 71.2892 26.0338 71.2892C26.17 71.2892 26.3061 71.255 26.4423 71.2208C26.5785 71.1866 26.6806 71.084 26.7827 70.9814C26.8849 70.8787 26.9529 70.7419 27.021 70.5367C27.0891 70.3314 27.0891 70.1262 27.0551 69.9893C27.021 69.8525 26.9529 69.7157 26.8849 69.613C26.7827 69.5104 26.6806 69.4078 26.5444 69.3394C26.4083 69.271 26.2381 69.2025 26.0678 69.1683C25.9657 69.1341 25.8636 69.1341 25.7274 69.0999C25.5912 69.0657 25.4891 69.0657 25.4551 69.0657L24.9104 70.9814C24.9785 71.0156 25.0806 71.0498 25.2168 71.1182C25.2849 71.1524 25.421 71.1866 25.5572 71.2208Z" fill="white"/>
<path d="M32.5019 67.0474L33.7955 67.0132L33.8296 69.4078C33.8976 69.4078 33.9998 69.3736 34.17 69.3394C34.3061 69.3052 34.4764 69.3052 34.6125 69.3052C34.9189 69.3052 35.2253 69.3394 35.5317 69.3736C35.8381 69.442 36.0764 69.5446 36.2806 69.7157C36.4849 69.8867 36.6891 70.092 36.7913 70.3656C36.9274 70.6393 36.9955 70.9814 36.9955 71.4261C36.9955 72.2129 36.7913 72.7944 36.3487 73.1707C35.9061 73.5812 35.2253 73.7522 34.3402 73.7864C34.2381 73.7864 34.1359 73.7864 33.9998 73.7864C33.8636 73.7864 33.6934 73.7864 33.5572 73.7864C33.387 73.7864 33.2168 73.7522 33.0466 73.7522C32.8764 73.7522 32.7061 73.718 32.57 73.6838L32.5019 67.0474ZM34.4423 72.6576C34.8168 72.6576 35.0891 72.5549 35.3274 72.3839C35.5657 72.2129 35.6679 71.9392 35.6679 71.5287C35.6679 71.3235 35.6338 71.1524 35.5657 71.0156C35.4976 70.8787 35.3955 70.7761 35.2934 70.7077C35.1913 70.6393 35.0551 70.5709 34.9189 70.5709C34.7827 70.5709 34.6125 70.5367 34.4423 70.5367C34.3402 70.5367 34.2381 70.5367 34.1359 70.5709C33.9998 70.6051 33.9317 70.6051 33.8636 70.6393L33.8976 72.6576C33.9657 72.6918 34.0679 72.6918 34.1359 72.6918C34.2381 72.6576 34.3402 72.6576 34.4423 72.6576ZM37.6423 66.979L38.9359 66.9448L39.0381 73.6496L37.7444 73.6838L37.6423 66.979Z" fill="white"/>
<path d="M47.1402 66.1579L45.2679 66.7053L46.7998 72.0075L45.5402 72.3838L44.0083 67.0815L42.136 67.6289L41.7955 66.5L46.7998 65.0291L47.1402 66.1579Z" fill="white"/>
<path d="M54.3572 64.345L53.9828 63.5582L53.9487 63.5924L54.0508 64.5844L53.8466 69.0315L52.9955 69.5446L49.4891 63.8318L50.6125 63.1477L52.5189 66.2606L52.8934 67.0816L52.9274 67.0474L52.8253 66.0211L53.0636 61.6425L53.8806 61.1294L57.387 66.8421L56.2636 67.5263L54.3572 64.345Z" fill="white"/>
<path d="M64.3317 60.3426L63.4466 61.3005L61.5402 59.4874L61.1998 60.1032L62.0508 62.8056L60.9955 63.9003L60.3147 61.3689L60.4168 60.6847C60.2466 60.7873 60.0423 60.89 59.8381 60.9584C59.6338 61.0268 59.4296 61.0268 59.2253 61.0268C59.021 61.0268 58.7827 60.9584 58.5785 60.8558C58.3742 60.7531 58.1359 60.6163 57.9317 60.4111C57.6253 60.1374 57.4551 59.8637 57.353 59.5559C57.2508 59.2822 57.2168 58.9743 57.2849 58.6664C57.3189 58.3586 57.4551 58.0849 57.6253 57.777C57.7955 57.4692 58.0338 57.1613 58.3061 56.8876C58.3742 56.8192 58.4764 56.7166 58.5785 56.614C58.6806 56.5113 58.7827 56.4087 58.8849 56.3061C58.987 56.2035 59.1232 56.1008 59.2253 56.0324C59.3274 55.964 59.4296 55.8614 59.5317 55.793L64.3317 60.3426ZM59.021 57.8112C58.9189 57.9481 58.8168 58.0507 58.7147 58.1875C58.6466 58.3244 58.5785 58.4612 58.5444 58.598C58.5104 58.7349 58.5444 58.8717 58.5785 59.0085C58.6125 59.1454 58.7487 59.2822 58.8849 59.4532C59.021 59.5901 59.1572 59.6927 59.3274 59.7269C59.4636 59.7611 59.5998 59.7953 59.77 59.7611C59.9061 59.7269 60.0423 59.6927 60.1785 59.5901C60.3147 59.4874 60.4508 59.3848 60.553 59.2822L60.8934 58.9401L59.3955 57.5034C59.3274 57.5376 59.2934 57.606 59.2253 57.6402C59.1572 57.6402 59.0891 57.7086 59.021 57.8112Z" fill="white"/>
<path d="M50.5785 45.086C50.5104 44.6755 50.1359 44.4018 49.7274 44.4702C45.2338 45.2228 40.6381 45.3596 36.0764 44.9149C31.5487 44.4702 27.0551 43.4098 22.7998 41.802C22.4253 41.6652 21.9828 41.8362 21.8466 42.2467C21.7104 42.623 21.8806 43.0677 22.2891 43.2045C22.6296 43.3414 23.004 43.4782 23.3445 43.5808L24.6721 49.7041C24.7402 49.9777 24.9445 50.183 25.2168 50.2514C25.2849 50.2856 25.353 50.2856 25.4211 50.2856C25.6253 50.2856 25.8296 50.2172 25.9657 50.0461L30.2551 45.4965C30.97 45.6333 31.7189 45.8043 32.4338 45.907L34.7828 51.6881C34.8849 51.9618 35.1232 52.1328 35.3955 52.167C35.4296 52.167 35.4296 52.167 35.4636 52.167C35.7019 52.167 35.9402 52.0302 36.0764 51.825L39.5147 46.5911C40.0934 46.6253 40.6381 46.6253 41.2168 46.6253C41.387 46.6253 41.5572 46.6253 41.7615 46.6253L45.0977 51.9276C45.2338 52.1328 45.4721 52.2697 45.7445 52.2697C45.7785 52.2697 45.7785 52.2697 45.8125 52.2697C46.0849 52.2355 46.3232 52.0644 46.4253 51.825L48.9104 46.078C49.2849 46.0096 49.6594 45.9754 49.9998 45.907C50.3742 45.8728 50.6466 45.4965 50.5785 45.086ZM25.7955 47.9937L24.9445 44.1282C26.1019 44.5044 27.2934 44.8465 28.4849 45.1202L25.7955 47.9937ZM35.5998 49.8409L34.1019 46.1806C34.7147 46.2491 35.3274 46.3175 35.9402 46.3859C36.553 46.4543 37.1657 46.4885 37.7785 46.5227L35.5998 49.8409ZM45.5742 49.9435L43.4636 46.5911C44.6891 46.5227 45.9147 46.4543 47.1402 46.3175L45.5742 49.9435Z" fill="white"/>
<path d="M54.3912 30.3082C54.221 29.9319 53.7785 29.7609 53.404 29.9319C52.8934 30.1714 52.3827 30.3766 51.8721 30.5819C51.8381 30.5819 51.804 30.6161 51.77 30.6161C49.8976 31.3687 47.9912 32.0186 46.0849 32.566C46.0508 32.566 45.9827 32.6002 45.9487 32.6002C45.0295 32.8396 44.1104 33.0791 43.1912 33.2843C43.1572 33.2843 43.0891 33.2843 43.0551 33.3185C41.0806 33.729 39.1061 34.0369 37.0976 34.2421C37.0636 34.2421 37.0295 34.2421 37.0295 34.2421C36.553 34.2764 36.0764 34.3106 35.5657 34.3448C35.0891 34.379 34.6125 34.4132 34.1359 34.4132C34.1019 34.4132 34.0678 34.4132 34.0678 34.4132C32.0593 34.4816 30.0508 34.4474 28.0423 34.2764C28.0083 34.2764 27.9402 34.2764 27.9061 34.2764C26.953 34.2079 25.9998 34.1053 25.0806 33.9685C25.0466 33.9685 24.9785 33.9685 24.9444 33.9343C22.97 33.6606 20.9955 33.2501 19.0551 32.737C19.021 32.737 18.987 32.7028 18.9529 32.7028C18.4083 32.566 17.8636 32.3949 17.3529 32.2581C16.9444 32.1555 16.5359 32.3607 16.4338 32.7712C16.3317 33.1817 16.5359 33.5922 16.9444 33.6948C17.387 33.8317 17.7955 33.9343 18.2381 34.0711L20.0083 40.0575C20.0764 40.3312 20.3147 40.5364 20.587 40.5706C20.621 40.5706 20.6891 40.5706 20.7232 40.5706C20.9615 40.5706 21.1657 40.468 21.3019 40.297L25.2508 35.4394C25.9998 35.5421 26.7147 35.6105 27.4636 35.6789L30.2551 41.2548C30.3912 41.4943 30.6295 41.6653 30.9019 41.6653C31.1742 41.6653 31.4125 41.5285 31.5487 41.289L34.5785 35.8157C34.9529 35.8157 35.3274 35.7815 35.7019 35.7473C36.0764 35.7131 36.4508 35.6789 36.8253 35.6789L40.5359 40.7075C40.6721 40.9127 40.9104 41.0153 41.1487 41.0153C41.1827 41.0153 41.2168 41.0153 41.2508 41.0153C41.5232 40.9811 41.7615 40.7759 41.8295 40.5364L43.8721 34.6184C44.587 34.4474 45.3359 34.2764 46.0508 34.0711L50.5785 38.3813C50.7147 38.5182 50.9189 38.5866 51.0891 38.5866C51.1572 38.5866 51.2593 38.5866 51.3274 38.5524C51.5998 38.4497 51.77 38.2445 51.8381 37.9708L52.8253 31.7792C53.2338 31.6081 53.6423 31.4371 54.0508 31.2318C54.3912 31.1292 54.5615 30.6845 54.3912 30.3082ZM20.9955 38.3129L19.8721 34.5158C21.0636 34.7895 22.2551 35.0289 23.4806 35.2342L20.9955 38.3129ZM30.9019 39.4076L29.1317 35.8841C30.1189 35.9526 31.1402 35.9526 32.1274 35.9526C32.3657 35.9526 32.57 35.9526 32.8083 35.9526L30.9019 39.4076ZM40.8423 38.7576L38.4934 35.5763C39.7189 35.4394 40.9104 35.2342 42.1359 35.0289L40.8423 38.7576ZM50.5444 36.3631L47.6849 33.6606C48.8423 33.3185 50.0338 32.908 51.1572 32.4633L50.5444 36.3631Z" fill="white"/>
<path d="M54.97 20.2851C54.8678 19.8746 54.4934 19.6351 54.0849 19.7035C48.0934 21.0035 41.9317 21.4824 35.8381 21.1745C29.7104 20.8666 23.6508 19.7378 17.8295 17.8221C17.421 17.6853 17.0125 17.9247 16.8764 18.301C16.7402 18.7115 16.9785 19.122 17.353 19.2588C17.8636 19.4299 18.3742 19.6009 18.9189 19.7378L21.0976 27.9819C21.1657 28.2556 21.37 28.4608 21.6423 28.5292C21.7104 28.5292 21.7444 28.5634 21.8125 28.5634C22.0168 28.5634 22.221 28.4608 22.3912 28.2898L27.9402 21.8587C28.9955 22.0297 30.0849 22.2007 31.1742 22.3034L34.7487 30.0344C34.8508 30.2738 35.1232 30.4449 35.3955 30.4791H35.4295C35.7019 30.4791 35.9402 30.3423 36.0764 30.1028L40.4338 22.7823C41.5232 22.7823 42.6125 22.7139 43.6678 22.6796L48.5359 29.6581C48.6721 29.8633 48.9104 29.966 49.1487 29.966C49.1827 29.966 49.2168 29.966 49.2508 29.966C49.5232 29.9318 49.7615 29.7607 49.8636 29.4871L52.8934 21.5166C53.4381 21.4139 53.9487 21.3113 54.4934 21.2087C54.7998 21.1061 55.0721 20.6956 54.97 20.2851ZM22.187 26.2373L20.587 20.2509C22.4593 20.764 24.3317 21.2087 26.204 21.5508L22.187 26.2373ZM35.4976 28.0845L32.8764 22.4744C33.8295 22.577 34.7827 22.6454 35.77 22.6796C36.7232 22.7139 37.7104 22.7481 38.6636 22.7823L35.4976 28.0845ZM48.9104 27.6056L45.37 22.5086C47.2763 22.3376 49.2168 22.0981 51.0891 21.7902L48.9104 27.6056Z" fill="white"/>
<path d="M3.59972 50.9012C1.79546 46.6252 0.808228 41.9387 0.808228 36.9785C0.808228 17.3089 16.7061 1.33374 36.2806 1.33374C55.855 1.33374 71.787 17.3089 71.787 36.9785C71.787 43.0676 70.255 48.8145 67.5997 53.8431" stroke="white" stroke-opacity="0.15" stroke-width="1.5" stroke-miterlimit="10"/>
</svg>
