<svg width="73" height="74" viewBox="0 0 73 74" fill="none" xmlns="http://www.w3.org/2000/svg">
<path d="M5.73825 51.6833L7.00514 51.2724L6.9709 51.2039L5.80673 51.2724L2.93056 50.9985L2.75936 50.6219L4.43713 48.2251L5.22465 47.4033L5.19041 47.369L4.06049 48.0881L0.944632 49.4919L0.43103 48.362L6.56002 45.6228L7.03938 46.7185L4.98497 49.5947L4.40289 50.211V50.2452L5.22465 50.1767L8.71715 50.4849L9.19651 51.5806L3.06752 54.3198L2.51968 53.1214L5.73825 51.6833Z" fill="white"/>
<path d="M10.6346 53.6008L13.0999 56.7167L12.1754 57.4357L10.5319 55.3471L9.29925 56.3058L10.8058 58.2233L9.88133 58.9423L8.37477 57.0248L7.07364 58.052L8.75141 60.1749L7.82692 60.894L5.32739 57.7439L10.6346 53.6008Z" fill="white"/>
<path d="M14.7776 58.4973C15.0173 58.6343 15.257 58.7712 15.5309 58.9767C15.8048 59.1479 16.0445 59.3533 16.3184 59.5588C16.5924 59.7642 16.832 60.0039 17.0375 60.2436C17.2772 60.4832 17.4141 60.7572 17.5169 61.0653C17.6196 61.3735 17.6538 61.6817 17.5853 62.0241C17.5169 62.3665 17.3457 62.7089 17.0717 63.0513C16.7978 63.3937 16.5239 63.5991 16.2157 63.7361C15.9076 63.873 15.5994 63.9415 15.3255 63.9073C15.0173 63.9073 14.7092 63.8388 14.4352 63.7018C14.1271 63.5649 13.8532 63.3937 13.6135 63.1882C13.5792 63.154 13.545 63.1197 13.5108 63.0855C13.4423 63.0513 13.408 62.9828 13.3396 62.9485C13.2711 62.9143 13.2368 62.8458 13.1684 62.8116C13.0999 62.7431 13.0656 62.7089 13.0656 62.7089L11.5933 64.4893L10.5661 63.6676L14.7776 58.4973ZM15.6679 60.4832C15.5652 60.4148 15.4624 60.312 15.394 60.2778C15.3255 60.2436 15.2228 60.1751 15.1543 60.1408L13.7847 61.8186C13.7847 61.8529 13.8189 61.8528 13.8532 61.9213C13.8874 61.9556 13.9216 61.9898 13.9559 62.0241C13.9901 62.0583 14.0244 62.0925 14.0928 62.1268C14.1271 62.161 14.1613 62.1953 14.1956 62.1953C14.3325 62.298 14.4695 62.4007 14.6064 62.4692C14.7434 62.5377 14.9146 62.6061 15.0858 62.6061C15.257 62.6404 15.394 62.6061 15.5652 62.5377C15.7364 62.4692 15.8733 62.3322 16.0445 62.161C16.1815 61.9898 16.25 61.8529 16.2842 61.6817C16.3184 61.5104 16.3184 61.3735 16.25 61.2365C16.1815 61.0996 16.1472 60.9626 16.0445 60.8256C15.9076 60.6887 15.8048 60.586 15.6679 60.4832Z" fill="white"/>
<path d="M18.4756 65.4479C18.955 64.4549 19.5713 63.7701 20.2561 63.462C20.9751 63.1196 21.7284 63.1538 22.5502 63.5647C22.9953 63.7701 23.3377 64.0441 23.5774 64.3522C23.8171 64.6604 23.9883 65.0028 24.0568 65.3794C24.1252 65.7561 24.1252 66.1669 24.0568 66.6121C23.9883 67.0572 23.8171 67.5023 23.5774 67.9817C23.098 68.9746 22.4817 69.6594 21.7627 69.9676C21.0436 70.31 20.2903 70.2758 19.4686 69.8649C19.0234 69.6594 18.681 69.3855 18.4414 69.0774C18.2017 68.7692 18.0305 68.4268 17.962 68.0502C17.8935 67.6735 17.8935 67.2626 17.962 66.8175C18.099 66.3724 18.2702 65.9273 18.4756 65.4479ZM19.7425 66.03C19.6055 66.3381 19.4686 66.6121 19.4001 66.9202C19.3316 67.1942 19.2974 67.4681 19.3316 67.7078C19.3316 67.9474 19.4001 68.1529 19.5371 68.3241C19.674 68.4953 19.811 68.6665 20.0507 68.7692C20.4615 68.9746 20.8724 68.9746 21.2491 68.735C21.6257 68.5295 22.0023 68.0502 22.379 67.2969C22.5159 66.9887 22.6187 66.7148 22.6871 66.4409C22.7556 66.1669 22.7899 65.893 22.7899 65.6533C22.7899 65.4137 22.7214 65.2082 22.5844 65.0028C22.4817 64.8316 22.2763 64.6604 22.0366 64.5577C21.6257 64.3522 21.2148 64.3522 20.8039 64.5919C20.4615 64.8658 20.0849 65.3109 19.7425 66.03Z" fill="white"/>
<path d="M30.5624 67.5022L28.2683 67.0228L27.1383 72.4327L25.8372 72.1588L27.2068 65.5847L32.0689 66.5777L30.6993 73.1518L29.3982 72.8779L30.5624 67.5022Z" fill="white"/>
<path d="M34.6027 66.8517C34.8766 66.7832 35.1506 66.749 35.493 66.7147C35.8011 66.6805 36.1435 66.6462 36.4517 66.6462C36.7941 66.6462 37.1022 66.6462 37.4446 66.7147C37.787 66.7832 38.0952 66.8517 38.3691 67.0229C38.6431 67.1941 38.8827 67.3995 39.0539 67.6734C39.2251 67.9474 39.3279 68.324 39.3279 68.8034C39.3279 69.2143 39.2594 69.5909 39.1224 69.8648C38.9855 70.173 38.78 70.4127 38.5403 70.5839C38.3007 70.7893 38.0267 70.9263 37.7186 70.9947C37.4104 71.0975 37.1022 71.1317 36.7598 71.1317C36.7256 71.1317 36.6914 71.1317 36.6229 71.1317C36.5544 71.1317 36.4859 71.1317 36.4174 71.1317C36.349 71.1317 36.2805 71.1317 36.1778 71.1317C36.075 71.1317 36.0408 71.1317 36.0066 71.1317L36.075 73.4258L34.7739 73.46L34.6027 66.8517ZM36.5544 67.7762C36.4174 67.7762 36.3147 67.7762 36.1778 67.8104C36.075 67.8104 35.9723 67.8446 35.9038 67.8446L35.9723 70.036C36.0066 70.036 36.0408 70.036 36.075 70.036C36.1093 70.036 36.1778 70.036 36.2462 70.036C36.3147 70.036 36.349 70.036 36.4174 70.036C36.4859 70.036 36.5202 70.036 36.5202 70.036C36.6914 70.036 36.8626 70.0018 37.0338 69.9675C37.205 69.9333 37.3419 69.8648 37.4789 69.7621C37.6158 69.6594 37.7186 69.5567 37.787 69.3855C37.8555 69.2143 37.8898 69.043 37.8898 68.7691C37.8898 68.5637 37.8555 68.3925 37.7528 68.2555C37.6843 68.1186 37.5816 68.0158 37.4446 67.9474C37.3077 67.8789 37.1707 67.8104 36.9995 67.7762C36.8968 67.7762 36.7256 67.7762 36.5544 67.7762Z" fill="white"/>
<path d="M45.9362 68.2214L45.7992 67.3654H45.765L45.5596 68.3584L44.0872 72.5699L43.1285 72.8439L41.3823 66.3725L42.6491 66.0301L43.6079 69.5568L43.7448 70.4471H43.8133L44.0188 69.4199L45.4911 65.2768L46.4498 65.0371L48.196 71.5085L46.9292 71.8509L45.9362 68.2214Z" fill="white"/>
<path d="M55.7973 67.8105L54.6332 68.4268L53.3663 66.0984L52.8527 66.5778L52.8184 69.4197L51.4831 70.1388L51.62 67.5023L51.9282 66.8517C51.7227 66.9202 51.5173 66.9202 51.3119 66.9202C51.1064 66.9202 50.901 66.886 50.6955 66.7832C50.4901 66.7148 50.3189 66.5778 50.1477 66.4066C49.9765 66.2354 49.8053 66.03 49.6683 65.7903C49.4629 65.4479 49.3602 65.1055 49.3602 64.7973C49.3602 64.4892 49.4287 64.2152 49.5656 63.9413C49.7026 63.6674 49.908 63.4277 50.1819 63.188C50.4559 62.9484 50.764 62.7429 51.1064 62.5375C51.2091 62.469 51.3119 62.4347 51.4488 62.3663C51.5858 62.2978 51.7227 62.2293 51.8597 62.1951C51.9967 62.1266 52.1336 62.0923 52.2706 62.0239C52.4075 61.9554 52.5445 61.9211 52.6472 61.9211L55.7973 67.8105ZM51.5173 63.7359C51.3803 63.8044 51.2434 63.9071 51.1064 64.0098C50.9695 64.1125 50.901 64.2152 50.8325 64.3522C50.764 64.4892 50.7298 64.6261 50.7298 64.7631C50.7298 64.9 50.7983 65.0712 50.901 65.2767C51.0037 65.4479 51.1064 65.5848 51.2434 65.6876C51.3803 65.7903 51.4831 65.8245 51.6543 65.8588C51.7912 65.893 51.9282 65.8588 52.0994 65.8245C52.2363 65.7903 52.4075 65.7218 52.5787 65.6191L53.0239 65.3794L52.0309 63.5647C51.9624 63.5989 51.8939 63.5989 51.8255 63.6332C51.6885 63.6332 51.62 63.6674 51.5173 63.7359Z" fill="white"/>
<path d="M58.9817 58.1546L57.5093 59.4558L61.173 63.5988L60.1801 64.4548L56.5164 60.3118L55.0441 61.6129L54.2565 60.7227L58.1599 57.2644L58.9817 58.1546Z" fill="white"/>
<path d="M64.2547 54.2856L63.5699 53.7378L63.5356 53.772L64.015 54.6622L65.59 58.8395L65.008 59.6613L59.4953 55.8264L60.2486 54.765L63.2275 56.8536L63.9123 57.4357L63.9465 57.4014L63.4672 56.477L61.9264 52.3339L62.4742 51.5464L67.9869 55.3813L67.2336 56.4427L64.2547 54.2856Z" fill="white"/>
<path d="M71.5478 47.643L71.0685 48.8757L68.6032 47.9169L68.5347 48.636L70.3152 50.8274L69.7673 52.2312L68.1923 50.1426L68.0211 49.4578C67.8841 49.629 67.7472 49.7659 67.576 49.9029C67.4048 50.0398 67.2336 50.1426 67.0281 50.1768C66.8227 50.2453 66.6172 50.2795 66.3776 50.2453C66.1379 50.2453 65.8982 50.1768 65.6243 50.0741C65.2476 49.9371 64.9737 49.7317 64.7683 49.492C64.5628 49.2523 64.4259 49.0126 64.3574 48.7045C64.2889 48.3963 64.2889 48.0881 64.3574 47.7457C64.4259 47.4033 64.5286 47.0267 64.6656 46.6501C64.6998 46.5473 64.7683 46.4446 64.8025 46.3077C64.8368 46.1707 64.9052 46.0337 64.9737 45.8968C65.0422 45.7598 65.1107 45.6229 65.1792 45.5201C65.2476 45.3832 65.3161 45.2805 65.3846 45.1777L71.5478 47.643ZM65.6585 47.2664C65.59 47.4376 65.5558 47.5745 65.5216 47.7457C65.4873 47.9169 65.4873 48.0539 65.5216 48.1909C65.5558 48.3278 65.6243 48.4648 65.727 48.5675C65.8297 48.6702 65.9667 48.7729 66.1721 48.8414C66.3433 48.9099 66.5145 48.9442 66.6857 48.9442C66.8227 48.9442 66.9596 48.8757 67.0966 48.8072C67.2336 48.7387 67.3363 48.636 67.4048 48.499C67.4732 48.3621 67.576 48.2251 67.6444 48.0539L67.8156 47.6088L65.864 46.8555C65.8297 46.924 65.7955 46.9925 65.7612 47.0609C65.727 47.0609 65.6928 47.1637 65.6585 47.2664Z" fill="white"/>
<path d="M0.807678 37.8505C0.807678 37.4738 0.773438 37.0972 0.773438 36.6863C0.773438 16.9982 16.7636 1.00806 36.4517 1.00806C56.1398 1.00806 72.1641 16.9982 72.1641 36.6863" stroke="white" stroke-opacity="0.15" stroke-width="1.5" stroke-miterlimit="10"/>
<path d="M42.7518 27.0991C42.6833 26.8594 42.4779 26.654 42.2039 26.5855L38.9511 25.7637L37.1364 22.9218C36.9994 22.6821 36.7598 22.5452 36.4858 22.5452C36.2119 22.5452 35.9722 22.6821 35.8353 22.9218L34.0206 25.7637L30.7335 26.5855C30.4596 26.654 30.2541 26.8594 30.1857 27.0991C30.1172 27.3388 30.1514 27.6469 30.3226 27.8524L32.4797 30.4546L32.2743 33.8102C32.2743 34.0841 32.377 34.3238 32.5825 34.495C32.7879 34.6662 33.0961 34.7004 33.3357 34.5977L36.4516 33.3651L39.5675 34.5977C39.6702 34.6319 39.7729 34.6662 39.8414 34.6662C40.0126 34.6662 40.1495 34.6319 40.2865 34.5292C40.4919 34.358 40.6289 34.1183 40.5947 33.8444L40.3892 30.4889L42.5463 27.8866C42.7518 27.6469 42.8203 27.373 42.7518 27.0991ZM39.0539 29.6671C38.9169 29.8041 38.8484 30.0095 38.8827 30.215L39.0539 32.646L36.794 31.7558C36.6913 31.7215 36.5886 31.6873 36.5201 31.6873C36.4516 31.6873 36.3146 31.7215 36.2462 31.7558L33.9178 32.6803L34.089 30.2492C34.089 30.0438 34.0548 29.8383 33.9178 29.7014L32.3428 27.8181L34.7054 27.2018C34.9108 27.1676 35.0478 27.0306 35.1847 26.8594L36.4858 24.805L37.787 26.8594C37.8897 27.0306 38.0609 27.1333 38.2663 27.2018L40.6289 27.8181L39.0539 29.6671Z" fill="white"/>
<path d="M36.4516 36.8574C36.0065 36.8574 35.6641 37.1998 35.6641 37.6449V54.2857C35.6641 54.7308 36.0065 55.0732 36.4516 55.0732C36.8968 55.0732 37.2392 54.7308 37.2392 54.2857V37.6449C37.2392 37.1998 36.8968 36.8574 36.4516 36.8574Z" fill="white"/>
<path d="M48.7096 33.9813C48.4357 33.6731 47.9221 33.6389 47.6139 33.9128C46.2786 35.077 45.1486 36.7205 44.3269 38.7064C43.2312 41.4114 42.6491 44.7327 42.6491 48.6361C42.6491 49.0812 42.9915 49.4236 43.4366 49.4236C43.8818 49.4236 44.2242 49.0812 44.2242 48.6361C44.2242 40.1787 46.9976 36.515 48.6411 35.077C48.9493 34.803 48.9835 34.2894 48.7096 33.9813Z" fill="white"/>
<path d="M56.3452 29.4959C56.2082 29.2562 55.9685 29.1193 55.6946 29.1193L54.0853 29.0508L52.9554 27.8866C52.7842 27.6812 52.5103 27.6127 52.2364 27.6812C51.9624 27.7497 51.757 27.9209 51.6543 28.1606L51.1064 29.6671L49.6683 30.3862C49.4287 30.4889 49.2575 30.7286 49.2232 31.0025C49.189 31.2764 49.2917 31.5161 49.5314 31.6873L50.7983 32.6803L51.0379 34.2895C51.0722 34.5635 51.2434 34.7689 51.4831 34.9059C51.5858 34.9401 51.6885 34.9743 51.7912 34.9743C51.9282 34.9743 52.0994 34.9401 52.2364 34.8374L53.5717 33.9471L55.181 34.2211C55.2152 34.2211 55.2837 34.2211 55.318 34.2211C55.7631 34.2211 56.1055 33.8787 56.1055 33.4335C56.1055 33.3308 56.1055 33.2623 56.0713 33.1596L55.6604 31.6531L56.4137 30.215C56.4821 30.0095 56.4821 29.7356 56.3452 29.4959ZM54.0168 31.8243L54.188 32.5091L53.5032 32.4063C53.2978 32.3721 53.0924 32.4063 52.9554 32.5091L52.3733 32.8857L52.2706 32.2009C52.2364 31.9955 52.1336 31.8243 51.9967 31.6873L51.4488 31.2422L52.0652 30.934C52.2364 30.8313 52.3733 30.6943 52.4418 30.5231L52.6815 29.8726L53.1608 30.3519C53.2978 30.4889 53.5032 30.5916 53.6744 30.5916L54.3592 30.6258L54.0511 31.2422C53.9826 31.4134 53.9826 31.6188 54.0168 31.8243Z" fill="white"/>
<path d="M25.3578 33.9128C25.0497 33.6389 24.5361 33.6731 24.2622 33.9813C23.9882 34.2894 24.0225 34.803 24.3306 35.077C25.9742 36.515 28.7476 40.1787 28.7476 48.6361C28.7476 49.0812 29.09 49.4236 29.5351 49.4236C29.9803 49.4236 30.3227 49.0812 30.3227 48.6361C30.3227 44.7327 29.7748 41.3771 28.6449 38.7064C27.7889 36.6862 26.6932 35.077 25.3578 33.9128Z" fill="white"/>
<path d="M23.7143 31.0366C23.6801 30.7627 23.5089 30.523 23.2692 30.4203L21.8311 29.7012L21.2832 28.1947C21.1805 27.955 20.9751 27.7495 20.7012 27.7153C20.4272 27.6468 20.1533 27.7495 19.9821 27.9207L18.8522 29.0849L17.2429 29.1534C16.969 29.1534 16.7293 29.3246 16.5923 29.53C16.4554 29.7697 16.4554 30.0436 16.5923 30.2833L17.3456 31.7214L16.9005 33.2622C16.832 33.5361 16.9005 33.81 17.0717 33.9812C17.2429 34.1867 17.5168 34.2894 17.7907 34.2209L19.4 33.947L20.7354 34.8373C20.8724 34.94 21.0093 34.9742 21.1805 34.9742C21.2832 34.9742 21.386 34.94 21.4887 34.9057C21.7284 34.803 21.8996 34.5633 21.9338 34.2894L22.1735 32.6801L23.4404 31.6872C23.6116 31.5502 23.7485 31.2763 23.7143 31.0366ZM20.9408 31.6872C20.7696 31.8241 20.6669 31.9953 20.6669 32.2008L20.5642 32.8856L19.9821 32.5089C19.8452 32.4062 19.7082 32.372 19.537 32.372C19.5028 32.372 19.4343 32.372 19.4 32.372L18.7152 32.4747L18.8864 31.7899C18.9549 31.5844 18.9207 31.379 18.818 31.2078L18.544 30.6257L19.2288 30.5915C19.4343 30.5915 19.6055 30.4887 19.7424 30.3518L20.2218 29.8724L20.4615 30.523C20.53 30.6942 20.6669 30.8654 20.8381 30.9339L21.4544 31.242L20.9408 31.6872Z" fill="white"/>
<path d="M27.2753 20.2512C28.4395 20.9017 29.6721 22.8192 29.9118 24.4285C29.9803 24.8051 30.2884 25.079 30.6993 25.079C30.7336 25.079 30.7678 25.079 30.802 25.079C31.2129 25.0106 31.5211 24.5997 31.4526 24.1888C31.1444 22.1001 29.6379 19.7718 28.0628 18.8816C27.6862 18.6761 27.2068 18.8131 27.0014 19.1897C26.7617 19.5664 26.8987 20.0457 27.2753 20.2512Z" fill="white"/>
<path d="M23.7828 19.7717C25.0839 19.7717 26.1111 18.7102 26.1111 17.4433C26.1111 16.1764 25.0497 15.115 23.7828 15.115C22.5159 15.115 21.4545 16.1764 21.4545 17.4433C21.4545 18.7102 22.5159 19.7717 23.7828 19.7717ZM23.7828 16.6558C24.2279 16.6558 24.5703 16.9982 24.5703 17.4433C24.5703 17.8884 24.2279 18.2308 23.7828 18.2308C23.3377 18.2308 22.9953 17.8884 22.9953 17.4433C22.9953 16.9982 23.3719 16.6558 23.7828 16.6558Z" fill="white"/>
<path d="M42.1355 25.079C42.1697 25.079 42.204 25.079 42.2382 25.079C42.6149 25.079 42.9573 24.8051 43.0257 24.4285C43.2654 22.8192 44.4638 20.9017 45.6622 20.2512C46.0389 20.0457 46.1758 19.5664 45.9704 19.1897C45.765 18.8131 45.2856 18.6761 44.9089 18.8816C43.2997 19.7718 41.8273 22.1001 41.5192 24.1888C41.4165 24.6339 41.7246 25.0106 42.1355 25.079Z" fill="white"/>
<path d="M49.1547 19.7717C50.4559 19.7717 51.4831 18.7102 51.4831 17.4433C51.4831 16.1764 50.4216 15.115 49.1547 15.115C47.8536 15.115 46.8264 16.1764 46.8264 17.4433C46.8264 18.7102 47.8536 19.7717 49.1547 19.7717ZM49.1547 16.6558C49.5999 16.6558 49.9423 16.9982 49.9423 17.4433C49.9423 17.8884 49.5999 18.2308 49.1547 18.2308C48.7096 18.2308 48.3672 17.8884 48.3672 17.4433C48.3672 16.9982 48.7096 16.6558 49.1547 16.6558Z" fill="white"/>
<path d="M23.0637 42.0962C22.6186 42.0962 22.2762 42.4386 22.2762 42.8837C22.2762 43.3288 22.6186 43.6712 23.0637 43.6712C23.5088 43.6712 23.8512 43.3288 23.8512 42.8837C23.8512 42.4386 23.4746 42.0962 23.0637 42.0962Z" fill="white"/>
<path d="M25.5632 26.5854C25.5632 27.0305 25.9056 27.3729 26.3508 27.3729C26.7959 27.3729 27.1383 27.0305 27.1383 26.5854C27.1383 26.1403 26.7959 25.7979 26.3508 25.7979C25.9056 25.7979 25.5632 26.1745 25.5632 26.5854Z" fill="white"/>
<path d="M36.4174 19.8744C36.8625 19.8744 37.2049 19.532 37.2049 19.0868C37.2049 18.6417 36.8625 18.2993 36.4174 18.2993C35.9723 18.2993 35.6299 18.6417 35.6299 19.0868C35.6299 19.532 35.9723 19.8744 36.4174 19.8744Z" fill="white"/>
<path d="M47.34 26.3459C47.34 26.791 47.6824 27.1334 48.1276 27.1334C48.5727 27.1334 48.9151 26.791 48.9151 26.3459C48.9151 25.9008 48.5727 25.5583 48.1276 25.5583C47.6824 25.5583 47.34 25.935 47.34 26.3459Z" fill="white"/>
<path d="M49.052 42.0962C48.6069 42.0962 48.2645 42.4386 48.2645 42.8837C48.2645 43.3288 48.6069 43.6712 49.052 43.6712C49.4971 43.6712 49.8395 43.3288 49.8395 42.8837C49.8395 42.4386 49.4629 42.0962 49.052 42.0962Z" fill="white"/>
<path d="M29.5008 50.1084C29.0557 50.1084 28.7133 50.4508 28.7133 50.8959C28.7133 51.341 29.0557 51.6834 29.5008 51.6834C29.946 51.6834 30.2884 51.341 30.2884 50.8959C30.2884 50.4508 29.946 50.1084 29.5008 50.1084Z" fill="white"/>
<path d="M43.4366 50.1084C42.9915 50.1084 42.6491 50.4508 42.6491 50.8959C42.6491 51.341 42.9915 51.6834 43.4366 51.6834C43.8818 51.6834 44.2242 51.341 44.2242 50.8959C44.2242 50.4508 43.8475 50.1084 43.4366 50.1084Z" fill="white"/>
<path d="M32.1374 37.5422C31.6923 37.5422 31.3499 37.8846 31.3499 38.3298C31.3499 38.7749 31.6923 39.1173 32.1374 39.1173C32.5825 39.1173 32.9249 38.7749 32.9249 38.3298C32.9249 37.8846 32.5825 37.5422 32.1374 37.5422Z" fill="white"/>
<path d="M40.8686 37.2C40.4235 37.2 40.0811 37.5424 40.0811 37.9875C40.0811 38.4326 40.4235 38.775 40.8686 38.775C41.3137 38.775 41.6561 38.4326 41.6561 37.9875C41.6561 37.5424 41.2795 37.2 40.8686 37.2Z" fill="white"/>
</svg>
