<svg width="100" height="100" viewBox="0 0 100 100" fill="none" xmlns="http://www.w3.org/2000/svg">
<path d="M24.5876 76.3059C24.3493 76.2717 24.0769 76.1349 23.8386 75.9638C23.5663 75.7928 23.328 75.5533 23.0897 75.3139C22.8174 75.0402 22.5791 74.6981 22.4429 74.3561C22.2727 74.014 22.2046 73.6377 22.2046 73.2614C22.2046 72.8851 22.3067 72.4746 22.511 72.0299C22.7152 71.6194 23.0557 71.1747 23.4982 70.73C23.9748 70.2853 24.4174 69.9432 24.8599 69.7722C25.3025 69.6011 25.711 69.5327 26.1195 69.5327C26.528 69.5669 26.8684 69.6353 27.2088 69.8406C27.5493 70.0116 27.8216 70.2169 28.094 70.4905C28.3663 70.7642 28.5705 71.0037 28.7067 71.2431C28.8429 71.4826 28.945 71.6536 29.0471 71.8247L28.0599 72.4062C27.9918 72.2351 27.9237 72.0983 27.8216 71.9273C27.7195 71.7562 27.5493 71.5852 27.345 71.3799C26.9705 71.0037 26.562 70.8326 26.0514 70.8668C25.5748 70.901 25.0301 71.1747 24.4514 71.7562C24.2131 71.9957 24.0088 72.2352 23.8386 72.5088C23.7025 72.7483 23.6003 73.0219 23.5663 73.2614C23.5322 73.5008 23.5663 73.7745 23.6344 74.014C23.7025 74.2534 23.8727 74.4929 24.0769 74.6981C24.2812 74.9034 24.4514 75.0744 24.6557 75.177C24.8259 75.2797 24.9961 75.3481 25.1663 75.3823L24.5876 76.3059Z" fill="white"/>
<path d="M29.3877 76.3402C29.9664 75.3824 30.6132 74.7666 31.3621 74.5272C32.077 74.2535 32.86 74.3903 33.609 74.8693C34.0175 75.1087 34.3239 75.4166 34.5281 75.7245C34.7324 76.0665 34.8685 76.4086 34.9026 76.7849C34.9366 77.1612 34.9026 77.5717 34.7664 77.9822C34.6302 78.3927 34.46 78.8374 34.1877 79.2821C33.609 80.2399 32.9621 80.8557 32.2132 81.0951C31.4643 81.3346 30.7153 81.2319 29.9664 80.753C29.5579 80.5136 29.2515 80.2057 29.0132 79.8636C28.7749 79.5215 28.6728 79.1795 28.6387 78.8032C28.6047 78.4269 28.6387 78.0164 28.7749 77.6059C28.9111 77.1954 29.1153 76.7849 29.3877 76.3402ZM30.5451 77.0586C30.3749 77.3322 30.2387 77.6401 30.1366 77.9138C30.0345 78.1874 30.0004 78.4269 29.9664 78.6663C29.9664 78.9058 30.0004 79.1111 30.1026 79.3163C30.2047 79.5215 30.3409 79.6584 30.5792 79.7952C30.9877 80.0347 31.3621 80.0689 31.7707 79.8978C32.1792 79.7268 32.5877 79.2821 33.0302 78.5979C33.2004 78.3243 33.3366 78.0506 33.4387 77.7769C33.5409 77.5033 33.609 77.2638 33.609 77.0244C33.609 76.7849 33.5749 76.5797 33.4728 76.3744C33.3707 76.1692 33.2004 75.9981 32.9962 75.8613C32.5877 75.6218 32.2132 75.5876 31.7707 75.7587C31.3962 75.9297 30.9877 76.3744 30.5451 77.0586Z" fill="white"/>
<path d="M38.8853 77.6401L42.8342 78.8032L42.4938 79.9321L39.8045 79.1453L39.43 80.4794C39.5321 80.4794 39.6683 80.5136 39.8385 80.5478C40.0087 80.582 40.1449 80.6162 40.2811 80.6504C40.6215 80.7531 40.9279 80.8899 41.2002 81.0267C41.4725 81.1636 41.6768 81.3688 41.847 81.5741C42.0172 81.7793 42.1194 82.053 42.1534 82.3266C42.1874 82.6003 42.1534 82.9424 42.0513 83.3187C41.9491 83.695 41.813 83.9686 41.6087 84.2081C41.4045 84.4475 41.1662 84.6186 40.8938 84.7212C40.6215 84.8238 40.3151 84.8922 39.9747 84.8922C39.6342 84.8922 39.2598 84.8238 38.8853 84.7212C38.7832 84.687 38.647 84.6528 38.5108 84.5844C38.3406 84.516 38.2045 84.4817 38.0342 84.4133C37.864 84.3449 37.6938 84.2765 37.5236 84.2081C37.3534 84.1397 37.2172 84.0713 37.0811 84.0028L38.8853 77.6401ZM39.2598 83.6608C39.43 83.695 39.5662 83.7292 39.7364 83.7292C39.8725 83.7292 40.0087 83.695 40.1449 83.6608C40.2811 83.6265 40.3832 83.5239 40.4853 83.4213C40.5874 83.3187 40.6555 83.1818 40.7236 82.9766C40.7917 82.7713 40.7917 82.5661 40.7576 82.4293C40.7236 82.2924 40.6555 82.1556 40.5874 82.053C40.4853 81.9504 40.3832 81.8477 40.247 81.7793C40.1108 81.7109 39.9406 81.6425 39.7704 81.6083C39.6683 81.5741 39.5662 81.5741 39.43 81.5399C39.2938 81.5056 39.1917 81.5056 39.1576 81.5056L38.613 83.4213C38.6811 83.4555 38.7832 83.4897 38.9194 83.5581C38.9874 83.5923 39.1236 83.6265 39.2598 83.6608Z" fill="white"/>
<path d="M46.2046 79.4874L47.4982 79.4532L47.5322 81.8477C47.6003 81.8477 47.7025 81.8135 47.8727 81.7793C48.0088 81.7451 48.1791 81.7451 48.3152 81.7451C48.6216 81.7451 48.928 81.7793 49.2344 81.8135C49.5408 81.8819 49.7791 81.9846 49.9833 82.1556C50.1876 82.3267 50.3918 82.5319 50.494 82.8056C50.6301 83.0792 50.6982 83.4213 50.6982 83.866C50.6982 84.6528 50.494 85.2343 50.0514 85.6106C49.6088 86.0211 48.928 86.1922 48.0429 86.2264C47.9408 86.2264 47.8386 86.2264 47.7025 86.2264C47.5663 86.2264 47.3961 86.2264 47.2599 86.2264C47.0897 86.2264 46.9195 86.1922 46.7493 86.1922C46.5791 86.1922 46.4088 86.158 46.2727 86.1237L46.2046 79.4874ZM48.145 85.0975C48.5195 85.0975 48.7918 84.9949 49.0301 84.8238C49.2684 84.6528 49.3705 84.3791 49.3705 83.9686C49.3705 83.7634 49.3365 83.5924 49.2684 83.4555C49.2003 83.3187 49.0982 83.2161 48.9961 83.1476C48.894 83.0792 48.7578 83.0108 48.6216 83.0108C48.4854 83.0108 48.3152 82.9766 48.145 82.9766C48.0429 82.9766 47.9408 82.9766 47.8386 83.0108C47.7025 83.045 47.6344 83.045 47.5663 83.0792L47.6003 85.0975C47.6684 85.1317 47.7705 85.1317 47.8386 85.1317C47.9408 85.0975 48.0429 85.0975 48.145 85.0975ZM51.345 79.419L52.6386 79.3848L52.7408 86.0895L51.4471 86.1237L51.345 79.419Z" fill="white"/>
<path d="M60.8427 78.5979L58.9704 79.1452L60.5023 84.4474L59.2427 84.8237L57.7108 79.5215L55.8385 80.0688L55.498 78.9399L60.5023 77.469L60.8427 78.5979Z" fill="white"/>
<path d="M68.06 76.7849L67.6855 75.9981L67.6515 76.0323L67.7536 77.0243L67.5493 81.4714L66.6983 81.9845L63.1919 76.2718L64.3153 75.5876L66.2217 78.7005L66.5962 79.5215L66.6302 79.4873L66.5281 78.4611L66.7664 74.0825L67.5834 73.5693L71.0898 79.2821L69.9664 79.9662L68.06 76.7849Z" fill="white"/>
<path d="M78.0344 72.7826L77.1493 73.7404L75.2429 71.9274L74.9025 72.5431L75.7535 75.2456L74.6982 76.3402L74.0174 73.8088L74.1195 73.1247C73.9493 73.2273 73.745 73.3299 73.5408 73.3983C73.3365 73.4667 73.1323 73.4667 72.928 73.4667C72.7237 73.4667 72.4854 73.3983 72.2812 73.2957C72.0769 73.1931 71.8386 73.0562 71.6344 72.851C71.328 72.5773 71.1578 72.3037 71.0557 71.9958C70.9535 71.7221 70.9195 71.4143 70.9876 71.1064C71.0216 70.7985 71.1578 70.5249 71.328 70.217C71.4982 69.9091 71.7365 69.6012 72.0088 69.3276C72.0769 69.2592 72.1791 69.1565 72.2812 69.0539C72.3833 68.9513 72.4854 68.8487 72.5876 68.746C72.6897 68.6434 72.8259 68.5408 72.928 68.4724C73.0301 68.4039 73.1323 68.3013 73.2344 68.2329L78.0344 72.7826ZM72.7237 70.2512C72.6216 70.388 72.5195 70.4906 72.4174 70.6275C72.3493 70.7643 72.2812 70.9011 72.2471 71.038C72.2131 71.1748 72.2471 71.3116 72.2812 71.4485C72.3152 71.5853 72.4514 71.7221 72.5876 71.8932C72.7237 72.03 72.8599 72.1326 73.0301 72.1668C73.1663 72.201 73.3025 72.2353 73.4727 72.201C73.6088 72.1668 73.745 72.1326 73.8812 72.03C74.0174 71.9274 74.1535 71.8248 74.2557 71.7221L74.5961 71.3801L73.0982 69.9433C73.0301 69.9775 72.9961 70.0459 72.928 70.0801C72.8599 70.0801 72.7918 70.1486 72.7237 70.2512Z" fill="white"/>
<path d="M64.281 57.5259C64.2129 57.1154 63.8385 56.8418 63.43 56.9102C58.9363 57.6627 54.3406 57.7996 49.7789 57.3549C45.2512 56.9102 40.7576 55.8497 36.5023 54.2419C36.1278 54.1051 35.6853 54.2762 35.5491 54.6867C35.4129 55.0629 35.5831 55.5076 35.9916 55.6445C36.3321 55.7813 36.7065 55.9181 37.047 56.0208L38.3746 62.144C38.4427 62.4177 38.647 62.6229 38.9193 62.6913C38.9874 62.7255 39.0555 62.7255 39.1236 62.7255C39.3278 62.7255 39.5321 62.6571 39.6682 62.4861L43.9576 57.9364C44.6725 58.0732 45.4214 58.2443 46.1363 58.3469L48.4853 64.1281C48.5874 64.4017 48.8257 64.5728 49.098 64.607C49.1321 64.607 49.1321 64.607 49.1661 64.607C49.4044 64.607 49.6427 64.4702 49.7789 64.2649L53.2172 59.0311C53.7959 59.0653 54.3406 59.0653 54.9193 59.0653C55.0895 59.0653 55.2597 59.0653 55.464 59.0653L58.8002 64.3675C58.9363 64.5728 59.1746 64.7096 59.447 64.7096C59.481 64.7096 59.481 64.7096 59.5151 64.7096C59.7874 64.6754 60.0257 64.5044 60.1278 64.2649L62.6129 58.518C62.9874 58.4495 63.3619 58.4153 63.7023 58.3469C64.0768 58.3127 64.3491 57.9364 64.281 57.5259ZM39.498 60.4336L38.647 56.5681C39.8044 56.9444 40.9959 57.2865 42.1874 57.5601L39.498 60.4336ZM49.3023 62.2808L47.8044 58.6206C48.4172 58.689 49.0299 58.7574 49.6427 58.8258C50.2555 58.8942 50.8682 58.9284 51.481 58.9627L49.3023 62.2808ZM59.2768 62.3835L57.1661 59.0311C58.3917 58.9627 59.6172 58.8942 60.8427 58.7574L59.2768 62.3835Z" fill="white"/>
<path d="M68.0938 42.7482C67.9236 42.3719 67.4811 42.2008 67.1066 42.3719C66.596 42.6113 66.0853 42.8166 65.5747 43.0218C65.5406 43.0218 65.5066 43.056 65.4725 43.056C63.6002 43.8086 61.6938 44.4586 59.7874 45.0059C59.7534 45.0059 59.6853 45.0401 59.6513 45.0401C58.7321 45.2796 57.813 45.519 56.8938 45.7243C56.8598 45.7243 56.7917 45.7243 56.7577 45.7585C54.7832 46.169 52.8087 46.4768 50.8002 46.6821C50.7662 46.6821 50.7321 46.6821 50.7321 46.6821C50.2555 46.7163 49.7789 46.7505 49.2683 46.7847C48.7917 46.8189 48.3151 46.8531 47.8385 46.8531C47.8045 46.8531 47.7704 46.8531 47.7704 46.8531C45.7619 46.9215 43.7534 46.8873 41.7449 46.7163C41.7108 46.7163 41.6428 46.7163 41.6087 46.7163C40.6555 46.6479 39.7023 46.5453 38.7832 46.4084C38.7491 46.4084 38.6811 46.4084 38.647 46.3742C36.6725 46.1006 34.6981 45.6901 32.7577 45.1769C32.7236 45.1769 32.6896 45.1427 32.6555 45.1427C32.1108 45.0059 31.5662 44.8349 31.0555 44.698C30.647 44.5954 30.2385 44.8006 30.1364 45.2111C30.0342 45.6216 30.2385 46.0321 30.647 46.1348C31.0896 46.2716 31.4981 46.3742 31.9406 46.5111L33.7108 52.4975C33.7789 52.7711 34.0172 52.9764 34.2896 53.0106C34.3236 53.0106 34.3917 53.0106 34.4257 53.0106C34.664 53.0106 34.8683 52.908 35.0045 52.7369L38.9534 47.8794C39.7023 47.982 40.4172 48.0504 41.1662 48.1188L43.9577 53.6947C44.0938 53.9342 44.3321 54.1052 44.6045 54.1052C44.8768 54.1052 45.1151 53.9684 45.2513 53.729L48.2811 48.2557C48.6555 48.2557 49.03 48.2215 49.4045 48.1872C49.7789 48.153 50.1534 48.1188 50.5279 48.1188L54.2385 53.1474C54.3747 53.3527 54.613 53.4553 54.8513 53.4553C54.8853 53.4553 54.9194 53.4553 54.9534 53.4553C55.2257 53.4211 55.464 53.2158 55.5321 52.9764L57.5747 47.0584C58.2896 46.8873 59.0385 46.7163 59.7534 46.5111L64.2811 50.8213C64.4172 50.9581 64.6215 51.0265 64.7917 51.0265C64.8598 51.0265 64.9619 51.0265 65.03 50.9923C65.3023 50.8897 65.4725 50.6844 65.5406 50.4108L66.5279 44.2191C66.9364 44.0481 67.3449 43.877 67.7534 43.6718C68.0938 43.5692 68.264 43.1245 68.0938 42.7482ZM34.6981 50.7529L33.5747 46.9558C34.7662 47.2294 35.9577 47.4689 37.1832 47.6741L34.6981 50.7529ZM44.6045 51.8475L42.8342 48.3241C43.8215 48.3925 44.8428 48.3925 45.83 48.3925C46.0683 48.3925 46.2725 48.3925 46.5108 48.3925L44.6045 51.8475ZM54.5449 51.1976L52.196 48.0162C53.4215 47.8794 54.613 47.6741 55.8385 47.4689L54.5449 51.1976ZM64.247 48.803L61.3874 46.1006C62.5449 45.7585 63.7364 45.348 64.8598 44.9033L64.247 48.803Z" fill="white"/>
<path d="M68.6724 32.725C68.5702 32.3145 68.1958 32.0751 67.7873 32.1435C61.7958 33.4434 55.6341 33.9223 49.5404 33.6144C43.4128 33.3066 37.3532 32.1777 31.5319 30.262C31.1234 30.1252 30.7149 30.3647 30.5787 30.741C30.4426 31.1515 30.6809 31.562 31.0553 31.6988C31.566 31.8698 32.0766 32.0409 32.6213 32.1777L34.8 40.4218C34.8681 40.6955 35.0724 40.9008 35.3447 40.9692C35.4128 40.9692 35.4468 41.0034 35.5149 41.0034C35.7192 41.0034 35.9234 40.9008 36.0936 40.7297L41.6426 34.2986C42.6979 34.4696 43.7873 34.6407 44.8766 34.7433L48.4511 42.4743C48.5532 42.7138 48.8256 42.8848 49.0979 42.919H49.1319C49.4043 42.919 49.6426 42.7822 49.7787 42.5427L54.1362 35.2222C55.2256 35.2222 56.3149 35.1538 57.3702 35.1196L62.2383 42.098C62.3745 42.3033 62.6128 42.4059 62.8511 42.4059C62.8851 42.4059 62.9192 42.4059 62.9532 42.4059C63.2256 42.3717 63.4639 42.2007 63.566 41.927L66.5958 33.9565C67.1404 33.8539 67.6511 33.7513 68.1958 33.6486C68.5021 33.546 68.7745 33.1355 68.6724 32.725ZM35.8894 38.6772L34.2894 32.6908C36.1617 33.2039 38.0341 33.6486 39.9064 33.9907L35.8894 38.6772ZM49.2 40.5245L46.5787 34.9143C47.5319 35.017 48.4851 35.0854 49.4724 35.1196C50.4256 35.1538 51.4128 35.188 52.366 35.2222L49.2 40.5245ZM62.6128 40.0455L59.0724 34.9485C60.9787 34.7775 62.9192 34.5381 64.7915 34.2302L62.6128 40.0455Z" fill="white"/>
<path d="M17.3022 63.3412C15.498 59.0652 14.5107 54.3786 14.5107 49.4185C14.5107 29.7488 30.4086 13.7737 49.9831 13.7737C69.5576 13.7737 85.4895 29.7488 85.4895 49.4185C85.4895 55.5075 83.9576 61.2545 81.3022 66.2831" stroke="white" stroke-opacity="0.15" stroke-width="1.5" stroke-miterlimit="10"/>
<circle cx="50" cy="50" r="50" fill="#E25D40"/>
<path d="M14.8699 44.1082C15.1079 44.1082 15.2779 44.1422 15.4479 44.2102C15.6179 44.2782 15.7878 44.3462 15.9238 44.4822C16.0598 44.6182 16.1958 44.7202 16.2978 44.8562C16.3998 44.9922 16.5018 45.1622 16.6038 45.3321C16.8078 45.0262 17.0458 44.7882 17.3178 44.6182C17.5897 44.4482 17.8957 44.3802 18.2697 44.3802C18.5077 44.3802 18.7457 44.4482 18.9497 44.5502C19.1537 44.6522 19.3576 44.7882 19.4936 44.9582C19.6296 45.1282 19.7656 45.3661 19.8336 45.6041C19.9016 45.8421 19.9356 46.1481 19.9356 46.4541C19.9356 46.7261 19.8676 46.9981 19.7996 47.236C19.6976 47.474 19.5956 47.678 19.4596 47.814C19.3237 47.984 19.1537 48.086 18.9497 48.188C18.7457 48.256 18.5077 48.324 18.2697 48.29C17.8957 48.29 17.5897 48.188 17.3178 47.984C17.0798 47.814 16.8418 47.542 16.6378 47.202C16.3998 47.576 16.1278 47.848 15.8558 48.018C15.5839 48.188 15.2439 48.29 14.8019 48.256C14.5299 48.256 14.2579 48.188 14.0199 48.052C13.782 47.95 13.612 47.78 13.442 47.576C13.272 47.372 13.17 47.134 13.102 46.8621C13.034 46.7261 13 46.4201 13 46.1141C13 45.8081 13.068 45.5021 13.17 45.2641C13.272 45.0262 13.408 44.7882 13.544 44.6182C13.714 44.4482 13.884 44.3122 14.1219 44.2102C14.3599 44.1082 14.5979 44.0742 14.8699 44.1082ZM14.8359 47.168C14.9719 47.168 15.1079 47.134 15.2439 47.066C15.3799 46.9981 15.4819 46.9301 15.5839 46.7941C15.6859 46.6921 15.7878 46.5561 15.8558 46.4201C15.9578 46.2841 16.0258 46.1481 16.1278 46.0121C15.9578 45.7061 15.7878 45.5021 15.5839 45.3661C15.3799 45.2301 15.2099 45.1961 15.0059 45.1622C14.7679 45.1622 14.5299 45.2301 14.3599 45.4001C14.1559 45.5701 14.0539 45.8081 14.0539 46.1141C14.0539 46.3861 14.0879 46.6241 14.2239 46.8281C14.3599 47.066 14.5639 47.134 14.8359 47.168ZM18.1677 45.5701C18.0317 45.5701 17.8957 45.5701 17.7597 45.6381C17.6577 45.7061 17.5557 45.7741 17.4538 45.8421C17.3518 45.9441 17.2838 46.0461 17.2158 46.1481C17.1478 46.2841 17.0798 46.3861 16.9778 46.5221C17.2838 46.9301 17.6237 47.134 18.0317 47.134C18.3037 47.134 18.5077 47.066 18.6437 46.9301C18.7797 46.7941 18.8477 46.5901 18.8817 46.3861C18.8817 46.1141 18.8137 45.9101 18.6777 45.7741C18.5417 45.6721 18.3717 45.6041 18.1677 45.5701Z" fill="white"/>
<path d="M16.6717 52.4377C17.8276 52.1997 18.7116 52.2337 19.3575 52.5057C20.0035 52.7777 20.3775 53.2877 20.5475 54.0356C20.7174 54.8176 20.5475 55.4636 20.0715 55.9395C19.5955 56.4155 18.7796 56.7895 17.6236 57.0275C16.4677 57.2655 15.5837 57.2315 14.9378 56.9595C14.2918 56.6875 13.8838 56.1775 13.7478 55.4296C13.5778 54.6476 13.7478 54.0356 14.2578 53.5257C14.7678 53.0157 15.5837 52.6417 16.6717 52.4377ZM16.9097 53.6277C16.1617 53.7976 15.5837 54.0016 15.2097 54.2396C14.8358 54.4776 14.6658 54.8176 14.7678 55.1916C14.8358 55.5655 15.0738 55.8035 15.5157 55.8715C15.9237 55.9735 16.5357 55.9395 17.3856 55.7695C18.1336 55.5995 18.7116 55.3956 19.0855 55.1576C19.4595 54.9196 19.5955 54.5796 19.5275 54.2056C19.4595 53.8316 19.1875 53.5937 18.7796 53.5257C18.3376 53.4237 17.7256 53.4577 16.9097 53.6277Z" fill="white"/>
<path d="M18.8477 60.5972C19.9017 60.0872 20.7516 59.8832 21.4656 59.9852C22.1455 60.0872 22.6555 60.4952 22.9955 61.1412C23.3355 61.8551 23.3695 62.5011 23.0295 63.079C22.6895 63.657 21.9755 64.201 20.9216 64.745C19.8677 65.2549 18.9837 65.4589 18.3038 65.3569C17.6238 65.2549 17.1138 64.8469 16.7738 64.167C16.4339 63.453 16.4339 62.8071 16.8078 62.1951C17.1818 61.6511 17.8618 61.0732 18.8477 60.5972ZM19.3917 61.7191C18.7117 62.0591 18.2018 62.3991 17.8958 62.7391C17.5898 63.079 17.5218 63.419 17.6918 63.759C17.8618 64.099 18.1678 64.269 18.5757 64.235C18.9837 64.235 19.5957 64.031 20.3436 63.657C21.0236 63.317 21.5336 62.977 21.8396 62.6371C22.1455 62.2971 22.2135 61.9571 22.0435 61.5831C21.8736 61.2431 21.5676 61.0732 21.1596 61.1072C20.7176 61.1412 20.1397 61.3451 19.3917 61.7191Z" fill="white"/>
<path d="M28.2308 79.3302L27.5169 78.7523L28.1628 77.7323L24.865 75.0125L23.981 75.8284L23.2671 75.2505L24.763 73.4486L25.307 73.8905C25.375 73.8566 25.545 73.7886 25.7829 73.6866C26.0209 73.5506 26.3269 73.3806 26.6669 73.1086C27.0409 72.8366 27.4489 72.4626 27.9248 71.9867C28.4008 71.5107 28.9108 70.9327 29.4887 70.2188L32.5486 72.7686L29.0468 77.0184L29.6927 77.5623L28.2308 79.3302ZM28.0608 76.1344L30.8147 72.8026L29.6927 71.8507C28.9448 72.7006 28.2988 73.3466 27.7208 73.8225C27.1429 74.2985 26.7009 74.6045 26.3949 74.7405L28.0608 76.1344Z" fill="white"/>
<path d="M34.0447 77.6304C34.4867 76.6104 35.0647 75.9305 35.7446 75.5905C36.4246 75.2505 37.2065 75.2505 38.0225 75.6245C38.4645 75.8285 38.8045 76.0665 39.0764 76.3384C39.3484 76.6444 39.5184 76.9504 39.5864 77.3244C39.6884 77.6984 39.6884 78.1064 39.6204 78.5483C39.5524 78.9903 39.4164 79.4323 39.2124 79.9083C38.7705 80.9282 38.1925 81.6082 37.5125 81.9481C36.8326 82.2881 36.0506 82.2881 35.2347 81.9141C34.7927 81.7102 34.4527 81.4722 34.1807 81.1662C33.9087 80.8602 33.7387 80.5542 33.6707 80.1802C33.5687 79.8063 33.5687 79.3983 33.6367 78.9563C33.7047 78.5483 33.8407 78.1064 34.0447 77.6304ZM35.3027 78.1743C35.1667 78.4803 35.0647 78.7863 34.9967 79.0583C34.9287 79.3303 34.9287 79.6023 34.9287 79.8403C34.9627 80.0782 35.0307 80.2822 35.1667 80.4522C35.3027 80.6222 35.4726 80.7582 35.7106 80.8602C36.1186 81.0302 36.5266 81.0302 36.9006 80.7922C37.2745 80.5542 37.6145 80.0782 37.9545 79.3303C38.0905 79.0243 38.1925 78.7523 38.2605 78.4803C38.3285 78.2083 38.3285 77.9364 38.3285 77.6984C38.3285 77.4604 38.2265 77.2564 38.1245 77.0524C37.9885 76.8824 37.8185 76.7124 37.5805 76.6104C37.1726 76.4404 36.7646 76.4404 36.3566 76.6784C35.9826 76.9504 35.6086 77.4264 35.3027 78.1743Z" fill="white"/>
<path d="M43.5983 77.6304L47.644 78.2423L47.474 79.3983L44.7202 78.9903L44.5162 80.3502C44.6182 80.3502 44.7542 80.3502 44.9242 80.3502C45.0942 80.3502 45.2302 80.3502 45.4002 80.3842C45.7401 80.4522 46.0801 80.5202 46.3521 80.6222C46.6241 80.7242 46.8621 80.8942 47.0661 81.0642C47.236 81.2682 47.372 81.5062 47.474 81.7781C47.542 82.0501 47.576 82.3901 47.508 82.7641C47.44 83.1381 47.338 83.444 47.1681 83.716C46.9981 83.988 46.7941 84.192 46.5221 84.328C46.2501 84.464 45.9781 84.566 45.6381 84.634C45.2982 84.668 44.9242 84.668 44.5162 84.6C44.4142 84.6 44.2782 84.566 44.1082 84.532C43.9382 84.498 43.7682 84.464 43.5983 84.43C43.4283 84.396 43.2583 84.362 43.0883 84.294C42.9183 84.26 42.7483 84.192 42.6123 84.158L43.5983 77.6304ZM44.7882 83.512C44.9582 83.546 45.0942 83.546 45.2642 83.512C45.4002 83.478 45.5361 83.444 45.6721 83.376C45.8081 83.3081 45.8761 83.2061 45.9781 83.1041C46.0461 82.9681 46.1141 82.8321 46.1481 82.6621C46.1821 82.4241 46.1821 82.2541 46.1141 82.1181C46.0801 81.9821 45.9781 81.8461 45.8761 81.7441C45.7741 81.6421 45.6381 81.5742 45.5021 81.5402C45.3662 81.5062 45.1962 81.4722 45.0262 81.4382C44.9242 81.4382 44.8222 81.4042 44.6862 81.4042C44.5502 81.4042 44.4482 81.4042 44.4142 81.4042L44.1082 83.376C44.1762 83.41 44.2782 83.444 44.4142 83.444C44.5502 83.444 44.6522 83.512 44.7882 83.512Z" fill="white"/>
<path d="M51.248 78.3784C51.52 78.3104 51.792 78.2424 52.098 78.1744C52.404 78.1064 52.744 78.0724 53.0499 78.0384C53.3899 78.0044 53.6959 78.0044 54.0359 78.0044C54.3759 78.0384 54.6819 78.1064 54.9538 78.2424C55.2258 78.3784 55.4638 78.5824 55.6678 78.8543C55.8718 79.1263 55.9738 79.5003 56.0418 79.9423C56.0758 80.3503 56.0418 80.7242 55.9398 81.0302C55.8378 81.3362 55.6678 81.5742 55.4298 81.7782C55.1918 81.9822 54.9538 82.1522 54.6479 82.2542C54.3419 82.3561 54.0359 82.4241 53.6959 82.4581C53.6619 82.4581 53.6279 82.4581 53.5599 82.4581C53.4919 82.4581 53.4239 82.4581 53.3559 82.4921C53.2879 82.4921 53.2199 82.4921 53.1179 82.4921C53.0499 82.4921 52.982 82.4921 52.948 82.4921L53.1859 84.77L51.894 84.906L51.248 78.3784ZM53.2539 79.1603C53.1179 79.1603 53.016 79.1943 52.88 79.1943C52.778 79.2283 52.676 79.2283 52.608 79.2623L52.812 81.4042C52.846 81.4042 52.88 81.4042 52.914 81.4042C52.948 81.4042 53.0159 81.4042 53.0839 81.4042C53.1519 81.4042 53.1859 81.4042 53.2539 81.4042C53.3219 81.4042 53.3559 81.4042 53.3559 81.4042C53.5259 81.3702 53.6959 81.3702 53.8659 81.3022C54.0359 81.2682 54.1719 81.1662 54.3079 81.0982C54.4439 80.9962 54.5119 80.8602 54.5799 80.7242C54.6479 80.5543 54.6479 80.3503 54.6479 80.1123C54.6139 79.9083 54.5799 79.7383 54.4779 79.6023C54.3759 79.4663 54.2739 79.3643 54.1379 79.2963C54.0019 79.2283 53.8659 79.1943 53.6959 79.1603C53.5939 79.1263 53.4239 79.1263 53.2539 79.1603Z" fill="white"/>
<path d="M58.7612 77.2223L59.9852 76.7123L60.9031 78.9222C60.9711 78.8882 61.0731 78.8202 61.2091 78.7522C61.3451 78.6842 61.4811 78.6162 61.6171 78.5482C61.9231 78.4122 62.195 78.3442 62.501 78.2762C62.807 78.2422 63.079 78.2422 63.317 78.3102C63.589 78.3782 63.827 78.5142 64.0309 78.7182C64.2349 78.9222 64.4389 79.2282 64.6089 79.6021C64.9149 80.3161 64.9149 80.9281 64.6429 81.472C64.3709 81.982 63.827 82.424 63.011 82.764C62.943 82.798 62.807 82.832 62.705 82.9C62.569 82.934 62.433 83.002 62.263 83.036C62.093 83.07 61.9571 83.138 61.7871 83.172C61.6171 83.206 61.4471 83.24 61.3111 83.2739L58.7612 77.2223ZM62.603 81.71C62.943 81.574 63.181 81.3701 63.317 81.1321C63.453 80.8941 63.453 80.5881 63.317 80.2141C63.249 80.0101 63.147 79.8741 63.045 79.7721C62.943 79.6701 62.807 79.6022 62.705 79.5682C62.569 79.5342 62.433 79.5342 62.297 79.5682C62.161 79.6022 61.991 79.6361 61.8551 79.7041C61.7871 79.7381 61.6851 79.7721 61.5831 79.8401C61.4811 79.9081 61.4131 79.9421 61.3791 79.9761L62.127 81.812C62.195 81.812 62.297 81.778 62.365 81.744C62.399 81.778 62.501 81.744 62.603 81.71ZM63.521 75.2844L64.7449 74.7744L67.2608 80.9281L66.0368 81.4381L63.521 75.2844Z" fill="white"/>
<path d="M70.7967 74.5707L67.2949 73.2107L68.5189 72.2248L70.5247 73.0747L71.1367 73.4487L70.8647 72.8028L70.4907 70.6269L71.5787 69.7429L72.1227 73.4487L75.8624 74.8766L74.6725 75.8626L72.4626 75.0126L71.8167 74.6387L72.0547 75.3526L72.4286 77.6985L71.3407 78.5824L70.7967 74.5707Z" fill="white"/>
<path d="M85.9598 62.0251L85.5518 62.841L84.4299 62.4331L82.526 66.2749L83.5119 66.9208L83.1039 67.7368L80.996 66.6828L81.302 66.0369C81.268 65.9689 81.166 65.8329 80.996 65.6289C80.826 65.4249 80.5541 65.1869 80.2141 64.9149C79.8741 64.6429 79.3981 64.303 78.8542 63.963C78.2762 63.589 77.5962 63.215 76.7803 62.841L78.5482 59.2712L83.4779 61.7191L83.8519 60.9711L85.9598 62.0251ZM82.8999 62.909L79.0241 60.9711L78.3782 62.2971C79.3641 62.841 80.1461 63.317 80.7581 63.759C81.336 64.201 81.744 64.5749 81.982 64.8469L82.8999 62.909Z" fill="white"/>
<path d="M79.7383 55.7015L80.5202 51.8257L81.6422 52.0637L81.1322 54.6475L82.6621 54.9535L83.1381 52.6076L84.26 52.8456L83.7841 55.1915L85.382 55.4975L85.9259 52.8456L87.0479 53.0836L86.2659 56.9934L79.7383 55.7015Z" fill="white"/>
<path d="M81.7439 45.0261L81.8119 46.4541C82.4239 46.4541 82.9679 46.4541 83.4779 46.4541C83.9878 46.4541 84.4298 46.4881 84.8038 46.5221C85.2118 46.556 85.5517 46.624 85.8577 46.692C86.1637 46.76 86.4357 46.862 86.6737 46.998C86.8097 47.066 86.9457 47.168 87.0477 47.27C87.1497 47.372 87.2176 47.474 87.2856 47.61C87.3536 47.712 87.3876 47.848 87.4216 47.95C87.4556 48.052 87.4556 48.188 87.4556 48.29C87.4556 48.4259 87.4556 48.5619 87.4556 48.6639C87.4216 48.7659 87.4216 48.8679 87.3876 48.9699L86.2657 48.9019C86.2657 48.8679 86.2997 48.8339 86.2997 48.7999C86.2997 48.7659 86.2997 48.7319 86.2997 48.6979C86.2997 48.5959 86.2657 48.4939 86.1977 48.3919C86.1297 48.29 86.0617 48.222 85.9257 48.154C85.7897 48.052 85.5857 47.984 85.3138 47.95C85.0418 47.882 84.7018 47.848 84.2598 47.814C83.8518 47.78 83.3419 47.78 82.7639 47.78C82.1859 47.78 81.506 47.78 80.724 47.814L80.52 43.7682L87.1836 43.4282L87.2516 44.7202L81.7439 45.0261Z" fill="white"/>
<path d="M16.7061 38.6686C20.9558 23.8454 34.5891 13 50.7722 13C66.8533 13 80.4185 23.7094 84.7703 38.3626" stroke="white" stroke-opacity="0.15" stroke-width="1.5" stroke-miterlimit="10"/>
<path d="M60.9035 35.5067L60.8015 35.4727V35.3708C60.4615 33.0929 59.3396 30.951 57.6737 29.3871C55.7698 27.6192 53.3219 26.6672 50.738 26.6672C48.1542 26.6672 45.6723 27.6532 43.8024 29.3871C42.1025 30.951 40.9806 33.0929 40.6746 35.3708V35.4727L40.5386 35.5067C36.8328 37.1387 34.4189 40.8105 34.4189 44.8562C34.4189 50.4659 38.9747 55.0557 44.6184 55.0557C46.3183 55.0557 48.0182 54.6137 49.5141 53.7977L49.7521 53.6617V64.3372H51.622V53.6277L51.86 53.7637C53.3559 54.5797 55.0558 55.0217 56.7897 55.0217C62.3994 55.0217 66.9891 50.4659 66.9891 44.8222C67.0231 40.7765 64.6433 37.1047 60.9035 35.5067ZM56.8577 53.1518C55.0218 53.1518 53.2199 52.5398 51.758 51.3839L51.69 51.3159V44.3463L56.6197 41.7624L55.7358 40.0965L51.69 42.2384V37.7166H49.8201V47.1341L45.7743 44.9922L44.8904 46.6581L49.8201 49.242V51.3159L49.7521 51.3839C48.2902 52.5058 46.4883 53.1518 44.6524 53.1518C40.0626 53.1518 36.3568 49.412 36.3568 44.8562C36.3568 41.3544 38.5667 38.2266 41.8645 37.0367L42.4425 36.8327L42.4765 36.2207C42.6465 34.1468 43.5644 32.2089 45.0944 30.781C46.6243 29.3531 48.6302 28.5711 50.738 28.5711C52.8459 28.5711 54.8518 29.3531 56.3817 30.781C57.9116 32.2089 58.8296 34.1468 58.9996 36.2207L59.0336 36.8327L59.6116 37.0367C62.9094 38.2266 65.1192 41.3544 65.1192 44.8562C65.1532 49.412 61.4134 53.1518 56.8577 53.1518Z" fill="white"/>
</svg>
