<svg width="12" height="12" viewBox="0 0 12 12" fill="none" xmlns="http://www.w3.org/2000/svg">
<path d="M1.41089 5.46948C0.858604 5.46948 0.410889 5.9172 0.410889 6.46948C0.410889 7.02177 0.858604 7.46948 1.41089 7.46948V5.46948ZM10.7651 7.46948C11.3173 7.46948 11.7651 7.02177 11.7651 6.46948C11.7651 5.9172 11.3173 5.46948 10.7651 5.46948V7.46948ZM1.41089 7.46948H10.7651V5.46948H1.41089V7.46948Z" fill="white"/>
<path d="M6.90088 1.60522C6.90088 1.05294 6.45316 0.605225 5.90088 0.605225C5.34859 0.605225 4.90088 1.05294 4.90088 1.60522H6.90088ZM4.90088 10.9594C4.90088 11.5117 5.34859 11.9594 5.90088 11.9594C6.45316 11.9594 6.90088 11.5117 6.90088 10.9594H4.90088ZM4.90088 1.60522V10.9594H6.90088V1.60522H4.90088Z" fill="white"/>
</svg>
