<svg width="73" height="74" viewBox="0 0 73 74" fill="none" xmlns="http://www.w3.org/2000/svg">
<path d="M12.0954 60.9154L10.3508 59.1708L8.36673 61.1548L7.44312 60.2312L12.198 55.5105L13.1217 56.4341L11.1718 58.3498L12.9164 60.0944L14.8663 58.1787L15.7899 59.1023L11.035 63.8231L10.1113 62.8994L12.0954 60.9154Z" fill="white"/>
<path d="M16.6109 63.96C17.1582 63.0022 17.8082 62.3522 18.5265 62.0786C19.2449 61.8049 19.9975 61.8733 20.8185 62.318C21.229 62.5575 21.571 62.8312 21.7763 63.139C22.0157 63.4469 22.1526 63.8232 22.221 64.1995C22.2894 64.5758 22.2552 64.9863 22.1526 65.431C22.05 65.8757 21.8447 66.2862 21.6053 66.7651C21.0579 67.7229 20.408 68.3729 19.6896 68.6465C18.9712 68.9202 18.2187 68.8518 17.3977 68.4071C16.9872 68.1676 16.6451 67.894 16.4056 67.5861C16.1662 67.2782 16.0293 66.9019 15.9951 66.5256C15.9267 66.1493 15.9609 65.7388 16.0635 65.2941C16.2004 64.8494 16.3714 64.4047 16.6109 63.96ZM17.8424 64.6442C17.6713 64.9521 17.5345 65.2257 17.4661 65.4994C17.3635 65.773 17.3292 66.0467 17.3292 66.252C17.3292 66.4914 17.3977 66.6967 17.5003 66.9019C17.6029 67.1072 17.7739 67.244 17.9792 67.3808C18.3897 67.6203 18.8002 67.6203 19.1765 67.4492C19.587 67.244 19.9633 66.7993 20.3738 66.0809C20.5448 65.8073 20.6474 65.5336 20.7501 65.2599C20.8527 64.9863 20.8869 64.7468 20.8869 64.5074C20.8869 64.2679 20.8527 64.0626 20.7501 63.8574C20.6474 63.6521 20.4764 63.5153 20.2369 63.3785C19.8264 63.139 19.4159 63.139 19.0054 63.3443C18.6291 63.4811 18.2187 63.96 17.8424 64.6442Z" fill="white"/>
<path d="M30.1915 67.5175C30.1573 67.6885 30.0889 67.8254 30.0205 67.9964C29.9521 68.1332 29.8494 68.2701 29.7126 68.3727C29.5758 68.4753 29.4389 68.5779 29.2679 68.6463C29.0969 68.7148 28.8916 68.749 28.6864 68.749V68.8174C28.8574 68.8858 29.0284 68.9884 29.1653 69.0911C29.3021 69.1937 29.4389 69.3305 29.5416 69.5016C29.6442 69.6726 29.6784 69.8436 29.7126 70.0489C29.7468 70.2541 29.7126 70.4936 29.6442 70.733C29.5758 71.0751 29.4047 71.3488 29.1995 71.554C28.9942 71.7593 28.7548 71.9303 28.4811 71.9987C28.2074 72.1014 27.8996 72.1356 27.5917 72.1356C27.2838 72.1356 26.9418 72.1014 26.6339 72.033C26.5313 71.9987 26.3944 71.9645 26.2234 71.9303C26.0523 71.8961 25.8813 71.8277 25.7103 71.7935C25.5392 71.7251 25.334 71.6909 25.1287 71.6225C24.9235 71.554 24.7524 71.4856 24.6156 71.4172L26.1892 64.9861C26.326 64.9861 26.4628 65.0203 26.5997 65.0203C26.7707 65.0545 26.9075 65.0545 27.1128 65.0887C27.2838 65.1229 27.4549 65.1571 27.6601 65.1913C27.8312 65.2255 28.0364 65.2597 28.2074 65.3282C28.5153 65.3966 28.789 65.4992 29.0627 65.6018C29.3363 65.7045 29.5758 65.8755 29.781 66.0465C29.9863 66.2176 30.1231 66.4228 30.1915 66.6623C30.2941 66.9017 30.2941 67.1754 30.1915 67.5175ZM26.9075 70.9725C27.0444 71.0067 27.2154 71.0409 27.3522 71.0409C27.4891 71.0409 27.6601 71.0067 27.7627 70.9725C27.8654 70.9383 28.0022 70.8357 28.1048 70.733C28.2074 70.6304 28.2759 70.4936 28.3101 70.3568C28.3443 70.1515 28.3443 69.9805 28.3101 69.8436C28.2759 69.7068 28.1732 69.6042 28.0706 69.5016C27.968 69.3989 27.8312 69.3305 27.6601 69.2621C27.5233 69.1937 27.3522 69.1595 27.1812 69.1253L26.5313 68.9542L26.0865 70.733C26.1208 70.7673 26.155 70.7673 26.2234 70.8015C26.2918 70.8357 26.3602 70.8357 26.4286 70.8699C26.497 70.9041 26.5655 70.9041 26.6681 70.9383C26.7707 70.9383 26.8391 70.9383 26.9075 70.9725ZM27.1812 68.0648C27.2838 68.099 27.3865 68.099 27.4891 68.1332C27.5917 68.1674 27.6943 68.1674 27.7627 68.1674C28.0022 68.1674 28.2417 68.099 28.4469 67.9964C28.6522 67.8938 28.789 67.7227 28.8574 67.4833C28.8916 67.3122 28.8916 67.1754 28.8574 67.0728C28.8232 66.9702 28.7548 66.8333 28.6864 66.7649C28.6179 66.6965 28.4811 66.5939 28.3785 66.5597C28.2417 66.4912 28.1048 66.457 27.968 66.4228C27.797 66.3886 27.6601 66.3544 27.5233 66.3202C27.3865 66.286 27.2838 66.286 27.2154 66.286L26.8049 67.9964L27.1812 68.0648Z" fill="white"/>
<path d="M33.7833 69.7752C33.7491 68.6463 33.9886 67.7911 34.4675 67.1754C34.9464 66.5596 35.6305 66.2517 36.5542 66.2175C37.0331 66.2175 37.4436 66.2859 37.8199 66.4228C38.1961 66.5938 38.4698 66.7991 38.7435 67.1069C39.0171 67.4148 39.1882 67.7569 39.2908 68.2016C39.4276 68.6121 39.496 69.091 39.496 69.6383C39.5303 70.7672 39.2908 71.6224 38.8119 72.2382C38.333 72.8539 37.6488 73.1618 36.7252 73.196C36.2463 73.196 35.8016 73.1276 35.4595 72.9907C35.0832 72.8197 34.8095 72.6144 34.5701 72.3066C34.3306 71.9987 34.1596 71.6566 34.0228 71.2119C33.8859 70.7672 33.8175 70.2883 33.7833 69.7752ZM35.1858 69.7068C35.1858 70.0488 35.22 70.3567 35.2885 70.6304C35.3569 70.904 35.4595 71.1435 35.5621 71.3487C35.699 71.554 35.8358 71.6908 36.041 71.8277C36.2121 71.9303 36.4515 71.9987 36.691 71.9987C37.1699 71.9987 37.512 71.7935 37.7514 71.4172C37.9909 71.0409 38.0935 70.4593 38.0935 69.6383C38.0935 69.2963 38.0593 69.0226 37.9909 68.7147C37.9225 68.4411 37.8541 68.2016 37.7172 67.9964C37.5804 67.7911 37.4436 67.6201 37.2383 67.5174C37.0331 67.4148 36.8278 67.3464 36.5542 67.3464C36.0752 67.3464 35.7332 67.5516 35.4937 67.9279C35.2543 68.3042 35.1516 68.92 35.1858 69.7068Z" fill="white"/>
<path d="M48.698 70.528C48.527 70.7332 48.3217 70.9042 48.0481 71.0411C47.7744 71.1779 47.4665 71.3147 47.1587 71.4174C46.7824 71.52 46.4061 71.5884 45.9956 71.5542C45.6193 71.5542 45.243 71.4516 44.9009 71.2463C44.5588 71.0753 44.251 70.7674 43.9773 70.3911C43.7036 70.0148 43.4642 69.5359 43.2931 68.9202C43.1221 68.3044 43.0195 67.7229 43.0879 67.244C43.1221 66.7651 43.2589 66.3546 43.4642 66.0125C43.6694 65.6704 43.9089 65.3968 44.2168 65.1915C44.5246 64.9863 44.8667 64.8152 45.2088 64.7126C45.5851 64.61 45.893 64.5416 46.1666 64.5073C46.4403 64.4731 46.6455 64.4731 46.8508 64.5073L46.9192 65.6362C46.7482 65.602 46.5771 65.602 46.3719 65.6362C46.1666 65.6704 45.9272 65.7046 45.6535 65.8072C45.1404 65.9441 44.7983 66.252 44.5931 66.7309C44.3878 67.2098 44.422 67.7913 44.6273 68.5439C44.7299 68.886 44.8667 69.1596 45.0035 69.4333C45.1746 69.6728 45.3456 69.878 45.5509 70.049C45.7561 70.1859 45.9956 70.2885 46.235 70.3227C46.4745 70.3569 46.7482 70.3569 47.056 70.2543C47.3297 70.1859 47.5692 70.0833 47.7402 69.9806C47.9112 69.878 48.0481 69.7412 48.1849 69.6385L48.698 70.528Z" fill="white"/>
<path d="M54.2739 61.7022L52.5977 62.6943L55.437 67.4492L54.3082 68.1334L51.4689 63.3784L49.7927 64.3705L49.1769 63.3784L53.6582 60.7102L54.2739 61.7022Z" fill="white"/>
<path d="M60.8419 58.1446L60.2604 57.4947L60.2262 57.5289L60.5683 58.4867L61.4919 62.8311L60.8077 63.5495L55.9844 58.8972L56.908 57.9394L59.542 60.4708L60.1235 61.1549L60.1578 61.1207L59.8157 60.1287L58.9605 55.8185L59.6446 55.1001L64.468 59.7524L63.5444 60.7102L60.8419 58.1446Z" fill="white"/>
<path d="M3.44074 50.2425C1.62771 45.9665 0.635681 41.28 0.635681 36.3198C0.635681 16.6502 16.6108 0.675049 36.2805 0.675049C55.9501 0.675049 71.9595 16.6502 71.9595 36.3198C71.9595 42.4089 70.4201 48.1558 67.7519 53.1844" stroke="white" stroke-opacity="0.15" stroke-width="1.02006" stroke-miterlimit="10"/>
<path d="M54.9581 22.9103H49.8611V19.1816C49.8611 18.8737 49.6217 18.6343 49.3138 18.6343H20.7501C18.8686 18.6343 17.3635 20.1394 17.3635 22.0209V45.2481C17.3635 47.1296 18.8686 48.6347 20.7501 48.6347H52.1531C54.0345 48.6347 55.5397 47.1296 55.5397 45.2481V23.4576C55.5055 23.1497 55.266 22.9103 54.9581 22.9103ZM20.7501 47.5059C19.4844 47.5059 18.4923 46.4796 18.4923 45.2481V22.0209C18.4923 20.7552 19.5186 19.7631 20.7501 19.7631H48.7665V45.2481C48.7665 46.0691 49.0743 46.8901 49.6559 47.5059H20.7501ZM54.3766 45.2481C54.3766 46.4796 53.3846 47.5059 52.1531 47.5059C50.9216 47.5401 49.8953 46.5481 49.8953 45.3166C49.8953 45.2824 49.8953 45.2824 49.8953 45.2481V24.0392H54.3766V45.2481Z" fill="white" stroke="white" stroke-width="0.255014" stroke-miterlimit="10"/>
<path d="M26.0181 22.0549C25.8129 22.0549 25.6077 22.226 25.6077 22.4654V25.5442L23.1789 22.226C23.042 22.0549 22.8026 22.0207 22.6316 22.1233C22.5289 22.1918 22.4605 22.3286 22.4605 22.4654V26.8099C22.4605 27.0493 22.6315 27.2203 22.871 27.2203H22.9052C23.1105 27.2203 23.3157 27.0493 23.3157 26.8099V23.6969L25.7103 27.0151L25.7445 27.0493C25.8129 27.1519 25.9155 27.1861 26.0524 27.1861C26.2918 27.1861 26.4629 27.0151 26.4629 26.7756V22.4312C26.4286 22.226 26.2576 22.0549 26.0181 22.0549Z" fill="white" stroke="white" stroke-width="0.255014" stroke-miterlimit="10"/>
<path d="M30.602 26.3652H28.5495V24.9969H30.2941C30.5336 24.9627 30.6704 24.7574 30.6362 24.518C30.602 24.3469 30.4652 24.1759 30.2941 24.1759H28.5495V22.8076H30.602C30.8414 22.8076 31.0125 22.6023 31.0125 22.3971C31.0125 22.1576 30.8414 21.9866 30.602 21.9866H28.139C27.8996 21.9866 27.7285 22.1576 27.7285 22.3971V26.8099C27.7285 27.0494 27.8996 27.2204 28.139 27.2204H30.602C30.8414 27.1862 30.9783 26.9809 30.9441 26.7415C30.9441 26.5362 30.8072 26.3994 30.602 26.3652Z" fill="white" stroke="white" stroke-width="0.255014" stroke-miterlimit="10"/>
<path d="M38.4698 22.0552C38.2646 21.9525 38.0251 22.0552 37.9225 22.2604L36.4516 25.7154L35.4937 23.4235C35.4253 23.2866 35.2885 23.184 35.1174 23.184C34.9464 23.184 34.8096 23.2866 34.7412 23.4235L33.7833 25.7154L32.2782 22.2604C32.1413 22.0552 31.9019 22.0209 31.7308 22.1236C31.594 22.2262 31.5256 22.3972 31.5598 22.5683L33.7491 26.9127C33.7491 26.9469 33.7833 26.9469 33.7833 26.9811V27.0153C33.7833 27.0153 33.7833 27.0153 33.8517 27.0153C33.886 27.0495 33.886 27.0495 33.9202 27.0495H33.9886H34.1596C34.1938 27.0495 34.1938 27.0495 34.228 27.0495L34.2964 27.0153H34.3307L34.3649 26.9811V26.9127L35.3227 24.5865L36.3147 26.9127C36.3147 26.9469 36.3147 26.9469 36.3147 26.9811V27.0153H36.3831C36.4173 27.0495 36.4173 27.0495 36.4516 27.0495H36.52H36.691H36.7594C36.7594 27.0495 36.7936 27.0495 36.8278 27.0153H36.8963V26.9811C36.8963 26.9469 36.9305 26.9469 36.9305 26.9127L38.7435 22.5683C38.7777 22.3972 38.6751 22.1578 38.4698 22.0552Z" fill="white" stroke="white" stroke-width="0.255014" stroke-miterlimit="10"/>
<path d="M43.8747 24.9628C43.7037 24.6891 43.43 24.4839 43.1221 24.3471C42.7801 24.2102 42.438 24.0734 42.0959 24.005C41.7538 23.9708 41.4459 23.8339 41.1723 23.6629C41.1039 23.6287 41.0355 23.5603 40.967 23.4577C40.9328 23.3892 40.8986 23.3208 40.8986 23.2524C40.8986 23.0472 41.0012 22.8761 41.1723 22.7735C41.4117 22.6025 41.7196 22.4998 41.9933 22.534C42.438 22.534 42.8827 22.7051 43.1906 23.013C43.3616 23.1156 43.5669 23.0814 43.7037 22.9445C43.7037 22.9445 43.7037 22.9103 43.7379 22.9103C43.8405 22.7393 43.8063 22.4998 43.6353 22.3972C43.1906 22.0209 42.609 21.8157 41.9933 21.8157C41.5486 21.8157 41.0697 21.9525 40.6934 22.2262C40.3171 22.4656 40.1118 22.8761 40.1118 23.3208C40.1118 23.5261 40.1802 23.7313 40.2829 23.9366C40.4539 24.176 40.6934 24.3813 40.967 24.5181C41.2749 24.6549 41.5828 24.7576 41.9249 24.7918C42.3011 24.8602 42.6432 24.9628 42.9511 25.1339C43.0537 25.2023 43.1221 25.2707 43.1906 25.3733C43.2248 25.4417 43.259 25.5101 43.259 25.6128C43.259 25.818 43.1221 26.0233 42.9511 26.1601C42.6774 26.3311 42.3696 26.4338 42.0275 26.4338C41.5144 26.3996 41.0012 26.1943 40.5907 25.8522C40.4197 25.7154 40.1802 25.7496 40.0434 25.9206C39.9066 26.0917 39.9408 26.3311 40.1118 26.468C40.6592 26.9127 41.3091 27.1863 42.0275 27.2205C42.5064 27.2205 43.0195 27.0837 43.3958 26.81C43.7721 26.5364 44.0116 26.1259 44.0458 25.647C44.0458 25.3733 43.9773 25.1681 43.8747 24.9628Z" fill="white" stroke="white" stroke-width="0.255014" stroke-miterlimit="10"/>
<path d="M44.422 28.9651H21.9474C21.6395 28.9651 21.4 29.2045 21.4 29.5124C21.4 29.8203 21.6395 30.0597 21.9474 30.0597H44.3878C44.6957 30.0597 44.9352 29.8203 44.9352 29.5124C44.9694 29.2388 44.7299 28.9651 44.422 28.9651Z" fill="white" stroke="white" stroke-width="0.255014" stroke-miterlimit="10"/>
<path d="M41.9249 33.4805H21.9474C21.6395 33.4805 21.4 33.7199 21.4 34.0278C21.4 34.3357 21.6395 34.5751 21.9474 34.5751H41.9249C42.2327 34.5751 42.4722 34.3357 42.4722 34.0278C42.4722 33.7199 42.2327 33.4805 41.9249 33.4805Z" fill="white" stroke="white" stroke-width="0.255014" stroke-miterlimit="10"/>
<path d="M41.9249 36.3882H21.9474C21.6395 36.3882 21.4 36.6276 21.4 36.9355C21.4 37.2434 21.6395 37.4828 21.9474 37.4828H41.9249C42.2327 37.4828 42.4722 37.2434 42.4722 36.9355C42.4722 36.6276 42.2327 36.3882 41.9249 36.3882Z" fill="white" stroke="white" stroke-width="0.255014" stroke-miterlimit="10"/>
<path d="M41.9249 39.2617H21.9474C21.6395 39.2617 21.4 39.5012 21.4 39.809C21.4 40.1169 21.6395 40.3564 21.9474 40.3564H41.9249C42.2327 40.3564 42.4722 40.1169 42.4722 39.809C42.4722 39.5012 42.2327 39.2617 41.9249 39.2617Z" fill="white" stroke="white" stroke-width="0.255014" stroke-miterlimit="10"/>
<path d="M41.9249 42.1353H21.9474C21.6395 42.1353 21.4 42.3747 21.4 42.6826C21.4 42.9905 21.6395 43.2299 21.9474 43.2299H41.9249C42.2327 43.2299 42.4722 42.9905 42.4722 42.6826C42.4722 42.3747 42.2327 42.1353 41.9249 42.1353Z" fill="white" stroke="white" stroke-width="0.255014" stroke-miterlimit="10"/>
</svg>
