<svg width="100" height="100" viewBox="0 0 100 100" fill="none" xmlns="http://www.w3.org/2000/svg">
<circle cx="50" cy="50" r="50" fill="#E25D40"/>
<path d="M16.5755 60.2471C16.7811 60.1452 16.9866 60.1113 17.1579 60.0773C17.3292 60.0433 17.5347 60.0773 17.706 60.1113C17.8772 60.1452 18.0485 60.2132 18.2198 60.2811C18.3911 60.349 18.5281 60.4509 18.6994 60.5868C18.7679 60.2132 18.8706 59.9075 19.0419 59.6357C19.2132 59.364 19.453 59.1602 19.8298 58.9904C20.0696 58.8885 20.2751 58.8545 20.5149 58.8206C20.7547 58.8206 20.9945 58.8545 21.2 58.9564C21.4055 59.0583 21.6111 59.1942 21.8166 59.398C21.9879 59.6018 22.1592 59.8395 22.2962 60.1113C22.3989 60.383 22.5017 60.6208 22.5017 60.8585C22.536 61.0963 22.5017 61.3341 22.4675 61.5379C22.4332 61.7417 22.2962 61.9455 22.1592 62.1153C22.0221 62.2851 21.8166 62.421 21.6111 62.5229C21.2685 62.6587 20.926 62.7267 20.6177 62.6927C20.3094 62.6587 20.0011 62.5229 19.6585 62.3191C19.6243 62.7606 19.4872 63.1343 19.3502 63.406C19.1789 63.6777 18.9049 63.9155 18.5281 64.0853C18.2541 64.1872 18.0143 64.2552 17.7402 64.2552C17.5004 64.2552 17.2264 64.1872 17.0209 64.0853C16.7811 63.9834 16.5755 63.8136 16.37 63.6098C16.1645 63.406 16.0275 63.1682 15.8904 62.8625C15.7534 62.5568 15.6849 62.2851 15.6506 62.0134C15.6164 61.7417 15.6506 61.5039 15.7192 61.2661C15.7877 61.0284 15.8904 60.8246 16.0617 60.6547C16.1302 60.4849 16.3358 60.349 16.5755 60.2471ZM17.9458 62.9984C18.0828 62.9305 18.1855 62.8625 18.2541 62.7267C18.3226 62.6248 18.3911 62.4889 18.4596 62.353C18.4938 62.2172 18.5281 62.0474 18.5623 61.9115C18.5966 61.7417 18.5966 61.6058 18.5966 61.436C18.3226 61.2322 18.0485 61.1303 17.843 61.0963C17.6032 61.0623 17.3977 61.0963 17.2264 61.1982C16.9866 61.3001 16.8153 61.4699 16.7468 61.7077C16.644 61.9454 16.6783 62.1832 16.7811 62.4889C16.8838 62.7606 17.0551 62.9305 17.2606 63.0324C17.4662 63.1343 17.706 63.1003 17.9458 62.9984ZM20.2751 60.0773C20.1381 60.1452 20.0353 60.2132 19.9326 60.3151C19.8641 60.417 19.7955 60.5189 19.7613 60.6547C19.727 60.7906 19.6928 60.9265 19.6928 61.0623C19.6928 61.1982 19.6585 61.3341 19.6585 61.5039C20.1038 61.7077 20.5149 61.7417 20.8575 61.6058C21.0972 61.5039 21.2685 61.3341 21.3028 61.1303C21.3713 60.9265 21.337 60.7227 21.2685 60.5189C21.1658 60.2471 20.9945 60.1113 20.8232 60.0433C20.6177 60.0094 20.4464 60.0094 20.2751 60.0773Z" fill="white"/>
<path d="M21.9879 66.8703C22.9127 66.157 23.7349 65.7494 24.42 65.7155C25.1051 65.6815 25.6874 65.9532 26.167 66.5307C26.6808 67.1421 26.8179 67.7874 26.6123 68.4328C26.4068 69.0781 25.8245 69.7575 24.8996 70.5047C23.9747 71.218 23.1525 71.6256 22.4674 71.6596C21.7481 71.6935 21.1657 71.4218 20.7204 70.8444C20.2408 70.233 20.1038 69.5876 20.3436 68.9083C20.5834 68.229 21.0972 67.5497 21.9879 66.8703ZM22.7415 67.8554C22.1249 68.3309 21.7138 68.7724 21.474 69.18C21.2342 69.5876 21.2685 69.9273 21.5083 70.233C21.7481 70.5387 22.0564 70.6066 22.4674 70.5047C22.8785 70.4028 23.4266 70.0971 24.0774 69.5537C24.694 69.0781 25.1051 68.6366 25.3449 68.2629C25.5847 67.8893 25.5504 67.5157 25.3106 67.21C25.0708 66.9043 24.7625 66.8024 24.3172 66.9383C23.9404 67.0062 23.3923 67.3459 22.7415 67.8554Z" fill="white"/>
<path d="M27.6398 73.1882C28.3591 72.2711 29.0442 71.6937 29.7293 71.4899C30.3802 71.2861 31.031 71.4219 31.6134 71.8635C32.2642 72.339 32.5383 72.9164 32.504 73.5958C32.4698 74.2751 32.093 75.0903 31.3393 76.0074C30.62 76.9245 29.9349 77.5019 29.2498 77.7057C28.5647 77.9095 27.9481 77.8076 27.3315 77.332C26.6806 76.8565 26.4066 76.2451 26.4751 75.5658C26.5779 74.8865 26.9547 74.0713 27.6398 73.1882ZM28.6332 73.9354C28.1536 74.5468 27.8453 75.0903 27.7425 75.4979C27.6055 75.9394 27.7083 76.2791 28.0166 76.5169C28.3249 76.7546 28.6674 76.7546 29.0442 76.5508C29.421 76.347 29.8664 75.9055 30.3802 75.2601C30.8598 74.6487 31.1338 74.1392 31.2708 73.6977C31.4079 73.2561 31.3051 72.9164 30.9625 72.6787C30.6542 72.4409 30.3117 72.4409 29.9349 72.6447C29.5581 72.8485 29.1127 73.2901 28.6332 73.9354Z" fill="white"/>
<path d="M45.0417 81.1022L45.4527 79.8454H45.3842L44.7676 80.7965L42.8493 82.9364L42.4383 82.8345L41.4791 80.0832L41.2736 78.9623H41.2393L41.1708 80.287L40.4515 83.6836L39.2183 83.4119L40.5885 76.8904L41.7532 77.1281L42.8836 80.4568L43.0206 81.272H43.0549L43.5002 80.5587L45.7953 77.9433L46.96 78.1811L45.5898 84.7026L44.288 84.4309L45.0417 81.1022Z" fill="white"/>
<path d="M54.3933 81.8495L51.9611 82.0533L52.2009 84.8385L50.8992 84.9404L50.3169 78.317L51.6186 78.2151L51.8584 80.9324L54.2905 80.7286L54.0507 78.0113L55.3524 77.9094L55.9348 84.4989L54.6331 84.6008L54.3933 81.8495Z" fill="white"/>
<path d="M58.6753 77.0942L62.4091 75.7695L62.7859 76.8564L60.2853 77.7396L60.7991 79.2001L63.0942 78.3849L63.5053 79.4718L61.2102 80.287L61.7583 81.8155L64.3274 80.8984L64.7385 81.9853L60.9361 83.344L58.6753 77.0942Z" fill="white"/>
<path d="M70.6993 75.4298L68.6782 76.7885L70.254 79.0982L69.1578 79.8454L65.3555 74.3429L66.4516 73.5957L67.9931 75.8374L70.0142 74.4788L68.4727 72.237L69.5689 71.4897L73.3712 76.9923L72.275 77.7395L70.6993 75.4298Z" fill="white"/>
<path d="M76.865 68.1611L76.2484 67.5497L76.2142 67.5837L76.6252 68.5007L77.8584 72.7465L77.2418 73.4938L72.1035 69.214L72.9599 68.229L75.7688 70.5387L76.3854 71.1841L76.4197 71.1501L76.0086 70.1991L74.8439 65.9872L75.4605 65.24L80.5988 69.5197L79.7424 70.5048L76.865 68.1611Z" fill="white"/>
<path d="M76.4881 59.9073C76.6936 59.9752 76.8649 59.9413 76.9676 59.8733C77.1047 59.8054 77.2074 59.6695 77.2759 59.4997C77.4472 59.1261 77.3787 58.8204 77.0361 58.6166L77.6185 57.7335C77.961 57.9712 78.1666 58.243 78.2008 58.5826C78.2351 58.9223 78.1666 59.3299 77.961 59.8054C77.8583 60.0432 77.7555 60.247 77.6185 60.4508C77.4815 60.6206 77.3444 60.7904 77.2074 60.8923C77.0704 60.9942 76.8991 61.0961 76.7278 61.1301C76.5566 61.164 76.351 61.1641 76.1455 61.0961L76.4881 59.9073ZM81.4893 60.1111L80.7357 59.7035L80.7015 59.7375L81.3523 60.5187L83.7159 64.255L83.3391 65.1381L77.2074 62.4548L77.7555 61.266L81.1125 62.7265L81.9004 63.1681L81.9347 63.1001L81.2838 62.2849L78.9887 58.5487L79.3998 57.6655L85.5315 60.3489L84.9834 61.5377L81.4893 60.1111Z" fill="white"/>
<path d="M15.7194 55.5597C15.2398 53.25 15 50.8724 15 48.3928C15 28.8622 30.9972 13 50.694 13C70.3909 13 86.4223 28.8622 86.4223 48.3928C86.4223 50.3629 86.2511 52.265 85.9428 54.1331" stroke="white" stroke-opacity="0.15" stroke-width="1.5" stroke-miterlimit="10"/>
<path d="M60.4567 49.7175C60.4225 51.212 60.4225 58.7186 60.4567 63.2021C60.4567 63.4059 60.354 63.6437 60.2169 63.7796C60.0457 63.9494 59.8744 64.0173 59.6346 64.0173H59.6003C59.155 64.0173 58.7782 63.6437 58.7782 63.2021C58.744 60.8924 58.744 57.8355 58.7782 55.2201H40.2461C40.2461 57.8355 40.2803 60.9264 40.2461 63.2021C40.2461 63.6437 39.8693 64.0173 39.424 64.0173H39.3897C39.1157 64.0173 38.8759 63.9154 38.7046 63.6777C38.6018 63.5418 38.5676 63.372 38.5676 63.1682C38.6018 58.6506 38.5333 51.212 38.5333 49.7175C37.2659 44.3169 37.951 42.5846 38.0195 42.4148C38.1565 42.1091 38.4648 41.9053 38.7731 41.9053H41.6848V39.2899C41.6848 38.8144 42.0616 38.4407 42.5412 38.4407H43.055L48.7414 29.9152C48.7414 29.8812 48.7071 29.8133 48.7071 29.7454V28.1829H43.9799C43.8086 28.1829 43.7059 27.9791 43.8086 27.8433L44.9733 26.2468C45.0076 26.1789 45.0076 26.0431 44.9733 25.9751L43.8429 24.6844C43.7401 24.5485 43.8086 24.3447 43.9799 24.3447H48.6729V23.6654C48.6729 23.2578 48.9469 22.9182 49.3237 22.8163C49.8376 22.7144 50.3171 23.122 50.3171 23.6314V29.7454C50.3171 29.8473 50.2829 29.9492 50.2829 30.0171L55.8665 38.4407H56.5516C56.7572 38.4407 56.9969 38.5426 57.134 38.7125C57.3052 38.8823 57.3737 39.0861 57.3737 39.2899V41.9053H60.2854C60.628 41.9053 60.9363 42.1091 61.0733 42.4487C61.2446 42.6525 61.7242 44.3848 60.4567 49.7175ZM59.6689 43.5696H57.271V46.0152C57.271 46.3888 56.9627 46.7285 56.5516 46.7285H54.7018C54.2908 46.7285 53.9482 46.3888 53.9482 45.9812V43.5696H51.1393V46.0152C51.1393 46.3888 50.831 46.7285 50.4199 46.7285H48.5701C48.1248 46.7285 47.7823 46.3888 47.7823 45.9473V43.5696H45.1446V46.0152C45.1446 46.3888 44.8363 46.7285 44.4252 46.7285H42.5754C42.1644 46.7285 41.8218 46.3888 41.8218 45.9812V43.5696H39.4582C39.3897 44.249 39.3554 46.0152 40.1776 49.4118C40.2118 49.4458 40.2118 49.5137 40.2118 49.6156C40.2118 49.6156 40.2118 49.7175 40.2118 49.8874H58.881C58.881 49.7855 58.881 49.7175 58.881 49.6836C58.881 49.6156 58.881 49.5137 58.9152 49.4798C59.4976 46.9323 59.7374 44.9623 59.6689 43.5696ZM43.3976 41.9053H49.495C49.495 41.9053 49.495 41.9053 49.5293 41.9053H55.7637V40.1051H43.3976V41.9053ZM43.2606 45.3359H43.7744V43.5696H43.2606V45.3359ZM49.221 45.3359H49.7348V43.5696H49.5293C49.5293 43.5696 49.5293 43.5696 49.495 43.5696H49.1867V45.3359H49.221ZM55.8665 43.5696H55.3527V45.3359H55.8665V43.5696ZM54.0167 38.4407L49.495 31.6475L44.9733 38.4407H54.0167ZM40.2461 53.3859H58.7782C58.7782 52.7405 58.7782 52.1291 58.7782 51.6196H40.2118C40.2461 52.1291 40.2461 52.7405 40.2461 53.3859Z" fill="white"/>
<path d="M49.3923 58.0054C45.7955 58.0054 42.8838 61.0284 42.8838 64.7307C42.8838 65.2402 43.0208 65.6478 43.5346 65.6478C44.0485 65.6478 44.4595 65.2402 44.4595 64.7307C44.4595 62.0474 46.8231 59.5678 49.3923 59.5339C52.167 59.4999 54.3251 62.0474 54.3251 64.7307C54.3251 65.2402 54.7361 65.6478 55.25 65.6478C55.7638 65.6478 55.9008 65.2402 55.9008 64.7307C55.9351 61.0623 52.9891 58.0054 49.3923 58.0054Z" fill="white"/>
</svg>
