<svg width="101" height="101" viewBox="0 0 101 101" fill="none" xmlns="http://www.w3.org/2000/svg">
<path d="M24.8195 76.3521C24.5812 76.3178 24.3089 76.181 24.0706 76.01C23.7982 75.8389 23.5599 75.5995 23.3216 75.36C23.0493 75.0864 22.811 74.7443 22.6748 74.4022C22.5046 74.0601 22.4365 73.6838 22.4365 73.3075C22.4365 72.9312 22.5387 72.5208 22.7429 72.076C22.9472 71.6656 23.2876 71.2208 23.7301 70.7761C24.2067 70.3314 24.6493 69.9894 25.0918 69.8183C25.5344 69.6473 25.9429 69.5789 26.3514 69.5789C26.7599 69.6131 27.1004 69.6815 27.4408 69.8867C27.7812 70.0578 28.0535 70.263 28.3259 70.5367C28.5982 70.8103 28.8025 71.0498 28.9387 71.2893C29.0748 71.5287 29.177 71.6998 29.2791 71.8708L28.2918 72.4523C28.2238 72.2813 28.1557 72.1445 28.0535 71.9734C27.9514 71.8024 27.7812 71.6313 27.5769 71.4261C27.2025 71.0498 26.794 70.8788 26.2833 70.913C25.8067 70.9472 25.2621 71.2208 24.6833 71.8024C24.445 72.0418 24.2408 72.2813 24.0706 72.555C23.9344 72.7944 23.8323 73.0681 23.7982 73.3075C23.7642 73.547 23.7982 73.8207 23.8663 74.0601C23.9344 74.2996 24.1046 74.539 24.3089 74.7443C24.5131 74.9495 24.6833 75.1206 24.8876 75.2232C25.0578 75.3258 25.228 75.3942 25.3982 75.4284L24.8195 76.3521Z" fill="white"/>
<path d="M29.6196 76.3863C30.1983 75.4285 30.8451 74.8128 31.5941 74.5733C32.309 74.2997 33.092 74.4365 33.8409 74.9154C34.2494 75.1549 34.5558 75.4627 34.76 75.7706C34.9643 76.1127 35.1005 76.4548 35.1345 76.831C35.1686 77.2073 35.1345 77.6178 34.9983 78.0283C34.8622 78.4388 34.692 78.8835 34.4196 79.3282C33.8409 80.2861 33.1941 80.9018 32.4451 81.1413C31.6962 81.3807 30.9473 81.2781 30.1983 80.7992C29.7898 80.5597 29.4834 80.2518 29.2451 79.9098C29.0068 79.5677 28.9047 79.2256 28.8707 78.8493C28.8366 78.473 28.8707 78.0625 29.0068 77.652C29.143 77.2415 29.3473 76.831 29.6196 76.3863ZM30.7771 77.1047C30.6068 77.3784 30.4707 77.6862 30.3686 77.9599C30.2664 78.2336 30.2324 78.473 30.1983 78.7125C30.1983 78.9519 30.2324 79.1572 30.3345 79.3624C30.4366 79.5677 30.5728 79.7045 30.8111 79.8414C31.2196 80.0808 31.5941 80.115 32.0026 79.944C32.4111 79.7729 32.8196 79.3282 33.2622 78.6441C33.4324 78.3704 33.5686 78.0967 33.6707 77.8231C33.7728 77.5494 33.8409 77.31 33.8409 77.0705C33.8409 76.831 33.8068 76.6258 33.7047 76.4205C33.6026 76.2153 33.4324 76.0443 33.2281 75.9074C32.8196 75.668 32.4451 75.6338 32.0026 75.8048C31.6281 75.9758 31.2196 76.4205 30.7771 77.1047Z" fill="white"/>
<path d="M39.1177 77.6862L43.0667 78.8492L42.7262 79.9781L40.0369 79.1913L39.6624 80.5254C39.7645 80.5254 39.9007 80.5596 40.0709 80.5938C40.2411 80.628 40.3773 80.6623 40.5135 80.6965C40.8539 80.7991 41.1603 80.9359 41.4326 81.0728C41.705 81.2096 41.9092 81.4148 42.0794 81.6201C42.2496 81.8253 42.3518 82.099 42.3858 82.3727C42.4199 82.6463 42.3858 82.9884 42.2837 83.3647C42.1816 83.741 42.0454 84.0146 41.8411 84.2541C41.6369 84.4936 41.3986 84.6646 41.1262 84.7672C40.8539 84.8698 40.5475 84.9383 40.2071 84.9383C39.8667 84.9383 39.4922 84.8698 39.1177 84.7672C39.0156 84.733 38.8794 84.6988 38.7433 84.6304C38.573 84.562 38.4369 84.5278 38.2667 84.4594C38.0965 84.3909 37.9262 84.3225 37.756 84.2541C37.5858 84.1857 37.4496 84.1173 37.3135 84.0489L39.1177 77.6862ZM39.4922 83.7068C39.6624 83.741 39.7986 83.7752 39.9688 83.7752C40.105 83.7752 40.2411 83.741 40.3773 83.7068C40.5135 83.6726 40.6156 83.5699 40.7177 83.4673C40.8199 83.3647 40.8879 83.2279 40.956 83.0226C41.0241 82.8174 41.0241 82.6121 40.9901 82.4753C40.956 82.3385 40.8879 82.2016 40.8199 82.099C40.7177 81.9964 40.6156 81.8937 40.4794 81.8253C40.3433 81.7569 40.173 81.6885 40.0028 81.6543C39.9007 81.6201 39.7986 81.6201 39.6624 81.5859C39.5262 81.5517 39.4241 81.5517 39.3901 81.5517L38.8454 83.4673C38.9135 83.5015 39.0156 83.5357 39.1518 83.6042C39.2199 83.6384 39.356 83.6726 39.4922 83.7068Z" fill="white"/>
<path d="M46.4365 79.5333L47.7301 79.4991L47.7642 81.8936C47.8323 81.8936 47.9344 81.8594 48.1046 81.8252C48.2408 81.791 48.411 81.791 48.5472 81.791C48.8535 81.791 49.1599 81.8252 49.4663 81.8594C49.7727 81.9278 50.011 82.0305 50.2152 82.2015C50.4195 82.3726 50.6238 82.5778 50.7259 82.8515C50.8621 83.1251 50.9301 83.4672 50.9301 83.9119C50.9301 84.6987 50.7259 85.2802 50.2833 85.6565C49.8408 86.067 49.1599 86.2381 48.2748 86.2723C48.1727 86.2723 48.0706 86.2723 47.9344 86.2723C47.7982 86.2723 47.628 86.2723 47.4918 86.2723C47.3216 86.2723 47.1514 86.2381 46.9812 86.2381C46.811 86.2381 46.6408 86.2039 46.5046 86.1696L46.4365 79.5333ZM48.377 85.1434C48.7514 85.1434 49.0238 85.0408 49.2621 84.8697C49.5004 84.6987 49.6025 84.425 49.6025 84.0145C49.6025 83.8093 49.5684 83.6382 49.5004 83.5014C49.4323 83.3646 49.3301 83.262 49.228 83.1935C49.1259 83.1251 48.9897 83.0567 48.8535 83.0567C48.7174 83.0567 48.5472 83.0225 48.377 83.0225C48.2748 83.0225 48.1727 83.0225 48.0706 83.0567C47.9344 83.0909 47.8663 83.0909 47.7982 83.1251L47.8323 85.1434C47.9004 85.1776 48.0025 85.1776 48.0706 85.1776C48.1727 85.1434 48.2748 85.1434 48.377 85.1434ZM51.5769 79.4649L52.8706 79.4307L52.9727 86.1354L51.6791 86.1696L51.5769 79.4649Z" fill="white"/>
<path d="M61.0752 78.644L59.2028 79.1913L60.7347 84.4936L59.4752 84.8699L57.9432 79.5676L56.0709 80.115L55.7305 78.9861L60.7347 77.5151L61.0752 78.644Z" fill="white"/>
<path d="M68.2919 76.8309L67.9174 76.0441L67.8834 76.0783L67.9855 77.0704L67.7813 81.5174L66.9302 82.0305L63.4238 76.3178L64.5472 75.6336L66.4536 78.7466L66.8281 79.5676L66.8621 79.5334L66.76 78.5071L66.9983 74.1285L67.8153 73.6154L71.3217 79.3281L70.1983 80.0123L68.2919 76.8309Z" fill="white"/>
<path d="M78.2668 72.8286L77.3817 73.7864L75.4753 71.9734L75.1349 72.5891L75.9859 75.2916L74.9306 76.3862L74.2498 73.8548L74.3519 73.1707C74.1817 73.2733 73.9774 73.3759 73.7732 73.4443C73.5689 73.5128 73.3647 73.5128 73.1604 73.5128C72.9562 73.5128 72.7179 73.4443 72.5136 73.3417C72.3094 73.2391 72.0711 73.1023 71.8668 72.897C71.5604 72.6234 71.3902 72.3497 71.2881 72.0418C71.186 71.7682 71.1519 71.4603 71.22 71.1524C71.254 70.8445 71.3902 70.5709 71.5604 70.263C71.7306 69.9551 71.9689 69.6473 72.2413 69.3736C72.3094 69.3052 72.4115 69.2026 72.5136 69.0999C72.6157 68.9973 72.7179 68.8947 72.82 68.7921C72.9221 68.6894 73.0583 68.5868 73.1604 68.5184C73.2625 68.45 73.3647 68.3473 73.4668 68.2789L78.2668 72.8286ZM72.9562 70.2972C72.854 70.434 72.7519 70.5367 72.6498 70.6735C72.5817 70.8103 72.5136 70.9472 72.4796 71.084C72.4455 71.2208 72.4796 71.3577 72.5136 71.4945C72.5477 71.6313 72.6838 71.7682 72.82 71.9392C72.9562 72.076 73.0923 72.1786 73.2625 72.2129C73.3987 72.2471 73.5349 72.2813 73.7051 72.2471C73.8413 72.2129 73.9774 72.1787 74.1136 72.076C74.2498 71.9734 74.3859 71.8708 74.4881 71.7682L74.8285 71.4261L73.3306 69.9893C73.2625 70.0235 73.2285 70.092 73.1604 70.1262C73.0923 70.1262 73.0242 70.1946 72.9562 70.2972Z" fill="white"/>
<path d="M64.5134 57.5718C64.4454 57.1613 64.0709 56.8877 63.6624 56.9561C59.1688 57.7086 54.573 57.8455 50.0113 57.4008C45.4836 56.9561 40.99 55.8956 36.7347 54.2878C36.3602 54.151 35.9177 54.3221 35.7815 54.7325C35.6453 55.1088 35.8156 55.5535 36.2241 55.6904C36.5645 55.8272 36.939 55.964 37.2794 56.0667L38.607 62.1899C38.6751 62.4636 38.8794 62.6688 39.1517 62.7372C39.2198 62.7714 39.2879 62.7714 39.356 62.7714C39.5602 62.7714 39.7645 62.703 39.9007 62.532L44.19 57.9823C44.9049 58.1191 45.6539 58.2902 46.3688 58.3928L48.7177 64.174C48.8198 64.4476 49.0581 64.6187 49.3305 64.6529C49.3645 64.6529 49.3645 64.6529 49.3985 64.6529C49.6368 64.6529 49.8751 64.516 50.0113 64.3108L53.4496 59.077C54.0283 59.1112 54.573 59.1112 55.1517 59.1112C55.3219 59.1112 55.4922 59.1112 55.6964 59.1112L59.0326 64.4134C59.1688 64.6187 59.4071 64.7555 59.6794 64.7555C59.7134 64.7555 59.7134 64.7555 59.7475 64.7555C60.0198 64.7213 60.2581 64.5503 60.3602 64.3108L62.8454 58.5639C63.2198 58.4954 63.5943 58.4612 63.9347 58.3928C64.3092 58.3586 64.5815 57.9823 64.5134 57.5718ZM39.7305 60.4795L38.8794 56.614C40.0368 56.9903 41.2283 57.3324 42.4198 57.606L39.7305 60.4795ZM49.5347 62.3267L48.0368 58.6665C48.6496 58.7349 49.2624 58.8033 49.8751 58.8717C50.4879 58.9401 51.1007 58.9743 51.7134 59.0086L49.5347 62.3267ZM59.5092 62.4294L57.3985 59.077C58.6241 59.0086 59.8496 58.9401 61.0751 58.8033L59.5092 62.4294Z" fill="white"/>
<path d="M68.3262 42.7941C68.156 42.4178 67.7135 42.2467 67.339 42.4178C66.8284 42.6572 66.3177 42.8625 65.8071 43.0677C65.7731 43.0677 65.739 43.1019 65.705 43.1019C63.8326 43.8545 61.9262 44.5045 60.0199 45.0518C59.9858 45.0518 59.9177 45.086 59.8837 45.086C58.9645 45.3255 58.0454 45.5649 57.1262 45.7702C57.0922 45.7702 57.0241 45.7702 56.9901 45.8044C55.0156 46.2149 53.0411 46.5227 51.0326 46.728C50.9986 46.728 50.9645 46.728 50.9645 46.728C50.4879 46.7622 50.0114 46.7964 49.5007 46.8306C49.0241 46.8648 48.5475 46.899 48.0709 46.899C48.0369 46.899 48.0028 46.899 48.0028 46.899C45.9943 46.9674 43.9858 46.9332 41.9773 46.7622C41.9433 46.7622 41.8752 46.7622 41.8411 46.7622C40.8879 46.6938 39.9348 46.5912 39.0156 46.4543C38.9816 46.4543 38.9135 46.4543 38.8794 46.4201C36.905 46.1465 34.9305 45.736 32.9901 45.2228C32.956 45.2228 32.922 45.1886 32.8879 45.1886C32.3433 45.0518 31.7986 44.8808 31.2879 44.7439C30.8794 44.6413 30.4709 44.8465 30.3688 45.257C30.2667 45.6675 30.4709 46.078 30.8794 46.1807C31.322 46.3175 31.7305 46.4201 32.1731 46.5569L33.9433 52.5434C34.0114 52.817 34.2496 53.0223 34.522 53.0565C34.556 53.0565 34.6241 53.0565 34.6582 53.0565C34.8965 53.0565 35.1007 52.9539 35.2369 52.7828L39.1858 47.9253C39.9348 48.0279 40.6497 48.0963 41.3986 48.1647L44.1901 53.7406C44.3262 53.9801 44.5645 54.1511 44.8369 54.1511C45.1092 54.1511 45.3475 54.0143 45.4837 53.7748L48.5135 48.3016C48.8879 48.3016 49.2624 48.2674 49.6369 48.2331C50.0114 48.1989 50.3858 48.1647 50.7603 48.1647L54.4709 53.1933C54.6071 53.3986 54.8454 53.5012 55.0837 53.5012C55.1177 53.5012 55.1518 53.5012 55.1858 53.5012C55.4582 53.467 55.6965 53.2617 55.7645 53.0223L57.8071 47.1043C58.522 46.9332 59.2709 46.7622 59.9858 46.5569L64.5135 50.8672C64.6496 51.004 64.8539 51.0724 65.0241 51.0724C65.0922 51.0724 65.1943 51.0724 65.2624 51.0382C65.5348 50.9356 65.705 50.7303 65.7731 50.4567L66.7603 44.265C67.1688 44.094 67.5773 43.9229 67.9858 43.7177C68.3262 43.6151 68.4965 43.1704 68.3262 42.7941ZM34.9305 50.7987L33.8071 47.0017C34.9986 47.2753 36.1901 47.5148 37.4156 47.72L34.9305 50.7987ZM44.8369 51.8934L43.0667 48.37C44.0539 48.4384 45.0752 48.4384 46.0624 48.4384C46.3007 48.4384 46.505 48.4384 46.7433 48.4384L44.8369 51.8934ZM54.7773 51.2435L52.4284 48.0621C53.6539 47.9253 54.8454 47.72 56.0709 47.5148L54.7773 51.2435ZM64.4794 48.8489L61.6199 46.1465C62.7773 45.8044 63.9688 45.3939 65.0922 44.9492L64.4794 48.8489Z" fill="white"/>
<path d="M68.9048 32.771C68.8027 32.3605 68.4282 32.1211 68.0197 32.1895C62.0282 33.4894 55.8665 33.9683 49.7729 33.6605C43.6452 33.3526 37.5856 32.2237 31.7644 30.3081C31.3559 30.1712 30.9473 30.4107 30.8112 30.787C30.675 31.1975 30.9133 31.608 31.2878 31.7448C31.7984 31.9158 32.309 32.0869 32.8537 32.2237L35.0324 40.4679C35.1005 40.7415 35.3048 40.9468 35.5771 41.0152C35.6452 41.0152 35.6793 41.0494 35.7473 41.0494C35.9516 41.0494 36.1559 40.9468 36.3261 40.7757L41.875 34.3446C42.9303 34.5157 44.0197 34.6867 45.109 34.7893L48.6835 42.5203C48.7856 42.7598 49.058 42.9308 49.3303 42.965H49.3644C49.6367 42.965 49.875 42.8282 50.0112 42.5888L54.3686 35.2682C55.458 35.2682 56.5473 35.1998 57.6027 35.1656L62.4707 42.1441C62.6069 42.3493 62.8452 42.4519 63.0835 42.4519C63.1175 42.4519 63.1516 42.4519 63.1856 42.4519C63.458 42.4177 63.6963 42.2467 63.7984 41.973L66.8282 34.0025C67.3729 33.8999 67.8835 33.7973 68.4282 33.6947C68.7346 33.592 69.0069 33.1815 68.9048 32.771ZM36.1218 38.7232L34.5218 32.7368C36.3941 33.25 38.2665 33.6947 40.1388 34.0367L36.1218 38.7232ZM49.4324 40.5705L46.8112 34.9604C47.7644 35.063 48.7175 35.1314 49.7048 35.1656C50.658 35.1998 51.6452 35.234 52.5984 35.2682L49.4324 40.5705ZM62.8452 40.0916L59.3048 34.9946C61.2112 34.8235 63.1516 34.5841 65.0239 34.2762L62.8452 40.0916Z" fill="white"/>
<path d="M17.5347 63.3872C15.7304 59.1112 14.7432 54.4247 14.7432 49.4645C14.7432 29.7949 30.641 13.8197 50.2155 13.8197C69.79 13.8197 85.7219 29.7949 85.7219 49.4645C85.7219 55.5535 84.19 61.3005 81.5347 66.3291" stroke="white" stroke-opacity="0.15" stroke-width="1.5" stroke-miterlimit="10"/>
<circle cx="50.2324" cy="50.046" r="50" fill="#E25D40"/>
<path d="M16.7192 37.2482C17.8438 37.5401 18.6481 38.0134 19.125 38.6682C19.6054 39.3195 19.7229 40.106 19.4844 41.0277C19.3599 41.5082 19.1642 41.9103 18.9044 42.2271C18.6446 42.5438 18.3278 42.7822 17.9577 42.9388C17.5876 43.0954 17.1712 43.1773 16.7121 43.1808C16.253 43.1844 15.7583 43.1168 15.2316 42.9815C14.107 42.6897 13.3063 42.2128 12.8259 41.558C12.349 40.9032 12.228 40.1167 12.4664 39.2056C12.5945 38.718 12.7867 38.3159 13.0501 37.9992C13.3099 37.6824 13.6266 37.4475 13.9967 37.291C14.3668 37.1379 14.7832 37.0561 15.2423 37.0525C15.6978 37.0454 16.1925 37.113 16.7192 37.2482ZM16.3598 38.6362C16.0181 38.5472 15.6978 38.4938 15.3953 38.4796C15.0928 38.4618 14.8259 38.4867 14.5875 38.5543C14.349 38.6184 14.1497 38.7323 13.986 38.8853C13.8223 39.0383 13.7049 39.2483 13.6408 39.5046C13.5198 39.9743 13.6088 40.3836 13.9077 40.7359C14.2067 41.0882 14.769 41.3729 15.5911 41.5865C15.9185 41.6719 16.2317 41.7253 16.5271 41.7431C16.8224 41.7609 17.0929 41.7431 17.3349 41.6826C17.5769 41.6221 17.7833 41.5153 17.9506 41.3587C18.1179 41.2021 18.2353 40.9921 18.3065 40.7217C18.4275 40.2519 18.3349 39.8391 18.0253 39.4868C17.7193 39.1273 17.1641 38.8462 16.3598 38.6362Z" fill="white"/>
<path d="M17.0641 51.8004L17.0961 49.7683L11.3379 49.6757L11.3592 48.3091L17.1174 48.4017L17.1495 46.3589L18.3666 46.3767L18.2776 51.8181L17.0641 51.8004Z" fill="white"/>
<path d="M15.2989 57.4199L15.2064 57.0747L12.3237 57.8292L11.9785 56.5088L18.7261 54.7437L19.0713 56.064L16.0819 56.8469L16.2989 57.121L19.6407 58.2349L20.0357 59.7403L16.6869 58.516L16.1851 58.0925L15.9502 58.7296L13.3665 61.8044L12.9394 60.1744L15.2989 57.4199Z" fill="white"/>
<path d="M21.2847 62.84C21.4697 63.0571 21.6548 63.3026 21.847 63.5802C22.0391 63.8578 22.2171 64.1389 22.3808 64.4308C22.5516 64.7297 22.6975 65.0464 22.8221 65.3774C22.9466 65.7084 23 66.0358 22.9929 66.3632C22.9822 66.6906 22.8897 67.0038 22.7153 67.3063C22.5374 67.6088 22.242 67.8793 21.8185 68.1177C21.4377 68.3348 21.0782 68.4523 20.7402 68.4665C20.4021 68.4807 20.0853 68.4273 19.7935 68.3028C19.5017 68.1782 19.2383 67.9967 19.0034 67.7583C18.7686 67.5198 18.5657 67.2529 18.3949 66.9504C18.3771 66.9219 18.3522 66.8757 18.3166 66.8116C18.281 66.7476 18.2454 66.68 18.2063 66.6088C18.1707 66.5376 18.1351 66.4664 18.1031 66.3988C18.071 66.3276 18.0497 66.2778 18.039 66.2458L15.95 67.4309L15.2773 66.2422L21.2847 62.84ZM21.4128 65.1034C21.3487 64.9859 21.2811 64.8792 21.2135 64.7831C21.1459 64.6834 21.0889 64.6051 21.0391 64.5482L19.0711 65.6657C19.0782 65.6906 19.0924 65.7297 19.1138 65.7796C19.1351 65.8294 19.1565 65.8792 19.1849 65.9326C19.2134 65.986 19.2383 66.0358 19.2668 66.0856C19.2953 66.1354 19.3166 66.171 19.3273 66.1924C19.4163 66.349 19.5195 66.4949 19.6334 66.6301C19.7472 66.7654 19.8789 66.8721 20.0284 66.9504C20.1779 67.0287 20.338 67.0643 20.5195 67.0572C20.6975 67.0501 20.9003 66.9825 21.1281 66.8543C21.3203 66.7476 21.4555 66.623 21.5409 66.4842C21.6263 66.3454 21.6726 66.1959 21.6833 66.0429C21.6939 65.8899 21.6726 65.7297 21.6192 65.5696C21.5658 65.4094 21.4982 65.2564 21.4128 65.1034Z" fill="white"/>
<path d="M25.5657 69.5663L26.5444 70.5165L24.8006 72.3102C24.8611 72.3529 24.9572 72.4205 25.0853 72.5166C25.2134 72.6126 25.3309 72.7159 25.4412 72.8226C25.6796 73.0539 25.8825 73.2995 26.0533 73.5593C26.2241 73.8191 26.3309 74.086 26.3736 74.3636C26.4163 74.6412 26.3878 74.933 26.2811 75.232C26.1743 75.5309 25.9679 75.8405 25.6618 76.1537C25.096 76.7338 24.5052 77.0043 23.886 76.9651C23.2667 76.926 22.6261 76.5808 21.9571 75.933C21.8895 75.869 21.8076 75.7836 21.7044 75.6804C21.6012 75.5772 21.4944 75.4597 21.3841 75.3316C21.2738 75.2035 21.1599 75.0718 21.0425 74.9295C20.925 74.7871 20.8289 74.6519 20.7471 74.5166L25.5657 69.5663ZM22.8824 75.1287C23.1528 75.3921 23.434 75.5451 23.7258 75.5807C24.0176 75.6199 24.3059 75.4918 24.5942 75.1964C24.7472 75.0398 24.8469 74.8867 24.8967 74.7408C24.9465 74.5949 24.9572 74.4526 24.9323 74.3173C24.9074 74.1821 24.8504 74.0504 24.7614 73.9223C24.6725 73.7942 24.5657 73.6696 24.434 73.5415C24.3664 73.4774 24.2846 73.4063 24.1813 73.3315C24.0781 73.2568 24.0034 73.207 23.95 73.1821L22.498 74.6768C22.5372 74.7408 22.5905 74.8156 22.6546 74.8939C22.7293 74.9722 22.8041 75.0505 22.8824 75.1287ZM29.4271 73.3173L30.4058 74.2675L25.5444 79.2677L24.5657 78.3175L29.4271 73.3173Z" fill="white"/>
<path d="M36.9669 79.5754L35.1732 78.6217L32.4721 83.7072L31.2656 83.0667L33.9668 77.9811L32.1625 77.0237L32.7319 75.949L37.5363 78.5007L36.9669 79.5754Z" fill="white"/>
<path d="M40.4563 79.6128L41.7944 79.8868L41.2926 82.3353C41.3674 82.3353 41.4848 82.3424 41.645 82.3567C41.8051 82.3709 41.9617 82.3922 42.1112 82.4207C42.435 82.4883 42.7411 82.5844 43.0222 82.709C43.3034 82.8335 43.5383 83.0044 43.7269 83.2143C43.9155 83.4243 44.0436 83.6877 44.1148 83.9973C44.186 84.3069 44.1789 84.677 44.0899 85.1076C43.9262 85.9013 43.5738 86.4493 43.0293 86.7483C42.4848 87.0472 41.7588 87.1041 40.8478 86.9155C40.7552 86.8977 40.6414 86.8693 40.499 86.8372C40.3567 86.8052 40.2036 86.7661 40.0399 86.7162C39.8762 86.67 39.709 86.6166 39.5381 86.5632C39.3673 86.5063 39.2107 86.4458 39.0684 86.3746L40.4563 79.6128ZM41.1894 85.7447C41.5595 85.8194 41.8798 85.7981 42.1468 85.6699C42.4137 85.5454 42.5881 85.282 42.6699 84.8763C42.7126 84.6628 42.7162 84.4777 42.6806 84.3283C42.645 84.1788 42.5774 84.0542 42.4848 83.951C42.3888 83.8514 42.2713 83.7695 42.129 83.709C41.9866 83.6485 41.8265 83.6023 41.6485 83.5667C41.556 83.5489 41.4492 83.5346 41.3211 83.524C41.193 83.5133 41.104 83.5133 41.0471 83.524L40.6271 85.5632C40.6947 85.5988 40.7766 85.6308 40.8762 85.6593C40.9759 85.6948 41.0791 85.7233 41.1894 85.7447ZM45.7269 80.6947L47.0651 80.9687L45.6629 87.8017L44.3248 87.5277L45.7269 80.6947Z" fill="white"/>
<path d="M54.8519 83.7765L54.8483 82.8655L54.7985 82.869L54.4177 83.8442L52.1828 87.9048L51.1614 88.0009L50.5137 81.054L51.8731 80.9259L52.2255 84.7054L52.2148 85.6485L52.2753 85.6414L52.6703 84.6342L54.9088 80.6412L55.9195 80.5487L56.5673 87.4955L55.2078 87.6237L54.8519 83.7765ZM52.4675 79.1323C52.5137 79.3422 52.6063 79.4882 52.7415 79.5664C52.8803 79.6483 53.0511 79.6768 53.254 79.659C53.6988 79.6163 53.923 79.3992 53.9337 79.0042L55.0512 79.0718C55.0156 79.4953 54.8555 79.8191 54.5672 80.0362C54.2789 80.2569 53.8625 80.3921 53.318 80.4419C53.0476 80.4668 52.7984 80.4704 52.5671 80.4526C52.3394 80.4348 52.1365 80.3885 51.9586 80.3138C51.7806 80.2391 51.6311 80.1323 51.5066 79.9899C51.382 79.8476 51.2966 79.6661 51.2504 79.4419L52.4675 79.1323Z" fill="white"/>
<path d="M67.9806 77.0254L65.8737 78.2603L68.7849 83.2285L67.6069 83.9189L64.0801 77.9009L68.5429 75.2852L72.0697 81.3031L70.8917 81.9936L67.9806 77.0254Z" fill="white"/>
<path d="M77.582 74.4561L76.0802 75.9864L76.8133 77.4455L75.8559 78.4206L72.5996 71.7086L73.3043 70.9897L80.0767 74.118L79.0731 75.1429L77.582 74.4561ZM75.5428 74.9685L76.5891 73.9009L75.1157 73.182L74.1869 72.5628L74.1513 72.5983L74.7954 73.5236L75.5428 74.9685Z" fill="white"/>
<path d="M76.7959 66.8295L78.9312 63.1034L79.9846 63.7084L78.5291 66.2494L79.7924 66.9719C79.8316 66.8651 79.8814 66.7334 79.9455 66.5839C80.0095 66.4345 80.0807 66.2886 80.159 66.1498C80.3441 65.8259 80.5469 65.5483 80.764 65.3134C80.9811 65.0786 81.2195 64.9077 81.4793 64.7974C81.7356 64.6871 82.0167 64.6479 82.3192 64.6764C82.6217 64.7049 82.9456 64.8152 83.2908 65.0145C83.6324 65.2102 83.8958 65.4344 84.0844 65.6942C84.273 65.954 84.3905 66.2352 84.4367 66.5412C84.483 66.8473 84.4652 67.1747 84.3798 67.5199C84.2944 67.8651 84.1485 68.2246 83.9385 68.5911C83.8815 68.6908 83.8104 68.8118 83.7178 68.9541C83.6289 69.0965 83.5292 69.2495 83.426 69.4061C83.3193 69.5627 83.2125 69.7193 83.1022 69.8687C82.9918 70.0218 82.8851 70.1499 82.7854 70.2602L76.7959 66.8295ZM82.9954 67.9363C83.0808 67.7868 83.1449 67.6374 83.1805 67.4843C83.2196 67.3349 83.2267 67.1889 83.2054 67.0466C83.184 66.9042 83.1306 66.7726 83.0452 66.6444C82.9598 66.5163 82.8317 66.406 82.6609 66.3099C82.458 66.1925 82.273 66.132 82.1128 66.1213C81.9527 66.1142 81.8032 66.1426 81.6715 66.2138C81.5363 66.2814 81.4188 66.3811 81.3156 66.5092C81.2124 66.6373 81.1128 66.7832 81.0202 66.9434C80.974 67.0252 80.9242 67.1284 80.8672 67.2566C80.8103 67.3847 80.7782 67.4772 80.7604 67.5306L82.5683 68.5662C82.6217 68.5128 82.6893 68.4239 82.7676 68.2957C82.8459 68.1676 82.9313 68.0537 82.9954 67.9363Z" fill="white"/>
<path d="M82.5113 56.4874L82.1305 57.9216C82.7319 58.1102 83.28 58.2846 83.7746 58.4519C84.2658 58.6156 84.7071 58.7793 85.0914 58.943C85.4793 59.1031 85.8139 59.2704 86.0986 59.4412C86.3833 59.612 86.6181 59.8007 86.8068 60C86.9313 60.1281 87.0239 60.2633 87.0915 60.4021C87.1591 60.5409 87.2054 60.6797 87.2303 60.8149C87.2552 60.9502 87.2623 61.0818 87.2552 61.2064C87.2445 61.331 87.2267 61.4448 87.2018 61.5481C87.1626 61.6975 87.1199 61.815 87.0701 61.9111C87.0203 62.0036 86.9598 62.0926 86.8922 62.178L85.7961 61.7331C85.821 61.6975 85.8388 61.6619 85.8566 61.6263C85.8744 61.5908 85.885 61.5516 85.8957 61.5125C85.9242 61.4093 85.9242 61.3025 85.8993 61.1886C85.8743 61.0747 85.8103 60.968 85.7071 60.8648C85.5932 60.7295 85.4081 60.5943 85.1519 60.4484C84.8992 60.306 84.5647 60.1494 84.1554 59.9822C83.7462 59.8149 83.2515 59.637 82.675 59.4483C82.0949 59.2597 81.4151 59.0569 80.6357 58.8327L81.6927 54.8539L88.4332 56.6475L88.0808 57.9679L82.5113 56.4874Z" fill="white"/>
<path d="M85.1946 47.2737L84.2871 47.2096V47.2594L85.2302 47.7114L89.1093 50.2489L89.1271 51.2738L82.1518 51.3877L82.1305 50.0247L85.9277 49.9642L86.8673 50.0496V49.9891L85.8922 49.5157L82.0842 46.9747L82.0664 45.9569L89.0417 45.843L89.0631 47.2096L85.1946 47.2737Z" fill="white"/>
<path d="M84.8917 39.7218L84.9913 40.067L87.8526 39.2342L88.2334 40.5438L81.5357 42.4976L81.1549 41.188L84.1194 40.3232L83.8952 40.0563L80.525 39.0349L80.0908 37.5437L83.4717 38.6755L83.9842 39.0847L84.2013 38.4406L86.6996 35.2946L87.1693 36.9103L84.8917 39.7218Z" fill="white"/>
<path d="M18.4017 32.7393L17.4551 32.2411C23.9891 19.8136 36.7618 12.0909 50.7907 12.0909C64.2502 12.0909 76.7702 19.3545 83.468 31.0418L82.5427 31.572C76.0335 20.2158 63.8694 13.1586 50.7907 13.1586C37.1604 13.1586 24.7507 20.6606 18.4017 32.7393Z" fill="white" fill-opacity="0.15"/>
<path d="M71.7705 61.8575H30.5128C30.0893 61.8575 29.7441 61.5123 29.7441 61.0888V36.5719C29.7441 36.1484 30.0893 35.8032 30.5128 35.8032H33.6446C34.0681 35.8032 34.4133 36.1484 34.4133 36.5719C34.4133 36.9955 34.0681 37.3407 33.6446 37.3407H31.2816V60.3236H71.0053V37.3371H69.532C69.1084 37.3371 68.7632 36.9919 68.7632 36.5684C68.7632 36.1449 69.1084 35.7997 69.532 35.7997H71.774C72.1975 35.7997 72.5427 36.1449 72.5427 36.5684V61.0852C72.5392 61.5123 72.194 61.8575 71.7705 61.8575Z" fill="white"/>
<path d="M51.674 61.8576C51.2505 61.8576 50.9053 61.5124 50.9053 61.0888V34.7072C50.9053 34.2837 51.2505 33.9385 51.674 33.9385C52.0975 33.9385 52.4427 34.2837 52.4427 34.7072V61.0888C52.4391 61.5124 52.0975 61.8576 51.674 61.8576Z" fill="white"/>
<path d="M34.1857 59.0283C34.0256 59.0283 33.869 58.9785 33.7337 58.8824C33.5344 58.7365 33.417 58.5087 33.417 58.2631V34.7072C33.417 34.3869 33.6163 34.0986 33.9152 33.9883C34.2818 33.8531 43.0294 30.675 51.9372 33.9883C52.3358 34.1378 52.5386 34.5791 52.3892 34.9741C52.2397 35.3727 51.7984 35.572 51.4034 35.4261C44.1896 32.7427 36.894 34.6574 34.9509 35.2624V57.256C37.2214 56.7044 43.1504 55.6296 51.2539 56.8859C51.6738 56.9499 51.9585 57.345 51.8945 57.7614C51.8304 58.1813 51.4389 58.4696 51.019 58.4019C41.129 56.8681 34.4882 58.9678 34.4206 58.9891C34.3458 59.0141 34.264 59.0283 34.1857 59.0283Z" fill="white"/>
<path d="M38.1257 40.9885C37.8802 40.9885 37.6489 40.8319 37.567 40.5863C37.4638 40.2767 37.6275 39.9422 37.9371 39.839C38.14 39.7714 42.98 38.1699 47.9197 39.839C48.2293 39.9422 48.393 40.2767 48.2898 40.5863C48.1866 40.896 47.8485 41.0597 47.5424 40.9565C42.9764 39.4119 38.3606 40.9422 38.3144 40.9565C38.2539 40.9778 38.1898 40.9885 38.1257 40.9885Z" fill="white"/>
<path d="M47.731 46.3481C47.667 46.3481 47.6029 46.3374 47.5424 46.3161C42.9907 44.7751 38.3606 46.3018 38.3144 46.3161C38.0083 46.4193 37.6702 46.2556 37.567 45.946C37.4638 45.6363 37.6275 45.3018 37.9371 45.1986C38.14 45.131 42.98 43.5295 47.9197 45.1986C48.2293 45.3018 48.393 45.6363 48.2898 45.946C48.2079 46.1951 47.9766 46.3481 47.731 46.3481Z" fill="white"/>
<path d="M47.731 51.7113C47.667 51.7113 47.6029 51.7006 47.5424 51.6792C42.9907 50.1383 38.3606 51.665 38.3144 51.6792C38.0083 51.7824 37.6702 51.6187 37.567 51.3091C37.4638 50.9995 37.6275 50.665 37.9371 50.5618C38.14 50.4941 42.98 48.8927 47.9197 50.5618C48.2293 50.665 48.393 50.9995 48.2898 51.3091C48.2079 51.5547 47.9766 51.7113 47.731 51.7113Z" fill="white"/>
<path d="M55.613 40.6256C55.3675 40.6256 55.1362 40.469 55.0543 40.2234C54.9511 39.9138 55.1148 39.5793 55.4244 39.4761C60.3641 37.8034 65.2041 39.4084 65.407 39.4761C65.7166 39.5793 65.8803 39.9138 65.7771 40.2234C65.6739 40.533 65.3358 40.6967 65.0297 40.5935C64.9835 40.5793 60.3534 39.0526 55.8017 40.5935C55.7412 40.6149 55.6771 40.6256 55.613 40.6256Z" fill="white"/>
<path d="M55.613 45.9889C55.3675 45.9889 55.1362 45.8323 55.0543 45.5867C54.9511 45.2771 55.1148 44.9426 55.4244 44.8394C60.3641 43.1703 65.2041 44.7717 65.407 44.8394C65.7166 44.9426 65.8803 45.2771 65.7771 45.5867C65.6739 45.8963 65.3358 46.06 65.0297 45.9568C64.9835 45.9426 60.3534 44.4159 55.8017 45.9568C55.7412 45.9782 55.6771 45.9889 55.613 45.9889Z" fill="white"/>
<path d="M55.613 51.3485C55.3675 51.3485 55.1362 51.1919 55.0543 50.9463C54.9511 50.6367 55.1148 50.3022 55.4244 50.199C60.3641 48.5299 65.2041 50.1314 65.407 50.199C65.7166 50.3022 65.8803 50.6367 65.7771 50.9463C65.6739 51.2559 65.3358 51.4197 65.0297 51.3164C64.9835 51.3022 60.3534 49.7755 55.8017 51.3164C55.7412 51.3414 55.6771 51.3485 55.613 51.3485Z" fill="white"/>
<path d="M69.162 59.0283C69.0837 59.0283 69.0018 59.0176 68.9235 58.9927C68.8595 58.9713 62.1867 56.8752 52.3251 58.4055C51.9052 58.4695 51.5137 58.1848 51.4496 57.7649C51.3856 57.3449 51.6703 56.9535 52.0902 56.8894C60.1901 55.6296 66.1227 56.7079 68.3933 57.2595V35.2659C66.4466 34.6645 59.1367 32.7534 51.9408 35.4296C51.5422 35.5755 51.1009 35.3762 50.955 34.9777C50.809 34.5791 51.0083 34.1378 51.4069 33.9919C60.3147 30.6786 69.0623 33.8566 69.4289 33.9919C69.7278 34.1022 69.9271 34.3904 69.9271 34.7107V58.2631C69.9271 58.5087 69.8097 58.74 69.6104 58.8824C69.4787 58.9749 69.3221 59.0283 69.162 59.0283Z" fill="white"/>
</svg>
