<svg width="25" height="23" viewBox="0 0 25 23" fill="none" xmlns="http://www.w3.org/2000/svg">
<path d="M7.84595 10.2582C7.84595 10.2582 12.6265 8.81059 13.2241 2.92826C13.4482 0.837274 17.2079 1.50363 17.2079 4.4448C17.2079 8.25912 15.2658 9.84459 15.2658 9.84459" stroke="#F37320" stroke-width="1.6626" stroke-linecap="round" stroke-linejoin="round"/>
<path d="M13.5217 9.84485H21.6885C22.6346 9.84485 23.4065 10.5342 23.4065 11.3844C23.4065 12.2345 22.3857 12.9239 21.4395 12.9239" stroke="#F37320" stroke-width="1.6626" stroke-linecap="round" stroke-linejoin="round"/>
<path d="M21.2151 12.9233H21.6135C22.5596 12.9233 23.5805 13.6127 23.5805 14.4629C23.5805 15.3131 22.5596 16.0024 21.6135 16.0024" stroke="#F37320" stroke-width="1.6626" stroke-linecap="round" stroke-linejoin="round"/>
<path d="M21.217 16.0027H21.3913C22.3374 16.0027 23.3583 16.692 23.3583 17.5422C23.3583 18.3924 22.5864 19.0817 21.6402 19.0817H20.6941" stroke="#F37320" stroke-width="1.6626" stroke-linecap="round" stroke-linejoin="round"/>
<path d="M1.34668 9.68388V20.6672C1.34668 21.3795 1.96915 21.977 2.76591 21.977H6.10233C6.87419 21.977 7.52156 21.4025 7.52156 20.6672V9.68388C7.52156 8.97157 6.89909 8.37415 6.10233 8.37415H2.76591C1.96915 8.37415 1.34668 8.97157 1.34668 9.68388Z" stroke="#F37320" stroke-width="1.6626" stroke-linecap="round" stroke-linejoin="round"/>
<path d="M7.52026 20.2994C7.52026 20.2994 11.1306 21.747 12.4253 21.9767C14.3923 22.2984 20.3929 21.9767 20.3929 21.9767C21.2643 21.9767 21.9615 21.3334 21.9615 20.5291C21.9615 19.7249 21.2643 19.0815 20.3929 19.0815H20.5174" stroke="#F37320" stroke-width="1.6626" stroke-linecap="round" stroke-linejoin="round"/>
</svg>
