<svg width="189" height="84" viewBox="0 0 189 84" fill="none" xmlns="http://www.w3.org/2000/svg">
<path d="M132.991 67.4341V77.333C132.991 80.0944 130.753 82.333 127.991 82.333H52.8325" stroke="#161310" stroke-width="3.20842" stroke-miterlimit="10" stroke-linecap="round" stroke-linejoin="round"/>
<path d="M52.842 82.333H6.80951C4.04809 82.333 1.80951 80.0944 1.80951 77.333V7.56225C1.80951 4.80083 4.04809 2.56226 6.80951 2.56226H127.991C130.753 2.56226 132.991 4.80083 132.991 7.56226V33.5602" stroke="#161310" stroke-width="3.20842" stroke-miterlimit="10" stroke-linecap="round" stroke-linejoin="round"/>
<path d="M70.5507 19.0613H118.434" stroke="#161310" stroke-width="3.20842" stroke-miterlimit="10" stroke-linecap="round" stroke-linejoin="round"/>
<path d="M70.5507 31.3349H111.048" stroke="#161310" stroke-width="3.20842" stroke-miterlimit="10" stroke-linecap="round" stroke-linejoin="round"/>
<path d="M70.5507 43.6085H94.2506" stroke="#161310" stroke-width="3.20842" stroke-miterlimit="10" stroke-linecap="round" stroke-linejoin="round"/>
<path d="M70.5507 55.882H86.8728" stroke="#161310" stroke-width="3.20842" stroke-miterlimit="10" stroke-linecap="round" stroke-linejoin="round"/>
<path d="M165.287 25.593L169.612 33.2803" stroke="#FF4D1C" stroke-width="3.20842" stroke-miterlimit="10" stroke-linecap="round" stroke-linejoin="round"/>
<path d="M171.537 21.2681L175.809 29.3537" stroke="#FF4D1C" stroke-width="3.20842" stroke-miterlimit="10" stroke-linecap="round" stroke-linejoin="round"/>
<path d="M178.706 11.423L104.012 54.857L111.461 67.7594L186.156 24.3255L178.706 11.423Z" stroke="#161310" stroke-width="3.20842" stroke-miterlimit="10" stroke-linecap="round" stroke-linejoin="round"/>
<path d="M104.016 54.8609L95.5975 69.8414L111.466 67.7596" stroke="#161310" stroke-width="3.20842" stroke-miterlimit="10" stroke-linecap="round" stroke-linejoin="round"/>
<path d="M28.3962 51.2701C22.828 47.767 19.1195 41.561 19.1195 34.5008C19.1195 23.5699 27.9853 14.704 38.9162 14.704C49.8471 14.704 58.7129 23.5699 58.7129 34.5008C58.7129 41.5718 55.0044 47.767 49.4363 51.2701" stroke="#FF4D1C" stroke-width="3.20842" stroke-miterlimit="10" stroke-linecap="round" stroke-linejoin="round"/>
<path d="M48.9065 51.2701H28.926V66.9367H48.9065V51.2701Z" stroke="#161310" stroke-width="3.20842" stroke-miterlimit="10" stroke-linecap="round" stroke-linejoin="round"/>
<path d="M28.926 59.1088H48.9065" stroke="#161310" stroke-width="3.20842" stroke-miterlimit="10" stroke-linecap="round" stroke-linejoin="round"/>
<path d="M43.4166 67.6287C43.4166 70.0748 41.9141 72.054 40.0573 72.054H37.7752C35.9183 72.054 34.4158 70.0748 34.4158 67.6287" stroke="#161310" stroke-width="3.20842" stroke-miterlimit="10" stroke-linecap="round" stroke-linejoin="round"/>
<path d="M28.926 28.6732L33.2291 45.9724" stroke="#161310" stroke-width="3.20842" stroke-miterlimit="10" stroke-linecap="round" stroke-linejoin="round"/>
<path d="M48.9064 28.6732L44.6033 45.9724" stroke="#161310" stroke-width="3.20842" stroke-miterlimit="10" stroke-linecap="round" stroke-linejoin="round"/>
<path d="M33.7958 30.0665L36.4963 31.9023L39.0496 27.7773L41.0584 31.9023L44.0782 30.2541" stroke="#161310" stroke-width="3.20842" stroke-miterlimit="10" stroke-linecap="round" stroke-linejoin="round"/>
</svg>
