<svg width="221" height="91" viewBox="0 0 221 91" fill="none" xmlns="http://www.w3.org/2000/svg">
<path d="M31.4848 69.0031H67.5549" stroke="#FF4D1C" stroke-width="3.20842" stroke-miterlimit="10" stroke-linecap="round" stroke-linejoin="round"/>
<path d="M1.61722 88.6645L31.4847 60.0657H67.5555" stroke="#161310" stroke-width="3.20842" stroke-miterlimit="10" stroke-linecap="round" stroke-linejoin="round"/>
<path d="M67.5549 12.7059V49.5413V86.3766" stroke="#161310" stroke-width="3.20842" stroke-miterlimit="10" stroke-linecap="round" stroke-linejoin="round"/>
<path d="M90.9906 23.4592L84.7874 29.8653C82.9494 31.6956 82.9494 34.4411 84.7874 36.2715L86.3956 37.873C88.2336 39.7033 88.2336 42.4488 86.3956 44.2791L84.7874 45.8807C82.9494 47.711 82.9494 50.4565 84.7874 52.2868L86.8551 54.3459C88.6931 56.1763 88.6931 58.9217 86.8551 60.7521L85.9361 61.6672C84.0981 63.4976 84.0981 66.2431 85.9361 68.0734C87.7741 69.9037 87.7741 72.6492 85.9361 74.4795L83.1791 77.225" stroke="#FF4D1C" stroke-width="3.20842" stroke-miterlimit="10" stroke-linecap="round" stroke-linejoin="round"/>
<path d="M31.4848 60.0657V86.3766" stroke="#161310" stroke-width="3.20842" stroke-miterlimit="10" stroke-linecap="round" stroke-linejoin="round"/>
<path d="M25.5119 86.6053H36.7697" stroke="#161310" stroke-width="3.20842" stroke-miterlimit="10" stroke-linecap="round" stroke-linejoin="round"/>
<path d="M62.2709 86.6053H73.5287" stroke="#161310" stroke-width="3.20842" stroke-miterlimit="10" stroke-linecap="round" stroke-linejoin="round"/>
<path d="M67.554 23.4591H124.073" stroke="#161310" stroke-width="3.20842" stroke-miterlimit="10" stroke-linecap="round" stroke-linejoin="round"/>
<path d="M103.854 12.706V86.3767" stroke="#161310" stroke-width="3.20842" stroke-miterlimit="10" stroke-linecap="round" stroke-linejoin="round"/>
<path d="M124.075 12.706V86.3767" stroke="#161310" stroke-width="3.20842" stroke-miterlimit="10" stroke-linecap="round" stroke-linejoin="round"/>
<path d="M98.3416 86.6054H109.37" stroke="#161310" stroke-width="3.20842" stroke-miterlimit="10" stroke-linecap="round" stroke-linejoin="round"/>
<path d="M118.561 86.6054H129.819" stroke="#161310" stroke-width="3.20842" stroke-miterlimit="10" stroke-linecap="round" stroke-linejoin="round"/>
<path d="M103.854 42.6777H124.072" stroke="#161310" stroke-width="3.20842" stroke-miterlimit="10" stroke-linecap="round" stroke-linejoin="round"/>
<path d="M104.315 60.0657H122.927" stroke="#161310" stroke-width="3.20842" stroke-miterlimit="10" stroke-linecap="round" stroke-linejoin="round"/>
<path d="M104.546 79.0554H122.926" stroke="#161310" stroke-width="3.20842" stroke-miterlimit="10" stroke-linecap="round" stroke-linejoin="round"/>
<path d="M183.119 25.6307C184.497 22.752 184.957 19.462 184.268 15.9663C182.889 8.56381 175.767 2.80629 167.496 1.98379C155.779 0.750039 145.899 8.97506 145.899 19.2563C145.899 21.5182 146.359 23.7801 147.278 25.8363C148.197 27.8926 147.737 30.3601 145.899 32.0051C141.075 36.3232 138.088 42.2864 138.088 48.8664C137.858 61.8208 149.805 72.9246 164.279 73.3358C179.673 73.5415 192.309 62.6433 192.309 48.8664C192.309 42.2864 189.322 36.1176 184.497 31.7995C182.659 30.1545 182.2 27.687 183.119 25.6307Z" stroke="#161310" stroke-width="3.20842" stroke-miterlimit="10" stroke-linecap="round" stroke-linejoin="round"/>
<path d="M187.486 70.3608C190.703 74.0215 195.298 76.5382 200.582 76.767C210.921 77.2246 219.192 68.9881 219.192 58.9213C219.192 54.1167 217.124 49.5409 213.907 46.3378C212.759 45.1938 212.529 43.3635 212.988 41.762C213.907 39.7029 214.137 37.1862 213.678 34.6695C212.759 29.1785 208.164 24.8314 202.65 24.3739C198.744 23.9163 195.068 25.289 192.541 27.5769" stroke="#161310" stroke-width="3.20842" stroke-miterlimit="10" stroke-linecap="round" stroke-linejoin="round"/>
<path d="M200.35 61.4385V86.6055" stroke="#161310" stroke-width="3.20842" stroke-miterlimit="10" stroke-linecap="round" stroke-linejoin="round"/>
<path d="M153.48 39.2451L164.738 52.9725" stroke="#161310" stroke-width="3.20842" stroke-miterlimit="10" stroke-linecap="round" stroke-linejoin="round"/>
<path d="M175.997 47.4818L164.739 56.4046" stroke="#161310" stroke-width="3.20842" stroke-miterlimit="10" stroke-linecap="round" stroke-linejoin="round"/>
<path d="M164.739 26.2039V86.6047" stroke="#161310" stroke-width="3.20842" stroke-miterlimit="10" stroke-linecap="round" stroke-linejoin="round"/>
</svg>
