<svg width="269" height="119" viewBox="0 0 269 119" fill="none" xmlns="http://www.w3.org/2000/svg">
<rect x="85.4999" y="1.5" width="97" height="103" fill="white" stroke="#EDEDED" stroke-width="3"/>
<path d="M100.5 21.5H168.5" stroke="#EDEDED" stroke-width="3"/>
<path d="M101 38H169" stroke="#EDEDED" stroke-width="3"/>
<path d="M101 53H169" stroke="#EDEDED" stroke-width="3"/>
<path d="M101 68H145" stroke="#EDEDED" stroke-width="3"/>
<rect x="204.677" y="19.0206" width="69.5861" height="73.9413" transform="rotate(27.2729 204.677 19.0206)" fill="white" stroke="#EDEDED" stroke-width="3"/>
<path d="M207.525 36.3594L251.396 58.9769" stroke="#EDEDED" stroke-width="3"/>
<path d="M202.359 47.1709L246.231 69.7884" stroke="#EDEDED" stroke-width="3"/>
<path d="M197.37 56.8486L241.242 79.4662" stroke="#EDEDED" stroke-width="3"/>
<path d="M192.381 66.5254L220.769 81.1603" stroke="#EDEDED" stroke-width="3"/>
<rect x="-0.645907" y="2.02059" width="69.5861" height="73.9413" transform="matrix(-0.888834 0.458229 0.458229 0.888834 62.3712 17.5206)" fill="white" stroke="#EDEDED" stroke-width="3"/>
<path d="M61.0229 36.3594L17.1514 58.9769" stroke="#EDEDED" stroke-width="3"/>
<path d="M66.1882 47.1709L22.3167 69.7884" stroke="#EDEDED" stroke-width="3"/>
<path d="M71.1775 56.8486L27.3059 79.4662" stroke="#EDEDED" stroke-width="3"/>
<path d="M76.1666 66.5254L47.7791 81.1603" stroke="#EDEDED" stroke-width="3"/>
</svg>
