<svg width="84" height="56" viewBox="0 0 84 56" fill="none" xmlns="http://www.w3.org/2000/svg">
<path d="M39.4873 54.3093V55.6093L39.6728 55.596L39.4873 54.3093ZM26.214 31.7358L27.509 31.8498L27.4791 31.4365L26.214 31.7358ZM24.2275 23.3385V22.0385L22.9624 23.6378L24.2275 23.3385ZM31.722 23.3385V24.6385L32.7478 24.137L31.722 23.3385ZM43.4602 8.2594L44.486 7.46085L42.4343 7.46085L43.4602 8.2594ZM39.4873 48.2766H40.7873L40.7815 48.154L39.4873 48.2766ZM47.433 54.3092H46.133L47.433 55.6092V54.3092ZM60.7063 31.7357L59.4412 31.4364L59.4113 31.8497L60.7063 31.7357ZM62.6928 23.3384L63.9579 23.6376L62.6928 22.0384V23.3384ZM55.1984 23.3384L54.1725 24.1369L55.1984 24.6384V23.3384ZM47.433 48.2765L46.1388 48.1539L46.133 48.2765H47.433ZM1.81641 53.0093C1.09844 53.0093 0.516406 53.5913 0.516406 54.3093C0.516406 55.0273 1.09844 55.6093 1.81641 55.6093V53.0093ZM82.1871 55.6092C82.9051 55.6092 83.4871 55.0271 83.4871 54.3092C83.4871 53.5912 82.9051 53.0092 82.1871 53.0092V55.6092ZM42.8758 53.8207L43.0614 55.1074L44.1758 53.8207H42.8758ZM42.8758 47.1539L41.5868 46.9858L41.5758 47.1539H42.8758ZM39.4873 53.0093H24.2275V55.6093H39.4873V53.0093ZM25.5225 54.4233L27.509 31.8498L24.919 31.6219L22.9325 54.1953L25.5225 54.4233ZM27.4791 31.4365L25.4926 23.0392L22.9624 23.6378L24.9489 32.0351L27.4791 31.4365ZM24.2275 24.6385H31.722V22.0385H24.2275V24.6385ZM32.7478 24.137L44.486 9.05795L42.4343 7.46085L30.6961 22.5399L32.7478 24.137ZM40.7873 54.3093V48.2766H38.1873V54.3093H40.7873ZM40.7815 48.154C40.7343 47.6562 40.829 46.9103 41.202 46.3351C41.5194 45.8456 42.1218 45.3385 43.4602 45.3385V42.7385C41.2991 42.7385 39.8481 43.6441 39.0205 44.9206C38.2484 46.1112 38.1064 47.4843 38.1931 48.3992L40.7815 48.154ZM47.433 55.6092H62.6928V53.0092H47.433V55.6092ZM63.9878 54.1952L62.0013 31.6217L59.4113 31.8497L61.3978 54.4231L63.9878 54.1952ZM61.9714 32.035L63.9579 23.6376L61.4277 23.0391L59.4412 31.4364L61.9714 32.035ZM62.6928 22.0384H55.1984V24.6384H62.6928V22.0384ZM56.2242 22.5398L44.486 7.46085L42.4343 9.05795L54.1725 24.1369L56.2242 22.5398ZM48.733 54.3092V48.2765H46.133V54.3092H48.733ZM24.2275 53.0093H1.81641V55.6093H24.2275V53.0093ZM62.6928 55.6092H82.1871V53.0092H62.6928V55.6092ZM39.6728 55.596L43.0614 55.1074L42.6903 52.534L39.3018 53.0226L39.6728 55.596ZM44.1758 53.8207V47.1539H41.5758V53.8207H44.1758ZM48.7272 48.3991C48.8024 47.6062 48.7047 46.4996 48.2024 45.459C47.6793 44.3754 46.7169 43.3763 45.1561 42.9516L44.4736 45.4605C45.2191 45.6633 45.6229 46.0962 45.8609 46.5893C46.1197 47.1255 46.178 47.7404 46.1388 48.1539L48.7272 48.3991ZM45.1561 42.9516C44.6386 42.8109 44.0734 42.7385 43.4602 42.7385V45.3385C43.8688 45.3385 44.2023 45.3867 44.4736 45.4605L45.1561 42.9516ZM44.1649 47.3221C44.2115 46.965 44.3475 46.4157 44.5729 45.9791C44.6836 45.7646 44.7896 45.629 44.871 45.5551C44.9086 45.521 44.9332 45.507 44.9431 45.5022C44.948 45.4998 44.9504 45.4991 44.9507 45.499C44.9508 45.499 44.951 45.4989 44.9522 45.4988L44.6774 42.9133C43.3783 43.0514 42.6357 44.0637 42.2626 44.7864C41.864 45.5585 41.6611 46.4161 41.5868 46.9858L44.1649 47.3221Z" fill="#D5C9B4"/>
<path d="M35.0526 19.5219L51.5013 19.5219" stroke="#D5C9B4" stroke-width="2" stroke-miterlimit="10" stroke-linecap="round" stroke-linejoin="bevel" stroke-dasharray="3 3"/>
<path d="M27.0115 31.2844L60.4626 31.2844" stroke="#D5C9B4" stroke-width="2" stroke-miterlimit="10" stroke-linecap="round" stroke-linejoin="bevel" stroke-dasharray="3 3"/>
<path d="M32.1509 39.6996L32.1509 36.9408" stroke="#D5C9B4" stroke-width="2" stroke-miterlimit="10" stroke-linecap="round" stroke-linejoin="bevel"/>
<path d="M11.1199 40.4326L11.1199 38.9664" stroke="#D5C9B4" stroke-width="2" stroke-miterlimit="10" stroke-linecap="round" stroke-linejoin="bevel"/>
<path d="M67.1428 40.4327L67.1428 38.9666" stroke="#D5C9B4" stroke-width="2" stroke-miterlimit="10" stroke-linecap="round" stroke-linejoin="bevel"/>
<path d="M36.6744 39.6996L36.6744 36.9408" stroke="#D5C9B4" stroke-width="2" stroke-miterlimit="10" stroke-linecap="round" stroke-linejoin="bevel"/>
<path d="M15.6443 40.4326L15.6443 38.9664" stroke="#D5C9B4" stroke-width="2" stroke-miterlimit="10" stroke-linecap="round" stroke-linejoin="bevel"/>
<path d="M71.6672 40.4327L71.6672 38.9666" stroke="#D5C9B4" stroke-width="2" stroke-miterlimit="10" stroke-linecap="round" stroke-linejoin="bevel"/>
<path d="M41.1988 39.6996L41.1988 36.9408" stroke="#D5C9B4" stroke-width="2" stroke-miterlimit="10" stroke-linecap="round" stroke-linejoin="bevel"/>
<path d="M20.1687 40.4326L20.1687 38.9664" stroke="#D5C9B4" stroke-width="2" stroke-miterlimit="10" stroke-linecap="round" stroke-linejoin="bevel"/>
<path d="M76.1917 40.4327L76.1917 38.9666" stroke="#D5C9B4" stroke-width="2" stroke-miterlimit="10" stroke-linecap="round" stroke-linejoin="bevel"/>
<path d="M45.722 39.6996L45.722 36.9408" stroke="#D5C9B4" stroke-width="2" stroke-miterlimit="10" stroke-linecap="round" stroke-linejoin="bevel"/>
<path d="M50.2457 39.6996L50.2457 36.9408" stroke="#D5C9B4" stroke-width="2" stroke-miterlimit="10" stroke-linecap="round" stroke-linejoin="bevel"/>
<path d="M54.7693 39.6996L54.7693 36.9408" stroke="#D5C9B4" stroke-width="2" stroke-miterlimit="10" stroke-linecap="round" stroke-linejoin="bevel"/>
<path d="M40.5385 4.79429V1.69873H43.277L46.0155 1.69876V4.79432C46.0551 5.5616 45.563 7.09611 43.277 7.09611C40.9911 7.09611 40.4989 5.56156 40.5385 4.79429Z" stroke="#D5C9B4" stroke-width="2.6" stroke-linejoin="bevel"/>
<path d="M62.0938 31.2847H81.2412" stroke="#D5C9B4" stroke-width="2.6" stroke-linecap="round" stroke-linejoin="bevel"/>
<path d="M6.07031 31.2847H25.2178" stroke="#D5C9B4" stroke-width="2.6" stroke-linecap="round" stroke-linejoin="bevel"/>
</svg>
