<svg width="1407" height="19" viewBox="0 0 1407 19" fill="none" xmlns="http://www.w3.org/2000/svg">
<g clip-path="url(#clip0)">
<path d="M4.07566 14.1385C1.35331 12.3012 -2.21206 12.3012 -4.93441 14.1385L-7.90881 16.1459C-8.86584 16.7919 -9.43945 17.871 -9.43945 19.0256C-9.43945 20.9443 -7.88402 22.4998 -5.9653 22.4998H185.306C187.225 22.4998 188.78 20.9443 188.78 19.0256C188.78 17.871 188.207 16.7919 187.25 16.1459L184.275 14.1385C181.553 12.3012 177.988 12.3012 175.265 14.1385C172.543 15.9758 168.978 15.9758 166.255 14.1385C163.533 12.3012 159.968 12.3012 157.245 14.1385C154.523 15.9758 150.958 15.9758 148.235 14.1385C145.513 12.3012 141.948 12.3012 139.225 14.1385C136.503 15.9758 132.938 15.9758 130.215 14.1385C127.493 12.3012 123.928 12.3012 121.205 14.1385C118.483 15.9758 114.918 15.9758 112.195 14.1385C109.473 12.3012 105.908 12.3012 103.185 14.1385C100.463 15.9758 96.8977 15.9758 94.1754 14.1385C91.4531 12.3012 87.8877 12.3012 85.1654 14.1385C82.4431 15.9758 78.8777 15.9758 76.1554 14.1385C73.4331 12.3012 69.8678 12.3012 67.1454 14.1385C64.4231 15.9758 60.8578 15.9758 58.1355 14.1385C55.4131 12.3012 51.8478 12.3012 49.1255 14.1385C46.4032 15.9759 42.8377 15.9757 40.1153 14.1385C37.3931 12.3012 33.8277 12.3012 31.1056 14.1385C28.3834 15.9758 24.8181 15.9758 22.0959 14.1386C19.3736 12.3012 15.8081 12.3012 13.0858 14.1385C10.3634 15.9758 6.79802 15.9758 4.07566 14.1385Z" fill="white"/>
<path d="M184.734 14.1386C182.012 12.3012 178.446 12.3011 175.724 14.1385L172.749 16.1459C171.792 16.7919 171.219 17.871 171.219 19.0256C171.219 20.9443 172.774 22.4998 174.693 22.4998H365.964C367.883 22.4998 369.438 20.9443 369.438 19.0256C369.438 17.871 368.864 16.7918 367.907 16.1459L364.934 14.1387C362.211 12.3012 358.646 12.3012 355.923 14.1386C353.201 15.9759 349.636 15.9758 346.913 14.1385C344.191 12.3012 340.626 12.3012 337.903 14.1385C335.181 15.9758 331.616 15.9758 328.893 14.1385C326.171 12.3012 322.605 12.3012 319.883 14.1386C317.161 15.9758 313.596 15.9758 310.873 14.1385C308.151 12.3012 304.586 12.3012 301.864 14.1385C299.141 15.9758 295.576 15.9758 292.854 14.1385C290.131 12.3012 286.566 12.3012 283.843 14.1385C281.121 15.9758 277.556 15.9758 274.833 14.1385C272.111 12.3012 268.546 12.3012 265.823 14.1385C263.101 15.9758 259.535 15.9758 256.813 14.1385C254.091 12.3012 250.526 12.3012 247.803 14.1385C245.081 15.9758 241.516 15.9758 238.794 14.1386C236.071 12.3012 232.506 12.3012 229.784 14.1385C227.061 15.9758 223.496 15.9758 220.774 14.1385C218.051 12.3012 214.486 12.3012 211.763 14.1385C209.041 15.9758 205.476 15.9758 202.753 14.1385C200.031 12.3012 196.466 12.3012 193.744 14.1385C191.021 15.9758 187.456 15.9758 184.734 14.1386Z" fill="white"/>
<path d="M365.15 14.1385C362.427 12.3012 358.862 12.3012 356.14 14.1384L353.165 16.1459C352.208 16.7919 351.635 17.871 351.635 19.0256C351.635 20.9443 353.19 22.4998 355.109 22.4998H546.38C548.299 22.4998 549.854 20.9443 549.854 19.0256C549.854 17.871 549.28 16.7919 548.323 16.1459L545.349 14.1385C542.627 12.3012 539.061 12.3013 536.339 14.1386C533.617 15.9758 530.051 15.9758 527.329 14.1385C524.607 12.3012 521.042 12.3013 518.319 14.1385C515.597 15.9758 512.032 15.9758 509.309 14.1385C506.587 12.3012 503.022 12.3012 500.299 14.1385C497.577 15.9758 494.011 15.9758 491.289 14.1385C488.567 12.3012 485.001 12.3013 482.279 14.1386C479.557 15.9758 475.991 15.9758 473.269 14.1385C470.547 12.3012 466.982 12.3013 464.26 14.1385C461.537 15.9758 457.972 15.9758 455.249 14.1385C452.527 12.3012 448.962 12.3012 446.239 14.1385C443.517 15.9758 439.952 15.9758 437.229 14.1385C434.507 12.3012 430.941 12.3013 428.219 14.1386C425.497 15.9758 421.932 15.9758 419.209 14.1385C416.487 12.3012 412.922 12.3013 410.2 14.1385C407.477 15.9758 403.912 15.9758 401.19 14.1385C398.467 12.3012 394.902 12.3012 392.179 14.1385C389.457 15.9758 385.892 15.9758 383.169 14.1385C380.447 12.3012 376.882 12.3013 374.159 14.1386C371.437 15.9758 367.872 15.9758 365.15 14.1385Z" fill="white"/>
<path d="M546.044 14.1386C543.321 12.3012 539.756 12.3012 537.034 14.1387L534.06 16.1459C533.103 16.7918 532.529 17.871 532.529 19.0256C532.529 20.9443 534.085 22.4998 536.003 22.4998H727.272C729.191 22.4998 730.746 20.9443 730.746 19.0255C730.746 17.871 730.172 16.7918 729.216 16.1459L726.242 14.1385C723.52 12.3012 719.955 12.3012 717.233 14.1385C714.511 15.9758 710.946 15.9758 708.224 14.1385C705.502 12.3012 701.937 12.3015 699.215 14.1388C696.493 15.9759 692.925 15.9747 690.203 14.1385C687.481 12.3023 683.913 12.3012 681.192 14.1382C678.47 15.9755 674.904 15.9757 672.183 14.1384C669.461 12.3011 665.896 12.3013 663.174 14.1383C660.452 15.9756 656.886 15.9758 654.163 14.1385C651.441 12.3013 647.876 12.3012 645.154 14.1385C642.432 15.9758 638.866 15.9758 636.144 14.1386C633.422 12.3012 629.856 12.3012 627.134 14.1385C624.412 15.9758 620.846 15.9758 618.124 14.1385C615.401 12.3012 611.836 12.3012 609.114 14.1385C606.391 15.9758 602.826 15.9758 600.104 14.1385C597.381 12.3012 593.816 12.3012 591.094 14.1385C588.372 15.9758 584.806 15.9758 582.084 14.1386C579.362 12.3012 575.796 12.3012 573.074 14.1385C570.352 15.9758 566.786 15.9758 564.064 14.1385C561.342 12.3012 557.776 12.3012 555.054 14.1385C552.332 15.9758 548.766 15.9759 546.044 14.1386Z" fill="white"/>
<path d="M726.14 14.1384C723.419 12.3013 719.854 12.3004 717.131 14.1367L714.152 16.1462C713.195 16.792 712.621 17.8713 712.621 19.0261C712.621 20.9446 714.176 22.4999 716.095 22.4999H907.366C909.285 22.4999 910.84 20.9444 910.84 19.0256C910.84 17.8711 910.267 16.7919 909.31 16.146L906.336 14.1386C903.614 12.3013 900.049 12.3013 897.327 14.1386C894.605 15.9759 891.04 15.9759 888.318 14.1386C885.596 12.3013 882.031 12.3013 879.309 14.1386C876.587 15.9759 873.022 15.9756 870.3 14.1383C867.579 12.3012 864.011 12.3024 861.289 14.1386C858.566 15.9748 854.999 15.9759 852.277 14.1389C849.555 12.3016 845.99 12.3013 843.268 14.1386C840.546 15.9759 836.981 15.9759 834.259 14.1386C831.537 12.3013 827.972 12.3016 825.25 14.1389C822.528 15.9759 818.96 15.9748 816.238 14.1386C813.516 12.3024 809.948 12.3012 807.227 14.1383C804.505 15.9756 800.939 15.9759 798.217 14.1386C795.496 12.3013 791.931 12.3013 789.209 14.1386C786.487 15.9759 782.922 15.9759 780.2 14.1386C777.478 12.3013 773.912 12.3016 771.191 14.1389C768.469 15.9759 764.901 15.9748 762.179 14.1386C759.457 12.3024 755.889 12.3012 753.167 14.1383C750.446 15.9756 746.88 15.9759 744.158 14.1386C741.436 12.3013 737.871 12.3013 735.149 14.1386C732.427 15.9759 728.862 15.9756 726.14 14.1384Z" fill="white"/>
<path d="M905.89 14.1385C903.168 12.3012 899.602 12.3012 896.88 14.1385L893.906 16.1459C892.949 16.7919 892.375 17.871 892.375 19.0256C892.375 20.9443 893.93 22.4998 895.849 22.4998H1087.12C1089.04 22.4998 1090.59 20.9443 1090.59 19.0256C1090.59 17.871 1090.02 16.7919 1089.06 16.1459L1086.09 14.1385C1083.37 12.3012 1079.8 12.3012 1077.08 14.1385C1074.36 15.9758 1070.79 15.9758 1068.07 14.1385C1065.35 12.3012 1061.78 12.3012 1059.06 14.1385C1056.34 15.9758 1052.77 15.9758 1050.05 14.1385C1047.33 12.3012 1043.76 12.3012 1041.04 14.1385C1038.32 15.9758 1034.75 15.9758 1032.03 14.1385C1029.31 12.3012 1025.74 12.3012 1023.02 14.1385C1020.3 15.9758 1016.73 15.9758 1014.01 14.1385C1011.29 12.3012 1007.72 12.3012 1005 14.1385C1002.28 15.9758 998.712 15.9758 995.99 14.1385C993.268 12.3012 989.702 12.3012 986.98 14.1385C984.258 15.9758 980.692 15.9758 977.97 14.1385C975.248 12.3012 971.682 12.3012 968.96 14.1385C966.238 15.9758 962.672 15.9758 959.95 14.1385C957.228 12.3012 953.662 12.3012 950.94 14.1385C948.218 15.9759 944.652 15.9757 941.93 14.1385C939.208 12.3012 935.642 12.3012 932.92 14.1385C930.198 15.9758 926.633 15.9758 923.91 14.1386C921.188 12.3012 917.623 12.3012 914.9 14.1385C912.178 15.9758 908.612 15.9758 905.89 14.1385Z" fill="white"/>
<path d="M1086.48 14.1386C1083.76 12.3012 1080.19 12.3011 1077.47 14.1385L1074.49 16.1459C1073.54 16.7919 1072.96 17.871 1072.96 19.0256C1072.96 20.9443 1074.52 22.4998 1076.44 22.4998H1267.71C1269.63 22.4998 1271.18 20.9443 1271.18 19.0256C1271.18 17.871 1270.61 16.7918 1269.65 16.1459L1266.68 14.1387C1263.96 12.3012 1260.39 12.3012 1257.67 14.1386C1254.95 15.9759 1251.38 15.9758 1248.66 14.1385C1245.94 12.3012 1242.37 12.3012 1239.65 14.1385C1236.93 15.9758 1233.36 15.9758 1230.64 14.1385C1227.92 12.3012 1224.35 12.3012 1221.63 14.1386C1218.91 15.9758 1215.34 15.9758 1212.62 14.1385C1209.9 12.3012 1206.33 12.3012 1203.61 14.1385C1200.89 15.9758 1197.32 15.9758 1194.6 14.1385C1191.88 12.3012 1188.31 12.3012 1185.59 14.1385C1182.87 15.9758 1179.3 15.9758 1176.58 14.1385C1173.86 12.3012 1170.29 12.3012 1167.57 14.1385C1164.85 15.9758 1161.28 15.9758 1158.56 14.1385C1155.84 12.3012 1152.27 12.3012 1149.55 14.1385C1146.83 15.9758 1143.26 15.9758 1140.54 14.1386C1137.82 12.3012 1134.25 12.3012 1131.53 14.1385C1128.81 15.9758 1125.24 15.9758 1122.52 14.1385C1119.8 12.3012 1116.23 12.3012 1113.51 14.1385C1110.79 15.9758 1107.22 15.9758 1104.5 14.1385C1101.78 12.3012 1098.21 12.3012 1095.49 14.1385C1092.77 15.9758 1089.2 15.9758 1086.48 14.1386Z" fill="white"/>
<path d="M1266.71 14.1385C1263.99 12.3012 1260.42 12.3012 1257.7 14.1384L1254.73 16.1459C1253.77 16.7919 1253.2 17.871 1253.2 19.0256C1253.2 20.9443 1254.75 22.4998 1256.67 22.4998H1447.94C1449.86 22.4998 1451.41 20.9443 1451.41 19.0256C1451.41 17.871 1450.84 16.7919 1449.88 16.1459L1446.91 14.1385C1444.19 12.3012 1440.62 12.3013 1437.9 14.1386C1435.18 15.9758 1431.61 15.9758 1428.89 14.1385C1426.17 12.3012 1422.6 12.3013 1419.88 14.1385C1417.16 15.9758 1413.59 15.9758 1410.87 14.1385C1408.15 12.3012 1404.58 12.3012 1401.86 14.1385C1399.14 15.9758 1395.57 15.9758 1392.85 14.1385C1390.13 12.3012 1386.56 12.3013 1383.84 14.1386C1381.12 15.9758 1377.55 15.9758 1374.83 14.1385C1372.11 12.3012 1368.54 12.3013 1365.82 14.1385C1363.1 15.9758 1359.53 15.9758 1356.81 14.1385C1354.09 12.3012 1350.52 12.3012 1347.8 14.1385C1345.08 15.9758 1341.51 15.9758 1338.79 14.1385C1336.07 12.3012 1332.5 12.3013 1329.78 14.1386C1327.06 15.9758 1323.49 15.9758 1320.77 14.1385C1318.05 12.3012 1314.48 12.3013 1311.76 14.1385C1309.04 15.9758 1305.47 15.9758 1302.75 14.1385C1300.03 12.3012 1296.46 12.3012 1293.74 14.1385C1291.02 15.9758 1287.45 15.9758 1284.73 14.1385C1282.01 12.3012 1278.44 12.3013 1275.72 14.1386C1273 15.9758 1269.43 15.9758 1266.71 14.1385Z" fill="white"/>
</g>
<defs>
<clipPath id="clip0">
<rect width="1407" height="19" fill="white"/>
</clipPath>
</defs>
</svg>
