<svg width="20" height="24" viewBox="0 0 20 24" fill="none" xmlns="http://www.w3.org/2000/svg">
<path fill-rule="evenodd" clip-rule="evenodd" d="M2.55952 9.74975C2.55952 5.09032 6.01015 1.83321 10.0928 1.83321C14.1755 1.83321 17.6261 5.09032 17.6261 9.74975C17.6261 12.97 15.2624 16.8648 10.1146 21.5646L10.0928 21.5844L10.0711 21.5646C4.92319 16.8648 2.55952 12.97 2.55952 9.74975ZM10.0928 0.0739746C5.00925 0.0739746 0.800293 4.14829 0.800293 9.74975C0.800293 13.7751 3.69246 18.1233 8.88492 22.8638L9.49974 23.4251L10.0928 23.9665L10.6859 23.4251L11.3007 22.8638C16.4932 18.1233 19.3853 13.7751 19.3853 9.74975C19.3853 4.14829 15.1764 0.0739746 10.0928 0.0739746ZM13.4567 9.74993C13.4567 7.80677 11.9501 6.23152 10.0916 6.23152C8.2331 6.23152 6.72649 7.80677 6.72649 9.74993C6.72649 11.6931 8.2331 13.2683 10.0916 13.2683C11.9501 13.2683 13.4567 11.6931 13.4567 9.74993Z" fill="#101A35"/>
</svg>
