<svg width="86" height="86" viewBox="0 0 86 86" fill="none" xmlns="http://www.w3.org/2000/svg">
<path d="M13.4647 17.6646C48.6057 25.3569 71.3823 17.6646 71.3823 17.6646" stroke="#FD6721" stroke-width="3" stroke-miterlimit="10"/>
<path d="M14.1154 47.7927C49.2564 55.485 72.033 47.7927 72.033 47.7927" stroke="#FD6721" stroke-width="3" stroke-miterlimit="10"/>
<path d="M17.3693 19.5876L14.7663 34.9723L22.5754 31.1261L29.083 38.1774L31.0353 20.8697" stroke="#FD6721" stroke-width="3" stroke-miterlimit="10"/>
<path d="M68.7793 19.5876L71.3824 34.9723L63.5733 31.1261L57.0657 38.1774L55.1134 20.8697" stroke="#FD6721" stroke-width="3" stroke-miterlimit="10"/>
<path d="M35.2651 21.062L42.098 38.1774L50.8833 21.062" stroke="#FD6721" stroke-width="3" stroke-miterlimit="10"/>
<path d="M18.1395 49.1987L21.6645 65.998L31.9596 51.0987" stroke="#FD6721" stroke-width="3" stroke-miterlimit="10"/>
<path d="M68.4086 49.1982L65.1353 66.6389L54.0701 51.6165" stroke="#FD6721" stroke-width="3" stroke-miterlimit="10"/>
<path d="M36.2413 51.6389V68.9466L42.7489 64.4594L49.9073 68.9466V51.6389" stroke="#FD6721" stroke-width="3" stroke-miterlimit="10"/>
</svg>
