<svg width="51" height="51" viewBox="0 0 51 51" fill="none" xmlns="http://www.w3.org/2000/svg">
<path fill-rule="evenodd" clip-rule="evenodd" d="M25.6855 50.2368C39.4927 50.2368 50.6855 39.0439 50.6855 25.2368C50.6855 11.4297 39.4927 0.236816 25.6855 0.236816C11.8784 0.236816 0.685547 11.4297 0.685547 25.2368C0.685547 39.0439 11.8784 50.2368 25.6855 50.2368ZM29.7519 18.9211C30.3542 18.3523 30.3813 17.4029 29.8125 16.8006C29.2437 16.1984 28.2943 16.1712 27.6921 16.74L19.3587 24.6104L18.2041 25.7009L19.3587 26.7915L27.6921 34.6618C28.2943 35.2306 29.2437 35.2035 29.8125 34.6012C30.3813 33.999 30.3542 33.0496 29.7519 32.4808L22.5733 25.7009L29.7519 18.9211Z" fill="white"/>
</svg>
