<svg width="27" height="17" viewBox="0 0 27 17" fill="none" xmlns="http://www.w3.org/2000/svg">
<path fill-rule="evenodd" clip-rule="evenodd" d="M12.9476 3.87837L12.9514 3.87813C15.6984 3.71181 18.1209 5.90989 17.9266 8.74972C17.7679 11.0897 15.8315 12.8827 13.5404 13.0199M0.245694 9.04985C-0.0298145 8.69613 -0.0298145 8.20195 0.245694 7.84823C3.62202 3.5307 8.19761 0.872559 13.2432 0.872559C18.2888 0.872559 22.8644 3.5307 26.2407 7.85343C26.5162 8.20716 26.5162 8.70133 26.2407 9.05505C22.8644 13.3726 18.2888 16.0307 13.2432 16.0307C8.19761 16.0307 3.62202 13.3726 0.245694 9.04985ZM1.94356 8.44932C5.02816 12.1847 9.00172 14.3307 13.2432 14.3307C17.4846 14.3307 21.4582 12.1847 24.5428 8.45396C21.4582 4.71861 17.4847 2.57256 13.2432 2.57256C9.00178 2.57256 5.02821 4.71855 1.94356 8.44932ZM10.2612 8.26438C10.3531 6.82867 11.5631 5.66866 13.0541 5.57502C14.8584 5.46578 16.3494 6.89629 16.2306 8.63371C16.1333 10.0746 14.9232 11.2346 13.4377 11.3231C11.6334 11.4323 10.1424 10.0018 10.2612 8.26438ZM13.5399 13.02C10.7943 13.1859 8.37307 10.99 8.56493 8.15211C8.71685 5.8075 10.6614 4.02193 12.9476 3.87837" fill="white"/>
</svg>
