<svg width="24" height="25" viewBox="0 0 24 25" fill="none" xmlns="http://www.w3.org/2000/svg">
<path d="M23.1761 11.8632C19.5865 7.53581 15.727 5.40797 11.7042 5.51049C5.21408 5.69095 0.746507 11.6365 0.559415 11.8893C0.550775 11.9011 0.544817 11.9142 0.537369 11.9266C0.531113 11.9361 0.525452 11.9459 0.519792 11.9562C0.506386 11.98 0.495065 12.0037 0.485531 12.0283C0.481063 12.0401 0.47719 12.052 0.473317 12.0638C0.465869 12.0872 0.459613 12.1106 0.455144 12.1343C0.452165 12.1497 0.450377 12.1651 0.448888 12.1809C0.446802 12.201 0.445312 12.2212 0.445312 12.2416C0.445312 12.2617 0.446802 12.2819 0.448888 12.302C0.450675 12.3178 0.452463 12.3329 0.455144 12.3486C0.459613 12.3723 0.465869 12.3957 0.473317 12.4191C0.47719 12.4309 0.481063 12.4428 0.485531 12.4546C0.495065 12.4792 0.506684 12.5029 0.519792 12.5267C0.525452 12.5367 0.530815 12.5462 0.537369 12.5563C0.544817 12.5684 0.550775 12.5818 0.559415 12.5936C0.746507 12.8467 5.21408 18.792 11.7042 18.9724C11.8046 18.9751 11.9044 18.9766 12.0042 18.9766C15.9186 18.9766 19.6756 16.8392 23.1761 12.6197C23.2682 12.5089 23.3099 12.3746 23.3096 12.2416C23.3099 12.1083 23.2682 11.974 23.1761 11.8632ZM11.7447 17.788C6.6986 17.6514 2.84266 13.4864 1.80084 12.2416C2.84266 10.9968 6.69831 6.83147 11.7447 6.69487C15.2667 6.60331 18.6877 8.4695 21.9338 12.2416C18.688 16.014 15.2703 17.8894 11.7447 17.788Z" fill="#9A8571"/>
<path d="M12.1727 8.33966C10.0095 8.33966 8.25 10.0897 8.25 12.241C8.25 14.3925 10.0095 16.1425 12.1727 16.1425C14.3359 16.1425 16.0954 14.3925 16.0954 12.241C16.0954 10.0897 14.3359 8.33966 12.1727 8.33966ZM12.1727 14.9573C10.6667 14.9573 9.44167 13.7388 9.44167 12.241C9.44167 10.7434 10.6667 9.52492 12.1727 9.52492C13.6786 9.52492 14.9037 10.7434 14.9037 12.241C14.9037 13.7385 13.6786 14.9573 12.1727 14.9573Z" fill="#9A8571"/>
<path d="M0.5 24.5L22 1" stroke="#9A8571"/>
</svg>
