<svg width="24" height="14" viewBox="0 0 24 14" fill="none" xmlns="http://www.w3.org/2000/svg">
<path d="M23.1761 6.86308C19.5865 2.53569 15.727 0.407846 11.7042 0.510371C5.21408 0.690827 0.746507 6.6364 0.559415 6.88916C0.550775 6.90101 0.544818 6.91405 0.53737 6.9265C0.531114 6.93598 0.525453 6.94576 0.519793 6.95613C0.506387 6.97983 0.495066 7.00354 0.485532 7.02813C0.481064 7.03998 0.477191 7.05184 0.473318 7.06369C0.46587 7.0871 0.459613 7.11051 0.455144 7.13421C0.452165 7.14962 0.450378 7.16503 0.448889 7.18073C0.446803 7.20088 0.445312 7.22103 0.445312 7.24148C0.445312 7.26163 0.446803 7.28178 0.448889 7.30193C0.450676 7.31763 0.452463 7.33274 0.455144 7.34845C0.459613 7.37215 0.46587 7.39556 0.473318 7.41897C0.477191 7.43083 0.481064 7.44268 0.485532 7.45453C0.495066 7.47912 0.506685 7.50283 0.519793 7.52653C0.525453 7.53661 0.530816 7.54609 0.53737 7.55617C0.544818 7.56832 0.550775 7.58165 0.559415 7.5935C0.746507 7.84656 5.21408 13.7919 11.7042 13.9723C11.8046 13.975 11.9044 13.9765 12.0042 13.9765C15.9186 13.9765 19.6756 11.8391 23.1761 7.61958C23.2682 7.50876 23.3099 7.37453 23.3096 7.24148C23.3099 7.10814 23.2682 6.97391 23.1761 6.86308ZM11.7447 12.7879C6.6986 12.6513 2.84266 8.4863 1.80084 7.24148C2.84266 5.99666 6.69831 1.83135 11.7447 1.69475C15.2667 1.60319 18.6877 3.46938 21.9338 7.24148C18.688 11.0139 15.2703 12.8893 11.7447 12.7879Z" fill="#CAC9C9"/>
<path d="M12.1727 3.33984C10.0095 3.33984 8.25 5.08988 8.25 7.24113C8.25 9.39268 10.0095 11.1427 12.1727 11.1427C14.3359 11.1427 16.0954 9.39268 16.0954 7.24113C16.0954 5.08988 14.3359 3.33984 12.1727 3.33984ZM12.1727 9.95746C10.6667 9.95746 9.44167 8.73901 9.44167 7.24113C9.44167 5.74355 10.6667 4.5251 12.1727 4.5251C13.6786 4.5251 14.9037 5.74355 14.9037 7.24113C14.9037 8.73871 13.6786 9.95746 12.1727 9.95746Z" fill="#CAC9C9"/>
</svg>
