<svg width="22" height="22" viewBox="0 0 22 22" fill="none" xmlns="http://www.w3.org/2000/svg">
<path d="M2.55891 1.62958H6.67831C7.01925 1.62958 7.29596 1.35288 7.29596 1.01193C7.29596 0.670993 7.01925 0.394287 6.67831 0.394287H1.42831C1.08737 0.394287 0.65625 0.788346 0.65625 1.1296V6.3796C0.65625 6.72054 0.932956 6.99724 1.2739 6.99724C1.61484 6.99724 1.89154 6.72054 1.89154 6.3796V2.98099L6.84569 7.85763C6.96644 7.97838 7.16285 8.0386 7.32097 8.0386C7.47909 8.0386 7.65635 7.97838 7.7771 7.85763C8.01829 7.61643 8.02787 7.16679 7.78668 6.92529L2.55891 1.62958Z" fill="white"/>
<path d="M21.1932 0.394287H15.9432C15.6022 0.394287 15.3255 0.670993 15.3255 1.01193C15.3255 1.35288 15.6022 1.62958 15.9432 1.62958H19.8359L14.5989 6.92529C14.3577 7.16648 14.3577 7.58679 14.5989 7.82798C14.7193 7.94873 14.8774 8.02346 15.0355 8.02346C15.1937 8.02346 15.2746 7.97065 15.395 7.8499L20.4208 2.75432V6.37929C20.4208 6.72023 20.6975 6.99693 21.0385 6.99693C21.3794 6.99693 21.6561 6.72023 21.6561 6.37929V1.12929C21.6564 0.788346 21.5341 0.394287 21.1932 0.394287Z" fill="white"/>
<path d="M6.84569 14.1251L1.89154 19.0021V15.6442C1.89154 15.3033 1.61484 15.0266 1.2739 15.0266C0.932956 15.0266 0.65625 15.3033 0.65625 15.6442V20.8942C0.65625 21.2352 1.08737 21.3942 1.42831 21.3942H6.67831C7.01925 21.3942 7.29596 21.1175 7.29596 20.7766C7.29596 20.4356 7.01925 20.1589 6.67831 20.1589H2.51815L7.79625 14.9398C8.03744 14.6986 7.99884 14.3373 7.75765 14.0961C7.51677 13.8546 7.08657 13.8839 6.84569 14.1251Z" fill="white"/>
<path d="M21.0404 15.0267C20.6995 15.0267 20.4228 15.3034 20.4228 15.6443V19.2285L15.397 14.1252C15.1561 13.884 14.8031 13.884 14.5622 14.1252C14.321 14.3664 14.3402 14.6984 14.5814 14.9399L19.8783 20.159H15.9448C15.6039 20.159 15.3272 20.4357 15.3272 20.7767C15.3272 21.1176 15.6039 21.3943 15.9448 21.3943H21.1948C21.5358 21.3943 21.6581 21.2353 21.6581 20.8943V15.6443C21.6581 15.3031 21.3814 15.0267 21.0404 15.0267Z" fill="white"/>
</svg>
