<svg width="18" height="18" viewBox="0 0 18 18" fill="none" xmlns="http://www.w3.org/2000/svg">
<path d="M2.51094 1.98097H5.78222C6.05297 1.98097 6.27271 1.76123 6.27271 1.49048C6.27271 1.21974 6.05297 1 5.78222 1H1.61311C1.34236 1 1 1.31293 1 1.58392V5.75304C1 6.02379 1.21974 6.24353 1.49048 6.24353C1.76123 6.24353 1.98097 6.02379 1.98097 5.75304V3.05415L5.91514 6.92677C6.01103 7.02266 6.16701 7.07048 6.29257 7.07048C6.41814 7.07048 6.5589 7.02266 6.65479 6.92677C6.84633 6.73524 6.85393 6.37816 6.6624 6.18638L2.51094 1.98097Z" fill="white" stroke="white" stroke-width="0.5"/>
<path d="M17.308 1H13.1389C12.8681 1 12.6484 1.21974 12.6484 1.49048C12.6484 1.76123 12.8681 1.98097 13.1389 1.98097H16.2302L12.0714 6.18638C11.8798 6.37792 11.8798 6.71169 12.0714 6.90322C12.167 6.99911 12.2926 7.05847 12.4181 7.05847C12.5437 7.05847 12.608 7.01653 12.7036 6.92064L16.6947 2.87414V5.75279C16.6947 6.02354 16.9144 6.24328 17.1852 6.24328C17.4559 6.24328 17.6756 6.02354 17.6756 5.75279V1.58368C17.6759 1.31293 17.5788 1 17.308 1Z" fill="white" stroke="white" stroke-width="0.5"/>
<path d="M5.91514 11.9039L1.98097 15.7767V13.1102C1.98097 12.8394 1.76123 12.6197 1.49048 12.6197C1.21974 12.6197 1 12.8394 1 13.1102V17.2793C1 17.55 1.34236 17.6763 1.61311 17.6763H5.78222C6.05297 17.6763 6.27271 17.4566 6.27271 17.1859C6.27271 16.9152 6.05297 16.6953 5.78222 16.6953H2.47857L6.67 12.5508C6.86153 12.3592 6.83088 12.0723 6.63935 11.8808C6.44806 11.689 6.10643 11.7123 5.91514 11.9039Z" fill="white" stroke="white" stroke-width="0.5"/>
<path d="M17.187 12.6197C16.9162 12.6197 16.6965 12.8395 16.6965 13.1102V15.9565L12.7054 11.9039C12.5141 11.7124 12.2338 11.7124 12.0425 11.9039C11.851 12.0954 11.8662 12.359 12.0577 12.5508L16.2642 16.6954H13.1405C12.8697 16.6954 12.65 16.9151 12.65 17.1859C12.65 17.4566 12.8697 17.6764 13.1405 17.6764H17.3096C17.5803 17.6764 17.6774 17.5501 17.6774 17.2793V13.1102C17.6774 12.8392 17.4577 12.6197 17.187 12.6197Z" fill="white" stroke="white" stroke-width="0.5"/>
</svg>
