<svg width="44" height="43" viewBox="0 0 44 43" fill="none" xmlns="http://www.w3.org/2000/svg">
<path fill-rule="evenodd" clip-rule="evenodd" d="M21.6434 0.0292969C9.80874 0.0292969 0.214844 9.62319 0.214844 21.4579C0.214844 33.2925 9.80874 42.8864 21.6434 42.8864C33.4781 42.8864 43.072 33.2925 43.072 21.4579C43.072 9.62319 33.4781 0.0292969 21.6434 0.0292969ZM23.3883 28.2224C23.177 28.4451 22.7644 28.4901 22.7644 28.4901H21.3983C21.3983 28.4901 18.3843 28.6679 15.7292 25.9552C12.8338 22.9956 10.277 17.1236 10.277 17.1236C10.277 17.1236 10.1294 16.7384 10.2893 16.5529C10.4693 16.3433 10.9601 16.3302 10.9601 16.3302L14.2256 16.3093C14.2256 16.3093 14.533 16.3587 14.7533 16.5178C14.9355 16.6495 15.0372 16.8942 15.0372 16.8942C15.0372 16.8942 15.5649 18.2045 16.2636 19.3896C17.6286 21.704 18.2636 22.2099 18.7264 21.9619C19.4017 21.6008 19.1993 18.6906 19.1993 18.6906C19.1993 18.6906 19.2116 17.6349 18.8595 17.1642C18.5867 16.7998 18.0724 16.6934 17.8455 16.6638C17.661 16.6396 17.9629 16.2204 18.3542 16.0328C18.9422 15.7508 19.9797 15.7343 21.206 15.7464C22.1619 15.7562 22.4369 15.8144 22.8103 15.9033C23.6769 16.1086 23.6498 16.7664 23.5914 18.1862C23.574 18.6108 23.5537 19.1036 23.5537 19.6728C23.5537 19.8007 23.5499 19.937 23.546 20.0773C23.5257 20.8046 23.5025 21.6376 23.9908 21.9476C24.2413 22.1056 24.8528 21.9707 26.3832 19.4204C27.1088 18.2111 27.6521 16.79 27.6521 16.79C27.6521 16.79 27.7717 16.5365 27.9562 16.4278C28.1451 16.317 28.4 16.351 28.4 16.351L31.8366 16.3302C31.8366 16.3302 32.8695 16.2084 33.0361 16.6671C33.2116 17.1466 32.6504 18.2681 31.2463 20.1051C29.9143 21.8482 29.2662 22.4899 29.3257 23.0575C29.3691 23.4722 29.7905 23.8473 30.599 24.5835C32.2868 26.1217 32.7393 26.931 32.848 27.1255C32.857 27.1416 32.8636 27.1535 32.8684 27.1612C33.6253 28.3936 32.0288 28.4901 32.0288 28.4901L28.9757 28.5318C28.9757 28.5318 28.3206 28.6591 27.4576 28.0775C27.0055 27.7731 26.5637 27.2759 26.1429 26.8024C25.5003 26.0792 24.9067 25.4111 24.4 25.5689C23.5492 25.8345 23.575 27.6331 23.575 27.6331C23.575 27.6331 23.5817 28.0183 23.3883 28.2224Z" fill="#161310"/>
</svg>
