<svg width="43" height="43" viewBox="0 0 43 43" fill="none" xmlns="http://www.w3.org/2000/svg">
<path d="M0 21.4579C0 9.62319 9.5939 0.0292969 21.4286 0.0292969C33.2632 0.0292969 42.8571 9.62319 42.8571 21.4579C42.8571 33.2925 33.2632 42.8864 21.4286 42.8864C9.5939 42.8864 0 33.2925 0 21.4579Z" fill="#161310"/>
<mask id="mask0" mask-type="alpha" maskUnits="userSpaceOnUse" x="0" y="0" width="43" height="43">
<path fill-rule="evenodd" clip-rule="evenodd" d="M0 21.4579C0 9.62319 9.5939 0.0292969 21.4286 0.0292969C33.2632 0.0292969 42.8571 9.62319 42.8571 21.4579C42.8571 33.2925 33.2632 42.8864 21.4286 42.8864C9.5939 42.8864 0 33.2925 0 21.4579Z" fill="white"/>
</mask>
<g mask="url(#mask0)">
<path fill-rule="evenodd" clip-rule="evenodd" d="M21.4296 10.0293C18.3258 10.0293 17.9363 10.0429 16.7172 10.0983C15.5005 10.1541 14.67 10.3467 13.9434 10.6293C13.1917 10.9212 12.5541 11.3117 11.9188 11.9472C11.2831 12.5824 10.8926 13.22 10.5998 13.9715C10.3164 14.6984 10.1236 15.5291 10.0688 16.7453C10.0143 17.9644 10 18.3541 10 21.458C10 24.5618 10.0138 24.9502 10.069 26.1692C10.125 27.3859 10.3176 28.2164 10.6 28.9431C10.8922 29.6947 11.2826 30.3324 11.9181 30.9676C12.5531 31.6033 13.1907 31.9948 13.9419 32.2867C14.6691 32.5693 15.4998 32.7619 16.7163 32.8176C17.9353 32.8731 18.3246 32.8867 21.4282 32.8867C24.5323 32.8867 24.9206 32.8731 26.1397 32.8176C27.3564 32.7619 28.1878 32.5693 28.915 32.2867C29.6664 31.9948 30.3031 31.6033 30.9381 30.9676C31.5738 30.3324 31.9643 29.6947 32.2571 28.9433C32.5381 28.2164 32.7309 27.3857 32.7881 26.1695C32.8429 24.9504 32.8571 24.5618 32.8571 21.458C32.8571 18.3541 32.8429 17.9646 32.7881 16.7456C32.7309 15.5289 32.5381 14.6984 32.2571 13.9717C31.9643 13.22 31.5738 12.5824 30.9381 11.9472C30.3024 11.3115 29.6666 10.921 28.9142 10.6293C28.1857 10.3467 27.3547 10.1541 26.138 10.0983C24.919 10.0429 24.5309 10.0293 21.4261 10.0293H21.4296ZM20.4043 12.0889C20.6034 12.0886 20.8175 12.0887 21.0486 12.0888L21.4296 12.0889C24.481 12.0889 24.8427 12.0999 26.0477 12.1546C27.162 12.2056 27.7668 12.3918 28.1696 12.5482C28.703 12.7554 29.0832 13.003 29.483 13.403C29.883 13.803 30.1306 14.1839 30.3382 14.7173C30.4946 15.1197 30.6811 15.7244 30.7318 16.8387C30.7866 18.0435 30.7985 18.4054 30.7985 21.4554C30.7985 24.5055 30.7866 24.8674 30.7318 26.0722C30.6808 27.1865 30.4946 27.7912 30.3382 28.1936C30.1311 28.727 29.883 29.1067 29.483 29.5065C29.083 29.9065 28.7032 30.1541 28.1696 30.3613C27.7672 30.5184 27.162 30.7041 26.0477 30.7551C24.8429 30.8098 24.481 30.8217 21.4296 30.8217C18.3779 30.8217 18.0162 30.8098 16.8114 30.7551C15.6971 30.7036 15.0923 30.5174 14.6892 30.361C14.1559 30.1539 13.7749 29.9062 13.3749 29.5062C12.9749 29.1062 12.7273 28.7262 12.5197 28.1927C12.3633 27.7903 12.1768 27.1855 12.1261 26.0712C12.0714 24.8664 12.0604 24.5045 12.0604 21.4526C12.0604 18.4007 12.0714 18.0407 12.1261 16.8359C12.1771 15.7216 12.3633 15.1168 12.5197 14.7139C12.7268 14.1806 12.9749 13.7997 13.3749 13.3997C13.7749 12.9996 14.1559 12.752 14.6892 12.5444C15.0921 12.3873 15.6971 12.2015 16.8114 12.1504C17.8657 12.1027 18.2743 12.0884 20.4043 12.0861V12.0889ZM26.1588 15.3574C26.1588 14.6 26.773 13.9865 27.5302 13.9865V13.986C28.2873 13.986 28.9016 14.6003 28.9016 15.3574C28.9016 16.1146 28.2873 16.7289 27.5302 16.7289C26.773 16.7289 26.1588 16.1146 26.1588 15.3574ZM21.4293 15.5889C18.1882 15.589 15.5605 18.2169 15.5605 21.458C15.5605 24.6992 18.1883 27.3259 21.4296 27.3259C24.6708 27.3259 27.2977 24.6992 27.2977 21.458C27.2977 18.2168 24.6706 15.5889 21.4293 15.5889ZM25.2391 21.458C25.2391 19.3539 23.5334 17.6484 21.4296 17.6484C19.3255 17.6484 17.62 19.3539 17.62 21.458C17.62 23.5618 19.3255 25.2676 21.4296 25.2676C23.5334 25.2676 25.2391 23.5618 25.2391 21.458Z" fill="white"/>
</g>
</svg>
