<svg width="332" height="365" viewBox="0 0 332 365" fill="none" xmlns="http://www.w3.org/2000/svg">
<path d="M36 38V56" stroke="#D02A63" stroke-width="2"/>
<path d="M36 157V175" stroke="#D02A63" stroke-width="2"/>
<path d="M36 303V321" stroke="#D02A63" stroke-width="2"/>
<path d="M1.00005 0V33.9525C1.00005 50.5211 14.4315 63.9526 31.0001 63.9526H301C317.569 63.9526 331 77.384 331 93.9526V151.5C331 168.069 317.569 181.5 301 181.5H31.0001C14.4315 181.5 1.00005 194.931 1.00004 211.5L1 299.5C1 316.069 14.4315 329.5 31 329.5H158.5C169.546 329.5 178.5 338.454 178.5 349.5V363.034" stroke="#D02A63" stroke-width="2"/>
<path d="M188.033 356.598L179.026 363.429C178.668 363.7 178.174 363.7 177.817 363.429L168.809 356.598" stroke="#D02A63" stroke-width="2"/>
<path d="M36 72C40.4183 72 44 68.4183 44 64C44 59.5817 40.4183 56 36 56C31.5817 56 28 59.5817 28 64C28 68.4183 31.5817 72 36 72Z" fill="white" stroke="#D02A63" stroke-width="2"/>
<path d="M36 191C40.4183 191 44 187.418 44 183C44 178.582 40.4183 175 36 175C31.5817 175 28 178.582 28 183C28 187.418 31.5817 191 36 191Z" fill="white" stroke="#D02A63" stroke-width="2"/>
<path d="M36 337C40.4183 337 44 333.418 44 329C44 324.582 40.4183 321 36 321C31.5817 321 28 324.582 28 329C28 333.418 31.5817 337 36 337Z" fill="white" stroke="#D02A63" stroke-width="2"/>
</svg>
