<svg width="43" height="43" viewBox="0 0 43 43" fill="none" xmlns="http://www.w3.org/2000/svg">
<path fill-rule="evenodd" clip-rule="evenodd" d="M42.9646 21.4579C42.9646 33.2925 33.3707 42.8864 21.536 42.8864C9.70132 42.8864 0.107422 33.2925 0.107422 21.4579C0.107422 9.6232 9.70132 0.0292969 21.536 0.0292969C33.3707 0.0292969 42.9646 9.6232 42.9646 21.4579ZM14.4571 19.4949C12.3105 20.4321 10.1049 21.3951 8.08807 22.506L8.08793 22.5062C7.03482 23.2772 8.43461 23.8226 9.74771 24.3341C9.95647 24.4155 10.163 24.496 10.3572 24.5764C10.5188 24.626 10.6831 24.6784 10.8496 24.7314C12.31 25.1967 13.9385 25.7155 15.3563 24.9351C17.6854 23.5971 19.8834 22.0503 22.0797 20.5047C22.7992 19.9983 23.5186 19.492 24.2424 18.9933C24.2763 18.9716 24.3146 18.9468 24.3564 18.9197C24.973 18.52 26.3596 17.6211 25.8467 18.8597C24.6338 20.1861 23.3346 21.3603 22.0284 22.5408C21.1481 23.3365 20.2646 24.135 19.4021 24.985C18.6508 25.5954 17.8708 26.8228 18.712 27.6775C20.6494 29.0338 22.617 30.3572 24.5835 31.6799C25.2235 32.1103 25.8633 32.5406 26.502 32.972C27.5843 33.8361 29.2758 33.1371 29.5138 31.7868C29.6196 31.1656 29.7258 30.5445 29.8321 29.9232C30.4192 26.4905 31.0065 23.0566 31.5254 19.6127C31.5959 19.0725 31.6758 18.5323 31.7558 17.9919C31.9496 16.6819 32.1437 15.3704 32.2043 14.0534C32.0481 12.7392 30.4546 13.0282 29.5677 13.3237C25.0095 15.0581 20.4968 16.9212 16.002 18.8171C15.4928 19.0427 14.9767 19.268 14.4571 19.4949Z" fill="#161310"/>
</svg>
