<svg width="44" height="44" viewBox="0 0 44 44" fill="none" xmlns="http://www.w3.org/2000/svg">
<path fill-rule="evenodd" clip-rule="evenodd" d="M21.6786 0.886719C9.8439 0.886719 0.25 10.4806 0.25 22.3153C0.25 34.15 9.8439 43.7439 21.6786 43.7439C33.5132 43.7439 43.1071 34.15 43.1071 22.3153C43.1071 10.4806 33.5132 0.886719 21.6786 0.886719ZM21.0818 19.0456L21.0368 18.3041C20.9019 16.3823 22.086 14.627 23.9596 13.946C24.6491 13.7039 25.8182 13.6736 26.5827 13.8855C26.8824 13.9763 27.452 14.2789 27.8567 14.5513L28.5912 15.0507L29.4006 14.7934C29.8502 14.6572 30.4498 14.4303 30.7196 14.2789C30.9744 14.1427 31.1992 14.0671 31.1992 14.1125C31.1992 14.3697 30.6446 15.2474 30.18 15.7316C29.5504 16.4126 29.7303 16.4731 31.0044 16.0191C31.7688 15.7619 31.7838 15.7619 31.6339 16.0494C31.544 16.2007 31.0793 16.7303 30.5847 17.2146C29.7453 18.0468 29.7003 18.1376 29.7003 18.8337C29.7003 19.9081 29.1907 22.1477 28.6811 23.3734C27.7368 25.6735 25.7133 28.0492 23.6898 29.2447C20.8419 30.9243 17.0498 31.348 13.8571 30.3644C12.7929 30.0315 10.9643 29.1841 10.9643 29.0328C10.9643 28.9874 11.5189 28.9269 12.1934 28.9117C13.6023 28.8815 15.0113 28.488 16.2104 27.792L17.0198 27.3077L16.0905 26.99C14.7715 26.536 13.5873 25.4919 13.2876 24.5083C13.1976 24.1905 13.2276 24.1754 14.067 24.1754L14.9363 24.1602L14.2019 23.8122C13.3325 23.3734 12.5381 22.6319 12.1484 21.8753C11.8636 21.3305 11.5039 19.9535 11.6088 19.8476C11.6388 19.8022 11.9535 19.893 12.3133 20.014C13.3475 20.3923 13.4824 20.3015 12.8829 19.666C11.7587 18.5159 11.414 16.806 11.9535 15.1869L12.2084 14.4605L13.1976 15.4441C15.2211 17.4264 17.6043 18.6067 20.3323 18.9548L21.0818 19.0456Z" fill="#161310"/>
</svg>
