<svg width="44" height="44" viewBox="0 0 44 44" fill="none" xmlns="http://www.w3.org/2000/svg">
<g clip-path="url(#clip0)">
<path d="M43.572 22.3153C43.572 10.4794 33.9794 0.886719 22.1434 0.886719C10.3075 0.886719 0.714844 10.4794 0.714844 22.3153C0.714844 33.0128 8.54966 41.8772 18.7952 43.4844V28.5095H13.3544V22.3153H18.7952V17.5943C18.7952 12.2246 21.9927 9.25725 26.8895 9.25725C29.2333 9.25725 31.6858 9.67578 31.6858 9.67578V14.9492H28.9821C26.3203 14.9492 25.4916 16.6024 25.4916 18.2974V22.3153H31.4347L30.4847 28.5095H25.4916V43.4844C35.7372 41.8772 43.572 33.0128 43.572 22.3153Z" fill="#161310"/>
<path d="M30.4838 28.51L31.4339 22.3158H25.4908V18.298C25.4908 16.603 26.3195 14.9498 28.9813 14.9498H31.685V9.67634C31.685 9.67634 29.2324 9.25781 26.8887 9.25781C21.9919 9.25781 18.7944 12.2252 18.7944 17.5949V22.3158H13.3535V28.51H18.7944V43.4849C19.8867 43.6565 21.0042 43.7444 22.1426 43.7444C23.281 43.7444 24.3984 43.6565 25.4908 43.4849V28.51H30.4838Z" fill="white"/>
</g>
<defs>
<clipPath id="clip0">
<rect width="42.8571" height="42.8571" fill="white" transform="translate(0.714844 0.886719)"/>
</clipPath>
</defs>
</svg>
