<svg width="19" height="18" viewBox="0 0 19 18" fill="none" xmlns="http://www.w3.org/2000/svg">
<path d="M9.22277 4.28372C6.70561 4.28372 4.61996 6.33341 4.61996 8.88653C4.61996 11.4396 6.66965 13.4893 9.22277 13.4893C11.7759 13.4893 13.8256 11.4037 13.8256 8.88653C13.8256 6.36937 11.7399 4.28372 9.22277 4.28372ZM9.22277 11.8352C7.60459 11.8352 6.27409 10.5047 6.27409 8.88653C6.27409 7.26835 7.60459 5.93785 9.22277 5.93785C10.8409 5.93785 12.1714 7.26835 12.1714 8.88653C12.1714 10.5047 10.8409 11.8352 9.22277 11.8352Z" fill="#161310"/>
<path d="M14.0053 5.21481C14.5812 5.21481 15.0481 4.74792 15.0481 4.17199C15.0481 3.59605 14.5812 3.12917 14.0053 3.12917C13.4294 3.12917 12.9625 3.59605 12.9625 4.17199C12.9625 4.74792 13.4294 5.21481 14.0053 5.21481Z" fill="#161310"/>
<path d="M16.7022 1.47824C15.7672 0.507338 14.4367 0.00390625 12.9264 0.00390625H5.5188C2.39033 0.00390625 0.304688 2.08955 0.304688 5.21802V12.5897C0.304688 14.136 0.808119 15.4665 1.81498 16.4374C2.78589 17.3723 4.08043 17.8398 5.55476 17.8398H12.8905C14.4367 17.8398 15.7313 17.3363 16.6662 16.4374C17.6371 15.5024 18.1406 14.1719 18.1406 12.6257V5.21802C18.1406 3.70773 17.6371 2.41319 16.7022 1.47824ZM16.5583 12.6257C16.5583 13.7404 16.1628 14.6394 15.5155 15.2507C14.8683 15.862 13.9693 16.1856 12.8905 16.1856H5.55476C4.47598 16.1856 3.577 15.862 2.92973 15.2507C2.28246 14.6034 1.95882 13.7044 1.95882 12.5897V5.21802C1.95882 4.13924 2.28246 3.24025 2.92973 2.59298C3.54104 1.98167 4.47598 1.65804 5.55476 1.65804H12.9624C14.0412 1.65804 14.9402 1.98167 15.5874 2.62894C16.1988 3.27621 16.5583 4.1752 16.5583 5.21802V12.6257Z" fill="#161310"/>
</svg>
