<svg width="22" height="12" viewBox="0 0 22 12" fill="none" xmlns="http://www.w3.org/2000/svg">
<path d="M5.8431 9.73344C8.25756 12.0855 10.9964 11.9314 10.9964 11.9314H12.2409C12.2409 11.9314 12.6185 11.8916 12.8099 11.6977C12.9854 11.5187 12.9801 11.1855 12.9801 11.1855C12.9801 11.1855 12.9535 9.62901 13.73 9.39529C14.4905 9.17152 15.4743 10.902 16.5114 11.5684C17.2985 12.0706 17.8941 11.9612 17.8941 11.9612L20.6649 11.9264C20.6649 11.9264 22.1168 11.8419 21.4307 10.7777C21.3722 10.6882 21.0319 9.98705 19.3673 8.54495C17.6282 7.03324 17.8622 7.27691 19.9576 4.66622C21.2339 3.07494 21.7445 2.10526 21.5849 1.68755C21.4307 1.28973 20.4947 1.39416 20.4947 1.39416L17.3676 1.41405C17.3676 1.41405 17.1336 1.38421 16.9634 1.47869C16.7933 1.57317 16.6869 1.79197 16.6869 1.79197C16.6869 1.79197 16.1923 3.02521 15.5328 4.06949C14.1395 6.27738 13.5864 6.39673 13.3577 6.25749C12.8312 5.93924 12.9588 4.97453 12.9588 4.28829C12.9588 2.14504 13.3045 1.25492 12.2834 1.0212C11.9431 0.946609 11.6931 0.891909 10.8262 0.886936C9.70943 0.87699 8.76811 0.891909 8.23097 1.13557C7.87465 1.29967 7.60342 1.66268 7.76829 1.68257C7.9757 1.70744 8.4437 1.80192 8.68833 2.1152C9.00742 2.52297 8.99679 3.43795 8.99679 3.43795C8.99679 3.43795 9.18293 5.95913 8.56601 6.27241C8.14588 6.48624 7.56619 6.04864 6.32706 4.04463C5.68887 3.02024 5.21024 1.88148 5.21024 1.88148C5.21024 1.88148 5.11983 1.66766 4.95496 1.55826C4.75287 1.41902 4.47632 1.37924 4.47632 1.37924L1.50877 1.39913C1.50877 1.39913 1.06205 1.40907 0.897182 1.59306C0.748272 1.74722 0.886545 2.08039 0.886545 2.08039C0.886545 2.08039 3.2106 7.1675 5.8431 9.73344Z" fill="#161310"/>
</svg>
