<svg width="13" height="18" viewBox="0 0 13 18" fill="none" xmlns="http://www.w3.org/2000/svg">
<path fill-rule="evenodd" clip-rule="evenodd" d="M1.82686 4.53433C1.81157 6.99054 3.96269 9.02351 6.58604 9.03187C9.23601 9.04041 11.402 7.05368 11.4155 4.60248C11.4289 2.09335 9.29819 0.0633438 6.64365 0.0566583C3.99448 0.049787 1.84196 2.051 1.82686 4.53433ZM6.62458 2.3487C7.92662 2.34981 8.96563 3.32071 8.9702 4.54027C8.97457 5.75965 7.93834 6.73686 6.6367 6.74113C5.33109 6.74558 4.28314 5.78156 4.2734 4.56664C4.26327 3.33594 5.31162 2.3474 6.62458 2.3487ZM1.75951 11.232C2.89467 12.0621 4.22055 12.4007 5.69105 12.5441C5.6511 12.584 5.61667 12.6191 5.58536 12.651C5.53526 12.7021 5.49317 12.7451 5.44928 12.7865C5.23971 12.9829 5.03016 13.1794 4.82059 13.3759C3.95184 14.1904 3.08292 15.0051 2.21206 15.818C1.98857 16.0266 1.82845 16.2592 1.81255 16.5636C1.78951 17.0136 2.0881 17.4614 2.55734 17.6741C2.99877 17.8745 3.45172 17.8114 3.83236 17.4605C4.68006 16.6791 5.52278 15.8933 6.352 15.0952C6.55941 14.8957 6.67245 14.8522 6.90747 15.082C7.45039 15.6132 8.00786 16.1313 8.56539 16.6494C8.83715 16.902 9.10892 17.1546 9.37903 17.4087C9.59418 17.6113 9.83636 17.7558 10.1469 17.7759C10.637 17.8073 11.1368 17.514 11.3601 17.0682C11.5643 16.6604 11.4868 16.2256 11.1159 15.8749C10.4239 15.2207 9.72853 14.5695 9.03314 13.9183C8.63455 13.5451 8.23596 13.1718 7.838 12.798C7.78141 12.7448 7.7352 12.6975 7.66501 12.6256C7.64109 12.6011 7.61438 12.5738 7.58352 12.5424C8.3879 12.4525 9.20063 12.3171 9.94264 12.0482C10.7274 11.7636 11.4336 11.3559 12.0209 10.7924C12.4037 10.4248 12.4077 9.96271 12.0969 9.48927C11.825 9.0747 11.3524 8.90067 10.8456 9.02233C10.5849 9.0851 10.36 9.20806 10.1496 9.35888C8.02614 10.6943 5.1199 10.6568 3.00433 9.29777C2.90063 9.23054 2.79236 9.16794 2.67872 9.11779C2.09187 8.85906 1.52727 8.97961 1.19094 9.4302C0.797782 9.95677 0.847845 10.4677 1.3447 10.9139C1.44747 11.0061 1.56104 11.0882 1.67443 11.1702C1.70286 11.1908 1.73128 11.2113 1.75951 11.232Z" fill="#161310"/>
</svg>
