<svg width="226" height="287" viewBox="0 0 226 287" fill="none" xmlns="http://www.w3.org/2000/svg">
<path d="M140.939 225.211C140.939 225.211 186.334 209.724 186.214 209.185C181.183 173.472 209.781 118.986 185.299 85.5622C170.207 64.9583 141.854 50.7291 108.012 63.1259C69.1405 77.3654 47.0135 138.196 87.8903 171.641C130.878 206.813 140.939 225.211 140.939 225.211Z" stroke="#8AD8FF" stroke-width="4"/>
<path d="M108.927 40.6909L93.8354 1.31445" stroke="#8AD8FF" stroke-width="4"/>
<path d="M173.866 49.8486L204.963 5.89355" stroke="#8AD8FF" stroke-width="4"/>
<path d="M211.366 103.418L243.378 93.8027" stroke="#8AD8FF" stroke-width="4"/>
<path d="M58.1646 91.5142L1 71.3682" stroke="#8AD8FF" stroke-width="4"/>
<path d="M145.512 243.935L192.665 223.089" stroke="#8AD8FF" stroke-width="4"/>
<path d="M149.261 257.02L196.414 236.175" stroke="#8AD8FF" stroke-width="4"/>
<path d="M153.864 271.078L201.017 250.233" stroke="#8AD8FF" stroke-width="4"/>
<path d="M148.256 202.317C146.478 200.537 122.087 165.734 109.104 147.109C108.642 146.446 109.12 145.542 109.928 145.542H140.126C140.356 145.542 140.579 145.463 140.758 145.317L165.832 124.893C166.485 124.361 167.463 124.826 167.463 125.669V197.281" stroke="#8AD8FF" stroke-width="4"/>
<path d="M4.20117 169.808L54.5061 153.783" stroke="#8AD8FF" stroke-width="4"/>
<path d="M67.311 239.405L90.1769 200.028" stroke="#8AD8FF" stroke-width="4"/>
<path d="M205.878 170.725L236.975 188.123" stroke="#8AD8FF" stroke-width="4"/>
<path d="M162.796 284.319L175.143 284.352L198.491 275.256L202.632 265.652" stroke="#8AD8FF" stroke-width="4"/>
</svg>
