<svg width="19" height="19" viewBox="0 0 19 19" fill="none" xmlns="http://www.w3.org/2000/svg">
<path d="M9.40713 6.0285C9.87963 6.0285 10.177 5.7045 10.1631 5.2995C10.1631 4.88137 9.87963 4.55737 9.43451 4.55737C9.00288 4.55737 8.69238 4.881 8.69238 5.2995C8.69238 5.7045 8.98901 6.0285 9.40713 6.0285Z" fill="#161310"/>
<path d="M10.0283 13.216V7.66749C10.0283 7.17887 9.63346 7.13762 9.52171 7.13574H9.30946C9.30946 7.13574 8.84033 7.14024 8.84033 7.56774V13.3064C8.84896 13.4361 8.90596 13.669 9.21571 13.669H9.65858C9.79021 13.6585 10.0283 13.5899 10.0283 13.216Z" fill="#161310"/>
<path d="M9.42773 0.113281C4.45748 0.113281 0.427734 4.14228 0.427734 9.11328C0.427734 14.0835 4.45711 18.1133 9.42773 18.1133C14.3987 18.1133 18.4277 14.0835 18.4277 9.11328C18.4277 4.14228 14.3987 0.113281 9.42773 0.113281ZM9.42773 16.6133C5.28586 16.6133 1.92773 13.2552 1.92773 9.11328C1.92773 4.97066 5.28586 1.61328 9.42773 1.61328C13.5704 1.61328 16.9277 4.97103 16.9277 9.11328C16.9277 13.2552 13.5704 16.6133 9.42773 16.6133Z" fill="#161310"/>
</svg>
