<svg width="14" height="14" viewBox="0 0 14 14" fill="none" xmlns="http://www.w3.org/2000/svg">
<path d="M7.08853 3.28486C5.2763 3.28486 3.77474 4.76053 3.77474 6.59865C3.77474 8.43676 5.25042 9.91243 7.08853 9.91243C8.92665 9.91243 10.4023 8.41087 10.4023 6.59865C10.4023 4.78642 8.90076 3.28486 7.08853 3.28486ZM7.08853 8.72154C5.92353 8.72154 4.96564 7.76365 4.96564 6.59865C4.96564 5.43364 5.92353 4.47575 7.08853 4.47575C8.25354 4.47575 9.21143 5.43364 9.21143 6.59865C9.21143 7.76365 8.25354 8.72154 7.08853 8.72154Z" fill="#FABE59"/>
<path d="M7.08853 3.28486C5.2763 3.28486 3.77474 4.76053 3.77474 6.59865C3.77474 8.43676 5.25042 9.91243 7.08853 9.91243C8.92665 9.91243 10.4023 8.41087 10.4023 6.59865C10.4023 4.78642 8.90076 3.28486 7.08853 3.28486ZM7.08853 8.72154C5.92353 8.72154 4.96564 7.76365 4.96564 6.59865C4.96564 5.43364 5.92353 4.47575 7.08853 4.47575C8.25354 4.47575 9.21143 5.43364 9.21143 6.59865C9.21143 7.76365 8.25354 8.72154 7.08853 8.72154Z" fill="url(#paint0_linear)"/>
<path d="M10.5317 3.9552C10.9464 3.9552 11.2825 3.61906 11.2825 3.20442C11.2825 2.78978 10.9464 2.45364 10.5317 2.45364C10.1171 2.45364 9.78094 2.78978 9.78094 3.20442C9.78094 3.61906 10.1171 3.9552 10.5317 3.9552Z" fill="#FABE59"/>
<path d="M10.5317 3.9552C10.9464 3.9552 11.2825 3.61906 11.2825 3.20442C11.2825 2.78978 10.9464 2.45364 10.5317 2.45364C10.1171 2.45364 9.78094 2.78978 9.78094 3.20442C9.78094 3.61906 10.1171 3.9552 10.5317 3.9552Z" fill="url(#paint1_linear)"/>
<path d="M12.4733 1.26506C11.8002 0.566059 10.8423 0.203613 9.75499 0.203613H4.42187C2.16953 0.203613 0.667969 1.70517 0.667969 3.95751V9.26475C0.667969 10.378 1.03041 11.3359 1.7553 12.0349C2.45431 12.708 3.38631 13.0445 4.44776 13.0445H9.7291C10.8423 13.0445 11.7743 12.6821 12.4474 12.0349C13.1464 11.3618 13.5089 10.4039 13.5089 9.29064V3.95751C13.5089 2.87018 13.1464 1.93817 12.4733 1.26506ZM12.3698 9.29064C12.3698 10.0932 12.085 10.7404 11.619 11.1805C11.153 11.6206 10.5058 11.8536 9.7291 11.8536H4.44776C3.67109 11.8536 3.02386 11.6206 2.55786 11.1805C2.09186 10.7145 1.85886 10.0673 1.85886 9.26475V3.95751C1.85886 3.18084 2.09186 2.53362 2.55786 2.06762C2.99797 1.62751 3.67109 1.39451 4.44776 1.39451H9.78088C10.5575 1.39451 11.2048 1.62751 11.6708 2.09351C12.1109 2.55951 12.3698 3.20673 12.3698 3.95751V9.29064Z" fill="#FABE59"/>
<path d="M12.4733 1.26506C11.8002 0.566059 10.8423 0.203613 9.75499 0.203613H4.42187C2.16953 0.203613 0.667969 1.70517 0.667969 3.95751V9.26475C0.667969 10.378 1.03041 11.3359 1.7553 12.0349C2.45431 12.708 3.38631 13.0445 4.44776 13.0445H9.7291C10.8423 13.0445 11.7743 12.6821 12.4474 12.0349C13.1464 11.3618 13.5089 10.4039 13.5089 9.29064V3.95751C13.5089 2.87018 13.1464 1.93817 12.4733 1.26506ZM12.3698 9.29064C12.3698 10.0932 12.085 10.7404 11.619 11.1805C11.153 11.6206 10.5058 11.8536 9.7291 11.8536H4.44776C3.67109 11.8536 3.02386 11.6206 2.55786 11.1805C2.09186 10.7145 1.85886 10.0673 1.85886 9.26475V3.95751C1.85886 3.18084 2.09186 2.53362 2.55786 2.06762C2.99797 1.62751 3.67109 1.39451 4.44776 1.39451H9.78088C10.5575 1.39451 11.2048 1.62751 11.6708 2.09351C12.1109 2.55951 12.3698 3.20673 12.3698 3.95751V9.29064Z" fill="url(#paint2_linear)"/>
<defs>
<linearGradient id="paint0_linear" x1="0.667969" y1="17.5408" x2="15.3683" y2="0.203613" gradientUnits="userSpaceOnUse">
<stop stop-color="#F9B150"/>
<stop offset="1" stop-color="#A91AA6"/>
</linearGradient>
<linearGradient id="paint1_linear" x1="0.667969" y1="17.5408" x2="15.3683" y2="0.203613" gradientUnits="userSpaceOnUse">
<stop stop-color="#F9B150"/>
<stop offset="1" stop-color="#A91AA6"/>
</linearGradient>
<linearGradient id="paint2_linear" x1="0.667969" y1="17.5408" x2="15.3683" y2="0.203613" gradientUnits="userSpaceOnUse">
<stop stop-color="#F9B150"/>
<stop offset="1" stop-color="#A91AA6"/>
</linearGradient>
</defs>
</svg>
