<svg width="15" height="15" viewBox="0 0 15 15" fill="none" xmlns="http://www.w3.org/2000/svg">
<path d="M7.52259 3.58483C5.45885 3.58483 3.74889 5.2653 3.74889 7.35852C3.74889 9.45174 5.42937 11.1322 7.52259 11.1322C9.61581 11.1322 11.2963 9.42226 11.2963 7.35852C11.2963 5.29478 9.58633 3.58483 7.52259 3.58483ZM7.52259 9.77605C6.1959 9.77605 5.10506 8.68521 5.10506 7.35852C5.10506 6.03183 6.1959 4.941 7.52259 4.941C8.84928 4.941 9.94011 6.03183 9.94011 7.35852C9.94011 8.68521 8.84928 9.77605 7.52259 9.77605Z" fill="white"/>
<path d="M11.4436 4.3482C11.9158 4.3482 12.2986 3.96541 12.2986 3.49322C12.2986 3.02103 11.9158 2.63824 11.4436 2.63824C10.9715 2.63824 10.5887 3.02103 10.5887 3.49322C10.5887 3.96541 10.9715 4.3482 11.4436 4.3482Z" fill="white"/>
<path d="M13.6547 1.2847C12.8882 0.488691 11.7974 0.075943 10.5591 0.075943H4.48583C1.92089 0.075943 0.210938 1.7859 0.210938 4.35083V10.3946C0.210938 11.6624 0.623685 12.7532 1.44918 13.5492C2.24519 14.3157 3.30655 14.699 4.51531 14.699H10.5296C11.7974 14.699 12.8587 14.2863 13.6252 13.5492C14.4213 12.7827 14.834 11.6918 14.834 10.4241V4.35083C14.834 3.11259 14.4213 2.05124 13.6547 1.2847ZM13.5368 10.4241C13.5368 11.3381 13.2125 12.0751 12.6818 12.5763C12.1511 13.0775 11.4141 13.3428 10.5296 13.3428H4.51531C3.63085 13.3428 2.8938 13.0775 2.36312 12.5763C1.83245 12.0456 1.56711 11.3086 1.56711 10.3946V4.35083C1.56711 3.46637 1.83245 2.72932 2.36312 2.19865C2.86432 1.69745 3.63085 1.43211 4.51531 1.43211H10.5886C11.4731 1.43211 12.2101 1.69745 12.7408 2.22813C13.242 2.7588 13.5368 3.49585 13.5368 4.35083V10.4241Z" fill="white"/>
</svg>
