<svg width="154" height="154" viewBox="0 0 154 154" fill="none" xmlns="http://www.w3.org/2000/svg">
<path d="M124.906 36.0211C122.777 37.4887 119.626 37.4887 117.733 35.7288C115.84 33.9689 115.766 30.5052 117.808 28.9132C118.288 28.5401 119.047 28.3038 119.452 28.7577C119.819 29.1619 119.62 29.7962 119.371 30.2813C117.061 34.7774 111.513 37.3394 106.588 36.1952C106.376 36.1455 106.152 36.0895 105.94 36.1455C105.685 36.2077 105.492 36.4191 105.318 36.6181C102.734 39.5097 99.7137 42.0096 96.3825 44.0058C95.9715 44.2483 95.4983 44.4971 95.0438 44.3603C94.5394 44.211 94.2654 43.6265 94.2966 43.0979C94.3277 42.5693 94.6017 42.0905 94.8632 41.6303C100.274 32.1842 113.176 15.4312 120.585 12.9811" stroke="#161310" stroke-width="2" stroke-miterlimit="10" stroke-linecap="round" stroke-linejoin="round"/>
<path d="M106.208 37.0907C102.808 41.7858 99.6701 46.6798 96.8183 51.7293C95.4672 54.1173 94.172 56.5861 93.5867 59.2663C93.5182 59.5773 93.4622 59.9068 93.5556 60.2116C93.6552 60.5411 93.923 60.7961 94.2218 60.9764C95.2243 61.5859 95.8906 61.4491 96.7374 60.6344C99.035 58.4206 109.446 43.7322 110.106 42.5631" stroke="#161310" stroke-width="2" stroke-miterlimit="10" stroke-linecap="round" stroke-linejoin="round"/>
<path d="M110.106 42.563C106.706 47.2581 103.948 51.6235 101.096 56.6731C99.7447 59.061 98.4496 61.5298 97.8643 64.21C97.7958 64.521 97.7398 64.8505 97.8332 65.1553C97.9328 65.4848 98.2006 65.7398 98.4994 65.9202C99.5019 66.5296 100.168 66.3928 101.015 65.5781C103.313 63.3643 114.701 47.0591 115.367 45.8962" stroke="#161310" stroke-width="2" stroke-miterlimit="10" stroke-linecap="round" stroke-linejoin="round"/>
<path d="M115.834 44.9821C112.435 49.6771 110.741 52.5563 107.889 57.6059C106.538 59.9938 105.243 62.4626 104.658 65.1428C104.589 65.4538 104.533 65.7834 104.626 66.0881C104.726 66.4177 104.994 66.6726 105.293 66.853C106.295 67.4624 106.961 67.3256 107.808 66.5109C110.106 64.2971 120.361 48.0478 121.027 46.8787" stroke="#161310" stroke-width="2" stroke-miterlimit="10" stroke-linecap="round" stroke-linejoin="round"/>
<path d="M121.021 46.8789C121.021 46.8789 115.573 55.3362 114.757 58.4082C114.315 60.0686 112.814 63.7189 115.423 63.5199C116.089 63.4702 127.011 49.3352 131.737 40.3742C134.495 35.1505 137.353 27.9867 137.254 17.1849" stroke="#161310" stroke-width="2" stroke-miterlimit="10" stroke-linecap="round" stroke-linejoin="round"/>
<path d="M115.92 120.169C114.855 117.818 115.415 114.721 117.489 113.173C119.562 111.631 123.26 112.151 125.069 113.707C126.759 115.161 126.137 116.568 125.069 116.779C124.001 116.989 122.847 116.401 122.035 115.78C118.018 112.708 117.015 106.768 119.02 102.135C119.108 101.936 119.201 101.724 119.189 101.507C119.17 101.245 119.002 101.015 118.834 100.81C116.443 97.7568 114.525 94.3366 113.155 90.7111C112.987 90.2634 112.831 89.7535 113.043 89.3306C113.28 88.858 113.908 88.6963 114.419 88.8269C114.93 88.9575 115.359 89.3057 115.764 89.6415C124.101 96.6499 138.298 112.321 139.388 120.044" stroke="#161310" stroke-width="2" stroke-miterlimit="10" stroke-linecap="round" stroke-linejoin="round"/>
<path d="M109.175 92.869C107.065 91.1153 101.156 86.2835 98.6159 85.2263C98.3233 85.1019 98.0057 84.99 97.6944 85.0273C97.352 85.0708 97.0531 85.2885 96.8227 85.5435C96.0444 86.4203 96.0568 87.0981 96.7106 88.0744C98.4852 90.7298 111.088 103.584 112.121 104.448" stroke="#161310" stroke-width="2" stroke-miterlimit="10" stroke-linecap="round" stroke-linejoin="round"/>
<path d="M112.128 104.454C108.105 100.269 104.301 96.7805 99.8366 93.0804C97.7258 91.3267 95.5278 89.6104 92.9874 88.5532C92.6947 88.4288 92.3772 88.3169 92.0658 88.3542C91.7234 88.3977 91.4245 88.6154 91.1941 88.8704C90.4158 89.7472 90.4282 90.425 91.082 91.4013C92.8566 94.0567 106.873 108.161 107.906 109.025" stroke="#161310" stroke-width="2" stroke-miterlimit="10" stroke-linecap="round" stroke-linejoin="round"/>
<path d="M108.716 109.647C104.693 105.462 102.165 103.285 97.7008 99.5788C95.59 97.8251 93.3921 96.1088 90.8516 95.0516C90.559 94.9273 90.2414 94.8153 89.9301 94.8526C89.5876 94.8962 89.2888 95.1138 89.0584 95.3688C88.28 96.2456 88.2925 96.9234 88.9463 97.8998C90.7209 100.555 104.886 113.54 105.92 114.398" stroke="#161310" stroke-width="2" stroke-miterlimit="10" stroke-linecap="round" stroke-linejoin="round"/>
<path d="M105.92 114.404C105.92 114.404 98.5663 107.539 95.6771 106.189C94.1205 105.455 90.7955 103.329 90.5215 105.928C90.453 106.593 102.42 119.852 110.409 126.101C115.067 129.745 121.611 133.837 132.264 135.672" stroke="#161310" stroke-width="2" stroke-miterlimit="10" stroke-linecap="round" stroke-linejoin="round"/>
<path d="M35.6741 118.172C37.5671 116.626 40.5495 116.312 42.4867 117.73C44.4183 119.15 44.7931 121.288 44.287 123.451C43.6543 126.154 41.5312 127.233 40.663 125.563C39.7948 123.894 40.579 122.648 41.0273 121.812C42.1375 119.739 48.249 115.649 53.0008 116.204C53.2051 116.229 53.4225 116.256 53.6192 116.189C53.8543 116.104 54.0237 115.897 54.1703 115.696C56.3785 112.802 59.0412 110.229 62.0286 108.083C62.3978 107.819 62.8272 107.55 63.2681 107.626C63.7608 107.711 64.0657 108.221 64.0728 108.703C64.0799 109.185 63.8671 109.653 63.6595 110.096C59.2998 119.239 48.4453 135.78 41.6261 138.745" stroke="#161310" stroke-width="2" stroke-miterlimit="10" stroke-linecap="round" stroke-linejoin="round"/>
<path d="M59.0578 105.15C60.1425 102.841 63.1085 96.3967 63.447 93.8912C63.4884 93.6019 63.5122 93.2939 63.4005 93.0303C63.2753 92.7409 63.0011 92.5351 62.7098 92.3991C61.7112 91.9438 61.0921 92.131 60.3584 92.959C58.3623 95.2078 49.6973 109.616 49.1609 110.749" stroke="#161310" stroke-width="2" stroke-miterlimit="10" stroke-linecap="round" stroke-linejoin="round"/>
<path d="M49.1567 110.756C51.9981 106.135 54.2543 101.888 56.5404 97.0055C57.6252 94.6961 58.654 92.3198 58.9926 89.8143C59.0339 89.525 59.0577 89.217 58.946 88.9534C58.8209 88.664 58.5467 88.4582 58.2553 88.3222C57.2568 87.8669 56.6376 88.0541 55.904 88.8821C53.9078 91.1308 44.447 107.105 43.9106 108.238" stroke="#161310" stroke-width="2" stroke-miterlimit="10" stroke-linecap="round" stroke-linejoin="round"/>
<path d="M43.541 109.11C46.3824 104.49 47.7516 101.704 50.0435 96.8204C51.1282 94.511 52.1571 92.1347 52.4956 89.6292C52.537 89.3399 52.5608 89.032 52.4491 88.7683C52.3239 88.479 52.0498 88.2732 51.7584 88.1372C50.7598 87.6819 50.1407 87.8691 49.407 88.6971C47.4109 90.9458 39.0148 106.76 38.4841 107.891" stroke="#161310" stroke-width="2" stroke-miterlimit="10" stroke-linecap="round" stroke-linejoin="round"/>
<path d="M38.4784 107.893C38.4784 107.893 42.9516 99.6507 43.4717 96.763C43.7581 95.2054 44.8833 91.7328 42.4289 92.1683C41.8011 92.2812 32.607 106.237 28.857 114.877C26.6703 119.914 24.5418 126.724 25.5079 136.555" stroke="#161310" stroke-width="2" stroke-miterlimit="10" stroke-linecap="round" stroke-linejoin="round"/>
<path d="M37.6534 29.6346C38.2262 32.1531 37.0556 35.0759 34.7207 36.1765C32.3857 37.2772 28.7133 36.0904 27.9973 33.6092C27.6004 32.2339 27.4385 31.1599 28.6216 30.7276C29.1322 30.5411 29.9414 31.3738 30.3025 31.7842C33.6213 35.5962 33.9112 42.5382 31.0221 46.686C30.8976 46.8664 30.7606 47.0529 30.7357 47.2644C30.6983 47.5255 30.8228 47.7805 30.9412 48.0168C32.6721 51.4868 33.8739 55.218 34.4903 59.0424C34.565 59.5088 34.6148 60.0436 34.3222 60.4168C33.9922 60.8334 33.3508 60.8645 32.8714 60.6344C32.3919 60.4043 32.0495 59.9814 31.7195 59.5648C24.9387 51.0453 14.1543 32.862 14.6276 25.0825" stroke="#161310" stroke-width="2" stroke-miterlimit="10" stroke-linecap="round" stroke-linejoin="round"/>
<path d="M31.7007 47.3702C34.8015 52.2705 38.1888 56.9966 41.8251 61.5175C43.5436 63.6568 45.3556 65.7773 47.6283 67.3133C47.8898 67.4936 48.1762 67.6678 48.4938 67.6926C48.8362 67.7237 49.1787 67.5683 49.4526 67.3568C50.3929 66.6541 50.5112 65.9825 50.0691 64.9005C48.8611 61.9466 39.073 46.8416 38.2386 45.7906" stroke="#161310" stroke-width="2" stroke-miterlimit="10" stroke-linecap="round" stroke-linejoin="round"/>
<path d="M38.2324 45.7906C41.3332 50.6909 44.3655 54.8698 48.0081 59.3845C49.7266 61.5237 51.5386 63.6443 53.8112 65.1803C54.0728 65.3606 54.3592 65.5347 54.6767 65.5596C55.0192 65.5907 55.3617 65.4352 55.6356 65.2238C56.5758 64.5211 56.6941 63.8495 56.2521 62.7674C55.0441 59.8136 44.1227 43.1974 43.2821 42.1465" stroke="#161310" stroke-width="2" stroke-miterlimit="10" stroke-linecap="round" stroke-linejoin="round"/>
<path d="M42.6096 41.3753C45.7105 46.2756 47.759 48.9123 51.3953 53.4332C53.1139 55.5724 54.9258 57.693 57.1985 59.229C57.46 59.4093 57.7464 59.5834 58.064 59.6083C58.4064 59.6394 58.7489 59.4839 59.0229 59.2725C59.9631 58.5698 60.0814 57.8982 59.6393 56.8161C58.4313 53.8623 47.1364 38.3157 46.302 37.271" stroke="#161310" stroke-width="2" stroke-miterlimit="10" stroke-linecap="round" stroke-linejoin="round"/>
<path d="M46.3022 37.2773C46.3022 37.2773 52.1427 45.4673 54.6956 47.3702C56.0779 48.3962 58.911 51.1449 59.6955 48.6512C59.901 48.0107 50.8165 32.632 44.2412 24.9209C40.4056 20.4248 34.808 15.1141 24.7334 11.1902" stroke="#161310" stroke-width="2" stroke-miterlimit="10" stroke-linecap="round" stroke-linejoin="round"/>
<path d="M77.6084 75.056C77.9413 75.3478 80.9702 69.6345 85.1487 68.8727C85.5988 68.782 86.4189 68.6588 87.2333 69.6345C91.61 74.8767 82.1712 82.2833 76.8552 90.1741" stroke="#BB2454" stroke-width="2" stroke-miterlimit="10" stroke-linecap="round" stroke-linejoin="round"/>
<path d="M76.1739 67.4944C76.2393 66.6361 75.2838 65.0444 74.6181 64.5701C73.9525 64.0958 73.1391 63.8951 72.3386 63.8552C69.8144 63.7295 67.1116 66.1664 66.0698 69.0744C64.4427 73.6103 64.7115 75.1885 74.9175 92.7585" stroke="#BB2454" stroke-width="2" stroke-miterlimit="10" stroke-linecap="round" stroke-linejoin="round"/>
<path d="M76.8592 72.8292C77.4096 75.8825 78.3289 82.3248 75.8596 82.3248C74.6385 82.3248 73.6895 80.4508 75.2766 78.16C77.0913 75.5432 77.6565 74.8637 77.8302 74.8271" stroke="#BB2454" stroke-width="2" stroke-miterlimit="10" stroke-linecap="round" stroke-linejoin="round"/>
</svg>
