<svg width="154" height="154" viewBox="0 0 154 154" fill="none" xmlns="http://www.w3.org/2000/svg">
<path d="M90.2576 69.9274C95.1796 79.0474 111.79 106.522 128.86 102.19C129.201 102.104 128.863 101.499 128.742 101.172C126.969 96.4108 119.408 88.4801 116.353 84.4219C104.965 69.313 99.313 57.0315 90.8518 40.1047" stroke="#161310" stroke-width="2.6" stroke-miterlimit="10" stroke-linecap="round" stroke-linejoin="round"/>
<path d="M70.5908 92.5437C66.005 85.3721 57.1877 79.363 52.1373 72.5129C31.8432 44.9909 71.8753 57.0152 72.545 65.1233C73.1373 72.2994 71.8679 83.0051 70.8454 90.1344C69.9052 96.6886 71.0463 101.717 75.3397 106.756C76.5356 108.159 77.727 109.043 79.4767 108.452C81.8234 107.654 83.9398 89.5065 85.388 82.4615" stroke="#161310" stroke-width="2.6" stroke-miterlimit="10" stroke-linecap="round" stroke-linejoin="round"/>
<path d="M15.7966 49.8068C16.5462 52.1647 21.0916 62.8685 23.2373 70.0719C23.9059 72.3108 24.583 74.5784 25.812 76.5615C29.9083 83.1817 40.6369 85.517 47.8156 88.5352C56.2906 92.0966 63.2163 98.0699 63.9268 107.236C63.9824 107.943 64.0351 108.744 64.5826 109.195C64.9435 109.492 65.4917 109.791 65.9062 109.574C72.129 106.294 71.1357 102.338 70.8388 98.2404" stroke="#161310" stroke-width="2.6" stroke-miterlimit="10" stroke-linecap="round" stroke-linejoin="round"/>
<path d="M112.365 79.0951C116.064 83.4346 124.736 87.5249 130.038 89.6431C134.814 91.5508 140.465 93.1285 144.89 90.4942C145.209 90.3048 145.541 90.0585 145.623 89.698C145.718 89.2807 145.444 88.8749 145.174 88.5445C142.456 85.165 123.788 75.1948 111.682 57.6246" stroke="#161310" stroke-width="2.6" stroke-miterlimit="10" stroke-linecap="round" stroke-linejoin="round"/>
<path d="M112.985 57.8802C118.489 63.1754 126.637 65.5833 134.145 64.1371C134.016 62.6275 132.314 60.5615 130.986 59.8383C112.854 49.9498 96.1008 29.9845 94.9271 29.0746C93.9628 28.3239 92.7825 27.9163 91.6238 27.5194C87.3463 26.0548 48.406 14.4068 44.5317 12.1423" stroke="#161310" stroke-width="2.6" stroke-miterlimit="10" stroke-linecap="round" stroke-linejoin="round"/>
<path d="M115.347 60.0223C111.118 57.3254 98.9981 49.5705 103.087 46.648C103.558 46.3129 105.843 45.7793 108.608 51.2047C111.767 57.399 111.796 57.2533 111.681 57.6246" stroke="#161310" stroke-width="2.6" stroke-miterlimit="10" stroke-linecap="round" stroke-linejoin="round"/>
<path d="M85.0288 109.599C85.9912 109.697 80.9968 94.1525 88.6537 85.9697C89.3401 85.2378 90.6436 83.9794 93.3297 84.684C107.764 88.4688 100.348 113.614 100.885 134.397" stroke="#BB2454" stroke-width="2.6" stroke-miterlimit="10" stroke-linecap="round" stroke-linejoin="round"/>
<path d="M70.9317 94.8895C69.9605 93.2789 66.2426 91.6567 64.4566 91.6559C62.6707 91.6552 60.9686 92.3285 59.493 93.2721C54.8406 96.247 53.1177 104.01 54.9484 110.506C57.8003 120.642 60.2788 123.111 100.711 141.452" stroke="#BB2454" stroke-width="2.6" stroke-miterlimit="10" stroke-linecap="round" stroke-linejoin="round"/>
<path d="M80.9956 105.664C85.8446 110.401 92.8153 119.925 87.8561 120.737C87.2864 120.833 85.0049 120.295 84.927 114.206C84.8411 107.248 84.2699 96.4791 84.5326 96.1938" stroke="#BB2454" stroke-width="2.6" stroke-miterlimit="10" stroke-linecap="round" stroke-linejoin="round"/>
<path d="M85.2058 83.3544C86.1484 78.6935 90.8327 61.9071 91.4693 60.4012" stroke="#161310" stroke-width="2.6" stroke-miterlimit="10" stroke-linecap="round" stroke-linejoin="round"/>
</svg>
