<svg width="100" height="100" viewBox="0 0 100 100" fill="none" xmlns="http://www.w3.org/2000/svg">
<g clip-path="url(#clip0)">
<path d="M93.2293 25.0415C107.036 48.9561 98.8748 79.517 74.9998 93.3013C51.1249 107.085 20.5775 98.8732 6.77038 74.9585C-7.03674 51.0439 1.12487 20.4829 24.9998 6.69872C48.8748 -7.0855 79.4222 1.12682 93.2293 25.0415Z" fill="#57D395"/>
<path fill-rule="evenodd" clip-rule="evenodd" d="M65.6673 36.4463L51.1996 62.111L34.9399 54.6632L36.6188 50.9981L49.5082 56.9021L62.1556 34.4666L65.6673 36.4463Z" fill="#E3FDED"/>
<path d="M28.4693 72.9519L26.6153 75.1875L29.4365 77.5238L31.2904 75.2882L32.1923 76.0335L27.5456 81.6462L26.6438 80.9008L28.7699 78.3338L25.9474 75.9942L23.8213 78.5613L22.9195 77.8159L27.5661 72.2033L28.4693 72.9519Z" fill="#E3FDED"/>
<path d="M36.1071 86.2284L35.0515 85.7263L37.2403 81.1325L30.9251 83.8948L30.5544 83.7182L33.7394 77.0319L34.7949 77.534L32.6136 82.1173L38.9247 79.3642L39.2941 79.5374L36.1071 86.2284Z" fill="#E3FDED"/>
<path d="M44.1375 84.3264L40.4912 87.6806L39.0629 87.4576L42.7738 84.1125L40.4362 80.3001L41.8633 80.5198L44.1375 84.3264ZM45.8472 81.142L44.7341 88.3395L43.5784 88.1592L44.6916 80.9617L45.8472 81.142ZM47.8325 88.8175L45.3611 84.5146L48.6842 81.5767L50.1033 81.7957L46.7347 84.7246L49.2629 89.0359L47.8325 88.8175Z" fill="#E3FDED"/>
<path d="M52.6131 81.3718L53.0177 84.2446L56.6488 83.7355L56.2443 80.8628L57.4043 80.7012L58.4184 87.9144L57.2596 88.0793L56.7955 84.7789L53.1656 85.2913L53.6298 88.5917L52.4711 88.7565L51.457 81.5433L52.6131 81.3718Z" fill="#E3FDED"/>
<path d="M67.5578 84.6821L66.4713 85.1207L64.5578 80.4056L62.3298 86.9292L61.9508 87.0845L59.166 80.2211L60.2525 79.7825L62.1621 84.4877L64.3939 77.9741L64.7729 77.8188L67.5578 84.6821Z" fill="#E3FDED"/>
<path d="M75.6359 79.2919L74.6952 79.987L71.675 75.8941L71.1341 82.7654L70.8046 83.0084L66.4073 77.0484L67.348 76.3533L70.361 80.4376L70.9057 73.5762L71.2352 73.3332L75.6359 79.2919ZM65.9926 74.1988L65.862 74.0204L66.6242 73.4559L66.7765 73.6603C66.9555 73.9039 67.1545 74.0518 67.3736 74.104C67.5927 74.1562 67.8067 74.1072 68.0197 73.9478C68.2328 73.7883 68.3463 73.5989 68.3668 73.3769C68.386 73.1516 68.3022 72.9168 68.1173 72.6678L67.965 72.4635L68.7373 71.8951L68.8679 72.0735C69.1945 72.5194 69.3253 72.9729 69.2596 73.4418C69.1939 73.9107 68.9463 74.3052 68.5123 74.6233C68.0849 74.9389 67.6408 75.0546 67.1759 74.9797C66.7176 74.9022 66.3192 74.6447 65.9926 74.1988Z" fill="#E3FDED"/>
<path d="M82.1283 72.0315C81.6539 72.7169 81.087 73.1747 80.421 73.4075C79.755 73.6402 79.1236 73.5499 78.5164 73.1292C78.1181 72.8526 77.8494 72.5063 77.715 72.0925C77.5805 71.6787 77.5766 71.237 77.7044 70.7706C77.0072 71.2372 76.3333 71.2437 75.6853 70.7969C75.1575 70.4331 74.8864 69.9235 74.8665 69.274C74.8465 68.6245 75.04 68.0027 75.4513 67.4106C75.8688 66.8047 76.381 66.4026 76.9899 66.1997C77.5954 65.9982 78.1575 66.0773 78.6793 66.4357C79.3076 66.8711 79.5399 67.5067 79.375 68.339C79.7823 68.0504 80.1951 67.8934 80.6158 67.8747C81.0366 67.856 81.4421 67.9846 81.8344 68.2559C82.4522 68.6839 82.7744 69.2462 82.7979 69.944C82.8306 70.6459 82.6047 71.3415 82.1283 72.0315ZM78.2104 69.2933C78.4208 68.9897 78.5029 68.6903 78.4607 68.3857C78.4197 68.0845 78.2527 67.8324 77.9642 67.6314C77.6922 67.4432 77.4017 67.3844 77.0955 67.4617C76.7893 67.5389 76.5324 67.7231 76.326 68.0175C76.1197 68.3119 76.0356 68.6159 76.0692 68.9277C76.1027 69.2394 76.2664 69.4928 76.549 69.6884C76.8316 69.884 77.1287 69.9402 77.4402 69.8571C77.7538 69.7693 78.0094 69.5818 78.2104 69.2933ZM81.2188 71.4038C81.466 71.0476 81.5665 70.6875 81.5215 70.3267C81.4764 69.9659 81.2775 69.6613 80.9272 69.4195C80.5815 69.1796 80.235 69.1045 79.8831 69.1919C79.5312 69.2794 79.2343 69.4982 78.9924 69.8485C78.7525 70.1941 78.6507 70.551 78.6851 70.9235C78.7194 71.2961 78.9117 71.6033 79.262 71.8452C79.6123 72.087 79.9667 72.1629 80.326 72.065C80.682 71.9683 80.9822 71.7482 81.2188 71.4038Z" fill="#E3FDED"/>
<path d="M86.377 64.0746C86.0088 65.0129 85.3914 65.6356 84.527 65.9379C83.6639 66.2436 82.6799 66.18 81.5768 65.7423L81.2065 65.5961C80.1047 65.1618 79.3419 64.538 78.9122 63.7195C78.4871 62.9031 78.456 62.0286 78.8235 61.0983C79.1917 60.16 79.807 59.5419 80.6668 59.2375C81.5232 58.9344 82.5007 59.0007 83.5978 59.433L83.9682 59.5792C85.0778 60.0143 85.8486 60.6388 86.2831 61.4401C86.7222 62.2434 86.7513 63.1225 86.377 64.0746ZM85.2999 63.6153C85.7405 62.4998 85.119 61.6108 83.4341 60.9451L83.073 60.803C82.2875 60.4938 81.6119 60.3978 81.0553 60.5192C80.4987 60.6405 80.1115 60.9709 79.8983 61.5126C79.679 62.068 79.728 62.5763 80.0432 63.042C80.3584 63.5076 80.9236 63.8989 81.7367 64.2202L82.107 64.3664C82.9281 64.6885 83.6116 64.7852 84.1551 64.6498C84.6986 64.5145 85.0793 64.1675 85.2999 63.6153Z" fill="#E3FDED"/>
<path d="M88.7576 54.8816C88.6236 55.8815 88.1783 56.632 87.412 57.1369C86.6489 57.6406 85.6779 57.8164 84.5042 57.6584L84.1092 57.606C82.9335 57.4526 82.0419 57.0281 81.4338 56.3402C80.8244 55.6491 80.5853 54.8098 80.7153 53.8191C80.8493 52.8192 81.2945 52.0687 82.0555 51.5697C82.8166 51.0707 83.7797 50.8942 84.9488 51.0501L85.3437 51.1025C86.5241 51.2579 87.4243 51.6753 88.0418 52.348C88.6481 53.0213 88.8897 53.8671 88.7576 54.8816ZM87.6027 54.6934C87.7589 53.5053 86.942 52.7917 85.1454 52.5555L84.763 52.5058C83.9255 52.3965 83.249 52.4651 82.7362 52.7184C82.2234 52.9717 81.9294 53.3843 81.8554 53.9596C81.7767 54.552 81.9482 55.0316 82.3661 55.4076C82.7839 55.7837 83.4285 56.0255 84.2957 56.1423L84.6907 56.1948C85.5658 56.3124 86.2509 56.2365 86.7453 55.9751C87.2351 55.7117 87.5239 55.2858 87.6027 54.6934Z" fill="#E3FDED"/>
<path d="M16.6518 57.2762C16.2401 57.6124 15.7588 57.819 15.2071 57.904C14.6555 57.989 14.135 57.9282 13.6401 57.7273C13.1486 57.5252 12.7375 57.2154 12.4053 56.7945C12.0745 56.377 11.8699 55.8911 11.785 55.3396C11.7026 54.7946 11.7576 54.2688 11.948 53.7666C12.1383 53.2645 12.4397 52.8413 12.8514 52.5052C13.2632 52.169 13.7465 51.9577 14.2948 51.874C14.8477 51.7923 15.367 51.8499 15.8618 52.0507C16.3533 52.2528 16.7657 52.566 17.0992 52.9901C17.4326 53.4143 17.6372 53.9002 17.7195 54.4451C17.8012 54.998 17.7495 55.5225 17.5545 56.0227C17.3596 56.5228 17.0681 56.9421 16.6518 57.2762ZM15.5728 52.9276C15.2202 52.7974 14.8429 52.761 14.4357 52.8242C14.0417 52.8821 13.6971 53.0278 13.3962 53.2559C13.0998 53.486 12.8817 53.7697 12.7464 54.109C12.611 54.4483 12.574 54.8143 12.6307 55.205C12.6886 55.5989 12.8363 55.9388 13.0658 56.2239C13.2954 56.5089 13.5865 56.7165 13.9345 56.8446C14.2825 56.9727 14.6584 57.0058 15.0591 56.9452C15.463 56.8834 15.8168 56.7418 16.1144 56.515C16.4121 56.2882 16.6302 56.0045 16.7655 55.6652C16.9008 55.3258 16.9399 54.9552 16.8786 54.5626C16.8187 54.1732 16.6756 53.8354 16.446 53.5503C16.2165 53.2653 15.9234 53.0623 15.5728 52.9276Z" fill="#E3FDED"/>
<path d="M12.2277 50.6885L11.3941 50.6579L11.5701 45.8126L12.407 45.842L12.3344 47.8038L17.3031 47.9812L17.2682 48.9119L12.2996 48.7345L12.2277 50.6885Z" fill="#E3FDED"/>
<path d="M12.2733 41.7325C12.3514 41.3544 12.4932 41.0316 12.6966 40.7689C12.9033 40.505 13.1556 40.3188 13.4502 40.2117C13.7481 40.1032 14.065 40.0829 14.4056 40.1528C14.7462 40.2226 15.0306 40.364 15.2622 40.5757C15.495 40.7907 15.6572 41.0599 15.7442 41.3814C15.8359 41.7049 15.84 42.0587 15.7651 42.4356L15.5311 43.6006L17.7305 44.0468L17.547 44.9589L11.8557 43.8097L12.2733 41.7325ZM14.8478 41.4937C14.7122 41.2829 14.5071 41.1488 14.2259 41.0941C13.9447 41.0393 13.6996 41.0775 13.4914 41.2197C13.2831 41.362 13.1468 41.5909 13.0817 41.9143L12.8491 43.0635L14.7205 43.4426L14.9543 42.2968C15.0181 41.97 14.9835 41.7046 14.8478 41.4937Z" fill="#E3FDED"/>
<path d="M14.643 34.1488L15.4266 34.4435L14.4109 37.1435L15.8035 37.6671L16.5671 35.6347L17.3244 35.9205L16.5608 37.9529L18.2842 38.5998L19.3378 35.801L20.1214 36.0956L18.7392 39.7676L13.3033 37.724L14.643 34.1488Z" fill="#E3FDED"/>
<path d="M19.4112 34.3429C18.8769 34.3448 18.3716 34.2053 17.8907 33.9227C17.4099 33.64 17.0416 33.2637 16.7873 32.7973C16.5329 32.3308 16.4098 31.8285 16.4193 31.2937C16.4288 30.7588 16.5749 30.251 16.8576 29.7701C17.1289 29.309 17.4787 28.9511 17.9081 28.6997C18.3376 28.4483 18.7931 28.3129 19.2753 28.3047L19.366 29.175C18.9856 29.1894 18.6429 29.2809 18.3411 29.4482C18.0407 29.6187 17.7938 29.8678 17.6004 30.1953C17.3996 30.5334 17.2999 30.8856 17.2958 31.2579C17.2938 31.6255 17.3879 31.9748 17.5787 32.2979C17.7696 32.6209 18.0409 32.8859 18.3883 33.0907C18.7356 33.2954 19.0983 33.4025 19.4732 33.4131C19.848 33.4238 20.1966 33.3376 20.519 33.1547C20.8414 32.9718 21.1003 32.7142 21.2998 32.3728C21.4932 32.0453 21.5902 31.7056 21.5933 31.3604C21.5964 31.0153 21.5116 30.6701 21.3368 30.3293L22.1427 29.9847C22.371 30.404 22.4786 30.8665 22.4662 31.3643C22.4537 31.8621 22.3052 32.3441 22.0319 32.8098C21.7491 33.2907 21.3754 33.6655 20.9128 33.9299C20.4428 34.2047 19.9409 34.3391 19.4112 34.3429Z" fill="#E3FDED"/>
<path d="M19.8788 26.8123L19.2462 26.2678L22.4146 22.5991L23.0471 23.1437L21.7647 24.6293L25.5286 27.8746L24.9211 28.5813L21.1572 25.336L19.8788 26.8123Z" fill="#E3FDED"/>
<path d="M27.1656 24.7986L27.4772 25.8045L26.7188 26.4477L24.8474 20.2907L25.0887 20.0859L30.8619 22.9267L30.0982 23.5758L29.1581 23.1052L27.1656 24.7986ZM26.9012 23.973L28.3833 22.7154L26.0909 21.5106L26.9012 23.973Z" fill="#E3FDED"/>
<path d="M34.7487 18.688C34.9115 18.9685 34.9889 19.2555 34.9848 19.559C34.9795 19.8591 34.8922 20.1453 34.7172 20.4122C34.5422 20.6791 34.2942 20.9057 33.9664 21.0945L31.8119 22.3428L28.8987 17.3178L30.6577 16.3C30.9568 16.1262 31.2553 16.029 31.551 16.0131C31.8455 15.9939 32.1121 16.0505 32.3543 16.1816C32.5965 16.3128 32.7911 16.5082 32.9415 16.7668C33.0548 16.9596 33.1199 17.1559 33.1412 17.3577C33.1625 17.5596 33.1396 17.7558 33.0716 17.9542C33.4208 17.8793 33.7446 17.906 34.0397 18.0356C34.3322 18.1586 34.5663 18.3769 34.7487 18.688ZM30.884 18.9212L31.7761 18.4055C32.026 18.2623 32.1797 18.0877 32.243 17.8873C32.305 17.6835 32.2758 17.4809 32.156 17.2716C32.0362 17.0622 31.8733 16.9384 31.6706 16.8989C31.4667 16.8561 31.2394 16.9103 30.9928 17.0522L30.1006 17.5679L30.884 18.9212ZM33.9187 19.1375C33.7806 18.9008 33.5928 18.7524 33.3546 18.7C33.1163 18.6476 32.8586 18.7022 32.578 18.8649L31.2837 19.6138L32.1901 21.1751L33.4878 20.425C33.765 20.2635 33.9446 20.0674 34.0155 19.8373C34.091 19.6091 34.0567 19.3741 33.9187 19.1375Z" fill="#E3FDED"/>
<path d="M36.6908 13.4716C37.0538 13.334 37.4008 13.2829 37.7318 13.3183C38.0661 13.3523 38.356 13.4686 38.6035 13.6626C38.8511 13.8566 39.0365 14.1168 39.1586 14.4399C39.2807 14.763 39.3122 15.0794 39.2545 15.3923C39.1955 15.7019 39.0528 15.9829 38.827 16.2276C38.5993 16.4768 38.3066 16.6673 37.9436 16.8048L36.8302 17.2234L37.6213 19.3226L36.7481 19.6513L34.7042 14.2189L36.6908 13.4716ZM38.2567 15.5288C38.3639 15.3036 38.3674 15.0577 38.266 14.7877C38.1647 14.5176 38.001 14.333 37.7705 14.2318C37.5399 14.1305 37.2707 14.136 36.9642 14.2517L35.8673 14.6637L36.5403 16.4498L37.6371 16.0377C37.945 15.9254 38.1528 15.7527 38.2567 15.5288Z" fill="#E3FDED"/>
<path d="M46.5421 16.9975L45.6247 17.1639L44.8996 13.1741L42.1032 17.9054L41.7826 17.9653L40.7268 12.1555L41.6441 11.9892L42.37 15.971L45.1702 11.2497L45.4908 11.1898L46.5421 16.9975Z" fill="#E3FDED"/>
<path d="M50.2995 11.1045C50.6864 11.1067 51.0282 11.1798 51.3278 11.3306C51.6273 11.4814 51.8575 11.6898 52.021 11.9623C52.1833 12.2316 52.2651 12.5398 52.2666 12.887C52.2668 13.2308 52.1853 13.5415 52.0183 13.8091C51.8512 14.0768 51.6205 14.2889 51.3202 14.4403C51.0199 14.5917 50.6787 14.6673 50.2885 14.6665L49.0989 14.6638L49.0945 16.9086L48.1608 16.9056L48.1716 11.0967L50.2995 11.1045ZM51.0396 13.5828C51.2171 13.4105 51.3104 13.1793 51.3097 12.8929C51.309 12.6066 51.2218 12.3731 51.0429 12.1983C50.8639 12.0234 50.6114 11.9345 50.2821 11.9329L49.1117 11.9304L49.1063 13.8393L50.2768 13.8418C50.6061 13.8435 50.8621 13.7552 51.0396 13.5828Z" fill="#E3FDED"/>
<path d="M53.7879 15.6454C53.6086 15.1459 53.5724 14.6212 53.6805 14.0746C53.7839 13.5261 54.0164 13.0534 54.3698 12.6559C54.7232 12.2583 55.1556 11.9752 55.6577 11.8025C56.1599 11.6298 56.6905 11.5988 57.2358 11.7035C57.7765 11.8062 58.2545 12.0327 58.662 12.3822C59.0729 12.7303 59.3679 13.1542 59.5519 13.6557C59.7312 14.1552 59.7721 14.6819 59.664 15.2285C59.5592 15.7737 59.3281 16.2497 58.9734 16.6439C58.62 17.0415 58.1876 17.3246 57.6742 17.4979C57.1641 17.6699 56.638 17.7028 56.0961 17.5968C55.5508 17.4921 55.0728 17.2657 54.6619 16.9175C54.259 16.57 53.9673 16.1449 53.7879 15.6454ZM58.2504 16.0734C58.4898 15.7853 58.6496 15.4403 58.73 15.0383C58.8063 14.6455 58.7865 14.2711 58.6707 13.915C58.5549 13.5589 58.3572 13.2576 58.0803 13.0177C57.8034 12.7778 57.4742 12.6195 57.086 12.5453C56.6933 12.469 56.3247 12.4942 55.9778 12.614C55.6321 12.7372 55.34 12.939 55.104 13.2258C54.8679 13.5126 54.7101 13.8531 54.6318 14.2505C54.5527 14.6557 54.5705 15.0348 54.6863 15.3909C54.7988 15.7483 54.9952 16.0463 55.2687 16.2875C55.5456 16.5273 55.8795 16.6877 56.2722 16.7639C56.6571 16.8394 57.0257 16.8143 57.3713 16.6911C57.7136 16.5692 58.0078 16.3629 58.2504 16.0734Z" fill="#E3FDED"/>
<path d="M64.9995 18.6029C64.8791 18.902 64.697 19.141 64.458 19.3221C64.219 19.5031 63.9389 19.6084 63.6213 19.6366C63.3036 19.6648 62.9715 19.607 62.6229 19.4677L60.3115 18.5378L62.4789 13.1536L64.3647 13.913C64.6869 14.0435 64.9458 14.2178 65.1383 14.437C65.3353 14.6583 65.4535 14.9027 65.4986 15.1755C65.5438 15.4484 65.5122 15.7205 65.3986 15.9979C65.3154 16.2061 65.1988 16.3776 65.0547 16.5178C64.9106 16.658 64.7377 16.7636 64.5414 16.8286C64.8144 17.0586 64.9925 17.3293 65.0723 17.6421C65.1575 17.949 65.1341 18.2715 64.9995 18.6029ZM64.1352 18.2288C64.2387 17.9745 64.2369 17.7345 64.1324 17.5153C64.0279 17.2962 63.8245 17.1271 63.5253 17.0067L62.1377 16.4468L61.4633 18.1196L62.8509 18.6795C63.15 18.7999 63.4137 18.8194 63.6373 18.7361C63.8689 18.6536 64.0318 18.4831 64.1352 18.2288ZM62.438 15.7069L63.3941 16.091C63.6609 16.1972 63.8929 16.2139 64.0899 16.1409C64.287 16.0679 64.4306 15.9165 64.5232 15.6931C64.6125 15.4711 64.6123 15.2648 64.5175 15.0801C64.4259 14.8942 64.246 14.7464 63.9792 14.6402L63.0231 14.2561L62.438 15.7069Z" fill="#E3FDED"/>
<path d="M66.6565 20.3534L65.7946 20.9566L64.951 20.4294L70.2439 16.7698L70.5116 16.9369L69.5633 23.302L68.7117 22.774L68.8719 21.7333L66.6565 20.3534ZM67.362 19.8492L69.0119 20.8763L69.4588 18.3253L67.362 19.8492Z" fill="#E3FDED"/>
<path d="M75.0394 20.3582L73.4687 22.0554L75.6126 24.0365L77.1833 22.3393L77.8653 22.9716L73.9225 27.2323L73.2372 26.6013L75.0423 24.6523L72.8984 22.6712L71.0933 24.6203L70.408 23.9893L74.3507 19.7285L75.0394 20.3582Z" fill="#E3FDED"/>
<path d="M76.1779 27.6758C76.3939 27.1904 76.7302 26.788 77.1841 26.4622C77.6394 26.1396 78.1297 25.9562 78.6631 25.9127C79.1932 25.8705 79.7016 25.959 80.1829 26.1842C80.6676 26.408 81.0713 26.7475 81.3938 27.2027C81.7138 27.6512 81.9018 28.1436 81.9578 28.6797C82.0138 29.2158 81.9378 29.7269 81.7218 30.2123C81.5058 30.6977 81.1721 31.1066 80.7168 31.4292C80.2616 31.7518 79.7713 31.9352 79.2379 31.9787C78.7078 32.0209 78.1981 31.929 77.7108 31.6985C77.2236 31.468 76.8199 31.1285 76.4999 30.68C76.1774 30.2248 75.9861 29.7338 75.9347 29.1997C75.8813 28.6703 75.9619 28.1612 76.1779 27.6758ZM79.1112 31.065C79.4846 31.0228 79.8383 30.8811 80.1737 30.6434C80.5005 30.4129 80.7412 30.1281 80.9036 29.7897C81.066 29.4513 81.1307 29.0974 81.0956 28.7328C81.0639 28.3668 80.9308 28.0251 80.7062 27.7037C80.4757 27.377 80.1922 27.1397 79.8589 26.9906C79.5243 26.8382 79.171 26.7848 78.8023 26.8291C78.4336 26.8734 78.0851 27.0091 77.753 27.2455C77.4176 27.4832 77.1703 27.7706 77.0066 28.1057C76.8429 28.4408 76.7769 28.7913 76.8086 29.1573C76.8404 29.5232 76.9748 29.8683 77.204 30.1917C77.4319 30.5118 77.7141 30.7457 78.0487 30.8982C78.3833 31.0506 78.7379 31.1073 79.1112 31.065Z" fill="#E3FDED"/>
<circle cx="17.4476" cy="67.9298" r="1.04786" transform="rotate(-4.87688 17.4476 67.9298)" fill="#E3FDED"/>
<circle cx="83.8304" cy="41.0105" r="1.04786" transform="rotate(-4.87688 83.8304 41.0105)" fill="#E3FDED"/>
</g>
<defs>
<clipPath id="clip0">
<rect width="100" height="100" fill="white"/>
</clipPath>
</defs>
</svg>
