<svg width="18" height="15" viewBox="0 0 18 15" fill="none" xmlns="http://www.w3.org/2000/svg">
<path d="M12.3728 1.16162C13.4527 1.16162 14.439 1.60588 15.15 2.41259C15.8282 3.18217 16.2017 4.21281 16.2017 5.31468C16.2017 6.5141 15.7334 7.62965 14.728 8.82541C13.8294 9.89414 12.5367 10.9957 11.0398 12.2712L11.0347 12.2756C10.4784 12.7497 9.90321 13.2399 9.29098 13.7755L9.27254 13.7917C9.19293 13.8614 9.09366 13.8962 8.99439 13.8962C8.89512 13.8962 8.79585 13.8614 8.71623 13.7917L8.69779 13.7755C8.08372 13.2382 7.50692 12.7467 6.94916 12.2714L6.94904 12.2713C5.4521 10.9957 4.15937 9.89411 3.2608 8.82541C2.25539 7.62968 1.78711 6.5141 1.78711 5.31468C1.78711 4.21281 2.16062 3.18217 2.83878 2.41262C3.54977 1.60591 4.53607 1.16162 5.61598 1.16162C7.1348 1.16162 8.09638 2.06872 8.63557 2.82971C8.7755 3.02718 8.89447 3.22518 8.99439 3.4115C9.0943 3.22518 9.21331 3.02718 9.3532 2.82971C9.8924 2.06872 10.854 1.16162 12.3728 1.16162Z" fill="white" stroke="white" stroke-width="2"/>
</svg>
