<svg width="291" height="41" viewBox="0 0 291 41" fill="none" xmlns="http://www.w3.org/2000/svg">
<path d="M286.829 34.5036H275.465V11.4793H286.891L286.829 34.5036ZM271.886 7.96172V38.0458H290.335V7.96172H271.886ZM204.325 38.0458V7.96172H200.722L181.781 32.4373V7.96172H178.165V38.0458H181.781L200.722 13.8654V38.0458H204.325ZM131.993 38.0458V7.96172H128.389V21.1834H115.893V7.96172H112.277V38.0458H115.893V24.7994H128.389V38.0458H131.993ZM168.165 38.0458V7.96172H164.549L145.608 32.4373V7.96172H142.005V38.0458H145.608L164.549 13.8654V38.0458H168.165ZM86.387 23.0161L100.261 38.0458H105.279L91.2821 23.0161L105.279 7.98631H100.261L86.387 23.0161ZM82.5987 38.0458H86.1656V7.96172H82.5987V38.0458ZM185.68 0.569824V4.18582H196.847V0.569824H185.68ZM82.3651 22.9915L68.4914 7.96172H63.461L77.4453 22.9915L63.4856 38.0458H68.516L82.3651 22.9915ZM260.607 34.5036H249.181V11.4793H260.607V34.5036ZM245.664 7.96172V38.0458H264.113V7.96172H245.664ZM20.3271 38.0458V7.96172H16.7234V21.1834H4.21503V7.96172H0.611328V38.0458H4.21503V24.7994H16.7234V38.0458H20.3271ZM56.4873 38.0458V7.96172H52.8466L33.9056 32.4373V7.96172H30.3388V38.0458H33.9425L52.8466 13.8408V38.0458H56.4873ZM221.114 17.8749L226.317 22.9915L221.114 28.108L228.075 35.1432L235.037 28.108L229.834 22.9915L235.037 17.8749L228.075 10.8398L221.114 17.8749ZM228.075 5.77244L240.018 17.8749L234.877 22.9915L240.08 28.108L228.137 40.2105L216.194 28.108L221.397 22.9915L216.194 17.8749L228.075 5.77244Z" fill="white"/>
</svg>
