<svg width="291" height="41" viewBox="0 0 291 41" fill="none" xmlns="http://www.w3.org/2000/svg">
<path d="M286.827 34.5041H275.463V11.4798H286.889L286.827 34.5041ZM271.884 7.96221V38.0463H290.333V7.96221H271.884ZM204.323 38.0463V7.96221H200.72L181.779 32.4378V7.96221H178.163V38.0463H181.779L200.72 13.8659V38.0463H204.323ZM131.991 38.0463V7.96221H128.387V21.1839H115.891V7.96221H112.275V38.0463H115.891V24.7999H128.387V38.0463H131.991ZM168.163 38.0463V7.96221H164.547L145.606 32.4378V7.96221H142.003V38.0463H145.606L164.547 13.8659V38.0463H168.163ZM86.385 23.0166L100.259 38.0463H105.277L91.2801 23.0166L105.277 7.98679H100.259L86.385 23.0166ZM82.5968 38.0463H86.1636V7.96221H82.5968V38.0463ZM185.678 0.570312V4.18631H196.845V0.570312H185.678ZM82.3631 22.992L68.4894 7.96221H63.459L77.4434 22.992L63.4836 38.0463H68.514L82.3631 22.992ZM260.605 34.5041H249.179V11.4798H260.605V34.5041ZM245.662 7.96221V38.0463H264.111V7.96221H245.662ZM20.3252 38.0463V7.96221H16.7215V21.1839H4.21307V7.96221H0.609375V38.0463H4.21307V24.7999H16.7215V38.0463H20.3252ZM56.4853 38.0463V7.96221H52.8447L33.9036 32.4378V7.96221H30.3369V38.0463H33.9406L52.8447 13.8413V38.0463H56.4853ZM221.112 17.8754L226.315 22.992L221.112 28.1084L228.073 35.1437L235.035 28.1084L229.832 22.992L235.035 17.8754L228.073 10.8402L221.112 17.8754ZM228.073 5.77293L240.016 17.8754L234.875 22.992L240.078 28.1084L228.135 40.211L216.192 28.1084L221.395 22.992L216.192 17.8754L228.073 5.77293Z" fill="white"/>
</svg>
