<svg width="20" height="20" viewBox="0 0 20 20" fill="none" xmlns="http://www.w3.org/2000/svg">
<g clip-path="url(#clip0)">
<path d="M18.4281 17.7262L13.906 13.023C15.0687 11.6409 15.7058 9.90182 15.7058 8.09141C15.7058 3.86155 12.2644 0.420166 8.03452 0.420166C3.80467 0.420166 0.363281 3.86155 0.363281 8.09141C0.363281 12.3213 3.80467 15.7627 8.03452 15.7627C9.62247 15.7627 11.1357 15.2837 12.4295 14.3745L16.9859 19.1133C17.1763 19.3111 17.4325 19.4202 17.707 19.4202C17.9668 19.4202 18.2133 19.3211 18.4004 19.141C18.7979 18.7584 18.8106 18.1241 18.4281 17.7262ZM8.03452 2.42136C11.1611 2.42136 13.7046 4.96488 13.7046 8.09141C13.7046 11.2179 11.1611 13.7615 8.03452 13.7615C4.90799 13.7615 2.36447 11.2179 2.36447 8.09141C2.36447 4.96488 4.90799 2.42136 8.03452 2.42136Z" fill="#161310"/>
</g>
<defs>
<clipPath id="clip0">
<rect width="19" height="19" fill="white" transform="translate(0.0351562 0.420166)"/>
</clipPath>
</defs>
</svg>
