<svg width="4328" height="245" viewBox="0 0 4328 245" fill="none" xmlns="http://www.w3.org/2000/svg">
<g opacity="0.6">
<path d="M2160.64 176.469C2140.21 163.302 2089.64 138.877 2044.98 118.92C2046.93 116.274 2048.88 113.628 2050.86 110.981C2052.55 112.304 2054.11 113.606 2055.54 114.842C2060.51 119.159 2068.06 118.66 2072.37 113.671C2076.69 108.703 2076.17 101.176 2071.2 96.8379C2069.34 95.211 2067.32 93.5625 2065.15 91.8488C2082.03 69.3975 2099.55 46.5341 2118.14 22.3474C2121.36 18.1826 2121.44 12.4125 2118.38 8.11744C2115.32 3.84411 2109.84 2.06536 2104.85 3.77903C2058.36 19.5925 2025.48 29.7444 1974.7 41.4581C1969.75 42.6078 1966.06 46.7293 1965.52 51.7836C1964.96 56.8161 1967.67 61.6751 1972.22 63.8443C1989.6 72.1524 2012.63 85.0157 2031.33 97.2067C2028.4 101.155 2025.48 105.124 2022.57 109.072C2003.81 100.981 1987.52 94.3433 1976.99 90.634C1970.79 88.4431 1963.98 91.6969 1961.77 97.9225C1959.58 104.126 1962.83 110.959 1969.06 113.15C1978.12 116.361 1991.98 121.957 2008.14 128.855C1989.9 154.083 1972.03 179.723 1953.87 206.99C1951.2 211.003 1951.2 216.209 1953.87 220.201C1956.11 223.563 1959.86 225.515 1963.81 225.515C1964.57 225.515 1965.32 225.45 1966.06 225.298C2022.29 214.431 2083.18 203.411 2154.98 198.378C2160.1 198.01 2164.41 194.409 2165.69 189.441C2166.97 184.474 2164.96 179.268 2160.64 176.469ZM2011.05 57.2282C2034.11 51.3497 2054.22 45.4711 2075.59 38.6381C2065.35 52.0221 2055.41 65.1025 2045.67 78.0743C2034.63 70.8292 2022.48 63.6057 2011.05 57.2282ZM1989.71 196.556C2003.26 176.708 2016.78 157.597 2030.55 138.638C2058.69 151.111 2089.86 165.71 2114.09 178.01C2068.9 182.673 2028.06 189.441 1989.71 196.556Z" fill="#2A26A5"/>
<path d="M2193 51.2624C2196.21 47.1843 2199.34 43.3883 2202.35 39.9826C2206.71 35.0368 2206.21 27.488 2201.27 23.1496C2196.32 18.8111 2188.8 19.2884 2184.44 24.2342C2182.64 26.2732 2180.81 28.4207 2178.95 30.6984C2172.81 21.9782 2166.56 13.4315 2160.21 5.05839C2156.21 -0.191086 2148.73 -1.21065 2143.48 2.78069C2138.23 6.77202 2137.21 14.2558 2141.2 19.5053C2148.86 29.5921 2156.37 39.9609 2163.68 50.5466C2146.52 74.1476 2128.67 102.608 2115.8 125.341C2114.2 128.182 2113.83 131.545 2114.76 134.668C2115.69 137.792 2117.88 140.395 2120.79 141.87C2162.31 162.911 2221.1 200.157 2258.82 225.645C2260.84 227.011 2263.18 227.684 2265.5 227.684C2268.1 227.684 2270.7 226.838 2272.85 225.146C2276.93 221.957 2278.49 216.513 2276.71 211.653C2258.51 161.979 2228.45 104.69 2193 51.2624ZM2142.77 126.36C2153.07 108.855 2165.54 89.2019 2177.88 71.6747C2202.18 109.05 2223.63 148.031 2239.92 184.495C2208.51 164.213 2172.79 142.369 2142.77 126.36Z" fill="#2A26A5"/>
<path d="M2337.93 12.6709C2337.19 9.2002 2334.96 6.25008 2331.83 4.60148C2328.71 2.95289 2325 2.77935 2321.72 4.12426C2301.18 12.5842 2271.03 29.0701 2247.1 45.1873C2244.15 41.8467 2241.23 38.5929 2238.32 35.4259C2233.85 30.5669 2226.32 30.2631 2221.46 34.71C2216.6 39.1786 2216.3 46.7057 2220.75 51.5648C2223.07 54.081 2225.41 56.6841 2227.75 59.3088C2225.04 61.4781 2222.57 63.6038 2220.36 65.6429C2215.52 70.1115 2215.22 77.6603 2219.69 82.4976C2224.15 87.3349 2231.7 87.6387 2236.54 83.1701C2238.56 81.3263 2240.84 79.3739 2243.35 77.3566C2277.67 118.268 2312.57 167.531 2338.38 212.021C2340.55 215.752 2344.52 217.965 2348.71 217.965C2349.73 217.965 2350.77 217.834 2351.79 217.552C2357 216.164 2360.62 211.435 2360.64 206.056C2360.73 152.541 2352.27 80.2417 2337.93 12.6709ZM2262.74 63.3869C2279.99 51.9552 2300.6 40.3065 2317.58 32.1286C2326.3 76.2503 2332.42 121.565 2335.15 161.413C2313.16 127.726 2287.82 93.4087 2262.74 63.3869Z" fill="#2A26A5"/>
<path d="M1525.47 11.0891C1485.27 11.0891 1462.91 34.8853 1462.91 112.499C1462.91 188.335 1483.89 213.91 1525.47 213.91C1569.98 213.91 1588.03 186.556 1588.03 112.499C1588.01 34.8853 1568.57 11.0891 1525.47 11.0891ZM1569.22 143.693V150.157C1546.92 150.179 1528.81 162.89 1528.81 188.899H1522.08C1522.08 162.304 1503.99 150.179 1481.67 150.157V143.693C1501.72 143.671 1521.52 129.723 1521.52 111.306C1521.52 93.6924 1501.72 78.9418 1481.67 78.9201V72.4559C1503.97 72.4343 1522.08 62.8029 1522.08 33.7139H1528.81C1528.81 63.0849 1546.9 72.4343 1569.22 72.4559V78.9201C1549.18 78.9418 1529.37 93.1067 1529.37 111.306C1529.37 129.506 1549.2 143.671 1569.22 143.693Z" fill="#2A26A5"/>
<path d="M1667.44 11.0884C1627.25 11.0884 1604.88 34.8846 1604.88 112.499C1604.88 188.334 1625.86 213.909 1667.44 213.909C1711.96 213.909 1730 186.555 1730 112.499C1730 34.8846 1710.57 11.0884 1667.44 11.0884ZM1670.81 188.92H1663.28C1663.28 156.013 1654.56 145.167 1654.56 111.327C1654.56 76.7068 1663.28 63.5615 1663.28 33.7349H1670.81C1670.81 63.1059 1679.53 77.119 1679.53 111.327C1679.53 144.625 1670.81 156.013 1670.81 188.92Z" fill="#2A26A5"/>
<path d="M1810.07 11.0884C1769.87 11.0884 1747.51 34.8846 1747.51 112.499C1747.51 188.334 1768.48 213.909 1810.07 213.909C1854.58 213.909 1872.63 186.555 1872.63 112.499C1872.63 34.8846 1853.19 11.0884 1810.07 11.0884ZM1813.43 188.92H1805.9C1805.9 156.013 1797.18 145.167 1797.18 111.327C1797.18 76.7068 1805.9 63.5615 1805.9 33.7349H1813.43C1813.43 63.1059 1822.15 77.119 1822.15 111.327C1822.15 144.625 1813.43 156.013 1813.43 188.92Z" fill="#2A26A5"/>
<path d="M2450.4 187.748C2450.4 174.733 2458.27 169.57 2469.12 156.555C2479.96 143.539 2473.39 137.314 2478.62 116.424C2484.04 94.7323 2537.19 61.7603 2537.19 40.8058C2537.19 17.4869 2515.84 8.24609 2494.06 8.24609C2465.58 8.24609 2449.85 19.0704 2449.85 37.552C2449.85 67.3352 2534.45 56.4892 2589.77 74.3851C2651.33 94.2985 2661.35 120.416 2661.35 156.273C2661.35 196.967 2639.66 217.553 2576.75 217.553C2488.36 217.574 2450.4 207.271 2450.4 187.748Z" fill="#2A26A5"/>
<path d="M2601.7 29.3959C2601.7 18.5499 2613.63 9.87305 2636.95 9.87305C2649.83 9.87305 2672.15 13.5173 2684.84 21.4349C2699.31 30.4805 2699.66 38.2462 2709.42 43.1269C2719.18 48.0076 2728.53 46.2506 2738.88 57.5956C2756.23 76.5761 2747.56 99.3528 2747.56 118.876C2747.56 131.891 2754.06 148.702 2754.06 173.648C2754.06 205.102 2734.54 214.321 2719.9 214.321C2700.92 214.321 2690.07 199.679 2690.07 169.31C2690.07 143.821 2679.77 80.6325 2642.89 60.8494C2613.26 44.9274 2601.7 39.1573 2601.7 29.3959Z" fill="#2A26A5"/>
<path d="M2736.19 23.4319C2736.19 16.2519 2741.61 11.6748 2756.08 11.6748C2770.55 11.6748 2778.86 16.382 2794.41 20.3516C2804.5 22.933 2816.86 26.4471 2828.75 27.5751C2843.93 29.0285 2854.06 42.3908 2854.06 69.5058C2854.06 96.6209 2844.67 211.958 2818.27 211.958C2799.12 211.958 2783.57 194.604 2783.57 168.942C2783.57 143.28 2783.2 94.8205 2783.2 85.0591C2783.2 75.2976 2777.4 57.5752 2762.22 46.3821C2752.2 38.9851 2736.19 31.9135 2736.19 23.4319Z" fill="#2A26A5"/>
<path d="M782.19 111.22C782.949 108.118 783.839 104.821 784.771 101.394C789.414 84.3003 795.184 63.042 789.262 45.5366C784.837 32.4129 764.186 17.5104 751.019 14.9725C742.884 13.3889 740.173 14.1698 732.19 16.4909C717.374 20.7859 699.76 45.4064 694.229 54.5387C692.277 57.7709 689.717 60.8511 687.005 64.1049C681.539 70.6776 675.877 77.4673 674.511 86.4261C673.209 94.9294 675.313 104.214 678.328 113.194C676.745 117.316 675.313 121.307 674.099 125.103C670.91 135.125 665.053 145.19 659.413 154.908C655.552 161.546 651.669 168.248 648.459 175.125C646.658 173.606 644.771 172.045 642.797 170.439C639.066 167.381 635.552 164.517 633.881 162.739C623.404 151.611 610.975 143.997 599.087 137.446C597.569 136.621 596.051 135.775 594.532 134.951C594.25 134.799 593.99 134.647 593.708 134.496C593.686 133.932 593.664 133.368 593.643 132.825C596.051 131.546 598.458 130.287 600.844 129.008C612.038 123.107 623.621 116.99 634.359 110.548C647.656 102.565 665.812 90.2005 670.086 75.1679C671.604 69.8317 671.018 63.1288 669.131 56.4477C672.667 52.4997 675.378 48.0528 676.42 42.9986C677.678 36.9031 676.311 30.786 672.32 24.799C664.164 12.4996 648.025 5.49297 626.897 5.01575C598.372 4.36498 568.458 15.5581 557.178 31.0028C547.59 44.1049 536.94 62.0659 539.629 84.6473C541.538 100.699 548.154 112.131 556.896 121.003C554.163 124.279 551.755 127.207 549.846 129.68C545.335 135.58 537.569 141.524 529.326 147.815C515.096 158.682 498.328 171.502 495.812 188.075C488.892 192.131 484.228 196.079 482.71 200.418C480.909 205.602 482.558 209.333 484.25 211.524C488.046 216.448 496.072 218.964 507.438 219.919C508.284 221.025 509.196 222.11 510.258 223.129C518.089 230.591 530.736 233.932 541.213 233.932C543.773 233.932 546.202 233.737 548.393 233.346C557.07 231.828 572.45 226.947 585.356 219.138C595.443 219.268 605.682 219.29 615.79 218.856C617.656 218.769 619.999 218.769 622.623 218.769C628.957 218.748 636.333 218.726 643.209 217.858C643.773 219.745 644.467 221.654 645.292 223.585C648.762 231.611 656.181 236.817 665.595 237.837C666.723 237.967 667.873 238.01 669.001 238.01C676.094 238.01 683.144 235.646 688.415 231.698C692.363 233.26 696.68 234.192 701.322 234.192C702.19 234.192 703.079 234.171 703.969 234.106C729.261 232.24 745.747 203.52 755.422 174.04C768.502 152.153 777.136 131.806 782.19 111.22ZM684.164 87.8794C685.118 81.6104 689.695 76.1223 694.532 70.3306C697.352 66.9466 700.281 63.4325 702.602 59.593C709.825 47.684 725.097 28.7252 734.945 25.8618C742.559 23.6493 743.361 23.4106 749.196 24.5603C759.218 26.5126 776.876 39.3109 780.043 48.6819C785.01 63.3674 779.891 82.2178 775.379 98.8556C774.424 102.37 773.513 105.732 772.732 108.921C770.758 116.99 768.177 125.038 764.967 133.172C765.726 127.814 766.203 123.042 766.398 119.181L766.507 117.142C767.223 103.411 768.22 83.8447 761.518 70.6993C760.216 58.118 756.355 44.235 748.589 37.0332C744.706 33.4324 740.042 31.697 735.14 32.0657C720.715 33.1287 699.001 66.491 684.532 98.4434C683.86 94.6907 683.665 91.1332 684.164 87.8794ZM735.162 187.598C727.7 198.531 721.973 201.589 711.691 202.392C715.53 197.641 719.825 192.609 725.856 185.797C739.5 170.396 749.782 150.049 755.856 127.576C754.424 139.572 751.279 155.125 746.398 170.136C742.949 175.841 739.24 181.632 735.162 187.598ZM670.888 196.817C670.02 189.919 672.493 185.732 675.617 180.439C677.092 177.923 678.632 175.342 679.934 172.261C682.146 166.99 684.034 161.567 685.877 156.34C687.157 152.652 688.437 149.094 689.76 145.58C690.194 147.359 690.498 149.203 690.65 151.35C691.365 162.609 688.112 169.572 683.578 179.203C682.58 181.329 681.561 183.52 680.519 185.862C677.764 192.11 675.096 200.006 678.849 205.797C681.517 209.919 686.441 211.481 692.038 212.066C690.346 214.387 688.502 216.925 686.485 219.724C677.439 213.758 671.734 203.433 670.888 196.817ZM752.277 80.4824C752.364 117.858 739.435 155.732 718.546 179.333C709.76 189.246 704.446 195.667 699.088 202.652C690.281 202.522 687.656 201.437 687.07 200.505C686.832 200.158 685.877 197.967 689.478 189.81C690.476 187.533 691.474 185.407 692.45 183.346C697.201 173.216 701.3 164.474 700.411 150.721C700.021 144.669 698.589 140.504 696.919 135.689C696.572 134.691 696.224 133.65 695.856 132.543C695.812 132.435 695.769 132.305 695.726 132.196C698.611 126.448 701.149 119.224 703.817 111.589C711.257 90.3089 719.674 66.2742 737.786 66.2742C738.307 66.2742 738.828 66.2958 739.37 66.3392C745.292 66.7731 749.305 69.593 752.016 74.0399C752.19 76.1657 752.277 78.3132 752.277 80.4824ZM740.107 56.6212C713.448 54.6038 702.992 84.4304 694.619 108.378C693.339 112.066 692.081 115.645 690.823 118.964C690.107 117.099 689.413 115.211 688.719 113.303C703.079 77.2069 726.572 42.4562 735.856 41.7621C736.051 41.7404 736.246 41.7404 736.442 41.7404C738.437 41.7404 740.194 42.5213 741.951 44.1482C745.032 47.0116 747.656 52.2827 749.478 58.8554C746.745 57.6841 743.665 56.9032 740.107 56.6212ZM667.851 159.789C673.773 149.593 679.869 139.073 683.404 128.031C683.47 127.836 683.535 127.641 683.6 127.446C684.142 128.877 684.684 130.287 685.162 131.632C681.778 138.682 679.153 145.992 676.68 153.107C674.901 158.205 673.057 163.498 670.953 168.487C669.912 170.938 668.61 173.151 667.244 175.472C665.118 179.073 662.819 182.977 661.691 187.858C660.151 185.949 658.285 183.975 656.116 181.914C659.261 174.583 663.513 167.272 667.851 159.789ZM652.537 192.153C654.511 194.301 655.942 196.253 656.398 197.75C657.331 200.83 656.636 202.24 656.051 203.043C655.053 204.387 653.274 205.407 651.04 206.21C650.758 201.481 651.322 196.795 652.537 192.153ZM597.157 193.693C595.378 198.899 590.28 204.301 582.645 209.333C580.411 209.29 578.176 209.268 575.985 209.225C570.909 209.138 565.725 209.073 560.541 209.03C568.133 202.804 574.011 195.19 576.181 187.62C580.259 173.411 578.914 158.422 576.701 143.628C577.027 142.891 577.374 142.175 577.721 141.437C579.131 140.656 580.541 139.875 581.951 139.094C582.688 139.507 583.426 139.94 584.163 140.331C584.207 141.893 584.25 143.433 584.25 145.016V145.212C584.445 150.136 587.113 156.86 590.194 164.626C594.228 174.821 599.261 187.489 597.157 193.693ZM591.408 106.47C591.061 102.955 590.714 99.4847 590.411 96.0357C599.695 84.3219 608.654 71.9574 614.25 60.8945C619.37 50.8077 620.584 41.6537 619.847 34.6255C622.905 34.1916 626.181 33.9313 629.435 33.9313C636.701 33.9313 643.86 35.2328 648.155 38.8337C651.734 41.8272 655.357 47.5756 657.873 53.7361C653.404 57.6624 648.09 61.1115 643.86 63.8447L643.339 64.17C641.17 65.58 639.044 66.9466 636.94 68.2915C624.055 76.5345 611.907 84.3219 600.389 96.7515C599.391 97.8144 598.372 98.9207 597.287 100.07C595.465 102.088 593.469 104.214 591.408 106.47ZM589.998 56.5995C591.257 44.0832 597.157 39.6797 610.259 36.5127C610.584 41.5018 609.63 48.4433 605.552 56.491C601.625 64.2568 595.834 72.8251 589.413 81.3718C589.087 73.2807 589.131 65.1028 589.998 56.5995ZM580.28 55.6233C578.979 68.5735 579.413 80.9597 580.367 92.9771C577.439 96.5996 574.51 100.157 571.647 103.563C571.191 98.9858 570.28 94.2569 569.391 89.6365C567.656 80.6777 565.877 71.3935 567.46 63.9097C570.866 47.8142 583.599 37.0116 594.554 31.9573C587.027 36.1873 581.56 43.107 580.28 55.6233ZM572.71 117.402C575.552 114.062 578.567 110.504 581.625 106.817C581.69 107.467 581.755 108.14 581.821 108.791C582.081 111.394 582.341 114.018 582.58 116.643C580.519 119.159 578.502 121.784 576.593 124.496C575.486 123.758 574.402 123.021 573.339 122.261C573.144 120.634 572.905 119.008 572.71 117.402ZM505.378 194.04C505.378 194.019 505.378 194.019 505.378 193.997C505.378 193.997 505.399 193.997 505.399 193.975C505.378 193.997 505.378 194.019 505.378 194.04ZM514.727 210.505C514.12 210.114 513.534 209.702 512.97 209.225C512.688 207.88 512.623 206.47 512.818 204.973C513.621 198.552 515.963 192.674 519.304 187.272C520.649 186.665 521.864 186.123 522.927 185.646C528.805 182.999 533.447 180.917 536.18 179.246L537.048 178.726C544.12 174.366 551.452 169.875 558.371 165.038C558.979 164.604 559.608 164.192 560.237 163.78C562.883 162.023 565.703 160.114 568.523 157.034C569.413 166.708 569.304 176.188 566.788 184.951C564.055 194.496 552.731 204.713 540.584 209.897C530.389 210.483 521.777 210.678 514.727 210.505ZM541.755 164.279C547.482 159.984 553.426 156.123 558.979 152.63C557.634 153.737 556.246 154.669 554.814 155.624C554.142 156.079 553.469 156.535 552.797 156.99C549.196 159.507 545.486 161.914 541.755 164.279ZM660.715 72.4781C658.263 81.1332 647.699 91.1333 629.348 102.153C618.849 108.465 607.395 114.496 596.311 120.352C595.183 120.938 594.055 121.545 592.905 122.153C592.84 121.372 592.753 120.613 592.688 119.832C596.658 115.168 600.714 110.765 604.445 106.773C605.53 105.602 606.571 104.496 607.569 103.411C618.241 91.8925 629.348 84.7774 642.233 76.5345C644.359 75.1679 646.506 73.8013 648.697 72.3696L649.218 72.0442C652.862 69.6798 656.962 67.0117 660.866 63.9748C661.365 67.1418 661.387 70.0919 660.715 72.4781ZM565.053 36.7512C574.076 24.4085 600.497 14.7338 624.706 14.7338C625.356 14.7338 626.029 14.7338 626.68 14.7555C637.005 14.9941 655.639 17.2935 664.185 30.1785C666.702 33.953 667.569 37.4888 666.853 40.9812C666.528 42.5647 665.856 44.1265 664.966 45.645C662.038 39.7664 658.307 34.6037 654.446 31.3499C643.686 22.3477 625.53 23.8445 617.222 25.146C615.335 21.6102 612.645 19.441 609.673 19.0505C595.421 17.1633 564.207 32.3261 557.938 61.849C555.942 71.285 557.916 81.5453 559.825 91.4586C560.953 97.3371 562.037 102.89 562.211 107.901C562.276 109.528 562.384 111.177 562.515 112.847C555.703 105.45 550.844 96.2092 549.348 83.4977C547.048 64.3869 556.007 49.1374 565.053 36.7512ZM535.248 155.559C544.011 148.856 552.298 142.522 557.591 135.602C559.348 133.303 561.582 130.569 564.163 127.489C564.185 127.511 564.207 127.533 564.228 127.554C564.662 130.374 565.118 133.172 565.573 135.949C565.638 136.318 565.682 136.687 565.747 137.055C562.992 138.661 560.259 140.309 557.591 141.979C542.645 151.329 523.859 163.107 512.601 179.615C511.104 180.309 509.651 180.982 508.241 181.654C512.905 173.194 522.775 165.081 535.248 155.559ZM491.95 203.585C492.363 202.37 494.011 200.873 496.332 199.246C496.94 201.806 497.894 204.453 499.282 207.207C499.629 207.902 499.998 208.552 500.367 209.203C496.028 208.379 493.23 207.164 491.994 205.559C491.798 205.299 491.495 204.908 491.95 203.585ZM546.701 223.715C542.081 224.518 536.072 224.214 530.389 222.761C534.467 222.24 538.632 221.134 542.731 219.507C544.575 219.398 546.419 219.268 548.328 219.138C551.321 218.921 553.881 218.748 554.901 218.748C557.807 218.748 560.758 218.769 563.708 218.813C556.983 221.351 550.866 222.978 546.701 223.715ZM622.602 209.008C619.803 209.008 617.374 209.03 615.378 209.116C609.651 209.355 603.881 209.442 598.09 209.463C601.886 205.667 604.836 201.459 606.398 196.86C609.673 187.251 604.142 173.324 599.283 161.047C596.983 155.255 594.641 149.333 594.142 145.841C594.228 145.884 594.315 145.927 594.402 145.992C605.595 152.175 617.244 159.29 626.788 169.42C628.892 171.654 632.472 174.604 636.615 177.988C638.936 179.875 641.777 182.218 644.576 184.648C641.973 192.262 640.563 200.092 641.322 208.27C634.814 208.964 627.634 208.986 622.602 209.008ZM666.68 228.14C663.253 227.771 657.07 226.166 654.272 219.702C653.708 218.4 653.231 217.121 652.819 215.841C657.482 214.387 661.409 212.175 663.882 208.834C664.055 208.617 664.207 208.357 664.359 208.118C667.331 214.431 672.233 221.134 678.741 226.166C675.118 227.815 670.823 228.596 666.68 228.14ZM703.253 224.387C700.585 224.583 698.047 224.301 695.639 223.758C698.806 219.398 701.452 215.754 703.925 212.435C713.6 212.37 721.257 211.676 728.264 207.815C721.561 216.795 713.274 223.65 703.253 224.387Z" fill="#2A26A5"/>
<path d="M922.082 30.6128C920.997 25.5802 917.223 21.4153 910.889 18.27C894.576 10.1355 870.585 1.13328 850.563 16.7949C834.338 29.4848 826.984 42.5868 822.385 52.5868C821.257 55.038 820.173 57.3374 819.131 59.55C813.578 71.2854 809.153 80.6997 805.205 98.3136C801.084 108.357 797.548 118.379 794.945 127.555C792.667 135.602 788.654 145.993 784.424 156.991C772.103 188.965 762.363 214.214 775.921 219.767C774.641 226.796 774.598 233.13 777.07 237.685C778.784 240.874 781.626 243.043 785.248 243.954C786.311 244.214 787.418 244.345 788.589 244.345C796.637 244.345 807.266 237.967 820.867 224.974C827.852 218.314 834.88 210.592 840.867 203.52C868.719 180.353 892.624 135.255 895.748 103.975C896.55 95.9059 896.507 86.2312 895.401 76.4264C899.24 71.1986 903.101 66.0142 906.984 60.8731C908.09 59.3981 909.327 57.8797 910.563 56.3612C916.876 48.5304 924.034 39.6367 922.082 30.6128ZM867.461 133.325C863.361 152.197 855.531 168.769 842.819 185.494C839.912 189.333 836.941 193.021 833.99 196.579C828.784 200.809 823.491 204.149 818.199 206.275C806.094 211.156 795.877 213.238 787.7 212.566C789.261 207.186 791.17 201.698 792.754 197.099C794.055 193.347 795.292 189.811 796.225 186.709C797.635 182.067 799.435 177.121 801.496 171.98C802.103 172.847 802.819 173.65 803.708 174.366C806.528 176.579 809.695 177.728 813.014 177.728C813.86 177.728 814.728 177.663 815.574 177.511C826.637 175.581 835.878 162.088 843.665 149.594C844.663 148.01 845.465 146.709 846.051 145.863C850.021 140.223 853.99 134.583 857.938 128.921C862.646 122.218 867.418 115.429 872.212 108.639C871.04 116.969 869.24 125.233 868.004 130.743L867.461 133.325ZM849.977 123.303C846.008 128.943 842.06 134.583 838.09 140.223C837.418 141.177 836.507 142.631 835.4 144.431C831.279 151.047 821.604 166.557 813.904 167.902C812.407 168.162 811.127 167.793 809.76 166.709C807.873 165.234 809.76 156.231 810.671 151.915C810.737 151.589 810.802 151.264 810.867 150.939C827.418 116.687 850.368 80.6563 858.199 70.2008C859.283 68.7474 860.39 67.8363 861.019 67.8363C861.04 67.8363 861.062 67.8363 861.084 67.8363C862.255 67.9665 865.596 69.7018 871.539 82.9991C872.429 84.9947 872.949 87.511 873.188 90.3527C865.335 101.394 857.591 112.435 849.977 123.303ZM880.455 79.0077C876.073 69.2246 870.476 59.0727 862.19 58.1616C859.175 57.8363 854.685 58.6172 850.39 64.3656C843.817 73.1509 826.81 99.5718 811.539 128.205C811.539 119.832 812.429 111.069 814.229 102.652C814.337 102.153 814.446 101.654 814.554 101.177C827.331 70.4611 844.576 43.0857 853.969 37.8145C855.552 36.9252 858.741 35.1464 862.581 35.1464C866.507 35.1464 871.127 37.0336 875.401 43.6931C880.52 51.6757 883.644 62.6086 885.249 73.7366C883.752 75.7756 882.277 77.8364 880.802 79.8971C880.672 79.5934 880.585 79.2897 880.455 79.0077ZM793.535 160.505C796.723 152.218 799.782 144.279 802.146 137.273C802.233 138.487 802.342 139.68 802.472 140.852C802.624 142.283 802.125 145.082 801.561 147.923C795.465 160.591 790.238 173.021 786.94 183.867C786.051 186.774 784.858 190.245 783.578 193.889C781.995 198.422 780.368 203.13 778.958 207.75C778.828 198.661 788.177 174.388 793.535 160.505ZM787.613 234.475C786.637 234.236 786.073 233.802 785.661 233.021C784.424 230.744 784.554 226.774 785.4 222.067C787.157 222.284 788.936 222.414 790.802 222.414C797.635 222.414 805.292 221.026 813.73 218.292C802.103 229.247 792.277 235.624 787.613 234.475ZM886.03 102.999C885.053 112.695 881.821 124.019 876.984 135.581C877.006 135.515 877.006 135.472 877.027 135.429L877.591 132.847C880.542 119.507 883.383 105.082 883.145 93.3245C884.273 91.7627 885.401 90.2225 886.529 88.6607C886.637 93.7367 886.463 98.6173 886.03 102.999ZM902.949 50.2224C901.648 51.8276 900.368 53.4328 899.197 54.973C897.158 57.6411 895.184 60.3742 893.166 63.0641C891.127 53.91 888.025 45.2549 883.644 38.4002C876.051 26.5563 864.771 22.6735 852.949 27.5108C854.121 26.513 855.314 25.4934 856.594 24.4956C862.147 20.1355 868.416 17.9663 875.748 17.9663C884.338 17.9663 894.424 20.9815 906.55 27.0336C910.108 28.8123 912.125 30.7212 912.559 32.7169C913.513 37.1421 907.657 44.3872 902.949 50.2224Z" fill="#2A26A5"/>
<path d="M50.8896 229.7C38.742 229.7 26.3558 224.841 16.9198 216.381C6.0087 206.598 0 192.758 0 177.422C0 154.992 14.23 139.591 30.217 126.684C14.1866 114.233 0 98.9401 0 74.9487C0 44.8402 19.0239 26.8574 50.8896 26.8574C81.432 26.8574 101.172 45.7295 101.172 74.9487C101.172 97.682 86.4862 113.17 70.1955 126.185C86.4645 138.55 101.172 153.647 101.172 177.4C101.193 211.739 75.8788 229.7 50.8896 229.7ZM50.369 141.261C34.1216 153.756 23.8613 163.951 23.8613 177.444C23.8613 197.032 39.6748 205.839 50.8896 205.839C60.6944 205.839 77.3105 199.852 77.3105 177.444C77.3322 162.975 67.2888 153.474 50.369 141.261ZM50.8896 50.7404C31.9524 50.7404 23.8613 57.9855 23.8613 74.9704C23.8613 89.9162 33.5793 99.6343 50.0002 111.695C65.228 100.177 77.3105 89.4607 77.3105 74.9704C77.3322 58.8966 68.4384 50.7404 50.8896 50.7404Z" fill="#2A26A5"/>
<path d="M345.14 229.701C325.487 229.701 306.051 218.508 288.892 197.315C280.085 186.425 272.016 173.063 265.27 158.291C259.066 173.367 251.343 186.989 242.688 197.965C226.311 218.725 206.983 229.701 186.809 229.701C137.525 229.701 112.536 195.992 112.536 129.527C112.536 91.5877 122.189 27.9648 186.809 27.9648C216.745 27.9648 244.857 51.1753 264.337 90.3729C283.534 50.6981 312.298 27.9648 345.14 27.9648C392.689 27.9648 412.971 58.3337 412.971 129.527C412.949 196.924 390.78 229.701 345.14 229.701ZM277.113 122.39C277.222 122.759 277.352 123.15 277.461 123.518C294.272 177.575 324.229 205.84 345.118 205.84C359.391 205.84 389.088 205.84 389.088 129.527C389.088 51.8261 363.686 51.8261 345.118 51.8261C312.493 51.8261 289.326 86.4466 277.113 122.39ZM186.788 51.8261C152.861 51.8261 136.375 77.2492 136.375 129.527C136.375 197.163 163.317 205.84 186.788 205.84C207.135 205.84 235.768 181.349 250.562 127.575C251.018 125.883 251.495 124.213 251.994 122.542C236.745 79.3099 211.625 51.8261 186.788 51.8261Z" fill="#2A26A5"/>
<path d="M1106.29 86.3822C1106.29 53.2801 1079.37 26.3604 1046.27 26.3604C1013.17 26.3604 986.251 53.2801 986.251 86.3822C986.251 102.152 992.39 116.512 1002.37 127.25C992.39 137.966 986.251 152.348 986.251 168.118C986.251 201.22 1013.17 228.14 1046.27 228.14C1079.37 228.14 1106.29 201.22 1106.29 168.118C1106.29 152.348 1100.18 137.966 1090.18 127.25C1100.16 116.512 1106.29 102.152 1106.29 86.3822ZM1046.27 41.1977C1071.2 41.1977 1091.46 61.4797 1091.46 86.3822C1091.46 98.5298 1086.62 109.571 1078.79 117.706C1069.42 111.632 1058.25 108.096 1046.25 108.096C1034.26 108.096 1023.08 111.653 1013.71 117.727C1005.88 109.593 1001.07 98.5515 1001.07 86.4039C1001.07 61.4581 1021.35 41.1977 1046.27 41.1977ZM1046.27 213.302C1021.35 213.302 1001.07 193.02 1001.07 168.096C1001.07 143.172 1021.35 122.912 1046.27 122.912C1071.2 122.912 1091.46 143.194 1091.46 168.096C1091.46 193.042 1071.2 213.302 1046.27 213.302Z" fill="#2A26A5"/>
<path d="M1348.07 26.9434C1333.88 26.9434 1325.06 33.2124 1317.83 41.5422C1310.7 33.2558 1300.85 26.9434 1284.3 26.9434C1276.25 26.9434 1268.96 29.2428 1262.71 33.3859C1255.16 28.8523 1245.47 26.6831 1233.47 26.6831C1218.4 26.6831 1209.03 33.0823 1201.35 41.5205C1194.14 33.3859 1183.86 26.6831 1165.64 26.6831C1138.01 26.6831 1118.7 50.7179 1118.7 85.1215C1118.7 143.777 1168.72 197.747 1192.76 223.69L1194.43 225.512C1195.97 227.183 1198.16 228.137 1200.41 228.137C1200.48 228.137 1200.54 228.137 1200.61 228.137C1202.95 228.072 1205.16 227.009 1206.66 225.209C1209.2 222.172 1212.47 218.528 1216.27 214.298C1228.57 200.61 1246.42 180.718 1260.63 157.052C1275.86 184.905 1295.97 207.964 1308.5 222.302L1311 225.165C1312.5 226.901 1314.69 227.877 1316.96 227.877C1317.03 227.877 1317.09 227.877 1317.16 227.877C1319.52 227.812 1321.74 226.705 1323.19 224.862C1325.58 221.825 1328.66 218.181 1332.24 213.951C1354.28 187.855 1395.29 139.287 1395.29 85.1431C1395.34 44.9044 1380.76 26.9434 1348.07 26.9434ZM1204.14 203.387C1202.78 204.905 1201.48 206.358 1200.24 207.747C1177.62 183.126 1135.01 133.929 1135.01 85.1431C1135.01 64.8611 1144.58 43.0389 1165.62 43.0389C1180.7 43.0389 1187.09 48.5053 1194.3 59.308C1195.77 61.4989 1198.2 62.8654 1200.85 62.9305C1203.47 62.9956 1206.01 61.8025 1207.59 59.6984C1216.31 48.1799 1222.13 43.0389 1233.45 43.0389C1255.29 43.0389 1267.14 49.7417 1267.14 85.1431C1267.14 133.256 1227.7 177.161 1204.14 203.387ZM1320.18 203.734C1319 205.122 1317.9 206.445 1316.83 207.703C1303.26 192.042 1283.19 167.963 1269.81 140.133C1277.96 123.017 1283.49 104.449 1283.49 85.1431C1283.49 67.6594 1280.61 54.3839 1274.54 44.9261C1277.44 43.5812 1280.7 42.8003 1284.32 42.8003C1298.24 42.8003 1304.21 48.245 1310.93 58.9825C1312.34 61.2168 1314.77 62.6052 1317.42 62.6919C1320.13 62.7787 1322.58 61.5206 1324.1 59.373C1332.26 47.9196 1337.66 42.8003 1348.09 42.8003C1368.48 42.8003 1379.52 49.5465 1379.52 85.1431C1379.5 133.495 1342.37 177.465 1320.18 203.734Z" fill="#2A26A5"/>
<path d="M3714.61 111.22C3715.37 108.118 3716.26 104.821 3717.19 101.394C3721.83 84.3003 3727.6 63.042 3721.68 45.5366C3717.25 32.4129 3696.6 17.5104 3683.44 14.9725C3675.3 13.3889 3672.59 14.1698 3664.61 16.4909C3649.79 20.7859 3632.18 45.4064 3626.65 54.5387C3624.69 57.7709 3622.13 60.8511 3619.42 64.1049C3613.96 70.6776 3608.3 77.4673 3606.93 86.4261C3605.63 94.9294 3607.73 104.214 3610.75 113.194C3609.16 117.316 3607.73 121.307 3606.52 125.103C3603.33 135.125 3597.47 145.19 3591.83 154.908C3587.97 161.546 3584.09 168.248 3580.88 175.125C3579.08 173.606 3577.19 172.045 3575.21 170.439C3571.48 167.381 3567.97 164.517 3566.3 162.739C3555.82 151.611 3543.39 143.997 3531.51 137.446C3529.99 136.621 3528.47 135.775 3526.95 134.951C3526.67 134.799 3526.41 134.647 3526.13 134.496C3526.1 133.932 3526.08 133.368 3526.06 132.825C3528.47 131.546 3530.88 130.287 3533.26 129.008C3544.46 123.107 3556.04 116.99 3566.78 110.548C3580.07 102.565 3598.23 90.2005 3602.5 75.1679C3604.02 69.8317 3603.44 63.1288 3601.55 56.4477C3605.08 52.4997 3607.8 48.0528 3608.84 42.9986C3610.1 36.9031 3608.73 30.786 3604.74 24.799C3596.58 12.4996 3580.44 5.49297 3559.31 5.01575C3530.79 4.36498 3500.88 15.5581 3489.6 31.0028C3480.01 44.1049 3469.36 62.0659 3472.05 84.6473C3473.96 100.699 3480.57 112.131 3489.31 121.003C3486.58 124.279 3484.17 127.207 3482.26 129.68C3477.75 135.58 3469.99 141.524 3461.74 147.815C3447.51 158.682 3430.75 171.502 3428.23 188.075C3421.31 192.131 3416.65 196.079 3415.13 200.418C3413.33 205.602 3414.98 209.333 3416.67 211.524C3420.46 216.448 3428.49 218.964 3439.86 219.919C3440.7 221.025 3441.61 222.11 3442.68 223.129C3450.51 230.591 3463.15 233.932 3473.63 233.932C3476.19 233.932 3478.62 233.737 3480.81 233.346C3489.49 231.828 3504.87 226.947 3517.77 219.138C3527.86 219.268 3538.1 219.29 3548.21 218.856C3550.07 218.769 3552.42 218.769 3555.04 218.769C3561.38 218.748 3568.75 218.726 3575.63 217.858C3576.19 219.745 3576.88 221.654 3577.71 223.585C3581.18 231.611 3588.6 236.817 3598.01 237.837C3599.14 237.967 3600.29 238.01 3601.42 238.01C3608.51 238.01 3615.56 235.646 3620.83 231.698C3624.78 233.26 3629.1 234.192 3633.74 234.192C3634.61 234.192 3635.5 234.171 3636.39 234.106C3661.68 232.24 3678.17 203.52 3687.84 174.04C3700.9 152.153 3709.55 131.806 3714.61 111.22ZM3616.58 87.8794C3617.54 81.6104 3622.11 76.1223 3626.95 70.3306C3629.77 66.9466 3632.7 63.4325 3635.02 59.593C3642.24 47.684 3657.51 28.7252 3667.36 25.8618C3674.98 23.6493 3675.78 23.4106 3681.61 24.5603C3691.64 26.5126 3709.29 39.3109 3712.46 48.6819C3717.43 63.3674 3712.31 82.2178 3707.8 98.8556C3706.84 102.37 3705.93 105.732 3705.15 108.921C3703.18 116.99 3700.59 125.038 3697.38 133.172C3698.14 127.814 3698.62 123.042 3698.82 119.181L3698.92 117.142C3699.64 103.411 3700.64 83.8447 3693.94 70.6993C3692.63 58.118 3688.77 44.235 3681.01 37.0332C3677.12 33.4324 3672.46 31.697 3667.56 32.0657C3653.13 33.1287 3631.42 66.491 3616.95 98.4434C3616.28 94.6907 3616.08 91.1332 3616.58 87.8794ZM3667.58 187.598C3660.12 198.531 3654.39 201.589 3644.11 202.392C3647.95 197.641 3652.24 192.609 3658.27 185.797C3671.92 170.396 3682.2 150.049 3688.27 127.576C3686.84 139.572 3683.7 155.125 3678.82 170.136C3675.37 175.841 3671.64 181.632 3667.58 187.598ZM3603.31 196.817C3602.44 189.919 3604.91 185.732 3608.03 180.439C3609.51 177.923 3611.05 175.342 3612.35 172.261C3614.56 166.99 3616.45 161.567 3618.3 156.34C3619.57 152.652 3620.85 149.094 3622.18 145.58C3622.61 147.359 3622.92 149.203 3623.07 151.35C3623.78 162.609 3620.53 169.572 3616 179.203C3615 181.329 3613.98 183.52 3612.94 185.862C3610.18 192.11 3607.51 200.006 3611.27 205.797C3613.94 209.919 3618.86 211.481 3624.46 212.066C3622.76 214.387 3620.92 216.925 3618.9 219.724C3609.86 213.758 3604.13 203.433 3603.31 196.817ZM3684.69 80.4824C3684.78 117.858 3671.85 155.732 3650.96 179.333C3642.18 189.246 3636.86 195.667 3631.51 202.652C3622.7 202.522 3620.07 201.437 3619.49 200.505C3619.25 200.158 3618.3 197.967 3621.9 189.81C3622.89 187.533 3623.89 185.407 3624.87 183.346C3629.62 173.216 3633.72 164.474 3632.83 150.721C3632.44 144.669 3631.01 140.504 3629.34 135.689C3628.99 134.691 3628.64 133.65 3628.27 132.543C3628.23 132.435 3628.19 132.305 3628.14 132.196C3631.03 126.448 3633.57 119.224 3636.23 111.589C3643.67 90.3089 3652.09 66.2742 3670.2 66.2742C3670.72 66.2742 3671.25 66.2958 3671.79 66.3392C3677.71 66.7731 3681.72 69.593 3684.43 74.0399C3684.59 76.1657 3684.69 78.3132 3684.69 80.4824ZM3672.5 56.6212C3645.84 54.6038 3635.39 84.4304 3627.02 108.378C3625.74 112.066 3624.48 115.645 3623.22 118.964C3622.5 117.099 3621.81 115.211 3621.11 113.303C3635.48 77.2069 3658.97 42.4562 3668.25 41.7621C3668.45 41.7404 3668.64 41.7404 3668.84 41.7404C3670.83 41.7404 3672.59 42.5213 3674.35 44.1482C3677.43 47.0116 3680.05 52.2827 3681.87 58.8554C3679.16 57.6841 3676.08 56.9032 3672.5 56.6212ZM3600.27 159.789C3606.19 149.593 3612.29 139.073 3615.82 128.031C3615.89 127.836 3615.95 127.641 3616.02 127.446C3616.56 128.877 3617.1 130.287 3617.58 131.632C3614.2 138.682 3611.57 145.992 3609.1 153.107C3607.32 158.205 3605.48 163.498 3603.37 168.487C3602.33 170.938 3601.03 173.151 3599.66 175.472C3597.54 179.073 3595.24 182.977 3594.11 187.858C3592.57 185.949 3590.7 183.975 3588.53 181.914C3591.68 174.583 3595.93 167.272 3600.27 159.789ZM3584.93 192.153C3586.91 194.301 3588.34 196.253 3588.79 197.75C3589.73 200.83 3589.03 202.24 3588.45 203.043C3587.45 204.387 3585.67 205.407 3583.44 206.21C3583.18 201.481 3583.74 196.795 3584.93 192.153ZM3529.57 193.693C3527.8 198.899 3522.7 204.301 3515.06 209.333C3512.83 209.29 3510.59 209.268 3508.4 209.225C3503.33 209.138 3498.14 209.073 3492.96 209.03C3500.55 202.804 3506.43 195.19 3508.6 187.62C3512.68 173.411 3511.33 158.422 3509.12 143.628C3509.44 142.891 3509.79 142.175 3510.14 141.437C3511.55 140.656 3512.96 139.875 3514.37 139.094C3515.11 139.507 3515.84 139.94 3516.58 140.331C3516.62 141.893 3516.67 143.433 3516.67 145.016V145.212C3516.86 150.136 3519.53 156.86 3522.61 164.626C3526.65 174.821 3531.68 187.489 3529.57 193.693ZM3523.83 106.47C3523.48 102.955 3523.13 99.4847 3522.83 96.0357C3532.11 84.3219 3541.07 71.9574 3546.67 60.8945C3551.79 50.8077 3553 41.6537 3552.26 34.6255C3555.32 34.1916 3558.6 33.9313 3561.85 33.9313C3569.12 33.9313 3576.28 35.2328 3580.57 38.8337C3584.15 41.8272 3587.77 47.5756 3590.29 53.7361C3585.82 57.6624 3580.51 61.1115 3576.28 63.8447L3575.76 64.17C3573.59 65.58 3571.46 66.9466 3569.36 68.2915C3556.47 76.5345 3544.33 84.3219 3532.81 96.7515C3531.81 97.8144 3530.79 98.9207 3529.7 100.07C3527.88 102.088 3525.89 104.214 3523.83 106.47ZM3522.42 56.5995C3523.67 44.0832 3529.57 39.6797 3542.68 36.5127C3543 41.5018 3542.05 48.4433 3537.97 56.491C3534.04 64.2568 3528.25 72.8251 3521.83 81.3718C3521.48 73.2807 3521.55 65.1028 3522.42 56.5995ZM3512.7 55.6233C3511.4 68.5735 3511.83 80.9597 3512.78 92.9771C3509.86 96.5996 3506.93 100.157 3504.06 103.563C3503.61 98.9858 3502.7 94.2569 3501.81 89.6365C3500.07 80.6777 3498.29 71.3935 3499.88 63.9097C3503.28 47.8142 3516.02 37.0116 3526.97 31.9573C3519.42 36.1873 3513.96 43.107 3512.7 55.6233ZM3505.13 117.402C3507.97 114.062 3510.98 110.504 3514.04 106.817C3514.11 107.467 3514.17 108.14 3514.24 108.791C3514.5 111.394 3514.76 114.018 3515 116.643C3512.94 119.159 3510.92 121.784 3509.01 124.496C3507.9 123.758 3506.82 123.021 3505.76 122.261C3505.56 120.634 3505.32 119.008 3505.13 117.402ZM3437.77 194.04C3437.77 194.019 3437.77 194.019 3437.77 193.997C3437.77 193.997 3437.8 193.997 3437.8 193.975C3437.8 193.997 3437.8 194.019 3437.77 194.04ZM3447.14 210.505C3446.54 210.114 3445.95 209.702 3445.39 209.225C3445.11 207.88 3445.04 206.47 3445.24 204.973C3446.04 198.552 3448.38 192.674 3451.72 187.272C3453.07 186.665 3454.28 186.123 3455.34 185.646C3461.22 182.999 3465.87 180.917 3468.6 179.246L3469.47 178.726C3476.54 174.366 3483.87 169.875 3490.79 165.038C3491.4 164.604 3492.03 164.192 3492.65 163.78C3495.3 162.023 3498.12 160.114 3500.94 157.034C3501.83 166.708 3501.72 176.188 3499.21 184.951C3496.47 194.496 3485.15 204.713 3473 209.897C3462.81 210.483 3454.19 210.678 3447.14 210.505ZM3474.15 164.279C3479.88 159.984 3485.82 156.123 3491.37 152.63C3490.03 153.737 3488.64 154.669 3487.21 155.624C3486.54 156.079 3485.87 156.535 3485.19 156.99C3481.61 159.507 3477.9 161.914 3474.15 164.279ZM3593.11 72.4781C3590.66 81.1332 3580.1 91.1333 3561.74 102.153C3551.24 108.465 3539.79 114.496 3528.71 120.352C3527.58 120.938 3526.45 121.545 3525.3 122.153C3525.24 121.372 3525.15 120.613 3525.08 119.832C3529.05 115.168 3533.11 110.765 3536.84 106.773C3537.93 105.602 3538.97 104.496 3539.97 103.411C3550.64 91.8925 3561.74 84.7774 3574.63 76.5345C3576.75 75.1679 3578.9 73.8013 3581.09 72.3696L3581.61 72.0442C3585.26 69.6798 3589.36 67.0117 3593.26 63.9748C3593.78 67.1418 3593.78 70.0919 3593.11 72.4781ZM3497.47 36.7512C3506.49 24.4085 3532.92 14.7338 3557.12 14.7338C3557.77 14.7338 3558.45 14.7338 3559.1 14.7555C3569.42 14.9941 3588.06 17.2935 3596.6 30.1785C3599.12 33.953 3599.99 37.4888 3599.27 40.9812C3598.95 42.5647 3598.27 44.1265 3597.38 45.645C3594.46 39.7664 3590.72 34.6037 3586.86 31.3499C3576.1 22.3477 3557.95 23.8445 3549.64 25.146C3547.75 21.6102 3545.06 19.441 3542.09 19.0505C3527.84 17.1633 3496.62 32.3261 3490.36 61.849C3488.36 71.285 3490.33 81.5453 3492.24 91.4586C3493.37 97.3371 3494.46 102.89 3494.63 107.901C3494.69 109.528 3494.8 111.177 3494.93 112.847C3488.12 105.45 3483.26 96.2092 3481.77 83.4977C3479.47 64.3869 3488.42 49.1374 3497.47 36.7512ZM3467.67 155.559C3476.43 148.856 3484.72 142.522 3490.01 135.602C3491.77 133.303 3494 130.569 3496.58 127.489C3496.6 127.511 3496.62 127.533 3496.65 127.554C3497.08 130.374 3497.54 133.172 3497.99 135.949C3498.06 136.318 3498.1 136.687 3498.16 137.055C3495.41 138.661 3492.68 140.309 3490.01 141.979C3475.06 151.329 3456.28 163.107 3445.02 179.615C3443.52 180.309 3442.07 180.982 3440.66 181.654C3445.32 173.194 3455.19 165.081 3467.67 155.559ZM3424.37 203.585C3424.78 202.37 3426.43 200.873 3428.75 199.246C3429.36 201.806 3430.31 204.453 3431.7 207.207C3432.05 207.902 3432.42 208.552 3432.78 209.203C3428.45 208.379 3425.65 207.164 3424.41 205.559C3424.22 205.299 3423.91 204.908 3424.37 203.585ZM3479.12 223.715C3474.5 224.518 3468.49 224.214 3462.81 222.761C3466.88 222.24 3471.05 221.134 3475.15 219.507C3476.99 219.398 3478.84 219.268 3480.75 219.138C3483.74 218.921 3486.3 218.748 3487.32 218.748C3490.23 218.748 3493.18 218.769 3496.13 218.813C3489.4 221.351 3483.28 222.978 3479.12 223.715ZM3555.02 209.008C3552.22 209.008 3549.79 209.03 3547.8 209.116C3542.07 209.355 3536.3 209.442 3530.51 209.463C3534.3 205.667 3537.25 201.459 3538.82 196.86C3542.09 187.251 3536.56 173.324 3531.7 161.047C3529.4 155.255 3527.06 149.333 3526.56 145.841C3526.65 145.884 3526.73 145.927 3526.82 145.992C3538.01 152.175 3549.66 159.29 3559.21 169.42C3561.31 171.654 3564.89 174.604 3569.03 177.988C3571.35 179.875 3574.2 182.218 3576.99 184.648C3574.39 192.262 3572.98 200.092 3573.74 208.27C3567.23 208.964 3560.05 208.986 3555.02 209.008ZM3599.08 228.14C3595.65 227.771 3589.47 226.166 3586.67 219.702C3586.1 218.4 3585.63 217.121 3585.21 215.841C3589.88 214.387 3593.8 212.175 3596.28 208.834C3596.45 208.617 3596.6 208.357 3596.75 208.118C3599.73 214.431 3604.63 221.134 3611.14 226.166C3607.54 227.815 3603.24 228.596 3599.08 228.14ZM3635.67 224.387C3633 224.583 3630.46 224.301 3628.06 223.758C3631.22 219.398 3633.87 215.754 3636.34 212.435C3646.02 212.37 3653.67 211.676 3660.68 207.815C3653.98 216.795 3645.67 223.65 3635.67 224.387Z" fill="#2A26A5"/>
<path d="M3854.5 30.6128C3853.42 25.5802 3849.64 21.4153 3843.31 18.27C3826.99 10.1355 3803 1.13328 3782.98 16.7949C3766.76 29.4848 3759.4 42.5868 3754.8 52.5868C3753.68 55.038 3752.59 57.3374 3751.55 59.55C3746 71.2854 3741.57 80.6997 3737.62 98.3136C3733.5 108.357 3729.97 118.379 3727.36 127.555C3725.09 135.602 3721.07 145.993 3716.84 156.991C3704.52 188.965 3694.78 214.214 3708.34 219.767C3707.06 226.796 3707.02 233.13 3709.49 237.685C3711.2 240.874 3714.04 243.043 3717.67 243.954C3718.73 244.214 3719.84 244.345 3721.01 244.345C3729.06 244.345 3739.68 237.967 3753.29 224.974C3760.27 218.314 3767.3 210.592 3773.29 203.52C3801.14 180.353 3825.04 135.255 3828.17 103.975C3828.97 95.9059 3828.93 86.2312 3827.82 76.4264C3831.66 71.1986 3835.52 66.0142 3839.4 60.8731C3840.51 59.3981 3841.75 57.8797 3842.98 56.3612C3849.29 48.5304 3856.45 39.6367 3854.5 30.6128ZM3799.88 133.325C3795.78 152.197 3787.95 168.769 3775.24 185.494C3772.33 189.333 3769.36 193.021 3766.41 196.579C3761.2 200.809 3755.91 204.149 3750.62 206.275C3738.51 211.156 3728.3 213.238 3720.12 212.566C3721.68 207.186 3723.59 201.698 3725.17 197.099C3726.47 193.347 3727.71 189.811 3728.64 186.709C3730.05 182.067 3731.85 177.121 3733.91 171.98C3734.52 172.847 3735.24 173.65 3736.13 174.366C3738.95 176.579 3742.11 177.728 3745.43 177.728C3746.28 177.728 3747.15 177.663 3747.99 177.511C3759.06 175.581 3768.3 162.088 3776.08 149.594C3777.08 148.01 3777.88 146.709 3778.47 145.863C3782.44 140.223 3786.41 134.583 3790.36 128.921C3795.06 122.218 3799.84 115.429 3804.63 108.639C3803.46 116.969 3801.66 125.233 3800.42 130.743L3799.88 133.325ZM3782.4 123.303C3778.43 128.943 3774.48 134.583 3770.51 140.223C3769.84 141.177 3768.93 142.631 3767.82 144.431C3763.7 151.047 3754.02 166.557 3746.32 167.902C3744.83 168.162 3743.55 167.793 3742.18 166.709C3740.29 165.234 3742.18 156.231 3743.09 151.915C3743.16 151.589 3743.22 151.264 3743.29 150.939C3759.84 116.687 3782.79 80.6563 3790.62 70.2008C3791.7 68.7474 3792.81 67.8363 3793.44 67.8363C3793.46 67.8363 3793.48 67.8363 3793.5 67.8363C3794.67 67.9665 3798.01 69.7018 3803.96 82.9991C3804.85 84.9947 3805.37 87.511 3805.61 90.3527C3797.75 101.394 3790.01 112.435 3782.4 123.303ZM3812.87 79.0077C3808.49 69.2246 3802.89 59.0727 3794.61 58.1616C3791.59 57.8363 3787.1 58.6172 3782.81 64.3656C3776.24 73.1509 3759.23 99.5718 3743.96 128.205C3743.96 119.832 3744.85 111.069 3746.65 102.652C3746.76 102.153 3746.86 101.654 3746.97 101.177C3759.75 70.4611 3776.99 43.0857 3786.39 37.8145C3787.97 36.9252 3791.16 35.1464 3795 35.1464C3798.93 35.1464 3803.55 37.0336 3807.82 43.6931C3812.94 51.6757 3816.06 62.6086 3817.67 73.7366C3816.17 75.7756 3814.7 77.8364 3813.22 79.8971C3813.09 79.5934 3813 79.2897 3812.87 79.0077ZM3725.95 160.505C3729.14 152.218 3732.2 144.279 3734.56 137.273C3734.65 138.487 3734.76 139.68 3734.89 140.852C3735.04 142.283 3734.54 145.082 3733.98 147.923C3727.88 160.591 3722.66 173.021 3719.36 183.867C3718.47 186.774 3717.28 190.245 3716 193.889C3714.41 198.422 3712.79 203.13 3711.38 207.75C3711.22 198.661 3720.6 174.388 3725.95 160.505ZM3720.03 234.475C3719.06 234.236 3718.49 233.802 3718.08 233.021C3716.84 230.744 3716.97 226.774 3717.82 222.067C3719.58 222.284 3721.35 222.414 3723.22 222.414C3730.05 222.414 3737.71 221.026 3746.15 218.292C3734.5 229.247 3724.67 235.624 3720.03 234.475ZM3818.43 102.999C3817.45 112.695 3814.22 124.019 3809.38 135.581C3809.4 135.515 3809.4 135.472 3809.42 135.429L3809.99 132.847C3812.94 119.507 3815.78 105.082 3815.54 93.3245C3816.67 91.7627 3817.8 90.2225 3818.93 88.6607C3819.03 93.7367 3818.88 98.6173 3818.43 102.999ZM3835.37 50.2224C3834.07 51.8276 3832.79 53.4328 3831.62 54.973C3829.58 57.6411 3827.6 60.3742 3825.58 63.0641C3823.55 53.91 3820.44 45.2549 3816.06 38.4002C3808.47 26.5563 3797.19 22.6735 3785.37 27.5108C3786.54 26.513 3787.73 25.4934 3789.01 24.4956C3794.57 20.1355 3800.83 17.9663 3808.17 17.9663C3816.76 17.9663 3826.84 20.9815 3838.97 27.0336C3842.53 28.8123 3844.54 30.7212 3844.98 32.7169C3845.91 37.1421 3840.07 44.3872 3835.37 50.2224Z" fill="#2A26A5"/>
<path d="M2983.31 229.7C2971.16 229.7 2958.77 224.841 2949.34 216.381C2938.43 206.598 2932.42 192.758 2932.42 177.422C2932.42 154.992 2946.65 139.591 2962.64 126.684C2946.6 114.233 2932.42 98.9401 2932.42 74.9487C2932.42 44.8402 2951.44 26.8574 2983.31 26.8574C3013.85 26.8574 3033.59 45.7295 3033.59 74.9487C3033.59 97.682 3018.9 113.17 3002.61 126.185C3018.88 138.55 3033.59 153.647 3033.59 177.4C3033.59 211.739 3008.3 229.7 2983.31 229.7ZM2982.79 141.261C2966.54 153.756 2956.28 163.951 2956.28 177.444C2956.28 197.032 2972.09 205.839 2983.31 205.839C2993.11 205.839 3009.73 199.852 3009.73 177.444C3009.73 162.975 2999.69 153.474 2982.79 141.261ZM2983.31 50.7404C2964.37 50.7404 2956.28 57.9855 2956.28 74.9704C2956.28 89.9162 2966 99.6343 2982.42 111.695C2997.65 100.177 3009.73 89.4607 3009.73 74.9704C3009.73 58.8966 3000.84 50.7404 2983.31 50.7404Z" fill="#2A26A5"/>
<path d="M3277.56 229.701C3257.91 229.701 3238.47 218.508 3221.31 197.315C3212.5 186.425 3204.43 173.063 3197.69 158.291C3191.48 173.367 3183.76 186.989 3175.11 197.965C3158.73 218.725 3139.4 229.701 3119.23 229.701C3069.94 229.701 3044.95 195.992 3044.95 129.527C3044.95 91.5877 3054.61 27.9648 3119.23 27.9648C3149.16 27.9648 3177.28 51.1753 3196.76 90.3729C3215.95 50.6981 3244.72 27.9648 3277.56 27.9648C3325.11 27.9648 3345.39 58.3337 3345.39 129.527C3345.37 196.924 3323.18 229.701 3277.56 229.701ZM3209.53 122.39C3209.64 122.759 3209.77 123.15 3209.88 123.518C3226.69 177.575 3256.65 205.84 3277.54 205.84C3291.81 205.84 3321.51 205.84 3321.51 129.527C3321.51 51.8261 3296.11 51.8261 3277.54 51.8261C3244.91 51.8261 3221.74 86.4466 3209.53 122.39ZM3119.21 51.8261C3085.28 51.8261 3068.79 77.2492 3068.79 129.527C3068.79 197.163 3095.74 205.84 3119.21 205.84C3139.55 205.84 3168.19 181.349 3182.98 127.575C3183.44 125.883 3183.91 124.213 3184.41 122.542C3169.16 79.3099 3144.04 51.8261 3119.21 51.8261Z" fill="#2A26A5"/>
<path d="M4038.71 86.3822C4038.71 53.2801 4011.79 26.3604 3978.69 26.3604C3945.59 26.3604 3918.67 53.2801 3918.67 86.3822C3918.67 102.152 3924.81 116.512 3934.79 127.25C3924.81 137.966 3918.67 152.348 3918.67 168.118C3918.67 201.22 3945.59 228.14 3978.69 228.14C4011.79 228.14 4038.71 201.22 4038.71 168.118C4038.71 152.348 4032.6 137.966 4022.6 127.25C4032.57 116.512 4038.71 102.152 4038.71 86.3822ZM3978.69 41.1977C4003.62 41.1977 4023.88 61.4797 4023.88 86.3822C4023.88 98.5298 4019.04 109.571 4011.21 117.706C4001.84 111.632 3990.66 108.096 3978.67 108.096C3966.67 108.096 3955.5 111.653 3946.13 117.727C3938.3 109.593 3933.48 98.5515 3933.48 86.4039C3933.48 61.4581 3953.77 41.1977 3978.69 41.1977ZM3978.69 213.302C3953.77 213.302 3933.48 193.02 3933.48 168.096C3933.48 143.172 3953.77 122.912 3978.69 122.912C4003.62 122.912 4023.88 143.194 4023.88 168.096C4023.88 193.042 4003.59 213.302 3978.69 213.302Z" fill="#2A26A5"/>
<path d="M4280.49 26.9434C4266.3 26.9434 4257.47 33.2124 4250.25 41.5422C4243.11 33.2558 4233.27 26.9434 4216.72 26.9434C4208.67 26.9434 4201.38 29.2428 4195.13 33.3859C4187.58 28.8523 4177.89 26.6831 4165.89 26.6831C4150.81 26.6831 4141.44 33.0823 4133.76 41.5205C4126.56 33.3859 4116.28 26.6831 4098.06 26.6831C4070.42 26.6831 4051.12 50.7179 4051.12 85.1215C4051.12 143.777 4101.14 197.747 4125.17 223.69L4126.85 225.512C4128.39 227.183 4130.58 228.137 4132.83 228.137C4132.9 228.137 4132.96 228.137 4133.03 228.137C4135.37 228.072 4137.58 227.009 4139.08 225.209C4141.62 222.172 4144.89 218.528 4148.69 214.298C4160.99 200.61 4178.84 180.718 4193.05 157.052C4208.28 184.905 4228.39 207.964 4240.92 222.302L4243.42 225.165C4244.91 226.901 4247.11 227.877 4249.38 227.877C4249.45 227.877 4249.51 227.877 4249.58 227.877C4251.94 227.812 4254.16 226.705 4255.61 224.862C4258 221.825 4261.08 218.181 4264.65 213.951C4286.69 187.855 4327.71 139.287 4327.71 85.1431C4327.76 44.9044 4313.18 26.9434 4280.49 26.9434ZM4136.56 203.387C4135.2 204.905 4133.9 206.358 4132.66 207.747C4110.03 183.126 4067.43 133.929 4067.43 85.1431C4067.43 64.8611 4077 43.0389 4098.04 43.0389C4113.11 43.0389 4119.51 48.5053 4126.72 59.308C4128.19 61.4989 4130.62 62.8654 4133.27 62.9305C4135.89 62.9956 4138.43 61.8025 4140.01 59.6984C4148.73 48.1799 4154.55 43.0389 4165.87 43.0389C4187.71 43.0389 4199.56 49.7417 4199.56 85.1431C4199.56 133.256 4160.12 177.161 4136.56 203.387ZM4252.59 203.734C4251.42 205.122 4250.32 206.445 4249.25 207.703C4235.67 192.042 4215.61 167.963 4202.22 140.133C4210.38 123.017 4215.91 104.449 4215.91 85.1431C4215.91 67.6594 4213.03 54.3839 4206.95 44.9261C4209.86 43.5812 4213.11 42.8003 4216.74 42.8003C4230.66 42.8003 4236.63 48.245 4243.35 58.9825C4244.76 61.2168 4247.19 62.6052 4249.84 62.6919C4252.55 62.7787 4255 61.5206 4256.52 59.373C4264.68 47.9196 4270.08 42.8003 4280.51 42.8003C4300.9 42.8003 4311.94 49.5465 4311.94 85.1431C4311.9 133.495 4274.79 177.465 4252.59 203.734Z" fill="#2A26A5"/>
</g>
</svg>
