<svg width="124" height="19" viewBox="0 0 124 19" fill="none" xmlns="http://www.w3.org/2000/svg">
<path d="M9.58235 9.44735L9.72177 7.98345H9.65206L9.12227 9.32187L6.58486 13.7275H6.23631L3.54554 9.30793L3.04364 7.98345H2.97393L3.16911 9.4334V16H2.08165V6.24073H2.94605L5.9993 11.2319L6.45938 12.3194H6.48727L6.91946 11.204L9.8333 6.24073H10.7395V16H9.58235V9.44735ZM12.8868 9.54494C13.24 9.33116 13.6489 9.17316 14.1137 9.07092C14.5877 8.96868 15.0803 8.91756 15.5915 8.91756C16.0748 8.91756 16.4605 8.98262 16.7487 9.11274C17.0461 9.24287 17.2692 9.41482 17.4179 9.62859C17.5759 9.83307 17.6781 10.0608 17.7246 10.3117C17.7804 10.5627 17.8082 10.8136 17.8082 11.0646C17.8082 11.6223 17.7943 12.166 17.7664 12.6958C17.7385 13.2256 17.7246 13.7275 17.7246 14.2015C17.7246 14.5454 17.7385 14.8707 17.7664 15.1774C17.7943 15.4842 17.8454 15.7676 17.9198 16.0279H17.0972L16.8044 15.052H16.7347C16.6511 15.1821 16.5442 15.3122 16.4141 15.4423C16.2932 15.5632 16.1445 15.6747 15.9679 15.7769C15.7913 15.8699 15.5868 15.9489 15.3545 16.0139C15.1221 16.079 14.8572 16.1115 14.5598 16.1115C14.2624 16.1115 13.9835 16.0651 13.7233 15.9721C13.4723 15.8792 13.2539 15.749 13.068 15.5817C12.8821 15.4051 12.7334 15.196 12.6219 14.9544C12.5196 14.7127 12.4685 14.4385 12.4685 14.1318C12.4685 13.7228 12.5522 13.3836 12.7195 13.114C12.8868 12.8352 13.1191 12.6168 13.4166 12.4588C13.7233 12.2915 14.0858 12.1753 14.504 12.1102C14.9316 12.0359 15.401 11.9987 15.9122 11.9987C16.0423 11.9987 16.1678 11.9987 16.2886 11.9987C16.4187 11.9987 16.5488 12.008 16.679 12.0266C16.7068 11.7477 16.7208 11.4968 16.7208 11.2737C16.7208 10.7625 16.6185 10.4047 16.4141 10.2002C16.2096 9.99572 15.8378 9.89348 15.2987 9.89348C15.1407 9.89348 14.9688 9.90743 14.7829 9.93531C14.6063 9.9539 14.4204 9.98643 14.2252 10.0329C14.0393 10.0701 13.8581 10.1212 13.6815 10.1863C13.5142 10.242 13.3654 10.3071 13.2353 10.3814L12.8868 9.54494ZM14.8665 15.1356C15.1268 15.1356 15.3591 15.1031 15.5636 15.038C15.7681 14.9637 15.9447 14.8754 16.0934 14.7731C16.2421 14.6616 16.3629 14.5408 16.4559 14.4106C16.5581 14.2805 16.6325 14.155 16.679 14.0342V12.877C16.5488 12.8677 16.4141 12.8631 16.2746 12.8631C16.1445 12.8538 16.0144 12.8491 15.8843 12.8491C15.5961 12.8491 15.3127 12.8677 15.0338 12.9049C14.7643 12.9328 14.5226 12.9932 14.3088 13.0862C14.1044 13.1698 13.9371 13.2906 13.8069 13.4486C13.6861 13.5974 13.6257 13.7879 13.6257 14.0203C13.6257 14.3456 13.7419 14.6151 13.9742 14.8289C14.2066 15.0334 14.504 15.1356 14.8665 15.1356ZM25.2684 13.602C25.2684 14.076 25.2731 14.5082 25.2824 14.8986C25.2917 15.2797 25.3335 15.6561 25.4078 16.0279H24.655L24.3761 15.038H24.3204C24.1345 15.3633 23.8649 15.6329 23.5118 15.8466C23.1586 16.0604 22.745 16.1673 22.2709 16.1673C21.3415 16.1673 20.649 15.8745 20.1936 15.289C19.7475 14.7034 19.5244 13.7879 19.5244 12.5424C19.5244 11.3527 19.8032 10.4512 20.3609 9.83772C20.9279 9.21498 21.704 8.90362 22.6892 8.90362C23.0331 8.90362 23.3026 8.9222 23.4978 8.95938C23.7023 8.99656 23.9207 9.05697 24.1531 9.14063V6.24073H25.2684V13.602ZM22.4522 15.1914C22.9262 15.1914 23.3026 15.0705 23.5815 14.8289C23.8603 14.5779 24.0508 14.2015 24.1531 13.6996V10.242C23.9858 10.1119 23.7952 10.019 23.5815 9.96319C23.3677 9.90743 23.0842 9.87954 22.731 9.87954C22.0897 9.87954 21.5878 10.0933 21.2253 10.5209C20.8628 10.9391 20.6816 11.613 20.6816 12.5424C20.6816 12.9235 20.7094 13.2767 20.7652 13.602C20.8303 13.9273 20.9325 14.2062 21.0719 14.4385C21.2114 14.6709 21.3926 14.8568 21.6157 14.9962C21.848 15.1263 22.1269 15.1914 22.4522 15.1914ZM32.5054 15.4423C32.2266 15.6654 31.8734 15.842 31.4458 15.9721C31.0276 16.1022 30.5814 16.1673 30.1074 16.1673C29.5776 16.1673 29.1176 16.0837 28.7272 15.9163C28.3368 15.7398 28.0162 15.4934 27.7652 15.1774C27.5142 14.8521 27.3284 14.4664 27.2075 14.0203C27.0867 13.5741 27.0263 13.0722 27.0263 12.5145C27.0263 11.3248 27.2912 10.4186 27.821 9.79589C28.3508 9.17316 29.1083 8.86179 30.0935 8.86179C30.4095 8.86179 30.7255 8.89897 31.0415 8.97332C31.3575 9.03839 31.641 9.16851 31.892 9.3637C32.1429 9.55888 32.3474 9.83772 32.5054 10.2002C32.6634 10.5534 32.7424 11.0228 32.7424 11.6083C32.7424 11.915 32.7145 12.2543 32.6588 12.6261H28.1835C28.1835 13.035 28.2253 13.3975 28.3089 13.7135C28.3926 14.0296 28.5227 14.2991 28.6993 14.5222C28.8759 14.7359 29.1036 14.9032 29.3825 15.0241C29.6706 15.1356 30.0191 15.1914 30.4281 15.1914C30.7441 15.1914 31.0601 15.1356 31.3761 15.0241C31.6921 14.9125 31.9292 14.7824 32.0872 14.6337L32.5054 15.4423ZM30.1074 9.83772C29.559 9.83772 29.1176 9.98178 28.783 10.2699C28.4576 10.558 28.2625 11.0507 28.1974 11.7477H31.655C31.655 11.0414 31.5202 10.5487 31.2507 10.2699C30.9811 9.98178 30.6 9.83772 30.1074 9.83772ZM38.2134 6.24073H39.3287V9.71224H39.3845C39.5983 9.4427 39.8678 9.23357 40.1931 9.08486C40.5277 8.93615 40.8902 8.86179 41.2806 8.86179C42.1822 8.86179 42.856 9.14992 43.3022 9.72618C43.7576 10.3024 43.9853 11.1947 43.9853 12.403C43.9853 13.6206 43.6879 14.5454 43.093 15.1774C42.4982 15.8095 41.6617 16.1255 40.5835 16.1255C40.063 16.1255 39.589 16.0697 39.1614 15.9582C38.7432 15.8466 38.4272 15.7258 38.2134 15.5957V6.24073ZM41.0854 9.83772C40.6207 9.83772 40.2443 9.96784 39.9561 10.2281C39.668 10.4883 39.4589 10.8555 39.3287 11.3295V14.8428C39.5053 14.9451 39.7191 15.0241 39.9701 15.0798C40.221 15.1263 40.4813 15.1495 40.7508 15.1495C41.3828 15.1495 41.8847 14.9265 42.2565 14.4803C42.6376 14.0342 42.8281 13.3371 42.8281 12.3891C42.8281 12.0266 42.7956 11.6873 42.7305 11.3713C42.6655 11.0553 42.5632 10.7858 42.4238 10.5627C42.2844 10.3396 42.1032 10.163 41.8801 10.0329C41.6663 9.90278 41.4014 9.83772 41.0854 9.83772ZM47.6286 13.5462L48.019 14.8847H48.0887L48.3954 13.5323L49.7477 9.02909H50.877L48.8136 15.289C48.6556 15.7444 48.4976 16.1859 48.3396 16.6134C48.1909 17.041 48.0236 17.4221 47.8377 17.7567C47.6518 18.0913 47.4427 18.3562 47.2103 18.5514C46.978 18.7558 46.7084 18.8581 46.4017 18.8581C46.0671 18.8581 45.7929 18.8116 45.5791 18.7187L45.7743 17.7567C45.8952 17.8031 46.0113 17.8264 46.1229 17.8264C46.3831 17.8264 46.6341 17.687 46.8757 17.4081C47.1174 17.1386 47.3172 16.6692 47.4752 16L44.6729 9.02909H45.9556L47.6286 13.5462Z" fill="white"/>
<path d="M68.9275 0.862061H57.1289V16.387H60.2197V12.3933H66.3122V9.46829H60.2197V3.75893H66.2528L66.3122 3.7308L68.9275 1.22768L69.3436 0.862061H68.9275Z" fill="white"/>
<path d="M70.1629 2.82915L69.2119 3.75727V16.3854H72.3027V0.832275L70.1629 2.82915Z" fill="white"/>
<path d="M99.3193 3.70302V16.3593H102.41V0.806152L99.3193 3.70302Z" fill="white"/>
<path d="M92.6416 10.003V6.65614H94.4545L97.5453 3.73115H92.6416V0.806152H89.5508V10.003C89.5508 11.9999 90.1154 13.5468 91.2151 14.5874C92.8794 16.1624 95.4055 16.3593 97.1887 16.3593V13.4343C95.2866 13.4343 94.0384 13.1249 93.4143 12.5343C92.8794 12.028 92.6416 11.2124 92.6416 10.003Z" fill="white"/>
<path d="M114.321 10.68C115.897 9.18939 116.134 7.92376 116.134 6.60189C116.134 3.39565 113.37 0.780029 109.982 0.780029C106.594 0.780029 103.831 3.39565 103.831 6.60189C103.831 8.57064 104.841 10.3425 106.535 11.4394L108.794 9.30189C107.516 8.85189 106.892 7.69877 106.892 6.60189C106.892 4.99877 108.288 3.6769 109.982 3.6769C111.676 3.6769 113.014 4.99877 113.073 6.60189C113.103 7.53002 112.746 8.23314 109.299 11.355L103.801 16.4456H116.075V13.5488H111.201L114.321 10.68Z" fill="white"/>
<path d="M120.501 5.64423C121.896 5.64423 123.027 4.54873 123.027 3.19736C123.027 1.84599 121.896 0.750488 120.501 0.750488C119.106 0.750488 117.975 1.84599 117.975 3.19736C117.975 4.54873 119.106 5.64423 120.501 5.64423Z" fill="white"/>
<path d="M87.6888 10.174C87.6888 6.63022 84.6574 3.76147 80.9127 3.76147C77.1681 3.76147 74.1367 6.63022 74.1367 10.174C74.1367 13.7177 77.1681 16.5865 80.9127 16.5865C82.2798 16.5865 83.5578 16.1927 84.598 15.5458V16.3896H87.6888V10.3146C87.6888 10.2583 87.6888 10.2302 87.6888 10.174ZM80.9127 13.6615C78.8621 13.6615 77.2275 12.0865 77.2275 10.174C77.2275 8.26147 78.8621 6.65834 80.9127 6.65834C82.9634 6.65834 84.598 8.23334 84.598 10.1458C84.598 12.0583 82.9337 13.6615 80.9127 13.6615Z" fill="white"/>
</svg>
