<svg width="27" height="28" viewBox="0 0 27 28" fill="none" xmlns="http://www.w3.org/2000/svg">
<path d="M18.7724 9.73061C18.665 9.6232 18.491 9.6232 18.3836 9.73061L11.9755 16.1385L8.17109 12.3342C8.06368 12.2268 7.88968 12.2268 7.78227 12.3342L6.99496 13.1217C6.88755 13.2291 6.88755 13.4031 6.99496 13.5105L11.7811 18.2968C11.7946 18.3102 11.8091 18.3219 11.8241 18.332C11.931 18.4025 12.076 18.3908 12.17 18.2968L12.9578 17.5095C12.961 17.506 12.9648 17.5025 12.968 17.4989L19.5597 10.907C19.6279 10.8388 19.6526 10.7436 19.6344 10.6558C19.6236 10.6053 19.5989 10.5573 19.5597 10.5181L18.7724 9.73061Z" fill="white"/>
<circle cx="13.2771" cy="14.0136" r="12.3264" stroke="white" stroke-width="1.6"/>
</svg>
