<svg width="34" height="34" viewBox="0 0 34 34" fill="none" xmlns="http://www.w3.org/2000/svg">
<path d="M2.20984 15.801C1.38141 15.801 0.709839 16.4726 0.709839 17.301C0.709839 18.1295 1.38141 18.801 2.20984 18.801V15.801ZM32.3846 18.801C33.213 18.801 33.8846 18.1295 33.8846 17.301C33.8846 16.4726 33.213 15.801 32.3846 15.801V18.801ZM2.20984 18.801H32.3846V15.801H2.20984V18.801Z" fill="white"/>
<path d="M18.1935 1.61011C18.1935 0.78168 17.5219 0.110107 16.6935 0.110107C15.8651 0.110107 15.1935 0.78168 15.1935 1.61011H18.1935ZM15.1935 31.7849C15.1935 32.6133 15.8651 33.2849 16.6935 33.2849C17.5219 33.2849 18.1935 32.6133 18.1935 31.7849H15.1935ZM15.1935 1.61011V31.7849H18.1935V1.61011H15.1935Z" fill="white"/>
</svg>
