<svg width="24" height="24" viewBox="0 0 24 24" fill="none" xmlns="http://www.w3.org/2000/svg">
<path fill-rule="evenodd" clip-rule="evenodd" d="M6.91178 7.87909C6.89625 10.3726 9.08007 12.4365 11.7433 12.445C14.4335 12.4536 16.6325 10.4367 16.6462 7.94828C16.6597 5.40101 14.4966 3.34016 11.8018 3.33338C9.11234 3.3264 6.92711 5.35803 6.91178 7.87909ZM11.7824 5.66025C13.1042 5.66138 14.159 6.64703 14.1637 7.88512C14.1681 9.12303 13.1161 10.1151 11.7947 10.1194C10.4693 10.1239 9.40538 9.14527 9.3955 7.91189C9.38521 6.66249 10.4495 5.65893 11.7824 5.66025ZM6.84243 14.6787C7.99484 15.5213 9.34087 15.8651 10.8337 16.0107C10.7932 16.0512 10.7582 16.0868 10.7264 16.1193C10.6756 16.1711 10.6328 16.2147 10.5883 16.2567C10.3756 16.4561 10.163 16.6554 9.95032 16.8548C9.06827 17.6818 8.18605 18.5089 7.30186 19.3344C7.07497 19.5461 6.91242 19.7822 6.89628 20.0913C6.87289 20.5481 7.17601 21.0028 7.65239 21.2187C8.10052 21.4221 8.56036 21.358 8.94678 21.0018C9.80736 20.2085 10.6629 19.4108 11.5047 18.6005C11.7153 18.398 11.83 18.3539 12.0686 18.5871C12.6198 19.1264 13.1857 19.6524 13.7517 20.1784C14.0276 20.4348 14.3035 20.6912 14.5777 20.9492C14.7962 21.1549 15.042 21.3016 15.3572 21.322C15.8548 21.3538 16.3622 21.0561 16.5889 20.6036C16.7962 20.1895 16.7176 19.7481 16.341 19.3921C15.6385 18.728 14.9326 18.0669 14.2266 17.4058C13.822 17.0269 13.4173 16.6479 13.0133 16.2684C12.9558 16.2144 12.9089 16.1664 12.8377 16.0935C12.8134 16.0686 12.7863 16.0408 12.7549 16.009C13.5715 15.9177 14.3966 15.7802 15.1499 15.5072C15.9466 15.2183 16.6635 14.8044 17.2597 14.2324C17.6483 13.8592 17.6524 13.3901 17.3369 12.9094C17.0608 12.4886 16.581 12.3119 16.0666 12.4354C15.8019 12.4991 15.5736 12.624 15.3601 12.7771C13.2043 14.1328 10.2539 14.0947 8.10617 12.715C8.00089 12.6468 7.89098 12.5832 7.77561 12.5323C7.17985 12.2696 6.60667 12.392 6.26522 12.8495C5.86609 13.384 5.91691 13.9028 6.42132 14.3557C6.52565 14.4493 6.64095 14.5327 6.75607 14.6159C6.78493 14.6368 6.81377 14.6577 6.84243 14.6787Z" fill="white"/>
</svg>
