<svg width="12" height="17" viewBox="0 0 12 17" fill="none" xmlns="http://www.w3.org/2000/svg">
<path fill-rule="evenodd" clip-rule="evenodd" d="M1.5948 4.44938C1.58048 6.74837 3.59392 8.65122 6.04936 8.65905C8.52971 8.66704 10.5571 6.80747 10.5697 4.51318C10.5822 2.16464 8.58791 0.264575 6.10328 0.258317C3.62367 0.251886 1.60893 2.12501 1.5948 4.44938ZM6.08543 2.40365C7.30413 2.40469 8.27663 3.31344 8.28091 4.45494C8.285 5.59627 7.3151 6.51093 6.09677 6.51493C4.87473 6.5191 3.89386 5.61678 3.88474 4.47963C3.87526 3.3277 4.8565 2.40243 6.08543 2.40365ZM1.53086 10.7185C2.59336 11.4954 3.83437 11.8123 5.21075 11.9465C5.17336 11.9839 5.14113 12.0168 5.11184 12.0467C5.06494 12.0945 5.02554 12.1347 4.98445 12.1734C4.78835 12.3572 4.59226 12.5411 4.39616 12.7249C3.58296 13.4874 2.76961 14.2499 1.95445 15.011C1.74525 15.2062 1.59538 15.4238 1.58051 15.7088C1.55894 16.13 1.83841 16.5492 2.27762 16.7482C2.6908 16.9358 3.11476 16.8767 3.47103 16.5483C4.26447 15.8169 5.05325 15.0814 5.8294 14.3343C6.02353 14.1476 6.12933 14.1069 6.34931 14.322C6.85748 14.8192 7.37927 15.3041 7.90112 15.7891C8.15548 16.0255 8.40986 16.2619 8.66267 16.4998C8.86405 16.6895 9.09072 16.8247 9.38136 16.8435C9.84009 16.8729 10.3079 16.5984 10.5169 16.1811C10.7081 15.7994 10.6356 15.3924 10.2884 15.0641C9.64071 14.4519 8.98985 13.8424 8.33899 13.2329C7.96589 12.8835 7.59279 12.5341 7.22028 12.1842C7.16731 12.1344 7.12406 12.0901 7.05836 12.0229C7.03597 12 7.01097 11.9744 6.98208 11.945C7.73498 11.8608 8.49569 11.7341 9.19021 11.4824C9.9247 11.216 10.5857 10.8344 11.1354 10.307C11.4937 9.96293 11.4974 9.5304 11.2066 9.08726C10.9521 8.69923 10.5097 8.53633 10.0353 8.6502C9.79137 8.70897 9.58088 8.82405 9.38396 8.96522C7.39637 10.2152 4.67615 10.1801 2.696 8.90802C2.59894 8.84509 2.4976 8.7865 2.39123 8.73956C1.84195 8.49739 1.31349 8.61022 0.998677 9.03197C0.630687 9.52483 0.677546 10.0031 1.1426 10.4207C1.23879 10.507 1.34509 10.5839 1.45122 10.6606C1.47783 10.6799 1.50443 10.6991 1.53086 10.7185Z" fill="white"/>
</svg>
