<svg width="10" height="16" viewBox="0 0 10 16" fill="none" xmlns="http://www.w3.org/2000/svg">
<path fill-rule="evenodd" clip-rule="evenodd" d="M1.31533 4.29652C1.30288 6.29564 3.05369 7.95029 5.18885 7.95709C7.34568 7.96405 9.10862 6.34703 9.11962 4.35199C9.13045 2.30979 7.39629 0.657555 5.23574 0.652114C3.07956 0.646521 1.32762 2.27533 1.31533 4.29652ZM5.22022 2.51762C6.27996 2.51853 7.12562 3.30875 7.12934 4.30135C7.13289 5.29381 6.2895 6.08917 5.23009 6.09265C4.16744 6.09627 3.3145 5.31165 3.30658 4.32282C3.29833 3.32114 4.15159 2.51656 5.22022 2.51762ZM1.2595 9.74707C2.18342 10.4227 3.26256 10.6982 4.45941 10.815C4.42689 10.8474 4.39887 10.876 4.37339 10.902C4.33261 10.9436 4.29836 10.9786 4.26263 11.0122C4.09216 11.172 3.92169 11.3319 3.75122 11.4917C3.04404 12.1547 2.33673 12.8179 1.62784 13.4797C1.44594 13.6494 1.31561 13.8387 1.30268 14.0865C1.28392 14.4528 1.52694 14.8172 1.90886 14.9903C2.26815 15.1534 2.63681 15.102 2.94661 14.8165C3.63656 14.1805 4.32246 13.5409 4.99736 12.8913C5.16617 12.7289 5.25818 12.6936 5.44946 12.8806C5.89135 13.3129 6.34509 13.7346 6.79887 14.1563C7.02005 14.3619 7.24125 14.5675 7.46108 14.7743C7.6362 14.9392 7.8333 15.0568 8.08603 15.0732C8.48493 15.0987 8.89175 14.86 9.07349 14.4972C9.23971 14.1652 9.17665 13.8113 8.87477 13.5259C8.31152 12.9935 7.74553 12.4635 7.17954 11.9334C6.85513 11.6296 6.53072 11.3259 6.20683 11.0216C6.16076 10.9783 6.12315 10.9398 6.06601 10.8813C6.04654 10.8614 6.02481 10.8391 5.9997 10.8136C6.6544 10.7404 7.31588 10.6302 7.91981 10.4113C8.5585 10.1797 9.13332 9.84791 9.61128 9.38925C9.92286 9.09008 9.9261 8.71396 9.67321 8.32863C9.45185 7.99121 9.06718 7.84956 8.6547 7.94858C8.44256 7.99968 8.25953 8.09975 8.08829 8.2225C6.35995 9.30943 3.99454 9.27889 2.27267 8.17277C2.18827 8.11804 2.10015 8.0671 2.00766 8.02628C1.53002 7.8157 1.07048 7.91381 0.796738 8.28055C0.476747 8.70913 0.517494 9.125 0.921889 9.48812C1.00554 9.56318 1.09797 9.63002 1.19026 9.69677C1.2134 9.7135 1.23653 9.73023 1.2595 9.74707Z" fill="#805846"/>
</svg>
