<svg width="33" height="49" viewBox="0 0 33 49" fill="none" xmlns="http://www.w3.org/2000/svg">
<g clip-path="url(#clip0)">
<g filter="url(#filter0_d)">
<path d="M27.6868 21.4113C28.2908 19.9884 28.6249 18.4232 28.6249 16.78C28.6249 10.2284 23.3138 4.91736 16.7623 4.91736C10.2107 4.91736 4.89966 10.2284 4.89966 16.78C4.89966 23.3315 10.2107 28.6426 16.7623 28.6426C16.7906 28.6426 16.8188 28.6425 16.8471 28.6423C15.232 38.5696 13.9811 42.1661 13.9811 42.1661C13.9811 42.1661 26.2674 26.9465 27.6868 21.4113Z" fill="#5FD48E"/>
<path d="M27.6868 21.4113C28.2908 19.9884 28.6249 18.4232 28.6249 16.78C28.6249 10.2284 23.3138 4.91736 16.7623 4.91736C10.2107 4.91736 4.89966 10.2284 4.89966 16.78C4.89966 23.3315 10.2107 28.6426 16.7623 28.6426C16.7906 28.6426 16.8188 28.6425 16.8471 28.6423C15.232 38.5696 13.9811 42.1661 13.9811 42.1661C13.9811 42.1661 26.2674 26.9465 27.6868 21.4113Z" stroke="white" stroke-width="4" stroke-linecap="round" stroke-linejoin="round"/>
</g>
<path fill-rule="evenodd" clip-rule="evenodd" d="M27.6871 21.4112C28.291 19.9883 28.6251 18.4231 28.6251 16.7799C28.6251 10.2284 23.3141 4.9173 16.7625 4.9173C10.211 4.9173 4.8999 10.2284 4.8999 16.7799C4.8999 23.3315 10.211 28.6425 16.7625 28.6425C16.7908 28.6425 16.8191 28.6424 16.8473 28.6422C15.2323 38.5696 13.9813 42.166 13.9813 42.166C13.9813 42.166 26.2676 26.9464 27.6871 21.4112Z" fill="#FF4D1C"/>
<path d="M16.7625 25.9926C21.8505 25.9926 25.9751 21.8679 25.9751 16.7799C25.9751 11.6919 21.8505 7.56726 16.7625 7.56726C11.6745 7.56726 7.5498 11.6919 7.5498 16.7799C7.5498 21.8679 11.6745 25.9926 16.7625 25.9926Z" fill="white"/>
</g>
<defs>
<filter id="filter0_d" x="-2.10034" y="-0.0826416" width="37.7252" height="51.2489" filterUnits="userSpaceOnUse" color-interpolation-filters="sRGB">
<feFlood flood-opacity="0" result="BackgroundImageFix"/>
<feColorMatrix in="SourceAlpha" type="matrix" values="0 0 0 0 0 0 0 0 0 0 0 0 0 0 0 0 0 0 127 0"/>
<feOffset dy="2"/>
<feGaussianBlur stdDeviation="2.5"/>
<feColorMatrix type="matrix" values="0 0 0 0 0 0 0 0 0 0 0 0 0 0 0 0 0 0 0.15 0"/>
<feBlend mode="normal" in2="BackgroundImageFix" result="effect1_dropShadow"/>
<feBlend mode="normal" in="SourceGraphic" in2="effect1_dropShadow" result="shape"/>
</filter>
<clipPath id="clip0">
<rect width="33" height="49" fill="white"/>
</clipPath>
</defs>
</svg>
