<svg width="191" height="27" viewBox="0 0 191 27" fill="none" xmlns="http://www.w3.org/2000/svg">
<path d="M188.207 23.0548H180.745V7.9374H188.247L188.207 23.0548ZM178.395 5.62781V25.3806H190.508V5.62781H178.395ZM134.036 25.3806V5.62781H131.67L119.233 21.6981V5.62781H116.859V25.3806H119.233L131.67 9.50406V25.3806H134.036ZM86.5433 25.3806V5.62781H84.1772V14.309H75.9724V5.62781H73.5982V25.3806H75.9724V16.6832H84.1772V25.3806H86.5433ZM110.294 25.3806V5.62781H107.919L95.483 21.6981V5.62781H93.1168V25.3806H95.483L107.919 9.50406V25.3806H110.294ZM56.5992 15.5123L65.7084 25.3806H69.0032L59.8133 15.5123L69.0032 5.64396H65.7084L56.5992 15.5123ZM54.1119 25.3806H56.4538V5.62781H54.1119V25.3806ZM121.793 0.774414V3.14862H129.126V0.774414H121.793ZM53.9585 15.4961L44.8492 5.62781H41.5463L50.7282 15.4961L41.5625 25.3806H44.8654L53.9585 15.4961ZM170.989 23.0548H163.487V7.9374H170.989V23.0548ZM161.178 5.62781V25.3806H173.291V5.62781H161.178ZM13.2254 25.3806V5.62781H10.8592V14.309H2.64641V5.62781H0.280273V25.3806H2.64641V16.6832H10.8592V25.3806H13.2254ZM36.9675 25.3806V5.62781H34.5771L22.1408 21.6981V5.62781H19.7989V25.3806H22.165L34.5771 9.48792V25.3806H36.9675ZM145.059 12.1367L148.475 15.4961L145.059 18.8555L149.63 23.4747L154.2 18.8555L150.784 15.4961L154.2 12.1367L149.63 7.51749L145.059 12.1367ZM149.63 4.19037L157.471 12.1367L154.095 15.4961L157.511 18.8555L149.67 26.8019L141.829 18.8555L145.245 15.4961L141.829 12.1367L149.63 4.19037Z" fill="white"/>
</svg>
