<svg width="203" height="301" viewBox="0 0 203 301" fill="none" xmlns="http://www.w3.org/2000/svg">
<path d="M195.532 102.724L191.287 90.4121" stroke="#8AD8FF" stroke-width="4"/>
<path d="M205.434 97.0948L201.19 84.7832" stroke="#8AD8FF" stroke-width="4"/>
<path d="M127.04 314.736L63.9612 196.29" stroke="#8AD8FF" stroke-width="4"/>
<path d="M33.8986 90.7637L25.7651 73.1782C25.7645 73.1768 25.7651 73.1752 25.7665 73.1746V73.1746C32.9278 70.4048 41.0098 73.6669 44.2419 80.6318L46.9848 86.5425" stroke="#8AD8FF" stroke-width="4"/>
<path d="M56.889 82.6735L42.7424 39.7608C42.742 39.7596 42.7427 39.7583 42.7439 39.7578V39.7578C49.7645 37.0424 57.6544 40.5546 60.3351 47.5886L72.0973 78.4523" stroke="#8AD8FF" stroke-width="4"/>
<path d="M78.4628 75.9891L59.0112 25.6898C59.0107 25.6884 59.0113 25.6869 59.0127 25.6864V25.6864C66.1463 22.9273 74.191 26.2411 77.3115 33.2242L94.3785 71.4163" stroke="#8AD8FF" stroke-width="4"/>
<path d="M103.575 68.2496L86.5988 23.5784C86.5983 23.5771 86.599 23.5756 86.6003 23.5751V23.5751C93.7151 20.8233 101.734 24.1715 104.78 31.1656L118.783 63.325" stroke="#8AD8FF" stroke-width="4"/>
<path d="M122.319 62.2715L6.14065 99.7737C3.50896 100.623 2.0775 103.458 2.9563 106.08L34.4718 200.113C35.332 202.68 38.0884 204.085 40.6709 203.274L116.66 179.408" stroke="#8AD8FF" stroke-width="4"/>
<path d="M124.442 72.8232L27.3015 103.877C26.257 104.211 25.6804 105.328 26.0131 106.373L51.6849 187.002C52.019 188.051 53.1427 188.629 54.1905 188.289L127.271 164.633" stroke="#8AD8FF" stroke-width="4"/>
<path d="M113.123 187.85C113.123 154.439 186.66 137.203 186.688 137.196C186.689 137.196 186.689 137.196 186.689 137.195L190.983 111.975C192.712 101.82 202.355 94.9964 212.506 96.7438V96.7438C212.507 96.7439 212.507 96.7443 212.507 96.7448L205.853 149.343C205.81 149.682 205.68 150.004 205.476 150.278L153.715 219.948C153.146 220.714 153.202 221.775 153.847 222.478L205.787 279.022" stroke="#8AD8FF" stroke-width="4"/>
<path d="M19.7744 198.438C21.8604 219.696 46.4756 217.612 46.4756 217.612" stroke="#8AD8FF" stroke-width="4"/>
<path d="M15.1541 215.051C19.5591 230.055 36.8081 228.657 36.8081 228.657" stroke="#8AD8FF" stroke-width="4"/>
<ellipse cx="169.358" cy="49.6076" rx="47.3934" ry="47.1359" stroke="#8AD8FF" stroke-width="4"/>
<path d="M163.344 56.6416L208.969 9.85742C208.969 9.85742 220.287 22.7721 223.824 36.5912C227.361 50.4104 222.409 70.0085 222.409 70.0085L163.344 56.6416Z" stroke="#8AD8FF" stroke-width="4"/>
<path d="M57.2415 115.739L119.136 96.3926" stroke="#8AD8FF" stroke-width="4"/>
<path d="M61.8398 135.085L106.05 121.718" stroke="#8AD8FF" stroke-width="4"/>
<path d="M66.0835 157.949L110.294 144.582" stroke="#8AD8FF" stroke-width="4"/>
</svg>
