<svg width="10" height="14" viewBox="0 0 10 14" fill="none" xmlns="http://www.w3.org/2000/svg">
<path d="M0.956055 13.7744V0.314941H5.00125C6.53352 0.314941 7.73482 0.69717 8.60515 1.46163C9.48774 2.21355 9.92903 3.24745 9.92903 4.56332C9.92903 5.95438 9.46935 7.04468 8.54999 7.8342C7.64289 8.62372 6.45997 9.01848 5.00125 9.01848H3.73253V13.7744H0.956055ZM3.73253 6.63112H4.94609C5.59577 6.63112 6.12287 6.45567 6.52739 6.10477C6.93191 5.74134 7.13417 5.23379 7.13417 4.58212C7.13417 3.98058 6.94417 3.51689 6.56417 3.19106C6.19642 2.86522 5.65093 2.7023 4.9277 2.7023H3.73253V6.63112Z" fill="white"/>
<rect x="2.4519" y="10.0356" width="5.98199" height="1.4955" fill="white"/>
</svg>
