<svg width="13" height="19" viewBox="0 0 13 19" fill="none" xmlns="http://www.w3.org/2000/svg">
<path d="M0.695068 19V0.854736H6.14856C8.21428 0.854736 9.8338 1.37003 11.0071 2.40063C12.197 3.41433 12.7919 4.80817 12.7919 6.58215C12.7919 8.4575 12.1722 9.92737 10.9328 10.9918C9.70986 12.0561 8.11513 12.5883 6.14856 12.5883H4.43815V19H0.695068ZM4.43815 9.36983H6.0742C6.95006 9.36983 7.66067 9.1333 8.20602 8.66024C8.75137 8.17029 9.02404 7.48604 9.02404 6.60749C9.02404 5.79653 8.76789 5.17142 8.2556 4.73215C7.75982 4.29287 7.02443 4.07324 6.04941 4.07324H4.43815V9.36983Z" fill="#161310"/>
<rect x="2.71106" y="13.9595" width="8.06456" height="2.01614" fill="#161310"/>
</svg>
