<svg width="7" height="11" viewBox="0 0 7 11" fill="none" xmlns="http://www.w3.org/2000/svg">
<path d="M0.716553 0.317422C1.07122 0.233422 1.45389 0.177422 1.86455 0.149421C2.27522 0.121422 2.68122 0.107422 3.08255 0.107422C3.51189 0.107422 3.94589 0.149422 4.38455 0.233421C4.83255 0.317421 5.23855 0.471421 5.60255 0.695422C5.96655 0.919422 6.26055 1.22742 6.48455 1.61942C6.71789 2.01142 6.83455 2.51076 6.83455 3.11742C6.83455 3.71476 6.72722 4.21876 6.51255 4.62942C6.29789 5.04009 6.01322 5.37609 5.65855 5.63742C5.30389 5.88942 4.89789 6.07142 4.44055 6.18342C3.98322 6.29542 3.51189 6.35142 3.02655 6.35142C2.97989 6.35142 2.90055 6.35142 2.78855 6.35142C2.68589 6.35142 2.57389 6.35142 2.45255 6.35142C2.34055 6.34209 2.22855 6.33276 2.11655 6.32342C2.00455 6.31409 1.92522 6.30476 1.87855 6.29542V10.0194H0.716553V0.317422ZM3.11055 1.11542C2.86789 1.11542 2.63455 1.12009 2.41055 1.12942C2.18655 1.13876 2.00922 1.16209 1.87855 1.19942V5.25942C1.92522 5.27809 1.99989 5.29209 2.10255 5.30142C2.20522 5.30142 2.31255 5.30609 2.42455 5.31542C2.53655 5.31542 2.64389 5.31542 2.74655 5.31542C2.84922 5.31542 2.92389 5.31542 2.97055 5.31542C3.28789 5.31542 3.60055 5.28742 3.90855 5.23142C4.22589 5.16609 4.51055 5.05409 4.76255 4.89542C5.01455 4.73675 5.21522 4.51276 5.36455 4.22342C5.52322 3.93409 5.60255 3.56542 5.60255 3.11742C5.60255 2.73475 5.52789 2.41742 5.37855 2.16542C5.23855 1.90409 5.04722 1.69875 4.80455 1.54942C4.57122 1.39075 4.30522 1.27875 4.00655 1.21342C3.70789 1.14809 3.40922 1.11542 3.11055 1.11542Z" fill="#161310"/>
<rect x="1.12878" y="7.2373" width="4.7925" height="1.20975" fill="#161310"/>
</svg>
