<svg width="17" height="14" viewBox="0 0 17 14" fill="none" xmlns="http://www.w3.org/2000/svg">
<path d="M16.2322 2.04724C15.6561 2.30251 15.038 2.47563 14.3885 2.55292C15.0517 2.15581 15.5593 1.52594 15.7999 0.7777C15.1778 1.14545 14.4912 1.41249 13.7596 1.55724C13.1737 0.932253 12.3404 0.542969 11.4161 0.542969C9.64289 0.542969 8.20511 1.98075 8.20511 3.75302C8.20511 4.00438 8.23348 4.24988 8.28826 4.48464C5.62008 4.35062 3.25412 3.07228 1.67061 1.1298C1.39381 1.6032 1.23634 2.15481 1.23634 2.74364C1.23634 3.85768 1.80363 4.84065 2.66435 5.41574C2.13813 5.39814 1.64322 5.25338 1.20995 5.01277V5.05287C1.20995 6.60801 2.31713 7.90592 3.78522 8.20131C3.51624 8.27369 3.23261 8.31379 2.93918 8.31379C2.73184 8.31379 2.53133 8.29326 2.33473 8.25412C2.74355 9.53052 3.929 10.4587 5.33353 10.4842C4.23514 11.3449 2.85018 11.8564 1.34591 11.8564C1.08673 11.8564 0.831434 11.8408 0.580078 11.8124C2.00123 12.725 3.68841 13.2571 5.50176 13.2571C11.4083 13.2571 14.637 8.36466 14.637 4.12177L14.6262 3.70609C15.2571 3.25614 15.8028 2.69083 16.2322 2.04724Z" fill="#161310"/>
</svg>
