<svg width="10" height="16" viewBox="0 0 10 16" fill="none" xmlns="http://www.w3.org/2000/svg">
<path fill-rule="evenodd" clip-rule="evenodd" d="M1.31521 4.29676C1.30276 6.29588 3.05357 7.95053 5.18873 7.95733C7.34556 7.96429 9.1085 6.34727 9.1195 4.35223C9.13033 2.31003 7.39617 0.657799 5.23562 0.652358C3.07944 0.646765 1.3275 2.27557 1.31521 4.29676ZM5.2201 2.51786C6.27984 2.51877 7.1255 3.30899 7.12922 4.30159C7.13277 5.29405 6.28938 6.08941 5.22997 6.09289C4.16732 6.09651 3.31438 5.31189 3.30646 4.32306C3.29821 3.32138 4.15147 2.5168 5.2201 2.51786ZM1.25938 9.74731C2.1833 10.4229 3.26244 10.6984 4.45929 10.8152C4.42677 10.8476 4.39875 10.8762 4.37327 10.9022C4.33249 10.9438 4.29824 10.9788 4.26251 11.0124C4.09204 11.1722 3.92157 11.3321 3.7511 11.4919C3.04392 12.1549 2.33661 12.8181 1.62772 13.4799C1.44582 13.6496 1.31549 13.8389 1.30256 14.0867C1.2838 14.453 1.52682 14.8174 1.90874 14.9905C2.26803 15.1536 2.63669 15.1022 2.94649 14.8167C3.63644 14.1807 4.32234 13.5411 4.99724 12.8915C5.16605 12.7291 5.25806 12.6938 5.44934 12.8808C5.89123 13.3131 6.34497 13.7348 6.79875 14.1565C7.01993 14.3621 7.24113 14.5677 7.46096 14.7745C7.63608 14.9394 7.83318 15.057 8.08591 15.0734C8.48481 15.0989 8.89163 14.8602 9.07337 14.4974C9.23959 14.1654 9.17653 13.8115 8.87465 13.5261C8.3114 12.9937 7.74541 12.4637 7.17942 11.9336C6.85501 11.6298 6.5306 11.3261 6.20671 11.0218C6.16064 10.9785 6.12303 10.94 6.06589 10.8815C6.04642 10.8616 6.02469 10.8393 5.99958 10.8138C6.65428 10.7406 7.31576 10.6304 7.91969 10.4115C8.55838 10.1799 9.1332 9.84815 9.61116 9.38949C9.92274 9.09032 9.92598 8.7142 9.67309 8.32887C9.45173 7.99145 9.06706 7.8498 8.65458 7.94882C8.44244 7.99992 8.25941 8.09999 8.08817 8.22274C6.35983 9.30967 3.99442 9.27913 2.27255 8.17301C2.18815 8.11828 2.10003 8.06734 2.00754 8.02652C1.5299 7.81594 1.07036 7.91405 0.796616 8.28079C0.476625 8.70937 0.517372 9.12524 0.921767 9.48836C1.00542 9.56342 1.09785 9.63026 1.19014 9.69701C1.21328 9.71374 1.23641 9.73047 1.25938 9.74731Z" fill="#161310"/>
</svg>
