<svg width="14" height="8" viewBox="0 0 14 8" fill="none" xmlns="http://www.w3.org/2000/svg">
<path d="M3.55357 6.01676C5.13748 7.55977 6.93422 7.45865 6.93422 7.45865H7.7506C7.7506 7.45865 7.99831 7.43255 8.1239 7.30532C8.23903 7.18789 8.23554 6.96932 8.23554 6.96932C8.23554 6.96932 8.2181 5.94826 8.72747 5.79493C9.22637 5.64813 9.87179 6.78337 10.5522 7.22051C11.0685 7.54999 11.4592 7.47822 11.4592 7.47822L13.2769 7.45538C13.2769 7.45538 14.2294 7.39993 13.7793 6.70182C13.7409 6.6431 13.5176 6.18313 12.4256 5.2371C11.2848 4.2454 11.4383 4.40524 12.8129 2.6926C13.6502 1.6487 13.9851 1.01257 13.8805 0.738549C13.7793 0.477575 13.1653 0.54608 13.1653 0.54608L11.1138 0.559129C11.1138 0.559129 10.9603 0.539556 10.8487 0.601538C10.7371 0.663519 10.6673 0.807055 10.6673 0.807055C10.6673 0.807055 10.3428 1.61607 9.91017 2.30113C8.9961 3.74954 8.63327 3.82784 8.48325 3.73649C8.13786 3.52771 8.22159 2.89485 8.22159 2.44467C8.22159 1.03867 8.44836 0.454739 7.77851 0.301417C7.55523 0.252484 7.39125 0.2166 6.82258 0.213338C6.08993 0.206813 5.47241 0.2166 5.12004 0.376447C4.88629 0.484099 4.70836 0.722238 4.81651 0.735287C4.95258 0.751598 5.25959 0.81358 5.42008 1.0191C5.62941 1.28659 5.62243 1.88684 5.62243 1.88684C5.62243 1.88684 5.74454 3.54076 5.33984 3.74628C5.06422 3.88656 4.68394 3.59948 3.87105 2.28482C3.45239 1.61281 3.1384 0.865775 3.1384 0.865775C3.1384 0.865775 3.07909 0.725501 2.97094 0.653733C2.83836 0.562391 2.65694 0.536294 2.65694 0.536294L0.710187 0.549343C0.710187 0.549343 0.417127 0.555867 0.308974 0.676568C0.211288 0.777696 0.301997 0.996262 0.301997 0.996262C0.301997 0.996262 1.82661 4.33347 3.55357 6.01676Z" fill="#161310"/>
</svg>
