<svg width="65" height="720" viewBox="0 0 65 720" fill="none" xmlns="http://www.w3.org/2000/svg">
<path d="M65 0H0V720H65V0Z" fill="#F47852"/>
<path d="M65 376H0V720H65V376Z" fill="#F47852"/>
<mask id="mask0" mask-type="alpha" maskUnits="userSpaceOnUse" x="0" y="376" width="65" height="344">
<path d="M65 376H0V720H65V376Z" fill="#F47852"/>
</mask>
<g mask="url(#mask0)">
<path d="M93.3029 643.917H23.0225" stroke="#EB6C45" stroke-width="3.89091" stroke-miterlimit="10" stroke-linecap="round" stroke-linejoin="round"/>
<path d="M-8.29004 628.481C-8.29004 622.002 -4.1627 616.687 0.996472 616.687C1.62704 616.687 2.20027 616.76 2.77351 616.905C3.17478 610.863 7.18747 606.203 12.0027 606.203C13.6651 606.203 15.2129 606.786 16.5886 607.732C17.5058 602.49 21.2319 598.486 25.6458 598.486C26.3337 598.486 27.0216 598.631 27.7095 598.777C29.4292 596.083 32.0088 594.409 34.9323 594.409C39.117 594.409 42.6138 597.903 43.8176 602.781C43.9322 602.781 44.1042 602.781 44.2188 602.781C48.0022 602.781 51.2697 605.693 52.7028 609.771C53.9639 608.97 55.397 608.46 56.9448 608.46C61.4734 608.46 65.1994 612.537 66.0593 617.998C66.1166 617.998 66.174 617.998 66.2313 617.998C71.3331 617.998 75.5178 623.24 75.5178 629.792" stroke="#EB6C45" stroke-width="3.89091" stroke-miterlimit="10" stroke-linecap="round" stroke-linejoin="round"/>
<path d="M-218.898 628.773H-92.3932H89.2426" stroke="#EB6C45" stroke-width="3.89091" stroke-miterlimit="10" stroke-linecap="round" stroke-linejoin="round"/>
<path d="M72.017 570.71H-261.778H-476.973L-476.909 605.584" stroke="#EB6C45" stroke-width="3.89091" stroke-miterlimit="10" stroke-linecap="round" stroke-linejoin="round"/>
<path d="M-75.1348 636.782H-7.74416H89.0086" stroke="#EB6C45" stroke-width="3.89091" stroke-miterlimit="10" stroke-linecap="round" stroke-linejoin="round"/>
<path d="M-83.3274 549.197V539.805H16.8751" stroke="#EB6C45" stroke-width="3.89091" stroke-miterlimit="10" stroke-linecap="round" stroke-linejoin="round"/>
<path d="M79.6758 582.652H-18.1399" stroke="#EB6C45" stroke-width="3.89091" stroke-miterlimit="10" stroke-linecap="round" stroke-linejoin="round"/>
<path d="M-66.531 520.367H10.2833V539.515H-66.531V520.367Z" stroke="#EB6C45" stroke-width="3.64041" stroke-miterlimit="10" stroke-linecap="round" stroke-linejoin="round"/>
<path d="M-0.322266 527.574V538.349" stroke="#EB6C45" stroke-width="3.89091" stroke-miterlimit="10" stroke-linecap="round" stroke-linejoin="round"/>
<path d="M-103.449 657.002C-103.09 657.002 -102.731 657.002 -102.431 657.075C-97.9981 657.585 -94.224 660.715 -89.6712 660.715C-84.8187 660.715 -80.7451 657.002 -75.8927 657.002C-71.0403 656.93 -66.7869 660.715 -61.8746 660.715C-57.2019 660.715 -52.5891 657.002 -47.9763 657.002C-43.2437 657.002 -38.6908 660.715 -34.0781 660.715C-29.7049 660.715 -26.1105 657.803 -21.8572 657.148C-20.2996 656.93 -18.8019 657.002 -17.3043 657.366C-14.0094 658.167 -11.0141 660.351 -7.29995 660.715C-1.66876 661.298 2.5846 657.002 7.97617 657.075C14.0267 657.148 18.0405 662.317 25.2292 660.279C28.7637 659.259 31.5194 657.148 35.593 657.075C40.4454 657.075 44.6988 660.715 49.3715 660.788C54.2239 660.861 58.7169 656.93 63.6891 657.075C69.0807 657.148 73.0944 661.371 78.7256 660.715C83.1586 660.206 86.5733 657.002 91.5455 657.075C96.2182 657.148 100.771 660.788 105.324 660.788C110.057 660.788 114.31 657.075 119.103 657.075C123.835 657.002 128.149 660.788 133.001 660.788C138.452 660.861 141.268 657.075 147.019 657.075" stroke="#EB6C45" stroke-width="2.79741" stroke-miterlimit="10" stroke-linecap="round" stroke-linejoin="round"/>
<path d="M-113.933 667.923C-110.458 666.831 -107.223 664.72 -103.449 664.793C-98.5373 664.866 -94.5236 668.506 -89.6712 668.506C-84.8188 668.506 -80.7452 664.793 -75.8927 664.793C-71.0403 664.72 -66.787 668.506 -61.8747 668.506C-57.202 668.506 -52.5892 664.793 -47.9764 664.793C-43.2438 664.793 -38.6909 668.506 -34.0781 668.506C-29.705 668.506 -26.1106 665.594 -21.8572 664.938C-20.2997 664.72 -18.802 664.793 -17.3043 665.157C-14.0095 665.958 -11.0142 668.142 -7.30005 668.506C-1.66886 669.088 2.5845 664.793 7.97607 664.866C14.0267 664.938 18.0403 670.107 25.229 668.069C28.7635 667.05 31.5192 664.938 35.5928 664.866C40.4452 664.866 44.6987 668.506 49.3714 668.579C54.2238 668.651 58.7167 664.72 63.6889 664.866C69.0805 664.938 73.0943 669.161 78.7255 668.506C83.1586 667.996 86.5731 664.793 91.5453 664.866C96.218 664.938 100.771 668.579 105.324 668.579C110.057 668.579 114.31 664.866 119.103 664.866C123.835 664.793 128.149 668.579 133.001 668.579C138.452 668.651 141.268 664.866 147.019 664.866" stroke="#EB6C45" stroke-width="2.79741" stroke-miterlimit="10" stroke-linecap="round" stroke-linejoin="round"/>
<path d="M-126.452 673.238C-123.517 674.33 -120.701 675.859 -117.526 675.859C-112.614 675.859 -108.48 672.073 -103.508 672.146C-98.596 672.218 -94.5823 675.859 -89.7299 675.859C-84.8775 675.859 -80.8038 672.146 -75.9514 672.146C-71.099 672.073 -66.8457 675.859 -61.9333 675.859C-57.2607 675.859 -52.6479 672.146 -48.0351 672.146C-43.3025 672.146 -38.7496 675.859 -34.1368 675.859C-29.7637 675.859 -26.1693 672.947 -21.9159 672.291C-20.3584 672.073 -18.8607 672.146 -17.363 672.51C-14.0682 673.311 -11.0729 675.495 -7.35867 675.859C-1.72747 676.441 2.52586 672.146 7.91743 672.218C13.968 672.291 17.9817 677.46 25.1704 675.422C28.7049 674.403 31.4606 672.291 35.5342 672.218C40.3866 672.218 44.64 675.859 49.3127 675.932C54.1651 676.004 58.6581 672.073 63.6303 672.218C69.0219 672.291 73.0356 676.514 78.6668 675.859C83.0999 675.349 86.5145 672.146 91.4867 672.218C96.1594 672.291 100.713 675.932 105.266 675.932C109.998 675.932 114.252 672.218 119.044 672.218C123.777 672.146 128.09 675.932 132.942 675.932C138.394 676.004 141.209 672.218 146.96 672.218" stroke="#EB6C45" stroke-width="2.79741" stroke-miterlimit="10" stroke-linecap="round" stroke-linejoin="round"/>
<path d="M-103.508 679.444C-103.149 679.444 -102.79 679.444 -102.49 679.517C-98.0572 680.027 -94.2831 683.157 -89.7303 683.157C-84.8778 683.157 -80.8042 679.444 -75.9518 679.444C-71.0994 679.372 -66.846 683.157 -61.9337 683.157C-57.261 683.157 -52.6482 679.444 -48.0354 679.444C-43.3028 679.444 -38.7499 683.157 -34.1372 683.157C-29.764 683.157 -26.1696 680.245 -21.9163 679.59C-20.3587 679.372 -18.861 679.444 -17.3634 679.808C-14.0685 680.609 -11.0732 682.793 -7.35903 683.157C-1.72784 683.74 2.52552 679.444 7.91709 679.517C13.9676 679.59 17.9814 684.759 25.1701 682.721C28.7046 681.701 31.4603 679.59 35.5339 679.517C40.3863 679.517 44.6397 683.157 49.3124 683.23C54.1648 683.303 58.6578 679.372 63.63 679.517C69.0216 679.59 73.0353 683.813 78.6665 683.157C83.0995 682.648 86.5142 679.444 91.4864 679.517C96.1591 679.59 100.712 683.23 105.265 683.23C109.998 683.23 114.251 679.517 119.044 679.517C123.776 679.444 128.09 683.23 132.942 683.23C138.393 683.303 141.209 679.517 146.96 679.517" stroke="#EB6C45" stroke-width="2.79741" stroke-miterlimit="10" stroke-linecap="round" stroke-linejoin="round"/>
<path d="M-113.993 690.365C-110.518 689.273 -107.283 687.162 -103.509 687.235C-98.5967 687.308 -94.583 690.948 -89.7306 690.948C-84.8782 690.948 -80.8046 687.235 -75.9521 687.235C-71.0997 687.162 -66.8464 690.948 -61.9341 690.948C-57.2614 690.948 -52.6486 687.235 -48.0358 687.235C-43.3032 687.235 -38.7503 690.948 -34.1375 690.948C-29.7644 690.948 -26.17 688.036 -21.9166 687.38C-20.3591 687.162 -18.8614 687.235 -17.3637 687.599C-14.0689 688.4 -11.0736 690.584 -7.35938 690.948C-1.72819 691.53 2.52518 687.235 7.91675 687.308C13.9673 687.38 17.981 692.549 25.1697 690.511C28.7042 689.492 31.4599 687.38 35.5335 687.308C40.3859 687.308 44.6393 690.948 49.312 691.021C54.1644 691.093 58.6574 687.162 63.6296 687.308C69.0212 687.38 73.0349 691.603 78.6661 690.948C83.0992 690.438 86.5138 687.235 91.486 687.308C96.1587 687.38 100.711 691.021 105.264 691.021C109.997 691.021 114.25 687.308 119.043 687.308C123.775 687.235 128.089 691.021 132.941 691.021C138.392 691.093 141.208 687.308 146.959 687.308" stroke="#EB6C45" stroke-width="2.79741" stroke-miterlimit="10" stroke-linecap="round" stroke-linejoin="round"/>
<path d="M-114.052 705.911C-110.577 704.819 -107.342 702.708 -103.568 702.781C-98.6558 702.854 -94.6421 706.494 -89.7897 706.494C-84.9373 706.494 -80.8637 702.781 -76.0112 702.781C-71.1588 702.708 -66.9055 706.494 -61.9932 706.494C-57.3205 706.494 -52.7076 702.781 -48.0948 702.781C-43.3622 702.781 -38.8094 706.494 -34.1966 706.494C-29.8235 706.494 -26.2291 703.582 -21.9757 702.926C-20.4182 702.708 -18.9205 702.781 -17.4228 703.145C-14.128 703.946 -11.1327 706.13 -7.41846 706.494C-1.78727 707.076 2.4661 702.781 7.85767 702.854C13.9082 702.926 17.9219 708.095 25.1106 706.057C28.6451 705.038 31.4008 702.926 35.4744 702.854C40.3268 702.854 44.5802 706.494 49.2529 706.567C54.1053 706.639 58.5983 702.708 63.5705 702.854C68.9621 702.926 72.9759 707.149 78.6071 706.494C83.0402 705.984 86.4547 702.781 91.4269 702.854C96.0996 702.926 100.652 706.567 105.205 706.567C109.938 706.567 114.191 702.854 118.984 702.854C123.716 702.781 128.03 706.567 132.882 706.567C138.333 706.639 141.149 702.854 146.9 702.854" stroke="#EB6C45" stroke-width="2.79741" stroke-miterlimit="10" stroke-linecap="round" stroke-linejoin="round"/>
<path d="M-114.052 713.702C-110.577 712.61 -107.342 710.499 -103.568 710.572C-98.6558 710.645 -94.6421 714.284 -89.7897 714.284C-84.9373 714.284 -80.8637 710.572 -76.0112 710.572C-71.1588 710.499 -66.9055 714.284 -61.9932 714.284C-57.3205 714.284 -52.7076 710.572 -48.0948 710.572C-43.3622 710.572 -38.8094 714.284 -34.1966 714.284C-29.8235 714.284 -26.2291 711.373 -21.9757 710.717C-20.4182 710.499 -18.9205 710.572 -17.4228 710.936C-14.128 711.737 -11.1327 713.92 -7.41846 714.284C-1.78727 714.866 2.4661 710.572 7.85767 710.645C13.9082 710.717 17.9219 715.886 25.1106 713.848C28.6451 712.829 31.4008 710.717 35.4744 710.645C40.3268 710.645 44.5802 714.284 49.2529 714.357C54.1053 714.429 58.5983 710.499 63.5705 710.645C68.9621 710.717 72.9759 714.939 78.6071 714.284C83.0402 713.774 86.4547 710.572 91.4269 710.645C96.0996 710.717 100.652 714.357 105.205 714.357C109.938 714.357 114.191 710.645 118.984 710.645C123.716 710.572 128.03 714.357 132.882 714.357C138.333 714.429 141.149 710.645 146.9 710.645" stroke="#EB6C45" stroke-width="2.79741" stroke-miterlimit="10" stroke-linecap="round" stroke-linejoin="round"/>
<path d="M-126.512 695.68C-123.577 696.772 -120.761 698.301 -117.586 698.301C-112.674 698.301 -108.54 694.515 -103.568 694.588C-98.6553 694.66 -94.6416 698.301 -89.7892 698.301C-84.9368 698.301 -80.8631 694.588 -76.0107 694.588C-71.1583 694.515 -66.905 698.301 -61.9926 698.301C-57.32 698.301 -52.7072 694.588 -48.0944 694.588C-43.3618 694.588 -38.8089 698.301 -34.1961 698.301C-29.823 698.301 -26.2286 695.389 -21.9752 694.733C-20.4177 694.515 -18.92 694.588 -17.4223 694.952C-14.1275 695.753 -11.1322 697.937 -7.418 698.301C-1.7868 698.883 2.46654 694.588 7.85811 694.66C13.9087 694.733 17.9224 699.902 25.1111 697.864C28.6456 696.845 31.4013 694.733 35.4749 694.66C40.3273 694.66 44.5807 698.301 49.2534 698.374C54.1058 698.446 58.5988 694.515 63.571 694.66C68.9626 694.733 72.9763 698.956 78.6075 698.301C83.0406 697.791 86.4552 694.588 91.4274 694.66C96.1001 694.733 100.653 698.374 105.206 698.374C109.938 698.374 114.192 694.66 118.984 694.66C123.717 694.588 128.03 698.374 132.882 698.374C138.334 698.446 141.149 694.66 146.9 694.66" stroke="#EB6C45" stroke-width="2.79741" stroke-miterlimit="10" stroke-linecap="round" stroke-linejoin="round"/>
<path d="M37.7397 402.44H58.8908V390.138H37.7397L42.1487 396.3L37.7397 402.44Z" stroke="#EB6C45" stroke-width="4" stroke-miterlimit="10" stroke-linecap="round"/>
<path d="M97.2032 473.776H58.1189" stroke="#EB6C45" stroke-width="4" stroke-miterlimit="10" stroke-linecap="round"/>
<path d="M19.7878 473.776H58.1173" stroke="#EB6C45" stroke-width="4" stroke-miterlimit="10" stroke-linecap="round"/>
<path d="M84.4377 473.776V458.042H33.0242L33.3261 472.625" stroke="#EB6C45" stroke-width="4" stroke-miterlimit="10" stroke-linecap="round"/>
<path d="M79.6757 457.424L58.7077 416.895L37.7397 457.424" stroke="#EB6C45" stroke-width="4" stroke-miterlimit="10" stroke-linecap="round"/>
<path d="M71.0354 473.904V490.64H65.2314V473.904" stroke="#EB6C45" stroke-width="4" stroke-miterlimit="10" stroke-linecap="round"/>
<path d="M54.2619 473.904V490.64H48.458V473.904" stroke="#EB6C45" stroke-width="4" stroke-miterlimit="10" stroke-linecap="round"/>
<path d="M37.4865 473.904V490.64H31.6826V473.904" stroke="#EB6C45" stroke-width="4" stroke-miterlimit="10" stroke-linecap="round"/>
<path d="M22.1544 567.2V511.172L18.9673 473.457V473.18" stroke="#EB6C45" stroke-width="4" stroke-miterlimit="10" stroke-linecap="round"/>
<path d="M18.9668 473.243V475.865" stroke="#EB6C45" stroke-width="4" stroke-miterlimit="10" stroke-linecap="round"/>
<path d="M94.7716 512.153H22.1553" stroke="#EB6C45" stroke-width="4" stroke-miterlimit="10" stroke-linecap="round"/>
<path d="M58.707 376.985V418.559" stroke="#EB6C45" stroke-width="4" stroke-miterlimit="10" stroke-linecap="round"/>
<path d="M18.967 473.904H18.9329" stroke="#EB6C45" stroke-width="4" stroke-miterlimit="10" stroke-linecap="round"/>
<path d="M28.2599 512.153H22.1204" stroke="#EB6C45" stroke-width="4" stroke-miterlimit="10" stroke-linecap="round"/>
</g>
</svg>
