<svg width="86" height="86" viewBox="0 0 86 86" fill="none" xmlns="http://www.w3.org/2000/svg">
<path d="M47.6368 67.7996V56.1006C47.6368 54.9961 48.5323 54.1006 49.6368 54.1006H54.255" stroke="#4445E5" stroke-width="3"/>
<path d="M40.6977 67.7996V43.1363C40.6977 41.962 39.7457 41.0098 38.5712 41.0098H32.8903" stroke="#4445E5" stroke-width="3"/>
<path d="M27.5289 46.3584C30.483 46.3584 32.8778 43.9635 32.8778 41.0094C32.8778 38.0553 30.483 35.6604 27.5289 35.6604C24.5747 35.6604 22.1799 38.0553 22.1799 41.0094C22.1799 43.9635 24.5747 46.3584 27.5289 46.3584Z" stroke="#4445E5" stroke-width="3"/>
<path d="M58.0763 57.4637C60.6456 57.4637 62.7284 55.3809 62.7284 52.8116C62.7284 50.2423 60.6456 48.1595 58.0763 48.1595C55.5071 48.1595 53.4243 50.2423 53.4243 52.8116C53.4243 55.3809 55.5071 57.4637 58.0763 57.4637Z" stroke="#4445E5" stroke-width="3"/>
<path d="M40.6977 18.4625V32.2357C40.6977 33.3402 41.5932 34.2357 42.6977 34.2357H48.7973" stroke="#4445E5" stroke-width="3"/>
<path d="M53.4216 29.4644C55.9908 29.4644 58.0736 31.5472 58.0736 34.1165C58.0736 36.6858 55.9908 38.7686 53.4216 38.7686C50.8523 38.7686 48.7695 36.6858 48.7695 34.1165C48.7695 31.5472 50.8523 29.4644 53.4216 29.4644Z" stroke="#4445E5" stroke-width="3"/>
<rect x="14.7336" y="17.7734" width="55.9043" height="50.0262" stroke="#4445E5" stroke-width="3"/>
</svg>
