<svg width="183" height="184" viewBox="0 0 183 184" fill="none" xmlns="http://www.w3.org/2000/svg">
<circle cx="91.4553" cy="91.6413" r="90.4495" stroke="white" stroke-width="2"/>
<path d="M43.2014 50.5405L42.1463 52.0177L40.1064 50.8923L35.3936 57.6449L37.0818 59.1924L36.097 60.5993L32.4393 57.9967L33.213 56.8712C33.1427 56.7305 33.002 56.4492 32.7206 56.0271C32.4393 55.6051 32.0172 55.0423 31.4545 54.4093C30.8918 53.7762 30.118 53.0025 29.1333 52.1584C28.1485 51.3143 26.9527 50.3999 25.5459 49.4151L29.9774 43.1548L38.6292 49.2744L39.5437 47.9379L43.2014 50.5405ZM37.1521 51.3143L30.3291 46.4608L28.7112 48.782C30.4697 50.1185 31.8062 51.244 32.791 52.2991C33.7757 53.3542 34.4088 54.1279 34.7605 54.6906L37.1521 51.3143Z" fill="white"/>
<path d="M38.4887 42.9436C37.0116 41.3961 36.2378 39.8486 36.1675 38.3715C36.0971 36.8943 36.6599 35.5579 37.926 34.3621C38.6294 33.729 39.2625 33.307 40.0362 33.096C40.7396 32.8849 41.443 32.8146 42.2168 32.9553C42.9202 33.096 43.6939 33.3773 44.3973 33.7994C45.1007 34.2214 45.8041 34.8545 46.5075 35.5579C47.9847 37.1054 48.7584 38.6529 48.8288 40.13C48.8991 41.6072 48.3364 42.9436 47.0703 44.1394C46.3669 44.7725 45.6635 45.1945 44.96 45.4056C44.2566 45.6166 43.5532 45.6869 42.7795 45.5462C42.0761 45.4056 41.3023 45.1242 40.5989 44.7022C39.8955 44.2098 39.1921 43.647 38.4887 42.9436ZM40.4582 41.1148C40.8803 41.6072 41.3727 41.9589 41.7947 42.3106C42.2168 42.6623 42.7091 42.8733 43.1312 43.014C43.5532 43.1547 43.9753 43.1547 44.3973 43.0843C44.8194 43.014 45.1711 42.803 45.5228 42.4513C46.1558 41.8182 46.4372 41.1148 46.2965 40.2707C46.1558 39.4266 45.5931 38.4418 44.538 37.3164C44.116 36.8943 43.6939 36.4723 43.2719 36.1206C42.8498 35.7689 42.4278 35.5579 41.9354 35.4172C41.5134 35.2765 41.0913 35.2062 40.6693 35.2765C40.2472 35.3469 39.8955 35.5579 39.4735 35.9096C38.8404 36.5426 38.5591 37.246 38.6997 38.0901C38.8404 39.0046 39.4031 39.9893 40.4582 41.1148Z" fill="white"/>
<path d="M57.6213 32.1113C57.4102 31.7596 57.3399 31.3375 57.2696 30.9858C57.1992 30.6341 57.1992 30.2824 57.2696 29.9307C57.3399 29.579 57.4102 29.2976 57.6213 28.9459C57.8323 28.5942 57.973 28.3129 58.184 28.0315C57.4806 27.9612 56.8475 27.7502 56.3551 27.4688C55.8628 27.1874 55.4407 26.695 55.089 26.062C54.878 25.6399 54.7373 25.2179 54.7373 24.7255C54.7373 24.3035 54.8076 23.8111 54.9483 23.389C55.089 22.967 55.3704 22.545 55.7221 22.1932C56.0738 21.8415 56.4958 21.4898 57.0585 21.2788C57.5509 21.0678 58.0433 20.8568 58.5357 20.7864C59.0281 20.7161 59.4501 20.7161 59.8722 20.8568C60.2942 20.9271 60.6459 21.1381 60.9976 21.4195C61.3493 21.7009 61.5603 22.0526 61.7714 22.4746C62.0527 23.1077 62.1934 23.7407 62.1231 24.3035C62.0527 24.8662 61.8417 25.4993 61.4197 26.1323C62.2637 26.2027 62.9672 26.3433 63.5299 26.695C64.0926 27.0468 64.5146 27.4688 64.8664 28.2425C65.0774 28.7349 65.2181 29.2273 65.2181 29.7197C65.2181 30.2121 65.1477 30.7045 64.9367 31.1265C64.7257 31.5485 64.4443 31.9706 64.0926 32.3926C63.7409 32.7443 63.2485 33.096 62.6858 33.3774C62.1231 33.6588 61.6307 33.7994 61.068 33.8698C60.5756 33.9401 60.0832 33.9401 59.6611 33.7994C59.2391 33.6588 58.8171 33.5181 58.4654 33.1664C58.1137 32.9554 57.8323 32.5333 57.6213 32.1113ZM57.0585 25.0772C57.1992 25.3586 57.3399 25.5696 57.5509 25.7103C57.762 25.851 57.973 25.9916 58.184 26.062C58.395 26.1323 58.6764 26.2027 58.9577 26.2027C59.2391 26.2027 59.5205 26.2027 59.8018 26.2027C60.1535 25.2882 60.2239 24.5145 59.8722 23.8814C59.6611 23.389 59.3094 23.1077 58.9577 23.0373C58.606 22.967 58.184 22.967 57.8323 23.178C57.3399 23.389 57.0585 23.7407 56.9882 24.0924C56.8475 24.4441 56.9179 24.7959 57.0585 25.0772ZM62.7561 29.2976C62.6155 29.0163 62.4748 28.8756 62.2637 28.6646C62.0527 28.5239 61.7714 28.3832 61.49 28.3129C61.2086 28.2425 60.9273 28.1722 60.6459 28.1722C60.3646 28.1722 60.0128 28.1019 59.7315 28.1019C59.3798 28.6646 59.1688 29.157 59.1688 29.579C59.1688 30.0011 59.2391 30.4231 59.3798 30.7748C59.5908 31.1968 59.9425 31.5485 60.3646 31.6892C60.7866 31.8299 61.279 31.8299 61.8417 31.5485C62.3341 31.3375 62.6858 30.9858 62.8265 30.6341C63.0375 30.2121 63.0375 29.79 62.7561 29.2976Z" fill="white"/>
<path d="M67.8207 23.8815C67.258 21.7009 67.1877 20.0128 67.6097 18.7466C68.0317 17.4805 68.9462 16.7068 70.353 16.2847C71.8301 15.8627 73.0963 16.144 74.081 16.9881C75.0658 17.8322 75.8395 19.3797 76.4726 21.5603C77.1057 23.7408 77.176 25.429 76.6836 26.6951C76.2616 27.9613 75.2768 28.8053 73.9403 29.157C72.4632 29.5791 71.2674 29.2977 70.2123 28.3833C69.1572 27.4689 68.3834 25.9214 67.8207 23.8815ZM70.142 23.2484C70.564 24.6553 70.986 25.7807 71.5488 26.4138C72.0412 27.1172 72.6742 27.3282 73.448 27.1875C74.1514 26.9765 74.5734 26.4841 74.6438 25.7104C74.7844 24.9366 74.6437 23.7408 74.2217 22.123C73.7997 20.7162 73.3776 19.6611 72.8852 18.9577C72.3929 18.2543 71.7598 18.0432 70.986 18.2543C70.2826 18.4653 69.8606 18.9577 69.7903 19.8018C69.5792 20.5755 69.7199 21.7009 70.142 23.2484Z" fill="white"/>
<path d="M80.6225 20.7863C80.4115 18.5354 80.6928 16.8473 81.3259 15.7218C82.0293 14.5964 83.0844 13.9633 84.4912 13.8226C86.0387 13.6819 87.1642 14.104 88.0083 15.1591C88.782 16.1439 89.3447 17.832 89.4854 20.0829C89.6964 22.3338 89.4151 24.022 88.782 25.2178C88.0786 26.3433 87.0235 27.0467 85.6167 27.117C84.0692 27.2577 82.9437 26.7653 82.0997 25.7102C81.3259 24.5144 80.8335 22.8966 80.6225 20.7863ZM83.0141 20.5753C83.1548 22.0525 83.3658 23.1779 83.7878 23.9517C84.2099 24.7254 84.7726 25.0771 85.476 25.0068C86.1794 24.9364 86.6718 24.5144 86.9532 23.7407C87.2345 22.9669 87.3049 21.7711 87.1642 20.1533C87.0235 18.6761 86.8125 17.5507 86.3904 16.7769C86.0387 16.0032 85.4057 15.6515 84.6319 15.7218C83.9285 15.8625 83.4361 16.2845 83.2251 17.0583C82.9437 17.832 82.8734 19.0278 83.0141 20.5753Z" fill="white"/>
<path d="M93.917 20.2236L98.4892 20.505L98.3485 22.6152L93.7764 22.2635L93.917 20.2236Z" fill="white"/>
<path d="M110.377 18.3948L107.704 17.7618C107.422 18.8872 107.071 19.872 106.86 20.7864C106.578 21.7009 106.297 22.5449 106.016 23.2483C105.734 23.9518 105.453 24.5848 105.171 25.1475C104.89 25.7103 104.538 26.1323 104.187 26.484C103.976 26.695 103.694 26.9061 103.483 27.0467C103.202 27.1874 102.991 27.2578 102.71 27.3281C102.428 27.3984 102.217 27.3984 102.006 27.3984C101.795 27.3984 101.584 27.3281 101.373 27.3281C101.092 27.2578 100.881 27.1874 100.67 27.1171C100.529 27.0467 100.318 26.9061 100.177 26.8357L100.951 24.7958C101.021 24.8662 101.092 24.8662 101.162 24.8662C101.232 24.8662 101.303 24.9365 101.373 24.9365C101.584 25.0069 101.795 25.0069 101.936 24.9365C102.147 24.8662 102.358 24.7255 102.498 24.5848C102.71 24.3738 102.991 24.0221 103.202 23.5297C103.483 23.0373 103.694 22.4043 103.976 21.7009C104.257 20.9271 104.538 20.0127 104.89 18.9576C105.171 17.9025 105.523 16.6363 105.875 15.1592L113.261 16.8474L110.447 29.2273L107.985 28.6646L110.377 18.3948Z" fill="white"/>
<path d="M119.24 18.8167L126.203 21.8413L125.289 23.8812L120.646 21.8413L119.451 24.5846L123.671 26.4134L122.757 28.4533L118.536 26.6245L117.27 29.5084L121.983 31.6186L121.068 33.6585L114.034 30.5635L119.24 18.8167Z" fill="white"/>
<path d="M137.669 31.6187L134.574 29.5085L128.665 38.3011L126.555 36.8942L132.464 28.1017L129.369 25.9915L130.635 24.1626L138.935 29.7195L137.669 31.6187Z" fill="white"/>
<path d="M144.281 42.5215L145.547 41.4664L145.477 41.3961L143.648 42.0291L135.277 43.647L133.941 42.3105L143.015 33.3069L144.773 35.0654L139.85 39.9892L138.513 41.0443L138.583 41.1147L140.483 40.4816L148.783 39.0045L150.119 40.3409L141.045 49.3445L139.287 47.586L144.281 42.5215Z" fill="white"/>
<path d="M148.009 59.333L146.602 57.2228L150.823 54.4091L149.838 53.4947L144.422 53.8464L142.804 51.4548L147.798 51.3141L149.064 51.8065C148.923 51.4548 148.853 51.0328 148.853 50.6107C148.853 50.1887 148.853 49.837 148.994 49.415C149.134 48.9929 149.345 48.6412 149.627 48.2895C149.908 47.9378 150.26 47.5861 150.752 47.3047C151.385 46.8827 152.018 46.6013 152.581 46.6013C153.144 46.531 153.707 46.6013 154.269 46.8124C154.832 47.0234 155.324 47.3751 155.817 47.8675C156.309 48.3598 156.731 48.9226 157.153 49.5556C157.294 49.6963 157.364 49.9073 157.505 50.1887C157.646 50.4701 157.786 50.6811 157.927 50.8921C158.068 51.1735 158.208 51.3845 158.349 51.6659C158.49 51.9472 158.56 52.1582 158.63 52.3693L148.009 59.333ZM155.113 50.5404C154.902 50.259 154.762 50.048 154.551 49.837C154.34 49.626 154.129 49.4853 153.847 49.3446C153.636 49.2743 153.355 49.2039 153.073 49.2743C152.792 49.2743 152.511 49.415 152.159 49.626C151.878 49.837 151.596 50.048 151.456 50.3294C151.315 50.6107 151.245 50.8218 151.174 51.1031C151.174 51.3845 151.174 51.6659 151.315 51.9472C151.385 52.2286 151.526 52.5099 151.737 52.7913L152.229 53.565L155.535 51.3845C155.465 51.2438 155.395 51.1031 155.395 51.0328C155.254 50.8218 155.184 50.6811 155.113 50.5404Z" fill="white"/>
<path d="M19.9188 109.345L18.934 105.125L14.0805 106.25L13.5881 103.929L25.124 101.326L25.6164 103.577L20.9036 104.632L21.8883 108.853L26.6011 107.798L27.0935 110.049L15.5577 112.651L15.0653 110.4L19.9188 109.345Z" fill="white"/>
<path d="M26.0384 121.585L27.5155 121.092V121.022L25.757 120.952L18.0196 119.474L17.3162 117.857L28.1486 113.144L29.063 115.254L23.1544 117.857L21.6069 118.349L21.6773 118.419L23.5061 118.56L31.1029 120.037L31.8063 121.655L20.9035 126.297L19.9891 124.187L26.0384 121.585Z" fill="white"/>
<path d="M36.0267 128.408L37.2929 130.237L33.0021 133.261L33.5648 133.613L39.0514 132.698L40.5285 134.809L34.6903 135.582L33.7758 135.301V136.497L31.1732 142.124L29.5554 139.873L32.158 134.668L31.8766 134.035L27.6562 136.989L26.3901 135.16L30.7512 132.065L30.1885 131.714L24.4205 132.417L22.873 130.237L28.9223 129.744L29.9774 130.096V129.041L32.6504 123.554L34.1979 125.735L31.4546 130.659L31.8063 131.221L36.0267 128.408Z" fill="white"/>
<path d="M42.5682 146.133L39.4029 143.179L36.0266 146.837L34.3384 145.289L42.4275 136.567L44.1157 138.115L40.8097 141.632L43.975 144.586L47.281 141.069L48.9692 142.616L40.8801 151.268L39.1919 149.721L42.5682 146.133Z" fill="white"/>
<path d="M51.6423 144.656L57.4805 148.525L56.3551 150.213L52.416 147.611L50.8685 149.932L54.4559 152.323L53.3304 154.012L49.7431 151.62L48.1252 154.012L52.1346 156.684L51.0092 158.373L45.1006 154.434L51.6423 144.656Z" fill="white"/>
<path d="M65.6401 154.856L61.49 152.886L57.34 161.749L55.2297 160.764L60.2943 150.073L66.5546 153.027L65.6401 154.856Z" fill="white"/>
<path d="M66.2026 159.217C66.7654 157.318 67.6094 155.981 68.7349 155.207C69.8603 154.434 71.1968 154.223 72.7443 154.715C73.5884 154.926 74.2215 155.278 74.7842 155.77C75.2766 156.192 75.6986 156.755 75.98 157.388C76.2613 158.021 76.3317 158.724 76.3317 159.498C76.3317 160.272 76.191 161.116 75.9096 162.03C75.3469 163.93 74.5028 165.266 73.3774 166.04C72.2519 166.814 70.9155 167.025 69.368 166.532C68.5239 166.321 67.8908 165.97 67.3281 165.477C66.7654 164.985 66.4137 164.492 66.2026 163.859C65.9916 163.226 65.8509 162.523 65.8509 161.749C65.7806 160.975 65.9213 160.131 66.2026 159.217ZM68.5239 159.92C68.3832 160.483 68.2425 161.046 68.2425 161.538C68.1722 162.03 68.2425 162.523 68.3129 162.945C68.3832 163.367 68.5942 163.719 68.8756 164C69.1569 164.281 69.5086 164.492 69.9307 164.633C70.7044 164.844 71.4078 164.703 72.0409 164.211C72.674 163.719 73.1664 162.804 73.5884 161.397C73.7291 160.835 73.8698 160.342 73.8698 159.78C73.9401 159.287 73.8698 158.795 73.7994 158.373C73.7291 157.951 73.5181 157.599 73.307 157.318C73.0257 157.036 72.674 156.825 72.2519 156.685C71.4782 156.474 70.7748 156.614 70.1417 157.107C69.4383 157.669 68.9459 158.584 68.5239 159.92Z" fill="white"/>
<path d="M92.5103 164.492L88.1491 164.422L88.0788 169.346L85.7576 169.275L85.9686 157.458L88.2898 157.529L88.2195 162.382L92.5806 162.452L92.6509 157.599L94.9722 157.669L94.7612 169.486L92.4399 169.416L92.5103 164.492Z" fill="white"/>
<path d="M98.8408 163.297C98.4891 161.327 98.7001 159.78 99.3332 158.584C100.037 157.388 101.162 156.614 102.71 156.403C103.554 156.263 104.327 156.263 104.96 156.474C105.594 156.685 106.227 156.966 106.719 157.458C107.211 157.951 107.633 158.513 107.985 159.217C108.337 159.92 108.548 160.764 108.688 161.679C109.04 163.648 108.829 165.196 108.196 166.392C107.493 167.587 106.367 168.361 104.82 168.572C103.976 168.713 103.202 168.713 102.569 168.502C101.865 168.291 101.303 168.009 100.81 167.517C100.318 167.025 99.8959 166.462 99.5442 165.759C99.1925 164.985 98.9815 164.211 98.8408 163.297ZM101.232 162.875C101.303 163.437 101.514 164 101.654 164.492C101.865 164.985 102.076 165.336 102.358 165.688C102.639 166.04 102.921 166.251 103.272 166.392C103.624 166.532 104.046 166.603 104.468 166.462C105.312 166.321 105.875 165.899 106.156 165.196C106.508 164.492 106.508 163.437 106.297 162.03C106.227 161.468 106.086 160.975 105.875 160.483C105.664 159.991 105.453 159.639 105.242 159.287C104.96 158.935 104.679 158.724 104.327 158.584C103.976 158.443 103.554 158.373 103.061 158.513C102.217 158.654 101.654 159.076 101.373 159.85C101.021 160.413 100.951 161.468 101.232 162.875Z" fill="white"/>
<path d="M118.888 154.715C118.958 154.996 119.029 155.278 119.099 155.559C119.099 155.841 119.099 156.122 119.029 156.474C118.958 156.755 118.818 157.036 118.607 157.318C118.396 157.599 118.185 157.81 117.833 158.021V158.091C118.185 158.021 118.536 158.021 118.818 158.021C119.099 158.021 119.451 158.162 119.732 158.302C120.013 158.443 120.295 158.654 120.506 158.936C120.717 159.217 120.928 159.569 121.069 159.991C121.28 160.553 121.35 161.116 121.28 161.608C121.209 162.101 120.998 162.593 120.646 163.015C120.365 163.437 119.943 163.789 119.451 164.141C118.958 164.492 118.466 164.703 117.903 164.914C117.692 164.985 117.481 165.055 117.2 165.196C116.918 165.266 116.637 165.407 116.285 165.477C115.934 165.548 115.652 165.688 115.301 165.759C114.949 165.829 114.668 165.899 114.316 165.97L110.306 154.996C110.517 154.926 110.728 154.785 110.939 154.645C111.221 154.504 111.432 154.363 111.713 154.293C111.995 154.152 112.276 154.012 112.628 153.941C112.909 153.801 113.261 153.73 113.542 153.59C114.034 153.379 114.597 153.238 115.09 153.168C115.582 153.097 116.074 153.027 116.567 153.097C117.059 153.168 117.411 153.308 117.833 153.59C118.396 153.801 118.677 154.152 118.888 154.715ZM114.949 158.513C115.09 158.443 115.301 158.373 115.441 158.302C115.652 158.232 115.793 158.162 115.934 158.091C116.285 157.81 116.567 157.529 116.778 157.177C116.989 156.825 116.989 156.403 116.848 156.052C116.778 155.77 116.637 155.559 116.426 155.418C116.285 155.278 116.074 155.207 115.863 155.137C115.652 155.067 115.441 155.067 115.16 155.137C114.949 155.207 114.668 155.207 114.456 155.348C114.175 155.418 113.894 155.559 113.683 155.63C113.472 155.7 113.261 155.841 113.19 155.841L114.245 158.795L114.949 158.513ZM117.411 163.015C117.692 162.945 117.903 162.804 118.114 162.664C118.325 162.523 118.536 162.312 118.677 162.101C118.818 161.89 118.888 161.679 118.958 161.468C119.029 161.257 118.958 160.975 118.888 160.694C118.747 160.342 118.607 160.131 118.396 159.92C118.185 159.78 117.974 159.709 117.692 159.639C117.411 159.639 117.129 159.639 116.848 159.709C116.567 159.78 116.285 159.85 116.004 159.991L114.879 160.413L116.004 163.437C116.074 163.437 116.145 163.437 116.285 163.367C116.426 163.367 116.496 163.297 116.637 163.226C116.778 163.156 116.918 163.156 117.059 163.086C117.2 163.156 117.34 163.086 117.411 163.015Z" fill="white"/>
<path d="M127.962 149.158L123.952 151.339L128.665 159.92L126.625 161.046L120.928 150.706L126.977 147.4L127.962 149.158Z" fill="white"/>
<path d="M131.831 151.269C130.635 149.721 130.002 148.244 130.072 146.837C130.143 145.43 130.776 144.305 132.042 143.32C132.675 142.828 133.378 142.476 134.082 142.335C134.785 142.195 135.418 142.195 136.121 142.335C136.825 142.476 137.458 142.828 138.021 143.32C138.654 143.812 139.216 144.375 139.779 145.149C140.975 146.696 141.608 148.174 141.538 149.58C141.467 150.987 140.834 152.113 139.568 153.097C138.865 153.59 138.232 153.941 137.528 154.152C136.825 154.293 136.192 154.293 135.559 154.152C134.926 154.012 134.293 153.66 133.66 153.168C133.026 152.605 132.393 152.042 131.831 151.269ZM133.8 149.791C134.152 150.284 134.574 150.635 134.926 150.987C135.348 151.339 135.699 151.55 136.121 151.691C136.473 151.831 136.895 151.902 137.247 151.831C137.599 151.761 138.021 151.62 138.372 151.339C139.005 150.846 139.357 150.213 139.287 149.369C139.216 148.596 138.794 147.611 137.88 146.485C137.528 146.063 137.177 145.641 136.755 145.29C136.403 144.938 135.981 144.727 135.629 144.516C135.207 144.375 134.855 144.305 134.433 144.305C134.082 144.375 133.66 144.516 133.308 144.797C132.675 145.29 132.323 145.923 132.393 146.767C132.464 147.751 132.886 148.666 133.8 149.791Z" fill="white"/>
<path d="M138.302 138.466C138.583 138.044 138.865 137.622 139.216 137.13C139.568 136.708 139.92 136.215 140.272 135.793C140.694 135.371 141.116 134.949 141.538 134.598C142.03 134.246 142.522 133.964 143.015 133.824C143.578 133.683 144.07 133.613 144.703 133.753C145.266 133.894 145.899 134.246 146.462 134.738C147.024 135.231 147.376 135.723 147.587 136.286C147.798 136.848 147.868 137.341 147.798 137.904C147.728 138.466 147.587 138.959 147.376 139.451C147.095 139.943 146.813 140.436 146.391 140.858C146.321 140.928 146.321 140.999 146.18 141.069C146.11 141.139 146.039 141.28 145.899 141.35C145.828 141.421 145.688 141.561 145.617 141.632C145.547 141.702 145.477 141.772 145.406 141.843L148.431 144.586L146.884 146.274L138.302 138.466ZM141.889 137.059C141.749 137.2 141.608 137.411 141.467 137.552C141.327 137.693 141.256 137.833 141.186 137.974L144 140.576C144.07 140.576 144.07 140.506 144.14 140.436C144.211 140.365 144.281 140.295 144.351 140.225C144.422 140.154 144.492 140.084 144.562 140.014C144.633 139.943 144.703 139.873 144.703 139.873C144.914 139.662 145.055 139.381 145.266 139.17C145.406 138.888 145.547 138.607 145.547 138.396C145.617 138.115 145.547 137.833 145.477 137.552C145.406 137.27 145.125 136.989 144.844 136.708C144.562 136.426 144.281 136.286 144 136.215C143.718 136.145 143.437 136.145 143.226 136.215C142.944 136.286 142.733 136.426 142.522 136.567C142.241 136.637 142.03 136.848 141.889 137.059Z" fill="white"/>
<path d="M150.049 133.824C148.361 132.769 147.305 131.573 146.883 130.307C146.461 128.97 146.672 127.704 147.516 126.297C147.938 125.594 148.501 125.031 149.064 124.679C149.627 124.328 150.26 124.046 150.963 124.046C151.667 123.976 152.37 124.046 153.073 124.328C153.777 124.609 154.551 124.89 155.395 125.383C157.083 126.438 158.138 127.634 158.56 128.9C158.982 130.236 158.771 131.573 157.927 132.909C157.434 133.613 156.942 134.175 156.379 134.597C155.817 134.949 155.184 135.16 154.48 135.231C153.777 135.301 153.073 135.231 152.37 134.949C151.667 134.668 150.822 134.316 150.049 133.824ZM151.315 131.713C151.807 132.065 152.3 132.276 152.792 132.487C153.284 132.698 153.706 132.769 154.128 132.769C154.551 132.769 154.902 132.698 155.254 132.558C155.606 132.417 155.887 132.136 156.168 131.713C156.59 131.01 156.661 130.307 156.379 129.603C156.098 128.9 155.324 128.126 154.128 127.352C153.636 127.071 153.144 126.79 152.722 126.649C152.229 126.438 151.807 126.368 151.385 126.368C150.963 126.368 150.541 126.438 150.189 126.579C149.838 126.719 149.556 127.001 149.275 127.423C148.853 128.126 148.783 128.83 149.064 129.533C149.416 130.236 150.189 131.01 151.315 131.713Z" fill="white"/>
<path d="M168.337 115.395L167.704 116.942L165.665 116.38L162.851 123.484L164.75 124.469L164.117 126.016L160.248 124.469L160.741 123.273C160.67 123.132 160.459 122.921 160.108 122.64C159.756 122.288 159.264 121.936 158.63 121.444C157.997 121.022 157.083 120.459 156.028 119.967C154.973 119.404 153.707 118.841 152.229 118.279L154.832 111.667L163.906 115.254L164.469 113.847L168.337 115.395ZM163.062 117.364L155.887 114.551L154.902 117.013C156.731 117.786 158.208 118.56 159.334 119.264C160.459 119.967 161.233 120.53 161.655 121.022L163.062 117.364Z" fill="white"/>
<path d="M166.087 103.859L165.383 107.446L167.775 108.853L167.353 111.104L156.45 104.633L156.802 102.944L169.322 101.045L168.83 103.437L166.087 103.859ZM163.695 106.461L164.187 103.999L161.444 104.351H159.545V104.422L161.303 105.125L163.695 106.461Z" fill="white"/>
<path d="M19.4264 80.8572C20.5918 80.8572 21.5366 79.9124 21.5366 78.7469C21.5366 77.5815 20.5918 76.6367 19.4264 76.6367C18.2609 76.6367 17.3162 77.5815 17.3162 78.7469C17.3162 79.9124 18.2609 80.8572 19.4264 80.8572Z" fill="white"/>
<path d="M159.897 80.8572C161.062 80.8572 162.007 79.9124 162.007 78.7469C162.007 77.5815 161.062 76.6367 159.897 76.6367C158.731 76.6367 157.786 77.5815 157.786 78.7469C157.786 79.9124 158.731 80.8572 159.897 80.8572Z" fill="white"/>
</svg>
