<svg width="163" height="193" viewBox="0 0 163 193" fill="none" xmlns="http://www.w3.org/2000/svg">
<path d="M84.1138 190.218C84.1138 191.503 83.072 192.544 81.7869 192.544C80.5018 192.544 79.46 191.503 79.46 190.218V171.602C79.46 170.317 80.5018 169.276 81.7869 169.276C83.072 169.276 84.1138 170.317 84.1138 171.602V190.218Z" fill="#F9F6EF"/>
<path d="M84.1137 21.8848C84.1137 23.1699 83.0719 24.2117 81.7868 24.2117C80.5017 24.2117 79.46 23.1699 79.46 21.8848V3.26975C79.46 1.98465 80.5017 0.942871 81.7868 0.942871C83.0719 0.942871 84.1137 1.98465 84.1137 3.26976V21.8848Z" fill="#F9F6EF"/>
<path d="M161.572 49.7685C161.948 49.5509 162.43 49.68 162.648 50.0569C162.866 50.4338 162.736 50.9157 162.36 51.1333L147.882 59.4918C147.505 59.7093 147.023 59.5802 146.806 59.2033C146.588 58.8265 146.717 58.3445 147.094 58.127L161.572 49.7685Z" fill="#F9F6EF"/>
<path d="M15.6853 133.996C16.0621 133.779 16.5441 133.908 16.7616 134.285C16.9792 134.661 16.8501 135.143 16.4732 135.361L1.9959 143.719C1.61903 143.937 1.13712 143.808 0.919527 143.431C0.701936 143.054 0.831062 142.572 1.20794 142.355L15.6853 133.996Z" fill="#F9F6EF"/>
<path d="M127.392 16.1682C127.609 15.7913 128.091 15.6622 128.468 15.8798C128.845 16.0974 128.974 16.5793 128.756 16.9561L120.398 31.4335C120.18 31.8103 119.698 31.9395 119.322 31.7219C118.945 31.5043 118.816 31.0224 119.033 30.6455L127.392 16.1682Z" fill="#F9F6EF"/>
<path d="M43.164 162.055C43.3816 161.678 43.8635 161.549 44.2404 161.767C44.6172 161.984 44.7464 162.466 44.5288 162.843L36.1703 177.32C35.9527 177.697 35.4708 177.826 35.0939 177.609C34.717 177.391 34.5879 176.909 34.8055 176.532L43.164 162.055Z" fill="#F9F6EF"/>
<path d="M128.758 176.532C128.976 176.909 128.847 177.391 128.47 177.608C128.093 177.826 127.611 177.697 127.393 177.32L119.035 162.843C118.817 162.466 118.946 161.984 119.323 161.766C119.7 161.549 120.182 161.678 120.4 162.055L128.758 176.532Z" fill="#F9F6EF"/>
<path d="M44.5304 30.6451C44.748 31.022 44.6189 31.5039 44.242 31.7215C43.8651 31.9391 43.3832 31.81 43.1656 31.4331L34.8071 16.9558C34.5895 16.5789 34.7187 16.097 35.0955 15.8794C35.4724 15.6618 35.9543 15.7909 36.1719 16.1678L44.5304 30.6451Z" fill="#F9F6EF"/>
<path d="M162.358 142.354C162.735 142.572 162.864 143.054 162.647 143.43C162.429 143.807 161.947 143.936 161.57 143.719L147.093 135.36C146.716 135.143 146.587 134.661 146.805 134.284C147.022 133.907 147.504 133.778 147.881 133.996L162.358 142.354Z" fill="#F9F6EF"/>
<path d="M16.4702 58.126C16.8471 58.3436 16.9762 58.8255 16.7586 59.2024C16.541 59.5793 16.0591 59.7084 15.6822 59.4908L1.20489 51.1323C0.82801 50.9147 0.698881 50.4328 0.916472 50.0559C1.13406 49.6791 1.61598 49.5499 1.99286 49.7675L16.4702 58.126Z" fill="#F9F6EF"/>
</svg>
