<svg width="86" height="86" viewBox="0 0 86 86" fill="none" xmlns="http://www.w3.org/2000/svg">
<path d="M26.5112 27.4508C20.9529 31.9996 18.3859 37.6069 18.3859 45.3496C18.3859 59.0488 29.4914 70.1543 43.1906 70.1543C56.8899 70.1543 67.9954 59.0488 67.9954 45.3496C67.9954 33.9412 62.131 25.4534 51.4783 22.2909" stroke="#29314D" stroke-width="3"/>
<path d="M24.6313 45.1176L33.596 67.7705" stroke="#29314D" stroke-width="3" stroke-miterlimit="10"/>
<path d="M32.0532 42.0854L18.2806 46.8286" stroke="#29314D" stroke-width="3" stroke-miterlimit="10"/>
<path d="M63.3953 31.9507L50.0842 36.6022" stroke="#29314D" stroke-width="3" stroke-miterlimit="10"/>
<path d="M67.0894 48.9355L50.6012 54.1378L31.5348 60.6893" stroke="#29314D" stroke-width="3" stroke-miterlimit="10"/>
<path d="M53.2703 28.3814C53.2703 30.1144 52.4926 32.4469 51.1416 35.1069C49.8129 37.723 48.0218 40.481 46.1966 43.0119C44.375 45.5378 42.5412 47.8079 41.1444 49.4439C40.6284 50.0482 40.1751 50.5625 39.8068 50.9684C39.4386 50.5625 38.9852 50.0482 38.4693 49.4439C37.0725 47.8079 35.2386 45.5378 33.4171 43.0119C31.5919 40.481 29.8008 37.723 28.4721 35.1069C27.1211 32.4469 26.3434 30.1144 26.3434 28.3814C26.3434 20.7869 32.4143 14.6445 39.8068 14.6445C47.1994 14.6445 53.2703 20.7869 53.2703 28.3814Z" stroke="#29314D" stroke-width="3" stroke-miterlimit="10" stroke-linejoin="round"/>
<path d="M39.8068 34.6742C43.165 34.6742 45.8873 31.9021 45.8873 28.4825C45.8873 25.0629 43.165 22.2909 39.8068 22.2909C36.4487 22.2909 33.7264 25.0629 33.7264 28.4825C33.7264 31.9021 36.4487 34.6742 39.8068 34.6742Z" stroke="#29314D" stroke-width="3" stroke-miterlimit="10"/>
</svg>
