<svg width="17" height="19" viewBox="0 0 17 19" fill="none" xmlns="http://www.w3.org/2000/svg">
<path fill-rule="evenodd" clip-rule="evenodd" d="M16.2915 7.63562C16.4451 7.63493 16.5986 7.62714 16.7515 7.61228H16.7541V4.49883C15.5863 4.41346 14.4857 3.92031 13.6447 3.10561C12.8036 2.2909 12.2757 1.2065 12.1533 0.0419922H9.47319L9.44519 13.1052C9.44519 14.7079 8.0298 15.9706 6.42707 15.9706C5.65756 15.9706 4.91957 15.6649 4.37544 15.1208C3.83132 14.5767 3.52563 13.8387 3.52563 13.0692C3.52563 12.2996 3.83132 11.5617 4.37544 11.0175C4.91957 10.4734 5.65756 10.1677 6.42707 10.1677C6.51631 10.1677 6.6026 10.1795 6.68895 10.1913C6.71872 10.1954 6.74851 10.1995 6.77842 10.203V7.40161C6.75072 7.39987 6.72306 7.39794 6.69538 7.39601C6.60651 7.38981 6.51757 7.38361 6.42707 7.38361C5.30271 7.38361 4.2036 7.71702 3.26872 8.34168C2.33385 8.96635 1.6052 9.8542 1.17493 10.893C0.74465 11.9318 0.632071 13.0748 0.851424 14.1776C1.07078 15.2803 1.61221 16.2933 2.40725 17.0883C3.2023 17.8834 4.21525 18.4248 5.31801 18.6441C6.42077 18.8635 7.56381 18.7509 8.60259 18.3206C9.64136 17.8904 10.5292 17.1617 11.1539 16.2268C11.7785 15.292 12.112 14.1929 12.112 13.0685V5.37686C12.5663 6.07077 13.1863 6.64062 13.916 7.03496C14.6456 7.4293 15.462 7.63573 16.2915 7.63562Z" fill="white"/>
</svg>
