<svg width="45" height="45" viewBox="0 0 45 45" fill="none" xmlns="http://www.w3.org/2000/svg">
<circle cx="22.3906" cy="22.4121" r="22" fill="#BB2454"/>
<g clip-path="url(#clip0)">
<path d="M30.1449 24.7385L28.6658 23.2593L22.0096 16.6035C20.7829 15.386 18.8028 15.3897 17.5807 16.6118C16.3585 17.8339 16.3549 19.8141 17.5724 21.0408L24.2282 27.6986C24.5004 27.9709 24.942 27.9709 25.2144 27.6986C25.4866 27.4262 25.4866 26.9848 25.2144 26.7124L18.5586 20.0546C17.8778 19.3739 17.8778 18.2704 18.5586 17.5897C19.2393 16.909 20.3427 16.909 21.0235 17.5897L27.6813 24.2455L29.1604 25.7245C30.3859 26.9505 30.3855 28.9377 29.1597 30.163C27.9337 31.3883 25.9467 31.388 24.7212 30.1621L23.4888 28.9293L16.5864 22.0268L16.0932 21.5338C14.3695 19.7562 14.3914 16.9243 16.1422 15.1733C17.8932 13.4225 20.7251 13.4006 22.5027 15.1243L29.8981 22.52C30.0744 22.696 30.3311 22.7648 30.5717 22.7003C30.8123 22.6359 31.0004 22.448 31.0648 22.2073C31.1293 21.9666 31.0604 21.71 30.8843 21.5338L23.4888 14.1383C21.1728 11.8328 17.4276 11.8371 15.1168 14.148C12.806 16.4587 12.8017 20.2039 15.1072 22.52L22.5027 29.9154L23.7369 31.1483C25.5168 32.8579 28.3375 32.8294 30.0823 31.084C31.8273 29.3387 31.855 26.5179 30.1449 24.7385Z" fill="white"/>
</g>
<defs>
<clipPath id="clip0">
<rect width="20" height="20" fill="white" transform="translate(12.3906 12.4121)"/>
</clipPath>
</defs>
</svg>
