<svg width="88" height="54" viewBox="0 0 88 54" fill="none" xmlns="http://www.w3.org/2000/svg">
<path d="M65.504 15.8955V1.41016H9.43018V41.3089H47.5872" stroke="#F2F2F2" stroke-width="2.06674"/>
<path d="M9.43018 34.816L23.4834 25.6492L39.2933 35.9619" stroke="#F2F2F2" stroke-width="2.06674"/>
<path d="M31.2495 30.5234L47.4927 19.9204L52.9689 23.4925" stroke="#F2F2F2" stroke-width="2.06674"/>
<path d="M30.4581 19.7289C33.3614 19.7289 35.715 17.3414 35.715 14.3963C35.715 11.4512 33.3614 9.06372 30.4581 9.06372C27.5548 9.06372 25.2012 11.4512 25.2012 14.3963C25.2012 17.3414 27.5548 19.7289 30.4581 19.7289Z" stroke="#F2F2F2" stroke-width="2.06674"/>
<path d="M69.7845 49.2241C77.2032 49.2241 83.2174 43.2864 83.2174 35.9617C83.2174 28.6371 77.2032 22.6993 69.7845 22.6993C62.3657 22.6993 56.3516 28.6371 56.3516 35.9617C56.3516 43.2864 62.3657 49.2241 69.7845 49.2241Z" stroke="#F2F2F2" stroke-width="2" stroke-linecap="round" stroke-linejoin="round"/>
<path d="M74.6104 35.9597H64.9589" stroke="#161310" stroke-width="2" stroke-linejoin="round"/>
<path d="M69.7847 31.1953V40.7243" stroke="#161310" stroke-width="2" stroke-linejoin="round"/>
</svg>
