<svg width="124" height="90" viewBox="0 0 124 90" fill="none" xmlns="http://www.w3.org/2000/svg">
<path d="M95.845 33.8805V9.77979H17.9282V65.2207H77.4638" stroke="#F2F2F2" stroke-width="2.87181"/>
<path d="M17.9287 56.1982L37.4563 43.4604L59.4248 57.7903" stroke="#F2F2F2" stroke-width="2.87181"/>
<path d="M48.2461 50.2337L70.8167 35.5005L81.8223 42.6794" stroke="#F2F2F2" stroke-width="2.87181"/>
<path d="M47.1485 35.2347C51.1827 35.2347 54.4532 31.9172 54.4532 27.8249C54.4532 23.7325 51.1827 20.415 47.1485 20.415C43.1142 20.415 39.8438 23.7325 39.8438 27.8249C39.8438 31.9172 43.1142 35.2347 47.1485 35.2347Z" stroke="#F2F2F2" stroke-width="2.87181" stroke-linecap="round" stroke-linejoin="round"/>
<path d="M101.794 76.2192C112.102 76.2192 120.459 67.9684 120.459 57.7905C120.459 47.6126 112.102 39.3618 101.794 39.3618C91.4849 39.3618 83.128 47.6126 83.128 57.7905C83.128 67.9684 91.4849 76.2192 101.794 76.2192Z" stroke="#F2F2F2" stroke-width="2.77908" stroke-linecap="round" stroke-linejoin="round"/>
<path d="M108.501 57.7871H95.0898" stroke="#161310" stroke-width="2.77908" stroke-linejoin="round"/>
<path d="M101.794 51.168V64.4089" stroke="#161310" stroke-width="2.77908" stroke-linejoin="round"/>
</svg>
