<svg width="14" height="8" viewBox="0 0 14 8" fill="none" xmlns="http://www.w3.org/2000/svg">
<path d="M3.55381 6.01664C5.13772 7.55965 6.93446 7.45853 6.93446 7.45853H7.75084C7.75084 7.45853 7.99855 7.43243 8.12414 7.3052C8.23927 7.18777 8.23578 6.9692 8.23578 
6.9692C8.23578 6.9692 8.21834 5.94814 8.72771 5.79481C9.22661 5.64801 9.87203 6.78325 10.5524 7.22039C11.0687 7.54987 11.4594 7.4781 11.4594 7.4781L13.2771 7.45526C13.2771 
7.45526 14.2296 7.39981 13.7795 6.7017C13.7411 6.64298 13.5178 6.18301 12.4258 5.23698C11.285 4.24528 11.4385 4.40512 12.8131 2.69248C13.6504 1.64858 13.9853 1.01245 13.8807
 0.738427C13.7795 0.477453 13.1655 0.545958 13.1655 0.545958L11.114 0.559007C11.114 0.559007 10.9605 0.539434 10.8489 0.601416C10.7373 0.663397 10.6675 0.806933 10.6675 0.806933C10.6675 
 0.806933 10.343 1.61595 9.91041 2.30101C8.99634 3.74942 8.63351 3.82772 8.48349 3.73637C8.1381 3.52759 8.22183 2.89473 8.22183 2.44455C8.22183 1.03855 8.4486 0.454617 7.77875 0.301295C7.55547 
 0.252362 7.39149 0.216478 6.82282 0.213216C6.09017 0.206691 5.47265 0.216478 5.12028 0.376325C4.88653 0.483977 4.7086 0.722116 4.81675 0.735165C4.95282 0.751476 5.25983 0.813458 5.42032 
 1.01898C5.62965 1.28647 5.62267 1.88672 5.62267 1.88672C5.62267 1.88672 5.74478 3.54064 5.34008 3.74616C5.06446 3.88644 4.68418 3.59936 3.87129 2.2847C3.45263 1.61269 3.13864 0.865653 
 3.13864 0.865653C3.13864 0.865653 3.07933 0.725379 2.97118 0.653611C2.8386 0.562269 2.65718 0.536172 2.65718 0.536172L0.710431 0.549221C0.710431 0.549221 0.417371 0.555745 0.309218
 0.676446C0.211532 0.777574 0.302241 0.99614 0.302241 0.99614C0.302241 0.99614 1.82685 4.33335 3.55381 6.01664Z" fill="#805846"/>
</svg>
