<svg width="19" height="12" viewBox="0 0 19 12" fill="none" xmlns="http://www.w3.org/2000/svg">
<path fill-rule="evenodd" clip-rule="evenodd" d="M18.5529 1.13037C18.6938 0.687677 18.5529 0.365718 17.9291 0.365718H15.8565C15.3333 0.365718 15.0918 0.647433 14.951 0.94927C14.951 0.94927 13.8845 3.52494 12.3954 5.1951C11.9125 5.67804 11.6911 5.83902 11.4295 5.83902C11.2887 5.83902 11.1076 5.67805 11.1076 5.23535V1.11025C11.1076 0.587065 10.9466 0.345596 10.5039 0.345596H7.24408C6.92212 0.345596 6.7209 0.587064 6.7209 0.828534C6.7209 1.33159 7.46543 1.45233 7.54592 2.8609V5.91951C7.54592 6.58355 7.42518 6.70429 7.16359 6.70429C6.45931 6.70429 4.7489 4.10849 3.72265 1.15049C3.52143 0.566943 3.3202 0.345596 2.79702 0.345596H0.704286C0.100612 0.345596 0 0.627309 0 0.929146C0 1.47245 0.704286 4.20911 3.27996 7.83115C4.99037 10.3062 7.42518 11.6343 9.61853 11.6343C10.9466 11.6343 11.1076 11.3325 11.1076 10.8294V8.958C11.1076 8.35433 11.2283 8.25372 11.6509 8.25372C11.9527 8.25372 12.496 8.4147 13.7235 9.60192C15.1321 11.0105 15.3735 11.6544 16.1583 11.6544H18.2309C18.8346 11.6544 19.1163 11.3526 18.9553 10.769C18.7742 10.1855 18.0901 9.34033 17.2047 8.33421C16.7218 7.77078 15.9973 7.14698 15.776 6.84515C15.4742 6.4427 15.5547 6.28172 15.776 5.91951C15.7559 5.91951 18.2913 2.33772 18.5529 1.13037Z" fill="white"/>
</svg>
