<svg width="35" height="34" viewBox="0 0 35 34" fill="none" xmlns="http://www.w3.org/2000/svg">
<path d="M33.7545 18.18C34.297 17.5549 34.6275 16.7298 34.6275 15.8271C34.6275 13.8813 33.0935 12.2978 31.2085 12.2978H24.5726C25.2298 10.2391 25.5102 7.50738 25.5102 6.33644V5.1608C25.5102 2.56638 23.4648 0.455078 20.9515 0.455078H19.8118C19.2891 0.455078 18.8332 0.822124 18.7064 1.34603L18.0856 3.90986C17.2157 7.50032 14.4539 11.4618 11.5956 12.1817C11.0949 10.8735 9.85874 9.94495 8.41516 9.94495H1.57717C0.948071 9.94495 0.4375 10.472 0.4375 11.1214V32.2971C0.4375 32.9465 0.948071 33.4735 1.57717 33.4735H8.41516C9.77441 33.4735 10.9505 32.6508 11.5014 31.4618L15.4173 32.8092C16.6975 33.25 18.0317 33.4735 19.3818 33.4735H28.9292C30.8142 33.4735 32.3482 31.8901 32.3482 29.9443C32.3482 29.4854 32.2631 29.0462 32.1081 28.6439C33.5577 28.2353 34.6275 26.8636 34.6275 25.2385C34.6275 24.3358 34.297 23.5107 33.7545 22.8857C34.297 22.2606 34.6275 21.4355 34.6275 20.5328C34.6275 19.6301 34.297 18.805 33.7545 18.18ZM9.55483 29.9443C9.55483 30.5929 9.0435 31.1207 8.41516 31.1207H2.71683V12.2978H8.41516C9.0435 12.2978 9.55483 12.8256 9.55483 13.4742V29.9443ZM28.9292 19.3564H31.2085C31.8368 19.3564 32.3482 19.8842 32.3482 20.5328C32.3482 21.1814 31.8368 21.7092 31.2085 21.7092H28.9292C28.3001 21.7092 27.7895 22.2363 27.7895 22.8857C27.7895 23.5351 28.3001 24.0621 28.9292 24.0621H31.2085C31.8368 24.0621 32.3482 24.5899 32.3482 25.2385C32.3482 25.8871 31.8368 26.415 31.2085 26.415H28.9292C28.3001 26.415 27.7895 26.942 27.7895 27.5914C27.7895 28.2408 28.3001 28.7678 28.9292 28.7678C29.5575 28.7678 30.0688 29.2956 30.0688 29.9443C30.0688 30.5929 29.5575 31.1207 28.9292 31.1207H19.3818C18.2771 31.1207 17.1853 30.9379 16.1375 30.5772L11.8342 29.0964V14.5393C13.6219 14.1887 15.3717 13.0201 16.9513 11.1073C18.4936 9.23909 19.7442 6.76231 20.2966 4.48082L20.7015 2.80794H20.9515C22.2082 2.80794 23.2308 3.86359 23.2308 5.1608V6.33644C23.2308 7.916 22.7522 10.9457 22.1398 12.2978H19.8118C19.1827 12.2978 18.6722 12.8248 18.6722 13.4742C18.6722 14.1236 19.1827 14.6507 19.8118 14.6507H31.2085C31.8368 14.6507 32.3482 15.1785 32.3482 15.8271C32.3482 16.4757 31.8368 17.0035 31.2085 17.0035H28.9292C28.3001 17.0035 27.7895 17.5306 27.7895 18.18C27.7895 18.8293 28.3001 19.3564 28.9292 19.3564Z" fill="white"/>
</svg>
