<svg width="35" height="34" viewBox="0 0 35 34" fill="none" xmlns="http://www.w3.org/2000/svg">
<path d="M33.5104 17.9119C34.0528 17.2868 34.3834 16.4617 34.3834 15.559C34.3834 13.6132 32.8494 12.0297 30.9644 12.0297H24.3285C24.9857 9.97099 25.266 7.23932 25.266 6.06838V4.89273C25.266 2.29831 23.2207 0.187012 20.7074 0.187012H19.5677C19.045 0.187012 18.5891 0.554058 18.4622 1.07796L17.8415 3.64179C16.9715 7.23226 14.2097 11.1937 11.3515 11.9137C10.8508 10.6055 9.6146 9.67688 8.17102 9.67688H1.33303C0.70393 9.67688 0.193359 10.2039 0.193359 10.8533V32.029C0.193359 32.6784 0.70393 33.2055 1.33303 33.2055H8.17102C9.53027 33.2055 10.7064 32.3828 11.2572 31.1938L15.1731 32.5412C16.4534 32.982 17.7875 33.2055 19.1377 33.2055H28.685C30.57 33.2055 32.104 31.622 32.104 29.6762C32.104 29.2174 32.0189 28.7782 31.8639 28.3758C33.3136 27.9672 34.3834 26.5955 34.3834 24.9705C34.3834 24.0678 34.0528 23.2427 33.5104 22.6176C34.0528 21.9925 34.3834 21.1675 34.3834 20.2647C34.3834 19.362 34.0528 18.537 33.5104 17.9119ZM9.31069 29.6762C9.31069 30.3248 8.79936 30.8526 8.17102 30.8526H2.47269V12.0297H8.17102C8.79936 12.0297 9.31069 12.5576 9.31069 13.2062V29.6762ZM28.685 19.0883H30.9644C31.5927 19.0883 32.104 19.6161 32.104 20.2647C32.104 20.9134 31.5927 21.4412 30.9644 21.4412H28.685C28.0559 21.4412 27.5454 21.9682 27.5454 22.6176C27.5454 23.267 28.0559 23.794 28.685 23.794H30.9644C31.5927 23.794 32.104 24.3219 32.104 24.9705C32.104 25.6191 31.5927 26.1469 30.9644 26.1469H28.685C28.0559 26.1469 27.5454 26.6739 27.5454 27.3233C27.5454 27.9727 28.0559 28.4998 28.685 28.4998C29.3134 28.4998 29.8247 29.0276 29.8247 29.6762C29.8247 30.3248 29.3134 30.8526 28.685 30.8526H19.1377C18.0329 30.8526 16.9411 30.6699 15.8934 30.3091L11.59 28.8284V14.2712C13.3778 13.9207 15.1275 12.7521 16.7071 10.8392C18.2495 8.97102 19.5001 6.49424 20.0524 4.21275L20.4574 2.53987H20.7074C21.964 2.53987 22.9867 3.59552 22.9867 4.89273V6.06838C22.9867 7.64793 22.508 10.6776 21.8956 12.0297H19.5677C18.9386 12.0297 18.428 12.5568 18.428 13.2062C18.428 13.8556 18.9386 14.3826 19.5677 14.3826H30.9644C31.5927 14.3826 32.104 14.9104 32.104 15.559C32.104 16.2076 31.5927 16.7355 30.9644 16.7355H28.685C28.0559 16.7355 27.5454 17.2625 27.5454 17.9119C27.5454 18.5613 28.0559 19.0883 28.685 19.0883Z" fill="#066A59"/>
</svg>
