<svg width="51" height="27" viewBox="0 0 51 27" fill="none" xmlns="http://www.w3.org/2000/svg">
<path d="M45.5402 12.7607C38.4142 4.17016 30.7525 -0.0539334 22.7667 0.149596C9.88275 0.507829 1.01393 12.3107 0.642526 12.8125C0.625375 12.836 0.613547 12.8619 0.598762 12.8866C0.586342 12.9054 0.575105 12.9248 0.563869 12.9454C0.537255 12.9925 0.514781 13.0395 0.495856 13.0883C0.486985 13.1119 0.479297 13.1354 0.471608 13.1589C0.456823 13.2054 0.444403 13.2519 0.435532 13.2989C0.429618 13.3295 0.42607 13.3601 0.423113 13.3913C0.418973 13.4313 0.416016 13.4713 0.416016 13.5119C0.416016 13.5519 0.418973 13.5919 0.423113 13.6319C0.426661 13.663 0.43021 13.693 0.435532 13.7242C0.444403 13.7713 0.456823 13.8178 0.471608 13.8642C0.479297 13.8878 0.486985 13.9113 0.495856 13.9348C0.514781 13.9836 0.537846 14.0307 0.563869 14.0778C0.575105 14.0978 0.585751 14.1166 0.598762 14.1366C0.613547 14.1607 0.625375 14.1872 0.642526 14.2107C1.01393 14.713 9.88275 26.5153 22.7667 26.8736C22.966 26.8789 23.1641 26.8818 23.3622 26.8818C31.1328 26.8818 38.5911 22.6389 45.5402 14.2625C45.7229 14.0425 45.8057 13.776 45.8051 13.5119C45.8057 13.2472 45.7229 12.9807 45.5402 12.7607ZM22.8471 24.5224C12.8298 24.2512 5.17511 15.983 3.10694 13.5119C5.17511 11.0407 12.8292 2.77193 22.8471 2.50076C29.8388 2.31899 36.6299 6.02368 43.074 13.5119C36.6305 21.0007 29.8459 24.7236 22.8471 24.5224Z" fill="#161310"/>
<path d="M23.7012 5.7666C19.4069 5.7666 15.9141 9.24069 15.9141 13.5113C15.9141 17.7825 19.4069 21.2565 23.7012 21.2565C27.9954 21.2565 31.4883 17.7825 31.4883 13.5113C31.4883 9.24069 27.9954 5.7666 23.7012 5.7666ZM23.7012 18.9036C20.7116 18.9036 18.2797 16.4848 18.2797 13.5113C18.2797 10.5384 20.7116 8.11952 23.7012 8.11952C26.6908 8.11952 29.1226 10.5384 29.1226 13.5113C29.1226 16.4842 26.6908 18.9036 23.7012 18.9036Z" fill="#161310"/>
</svg>
