<svg width="29" height="18" viewBox="0 0 29 18" fill="none" xmlns="http://www.w3.org/2000/svg">
<path d="M27.9502 8.39604C23.6863 3.2557 19.1017 0.728117 14.3232 0.849902C6.61385 1.06426 1.307 8.12677 1.08476 8.42701C1.07449 8.44109 1.06742 8.45658 1.05857 8.47136C1.05114 8.48263 1.04441 8.49424 1.03769 8.50656C1.02177 8.53472 1.00832 8.56288 0.996993 8.59209C0.991685 8.60617 0.987084 8.62025 0.982484 8.63433C0.973637 8.66214 0.966205 8.68994 0.960897 8.7181C0.957358 8.73641 0.955235 8.75471 0.953465 8.77336C0.950988 8.7973 0.949219 8.82123 0.949219 8.84552C0.949219 8.86945 0.950988 8.89339 0.953465 8.91732C0.955589 8.93598 0.957712 8.95393 0.960897 8.97259C0.966205 9.00074 0.973637 9.02855 0.982484 9.05636C0.987084 9.07044 0.991685 9.08451 0.996993 9.09859C1.00832 9.12781 1.02212 9.15597 1.03769 9.18413C1.04441 9.19609 1.05078 9.20736 1.05857 9.21932C1.06742 9.23376 1.07449 9.24959 1.08476 9.26367C1.307 9.56427 6.61385 16.6265 14.3232 16.8408C14.4425 16.844 14.561 16.8457 14.6796 16.8457C19.3293 16.8457 23.7921 14.3069 27.9502 9.29465C28.0596 9.16301 28.1091 9.00356 28.1088 8.84552C28.1091 8.68713 28.0596 8.52768 27.9502 8.39604ZM14.3713 15.4339C8.37725 15.2717 3.79693 10.3242 2.55939 8.84552C3.79693 7.36685 8.3769 2.41904 14.3713 2.25678C18.555 2.14801 22.6186 4.36479 26.4745 8.84552C22.619 13.3266 18.5592 15.5543 14.3713 15.4339Z" fill="#CAC9C9"/>
<path d="M14.8822 4.21094C12.3127 4.21094 10.2227 6.28974 10.2227 8.84512C10.2227 11.4009 12.3127 13.4797 14.8822 13.4797C17.4518 13.4797 19.5418 11.4009 19.5418 8.84512C19.5418 6.28974 17.4518 4.21094 14.8822 4.21094ZM14.8822 12.0717C13.0934 12.0717 11.6382 10.6244 11.6382 8.84512C11.6382 7.06621 13.0934 5.61886 14.8822 5.61886C16.6711 5.61886 18.1263 7.06621 18.1263 8.84512C18.1263 10.624 16.6711 12.0717 14.8822 12.0717Z" fill="#CAC9C9"/>
</svg>
