<svg width="28" height="27" viewBox="0 0 28 27" fill="none" xmlns="http://www.w3.org/2000/svg">
<path d="M2.83508 11.9553C1.73051 11.9553 0.835083 12.8508 0.835083 13.9553C0.835083 15.0599 1.73051 15.9553 2.83508 15.9553V11.9553ZM25.1644 15.9553C26.269 15.9553 27.1644 15.0599 27.1644 13.9553C27.1644 12.8508 26.269 11.9553 25.1644 11.9553V15.9553ZM2.83508 15.9553H25.1644V11.9553H2.83508V15.9553Z" fill="white"/>
<path d="M15.5531 2.34399C15.5531 1.23942 14.6577 0.343994 13.5531 0.343994C12.4485 0.343994 11.5531 1.23942 11.5531 2.34399H15.5531ZM11.5531 24.6733C11.5531 25.7779 12.4485 26.6733 13.5531 26.6733C14.6577 26.6733 15.5531 25.7779 15.5531 24.6733H11.5531ZM11.5531 2.34399V24.6733H15.5531V2.34399H11.5531Z" fill="white"/>
</svg>
