<svg width="500" height="421" viewBox="0 0 500 421" fill="none" xmlns="http://www.w3.org/2000/svg">
<mask id="mask0" mask-type="alpha" maskUnits="userSpaceOnUse" x="0" y="0" width="500" height="421">
<rect x="0.814117" y="0.0314941" width="499.091" height="420" fill="#00725E"/>
</mask>
<g mask="url(#mask0)">
<g opacity="0.05">
<path d="M508.247 327.486H360.952" stroke="#161310" stroke-width="3.89091" stroke-miterlimit="10" stroke-linecap="round" stroke-linejoin="round"/>
<path d="M123.887 418.695H24.3029H-113.289H-215.943C-234.864 418.695 -251.378 410.064 -260.59 397.072C-265.486 390.22 -268.225 382.123 -268.225 373.491V372.601" stroke="#161310" stroke-width="3.89091" stroke-miterlimit="10" stroke-linecap="round" stroke-linejoin="round"/>
<path d="M326.789 327.486H295.254C210.691 327.486 234.674 418.695 158.077 418.695H105.215" stroke="#161310" stroke-width="3.89091" stroke-miterlimit="10" stroke-linecap="round" stroke-linejoin="round"/>
<path d="M149.118 210.293C149.118 202.552 143.309 196.323 136.089 196.323C135.259 196.323 134.346 196.412 133.599 196.59C133.019 189.471 127.458 183.865 120.654 183.865C118.33 183.865 116.089 184.488 114.264 185.645" stroke="#161310" stroke-width="3.99894" stroke-miterlimit="10" stroke-linecap="round" stroke-linejoin="round"/>
<path d="M166.379 241.882C166.379 233.962 172.354 227.466 179.823 227.466C180.736 227.466 181.566 227.555 182.395 227.733C182.976 220.348 188.785 214.653 195.756 214.653C198.163 214.653 200.403 215.365 202.395 216.521C203.723 210.115 209.117 205.22 215.507 205.22C216.503 205.22 217.499 205.398 218.495 205.576C220.984 202.284 224.719 200.237 228.951 200.237C235.009 200.237 240.071 204.509 241.814 210.471C241.98 210.471 242.229 210.471 242.395 210.471C247.872 210.471 252.602 214.03 254.677 219.013C256.502 218.034 258.577 217.411 260.818 217.411C267.374 217.411 272.768 222.394 274.013 229.068C274.096 229.068 274.179 229.068 274.262 229.068C281.647 229.068 287.705 235.475 287.705 243.484" stroke="#161310" stroke-width="3.89091" stroke-miterlimit="10" stroke-linecap="round" stroke-linejoin="round"/>
<path d="M384.964 306.165C384.964 298.246 390.939 291.75 398.408 291.75C399.321 291.75 400.151 291.839 400.981 292.017C401.562 284.631 407.371 278.936 414.342 278.936C416.748 278.936 418.989 279.648 420.981 280.805C422.308 274.398 427.702 269.504 434.092 269.504C435.088 269.504 436.084 269.682 437.08 269.86C439.57 266.567 443.304 264.521 447.536 264.521C453.594 264.521 458.656 268.792 460.399 274.754C460.565 274.754 460.814 274.754 460.98 274.754C466.457 274.754 471.187 278.313 473.262 283.296C475.088 282.317 477.162 281.694 479.403 281.694C485.959 281.694 491.353 286.678 492.598 293.351C492.681 293.351 492.764 293.351 492.847 293.351C500.233 293.351 506.291 299.758 506.291 307.767" stroke="#161310" stroke-width="3.89091" stroke-miterlimit="10" stroke-linecap="round" stroke-linejoin="round"/>
<path d="M142.062 345.727V391.287H-215.195V345.727" stroke="#161310" stroke-width="3.89091" stroke-miterlimit="10" stroke-linecap="round" stroke-linejoin="round"/>
<path d="M-90.6333 326.062H17.4982" stroke="#161310" stroke-width="3.89091" stroke-miterlimit="10" stroke-linecap="round" stroke-linejoin="round"/>
<path d="M-202.248 355.07H126.628" stroke="#161310" stroke-width="3.89091" stroke-miterlimit="10" stroke-linecap="round" stroke-linejoin="round"/>
<path d="M29.199 345.727H145.546" stroke="#161310" stroke-width="3.89091" stroke-miterlimit="10" stroke-linecap="round" stroke-linejoin="round"/>
<path d="M29.2007 363.346H47.7067V391.109H29.2007V363.346Z" stroke="#161310" stroke-width="3.89091" stroke-miterlimit="10" stroke-linecap="round" stroke-linejoin="round"/>
<path d="M45.9651 363.257H64.4711V391.02H45.9651V363.257Z" stroke="#161310" stroke-width="3.89091" stroke-miterlimit="10" stroke-linecap="round" stroke-linejoin="round"/>
<path d="M62.8114 363.166H81.3174V390.929H62.8114V363.166Z" stroke="#161310" stroke-width="3.89091" stroke-miterlimit="10" stroke-linecap="round" stroke-linejoin="round"/>
<path d="M79.5739 363.166H98.0799V390.929H79.5739V363.166Z" stroke="#161310" stroke-width="3.89091" stroke-miterlimit="10" stroke-linecap="round" stroke-linejoin="round"/>
<path d="M96.4201 363.079H114.926V390.842H96.4201V363.079Z" stroke="#161310" stroke-width="3.89091" stroke-miterlimit="10" stroke-linecap="round" stroke-linejoin="round"/>
<path d="M113.183 362.99H131.689V390.753H113.183V362.99Z" stroke="#161310" stroke-width="3.89091" stroke-miterlimit="10" stroke-linecap="round" stroke-linejoin="round"/>
<path d="M14.262 311.646H29.1996V345.727" stroke="#161310" stroke-width="3.89091" stroke-miterlimit="10" stroke-linecap="round" stroke-linejoin="round"/>
<path d="M29.1996 357.828V391.286" stroke="#161310" stroke-width="3.89091" stroke-miterlimit="10" stroke-linecap="round" stroke-linejoin="round"/>
<path d="M-78.5174 385.059H3.30728" stroke="#161310" stroke-width="3.89091" stroke-miterlimit="10" stroke-linecap="round" stroke-linejoin="round"/>
<path d="M-74.7008 378.83H-0.593842" stroke="#161310" stroke-width="3.89091" stroke-miterlimit="10" stroke-linecap="round" stroke-linejoin="round"/>
<path d="M14.262 313.249V324.995" stroke="#161310" stroke-width="3.89091" stroke-miterlimit="10" stroke-linecap="round" stroke-linejoin="round"/>
<path d="M11.025 318.677H34.5102" stroke="#161310" stroke-width="3.89091" stroke-miterlimit="10" stroke-linecap="round" stroke-linejoin="round"/>
<path d="M29.1996 299.901V311.735" stroke="#161310" stroke-width="3.89091" stroke-miterlimit="10" stroke-linecap="round" stroke-linejoin="round"/>
<path d="M11.0244 336.296H34.2607" stroke="#161310" stroke-width="3.89091" stroke-miterlimit="10" stroke-linecap="round" stroke-linejoin="round"/>
<path d="M147.539 333.447H106.461" stroke="#161310" stroke-width="3.89091" stroke-miterlimit="10" stroke-linecap="round" stroke-linejoin="round"/>
<path d="M141.897 335.938V344.125" stroke="#161310" stroke-width="3.89091" stroke-miterlimit="10" stroke-linecap="round" stroke-linejoin="round"/>
<path d="M135.34 335.672V343.858" stroke="#161310" stroke-width="3.89091" stroke-miterlimit="10" stroke-linecap="round" stroke-linejoin="round"/>
<path d="M128.784 335.403V343.59" stroke="#161310" stroke-width="3.89091" stroke-miterlimit="10" stroke-linecap="round" stroke-linejoin="round"/>
<path d="M122.229 335.137V343.323" stroke="#161310" stroke-width="3.89091" stroke-miterlimit="10" stroke-linecap="round" stroke-linejoin="round"/>
<path d="M115.673 334.781V343.056" stroke="#161310" stroke-width="3.89091" stroke-miterlimit="10" stroke-linecap="round" stroke-linejoin="round"/>
<path d="M109.199 334.514V342.79" stroke="#161310" stroke-width="3.89091" stroke-miterlimit="10" stroke-linecap="round" stroke-linejoin="round"/>
<path d="M140.238 391.11H159.159H186.959V302.749" stroke="#161310" stroke-width="3.89091" stroke-miterlimit="10" stroke-linecap="round" stroke-linejoin="round"/>
<path d="M52.2719 308.976H186.71H379.737" stroke="#161310" stroke-width="3.89091" stroke-miterlimit="10" stroke-linecap="round" stroke-linejoin="round"/>
<path d="M386.623 244.819H-43.8285H-321.336L-321.253 287.442" stroke="#161310" stroke-width="3.89091" stroke-miterlimit="10" stroke-linecap="round" stroke-linejoin="round"/>
<path d="M205.05 318.765H276.667H379.487" stroke="#161310" stroke-width="3.89091" stroke-miterlimit="10" stroke-linecap="round" stroke-linejoin="round"/>
<path d="M397.922 319.241H469.54H572.36" stroke="#161310" stroke-width="3.89091" stroke-miterlimit="10" stroke-linecap="round" stroke-linejoin="round"/>
<path d="M186.958 327.753H338.823" stroke="#161310" stroke-width="3.89091" stroke-miterlimit="10" stroke-linecap="round" stroke-linejoin="round"/>
<path d="M261.978 267.956H385.794V309.155H261.978V267.956Z" stroke="#161310" stroke-width="3.89091" stroke-miterlimit="10" stroke-linecap="round" stroke-linejoin="round"/>
<path d="M248.534 211.716V200.237H393.594" stroke="#161310" stroke-width="3.89091" stroke-miterlimit="10" stroke-linecap="round" stroke-linejoin="round"/>
<path d="M204.386 243.485C207.29 236.812 213.68 235.21 217.332 235.21C219.074 235.21 220.651 235.744 221.979 236.723C221.979 236.723 221.979 236.723 221.979 236.634C221.979 231.562 225.796 227.468 230.527 227.468C233.597 227.468 236.253 229.248 237.829 231.829C239.323 229.248 242.062 227.468 245.132 227.468C249.862 227.468 253.68 231.562 253.68 236.634C253.68 236.901 253.68 237.168 253.68 237.435C254.676 236.99 255.838 236.723 256.999 236.723C260.817 236.723 264.136 239.481 265.215 243.218" stroke="#161310" stroke-width="3.89091" stroke-miterlimit="10" stroke-linecap="round" stroke-linejoin="round"/>
<path d="M137.417 241.528C135.259 233.697 129.45 232.896 125.799 232.896C124.222 232.896 122.728 233.43 121.483 234.32C121.483 234.32 121.483 234.32 121.483 234.231C121.483 229.515 117.915 225.689 113.517 225.689" stroke="#161310" stroke-width="3.89091" stroke-miterlimit="10" stroke-linecap="round" stroke-linejoin="round"/>
<path d="M21.7311 173.454H113.265V244.819H21.7311V173.454Z" stroke="#161310" stroke-width="3.89091" stroke-miterlimit="10" stroke-linecap="round" stroke-linejoin="round"/>
<path d="M22.2301 173.454H-68.8891V209.225" stroke="#161310" stroke-width="3.89091" stroke-miterlimit="10" stroke-linecap="round" stroke-linejoin="round"/>
<path d="M149.117 244.819V132.521H216.004V205.221" stroke="#161310" stroke-width="3.89091" stroke-miterlimit="10" stroke-linecap="round" stroke-linejoin="round"/>
<path d="M57.997 308.976V345.727" stroke="#161310" stroke-width="3.59525" stroke-miterlimit="10" stroke-linecap="round" stroke-linejoin="round"/>
<path d="M20.2386 209.314H114.345" stroke="#161310" stroke-width="3.67939" stroke-miterlimit="10" stroke-linecap="round" stroke-linejoin="round"/>
<path d="M98.4115 160.907V173.454" stroke="#161310" stroke-width="3.89091" stroke-miterlimit="10" stroke-linecap="round" stroke-linejoin="round"/>
<path d="M160.901 117.039V129.586" stroke="#161310" stroke-width="3.89091" stroke-miterlimit="10" stroke-linecap="round" stroke-linejoin="round"/>
<path d="M89.9479 282.905C89.9479 278.011 96.2549 274.007 104.056 274.007H240.569" stroke="#161310" stroke-width="3.89091" stroke-miterlimit="10" stroke-linecap="round" stroke-linejoin="round"/>
<path d="M5.05231 290.469C5.05231 287.888 10.1145 285.841 16.2555 285.841H106.711" stroke="#161310" stroke-width="3.89091" stroke-miterlimit="10" stroke-linecap="round" stroke-linejoin="round"/>
<path d="M69.0332 244.374L47.4567 284.327" stroke="#161310" stroke-width="3.89091" stroke-miterlimit="10" stroke-linecap="round" stroke-linejoin="round"/>
<path d="M82.1463 245.262L60.5698 285.216" stroke="#161310" stroke-width="3.89091" stroke-miterlimit="10" stroke-linecap="round" stroke-linejoin="round"/>
<path d="M65.1342 251.582H78.744" stroke="#161310" stroke-width="3.89091" stroke-miterlimit="10" stroke-linecap="round" stroke-linejoin="round"/>
<path d="M60.6537 260.48H74.0146" stroke="#161310" stroke-width="3.89091" stroke-miterlimit="10" stroke-linecap="round" stroke-linejoin="round"/>
<path d="M56.254 269.38H69.2829" stroke="#161310" stroke-width="3.89091" stroke-miterlimit="10" stroke-linecap="round" stroke-linejoin="round"/>
<path d="M51.8563 278.189H64.5533" stroke="#161310" stroke-width="3.89091" stroke-miterlimit="10" stroke-linecap="round" stroke-linejoin="round"/>
<path d="M199.324 274.452L217.747 308.444" stroke="#161310" stroke-width="3.59525" stroke-miterlimit="10" stroke-linecap="round" stroke-linejoin="round"/>
<path d="M188.121 275.164L206.544 309.156" stroke="#161310" stroke-width="3.59525" stroke-miterlimit="10" stroke-linecap="round" stroke-linejoin="round"/>
<path d="M202.647 281.927H191.029" stroke="#161310" stroke-width="3.59525" stroke-miterlimit="10" stroke-linecap="round" stroke-linejoin="round"/>
<path d="M208.371 291.003H197.085" stroke="#161310" stroke-width="3.59525" stroke-miterlimit="10" stroke-linecap="round" stroke-linejoin="round"/>
<path d="M214.015 300.167H203.144" stroke="#161310" stroke-width="3.59525" stroke-miterlimit="10" stroke-linecap="round" stroke-linejoin="round"/>
<path d="M56.0888 308.976L71.3583 298.565H170.361L186.71 308.976" stroke="#161310" stroke-width="3.59525" stroke-miterlimit="10" stroke-linecap="round" stroke-linejoin="round"/>
<path d="M211.854 391.288H504.974" stroke="#161310" stroke-width="3.40706" stroke-miterlimit="10" stroke-linecap="round" stroke-linejoin="round"/>
<path d="M281.313 329.105H293.761V376H281.313V329.105Z" stroke="#161310" stroke-width="3.40706" stroke-miterlimit="10" stroke-linecap="round" stroke-linejoin="round"/>
<path d="M317.645 329.105H330.093V376H317.645V329.105Z" stroke="#161310" stroke-width="3.40706" stroke-miterlimit="10" stroke-linecap="round" stroke-linejoin="round"/>
<path d="M353.978 329.105H366.426V376H353.978V329.105Z" stroke="#161310" stroke-width="3.40706" stroke-miterlimit="10" stroke-linecap="round" stroke-linejoin="round"/>
<path d="M390.31 329.105H402.758V376H390.31V329.105Z" stroke="#161310" stroke-width="3.40706" stroke-miterlimit="10" stroke-linecap="round" stroke-linejoin="round"/>
<path d="M426.643 329.105H439.091V376H426.643V329.105Z" stroke="#161310" stroke-width="3.40706" stroke-miterlimit="10" stroke-linecap="round" stroke-linejoin="round"/>
<path d="M462.975 329.105H475.423V376H462.975V329.105Z" stroke="#161310" stroke-width="3.40706" stroke-miterlimit="10" stroke-linecap="round" stroke-linejoin="round"/>
<path d="M270.36 259.414L261.812 268.045L270.36 259.414Z" stroke="#161310" stroke-width="3.89091" stroke-miterlimit="10" stroke-linecap="round" stroke-linejoin="round"/>
<path d="M396.499 259.414H270.36" stroke="#161310" stroke-width="3.89091" stroke-miterlimit="10" stroke-linecap="round" stroke-linejoin="round"/>
<path d="M149.532 176.391H216.419" stroke="#161310" stroke-width="3.89091" stroke-miterlimit="10" stroke-linecap="round" stroke-linejoin="round"/>
<path d="M149.781 218.035H185.548" stroke="#161310" stroke-width="3.89091" stroke-miterlimit="10" stroke-linecap="round" stroke-linejoin="round"/>
<path d="M78.9099 344.126H71.3582V333.181L75.0926 329.978L78.9099 333.181V344.126Z" stroke="#161310" stroke-width="3.30727" stroke-miterlimit="10" stroke-linecap="round" stroke-linejoin="round"/>
<path d="M97.4972 344.126H89.9455V333.181L93.6799 329.978L97.4972 333.181V344.126Z" stroke="#161310" stroke-width="3.30727" stroke-miterlimit="10" stroke-linecap="round" stroke-linejoin="round"/>
<path d="M174.593 345.727H167.041V334.782L170.859 331.578L174.593 334.782V345.727Z" stroke="#161310" stroke-width="3.30727" stroke-miterlimit="10" stroke-linecap="round" stroke-linejoin="round"/>
<path d="M275.589 285.397H270.195V277.478L272.85 275.164L275.589 277.478V285.397Z" stroke="#161310" stroke-width="2.9182" stroke-miterlimit="10" stroke-linecap="round" stroke-linejoin="round"/>
<path d="M296.085 285.397H290.69V277.478L293.429 275.164L296.085 277.478V285.397Z" stroke="#161310" stroke-width="2.9182" stroke-miterlimit="10" stroke-linecap="round" stroke-linejoin="round"/>
<path d="M311.687 285.397H306.21V277.478L308.948 275.164L311.687 277.478V285.397Z" stroke="#161310" stroke-width="2.9182" stroke-miterlimit="10" stroke-linecap="round" stroke-linejoin="round"/>
<path d="M326.377 285.397H320.9V277.478L323.639 275.164L326.377 277.478V285.397Z" stroke="#161310" stroke-width="2.9182" stroke-miterlimit="10" stroke-linecap="round" stroke-linejoin="round"/>
<path d="M350.191 285.397H344.797V277.478L347.536 275.164L350.191 277.478V285.397Z" stroke="#161310" stroke-width="2.9182" stroke-miterlimit="10" stroke-linecap="round" stroke-linejoin="round"/>
<path d="M365.793 285.397H360.316V277.477L363.055 275.164L365.793 277.477V285.397Z" stroke="#161310" stroke-width="2.9182" stroke-miterlimit="10" stroke-linecap="round" stroke-linejoin="round"/>
<path d="M275.589 301.948H270.195V294.028L272.85 291.715L275.589 294.028V301.948Z" stroke="#161310" stroke-width="2.9182" stroke-miterlimit="10" stroke-linecap="round" stroke-linejoin="round"/>
<path d="M296.085 301.948H290.69V294.028L293.429 291.715L296.085 294.028V301.948Z" stroke="#161310" stroke-width="2.9182" stroke-miterlimit="10" stroke-linecap="round" stroke-linejoin="round"/>
<path d="M311.689 301.948H306.212V294.028L308.95 291.715L311.689 294.028V301.948Z" stroke="#161310" stroke-width="2.9182" stroke-miterlimit="10" stroke-linecap="round" stroke-linejoin="round"/>
<path d="M326.377 301.948H320.9V294.028L323.639 291.715L326.377 294.028V301.948Z" stroke="#161310" stroke-width="2.9182" stroke-miterlimit="10" stroke-linecap="round" stroke-linejoin="round"/>
<path d="M350.193 301.948H344.799V294.028L347.538 291.715L350.193 294.028V301.948Z" stroke="#161310" stroke-width="2.9182" stroke-miterlimit="10" stroke-linecap="round" stroke-linejoin="round"/>
<path d="M174.593 370.377H167.041V359.431L170.859 356.228L174.593 359.431V370.377Z" stroke="#161310" stroke-width="3.30727" stroke-miterlimit="10" stroke-linecap="round" stroke-linejoin="round"/>
<path d="M54.678 322.414H186.71" stroke="#161310" stroke-width="3.30727" stroke-miterlimit="10" stroke-linecap="round" stroke-linejoin="round"/>
<path d="M154.511 324.905V389.33" stroke="#161310" stroke-width="3.30727" stroke-miterlimit="10" stroke-linecap="round" stroke-linejoin="round"/>
<path d="M65.1322 309.155V320.456" stroke="#161310" stroke-width="3.89091" stroke-miterlimit="10" stroke-linecap="round" stroke-linejoin="round"/>
<path d="M76.2526 309.155V320.456" stroke="#161310" stroke-width="3.89091" stroke-miterlimit="10" stroke-linecap="round" stroke-linejoin="round"/>
<path d="M87.4568 309.155V320.456" stroke="#161310" stroke-width="3.89091" stroke-miterlimit="10" stroke-linecap="round" stroke-linejoin="round"/>
<path d="M98.5772 309.155V320.456" stroke="#161310" stroke-width="3.89091" stroke-miterlimit="10" stroke-linecap="round" stroke-linejoin="round"/>
<path d="M109.781 309.155V320.456" stroke="#161310" stroke-width="3.89091" stroke-miterlimit="10" stroke-linecap="round" stroke-linejoin="round"/>
<path d="M120.902 309.155V320.456" stroke="#161310" stroke-width="3.89091" stroke-miterlimit="10" stroke-linecap="round" stroke-linejoin="round"/>
<path d="M132.02 309.155V320.456" stroke="#161310" stroke-width="3.89091" stroke-miterlimit="10" stroke-linecap="round" stroke-linejoin="round"/>
<path d="M143.224 309.155V320.456" stroke="#161310" stroke-width="3.89091" stroke-miterlimit="10" stroke-linecap="round" stroke-linejoin="round"/>
<path d="M154.343 309.155V320.456" stroke="#161310" stroke-width="3.89091" stroke-miterlimit="10" stroke-linecap="round" stroke-linejoin="round"/>
<path d="M165.547 309.155V320.456" stroke="#161310" stroke-width="3.89091" stroke-miterlimit="10" stroke-linecap="round" stroke-linejoin="round"/>
<path d="M176.667 309.155V320.456" stroke="#161310" stroke-width="3.89091" stroke-miterlimit="10" stroke-linecap="round" stroke-linejoin="round"/>
<path d="M152.105 377.939H188.121" stroke="#161310" stroke-width="3.89091" stroke-miterlimit="10" stroke-linecap="round" stroke-linejoin="round"/>
<path d="M257.082 267.956H346.707" stroke="#161310" stroke-width="3.89091" stroke-miterlimit="10" stroke-linecap="round" stroke-linejoin="round"/>
<path d="M283.058 268.934V308.443" stroke="#161310" stroke-width="3.89091" stroke-miterlimit="10" stroke-linecap="round" stroke-linejoin="round"/>
<path d="M335.587 268.844V308.353" stroke="#161310" stroke-width="3.89091" stroke-miterlimit="10" stroke-linecap="round" stroke-linejoin="round"/>
<path d="M84.8002 293.316H92.518V302.036H84.8002V293.316Z" stroke="#161310" stroke-width="3.89091" stroke-miterlimit="10" stroke-linecap="round" stroke-linejoin="round"/>
<path d="M154.427 288.154H162.145V302.658H154.427V288.154Z" stroke="#161310" stroke-width="2.80016" stroke-miterlimit="10" stroke-linecap="round" stroke-linejoin="round"/>
<path d="M234.177 286.999H262.061V309.245H234.177V286.999Z" stroke="#161310" stroke-width="3.89091" stroke-miterlimit="10" stroke-linecap="round" stroke-linejoin="round"/>
<path d="M241.397 293.316V301.057" stroke="#161310" stroke-width="2.79775" stroke-miterlimit="10" stroke-linecap="round" stroke-linejoin="round"/>
<path d="M248.035 293.316V301.057" stroke="#161310" stroke-width="2.79775" stroke-miterlimit="10" stroke-linecap="round" stroke-linejoin="round"/>
<path d="M254.26 293.316V301.057" stroke="#161310" stroke-width="2.79775" stroke-miterlimit="10" stroke-linecap="round" stroke-linejoin="round"/>
<path d="M314.342 108.495L309.363 176.657" stroke="#161310" stroke-width="3.89091" stroke-miterlimit="10" stroke-linecap="round" stroke-linejoin="round"/>
<path d="M320.401 108.408L325.878 176.659" stroke="#161310" stroke-width="3.89091" stroke-miterlimit="10" stroke-linecap="round" stroke-linejoin="round"/>
<path d="M308.366 140.44H326.872" stroke="#161310" stroke-width="3.89091" stroke-miterlimit="10" stroke-linecap="round" stroke-linejoin="round"/>
<path d="M309.031 94.7037H326.209" stroke="#161310" stroke-width="3.89091" stroke-miterlimit="10" stroke-linecap="round" stroke-linejoin="round"/>
<path d="M309.031 81.6219H326.209" stroke="#161310" stroke-width="3.89091" stroke-miterlimit="10" stroke-linecap="round" stroke-linejoin="round"/>
<path d="M312.02 108.585H323.307" stroke="#161310" stroke-width="3.89091" stroke-miterlimit="10" stroke-linecap="round" stroke-linejoin="round"/>
<path d="M312.186 94.7039L314.676 108.585" stroke="#161310" stroke-width="3.89091" stroke-miterlimit="10" stroke-linecap="round" stroke-linejoin="round"/>
<path d="M323.057 94.7037L320.733 108.407" stroke="#161310" stroke-width="3.89091" stroke-miterlimit="10" stroke-linecap="round" stroke-linejoin="round"/>
<path d="M314.012 83.3143V94.7042" stroke="#161310" stroke-width="3.89091" stroke-miterlimit="10" stroke-linecap="round" stroke-linejoin="round"/>
<path d="M321.314 83.3143V94.7042" stroke="#161310" stroke-width="3.89091" stroke-miterlimit="10" stroke-linecap="round" stroke-linejoin="round"/>
<path d="M315.92 61.0682V80.3778" stroke="#161310" stroke-width="3.89091" stroke-miterlimit="10" stroke-linecap="round" stroke-linejoin="round"/>
<path d="M319.322 61.0685V80.378" stroke="#161310" stroke-width="3.89091" stroke-miterlimit="10" stroke-linecap="round" stroke-linejoin="round"/>
<path d="M313.345 61.0682H321.893" stroke="#161310" stroke-width="3.89091" stroke-miterlimit="10" stroke-linecap="round" stroke-linejoin="round"/>
<path d="M317.663 33.6607V61.0678" stroke="#161310" stroke-width="3.89091" stroke-miterlimit="10" stroke-linecap="round" stroke-linejoin="round"/>
<path d="M272.849 176.48H384.051V199.883H272.849V176.48Z" stroke="#161310" stroke-width="3.64041" stroke-miterlimit="10" stroke-linecap="round" stroke-linejoin="round"/>
<path d="M352.932 199.794V245.265" stroke="#161310" stroke-width="3.89091" stroke-miterlimit="10" stroke-linecap="round" stroke-linejoin="round"/>
<path d="M215.589 195.345L234.095 187.603H272.85" stroke="#161310" stroke-width="3.89091" stroke-miterlimit="10" stroke-linecap="round" stroke-linejoin="round"/>
<path d="M282.972 185.289V198.458" stroke="#161310" stroke-width="3.89091" stroke-miterlimit="10" stroke-linecap="round" stroke-linejoin="round"/>
<path d="M297.247 185.289V198.458" stroke="#161310" stroke-width="3.89091" stroke-miterlimit="10" stroke-linecap="round" stroke-linejoin="round"/>
<path d="M311.52 185.289V198.458" stroke="#161310" stroke-width="3.89091" stroke-miterlimit="10" stroke-linecap="round" stroke-linejoin="round"/>
<path d="M325.794 185.289V198.458" stroke="#161310" stroke-width="3.89091" stroke-miterlimit="10" stroke-linecap="round" stroke-linejoin="round"/>
<path d="M340.067 185.289V198.458" stroke="#161310" stroke-width="3.89091" stroke-miterlimit="10" stroke-linecap="round" stroke-linejoin="round"/>
<path d="M354.425 185.289V198.458" stroke="#161310" stroke-width="3.89091" stroke-miterlimit="10" stroke-linecap="round" stroke-linejoin="round"/>
<path d="M368.698 185.289V198.458" stroke="#161310" stroke-width="3.89091" stroke-miterlimit="10" stroke-linecap="round" stroke-linejoin="round"/>
<path d="M21.3996 229.781H-27.9774" stroke="#161310" stroke-width="3.67939" stroke-miterlimit="10" stroke-linecap="round" stroke-linejoin="round"/>
<path d="M10.1973 238.768V243.93" stroke="#161310" stroke-width="2.9182" stroke-miterlimit="10" stroke-linecap="round" stroke-linejoin="round"/>
<path d="M-0.589691 238.947V244.019" stroke="#161310" stroke-width="2.9182" stroke-miterlimit="10" stroke-linecap="round" stroke-linejoin="round"/>
<path d="M219.375 397.339C219.896 397.339 220.416 397.339 220.85 397.428C227.267 398.051 232.731 401.878 239.322 401.878C246.347 401.878 252.244 397.339 259.269 397.339C266.293 397.25 272.451 401.878 279.562 401.878C286.327 401.878 293.005 397.339 299.683 397.339C306.534 397.339 313.125 401.878 319.803 401.878C326.134 401.878 331.337 398.318 337.495 397.517C339.749 397.25 341.918 397.339 344.086 397.784C348.856 398.763 353.192 401.433 358.569 401.878C366.721 402.589 372.878 397.339 380.684 397.428C389.443 397.517 395.253 403.835 405.66 401.344C410.777 400.098 414.766 397.517 420.664 397.428C427.688 397.428 433.846 401.878 440.61 401.967C447.635 402.056 454.139 397.25 461.338 397.428C469.143 397.517 474.953 402.678 483.106 401.878C489.523 401.255 494.466 397.339 501.665 397.428C508.429 397.517 515.02 401.967 521.611 401.967C528.463 401.967 534.62 397.428 541.558 397.428C548.409 397.339 554.654 401.967 561.678 401.967C569.57 402.056 573.646 397.428 581.972 397.428" stroke="#161310" stroke-width="2.79741" stroke-miterlimit="10" stroke-linecap="round" stroke-linejoin="round"/>
<path d="M204.199 410.687C209.229 409.353 213.912 406.772 219.375 406.861C226.487 406.95 232.297 411.399 239.322 411.399C246.347 411.399 252.244 406.861 259.269 406.861C266.294 406.772 272.451 411.399 279.562 411.399C286.327 411.399 293.005 406.861 299.683 406.861C306.534 406.861 313.125 411.399 319.803 411.399C326.134 411.399 331.337 407.84 337.495 407.039C339.749 406.772 341.918 406.861 344.086 407.306C348.856 408.285 353.192 410.954 358.569 411.399C366.721 412.111 372.878 406.861 380.684 406.95C389.443 407.039 395.253 413.357 405.66 410.865C410.777 409.62 414.766 407.039 420.664 406.95C427.688 406.95 433.846 411.399 440.61 411.488C447.635 411.577 454.139 406.772 461.338 406.95C469.143 407.039 474.953 412.2 483.106 411.399C489.523 410.776 494.467 406.861 501.665 406.95C508.429 407.039 515.02 411.488 521.611 411.488C528.463 411.488 534.62 406.95 541.558 406.95C548.409 406.861 554.654 411.488 561.678 411.488C569.57 411.577 573.646 406.95 581.972 406.95" stroke="#161310" stroke-width="2.79741" stroke-miterlimit="10" stroke-linecap="round" stroke-linejoin="round"/>
<path d="M186.074 417.183C190.323 418.517 194.399 420.386 198.996 420.386C206.107 420.386 212.091 415.759 219.29 415.848C226.401 415.937 232.211 420.386 239.236 420.386C246.261 420.386 252.158 415.848 259.183 415.848C266.208 415.759 272.365 420.386 279.477 420.386C286.241 420.386 292.919 415.848 299.597 415.848C306.448 415.848 313.039 420.386 319.717 420.386C326.048 420.386 331.251 416.827 337.409 416.026C339.664 415.759 341.832 415.848 344 416.293C348.77 417.272 353.106 419.941 358.483 420.386C366.635 421.098 372.792 415.848 380.598 415.937C389.357 416.026 395.167 422.344 405.574 419.852C410.691 418.606 414.68 416.026 420.578 415.937C427.602 415.937 433.76 420.386 440.524 420.475C447.549 420.564 454.054 415.759 461.252 415.937C469.057 416.026 474.867 421.187 483.02 420.386C489.437 419.763 494.381 415.848 501.579 415.937C508.343 416.026 514.934 420.475 521.525 420.475C528.377 420.475 534.534 415.937 541.472 415.937C548.323 415.848 554.568 420.475 561.592 420.475C569.484 420.564 573.56 415.937 581.886 415.937" stroke="#161310" stroke-width="2.79741" stroke-miterlimit="10" stroke-linecap="round" stroke-linejoin="round"/>
<path d="M427.072 39.604H454.037V24.5688H427.072L432.693 32.0995L427.072 39.604Z" stroke="#161310" stroke-width="4" stroke-miterlimit="10" stroke-linecap="round" stroke-linejoin="round"/>
<path d="M509.885 119.535H453.303" stroke="#161310" stroke-width="4" stroke-miterlimit="10" stroke-linecap="round" stroke-linejoin="round"/>
<path d="M397.815 119.535H453.303" stroke="#161310" stroke-width="4" stroke-miterlimit="10" stroke-linecap="round" stroke-linejoin="round"/>
<path d="M491.405 119.536V100.305H416.975L417.412 118.128" stroke="#161310" stroke-width="4" stroke-miterlimit="10" stroke-linecap="round" stroke-linejoin="round"/>
<path d="M484.509 99.5496L454.154 50.0142L423.799 99.5496" stroke="#161310" stroke-width="4" stroke-miterlimit="10" stroke-linecap="round" stroke-linejoin="round"/>
<path d="M496.286 119.691V140.146H487.884V119.691" stroke="#161310" stroke-width="4" stroke-miterlimit="10" stroke-linecap="round" stroke-linejoin="round"/>
<path d="M472.003 119.692V140.147H463.601V119.692" stroke="#161310" stroke-width="4" stroke-miterlimit="10" stroke-linecap="round" stroke-linejoin="round"/>
<path d="M447.719 119.692V140.147H439.316V119.692" stroke="#161310" stroke-width="4" stroke-miterlimit="10" stroke-linecap="round" stroke-linejoin="round"/>
<path d="M423.435 119.692V140.147H415.033V119.692" stroke="#161310" stroke-width="4" stroke-miterlimit="10" stroke-linecap="round" stroke-linejoin="round"/>
<path d="M401.237 233.721V165.242L396.623 119.146V118.807" stroke="#161310" stroke-width="4" stroke-miterlimit="10" stroke-linecap="round" stroke-linejoin="round"/>
<path d="M396.624 118.884V122.089" stroke="#161310" stroke-width="4" stroke-miterlimit="10" stroke-linecap="round" stroke-linejoin="round"/>
<path d="M506.364 166.44H401.239" stroke="#161310" stroke-width="4" stroke-miterlimit="10" stroke-linecap="round" stroke-linejoin="round"/>
<path d="M454.153 11.9236L454.153 52.0477" stroke="#161310" stroke-width="4" stroke-miterlimit="10" stroke-linecap="round" stroke-linejoin="round"/>
<path d="M396.624 119.692H396.576" stroke="#161310" stroke-width="4" stroke-miterlimit="10" stroke-linecap="round" stroke-linejoin="round"/>
<path d="M506.339 166.126H501.336" stroke="#161310" stroke-width="4" stroke-miterlimit="10" stroke-linecap="round" stroke-linejoin="round"/>
<path d="M410.078 166.44H401.191" stroke="#161310" stroke-width="4" stroke-miterlimit="10" stroke-linecap="round" stroke-linejoin="round"/>
</g>
</g>
</svg>
