<svg width="25" height="26" viewBox="0 0 25 26" fill="none" xmlns="http://www.w3.org/2000/svg">
<path fill-rule="evenodd" clip-rule="evenodd" d="M24.7587 12.9275V12.7909V12.6548C19.285 12.4891 16.782 12.3526 14.7856 10.4027C12.8363 8.40675 12.6992 5.90379 12.534 0.429932H12.3974H12.2608C12.0956 5.90379 11.9585 8.40675 10.0091 10.4027C8.01276 12.3526 5.50969 12.4891 0.0361023 12.6548V12.7909V12.9275C5.50969 13.0931 8.01276 13.2297 10.0091 15.1791C11.9585 17.1755 12.0956 19.6785 12.2608 25.1523H12.3974H12.534C12.6992 19.6785 12.8363 17.1755 14.7856 15.1791C16.782 13.2297 19.285 13.0931 24.7587 12.9275Z" fill="white"/>
</svg>
