<svg width="23" height="23" viewBox="0 0 23 23" fill="none" xmlns="http://www.w3.org/2000/svg">
<g clip-path="url(#clip0)">
<path d="M21.3529 4.98533C20.5588 4.04132 19.0926 3.65625 16.2925 3.65625H6.12817C3.26398 3.65625 1.77295 4.06616 0.981798 5.07121C0.210449 6.05113 0.210449 7.49497 0.210449 9.49328V13.302C0.210449 17.1734 1.12565 19.139 6.12817 19.139H16.2926C18.7208 19.139 20.0664 18.7992 20.9369 17.9661C21.8296 17.1118 22.2104 15.7169 22.2104 13.302V9.49328C22.2104 7.38589 22.1508 5.93353 21.3529 4.98533ZM14.3345 11.9235L9.71892 14.3358C9.61573 14.3897 9.50289 14.4165 9.3902 14.4165C9.2626 14.4165 9.13528 14.3821 9.02251 14.3138C8.81018 14.1852 8.68052 13.955 8.68052 13.7068V8.89772C8.68052 8.6499 8.80982 8.41996 9.02173 8.29123C9.23371 8.16249 9.49736 8.15369 9.71729 8.26795L14.3329 10.6647C14.5677 10.7866 14.7152 11.029 14.7155 11.2935C14.7158 11.5582 14.569 11.801 14.3345 11.9235Z" fill="white"/>
</g>
<defs>
<clipPath id="clip0">
<rect width="22" height="22" fill="white" transform="translate(0.210449 0.397461)"/>
</clipPath>
</defs>
</svg>
