<svg width="173" height="233" viewBox="0 0 173 233" fill="none" xmlns="http://www.w3.org/2000/svg">
<path d="M172.332 70.4593C137.8 70.4593 119.807 59.8319 103.934 50.4533C89.6633 42.0248 78.3944 35.3692 53.5252 35.3692C28.6561 35.3692 17.3871 42.0248 3.11598 50.4533C-12.7566 59.8319 -30.7448 70.4593 -65.2815 70.4593C-99.7986 70.4593 -117.777 59.8319 -133.64 50.4533C-147.896 42.0248 -159.155 35.3692 -184 35.3692V0C-149.483 0 -131.504 10.6274 -115.642 20.006C-101.385 28.4345 -90.1262 35.0901 -65.2815 35.0901C-40.4124 35.0901 -29.1434 28.4345 -14.8723 20.006C1.00031 10.6274 18.9886 0 53.5252 0C88.057 0 106.05 10.6274 121.923 20.006C136.194 28.4345 147.463 35.0901 172.332 35.0901V70.4593Z" fill="#C4C4C4" fill-opacity="0.13"/>
<path d="M172.332 151.732C137.8 151.732 119.807 141.105 103.934 131.726C89.6633 123.298 78.3944 116.642 53.5252 116.642C28.6561 116.642 17.3871 123.298 3.11598 131.726C-12.7566 141.105 -30.7448 151.732 -65.2815 151.732C-99.7986 151.732 -117.777 141.105 -133.64 131.726C-147.896 123.298 -159.155 116.642 -184 116.642V81.2729C-149.483 81.2729 -131.504 91.9004 -115.642 101.279C-101.385 109.707 -90.1262 116.363 -65.2815 116.363C-40.4124 116.363 -29.1434 109.707 -14.8723 101.279C1.00031 91.9004 18.9886 81.2729 53.5252 81.2729C88.057 81.2729 106.05 91.9004 121.923 101.279C136.194 109.707 147.463 116.363 172.332 116.363V151.732Z" fill="#C4C4C4" fill-opacity="0.13"/>
<path d="M172.332 233C137.8 233 119.807 222.373 103.934 212.994C89.6633 204.566 78.3944 197.91 53.5252 197.91C28.6561 197.91 17.3871 204.566 3.11598 212.994C-12.7566 222.373 -30.7448 233 -65.2815 233C-99.7986 233 -117.777 222.373 -133.64 212.994C-147.896 204.566 -159.155 197.91 -184 197.91V162.541C-149.483 162.541 -131.504 173.168 -115.642 182.547C-101.385 190.975 -90.1262 197.631 -65.2815 197.631C-40.4124 197.631 -29.1434 190.975 -14.8723 182.547C1.00031 173.168 18.9886 162.541 53.5252 162.541C88.057 162.541 106.05 173.168 121.923 182.547C136.194 190.975 147.463 197.631 172.332 197.631V233Z" fill="#C4C4C4" fill-opacity="0.13"/>
</svg>
