<svg width="1536" height="960" viewBox="0 0 1536 960" fill="none" xmlns="http://www.w3.org/2000/svg">
<g clip-path="url(#clip0)">
<path fill-rule="evenodd" clip-rule="evenodd" d="M-33.1373 1004.81L1361.58 1004.81L1009.53 1207.97L1054.26 1285.41L1406.31 1082.25L1203.05 1434.12L1280.52 1478.82L1483.79 1126.95L1483.79 1533.26L1573.25 1533.26L1573.25 1126.96L1776.5 1478.82L1853.98 1434.11L1650.73 1082.26L2002.77 1285.4L2047.5 1207.96L1695.45 1004.81L2101.97 1004.8L2101.97 915.386L1695.46 915.398L2047.51 712.251L2002.78 634.815L1650.71 837.972L1853.98 486.095L1776.5 441.388L1573.24 793.261L1573.25 -49.9971L1483.79 -49.9963L1483.78 796.345L1261 418.919L954.757 -99.9146L877.279 -55.2065L1183.52 463.627L1403.53 836.363L-77.8939 -18.4907L-122.626 58.9474L1361.56 915.394L-33.1328 915.397L-33.1373 1004.81Z" fill="#FF8500"/>
</g>
<defs>
<clipPath id="clip0">
<rect width="1536" height="960" fill="white"/>
</clipPath>
</defs>
</svg>
