<svg width="2880" height="1708" viewBox="0 0 2880 1708" fill="none" xmlns="http://www.w3.org/2000/svg">
<g clip-path="url(#clip0)">
<path fill-rule="evenodd" clip-rule="evenodd" d="M3400.39 2473.44L3059.59 1882.96L3649.87 2223.88L3724.87 2093.93L3134.57 1753.01L3816.19 1753L3816.19 1602.95L3134.6 1602.95L3724.88 1262.05L3649.88 1132.1L3059.59 1473.01L3400.39 882.52L3270.48 807.492L2929.69 1397.97L2929.69 0.00513677L2779.69 -0.000121806L2779.69 1401.89L2396.4 748.478L1873.17 -143.518L1743.27 -68.4951L2266.5 823.501L2646.33 1471.02L-56.2124 -89.8561L-131.211 40.0916L2574.78 1602.96L-32.1058 1602.94L-32.1056 1753L2574.79 1753.01L1984.51 2093.93L2059.52 2223.88L2649.77 1882.97L2308.98 2473.45L2438.89 2548.48L2779.68 1957.99L2779.7 2639.83L2929.7 2639.83L2929.69 1957.99L3270.49 2548.46L3400.39 2473.44Z" fill="#FF8500"/>
</g>
<defs>
<clipPath id="clip0">
<rect width="2880" height="1708" fill="white"/>
</clipPath>
</defs>
</svg>
