<svg width="750" height="1400" viewBox="0 0 750 1400" fill="none" xmlns="http://www.w3.org/2000/svg">
<g clip-path="url(#clip0)">
<path fill-rule="evenodd" clip-rule="evenodd" d="M724.467 1421.82L-191.079 894.172L-155.57 832.779L759.976 1360.43L724.467 1421.82Z" fill="#FF8500"/>
<path fill-rule="evenodd" clip-rule="evenodd" d="M742.217 1426.56L-71.4932 1426.57L-71.4854 1355.69L742.224 1355.67L742.217 1426.56Z" fill="#FF8500"/>
<path fill-rule="evenodd" clip-rule="evenodd" d="M711.475 1373.41L939.067 979.91L1000.56 1015.35L772.965 1408.85L711.475 1373.41Z" fill="#FF6A0F"/>
<path fill-rule="evenodd" clip-rule="evenodd" d="M707 1406L707.028 -91L778 -91L777.972 1405.99L707 1406Z" fill="#FF8500"/>
<path fill-rule="evenodd" clip-rule="evenodd" d="M711.462 1408.85L306.522 693.649L368.02 658.203L772.96 1373.4L711.462 1408.85Z" fill="#FF8500"/>
<path fill-rule="evenodd" clip-rule="evenodd" d="M306.522 693.649L-98.418 -21.5488L-36.9195 -56.9941L368.02 658.203L306.522 693.649Z" fill="#FF8500"/>
</g>
<defs>
<clipPath id="clip0">
<rect width="750" height="1400" fill="white"/>
</clipPath>
</defs>
</svg>
