<svg width="2048" height="960" viewBox="0 0 2048 960" fill="none" xmlns="http://www.w3.org/2000/svg">
<g clip-path="url(#clip0)">
<path fill-rule="evenodd" clip-rule="evenodd" d="M1488.65 1329.93L1908.62 1087.58L1666.15 1507.33L1758.57 1560.67L2001.05 1140.9L2001.05 1625.61L2107.77 1625.6L2107.77 1140.91L2350.24 1560.66L2442.66 1507.32L2200.2 1087.59L2620.16 1329.92L2673.52 1237.54L2253.55 995.201L2738.5 995.187L2738.5 888.52L2253.56 888.534L2673.53 646.192L2620.17 553.816L2200.18 796.17L2442.66 376.403L2350.24 323.071L2107.76 742.831L2107.78 -93.7631L2001.06 -93.7623L2001.04 742.82L1758.58 323.063L1416.56 -269.073L1324.13 -215.739L1666.16 376.397L1908.62 796.157L315.678 -123.045L262.315 -30.6663L1855.24 888.528L-221.159 888.531L-221.165 995.198L1855.27 995.195L1435.29 1237.55L1488.65 1329.93Z" fill="#FF8500"/>
</g>
<defs>
<clipPath id="clip0">
<rect width="2048" height="960" fill="white"/>
</clipPath>
</defs>
</svg>
