<svg width="2560" height="1200" viewBox="0 0 2560 1200" fill="none" xmlns="http://www.w3.org/2000/svg">
<g clip-path="url(#clip0)">
<path fill-rule="evenodd" clip-rule="evenodd" d="M3053.33 1884.15L2750.24 1359.47L3275.21 1662.4L3341.9 1546.93L2816.92 1243.99L3423.12 1243.99L3423.12 1110.66L2816.95 1110.66L3341.91 807.749L3275.21 692.278L2750.24 995.196L3053.33 470.505L2937.79 403.837L2634.71 928.517L2634.71 -41.8734L2501.31 -41.8778L2501.31 928.529L2198.22 403.829L1770.66 -336.344L1655.13 -269.68L2082.69 470.492L2385.79 995.206L155.986 -291.504L89.2869 -176.037L2319.08 1110.67L0.000120265 1110.65L0.00111668 1243.98L2319.08 1244L1794.12 1546.93L1860.82 1662.4L2385.76 1359.48L2082.68 1884.16L2198.22 1950.83L2501.3 1426.14L2501.32 2032L2634.72 2032L2634.71 1426.13L2937.81 1950.82L3053.33 1884.15Z" fill="#FF8500"/>
</g>
<defs>
<clipPath id="clip0">
<rect width="2560" height="1200" fill="white"/>
</clipPath>
</defs>
</svg>
