<svg width="501" height="249" viewBox="0 0 501 249" fill="none" xmlns="http://www.w3.org/2000/svg">
<path d="M296.942 105.947L296.868 119.289L327.804 119.459L327.877 106.117L296.942 105.947Z" fill="#F4A100" fill-opacity="0.59"/>
<path d="M187.559 105.359L187.487 118.701L218.422 118.868L218.494 105.526L187.559 105.359Z" fill="#F4A100" fill-opacity="0.59"/>
<path d="M296.783 134.475L296.711 147.817L327.646 147.984L327.718 134.642L296.783 134.475Z" fill="#F4A100" fill-opacity="0.59"/>
<path d="M187.4 133.88L187.327 147.222L218.257 147.392L218.33 134.049L187.4 133.88Z" fill="#F4A100" fill-opacity="0.59"/>
<path d="M297.094 77.4274L297.022 90.7695L327.957 90.9363L328.029 77.5942L297.094 77.4274Z" fill="#F4A100" fill-opacity="0.59"/>
<path d="M320.149 44.0909L292.196 57.7021L298.039 69.7026L325.993 56.0913L320.149 44.0909Z" fill="#F4A100" fill-opacity="0.59"/>
<path d="M306.514 18.6025L282.698 40.7909L291.793 50.5533L315.609 28.3649L306.514 18.6025Z" fill="#F4A100" fill-opacity="0.59"/>
<path d="M279.428 4.31493L267.984 33.7736L280.42 38.6048L291.864 9.14614L279.428 4.31493Z" fill="#F4A100" fill-opacity="0.59"/>
<path d="M264.999 0.278784L251.656 0.387329L251.93 34.02L265.272 33.9114L264.999 0.278784Z" fill="#F4A100" fill-opacity="0.59"/>
<path d="M262.621 213.386L249.285 213.777L250.306 248.635L263.643 248.244L262.621 213.386Z" fill="#F4A100" fill-opacity="0.59"/>
<path d="M187.713 76.8297L187.64 90.1719L218.576 90.3413L218.649 76.9991L187.713 76.8297Z" fill="#F4A100" fill-opacity="0.59"/>
<path d="M196.033 43.4548L189.859 55.2826L217.788 69.8598L223.962 58.032L196.033 43.4548Z" fill="#F4A100" fill-opacity="0.59"/>
<path d="M209.582 18.0067L200.285 27.577L225.47 52.0425L234.767 42.4722L209.582 18.0067Z" fill="#F4A100" fill-opacity="0.59"/>
<path d="M235.379 3.80233L223.135 9.11316L236.549 40.041L248.794 34.7302L235.379 3.80233Z" fill="#F4A100" fill-opacity="0.59"/>
<path d="M277.916 208.993L265.402 213.622L277.049 245.101L289.562 240.471L277.916 208.993Z" fill="#F4A100" fill-opacity="0.59"/>
<path d="M289.512 197.481L279.774 206.6L301.768 230.088L311.507 220.968L289.512 197.481Z" fill="#F4A100" fill-opacity="0.59"/>
<path d="M296.225 181.348L290.582 193.438L318.938 206.675L324.582 194.586L296.225 181.348Z" fill="#F4A100" fill-opacity="0.59"/>
<path d="M296.634 162.994L296.561 176.336L327.497 176.506L327.57 163.164L296.634 162.994Z" fill="#F4A100" fill-opacity="0.59"/>
<path d="M235.608 207.941L224.324 240.296L236.922 244.689L248.206 212.334L235.608 207.941Z" fill="#F4A100" fill-opacity="0.59"/>
<path d="M224.789 196.568L202.575 220.489L212.352 229.568L234.566 205.647L224.789 196.568Z" fill="#F4A100" fill-opacity="0.59"/>
<path d="M217.271 180.989L189.808 193.927L195.494 205.998L222.957 193.06L217.271 180.989Z" fill="#F4A100" fill-opacity="0.59"/>
<path d="M187.242 162.404L187.17 175.747L218.105 175.913L218.177 162.571L187.242 162.404Z" fill="#F4A100" fill-opacity="0.59"/>
<path d="M500.988 105.559H470.058V118.901H500.988V105.559Z" fill="#F4A100" fill-opacity="0.59"/>
<path d="M391.607 105.559H360.677V118.901H391.607V105.559Z" fill="#F4A100" fill-opacity="0.59"/>
<path d="M500.988 134.081H470.058V147.423H500.988V134.081Z" fill="#F4A100" fill-opacity="0.59"/>
<path d="M391.607 134.081H360.677V147.423H391.607V134.081Z" fill="#F4A100" fill-opacity="0.59"/>
<path d="M500.988 77.0356H470.058V90.3778H500.988V77.0356Z" fill="#F4A100" fill-opacity="0.59"/>
<path d="M492.955 43.5799L465.073 57.3373L470.977 69.3025L498.859 55.5452L492.955 43.5799Z" fill="#F4A100" fill-opacity="0.59"/>
<path d="M479.159 18.1678L455.457 40.4833L464.603 50.1977L488.305 27.8822L479.159 18.1678Z" fill="#F4A100" fill-opacity="0.59"/>
<path d="M452.086 4.02796L440.8 33.5498L453.263 38.3143L464.549 8.79246L452.086 4.02796Z" fill="#F4A100" fill-opacity="0.59"/>
<path d="M437.545 -5.65728e-05L424.204 0.181396L424.661 33.8156L438.002 33.6342L437.545 -5.65728e-05Z" fill="#F4A100" fill-opacity="0.59"/>
<path d="M436.362 213.114L423.028 213.579L424.241 248.429L437.575 247.965L436.362 213.114Z" fill="#F4A100" fill-opacity="0.59"/>
<path d="M391.607 77.0356H360.677V90.3778H391.607V77.0356Z" fill="#F4A100" fill-opacity="0.59"/>
<path d="M368.842 43.5906L362.732 55.4518L390.74 69.8778L396.849 58.0166L368.842 43.5906Z" fill="#F4A100" fill-opacity="0.59"/>
<path d="M382.255 18.0484L373.01 27.6694L398.329 51.998L407.574 42.3769L382.255 18.0484Z" fill="#F4A100" fill-opacity="0.59"/>
<path d="M407.992 3.67695L395.781 9.05383L409.367 39.9075L421.578 34.5307L407.992 3.67695Z" fill="#F4A100" fill-opacity="0.59"/>
<path d="M451.602 208.728L439.114 213.426L450.932 244.84L463.42 240.143L451.602 208.728Z" fill="#F4A100" fill-opacity="0.59"/>
<path d="M463.194 197.177L453.505 206.35L475.632 229.722L485.321 220.549L463.194 197.177Z" fill="#F4A100" fill-opacity="0.59"/>
<path d="M469.789 180.97L464.211 193.09L492.639 206.174L498.217 194.054L469.789 180.97Z" fill="#F4A100" fill-opacity="0.59"/>
<path d="M500.988 162.608H470.058V175.951H500.988V162.608Z" fill="#F4A100" fill-opacity="0.59"/>
<path d="M409.338 207.889L398.229 240.305L410.85 244.631L421.96 212.214L409.338 207.889Z" fill="#F4A100" fill-opacity="0.59"/>
<path d="M398.42 196.501L376.334 220.539L386.159 229.567L408.246 205.528L398.42 196.501Z" fill="#F4A100" fill-opacity="0.59"/>
<path d="M390.774 181.046L363.384 194.136L369.137 206.174L396.527 193.085L390.774 181.046Z" fill="#F4A100" fill-opacity="0.59"/>
<path d="M391.607 162.608H360.677V175.951H391.607V162.608Z" fill="#F4A100" fill-opacity="0.59"/>
<path d="M121.385 90.4416L116.383 102.811L149.227 116.092L154.229 103.723L121.385 90.4416Z" fill="#F4A100" fill-opacity="0.59"/>
<path d="M158.12 72.0075L124.141 72.4867L124.329 85.8275L158.308 85.3483L158.12 72.0075Z" fill="#F4A100" fill-opacity="0.59"/>
<path d="M149.469 43.3979L118.122 57.3827L123.558 69.5668L154.905 55.582L149.469 43.3979Z" fill="#F4A100" fill-opacity="0.59"/>
<path d="M130.061 18.6347L106.068 43.5193L115.673 52.7801L139.666 27.8955L130.061 18.6347Z" fill="#F4A100" fill-opacity="0.59"/>
<path d="M103.77 3.72129L90.2711 34.7982L102.508 40.1137L116.007 9.03679L103.77 3.72129Z" fill="#F4A100" fill-opacity="0.59"/>
<path d="M85.7247 0.125244H72.3826V34.3722H85.7247V0.125244Z" fill="#F4A100" fill-opacity="0.59"/>
<path d="M22.097 117.899L22.0268 131.242L55.2048 131.416L55.275 118.074L22.097 117.899Z" fill="#F4A100" fill-opacity="0.59"/>
<path d="M101.395 117.898L101.325 131.24L134.503 131.415L134.573 118.073L101.395 117.898Z" fill="#F4A100" fill-opacity="0.59"/>
<path d="M35.7829 90.4978L3.77057 103.775L8.88196 116.099L40.8943 102.822L35.7829 90.4978Z" fill="#F4A100" fill-opacity="0.59"/>
<path d="M0.156461 72.3986L0.0748291 85.7407L35.0012 85.9544L35.0829 72.6122L0.156461 72.3986Z" fill="#F4A100" fill-opacity="0.59"/>
<path d="M8.3176 43.3262L3.43387 55.7484L36.177 68.6212L41.0607 56.199L8.3176 43.3262Z" fill="#F4A100" fill-opacity="0.59"/>
<path d="M27.9321 18.5764L18.4649 27.9849L43.1902 52.8645L52.6573 43.456L27.9321 18.5764Z" fill="#F4A100" fill-opacity="0.59"/>
<path d="M54.2256 3.69736L42.0669 9.19165L56.5133 41.1612L68.672 35.6669L54.2256 3.69736Z" fill="#F4A100" fill-opacity="0.59"/>
<path d="M102.395 207.705L89.9383 212.487L102.383 244.903L114.839 240.121L102.395 207.705Z" fill="#F4A100" fill-opacity="0.59"/>
<path d="M114.569 196.554L105.363 206.219L130.248 229.922L139.454 220.257L114.569 196.554Z" fill="#F4A100" fill-opacity="0.59"/>
<path d="M122.505 180.739L117.382 193.058L149.108 206.253L154.231 193.934L122.505 180.739Z" fill="#F4A100" fill-opacity="0.59"/>
<path d="M122.199 162.107L122.154 175.449L157.685 175.569L157.73 162.227L122.199 162.107Z" fill="#F4A100" fill-opacity="0.59"/>
<path d="M149.58 133.568L116.899 147.637L122.175 159.892L154.856 145.823L149.58 133.568Z" fill="#F4A100" fill-opacity="0.59"/>
<path d="M56.6784 208.533L43.2877 239.836L55.5544 245.084L68.9452 213.781L56.6784 208.533Z" fill="#F4A100" fill-opacity="0.59"/>
<path d="M42.6035 196.437L18.5457 220.362L27.9546 229.823L52.0124 205.898L42.6035 196.437Z" fill="#F4A100" fill-opacity="0.59"/>
<path d="M34.3179 180.34L3.64258 193.98L9.06349 206.171L39.7388 192.53L34.3179 180.34Z" fill="#F4A100" fill-opacity="0.59"/>
<path d="M0.201466 162.579L0 175.92L34.2586 176.438L34.46 163.097L0.201466 162.579Z" fill="#F4A100" fill-opacity="0.59"/>
<path d="M8.22023 133.47L3.52246 145.958L35.5964 158.023L40.2941 145.535L8.22023 133.47Z" fill="#F4A100" fill-opacity="0.59"/>
<path d="M85.6659 213.599H72.3238V248.336H85.6659V213.599Z" fill="#F4A100" fill-opacity="0.59"/>
</svg>
