<svg width="767" height="221" viewBox="0 0 767 221" fill="none" xmlns="http://www.w3.org/2000/svg">
<path d="M280.698 80.8344C274.747 86.6276 264.784 92.548 251.199 92.548C223.511 92.548 205.012 73.1127 205.012 46.3376C205.012 19.6946 223.772 0 250.941 0C262.584 0 272.676 3.73236 279.792 10.2964L272.289 19.5649C267.113 15.0592 259.61 11.7135 250.941 11.7135C230.887 11.7135 218.338 26.2587 218.338 46.3376C218.338 66.4165 231.922 80.8344 251.33 80.8344C261.551 80.8344 268.666 76.199 273.325 72.0824L280.698 80.8344Z" fill="white"/>
<path d="M315.626 13.5148V90.8738H302.947V13.5148H284.575V1.80127H333.997V13.5148H315.626Z" fill="white"/>
<path d="M440.078 91.5175H438.137V79.804H440.206C448.744 79.804 451.074 71.1792 451.721 59.4681L454.437 1.80371H506.836V90.8738H494.157V13.6445H465.953L463.884 60.3688C462.978 80.061 456.897 91.5175 440.078 91.5175Z" fill="white"/>
<path d="M533.484 70.538L577.605 1.80127H590.284V90.8738H577.605V22.1396L533.484 90.8738H520.805V1.80127H533.484V70.538Z" fill="white"/>
<path d="M658.46 1.80127H671.139V79.0306H681.102V108.894H669.198V90.8738H604.25V1.80127H616.929V79.0306H658.46V1.80127Z" fill="white"/>
<path d="M742.161 61.5264H708.522L697.395 90.8738H684.844L718.485 1.80127H731.811L767.002 90.8738H753.676L742.161 61.5264ZM712.532 50.7136H737.89L725.083 17.8908L712.532 50.7136Z" fill="white"/>
<path d="M0.00735794 195.255H12.0395C12.4282 203.236 17.2155 210.057 27.6953 210.057C37.7865 210.057 42.5738 202.85 42.5738 194.354C42.5738 185.086 37.3978 179.295 25.6264 179.295H18.3791V168.225H26.0127C35.5872 168.225 40.5024 162.819 40.5024 154.067C40.5024 145.442 35.7151 140.038 27.0483 140.038C16.9572 140.038 12.6865 146.732 12.5586 154.97H0.523971C0.137741 142.74 6.47731 129.225 27.0483 129.225C44.2565 129.225 53.5703 138.878 53.5703 153.423C53.5703 162.692 48.5247 169.643 42.3155 172.731C50.3377 175.95 55.7695 183.157 55.7695 194.357C55.7695 210.446 44.5123 221.002 27.6953 221.002C6.60524 221 -0.250948 207.612 0.00735794 195.255Z" fill="white"/>
<path d="M114.634 190.235H80.995L69.8682 219.583H57.3194L90.9583 130.51H104.284L139.476 219.583H126.149L114.634 190.235ZM85.0049 179.425H110.363L97.5537 146.602L85.0049 179.425Z" fill="white"/>
<path d="M158.876 168.999L191.351 130.513H206.49L170.002 172.988L207.654 219.583H192.517L158.876 178.909V219.583H146.196V130.51H158.876V168.999Z" fill="white"/>
<path d="M266.774 190.235H233.135L222.008 219.583H209.459L243.098 130.51H256.424L291.616 219.583H278.289L266.774 190.235ZM237.145 179.425H262.503L249.694 146.602L237.145 179.425Z" fill="white"/>
<path d="M315.545 142.224V219.583H302.866V142.224H284.494V130.51H333.916V142.224H315.545Z" fill="white"/>
<path d="M473.377 219.583H448.796V130.51H471.824C488.516 130.51 497.83 138.619 497.83 153.937C497.83 162.432 493.948 169.253 487.608 172.602C495.5 175.95 500.287 182.898 500.287 193.841C500.287 210.057 489.161 219.583 473.377 219.583ZM461.345 141.58V168.353H471.178C479.975 168.353 484.762 163.333 484.762 154.838C484.762 146.343 480.233 141.58 471.178 141.58H461.345ZM461.345 179.038V208.515H471.955C481.916 208.515 487.092 202.465 487.092 193.456C487.092 184.704 482.046 179.041 471.955 179.041H461.345V179.038Z" fill="white"/>
<path d="M431.773 216.68V50.2193C431.871 48.9001 431.933 47.5662 431.933 46.2103C431.933 19.6946 413.044 0 385.873 0C359.479 0 340.202 19.5649 340.202 46.3376V216.805C340.153 217.742 340.121 218.69 340.121 219.647L353.447 219.627C353.454 199.558 366.392 185.02 385.92 185.02C405.29 185.02 418.471 199.511 418.52 219.534H418.523V219.58H431.768V219.517H431.849C431.854 218.562 431.822 217.618 431.773 216.68ZM386.003 11.7135C405.411 11.7135 418.606 26.2587 418.606 46.3376H418.525V48.905C417.465 67.6329 404.818 80.832 386.003 80.832C366.854 80.832 353.528 66.5438 353.528 46.3352C353.528 26.2587 366.468 11.7135 386.003 11.7135ZM353.449 186.065V79.9999C357.107 83.5952 361.435 86.5101 366.31 88.6247V177.315C361.459 179.467 357.127 182.426 353.449 186.065ZM385.794 173.309C383.666 173.309 381.587 173.448 379.558 173.698V92.1563C381.649 92.4084 383.797 92.5479 386.006 92.5479C388.202 92.5479 390.338 92.4035 392.422 92.1466V173.725C390.271 173.458 388.062 173.309 385.794 173.309ZM405.664 177.328V88.5464C410.532 86.3999 414.86 83.4508 418.525 79.8408V186.004C414.865 182.404 410.54 179.467 405.664 177.328Z" fill="white"/>
<path d="M12.748 4.28053C18.3865 4.47633 22.2857 7.4769 22.2857 12.3008C22.2857 17.1908 18.2217 20.2232 12.748 20.3554V25.6688H9.53519V20.3554C3.86721 20.1914 0 17.1933 0 12.3669C0 7.4769 4.03204 4.44451 9.53765 4.28053V1.80371H12.7505L12.748 4.28053ZM9.53765 17.4209V7.24929C5.83526 7.37901 3.34322 9.20481 3.34322 12.3351C3.34322 15.4972 5.89922 17.323 9.53765 17.4209ZM12.748 7.24684V17.4185C16.4184 17.2912 18.9425 15.4629 18.9425 12.3326C18.9425 9.17054 16.3545 7.34474 12.748 7.24684Z" fill="white"/>
<path d="M24.645 25.0179V2.45483H34.5098V5.42115H27.8578V11.9412H34.3474V14.8757H27.8578V22.0491H34.6107V25.0154L24.645 25.0179Z" fill="white"/>
<path d="M55.7769 22.4749C54.2689 23.9434 51.7449 25.4412 48.3057 25.4412C41.2921 25.4412 36.6057 20.5194 36.6057 13.735C36.6057 6.98498 41.3585 1.99707 48.2393 1.99707C51.1889 1.99707 53.7449 2.94179 55.5481 4.60605L53.6465 6.95316C52.3353 5.81265 50.4337 4.96338 48.2393 4.96338C43.1593 4.96338 39.9809 8.6468 39.9809 13.735C39.9809 18.8209 43.4225 22.4725 48.3377 22.4725C50.9282 22.4725 52.7289 21.2977 53.9097 20.2551L55.7769 22.4749Z" fill="white"/>
<path d="M64.6233 5.42115V25.0179H61.4104V5.42115H56.756V2.45483H69.2753V5.42115H64.6233Z" fill="white"/>
<path d="M74.8154 19.866L85.9914 2.45483H89.2043V25.0179H85.9914V7.60672L74.8154 25.0179H71.6025V2.45483H74.8154V19.866Z" fill="white"/>
<path d="M98.9658 25.0179H92.7394V2.45483H98.5746C102.801 2.45483 105.16 4.50825 105.16 8.3899C105.16 10.5412 104.176 12.2691 102.572 13.1184C104.57 13.9652 105.783 15.7249 105.783 18.4954C105.783 22.6047 102.963 25.0179 98.9658 25.0179ZM95.9178 5.25961V12.0415H98.4074C100.636 12.0415 101.849 10.7713 101.849 8.61752C101.849 6.46376 100.703 5.25961 98.4074 5.25961H95.9178ZM95.9178 14.7459V22.2131H98.6042C101.128 22.2131 102.439 20.681 102.439 18.3975C102.439 16.1801 101.16 14.7459 98.6042 14.7459H95.9178Z" fill="white"/>
<path d="M120.759 17.5825H112.238L109.419 25.0155H106.24L114.759 2.45239H118.135L127.05 25.0155H123.675L120.759 17.5825ZM113.251 14.8438H119.675L116.43 6.52985L113.251 14.8438Z" fill="white"/>
<path d="M128.164 25.1794H127.672V22.2131H128.196C130.359 22.2131 130.949 20.0275 131.114 17.0612L131.803 2.45483H145.075V25.0179H141.862V5.45541H134.718L134.194 17.2913C133.965 22.2792 132.425 25.1794 128.164 25.1794Z" fill="white"/>
<path d="M148.612 2.45483H151.825V11.388H154.152C158.413 11.388 161.134 13.8649 161.134 18.236C161.134 22.639 158.448 25.0179 154.152 25.0179H148.615L148.612 2.45483ZM151.823 14.1928V22.2131H153.985C156.509 22.2131 157.786 20.7128 157.786 18.236C157.786 15.7592 156.477 14.1928 153.985 14.1928H151.823Z" fill="white"/>
<path d="M14.78 57.6202H11.6656L4.15994 39.2643V57.6202H1.14636V35.0571H5.8008L13.3064 53.7728L20.8121 35.0571H25.3681V57.6202H22.2217V39.2643L14.78 57.6202Z" fill="white"/>
<path d="M35.2625 51.6193L26.9377 35.0549H30.5097L36.9993 47.9652L43.0634 35.0549H46.4706L35.6561 57.618H32.4433L35.2625 51.6193Z" fill="white"/>
<path d="M47.1569 51.4576H50.2049C50.3033 53.4792 51.5161 55.2071 54.1705 55.2071C56.7265 55.2071 57.9394 53.3813 57.9394 51.23C57.9394 48.8829 56.6281 47.4144 53.6466 47.4144H51.8113V44.6096H53.745C56.1706 44.6096 57.4154 43.239 57.4154 41.0241C57.4154 38.8385 56.2026 37.4704 54.0082 37.4704C51.4522 37.4704 50.3698 39.1665 50.3378 41.2517H47.2898C47.1914 38.1557 48.7978 34.7317 54.0082 34.7317C58.3649 34.7317 60.7266 37.1767 60.7266 40.8601C60.7266 43.2072 59.4474 44.9694 57.8754 45.7501C59.9074 46.5651 61.285 48.3909 61.285 51.2275C61.285 55.3025 58.4338 57.9776 54.173 57.9776C48.8273 57.9776 47.0905 54.5879 47.1569 51.4576Z" fill="white"/>
<path d="M63.8361 35.0571H67.049V43.9903H69.3737C73.6345 43.9903 76.3554 46.4672 76.3554 50.8383C76.3554 55.2388 73.669 57.6202 69.3737 57.6202H63.8361V35.0571ZM67.049 46.7951V54.8154H69.2114C71.7354 54.8154 73.0122 53.3151 73.0122 50.8383C73.0122 48.359 71.7034 46.7951 69.2114 46.7951H67.049ZM81.9914 57.6202H78.781V35.0571H81.9914V57.6202Z" fill="white"/>
<path d="M88.7417 44.8056L96.9681 35.0574H100.803L91.5609 45.8164L101.099 57.618H97.2633L88.7417 47.3142V57.618H85.5289V35.0549H88.7417V44.8056Z" fill="white"/>
<path d="M105.945 52.4683L117.121 35.0571H120.334V57.6202H117.121V40.209L105.945 57.6202H102.732V35.0571H105.945V52.4683Z" fill="white"/>
<path d="M132.127 52.4683L143.303 35.0571H146.516V57.6202H143.303V40.209L132.127 57.6202H128.915V35.0571H132.127V52.4683Z" fill="white"/>
<path d="M12.748 69.4854C18.3865 69.6812 22.2857 72.6817 22.2857 77.5057C22.2857 82.3957 18.2217 85.4281 12.748 85.5602V90.8736H9.53765V85.5602C3.86721 85.3962 0 82.3957 0 77.5717C0 72.6817 4.03204 69.6493 9.53765 69.4854V67.0085H12.7505L12.748 69.4854ZM9.53765 82.6257V72.4541C5.83526 72.5838 3.34322 74.4096 3.34322 77.5399C3.34322 80.702 5.89922 82.5278 9.53765 82.6257ZM12.748 72.4517V82.6233C16.4184 82.496 18.9425 80.6678 18.9425 77.5375C18.9425 74.3754 16.3545 72.5496 12.748 72.4517Z" fill="white"/>
<path d="M24.645 90.2228V67.6597H34.5098V70.626H27.8578V77.146H34.3474V80.0805H27.8578V87.254H34.6107V90.2203L24.645 90.2228Z" fill="white"/>
<path d="M40.7337 85.0709L51.9097 67.6598H55.1226V90.2228H51.9097V72.8117L40.7337 90.2228H37.5208V67.6598H40.7337V85.0709ZM41.7841 62.2803H44.2737C44.3057 63.0292 44.7657 64.1379 46.3377 64.1379C47.9097 64.1379 48.3697 63.0292 48.4017 62.2803H50.8273C50.8273 64.0082 49.6145 66.4214 46.3377 66.4214C42.9305 66.4214 41.8161 63.9739 41.7841 62.2803Z" fill="white"/>
<path d="M58.6577 90.2228V67.6597H68.5225V70.626H61.8705V77.146H68.3601V80.0805H61.8705V87.254H68.6234V90.2203H58.6577V90.2228Z" fill="white"/>
<path d="M77.4032 80.1148H74.7488V90.2228H71.536V67.6597H77.4032C81.6296 67.6597 84.0552 69.7473 84.0552 73.7905C84.0577 77.7677 81.3369 80.1148 77.4032 80.1148ZM74.7488 70.4644V77.3124H77.2384C79.5337 77.3124 80.712 75.9419 80.712 73.8224C80.712 71.7347 79.5312 70.4644 77.2384 70.4644H74.7488Z" fill="white"/>
<path d="M92.7072 90.2228H86.4808V67.6597H92.3161C96.5425 67.6597 98.9017 69.7131 98.9017 73.5947C98.9017 75.7461 97.9176 77.474 96.3137 78.3232C98.3113 79.17 99.5265 80.9322 99.5265 83.7027C99.5241 87.8096 96.7048 90.2228 92.7072 90.2228ZM89.6592 70.4644V77.2463H92.1488C94.3776 77.2463 95.5904 75.9761 95.5904 73.8224C95.5904 71.6686 94.444 70.4644 92.1488 70.4644H89.6592ZM89.6592 79.9508V87.418H92.3456C94.8696 87.418 96.1808 85.8859 96.1808 83.6024C96.1808 81.385 94.9016 79.9508 92.3456 79.9508H89.6592Z" fill="white"/>
<path d="M102.144 90.2228V67.6597H112.009V70.626H105.357V77.146H111.847V80.0805H105.357V87.254H112.11V90.2203H102.144V90.2228Z" fill="white"/>
<path d="M120.887 80.1148H118.233V90.2228H115.02V67.6597H120.887C125.114 67.6597 127.539 69.7473 127.539 73.7905C127.542 77.7677 124.821 80.1148 120.887 80.1148ZM118.233 70.4644V77.3124H120.722C123.018 77.3124 124.196 75.9419 124.196 73.8224C124.196 71.7347 123.015 70.4644 120.722 70.4644H118.233Z" fill="white"/>
<path d="M133.178 77.4079L141.404 67.6597H145.239L135.997 78.4187L145.535 90.2203H141.699L133.178 79.9165V90.2203H129.965V67.6572H133.178V77.4079Z" fill="white"/>
<path d="M155.855 67.2021C162.738 67.2021 167.523 72.1901 167.523 78.9083C167.523 85.5923 162.738 90.6463 155.889 90.6463C149.04 90.6463 144.287 85.7563 144.287 78.9401C144.285 72.1582 149.168 67.2021 155.855 67.2021ZM155.887 87.68C160.868 87.68 164.145 84.0284 164.145 78.9426C164.145 73.8568 160.802 70.1709 155.887 70.1709C150.937 70.1709 147.66 73.8543 147.66 78.9426C147.66 84.0602 151.038 87.68 155.887 87.68Z" fill="white"/>
<path d="M176.401 90.2228H170.175V67.6597H176.01C180.236 67.6597 182.596 69.7131 182.596 73.5947C182.596 75.7461 181.611 77.474 180.008 78.3232C182.005 79.17 183.22 80.9322 183.22 83.7027C183.218 87.8096 180.399 90.2228 176.401 90.2228ZM173.353 70.4644V77.2463H175.843C178.071 77.2463 179.284 75.9761 179.284 73.8224C179.284 71.671 178.138 70.4644 175.843 70.4644H173.353ZM173.353 79.9508V87.418H176.039C178.563 87.418 179.875 85.8859 179.875 83.6024C179.875 81.385 178.595 79.9508 176.039 79.9508H173.353Z" fill="white"/>
</svg>
