<svg width="2673" height="473" viewBox="0 0 2673 473" fill="none" xmlns="http://www.w3.org/2000/svg">
<mask id="mask0" mask-type="alpha" maskUnits="userSpaceOnUse" x="0" y="0" width="2673" height="473">
<rect width="2673" height="473" fill="#C4C4C4"/>
</mask>
<g mask="url(#mask0)">
<path d="M4074.56 74.5189L3972.35 25.7868C3927.89 4.58515 3855.28 4.90397 3811.64 26.5042L3764.24 49.9695C3720.14 71.8089 3646.55 71.8567 3602.3 50.0971L3557.24 27.923C3512.3 5.81262 3437.27 6.27491 3393.54 28.9273L3359.17 46.7494C3314.46 69.9278 3237.36 69.8003 3192.97 46.4784L3161.37 29.8997C3117.49 6.84879 3041.42 6.41838 2996.42 28.991L2958.56 47.9769C2913.45 70.5974 2837.17 70.1191 2793.36 46.9407L2765.36 32.1155C2720.23 8.23567 2641.12 8.57043 2596.86 32.8009L2581.2 41.3932C2535.13 66.628 2451.98 65.7672 2408.28 39.6078C2363.44 12.763 2277.54 12.6832 2232.51 39.4484L2231.98 39.7672C2188.07 65.8469 2104.94 66.5643 2059.06 41.2657L2050.64 36.6268C2004.3 11.0732 1920.16 12.0934 1876.68 38.747L1871.06 42.2062C1829.68 67.5685 1750.71 69.9597 1702.88 47.2914L1657.05 25.5796C1612.53 4.4895 1540.11 4.85615 1496.58 26.4086L1448.91 50.0014C1404.82 71.8408 1331.23 71.8886 1286.97 50.129L1241.92 27.9548C1196.97 5.8445 1121.94 6.30679 1078.22 28.9591L1043.85 46.7813C999.137 69.9597 922.03 69.8322 877.641 46.5103L846.015 29.8997C802.132 6.84879 726.064 6.41838 681.062 28.991L643.201 47.9769C598.093 70.5974 521.812 70.1191 478.009 46.9407L450.006 32.1155C404.872 8.23567 325.766 8.57043 281.511 32.8009L265.844 41.3932C219.777 66.628 136.621 65.7672 92.925 39.6078C18 -1.90735e-06 -37.8165 12.6832 -82.8447 39.4484L-83.3775 39.7672C-127.287 65.8469 -210.416 66.5643 -256.296 41.2657L-265.409 36.2283C-311.529 10.8022 -395.191 11.663 -438.887 38.0296L-501.021 75.5391C-516.554 84.9125 -525 96.4698 -525 108.394V226.82C-525 256.2 -71.0003 501 -9 501H3192.97C3255.1 501 4108.21 256.072 4108 226.645L4107.2 111.837C4107.09 97.8408 4095.37 84.4343 4074.56 74.5189Z" fill="#FF5E1F"/>
</g>
</svg>
