<svg width="2673" height="636" viewBox="0 0 2673 636" fill="none" xmlns="http://www.w3.org/2000/svg">
<mask id="mask0" mask-type="alpha" maskUnits="userSpaceOnUse" x="0" y="0" width="2673" height="636">
<path d="M0 0H2673V636H0V0Z" fill="#C4C4C4"/>
</mask>
<g mask="url(#mask0)">
<path d="M4074.56 70.5189L3972.35 21.7868C3927.89 0.58515 3855.28 0.903975 3811.64 22.5042L3764.24 45.9695C3720.14 67.8089 3646.55 67.8567 3602.3 46.0971L3557.24 23.923C3512.3 1.81262 3437.27 2.27491 3393.54 24.9273L3359.17 42.7494C3314.46 65.9278 3237.36 65.8003 3192.97 42.4784L3161.37 25.8997C3117.49 2.84879 3041.42 2.41838 2996.42 24.991L2958.56 43.9769C2913.45 66.5974 2837.17 66.1191 2793.36 42.9407L2765.36 28.1155C2720.23 4.23567 2641.12 4.57043 2596.86 28.8009L2581.2 37.3932C2535.13 62.628 2451.98 61.7672 2408.28 35.6078C2363.44 8.76295 2277.54 8.68324 2232.51 35.4484L2231.98 35.7672C2188.07 61.8469 2104.94 62.5643 2059.06 37.2657L2050.64 32.6268C2004.3 7.07319 1920.16 8.09342 1876.68 34.747L1871.06 38.2062C1829.68 63.5685 1750.71 65.9597 1702.88 43.2914L1657.05 21.5796C1612.53 0.489505 1540.11 0.856152 1496.58 22.4086L1448.91 46.0014C1404.82 67.8408 1331.23 67.8886 1286.97 46.129L1241.92 23.9548C1196.97 1.8445 1121.94 2.30679 1078.22 24.9591L1043.85 42.7813C999.137 65.9597 922.03 65.8322 877.641 42.5103L846.015 25.8997C802.132 2.84879 726.064 2.41838 681.062 24.991L643.201 43.9769C598.093 66.5974 521.812 66.1191 478.009 42.9407L450.006 28.1155C404.872 4.23567 325.766 4.57043 281.511 28.8009L265.844 37.3932C219.777 62.628 136.621 61.7672 92.925 35.6078C18 -4 -37.8165 8.68324 -82.8447 35.4484L-83.3775 35.7672C-127.287 61.8469 -210.416 62.5643 -256.296 37.2657L-265.409 32.2283C-311.529 6.80219 -395.191 7.66301 -438.887 34.0296L-501.021 71.5391C-516.554 80.9125 -525 92.4698 -525 104.394V222.82C-525 252.2 -474.75 733.5 -412.749 733.5H3995.75C4057.88 733.5 4108.21 252.072 4108 222.645L4107.2 107.837C4107.09 93.8408 4095.37 80.4343 4074.56 70.5189Z" fill="#FF510C"/>
</g>
</svg>
