<svg width="2673" height="273" viewBox="0 0 2673 273" fill="none" xmlns="http://www.w3.org/2000/svg">
<mask id="mask0" mask-type="alpha" maskUnits="userSpaceOnUse" x="0" y="0" width="2673" height="273">
<rect width="2673" height="273" fill="#C4C4C4"/>
</mask>
<g mask="url(#mask0)">
<path d="M4074.56 67.5189L3972.35 18.7869C3927.89 -2.41485 3855.28 -2.09603 3811.64 19.5042L3764.24 42.9695C3720.14 64.8089 3646.55 64.8567 3602.3 43.0971L3557.24 20.923C3512.3 -1.18738 3437.27 -0.725088 3393.54 21.9273L3359.17 39.7494C3314.46 62.9278 3237.36 62.8003 3192.97 39.4784L3161.37 22.8997C3117.49 -0.151209 3041.42 -0.581617 2996.42 21.991L2958.56 40.9769C2913.45 63.5974 2837.17 63.1191 2793.36 39.9407L2765.36 25.1155C2720.23 1.23567 2641.12 1.57043 2596.86 25.8009L2581.2 34.3932C2535.13 59.628 2451.98 58.7672 2408.28 32.6078C2363.44 5.76295 2277.54 5.68324 2232.51 32.4484L2231.98 32.7672C2188.07 58.8469 2104.94 59.5643 2059.06 34.2657L2050.64 29.6268C2004.3 4.07319 1920.16 5.09342 1876.68 31.747L1871.06 35.2062C1829.68 60.5685 1750.71 62.9597 1702.88 40.2914L1657.05 18.5796C1612.53 -2.51049 1540.11 -2.14385 1496.58 19.4086L1448.91 43.0014C1404.82 64.8408 1331.23 64.8886 1286.97 43.129L1241.92 20.9548C1196.97 -1.1555 1121.94 -0.693207 1078.22 21.9591L1043.85 39.7813C999.137 62.9597 922.03 62.8322 877.641 39.5103L846.015 22.8997C802.132 -0.151209 726.064 -0.581617 681.062 21.991L643.201 40.9769C598.093 63.5974 521.812 63.1191 478.009 39.9407L450.006 25.1155C404.872 1.23567 325.766 1.57043 281.511 25.8009L265.844 34.3932C219.777 59.628 136.621 58.7672 92.925 32.6078C18 -7 -37.8165 5.68324 -82.8447 32.4484L-83.3775 32.7672C-127.287 58.8469 -210.416 59.5643 -256.296 34.2657L-265.409 29.2283C-311.529 3.80219 -395.191 4.66301 -438.887 31.0296L-501.021 68.5391C-516.554 77.9125 -525 89.4698 -525 101.394V219.82C-525 249.2 -474.75 273 -412.749 273H3995.75C4057.88 273 4108.21 249.072 4108 219.645L4107.2 104.837C4107.09 90.8408 4095.37 77.4343 4074.56 67.5189Z" fill="#FF672A"/>
</g>
</svg>
