<svg width="24" height="25" viewBox="0 0 24 25" fill="none" xmlns="http://www.w3.org/2000/svg">
<g clip-path="url(#clip0)">
<path fill-rule="evenodd" clip-rule="evenodd" d="M17.539 13.0683C18.3159 11.5227 18.6823 10.3294 18.6823 9.578C18.6823 5.76641 15.6418 2.71998 11.9444 2.71998C8.247 2.71998 5.20649 5.76641 5.20649 9.578C5.20649 10.3294 5.57291 11.5227 6.34984 13.0683C7.09721 14.5551 8.11275 16.1541 9.15705 17.6468C10.1613 19.0822 11.169 20.3866 11.9444 21.3535C12.7198 20.3866 13.7275 19.0822 14.7317 17.6468C15.776 16.1541 16.7916 14.5551 17.539 13.0683ZM13.1263 22.789C15.4747 19.8897 20.5034 13.2521 20.5034 9.578C20.5034 4.78468 16.6714 0.898926 11.9444 0.898926C7.21742 0.898926 3.38544 4.78468 3.38544 9.578C3.38544 13.2521 8.41414 19.8897 10.7625 22.789C11.4778 23.6721 11.9444 24.2084 11.9444 24.2084C11.9444 24.2084 12.411 23.6721 13.1263 22.789Z" fill="white"/>
<path fill-rule="evenodd" clip-rule="evenodd" d="M11.9447 10.7324C12.4475 10.7324 12.8552 10.3248 12.8552 9.82192C12.8552 9.31905 12.4475 8.91139 11.9447 8.91139C11.4418 8.91139 11.0341 9.31905 11.0341 9.82192C11.0341 10.3248 11.4418 10.7324 11.9447 10.7324ZM11.9447 12.5535C13.4533 12.5535 14.6762 11.3305 14.6762 9.82192C14.6762 8.3133 13.4533 7.09033 11.9447 7.09033C10.436 7.09033 9.21307 8.3133 9.21307 9.82192C9.21307 11.3305 10.436 12.5535 11.9447 12.5535Z" fill="white"/>
</g>
<defs>
<clipPath id="clip0">
<rect width="23.3095" height="23.3095" fill="white" transform="translate(0.47168 0.898926)"/>
</clipPath>
</defs>
</svg>
