<svg width="207" height="165" viewBox="0 0 207 165" fill="none" xmlns="http://www.w3.org/2000/svg">
<path d="M42.2918 0.746094C59.406 0.746094 72.3514 7.77256 81.1279 21.8255C88.588 33.6826 92.318 48.1747 92.318 65.3017C92.318 87.2594 86.6133 107.021 75.2038 124.587C65.1631 140.664 50.16 153.799 30.1946 163.99C27.0646 165.588 23.2711 164.248 21.7004 161.104C20.0197 157.74 21.548 153.676 24.8847 151.942C35.818 146.258 45.3504 138.238 53.4819 127.881C63.5749 115.585 68.6214 103.069 68.6214 90.3334C68.6214 83.5507 60.8713 81.1308 54.4177 83.2177C50.6122 84.4483 46.5703 85.0636 42.2918 85.0636C30.4435 85.0636 20.3505 81.3307 12.0128 73.8651C4.11398 65.9604 0.164551 55.6403 0.164551 42.9049C0.164551 31.0477 4.11398 21.1667 12.0128 13.2619C20.3505 4.91802 30.4435 0.746094 42.2918 0.746094Z" fill="#F0F0F0"/>
<path d="M156.138 0.746094C173.253 0.746094 186.198 7.77256 194.974 21.8255C202.435 33.6826 206.165 48.1747 206.165 65.3017C206.165 87.2594 200.46 107.021 189.05 124.587C179.01 140.664 164.007 153.799 144.041 163.99C140.911 165.588 137.118 164.248 135.547 161.104C133.866 157.74 135.395 153.676 138.731 151.942C149.665 146.258 159.197 138.238 167.328 127.881C177.421 115.585 182.468 103.069 182.468 90.3334C182.468 83.5507 174.718 81.1308 168.264 83.2177C164.459 84.4483 160.417 85.0636 156.138 85.0636C144.29 85.0636 134.197 81.3307 125.859 73.8651C117.961 65.9604 114.011 55.6403 114.011 42.9049C114.011 31.0477 117.961 21.1667 125.859 13.2619C134.197 4.91802 144.29 0.746094 156.138 0.746094Z" fill="#F0F0F0"/>
</svg>
