<svg width="5253" height="269" viewBox="0 0 5253 269" fill="none" xmlns="http://www.w3.org/2000/svg">
<mask id="mask0" mask-type="alpha" maskUnits="userSpaceOnUse" x="0" y="0" width="5253" height="269">
<rect width="5253" height="269" fill="#C4C4C4"/>
</mask>
<g mask="url(#mask0)">
<path d="M2906.52 133.42L2804.7 0L2726.51 108.771L2643.51 0L2547.61 133.42L2643.51 267.597L2726.51 158.205L2804.7 267.597L2906.52 133.42ZM2644.21 217.298L2584.3 133.501L2644.21 50.1645L2707.82 133.501L2644.21 217.298ZM2805.4 50.1374L2869.01 133.474L2805.4 217.271L2745.49 133.474L2805.4 50.1374Z" fill="#45CDF7" fill-opacity="0.53"/>
<path d="M2419.22 254.475H2537.65V13.2314H2419.22V254.475ZM2447.29 224.982V148.599H2509.59V224.982H2447.29ZM2509.59 42.724V119.107H2447.29V42.724H2509.59Z" fill="#45CDF7" fill-opacity="0.53"/>
<path d="M1913.91 11.2031C1867.05 11.2031 1830.37 28.601 1830.37 50.7881C1830.37 52.7903 1830.37 95.8929 1830.37 97.8951C1830.37 114.698 1851.38 128.713 1881.86 134.558C1851.35 140.402 1830.37 154.445 1830.37 171.221C1830.37 173.223 1830.37 216.325 1830.37 218.327C1830.37 240.542 1867.05 257.912 1913.91 257.912C1960.77 257.912 1997.45 240.514 1997.45 218.327C1997.45 216.325 1997.45 173.223 1997.45 171.221C1997.45 154.418 1976.44 140.402 1945.96 134.558C1976.47 128.713 1997.45 114.671 1997.45 97.8951C1997.45 95.8929 1997.45 52.7903 1997.45 50.7881C1997.45 28.601 1960.77 11.2031 1913.91 11.2031ZM1854.31 78.7926C1869.37 85.9899 1890.35 90.4002 1913.91 90.4002C1937.47 90.4002 1958.47 85.9899 1973.51 78.7926C1974.38 79.2796 1975.23 79.7666 1976.03 80.2536C1962.9 88.2085 1941.07 94.0528 1913.88 94.0528C1886.7 94.0528 1864.87 88.2085 1851.74 80.2536C1852.59 79.7395 1853.44 79.2526 1854.31 78.7926ZM1864.17 74.3551C1877.02 69.566 1894.03 66.4274 1913.91 66.4274C1933.79 66.4274 1950.8 69.566 1963.65 74.3551C1950.8 79.1443 1933.79 82.2829 1913.91 82.2829C1894.03 82.2829 1877.02 79.1443 1864.17 74.3551ZM1973.51 69.9177C1958.45 62.7204 1937.47 58.3101 1913.91 58.3101C1890.35 58.3101 1869.35 62.7204 1854.31 69.9177C1853.44 69.4307 1852.59 68.9437 1851.79 68.4567C1864.92 60.5018 1886.75 54.6573 1913.94 54.6573C1941.12 54.6573 1962.95 60.5018 1976.08 68.4567C1975.23 68.9437 1974.41 69.4577 1973.51 69.9177ZM1913.91 46.5401C1884.97 46.5401 1859.92 53.1962 1844.97 63.5051C1844.63 63.2075 1844.32 62.8827 1844.01 62.5851C1854.95 51.7892 1880.34 42.8874 1913.91 42.8874C1947.46 42.8874 1972.84 51.7892 1983.78 62.5851C1983.47 62.8827 1983.16 63.2075 1982.83 63.5051C1967.9 53.1692 1942.85 46.5401 1913.91 46.5401ZM1844.99 85.2052C1859.92 95.5141 1884.97 102.17 1913.91 102.17C1942.85 102.17 1967.9 95.5141 1982.83 85.2052C1983.16 85.5028 1983.47 85.8274 1983.78 86.125C1972.84 96.9209 1947.46 105.823 1913.91 105.823C1880.36 105.823 1854.98 96.9209 1844.01 86.125C1844.35 85.8274 1844.66 85.5028 1844.99 85.2052ZM1913.91 34.7702C1881.75 34.7702 1854.36 42.9685 1840.36 55.3066C1848.18 42.6167 1875.78 31.1173 1913.91 31.1173C1952.04 31.1173 1979.61 42.6167 1987.46 55.3066C1973.46 42.9685 1946.07 34.7702 1913.91 34.7702ZM1913.91 113.94C1946.07 113.94 1973.46 105.742 1987.46 93.4035C1979.61 106.093 1952.04 117.593 1913.91 117.593C1875.81 117.593 1848.21 106.093 1840.36 93.4035C1854.36 105.742 1881.75 113.94 1913.91 113.94ZM1913.91 19.3203C1952.01 19.3203 1979.61 30.8197 1987.46 43.5097C1973.46 31.1715 1946.09 22.9732 1913.91 22.9732C1881.75 22.9732 1854.36 31.1715 1840.36 43.5097C1848.21 30.8197 1875.81 19.3203 1913.91 19.3203ZM1913.91 210.833C1937.47 210.833 1958.47 206.422 1973.51 199.225C1974.38 199.712 1975.23 200.199 1976.03 200.686C1962.9 208.641 1941.07 214.485 1913.88 214.485C1886.7 214.485 1864.87 208.641 1851.74 200.686C1852.56 200.199 1853.38 199.712 1854.26 199.225C1869.35 206.449 1890.35 210.833 1913.91 210.833ZM1864.17 194.815C1877.02 190.025 1894.03 186.887 1913.91 186.887C1933.79 186.887 1950.8 190.025 1963.65 194.815C1950.8 199.604 1933.79 202.742 1913.91 202.742C1894.03 202.715 1877.02 199.604 1864.17 194.815ZM1973.51 190.377C1958.45 183.18 1937.47 178.77 1913.91 178.77C1890.35 178.77 1869.35 183.18 1854.31 190.377C1853.44 189.89 1852.59 189.403 1851.79 188.916C1864.92 180.961 1886.75 175.117 1913.94 175.117C1941.12 175.117 1962.95 180.961 1976.08 188.916C1975.23 189.403 1974.41 189.89 1973.51 190.377ZM1844.99 205.665C1859.92 215.973 1884.97 222.63 1913.91 222.63C1942.85 222.63 1967.9 215.973 1982.83 205.665C1983.16 205.962 1983.47 206.287 1983.78 206.585C1972.84 217.38 1947.46 226.282 1913.91 226.282C1880.36 226.282 1854.98 217.38 1844.01 206.585C1844.35 206.287 1844.66 205.962 1844.99 205.665ZM1982.83 183.938C1967.9 173.629 1942.85 166.973 1913.91 166.973C1884.97 166.973 1859.92 173.629 1844.97 183.938C1844.63 183.64 1844.32 183.315 1844.01 183.018C1854.95 172.222 1880.34 163.32 1913.91 163.32C1947.46 163.32 1972.84 172.222 1983.78 183.018C1983.47 183.342 1983.16 183.64 1982.83 183.938ZM1913.91 234.4C1946.07 234.4 1973.46 226.201 1987.46 213.863C1979.61 226.553 1952.04 238.052 1913.91 238.052C1875.81 238.052 1848.21 226.553 1840.36 213.863C1854.36 226.201 1881.75 234.4 1913.91 234.4ZM1913.91 155.203C1881.75 155.203 1854.36 163.401 1840.36 175.739C1848.18 163.049 1875.78 151.55 1913.91 151.55C1952.04 151.55 1979.61 163.049 1987.46 175.739C1973.46 163.401 1946.07 155.203 1913.91 155.203ZM1913.91 249.849C1875.78 249.849 1848.21 238.35 1840.36 225.66C1854.36 237.998 1881.73 246.197 1913.91 246.197C1946.07 246.197 1973.46 237.998 1987.46 225.66C1979.61 238.35 1952.04 249.849 1913.91 249.849ZM1987.46 163.969C1973.46 151.631 1946.09 143.433 1913.91 143.433C1881.75 143.433 1854.36 151.631 1840.36 163.969C1848.21 151.279 1875.78 139.78 1913.91 139.78C1952.01 139.78 1979.61 151.279 1987.46 163.969ZM1913.91 129.39C1875.78 129.39 1848.21 117.89 1840.36 105.2C1854.36 117.539 1881.73 125.737 1913.91 125.737C1946.07 125.737 1973.46 117.539 1987.46 105.2C1979.61 117.89 1952.04 129.39 1913.91 129.39Z" fill="#45CDF7" fill-opacity="0.53"/>
<path d="M2111.76 9.93164C2109.93 9.93164 2059.32 9.93164 2057.49 9.93164C2031.31 9.93164 2010.82 64.0733 2010.82 133.205C2010.82 202.336 2031.31 256.478 2057.49 256.478C2059.32 256.478 2109.93 256.478 2111.76 256.478C2137.94 256.478 2158.44 202.336 2158.44 133.205C2158.44 64.0733 2137.94 9.93164 2111.76 9.93164ZM2129.01 133.205C2129.01 188.835 2115.88 229.691 2100.92 243.355C2100.85 243.274 2100.74 243.193 2100.67 243.112C2115.75 222.927 2125.9 181.773 2125.9 133.205C2125.9 84.6369 2115.78 43.4827 2100.67 23.298C2100.74 23.2168 2100.85 23.1355 2100.92 23.0544C2115.88 36.7183 2129.01 77.5749 2129.01 133.205ZM2040.24 133.205C2040.24 77.5749 2053.37 36.7183 2068.33 23.0544C2068.41 23.1355 2068.51 23.2168 2068.59 23.298C2053.5 43.4827 2043.36 84.6369 2043.36 133.205C2043.36 181.773 2053.47 222.927 2068.59 243.112C2068.51 243.193 2068.41 243.274 2068.33 243.355C2053.37 229.691 2040.24 188.808 2040.24 133.205ZM2095.49 237.078C2095.18 236.645 2094.87 236.212 2094.59 235.779C2107 213.862 2115.03 176.469 2115.03 133.205C2115.03 89.9401 2107 52.5739 2094.59 30.6304C2094.9 30.1704 2095.21 29.7375 2095.49 29.3317C2108.05 47.0272 2118.17 84.4475 2118.17 133.205C2118.17 181.962 2108.05 219.355 2095.49 237.078ZM2073.76 237.078C2061.2 219.382 2051.08 181.962 2051.08 133.205C2051.08 84.4475 2061.17 47.0272 2073.76 29.3317C2074.07 29.7646 2074.38 30.1975 2074.66 30.6304C2062.25 52.5468 2054.22 89.9401 2054.22 133.205C2054.22 176.469 2062.25 213.835 2074.66 235.779C2074.38 236.212 2074.07 236.645 2073.76 237.078ZM2061.94 133.205C2061.94 91.6988 2069.26 58.4454 2079.19 38.5312C2079.61 39.37 2080.02 40.2357 2080.43 41.1286C2070.96 63.5321 2065.09 96.2174 2065.09 133.205C2065.09 170.192 2070.96 202.877 2080.43 225.281C2080.02 226.174 2079.61 227.039 2079.19 227.878C2069.28 207.964 2061.94 174.684 2061.94 133.205ZM2084.63 51.5458C2091.68 71.6223 2096.44 99.7348 2096.44 133.205C2096.44 166.675 2091.68 194.787 2084.63 214.864C2077.57 194.787 2072.81 166.675 2072.81 133.205C2072.81 99.7348 2077.57 71.6223 2084.63 51.5458ZM2088.82 225.281C2098.3 202.877 2104.17 170.192 2104.17 133.205C2104.17 96.2174 2098.3 63.5321 2088.82 41.1286C2089.23 40.2357 2089.65 39.37 2090.06 38.5312C2100 58.4454 2107.31 91.6988 2107.31 133.205C2107.31 174.711 2100 207.964 2090.06 227.878C2089.65 227.039 2089.23 226.174 2088.82 225.281ZM2058.75 21.9722C2043.1 41.6699 2032.54 83.5816 2032.54 133.205C2032.54 182.828 2043.13 224.74 2058.75 244.437C2043.28 231.937 2029.4 190.377 2029.4 133.205C2029.4 76.0326 2043.25 34.4456 2058.75 21.9722ZM2110.5 244.41C2126.15 224.712 2136.71 182.801 2136.71 133.178C2136.71 83.5545 2126.13 41.6428 2110.5 21.9451C2125.97 34.4456 2139.85 76.0056 2139.85 133.178C2139.85 190.35 2125.97 231.937 2110.5 244.41ZM2018.54 133.205C2018.54 76.0326 2032.42 34.4727 2047.89 21.9722C2032.24 41.6699 2021.68 83.5816 2021.68 133.205C2021.68 182.828 2032.26 224.74 2047.89 244.437C2032.42 231.937 2018.54 190.377 2018.54 133.205ZM2121.36 244.41C2137.02 224.712 2147.57 182.801 2147.57 133.178C2147.57 83.5545 2136.99 41.6428 2121.36 21.9451C2136.84 34.4456 2150.71 76.0056 2150.71 133.178C2150.71 190.35 2136.84 231.937 2121.36 244.41Z" fill="#45CDF7" fill-opacity="0.53"/>
<path d="M2269.66 9.93164C2267.83 9.93164 2217.21 9.93164 2215.39 9.93164C2189.2 9.93164 2168.71 64.0733 2168.71 133.205C2168.71 202.336 2189.2 256.478 2215.39 256.478C2217.21 256.478 2267.83 256.478 2269.66 256.478C2295.84 256.478 2316.33 202.336 2316.33 133.205C2316.33 64.0733 2295.84 9.93164 2269.66 9.93164ZM2286.91 133.205C2286.91 188.835 2273.78 229.691 2258.82 243.355C2258.74 243.274 2258.64 243.193 2258.56 243.112C2273.65 222.927 2283.79 181.773 2283.79 133.205C2283.79 84.6369 2273.67 43.4827 2258.56 23.298C2258.64 23.2168 2258.74 23.1355 2258.82 23.0544C2273.78 36.7183 2286.91 77.5749 2286.91 133.205ZM2198.14 133.205C2198.14 77.5749 2211.27 36.7183 2226.22 23.0544C2226.3 23.1355 2226.41 23.2168 2226.48 23.298C2211.4 43.4827 2201.25 84.6369 2201.25 133.205C2201.25 181.773 2211.37 222.927 2226.48 243.112C2226.41 243.193 2226.3 243.274 2226.22 243.355C2211.29 229.691 2198.14 188.808 2198.14 133.205ZM2253.39 237.078C2253.08 236.645 2252.77 236.212 2252.48 235.779C2264.89 213.862 2272.93 176.469 2272.93 133.205C2272.93 89.9401 2264.89 52.5739 2252.48 30.6304C2252.79 30.1704 2253.1 29.7375 2253.39 29.3317C2265.95 47.0272 2276.07 84.4475 2276.07 133.205C2276.07 181.962 2265.95 219.355 2253.39 237.078ZM2231.68 237.078C2219.12 219.382 2209 181.962 2209 133.205C2209 84.4475 2219.09 47.0272 2231.68 29.3317C2231.99 29.7646 2232.3 30.1975 2232.58 30.6304C2220.17 52.5468 2212.14 89.9401 2212.14 133.205C2212.14 176.469 2220.17 213.835 2232.58 235.779C2232.27 236.212 2231.97 236.645 2231.68 237.078ZM2219.87 133.205C2219.87 91.6988 2227.18 58.4454 2237.12 38.5312C2237.53 39.37 2237.94 40.2357 2238.35 41.1286C2228.88 63.5321 2223.01 96.2174 2223.01 133.205C2223.01 170.192 2228.88 202.877 2238.35 225.281C2237.94 226.174 2237.53 227.039 2237.12 227.878C2227.18 207.964 2219.87 174.684 2219.87 133.205ZM2242.52 51.5458C2249.58 71.6223 2254.34 99.7348 2254.34 133.205C2254.34 166.675 2249.58 194.787 2242.52 214.864C2235.47 194.787 2230.7 166.675 2230.7 133.205C2230.7 99.7348 2235.47 71.6223 2242.52 51.5458ZM2246.72 225.281C2256.19 202.877 2262.06 170.192 2262.06 133.205C2262.06 96.2174 2256.19 63.5321 2246.72 41.1286C2247.13 40.2357 2247.54 39.37 2247.95 38.5312C2257.89 58.4454 2265.2 91.6988 2265.2 133.205C2265.2 174.711 2257.89 207.964 2247.95 227.878C2247.54 227.039 2247.13 226.174 2246.72 225.281ZM2216.65 21.9722C2200.99 41.6699 2190.44 83.5816 2190.44 133.205C2190.44 182.828 2201.02 224.74 2216.65 244.437C2201.18 231.937 2187.3 190.377 2187.3 133.205C2187.3 76.0326 2201.18 34.4456 2216.65 21.9722ZM2268.42 244.41C2284.07 224.712 2294.63 182.801 2294.63 133.178C2294.63 83.5545 2284.05 41.6428 2268.42 21.9451C2283.89 34.4456 2297.77 76.0056 2297.77 133.178C2297.77 190.35 2283.89 231.937 2268.42 244.41ZM2176.43 133.205C2176.43 76.0326 2190.31 34.4727 2205.78 21.9722C2190.13 41.6699 2179.57 83.5816 2179.57 133.205C2179.57 182.828 2190.16 224.74 2205.78 244.437C2190.31 231.937 2176.43 190.377 2176.43 133.205ZM2279.26 244.41C2294.91 224.712 2305.47 182.801 2305.47 133.178C2305.47 83.5545 2294.89 41.6428 2279.26 21.9451C2294.73 34.4456 2308.61 76.0056 2308.61 133.178C2308.61 190.35 2294.73 231.937 2279.26 244.41Z" fill="#45CDF7" fill-opacity="0.53"/>
<path d="M3154.3 36.1756L3137.54 7.92773H3006.68L2990.53 33.8485L3041.33 133.447L2991.02 230.799L3007.09 260.021H3138.44L3155.05 230.474L3104.74 132.418L3154.3 36.1756ZM3131.75 18.7776L3138.31 30.0606H3038.5L3066.41 84.8788L3059.09 99.0568L3017.77 18.8047H3131.75V18.7776ZM3002.45 34.3356L3008.79 23.9456L3053.22 110.367L3047.17 122.056L3002.45 34.3356ZM3002.82 230.61L3088.88 64.0717H3100.93L3009.48 242.542L3002.82 230.61ZM3067.54 64.0986H3077.17L3072.33 73.4876L3067.54 64.0986ZM3132.6 249.198H3017.77L3118.18 53.2488H3062.03L3055.72 40.8565H3140.16L3038.91 237.482H3139.29L3132.6 249.198ZM3084.84 171.002L3101.08 204.093H3090.06L3079.28 181.798L3084.84 171.002ZM3078.53 204.12H3067.8L3073.33 193.379L3078.53 204.12ZM3141.73 226.659H3056.18L3062.23 214.943H3118L3090.79 159.503L3098.87 143.81L3141.73 226.659Z" fill="#45CDF7" fill-opacity="0.53"/>
<path d="M3296.46 10.2002H3194.12L3169.97 31.5756V235.859L3191.55 262.727H3295.79L3314.76 232.314L3314.66 37.5282L3296.46 10.2002ZM3200.2 21.0231H3291.1L3298.49 32.0897H3209.88L3209.67 204.797H3200.22V21.0231H3200.2ZM3219.94 60.9327H3265.13V204.797H3219.94V60.9327ZM3180.3 36.6082L3189.9 28.1121V215.593H3265.13V227.877L3180.3 225.847V36.6082ZM3285.03 251.904H3196.39L3184.29 236.778L3275.42 238.943V60.9327H3285.03V251.904ZM3304.51 229.094L3295.32 243.786V50.1098H3220.12V42.9126H3304.49V229.094H3304.51Z" fill="#45CDF7" fill-opacity="0.53"/>
<path d="M3478.97 37.5282L3460.72 10.2002H3358.38L3334.23 31.5756V235.859L3355.81 262.727H3460.05L3479.02 232.314L3478.97 37.5282ZM3364.46 21.0231H3455.36L3462.75 32.0897H3374.14L3373.93 204.797H3364.48V21.0231H3364.46ZM3384.2 60.9327H3429.39V204.797H3384.2V60.9327ZM3344.56 36.6082L3354.16 28.1121V215.593H3429.39V227.877L3344.56 225.847V36.6082ZM3449.29 251.904H3360.65L3348.55 236.778L3439.68 238.943V60.9327H3449.29V251.904ZM3468.77 229.094L3459.58 243.786V50.1098H3384.38V42.9126H3468.75V229.094H3468.77Z" fill="#45CDF7" fill-opacity="0.53"/>
<path d="M672.668 88.2347L705.673 60.9609L740.763 88.2347H722.175C726.192 95.7025 737.622 103.684 754.614 103.684C777.553 103.684 795.548 89.9123 795.548 72.325C795.548 52.9791 779.87 40.9656 754.614 40.9656C732.911 40.9656 727.324 47.8923 721.171 54.359H692.569C698.207 23.8383 732.834 11.9873 754.64 11.9873C794.982 11.9873 823.147 36.7988 823.147 72.325C823.147 106.147 793.051 132.663 754.64 132.663C717.438 132.663 693.367 110.611 693.367 88.2077H672.668V88.2347Z" fill="#45CDF7" fill-opacity="0.53"/>
<path d="M836.713 185.858L803.708 213.131L768.617 185.858H787.205C783.189 178.39 771.758 170.408 754.767 170.408C731.828 170.408 713.832 184.18 713.832 201.767C713.832 221.113 729.511 233.127 754.767 233.127C776.47 233.127 782.056 226.2 788.209 219.733H816.838C811.199 250.254 776.572 262.105 754.767 262.105C714.424 262.105 686.259 237.294 686.259 201.767C686.259 167.946 716.355 141.43 754.767 141.43C791.968 141.43 816.039 163.481 816.039 185.885H836.713V185.858Z" fill="#45CDF7" fill-opacity="0.53"/>
<path d="M1004.42 148.764L971.414 121.49L936.324 148.764H956.842C955.22 228.584 934.547 235.591 915.084 235.591C894.823 235.591 873.223 228.042 873.223 138.536C873.223 41.5352 900.435 41.4811 915.084 41.4811C926.232 41.4811 938.306 46.1621 946.364 62.3425C950.252 71.082 953.393 83.4743 955.221 101.062C955.529 105.634 955.71 110.532 955.71 115.808C965.518 115.808 973.345 115.808 982.665 115.808C982.665 112.534 982.613 109.287 982.484 106.094C982.536 106.094 982.613 106.094 982.665 106.094C982.536 104.471 982.407 102.875 982.278 101.251C979.472 50.1396 961.013 12.7732 915.136 12.7461H915.11H915.084C853.76 12.8002 845.882 80.011 845.882 138.563C845.882 197.116 853.76 264.326 915.084 264.381H915.11H915.136C972.933 264.353 983.231 204.692 984.235 148.791H1004.42V148.764Z" fill="#45CDF7" fill-opacity="0.53"/>
<path d="M1172.4 148.764L1139.4 121.49L1104.31 148.764H1124.83C1123.2 228.584 1102.53 235.591 1083.07 235.591C1062.81 235.591 1041.21 228.042 1041.21 138.536C1041.21 41.5352 1068.42 41.4811 1083.07 41.4811C1094.22 41.4811 1106.29 46.1621 1114.35 62.3425C1118.24 71.082 1121.38 83.4743 1123.2 101.062C1123.51 105.634 1123.69 110.532 1123.69 115.808C1133.5 115.808 1141.33 115.808 1150.65 115.808C1150.65 112.534 1150.6 109.287 1150.47 106.094C1150.52 106.094 1150.6 106.094 1150.65 106.094C1150.52 104.471 1150.39 102.875 1150.26 101.251C1147.46 50.1396 1129 12.7732 1083.12 12.7461H1083.09H1083.07C1021.74 12.8002 1013.87 80.011 1013.87 138.563C1013.87 197.116 1021.74 264.326 1083.07 264.381H1083.09H1083.12C1140.92 264.353 1151.22 204.692 1152.22 148.791H1172.4V148.764Z" fill="#45CDF7" fill-opacity="0.53"/>
<path d="M510.239 13.7734C479.937 13.7734 474.711 25.381 474.711 46.7021C474.711 58.8779 480.4 71.9465 475.303 87.288C468.815 106.715 450.511 120.974 438.513 144.46C430.146 160.803 432.953 179.635 425.281 194.868C416.733 211.833 398.686 227.337 398.686 241.217C398.686 254.069 403.835 265.46 431.202 265.46C494.818 265.46 534.645 232.613 563.093 175.711C594.631 112.532 581.99 13.7734 510.239 13.7734ZM514.77 144.541C494.457 194.273 463.229 245.546 433.725 245.546C427.16 245.546 424.019 242.326 424.019 238.268C424.019 229.258 441.139 216.351 448.58 199.873C452.622 190.945 452.493 170.3 457.281 158.259C465.649 137.29 488.278 113.263 495.59 96.3523C501.202 83.3919 495.23 53.1688 495.23 45.5116C495.23 37.1779 497.083 33.1195 508.231 33.1195C528.93 33.1736 538.455 86.6117 514.77 144.541Z" fill="#45CDF7" fill-opacity="0.53"/>
<path d="M353.758 13.7734C323.457 13.7734 318.23 25.381 318.23 46.7021C318.23 58.8779 323.92 71.9465 318.822 87.288C312.335 106.715 294.03 120.974 282.033 144.46C273.666 160.803 276.472 179.635 268.8 194.868C260.253 211.833 242.206 227.337 242.206 241.217C242.206 254.069 247.355 265.46 274.721 265.46C338.337 265.46 378.165 232.613 406.613 175.711C438.15 112.532 425.484 13.7734 353.758 13.7734ZM358.264 144.541C337.951 194.273 306.722 245.546 277.219 245.546C270.654 245.546 267.513 242.326 267.513 238.268C267.513 229.258 284.633 216.351 292.073 199.873C296.115 190.945 295.987 170.3 300.775 158.259C309.142 137.29 331.772 113.263 339.084 96.3523C344.696 83.3919 338.723 53.1688 338.723 45.5116C338.723 37.1779 340.577 33.1195 351.724 33.1195C372.449 33.1736 381.949 86.6117 358.264 144.541Z" fill="#45CDF7" fill-opacity="0.53"/>
<path d="M277.144 55.1167C277.144 24.4607 256.548 13.6377 216.643 13.6377C172.028 13.6377 152.719 40.6951 152.719 62.801C152.719 71.3782 158.949 79.7118 158.949 87.8291C158.949 96.4063 146.72 105.768 146.72 114.886C146.72 122.544 151.02 128.875 156.581 134.963C149.398 139.238 133.668 149.385 133.668 158.855C133.668 168.325 139.872 185.425 131.685 196.735C117.834 215.892 99.2466 229.664 99.2466 248.144C99.2466 258.074 108.309 265.732 123.55 265.732C206.577 265.732 246.688 224.469 246.688 179.608C246.688 148.952 218.806 139.482 195.198 131.797C233.378 119.134 277.144 89.8314 277.144 55.1167ZM126.768 248.577C121.902 248.577 118.401 247.441 118.401 243.626C118.401 235.887 156.864 207.72 156.864 188.78C156.864 172.546 152.848 170.517 152.848 160.884C152.848 155.797 161.961 149.168 168.629 146.679C183.767 158.855 190.95 171.031 190.95 196.735C190.95 222.44 153.723 248.577 126.768 248.577ZM175.04 123.193C171.178 121.38 167.96 117.727 167.96 113.831C167.96 106.715 182.325 96.758 182.325 84.2304C182.325 71.7028 175.683 68.51 175.683 57.3353C175.683 49.2181 184.05 36.6905 199.497 36.6905C216.566 36.6905 225.577 45.8359 225.577 57.66C225.551 88.4784 192.417 112.37 175.04 123.193Z" fill="#45CDF7" fill-opacity="0.53"/>
<path d="M1524.79 15.5059C1480.49 15.5059 1455.82 45.1877 1455.82 141.999C1455.82 236.591 1478.94 268.492 1524.79 268.492C1573.89 268.492 1593.76 234.372 1593.76 141.999C1593.76 45.1877 1572.34 15.5059 1524.79 15.5059ZM1555.69 138.184C1555.69 198.143 1521.78 232.884 1493.9 241.434C1493.9 194.084 1493.9 179.419 1493.9 148.519C1493.9 94.4319 1522.66 55.6318 1555.69 42.5632C1555.69 81.7962 1555.69 107.879 1555.69 138.184Z" fill="#45CDF7" fill-opacity="0.53"/>
<path d="M1683.72 15.5586C1639.42 15.5586 1614.75 45.2404 1614.75 142.051C1614.75 236.644 1637.87 268.544 1683.72 268.544C1732.82 268.544 1752.69 234.425 1752.69 142.051C1752.69 45.2404 1731.27 15.5586 1683.72 15.5586ZM1714.62 138.236C1714.62 198.195 1680.71 232.937 1652.83 241.487C1652.83 194.137 1652.83 179.472 1652.83 148.572C1652.83 94.4848 1681.59 55.6846 1714.62 42.6159C1714.62 81.849 1714.62 107.932 1714.62 138.236Z" fill="#45CDF7" fill-opacity="0.53"/>
<path d="M1348.73 13.7734C1286.65 13.7734 1261.27 35.9333 1261.27 76.7355C1261.27 117.781 1293.73 139.697 1348.73 139.697C1410.23 139.697 1436.18 121.136 1436.18 76.7355C1436.18 36.6097 1407.01 13.7734 1348.73 13.7734ZM1374.68 85.3936C1381.58 92.6449 1382.4 105.254 1382.89 112.83C1375.65 112.343 1363.68 111.477 1356.78 104.198C1351.04 98.1646 1349.68 89.5875 1348.96 82.2009H1348.18C1347.46 89.5875 1346.1 98.1646 1340.36 104.198C1333.46 111.45 1321.46 112.316 1314.25 112.83C1314.72 105.227 1315.54 92.6449 1322.47 85.3936C1328.21 79.3599 1336.37 77.9259 1343.4 77.1683V76.4377C1336.5 75.7072 1328.03 73.9486 1322.62 68.2666C1315.36 60.6365 1315.08 48.8936 1314.28 40.6683C1322.1 41.5341 1333.28 41.8046 1340.54 49.4347C1345.94 55.1167 1347.62 64.0186 1348.31 71.2699H1348.91C1349.6 64.0186 1351.27 55.1167 1356.68 49.4347C1363.94 41.8046 1375.11 41.507 1382.94 40.6683C1382.12 48.8936 1381.86 60.6365 1374.6 68.2666C1369.19 73.9486 1360.72 75.7072 1353.82 76.4377V77.1683C1360.77 77.9259 1368.93 79.3599 1374.68 85.3936Z" fill="#45CDF7" fill-opacity="0.53"/>
<path d="M1348.73 136.452C1286.65 136.452 1261.27 158.612 1261.27 199.414C1261.27 240.46 1293.73 262.377 1348.73 262.377C1410.23 262.377 1436.18 243.815 1436.18 199.414C1436.18 159.288 1407.01 136.452 1348.73 136.452ZM1374.68 208.046C1381.58 215.297 1382.4 227.906 1382.89 235.482C1375.65 234.995 1363.68 234.129 1356.78 226.851C1351.04 220.817 1349.68 212.24 1348.96 204.853H1348.18C1347.46 212.24 1346.1 220.817 1340.36 226.851C1333.46 234.102 1321.46 234.968 1314.25 235.482C1314.72 227.879 1315.54 215.297 1322.47 208.046C1328.21 202.012 1336.37 200.578 1343.4 199.82V199.09C1336.5 198.359 1328.03 196.6 1322.62 190.918C1315.36 183.288 1315.08 171.545 1314.28 163.32C1322.11 164.186 1333.28 164.456 1340.54 172.087C1345.95 177.769 1347.62 186.67 1348.31 193.922H1348.91C1349.6 186.67 1351.27 177.769 1356.68 172.087C1363.94 164.456 1375.11 164.159 1382.94 163.32C1382.12 171.545 1381.86 183.288 1374.6 190.918C1369.19 196.6 1360.72 198.359 1353.82 199.09V199.82C1360.77 200.578 1368.94 202.012 1374.68 208.046Z" fill="#45CDF7" fill-opacity="0.53"/>
<path d="M4152.97 88.2347L4185.97 60.9609L4221.06 88.2347H4202.47C4206.49 95.7025 4217.92 103.684 4234.91 103.684C4257.85 103.684 4275.85 89.9123 4275.85 72.325C4275.85 52.9791 4260.17 40.9656 4234.91 40.9656C4213.21 40.9656 4207.62 47.8923 4201.47 54.359H4172.84C4178.48 23.8383 4213.11 11.9873 4234.91 11.9873C4275.25 11.9873 4303.42 36.7988 4303.42 72.325C4303.42 106.147 4273.32 132.663 4234.91 132.663C4197.71 132.663 4173.64 110.611 4173.64 88.2077H4152.97V88.2347Z" fill="#45CDF7" fill-opacity="0.53"/>
<path d="M4317.01 185.858L4284.01 213.131L4248.92 185.858H4267.5C4263.49 178.39 4252.06 170.408 4235.07 170.408C4212.13 170.408 4194.13 184.18 4194.13 201.767C4194.13 221.113 4209.81 233.127 4235.07 233.127C4256.77 233.127 4262.36 226.2 4268.51 219.733H4297.11C4291.47 250.254 4256.85 262.105 4235.04 262.105C4194.7 262.105 4166.53 237.294 4166.53 201.767C4166.53 167.946 4196.63 141.43 4235.04 141.43C4272.24 141.43 4296.31 163.481 4296.31 185.885H4317.01V185.858Z" fill="#45CDF7" fill-opacity="0.53"/>
<path d="M4484.71 148.764L4451.71 121.49L4416.62 148.764H4437.14C4435.51 228.584 4414.84 235.591 4395.38 235.591C4375.12 235.591 4353.52 228.042 4353.52 138.536C4353.52 41.5352 4380.73 41.4811 4395.38 41.4811C4406.53 41.4811 4418.6 46.1621 4426.66 62.3425C4430.54 71.082 4433.69 83.4743 4435.51 101.062C4435.82 105.634 4436 110.532 4436 115.808C4445.81 115.808 4453.64 115.808 4462.96 115.808C4462.96 112.534 4462.91 109.287 4462.78 106.094C4462.83 106.094 4462.91 106.094 4462.96 106.094C4462.83 104.471 4462.7 102.875 4462.57 101.251C4459.77 50.1396 4441.31 12.7732 4395.43 12.7461H4395.4H4395.38C4334.05 12.8002 4326.18 80.011 4326.18 138.563C4326.18 197.116 4334.05 264.326 4395.38 264.381H4395.4H4395.43C4453.23 264.353 4463.52 204.692 4464.53 148.791H4484.71V148.764Z" fill="#45CDF7" fill-opacity="0.53"/>
<path d="M4652.7 148.764L4619.69 121.49L4584.6 148.764H4605.12C4603.5 228.584 4582.83 235.591 4563.36 235.591C4543.1 235.591 4521.5 228.042 4521.5 138.536C4521.5 41.5352 4548.71 41.4811 4563.36 41.4811C4574.51 41.4811 4586.58 46.1621 4594.64 62.3425C4598.53 71.082 4601.67 83.4743 4603.5 101.062C4603.81 105.634 4603.99 110.532 4603.99 115.808C4613.8 115.808 4621.62 115.808 4630.94 115.808C4630.94 112.534 4630.89 109.287 4630.76 106.094C4630.81 106.094 4630.89 106.094 4630.94 106.094C4630.81 104.471 4630.68 102.875 4630.56 101.251C4627.75 50.1396 4609.29 12.7732 4563.41 12.7461H4563.39H4563.36C4502.04 12.8002 4494.16 80.011 4494.16 138.563C4494.16 197.116 4502.04 264.326 4563.36 264.381H4563.39H4563.41C4621.21 264.353 4631.51 204.692 4632.51 148.791H4652.7V148.764Z" fill="#45CDF7" fill-opacity="0.53"/>
<path d="M3990.54 13.7734C3960.24 13.7734 3955.02 25.381 3955.02 46.7021C3955.02 58.8779 3960.71 71.9465 3955.61 87.288C3949.12 106.715 3930.82 120.974 3918.82 144.46C3910.45 160.803 3913.26 179.635 3905.59 194.868C3897.04 211.833 3878.99 227.337 3878.99 241.217C3878.99 254.069 3884.14 265.46 3911.51 265.46C3975.12 265.46 4014.95 232.613 4043.4 175.711C4074.94 112.532 4062.27 13.7734 3990.54 13.7734ZM3995.08 144.541C3974.76 194.273 3943.53 245.546 3914.03 245.546C3907.47 245.546 3904.32 242.326 3904.32 238.268C3904.32 229.258 3921.45 216.351 3928.89 199.873C3932.93 190.945 3932.8 170.3 3937.59 158.259C3945.95 137.29 3968.58 113.263 3975.9 96.3523C3981.51 83.3919 3975.54 53.1688 3975.54 45.5116C3975.54 37.1779 3977.39 33.1195 3988.54 33.1195C4009.24 33.1736 4018.74 86.6117 3995.08 144.541Z" fill="#45CDF7" fill-opacity="0.53"/>
<path d="M3834.04 13.7734C3803.74 13.7734 3798.51 25.381 3798.51 46.7021C3798.51 58.8779 3804.2 71.9465 3799.1 87.288C3792.62 106.715 3774.31 120.974 3762.31 144.46C3753.95 160.803 3756.75 179.635 3749.08 194.868C3740.53 211.833 3722.49 227.337 3722.49 241.217C3722.49 254.069 3727.64 265.46 3755 265.46C3818.62 265.46 3858.45 232.613 3886.89 175.711C3918.46 112.532 3905.79 13.7734 3834.04 13.7734ZM3838.57 144.541C3818.26 194.273 3787.03 245.546 3757.53 245.546C3750.96 245.546 3747.82 242.326 3747.82 238.268C3747.82 229.258 3764.94 216.351 3772.38 199.873C3776.42 190.945 3776.29 170.3 3781.08 158.259C3789.45 137.29 3812.08 113.263 3819.39 96.3523C3825 83.3919 3819.03 53.1688 3819.03 45.5116C3819.03 37.1779 3820.88 33.1195 3832.03 33.1195C3852.73 33.1736 3862.26 86.6117 3838.57 144.541Z" fill="#45CDF7" fill-opacity="0.53"/>
<path d="M3757.45 55.1167C3757.45 24.4607 3736.85 13.6377 3696.95 13.6377C3652.33 13.6377 3633.02 40.6951 3633.02 62.801C3633.02 71.3782 3639.25 79.7118 3639.25 87.8291C3639.25 96.4063 3627.02 105.768 3627.02 114.886C3627.02 122.544 3631.32 128.875 3636.88 134.963C3629.7 139.238 3613.97 149.385 3613.97 158.855C3613.97 168.325 3620.17 185.425 3611.99 196.735C3598.14 215.892 3579.55 229.664 3579.55 248.144C3579.55 258.074 3588.61 265.732 3603.85 265.732C3686.88 265.732 3726.99 224.469 3726.99 179.608C3726.99 148.952 3699.11 139.482 3675.5 131.797C3713.68 119.134 3757.45 89.8314 3757.45 55.1167ZM3607.07 248.577C3602.2 248.577 3598.7 247.441 3598.7 243.626C3598.7 235.887 3637.17 207.72 3637.17 188.78C3637.17 172.546 3633.15 170.517 3633.15 160.884C3633.15 155.797 3642.26 149.168 3648.93 146.679C3664.07 158.855 3671.25 171.031 3671.25 196.735C3671.25 222.44 3634 248.577 3607.07 248.577ZM3655.34 123.193C3651.48 121.38 3648.26 117.727 3648.26 113.831C3648.26 106.715 3662.63 96.758 3662.63 84.2304C3662.63 71.7028 3655.99 68.51 3655.99 57.3353C3655.99 49.2181 3664.35 36.6905 3679.8 36.6905C3696.87 36.6905 3705.88 45.8359 3705.88 57.66C3705.85 88.4784 3672.72 112.37 3655.34 123.193Z" fill="#45CDF7" fill-opacity="0.53"/>
<path d="M5005.1 15.5059C4960.79 15.5059 4936.13 45.1877 4936.13 141.999C4936.13 236.591 4959.25 268.492 5005.1 268.492C5054.2 268.492 5074.07 234.372 5074.07 141.999C5074.07 45.1877 5052.65 15.5059 5005.1 15.5059ZM5035.99 138.184C5035.99 198.143 5002.09 232.884 4974.21 241.434C4974.21 194.084 4974.21 179.419 4974.21 148.519C4974.21 94.4319 5002.96 55.6318 5035.99 42.5632C5035.99 81.7962 5035.99 107.879 5035.99 138.184Z" fill="#45CDF7" fill-opacity="0.53"/>
<path d="M5164.03 15.5586C5119.72 15.5586 5095.06 45.2404 5095.06 142.051C5095.06 236.644 5118.18 268.544 5164.03 268.544C5213.13 268.544 5233 234.425 5233 142.051C5233 45.2404 5211.56 15.5586 5164.03 15.5586ZM5194.92 138.236C5194.92 198.195 5161.02 232.937 5133.14 241.487C5133.14 194.137 5133.14 179.472 5133.14 148.572C5133.14 94.4848 5161.89 55.6846 5194.92 42.6159C5194.92 81.849 5194.92 107.932 5194.92 138.236Z" fill="#45CDF7" fill-opacity="0.53"/>
<path d="M4829.03 13.7734C4766.96 13.7734 4741.58 35.9333 4741.58 76.7355C4741.58 117.781 4774.04 139.697 4829.03 139.697C4890.54 139.697 4916.49 121.136 4916.49 76.7355C4916.49 36.6097 4887.32 13.7734 4829.03 13.7734ZM4854.98 85.3936C4861.88 92.6449 4862.71 105.254 4863.2 112.83C4855.96 112.343 4843.99 111.477 4837.09 104.198C4831.35 98.1646 4829.98 89.5875 4829.26 82.2009H4828.49C4827.77 89.5875 4826.41 98.1646 4820.66 104.198C4813.77 111.45 4801.77 112.316 4794.56 112.83C4795.02 105.227 4795.85 92.6449 4802.77 85.3936C4808.51 79.3599 4816.67 77.9259 4823.7 77.1683V76.4377C4816.8 75.7072 4808.33 73.9486 4802.93 68.2666C4795.67 60.6365 4795.38 48.8936 4794.59 40.6683C4802.41 41.5341 4813.59 41.8046 4820.85 49.4347C4826.25 55.1167 4827.92 64.0186 4828.62 71.2699H4829.21C4829.91 64.0186 4831.58 55.1167 4836.99 49.4347C4844.25 41.8046 4855.42 41.507 4863.25 40.6683C4862.42 48.8936 4862.17 60.6365 4854.91 68.2666C4849.5 73.9486 4841.03 75.7072 4834.13 76.4377V77.1683C4841.08 77.9259 4849.24 79.3599 4854.98 85.3936Z" fill="#45CDF7" fill-opacity="0.53"/>
<path d="M4829.03 136.452C4766.96 136.452 4741.58 158.612 4741.58 199.414C4741.58 240.46 4774.04 262.377 4829.03 262.377C4890.54 262.377 4916.49 243.815 4916.49 199.414C4916.49 159.288 4887.32 136.452 4829.03 136.452ZM4854.98 208.046C4861.88 215.297 4862.71 227.906 4863.2 235.482C4855.96 234.995 4843.99 234.129 4837.09 226.851C4831.35 220.817 4829.98 212.24 4829.26 204.853H4828.49C4827.77 212.24 4826.41 220.817 4820.67 226.851C4813.77 234.102 4801.77 234.968 4794.56 235.482C4795.02 227.879 4795.85 215.297 4802.77 208.046C4808.51 202.012 4816.67 200.578 4823.7 199.82V199.09C4816.8 198.359 4808.33 196.6 4802.93 190.918C4795.67 183.288 4795.38 171.545 4794.59 163.32C4802.41 164.186 4813.59 164.456 4820.85 172.087C4826.25 177.769 4827.93 186.67 4828.62 193.922H4829.21C4829.91 186.67 4831.58 177.769 4836.99 172.087C4844.25 164.456 4855.42 164.159 4863.25 163.32C4862.42 171.545 4862.17 183.288 4854.91 190.918C4849.5 196.6 4841.03 198.359 4834.13 199.09V199.82C4841.08 200.578 4849.24 202.012 4854.98 208.046Z" fill="#45CDF7" fill-opacity="0.53"/>
</g>
</svg>
