<svg width="19" height="19" viewBox="0 0 19 19" fill="none" xmlns="http://www.w3.org/2000/svg">
<g clip-path="url(#clip0)">
<path d="M2.67549 2.22755H5.94677C6.21752 2.22755 6.43726 2.00781 6.43726 1.73706C6.43726 1.46632 6.21752 1.24658 5.94677 1.24658H1.77766C1.50691 1.24658 1.16455 1.55951 1.16455 1.8305V5.99962C1.16455 6.27037 1.38429 6.49011 1.65503 6.49011C1.92578 6.49011 2.14552 6.27037 2.14552 5.99962V3.30073L6.07969 7.17335C6.17558 7.26924 6.33156 7.31706 6.45712 7.31706C6.58269 7.31706 6.72345 7.26924 6.81934 7.17335C7.01088 6.98182 7.01848 6.62474 6.82695 6.43296L2.67549 2.22755Z" fill="white" stroke="white" stroke-width="0.5"/>
<path d="M17.4726 1.24658H13.3035C13.0327 1.24658 12.813 1.46632 12.813 1.73706C12.813 2.00781 13.0327 2.22755 13.3035 2.22755H16.3948L12.236 6.43296C12.0444 6.6245 12.0444 6.95827 12.236 7.1498C12.3316 7.24569 12.4572 7.30505 12.5827 7.30505C12.7083 7.30505 12.7726 7.26311 12.8682 7.16722L16.8593 3.12072V5.99937C16.8593 6.27012 17.079 6.48986 17.3498 6.48986C17.6205 6.48986 17.8402 6.27012 17.8402 5.99937V1.83026C17.8405 1.55951 17.7434 1.24658 17.4726 1.24658Z" fill="white" stroke="white" stroke-width="0.5"/>
<path d="M6.07969 12.1505L2.14552 16.0233V13.3568C2.14552 13.086 1.92578 12.8663 1.65503 12.8663C1.38429 12.8663 1.16455 13.086 1.16455 13.3568V17.5259C1.16455 17.7966 1.50691 17.9229 1.77766 17.9229H5.94677C6.21752 17.9229 6.43726 17.7032 6.43726 17.4325C6.43726 17.1618 6.21752 16.9419 5.94677 16.9419H2.64312L6.83455 12.7974C7.02608 12.6058 6.99543 12.3189 6.8039 12.1274C6.61261 11.9356 6.27098 11.9589 6.07969 12.1505Z" fill="white" stroke="white" stroke-width="0.5"/>
<path d="M17.3516 12.8663C17.0808 12.8663 16.8611 13.0861 16.8611 13.3568V16.2031L12.87 12.1505C12.6787 11.959 12.3984 11.959 12.2071 12.1505C12.0156 12.342 12.0308 12.6056 12.2223 12.7974L16.4288 16.942H13.3051C13.0343 16.942 12.8146 17.1617 12.8146 17.4325C12.8146 17.7032 13.0343 17.923 13.3051 17.923H17.4742C17.7449 17.923 17.842 17.7967 17.842 17.5259V13.3568C17.842 13.0858 17.6223 12.8663 17.3516 12.8663Z" fill="white" stroke="white" stroke-width="0.5"/>
</g>
<defs>
<clipPath id="clip0">
<rect width="18" height="18" fill="white" transform="translate(0.164551 0.246582)"/>
</clipPath>
</defs>
</svg>
