<svg width="66" height="47" viewBox="0 0 66 47" fill="none" xmlns="http://www.w3.org/2000/svg">
<g clip-path="url(#clip0)">
<mask id="mask0" mask-type="alpha" maskUnits="userSpaceOnUse" x="-1" y="0" width="68" height="48">
<path d="M66.11 0.148926H-0.890015V47.1489H66.11V0.148926Z" fill="#C4C4C4"/>
</mask>
<g mask="url(#mask0)">
<path fill-rule="evenodd" clip-rule="evenodd" d="M65.36 32.9794L64.26 28.8794C63.94 27.6994 62.95 26.9694 61.96 26.7594C60.09 26.3494 58.75 25.1494 58.34 23.6294C57.93 22.1094 58.49 20.4094 59.89 19.1294C60.64 18.4494 61.14 17.3194 60.82 16.1394L59.72 12.0394C59.31 10.5094 57.74 9.61943 56.22 10.0294L40.3 14.2694C41.16 14.9494 41.75 15.8894 42.04 16.9094L44.47 16.2594L50.25 36.8394L25.16 43.5194L24.18 39.8794C24.19 39.8694 24.2 39.8494 24.22 39.8394C25.39 38.9194 26.3 37.7194 26.84 36.3794C26.58 36.6994 26.31 37.0094 26.04 37.3194C24.63 38.8894 22.93 39.1894 21.43 38.7094C21.18 39.2794 21.09 39.9294 21.27 40.6094L22.31 44.4494C22.72 45.9794 24.29 46.8694 25.81 46.4594L63.35 36.4694C64.86 36.0694 65.78 34.5094 65.36 32.9794ZM53.15 36.0794L47.37 15.4994L56.86 12.9694L57.91 16.8694C57.9 16.8794 57.89 16.8994 57.88 16.9094C55.81 18.7894 54.69 21.5994 55.45 24.4094C56.21 27.2094 58.59 29.0894 61.32 29.6894C61.34 29.6894 61.36 29.6994 61.37 29.7094H61.38L62.43 33.6094L53.15 36.0794Z" fill="white"/>
<path fill-rule="evenodd" clip-rule="evenodd" d="M35.04 3.56924L26.89 9.02924L39.01 26.6892L47.08 21.2792L44.81 17.9292H44.8C44.78 17.9292 44.77 17.9292 44.74 17.9292C41.95 18.2492 39.09 17.2492 37.46 14.8392C35.82 12.4292 35.96 9.41924 37.3 6.96924C37.31 6.94924 37.32 6.93924 37.32 6.91924L35.04 3.56924ZM36.52 28.3592L24.4 10.6992L3.05999 25.0092L5.17999 28.1292H5.18999C5.20999 28.1292 5.22999 28.1292 5.24999 28.1292C8.22999 27.5792 11.4 28.5392 13.15 31.1292C14.91 33.7192 14.62 36.9992 12.99 39.5392C12.98 39.5592 12.97 39.5792 12.97 39.5892C12.97 39.5892 12.97 39.5892 12.97 39.5992L15.1 42.7292L36.52 28.3592ZM33.47 0.999239C34.77 0.129239 36.55 0.459239 37.44 1.76924L39.83 5.27924C40.52 6.29924 40.42 7.51924 39.93 8.40924C39.02 10.0692 39.05 11.8592 39.94 13.1692C40.83 14.4792 42.49 15.1692 44.39 14.9592C45.4 14.8492 46.57 15.2092 47.26 16.2192L49.65 19.7292C50.54 21.0392 50.19 22.8092 48.88 23.6792L16.67 45.2792C15.37 46.1492 13.59 45.8192 12.7 44.5092L10.46 41.2192C9.71999 40.1292 9.87999 38.8192 10.47 37.9092C11.59 36.1592 11.63 34.1892 10.68 32.7892C9.72999 31.3892 7.87999 30.6892 5.80999 31.0692C4.74999 31.2692 3.46999 30.9292 2.72999 29.8392L0.489992 26.5492C-0.400008 25.2392 -0.0500083 23.4692 1.25999 22.5992L33.47 0.999239Z" fill="white"/>
<path fill-rule="evenodd" clip-rule="evenodd" d="M35.04 3.56924L26.89 9.02924L39.01 26.6892L47.08 21.2792L44.81 17.9292H44.8C44.78 17.9292 44.77 17.9292 44.74 17.9292C41.95 18.2492 39.09 17.2492 37.46 14.8392C35.82 12.4292 35.96 9.41924 37.3 6.96924C37.31 6.94924 37.32 6.93924 37.32 6.91924L35.04 3.56924ZM36.52 28.3592L24.4 10.6992L3.05999 25.0092L5.17999 28.1292H5.18999C5.20999 28.1292 5.22999 28.1292 5.24999 28.1292C8.22999 27.5792 11.4 28.5392 13.15 31.1292C14.91 33.7192 14.62 36.9992 12.99 39.5392C12.98 39.5592 12.97 39.5792 12.97 39.5892C12.97 39.5892 12.97 39.5892 12.97 39.5992L15.1 42.7292L36.52 28.3592ZM33.47 0.999239C34.77 0.129239 36.55 0.459239 37.44 1.76924L39.83 5.27924C40.52 6.29924 40.42 7.51924 39.93 8.40924C39.02 10.0692 39.05 11.8592 39.94 13.1692C40.83 14.4792 42.49 15.1692 44.39 14.9592C45.4 14.8492 46.57 15.2092 47.26 16.2192L49.65 19.7292C50.54 21.0392 50.19 22.8092 48.88 23.6792L16.67 45.2792C15.37 46.1492 13.59 45.8192 12.7 44.5092L10.46 41.2192C9.71999 40.1292 9.87999 38.8192 10.47 37.9092C11.59 36.1592 11.63 34.1892 10.68 32.7892C9.72999 31.3892 7.87999 30.6892 5.80999 31.0692C4.74999 31.2692 3.46999 30.9292 2.72999 29.8392L0.489992 26.5492C-0.400008 25.2392 -0.0500083 23.4692 1.25999 22.5992L33.47 0.999239Z" fill="white"/>
<path fill-rule="evenodd" clip-rule="evenodd" d="M65.36 32.9794L64.26 28.8794C63.94 27.6994 62.95 26.9694 61.96 26.7594C60.09 26.3494 58.75 25.1494 58.34 23.6294C57.93 22.1094 58.49 20.4094 59.89 19.1294C60.64 18.4494 61.14 17.3194 60.82 16.1394L59.72 12.0394C59.31 10.5094 57.74 9.61943 56.22 10.0294L40.87 14.1194C41.79 14.7894 43.02 15.1094 44.38 14.9594C45.39 14.8494 46.56 15.2094 47.25 16.2194L47.77 16.9894L47.35 15.4994L56.84 12.9694L57.89 16.8694C57.88 16.8794 57.87 16.8994 57.86 16.9094C55.79 18.7894 54.67 21.5994 55.43 24.4094C56.19 27.2094 58.57 29.0894 61.3 29.6894C61.32 29.6894 61.34 29.6994 61.35 29.7094H61.36L62.41 33.6094L53.13 36.0794L49.5 23.1094C49.32 23.3294 49.13 23.5294 48.88 23.6894L46.92 25.0094L50.25 36.8594L25.16 43.5394L24.26 40.2094L21.63 41.9694L22.3 44.4594C22.71 45.9894 24.28 46.8794 25.8 46.4694L63.34 36.4794C64.86 36.0694 65.78 34.5094 65.36 32.9794Z" fill="white"/>
</g>
</g>
<defs>
<clipPath id="clip0">
<rect width="65.46" height="46.04" fill="white" transform="translate(0 0.519043)"/>
</clipPath>
</defs>
</svg>
