<svg width="44" height="33" viewBox="0 0 44 33" fill="none" xmlns="http://www.w3.org/2000/svg">
<path d="M31.2249 11.4437L34.7311 24.5293M38.1995 16.8335C37.832 15.4621 38.3604 14.0337 39.4548 13.0317C39.718 12.7907 39.8551 12.4302 39.7627 12.0854L39.067 9.48919C38.9448 9.03322 38.4762 8.76263 38.0202 8.88481L14.3812 15.2189C13.9252 15.341 13.6546 15.8097 13.7768 16.2657L14.4288 18.6989C14.5273 19.0669 14.8592 19.3173 15.2359 19.3738C16.8324 19.6131 18.1544 20.6262 18.5489 22.0988C18.9435 23.5714 18.3052 25.1097 17.0423 26.1152C16.7443 26.3525 16.5821 26.7353 16.6807 27.1032L17.3327 29.5367C17.4549 29.9926 17.9236 30.2632 18.3796 30.1411L42.0186 23.807C42.4745 23.6848 42.7451 23.2161 42.623 22.7602L41.9273 20.1638C41.8349 19.8191 41.536 19.5754 41.1875 19.4983C39.7387 19.1777 38.567 18.2049 38.1995 16.8335Z" stroke="#161310" stroke-width="1.6"/>
<path d="M31.2249 11.4437L34.7311 24.5293M38.1995 16.8335C37.832 15.4621 38.3604 14.0337 39.4548 13.0317C39.718 12.7907 39.8551 12.4302 39.7627 12.0854L39.067 9.48919C38.9448 9.03322 38.4762 8.76263 38.0202 8.88481L14.3812 15.2189C13.9252 15.341 13.6546 15.8097 13.7768 16.2657L14.4288 18.6989C14.5273 19.0669 14.8592 19.3173 15.2359 19.3738C16.8324 19.6131 18.1544 20.6262 18.5489 22.0988C18.9435 23.5714 18.3052 25.1097 17.0423 26.1152C16.7443 26.3525 16.5821 26.7353 16.6807 27.1032L17.3327 29.5367C17.4549 29.9926 17.9236 30.2632 18.3796 30.1411L42.0186 23.807C42.4745 23.6848 42.7451 23.2161 42.623 22.7602L41.9273 20.1638C41.8349 19.8191 41.536 19.5754 41.1875 19.4983C39.7387 19.1777 38.567 18.2049 38.1995 16.8335Z" stroke="#161310" stroke-width="1.6"/>
<path d="M3.47119 17.9062C3.20708 17.515 3.31015 16.9837 3.70141 16.7196L23.9854 3.02713C24.3767 2.76302 24.908 2.86609 25.1721 3.25735L26.6759 5.48512C26.8756 5.78093 26.8635 6.16638 26.6932 6.48002C25.9851 7.78399 25.9511 9.30659 26.7455 10.4834C27.5399 11.6601 28.9647 12.198 30.4389 12.0289C30.7934 11.9882 31.1554 12.1211 31.3551 12.4169L32.859 14.6448C33.1231 15.0361 33.0201 15.5674 32.6288 15.8315L12.3448 29.5239C11.9535 29.788 11.4223 29.6849 11.1581 29.2937L9.74862 27.2056C9.53551 26.8899 9.56408 26.4751 9.76848 26.1537C10.6347 24.7915 10.7368 23.1291 9.88386 21.8655C9.03089 20.6019 7.45097 20.075 5.86364 20.3691C5.4891 20.4384 5.09371 20.3098 4.88059 19.9941L3.47119 17.9062Z" fill="white"/>
<path d="M18.3951 7.66097L25.9747 18.8894M26.7455 10.4834C25.9511 9.30659 25.9851 7.78399 26.6932 6.48002C26.8635 6.16638 26.8756 5.78093 26.6759 5.48512L25.1721 3.25735C24.908 2.86609 24.3767 2.76302 23.9854 3.02713L3.70141 16.7196C3.31015 16.9837 3.20708 17.515 3.47119 17.9062L4.88059 19.9941C5.09371 20.3098 5.4891 20.4384 5.86364 20.3691C7.45097 20.075 9.03089 20.6019 9.88386 21.8655C10.7368 23.1291 10.6347 24.7915 9.76848 26.1537C9.56408 26.4751 9.53551 26.8899 9.74863 27.2056L11.1581 29.2937C11.4223 29.6849 11.9535 29.788 12.3448 29.5239L32.6288 15.8315C33.0201 15.5674 33.1231 15.0361 32.859 14.6448L31.3551 12.4169C31.1554 12.1211 30.7934 11.9882 30.4389 12.0289C28.9647 12.198 27.5399 11.6601 26.7455 10.4834Z" stroke="#161310" stroke-width="1.6"/>
<path d="M18.3951 7.66097L25.9747 18.8894M26.7455 10.4834C25.9511 9.30659 25.9851 7.78399 26.6932 6.48002C26.8635 6.16638 26.8756 5.78093 26.6759 5.48512L25.1721 3.25735C24.908 2.86609 24.3767 2.76302 23.9854 3.02713L3.70141 16.7196C3.31015 16.9837 3.20708 17.515 3.47119 17.9062L4.88059 19.9941C5.09371 20.3098 5.4891 20.4384 5.86364 20.3691C7.45097 20.075 9.03089 20.6019 9.88386 21.8655C10.7368 23.1291 10.6347 24.7915 9.76848 26.1537C9.56408 26.4751 9.53551 26.8899 9.74863 27.2056L11.1581 29.2937C11.4223 29.6849 11.9535 29.788 12.3448 29.5239L32.6288 15.8315C33.0201 15.5674 33.1231 15.0361 32.859 14.6448L31.3551 12.4169C31.1554 12.1211 30.7934 11.9882 30.4389 12.0289C28.9647 12.198 27.5399 11.6601 26.7455 10.4834Z" stroke="#161310" stroke-width="1.6"/>
</svg>
