<svg width="1205" height="427" viewBox="0 0 1205 427" fill="none" xmlns="http://www.w3.org/2000/svg">
<path d="M7.31445 4.2981V4.2981C7.31445 19.7372 19.8303 32.253 35.2694 32.253H350.674C378.288 32.253 400.674 54.6388 400.674 82.253V111.964C400.674 139.579 378.288 161.964 350.674 161.964H57.3145C29.7003 161.964 7.31445 184.35 7.31445 211.964V279.695C7.31445 307.309 29.7002 329.695 57.3145 329.695H732.086C759.701 329.695 782.086 307.309 782.086 279.695V82.2531C782.086 54.6388 804.472 32.253 832.086 32.253H1153.94C1181.55 32.253 1203.94 54.6388 1203.94 82.253V311.004C1203.94 338.619 1181.55 361.004 1153.94 361.004H647.354C619.74 361.004 597.354 383.39 597.354 411.004V426.978" stroke="#FF5E32" stroke-width="2"/>
<circle cx="7.31445" cy="7.323" r="6" fill="white" stroke="#FF5E32" stroke-width="2"/>
<circle cx="512.204" cy="329.285" r="6" fill="white" stroke="#FF5E32" stroke-width="2"/>
<circle cx="836.373" cy="32.8833" r="6" fill="white" stroke="#FF5E32" stroke-width="2"/>
<circle cx="71.925" cy="329.285" r="6" fill="white" stroke="#FF5E32" stroke-width="2"/>
</svg>
