<svg width="326" height="1253" viewBox="0 0 326 1253" fill="none" xmlns="http://www.w3.org/2000/svg">
<path d="M324.979 0.555664V0.555664C324.979 20.4546 308.848 36.5859 288.949 36.5859H41.1537C19.0624 36.5859 1.15381 54.4945 1.15381 76.5859V163.767C1.15381 185.858 19.0624 203.767 41.1538 203.767H284.98C307.071 203.767 324.979 221.675 324.979 243.767V432.544C324.979 454.635 307.071 472.544 284.979 472.544H115.314H41.1539C19.0625 472.544 1.15381 490.452 1.15381 512.544V803.666C1.15381 825.757 19.0624 843.666 41.1538 843.666H284.98C307.071 843.666 324.979 861.575 324.979 883.666V1161.01C324.979 1183.1 307.071 1201.01 284.979 1201.01H41.1537C19.0624 1201.01 1.15381 1218.92 1.15381 1241.01V1252.39" stroke="#FF5E32" stroke-width="2"/>
<ellipse cx="46.9717" cy="35.8316" rx="4.05079" ry="4" transform="rotate(90 46.9717 35.8316)" fill="white" stroke="#FF5E32" stroke-width="2"/>
<ellipse cx="46.9717" cy="473.171" rx="4.05079" ry="4" transform="rotate(90 46.9717 473.171)" fill="white" stroke="#FF5E32" stroke-width="2"/>
<ellipse cx="46.7407" cy="843.598" rx="4.05079" ry="4" transform="rotate(90 46.7407 843.598)" fill="white" stroke="#FF5E32" stroke-width="2"/>
<ellipse cx="46.9258" cy="1200.85" rx="4.05079" ry="4" transform="rotate(90 46.9258 1200.85)" fill="white" stroke="#FF5E32" stroke-width="2"/>
</svg>
