<svg width="710" height="434" viewBox="0 0 710 434" fill="none" xmlns="http://www.w3.org/2000/svg">
<path d="M1.82983 0.330566V0.330566C1.82983 17.1603 15.473 30.8034 32.3027 30.8034H194.143C216.235 30.8034 234.143 48.712 234.143 70.8034V132.198C234.143 154.289 216.235 172.198 194.143 172.198H41.8298C19.7384 172.198 1.82983 190.107 1.82983 212.198V315.036C1.82983 337.127 19.7384 355.036 41.8298 355.036H419.401C441.492 355.036 459.401 337.127 459.401 315.036V70.8034C459.401 48.712 477.31 30.8034 499.401 30.8034H668.541C690.633 30.8034 708.541 48.712 708.541 70.8034V349.166C708.541 371.257 690.633 389.166 668.541 389.166H390.3C368.209 389.166 350.3 407.074 350.3 429.166V433.745" stroke="#FF5E32" stroke-width="2"/>
<circle cx="9.46143" cy="20.5862" r="6" fill="white" stroke="#FF5E32" stroke-width="2"/>
<circle cx="286.646" cy="354.049" r="6" fill="white" stroke="#FF5E32" stroke-width="2"/>
<circle cx="509.179" cy="30.049" r="6" fill="white" stroke="#FF5E32" stroke-width="2"/>
<circle cx="52.7205" cy="354.049" r="6" fill="white" stroke="#FF5E32" stroke-width="2"/>
</svg>
