<svg width="95" height="95" viewBox="0 0 95 95" fill="none" xmlns="http://www.w3.org/2000/svg">
<path d="M47.3716 1.27759V36.2477" stroke="#161310" stroke-width="2" stroke-miterlimit="10" stroke-linecap="round" stroke-linejoin="round"/>
<path d="M47.3716 59.0132V93.9833" stroke="#161310" stroke-width="2" stroke-miterlimit="10" stroke-linecap="round" stroke-linejoin="round"/>
<path d="M1.02539 47.5851H35.9955" stroke="#161310" stroke-width="2" stroke-miterlimit="10" stroke-linecap="round" stroke-linejoin="round"/>
<path d="M58.7612 47.5851H93.7313" stroke="#161310" stroke-width="2" stroke-miterlimit="10" stroke-linecap="round" stroke-linejoin="round"/>
<path d="M14.6147 14.8282L39.3346 39.5481" stroke="#161310" stroke-width="2" stroke-miterlimit="10" stroke-linecap="round" stroke-linejoin="round"/>
<path d="M55.4348 55.6482L80.1676 80.3809" stroke="#161310" stroke-width="2" stroke-miterlimit="10" stroke-linecap="round" stroke-linejoin="round"/>
<path d="M14.5891 80.3552L39.3089 55.6224" stroke="#161310" stroke-width="2" stroke-miterlimit="10" stroke-linecap="round" stroke-linejoin="round"/>
<path d="M84.322 27.1881L86.4187 31.4332L91.1038 32.1191L87.7129 35.4194L88.5153 40.0787L84.322 37.8785L80.1417 40.0787L80.9441 35.4194L77.5532 32.1191L82.2383 31.4332L84.322 27.1881Z" stroke="#161310" stroke-width="2" stroke-miterlimit="10" stroke-linecap="round" stroke-linejoin="round"/>
<path d="M33.1612 3.72372L34.5848 6.59692L37.7557 7.06284L35.4649 9.30186L35.9955 12.4598L33.1612 10.9714L30.3268 12.4598L30.8574 9.30186L28.5667 7.06284L31.7375 6.59692L33.1612 3.72372Z" stroke="#161310" stroke-width="2" stroke-miterlimit="10" stroke-linecap="round" stroke-linejoin="round"/>
<path d="M31.5434 77.1065L33.4588 81.0022L37.7557 81.6234L34.6495 84.6519L35.3872 88.9229L31.5434 86.9039L27.7124 88.9229L28.4372 84.6519L25.3311 81.6234L29.6279 81.0022L31.5434 77.1065Z" stroke="#161310" stroke-width="2" stroke-miterlimit="10" stroke-linecap="round" stroke-linejoin="round"/>
<path d="M35.8921 19.7332L44.0846 37.3089" stroke="#161310" stroke-width="2" stroke-miterlimit="10" stroke-linecap="round" stroke-linejoin="round"/>
<path d="M51.345 58.0555L59.5374 75.6312" stroke="#161310" stroke-width="2" stroke-miterlimit="10" stroke-linecap="round" stroke-linejoin="round"/>
<path d="M35.9824 75.7089L42.6089 57.4861" stroke="#161310" stroke-width="2" stroke-miterlimit="10" stroke-linecap="round" stroke-linejoin="round"/>
<path d="M52.1475 37.6843L58.7739 19.4615" stroke="#161310" stroke-width="2" stroke-miterlimit="10" stroke-linecap="round" stroke-linejoin="round"/>
<path d="M19.261 36.1959L37.4708 42.8224" stroke="#161310" stroke-width="2" stroke-miterlimit="10" stroke-linecap="round" stroke-linejoin="round"/>
<path d="M57.2727 52.361L75.4955 58.9874" stroke="#161310" stroke-width="2" stroke-miterlimit="10" stroke-linecap="round" stroke-linejoin="round"/>
<path d="M19.4292 59.4144L37.0049 51.2219" stroke="#161310" stroke-width="2" stroke-miterlimit="10" stroke-linecap="round" stroke-linejoin="round"/>
<path d="M57.7515 43.9613L75.3271 35.7688" stroke="#161310" stroke-width="2" stroke-miterlimit="10" stroke-linecap="round" stroke-linejoin="round"/>
<path d="M55.4607 39.5092L80.1676 14.8282" stroke="#161310" stroke-width="2" stroke-miterlimit="10" stroke-linecap="round" stroke-linejoin="round"/>
<path d="M54.2959 14.8282L57.2726 3.72372" stroke="#161310" stroke-width="2" stroke-miterlimit="10" stroke-linecap="round" stroke-linejoin="round"/>
<path d="M4.06665 37.6843L15.7406 40.0786" stroke="#161310" stroke-width="2" stroke-miterlimit="10" stroke-linecap="round" stroke-linejoin="round"/>
<path d="M9.90381 70.9719L19.4294 65.1349" stroke="#161310" stroke-width="2" stroke-miterlimit="10" stroke-linecap="round" stroke-linejoin="round"/>
<path d="M65.3486 74.3111L72.0139 84.5096" stroke="#161310" stroke-width="2" stroke-miterlimit="10" stroke-linecap="round" stroke-linejoin="round"/>
<path d="M79.1064 55.3117L91.104 58.0555" stroke="#161310" stroke-width="2" stroke-miterlimit="10" stroke-linecap="round" stroke-linejoin="round"/>
</svg>
