<svg width="63" height="63" viewBox="0 0 63 63" fill="none" xmlns="http://www.w3.org/2000/svg">
<path d="M14.094 13.628C14.094 13.628 19.704 20.708 30.624 20.708C41.544 20.708 48.624 13.628 48.624 13.628C48.624 13.628 52.904 28.678 59.104 36.348C65.304 44.018 56.304 43.578 56.304 43.578V61.578H6.12404V43.738C6.12404 43.738 -0.95596 42.848 3.32404 36.508C7.60404 30.168 13.944 19.538 14.094 13.628Z" stroke="#161310" stroke-width="2" stroke-miterlimit="10" stroke-linecap="round" stroke-linejoin="round"/>
<path d="M14.2542 10.678C27.0942 10.678 27.2242 1.67798 27.2242 1.67798H14.0942V13.628C14.0942 13.628 23.7542 37.948 45.2842 43.598" stroke="#161310" stroke-width="2" stroke-miterlimit="10" stroke-linecap="round" stroke-linejoin="round"/>
<path d="M48.7841 10.678C61.6241 10.678 61.7541 1.67798 61.7541 1.67798H48.6241V13.628C48.6241 13.628 38.5741 31.018 30.7241 35.368" stroke="#161310" stroke-width="2" stroke-miterlimit="10" stroke-linecap="round" stroke-linejoin="round"/>
<path d="M22.894 42.798C22.894 44.338 21.644 45.578 20.114 45.578C18.574 45.578 17.334 44.328 17.334 42.798" stroke="#161310" stroke-width="2" stroke-miterlimit="10" stroke-linecap="round" stroke-linejoin="round"/>
<path d="M11.7641 42.798C11.7641 44.338 10.5141 45.578 8.9841 45.578C7.4541 45.578 6.2041 44.328 6.2041 42.798" stroke="#161310" stroke-width="2" stroke-miterlimit="10" stroke-linecap="round" stroke-linejoin="round"/>
<path d="M31.244 45.578C31.244 45.578 27.284 61.588 20.394 61.588" stroke="#161310" stroke-width="2" stroke-miterlimit="10" stroke-linecap="round" stroke-linejoin="round"/>
<path d="M31.3843 45.578C31.3843 45.578 35.3443 61.588 42.2343 61.588" stroke="#161310" stroke-width="2" stroke-miterlimit="10" stroke-linecap="round" stroke-linejoin="round"/>
<path d="M17.3242 42.798C17.3242 44.338 16.0742 45.578 14.5442 45.578C13.0142 45.578 11.7642 44.328 11.7642 42.798" stroke="#161310" stroke-width="2" stroke-miterlimit="10" stroke-linecap="round" stroke-linejoin="round"/>
<path d="M39.5942 42.798C39.5942 44.338 38.3442 45.578 36.8142 45.578C35.2742 45.578 34.0342 44.328 34.0342 42.798" stroke="#161310" stroke-width="2" stroke-miterlimit="10" stroke-linecap="round" stroke-linejoin="round"/>
<path d="M28.4638 42.798C28.4638 44.338 27.2138 45.578 25.6838 45.578C24.1438 45.578 22.9038 44.328 22.9038 42.798" stroke="#161310" stroke-width="2" stroke-miterlimit="10" stroke-linecap="round" stroke-linejoin="round"/>
<path d="M34.0239 42.798C34.0239 44.338 32.7739 45.578 31.2439 45.578C29.7139 45.578 28.4639 44.328 28.4639 42.798" stroke="#161310" stroke-width="2" stroke-miterlimit="10" stroke-linecap="round" stroke-linejoin="round"/>
<path d="M56.2939 42.798C56.2939 44.338 55.0439 45.578 53.5139 45.578C51.9739 45.578 50.7339 44.328 50.7339 42.798" stroke="#161310" stroke-width="2" stroke-miterlimit="10" stroke-linecap="round" stroke-linejoin="round"/>
<path d="M45.164 42.798C45.164 44.338 43.914 45.578 42.384 45.578C40.844 45.578 39.604 44.328 39.604 42.798" stroke="#161310" stroke-width="2" stroke-miterlimit="10" stroke-linecap="round" stroke-linejoin="round"/>
<path d="M50.7241 42.798C50.7241 44.338 49.4741 45.578 47.9441 45.578C46.4141 45.578 45.1641 44.328 45.1641 42.798" stroke="#161310" stroke-width="2" stroke-miterlimit="10" stroke-linecap="round" stroke-linejoin="round"/>
</svg>
