<svg width="66" height="76" viewBox="0 0 66 76" fill="none" xmlns="http://www.w3.org/2000/svg">
<path d="M22.4711 10.8834L19.5896 20.5879" stroke="#161310" stroke-width="1.6" stroke-miterlimit="10" stroke-linecap="round" stroke-linejoin="round"/>
<path d="M22.4712 22.5532L26.1366 18.9209" stroke="#161310" stroke-width="1.6" stroke-miterlimit="10" stroke-linecap="round" stroke-linejoin="round"/>
<path d="M24.304 25.6553L33.9311 22.9946" stroke="#161310" stroke-width="1.6" stroke-miterlimit="10" stroke-linecap="round" stroke-linejoin="round"/>
<path d="M24.304 28.8461L29.1175 30.4469" stroke="#161310" stroke-width="1.6" stroke-miterlimit="10" stroke-linecap="round" stroke-linejoin="round"/>
<path d="M22.4712 31.8601L29.7688 38.959" stroke="#161310" stroke-width="1.6" stroke-miterlimit="10" stroke-linecap="round" stroke-linejoin="round"/>
<path d="M16.377 33.2843L13.6279 43.3862" stroke="#161310" stroke-width="1.6" stroke-miterlimit="10" stroke-linecap="round" stroke-linejoin="round"/>
<path d="M9.37744 35.4151L13.1863 31.8601" stroke="#161310" stroke-width="1.6" stroke-miterlimit="10" stroke-linecap="round" stroke-linejoin="round"/>
<path d="M13.1864 22.5532L6.27515 15.366" stroke="#161310" stroke-width="1.6" stroke-miterlimit="10" stroke-linecap="round" stroke-linejoin="round"/>
<path d="M16.3771 21.3166L15.0081 15.7302" stroke="#161310" stroke-width="1.6" stroke-miterlimit="10" stroke-linecap="round" stroke-linejoin="round"/>
<path d="M11.7731 28.8461L1.74854 31.8601" stroke="#161310" stroke-width="1.6" stroke-miterlimit="10" stroke-linecap="round" stroke-linejoin="round"/>
<path d="M17.8896 26.9912L29.769 70.7881" stroke="#161310" stroke-width="1.6" stroke-miterlimit="10" stroke-linecap="round" stroke-linejoin="round"/>
<path d="M6.27515 24.3307L11.7732 25.6555" stroke="#161310" stroke-width="1.6" stroke-miterlimit="10" stroke-linecap="round" stroke-linejoin="round"/>
<path d="M61.0131 19.0312L53.6382 25.9646" stroke="#161310" stroke-width="1.6" stroke-miterlimit="10" stroke-linecap="round" stroke-linejoin="round"/>
<path d="M55.1287 29.111L60.1299 27.8303" stroke="#161310" stroke-width="1.6" stroke-miterlimit="10" stroke-linecap="round" stroke-linejoin="round"/>
<path d="M55.1396 32.7212L64.7999 35.2825" stroke="#161310" stroke-width="1.6" stroke-miterlimit="10" stroke-linecap="round" stroke-linejoin="round"/>
<path d="M53.5386 35.4813L56.8838 39.2902" stroke="#161310" stroke-width="1.6" stroke-miterlimit="10" stroke-linecap="round" stroke-linejoin="round"/>
<path d="M50.4365 37.1594L53.1524 46.9632" stroke="#161310" stroke-width="1.6" stroke-miterlimit="10" stroke-linecap="round" stroke-linejoin="round"/>
<path d="M44.4525 35.3047L36.9893 42.6465" stroke="#161310" stroke-width="1.6" stroke-miterlimit="10" stroke-linecap="round" stroke-linejoin="round"/>
<path d="M37.3315 33.6155L42.4211 32.4784" stroke="#161310" stroke-width="1.6" stroke-miterlimit="10" stroke-linecap="round" stroke-linejoin="round"/>
<path d="M47.1133 24.4299L44.7617 14.7476" stroke="#161310" stroke-width="1.6" stroke-miterlimit="10" stroke-linecap="round" stroke-linejoin="round"/>
<path d="M50.4915 24.9709L52.1254 19.4618" stroke="#161310" stroke-width="1.6" stroke-miterlimit="10" stroke-linecap="round" stroke-linejoin="round"/>
<path d="M42.7082 29.1552L32.54 26.7042" stroke="#161310" stroke-width="1.6" stroke-miterlimit="10" stroke-linecap="round" stroke-linejoin="round"/>
<path d="M48.9348 30.6346L37.0996 74.4536" stroke="#161310" stroke-width="1.6" stroke-miterlimit="10" stroke-linecap="round" stroke-linejoin="round"/>
<path d="M40.2463 22.4758L44.3202 26.3951" stroke="#161310" stroke-width="1.6" stroke-miterlimit="10" stroke-linecap="round" stroke-linejoin="round"/>
<path d="M33.931 6.50049C35.4615 6.50049 36.7021 5.25982 36.7021 3.72937C36.7021 2.19892 35.4615 0.958252 33.931 0.958252C32.4006 0.958252 31.1599 2.19892 31.1599 3.72937C31.1599 5.25982 32.4006 6.50049 33.931 6.50049Z" stroke="#161310" stroke-width="1.6" stroke-miterlimit="10" stroke-linecap="round" stroke-linejoin="round"/>
<path d="M56.8839 61.2604C58.4144 61.2604 59.655 60.0197 59.655 58.4893C59.655 56.9588 58.4144 55.7181 56.8839 55.7181C55.3535 55.7181 54.1128 56.9588 54.1128 58.4893C54.1128 60.0197 55.3535 61.2604 56.8839 61.2604Z" stroke="#161310" stroke-width="1.6" stroke-miterlimit="10" stroke-linecap="round" stroke-linejoin="round"/>
<path d="M13.0537 54.9785L14.1909 57.2859L16.7522 57.6613L14.8975 59.4609L15.3391 62.0002L13.0537 60.8078L10.7684 62.0002L11.21 59.4609L9.35522 57.6613L11.9166 57.2859L13.0537 54.9785Z" stroke="#161310" stroke-width="1.6" stroke-miterlimit="10" stroke-linecap="round" stroke-linejoin="round"/>
</svg>
