<svg width="1157" height="191" viewBox="0 0 1157 191" fill="none" xmlns="http://www.w3.org/2000/svg">
<path d="M7.50098 133.803V139.282C7.50098 166.896 29.8867 189.282 57.501 189.282H136.472C164.086 189.282 186.472 166.896 186.472 139.282V51.5078C186.472 23.8936 208.858 1.50781 236.472 1.50781H338.537C366.151 1.50781 388.537 23.8936 388.537 51.5078V139.282C388.537 166.896 410.922 189.282 438.537 189.282H519.817C547.432 189.282 569.817 166.896 569.817 139.282V51.5078C569.817 23.8936 592.203 1.50781 619.817 1.50781H714.954C742.568 1.50781 764.954 23.8936 764.954 51.5078V139.282C764.954 166.896 787.34 189.282 814.954 189.282H896.234C923.849 189.282 946.234 166.896 946.234 139.282V51.5078C946.234 23.8936 968.62 1.50781 996.234 1.50781H1102.51C1128.44 1.50781 1149.45 22.5253 1149.45 48.4516V48.4516" stroke="#161310" stroke-opacity="0.5" stroke-width="2"/>
<rect x="373.166" y="52.8433" width="32.8149" height="88.3046" fill="white"/>
<rect x="744.898" y="52.6377" width="32.8149" height="88.3046" fill="white"/>
<circle cx="7.83594" cy="131.957" r="6" fill="white" stroke="#161310" stroke-opacity="0.5" stroke-width="2"/>
<circle cx="388.528" cy="137.957" r="6" fill="white" stroke="#161310" stroke-opacity="0.5" stroke-width="2"/>
<circle cx="765.978" cy="136.917" r="6" fill="white" stroke="#161310" stroke-opacity="0.5" stroke-width="2"/>
<circle cx="1149.73" cy="46.6377" r="6" fill="white" stroke="#161310" stroke-opacity="0.5" stroke-width="2"/>
</svg>
