<svg width="676" height="140" viewBox="0 0 676 140" fill="none" xmlns="http://www.w3.org/2000/svg">
<path d="M5.31396 98.3247V108.979C5.31396 125.547 18.7454 138.979 35.314 138.979H116.097C132.666 138.979 146.097 125.547 146.097 108.979V31.3809C146.097 14.8123 159.529 1.38086 176.097 1.38086H198.324C214.892 1.38086 228.324 14.8123 228.324 31.3809V108.979C228.324 125.547 241.755 138.979 258.324 138.979H286.361C302.93 138.979 316.361 125.547 316.361 108.979V31.3809C316.361 14.8123 329.792 1.38086 346.361 1.38086L361.69 1.38086C378.258 1.38086 391.69 14.8123 391.69 31.3809V108.979C391.69 125.547 405.121 138.979 421.69 138.979H457.644C474.213 138.979 487.644 125.547 487.644 108.979V31.3809C487.644 14.8123 501.076 1.38086 517.644 1.38086L646.138 1.38086C657.881 1.38086 668.04 9.55576 670.552 21.0265V21.0265" stroke="#161310" stroke-opacity="0.5" stroke-width="2"/>
<rect x="0.898438" y="28.1752" width="127.619" height="82.0603" fill="white"/>
<rect x="176.212" y="27.2563" width="128.534" height="82.0603" fill="white"/>
<rect x="347.505" y="27.2563" width="128.534" height="82.0603" fill="white"/>
<ellipse cx="5.50993" cy="105.849" rx="3.51164" ry="3.46761" fill="white" stroke="#161310" stroke-opacity="0.5" stroke-width="2"/>
<ellipse cx="228.319" cy="109.317" rx="3.51164" ry="3.46761" fill="white" stroke="#161310" stroke-opacity="0.5" stroke-width="2"/>
<ellipse cx="390.983" cy="108.716" rx="3.51164" ry="3.46761" fill="white" stroke="#161310" stroke-opacity="0.5" stroke-width="2"/>
<ellipse cx="670.552" cy="23.7887" rx="3.51164" ry="3.46761" fill="white" stroke="#161310" stroke-opacity="0.5" stroke-width="2"/>
</svg>
