<svg width="320" height="504" viewBox="0 0 320 504" fill="none" xmlns="http://www.w3.org/2000/svg">
<path d="M40.8757 5.63011L28.2438 5.63011C13.2454 5.63011 1.08691 17.7887 1.08691 32.787V32.787C1.08691 47.7853 13.2455 59.9439 28.2438 59.9439L288.113 59.9439C304.682 59.9439 318.113 73.3754 318.113 89.9439L318.113 91.2659C318.113 107.834 304.682 121.266 288.113 121.266L28.5942 121.266C13.4023 121.266 1.08691 133.581 1.08691 148.773V148.773C1.08691 163.965 13.4023 176.281 28.5942 176.281L288.504 176.281C304.857 176.281 318.113 189.537 318.113 205.89V205.89C318.113 222.243 304.857 235.5 288.504 235.5L28.5942 235.5C13.4024 235.5 1.0869 247.815 1.0869 263.007V263.007C1.0869 278.199 13.4023 290.515 28.5942 290.515L288.113 290.515C304.682 290.515 318.113 303.946 318.113 320.515L318.113 322.187C318.113 338.756 304.682 352.187 288.113 352.187L31.0869 352.187C14.5184 352.187 1.0869 365.845 1.0869 382.414V382.414C1.0869 398.982 14.5184 412.64 31.0869 412.64L88.5241 412.64" stroke="#161310" stroke-opacity="0.5" stroke-width="2"/>
<rect x="259.117" y="148" width="66.4409" height="223.426" transform="rotate(90 259.117 148)" fill="white"/>
<rect x="259.117" y="24.2828" width="66.4409" height="223.426" transform="rotate(90 259.117 24.2828)" fill="white"/>
<rect x="259.117" y="250.914" width="66.4409" height="223.426" transform="rotate(90 259.117 250.914)" fill="white"/>
<rect x="276.789" y="365.852" width="137.467" height="241.098" transform="rotate(90 276.789 365.852)" fill="white"/>
<rect x="86.8433" y="437.209" width="19.2057" height="51.0343" transform="rotate(90 86.8433 437.209)" fill="white"/>
<ellipse cx="37.002" cy="290.146" rx="4.05079" ry="4" transform="rotate(90 37.002 290.146)" fill="white" stroke="#161310" stroke-opacity="0.5" stroke-width="2"/>
<ellipse cx="37.2622" cy="176.071" rx="4.05079" ry="4" transform="rotate(90 37.2622 176.071)" fill="white" stroke="#161310" stroke-opacity="0.5" stroke-width="2"/>
<ellipse cx="37.2622" cy="5.62989" rx="4.05079" ry="4" transform="rotate(90 37.2622 5.62989)" fill="white" stroke="#161310" stroke-opacity="0.5" stroke-width="2"/>
<ellipse cx="37.002" cy="411.865" rx="4.05079" ry="4" transform="rotate(90 37.002 411.865)" fill="white" stroke="#161310" stroke-opacity="0.5" stroke-width="2"/>
</svg>
