<svg width="107" height="19" viewBox="0 0 107 19" fill="none" xmlns="http://www.w3.org/2000/svg">
<path d="M92.0066 13.9671H86.8362V3.49001H92.0066V13.9671V13.9671ZM84.9956 15.7849H93.843V1.67222H84.9956V15.7849Z" fill="#57D395"/>
<path d="M76.1382 8.72735L73.6994 6.36009L76.8284 3.23267L79.9574 6.36009L77.5186 8.72735L79.9574 11.0946L76.8284 14.222L73.6994 11.0946L76.1382 8.72735ZM76.8284 0.617535L71.0975 6.36009L73.5321 8.72735L71.0975 11.0946L76.8284 16.8372L82.4966 11.1607L82.5635 11.0946L80.1289 8.72735L82.5635 6.36009L76.8284 0.617535Z" fill="#57D395"/>
<path d="M99.1213 3.49001H104.292V13.9671H99.1213V3.49001ZM97.2807 15.7849H106.132V1.67222H97.2807V15.7849Z" fill="#57D395"/>
<path d="M0.585411 15.7423V1.53878H6.88108V3.40614H2.62261V15.7423H0.585411Z" fill="#57D395"/>
<path d="M11.112 10.8557C11.3672 11.525 11.727 12.1034 12.1829 12.5909C12.6389 13.0784 13.1869 13.4584 13.8227 13.7311C14.4586 14.0038 15.1655 14.1401 15.9436 14.1401C16.7342 14.1401 17.4495 14.0038 18.0937 13.7311C18.738 13.4584 19.2901 13.0784 19.7461 12.5909C20.2021 12.1034 20.5576 11.525 20.8044 10.8557C21.0554 10.1864 21.1809 9.44692 21.1809 8.63718C21.1809 7.84396 21.0512 7.10858 20.7961 6.43104C20.5409 5.75351 20.1811 5.16686 19.7252 4.67523C19.2692 4.1836 18.717 3.79938 18.0728 3.52671C17.4286 3.25405 16.7175 3.11771 15.9436 3.11771C15.153 3.11771 14.4418 3.25405 13.8018 3.52671C13.166 3.79938 12.618 4.1836 12.1578 4.67523C11.7019 5.16686 11.3463 5.75351 11.0995 6.43104C10.8485 7.10858 10.7272 7.84396 10.7272 8.63718C10.7272 9.44692 10.8569 10.1864 11.112 10.8557ZM9.13759 5.68327C9.50571 4.77851 10.0119 4.00182 10.6644 3.34494C11.317 2.68805 12.0867 2.17577 12.9819 1.80395C13.8771 1.43626 14.856 1.25035 15.9227 1.25035C17.0187 1.25035 18.0184 1.43626 18.9262 1.80395C19.8339 2.17164 20.612 2.68805 21.2646 3.34494C21.9172 4.00182 22.4233 4.78264 22.7831 5.68327C23.1428 6.58804 23.3227 7.56303 23.3227 8.62065C23.3227 9.67828 23.1428 10.6533 22.7831 11.558C22.4233 12.4628 21.9172 13.2395 21.2646 13.8964C20.612 14.5533 19.8339 15.0697 18.9262 15.4456C18.0184 15.8216 17.0229 16.0116 15.9436 16.0116C14.8643 16.0116 13.8687 15.8298 12.961 15.4663C12.0533 15.1027 11.2794 14.5946 10.631 13.9377C9.98677 13.2808 9.48479 12.5 9.12504 11.5952C8.76529 10.6946 8.58541 9.7072 8.58541 8.64131C8.58959 7.57129 8.77365 6.58804 9.13759 5.68327Z" fill="#57D395"/>
<path d="M27.7242 7.61248H29.3054C30.0417 7.61248 30.5896 7.41417 30.9578 7.01756C31.3259 6.62096 31.5099 6.08801 31.5099 5.4146C31.5099 4.75772 31.3259 4.2413 30.9578 3.86535C30.5896 3.4894 30.0417 3.29936 29.3054 3.29936H27.7242V7.61248ZM33.3171 7.07953C33.1079 7.57116 32.8193 7.98843 32.4553 8.33133C32.0872 8.67423 31.6438 8.93451 31.1251 9.11215C30.6064 9.2898 30.0333 9.38069 29.41 9.38069H27.7242V15.743H25.687V1.53941H29.4058C30.7486 1.53941 31.7902 1.86165 32.5223 2.50201C33.2627 3.1465 33.6308 4.1091 33.6308 5.39808C33.6308 6.02604 33.5262 6.5879 33.3171 7.07953Z" fill="#57D395"/>
<path d="M37.7956 10.8557C38.0508 11.525 38.4106 12.1034 38.8665 12.5909C39.3225 13.0784 39.8705 13.4584 40.5063 13.7311C41.1422 14.0038 41.8491 14.1401 42.6272 14.1401C43.4178 14.1401 44.1331 14.0038 44.7773 13.7311C45.4215 13.4584 45.9737 13.0784 46.4297 12.5909C46.8857 12.1034 47.2412 11.525 47.488 10.8557C47.739 10.1864 47.8645 9.44692 47.8645 8.63718C47.8645 7.84396 47.7348 7.10858 47.4797 6.43104C47.2245 5.75351 46.8647 5.16686 46.4088 4.67523C45.9528 4.1836 45.4006 3.79938 44.7564 3.52671C44.1122 3.25405 43.4011 3.11771 42.6272 3.11771C41.8366 3.11771 41.1254 3.25405 40.4854 3.52671C39.8496 3.79938 39.3016 4.1836 38.8414 4.67523C38.3855 5.16686 38.0299 5.75351 37.7831 6.43104C37.5321 7.10858 37.4108 7.84396 37.4108 8.63718C37.415 9.44692 37.5405 10.1864 37.7956 10.8557ZM35.8212 5.68327C36.1893 4.77851 36.6955 4.00182 37.348 3.34494C38.0006 2.68805 38.7703 2.17577 39.6655 1.80395C40.5607 1.43626 41.5396 1.25035 42.6063 1.25035C43.7023 1.25035 44.702 1.43626 45.6098 1.80395C46.5175 2.17164 47.2956 2.68805 47.9482 3.34494C48.6008 4.00182 49.1069 4.78264 49.4667 5.68327C49.8264 6.58804 50.0063 7.56303 50.0063 8.62065C50.0063 9.67828 49.8264 10.6533 49.4667 11.558C49.1069 12.4628 48.6008 13.2395 47.9482 13.8964C47.2956 14.5533 46.5175 15.0697 45.6098 15.4456C44.702 15.8216 43.7064 16.0116 42.6272 16.0116C41.5479 16.0116 40.5523 15.8298 39.6446 15.4663C38.7368 15.1027 37.963 14.5946 37.3146 13.9377C36.6704 13.2808 36.1684 12.5 35.8086 11.5952C35.4489 10.6946 35.269 9.7072 35.269 8.64131C35.2732 7.57129 35.4572 6.58804 35.8212 5.68327Z" fill="#57D395"/>
<path d="M55.3269 12.2513C55.1763 12.8958 54.9337 13.4288 54.599 13.8543H61.5013V3.4268H55.9293L55.6197 9.93366C55.5779 10.8343 55.4817 11.611 55.3269 12.2513ZM53.206 15.7423V18.6177H51.3153V13.8543H51.4617C51.8633 13.8543 52.1979 13.7675 52.4698 13.5982C52.7417 13.4288 52.9592 13.1726 53.1266 12.838C53.2939 12.5034 53.4194 12.0861 53.4989 11.5862C53.5825 11.0863 53.6369 10.5162 53.6662 9.87169L54.0594 1.53878H63.5385V13.8543H65.1197V18.6177H63.2289V15.7423H53.206V15.7423Z" fill="#57D395"/>
</svg>
