<svg width="136" height="19" viewBox="0 0 136 19" fill="none" xmlns="http://www.w3.org/2000/svg">
<g clip-path="url(#clip0)">
<path d="M134.662 16.1522H129.314V5.31959H134.69L134.662 16.1522ZM127.631 3.66462V17.8187H136.311V3.66462H127.631ZM95.8444 17.8187V3.66462H94.1491L85.2377 15.1801V3.66462H83.5364V17.8187H85.2377L94.1491 6.44221V17.8187H95.8444ZM61.8132 17.8187V3.66462H60.1177V9.88521H54.2384V3.66462H52.5372V17.8187H54.2384V11.5865H60.1177V17.8187H61.8132ZM78.8318 17.8187V3.66462H77.1305L68.2191 15.1801V3.66462H66.5235V17.8187H68.2191L77.1305 6.44221V17.8187H78.8318ZM40.3562 10.7475L46.8836 17.8187H49.2445L42.6593 10.7475L49.2445 3.67618H46.8836L40.3562 10.7475ZM38.5739 17.8187H40.2521V3.66462H38.5739V17.8187ZM87.072 0.186829V1.88811H92.3263V0.186829H87.072ZM38.464 10.7359L31.9366 3.66462H29.5699L36.1493 10.7359L29.5815 17.8187H31.9482L38.464 10.7359ZM122.324 16.1522H116.948V5.31959H122.324V16.1522ZM115.293 3.66462V17.8187H123.974V3.66462H115.293ZM9.27601 17.8187V3.66462H7.58052V9.88521H1.69549V3.66462H0V17.8187H1.69549V11.5865H7.58052V17.8187H9.27601ZM26.2888 17.8187V3.66462H24.576L15.6645 15.1801V3.66462H13.9864V17.8187H15.6818L24.576 6.43064V17.8187H26.2888ZM103.744 8.32864L106.191 10.7359L103.744 13.1431L107.018 16.4531L110.294 13.1431L107.846 10.7359L110.294 8.32864L107.018 5.0187L103.744 8.32864ZM107.018 2.63459L112.638 8.32864L110.218 10.7359L112.667 13.1431L107.048 18.8372L101.429 13.1431L103.877 10.7359L101.429 8.32864L107.018 2.63459Z" fill="#B4B4B4"/>
</g>
<defs>
<clipPath id="clip0">
<rect width="136" height="19" fill="white"/>
</clipPath>
</defs>
</svg>
