<svg width="108" height="19" viewBox="0 0 108 19" fill="none" xmlns="http://www.w3.org/2000/svg">
<path d="M105.902 14.4563H100.493V3.49696H105.932L105.902 14.4563ZM98.7893 1.82263V16.1424H107.571V1.82263H98.7893ZM93.4208 14.4563H87.9822V3.49696H93.4208V14.4563ZM86.3078 1.82263V16.1424H95.0894V1.82263H86.3078ZM74.6225 6.54121L77.0989 8.97664L74.6225 11.412L77.936 14.7607L81.2496 11.412L78.7732 8.97664L81.2496 6.54121L77.936 3.19254L74.6225 6.54121ZM77.936 0.780556L83.6206 6.54121L81.1735 8.97664L83.6499 11.412L77.9653 17.1727L72.2807 11.412L74.7571 8.97664L72.2807 6.54121L77.936 0.780556Z" fill="#1671B8"/>
<path d="M12.1292 16.0337H2.43273V18.8721H0.603523V14.1659H0.745165C2.31537 14.1659 2.75648 12.7874 2.87789 10.2345L3.2583 2.00883H12.4286V14.1699H13.9584V18.8721H12.1292V16.0337ZM3.78036 14.1659H10.4578V3.87255H5.06728L4.76376 10.2957C4.68687 12.0615 4.42382 13.338 3.78036 14.1659Z" fill="#1671B8"/>
<path d="M19.6079 16.0337H15.7876V2.00883H19.3691C21.9632 2.00883 23.412 3.28529 23.412 5.6955C23.412 7.03314 22.809 8.1057 21.8215 8.63586C23.0478 9.16195 23.7924 10.259 23.7924 11.98C23.7924 14.5329 22.0644 16.0337 19.6079 16.0337ZM17.7382 3.75021V7.96704H19.2679C20.6358 7.96704 21.3804 7.17587 21.3804 5.83823C21.3804 4.50059 20.6763 3.75021 19.2679 3.75021H17.7382ZM17.7382 9.64725V14.2882H19.3893C20.9393 14.2882 21.7406 13.338 21.7406 11.9188C21.7406 10.5404 20.9555 9.64725 19.3893 9.64725H17.7382Z" fill="#1671B8"/>
<path d="M32.5418 1.72327C36.7668 1.72327 39.7008 4.82269 39.7008 8.99874C39.7008 13.1544 36.7627 16.2946 32.562 16.2946C28.3573 16.2946 25.4435 13.2523 25.4435 9.01913C25.4394 4.8023 28.4382 1.72327 32.5418 1.72327ZM32.558 14.4513C35.6134 14.4513 37.6247 12.1797 37.6247 9.01913C37.6247 5.85854 35.577 3.56661 32.558 3.56661C29.5228 3.56661 27.5115 5.85854 27.5115 9.01913C27.5115 12.2001 29.5835 14.4513 32.558 14.4513Z" fill="#1671B8"/>
<path d="M45.5325 9.7492H43.9016V16.0337H41.9307V2.00883H45.5325C48.1266 2.00883 49.6158 3.30569 49.6158 5.81784C49.6158 8.28922 47.9444 9.7492 45.5325 9.7492ZM43.9016 3.75021V8.00782H45.4313C46.8396 8.00782 47.564 7.15548 47.564 5.83823C47.564 4.54137 46.8396 3.75021 45.4313 3.75021H43.9016Z" fill="#1671B8"/>
<path d="M51.704 2.00883H53.6748V7.5633H55.1034C57.7177 7.5633 59.3851 9.10485 59.3851 11.8209C59.3851 14.5574 57.7339 16.0377 55.1034 16.0377H51.704V2.00883ZM53.6748 9.30468V14.2923H55.0022C56.5522 14.2923 57.3333 13.3584 57.3333 11.8209C57.3333 10.2794 56.5279 9.30876 55.0022 9.30876H53.6748V9.30468ZM62.8492 16.0337H60.8784V2.00883H62.8492V16.0337Z" fill="#1671B8"/>
</svg>
