<svg width="133" height="17" viewBox="0 0 133 17" fill="none" xmlns="http://www.w3.org/2000/svg">
<path d="M130.353 14.1851H124.966V3.27227H130.382L130.353 14.1851ZM123.27 1.60505V15.8639H132.014V1.60505H123.27ZM117.924 14.1851H112.509V3.27227H117.924V14.1851ZM110.841 1.60505V15.8639H119.586V1.60505H110.841ZM99.2056 6.30359L101.671 8.72867L99.2056 11.1537L102.505 14.4882L105.805 11.1537L103.339 8.72867L105.805 6.30359L102.505 2.96915L99.2056 6.30359ZM102.505 0.567406L108.166 6.30359L105.729 8.72867L108.195 11.1537L102.534 16.8899L96.8738 11.1537L99.3397 8.72867L96.8738 6.30359L102.505 0.567406Z" fill="#269B38"/>
<path d="M1.76324 12.7316C2.14303 13.0555 2.61099 13.3658 3.16711 13.6627C3.7368 13.9596 4.42178 14.1081 5.22205 14.1081C5.95451 14.1081 6.62592 14.0001 7.2363 13.7842C7.84668 13.5548 8.37568 13.2376 8.82329 12.8328C9.2709 12.4144 9.63034 11.9219 9.90162 11.3551C10.1865 10.7748 10.3628 10.1338 10.4306 9.43205H4.14372V7.65071H10.4103C10.2204 6.30121 9.69816 5.22836 8.84363 4.43215C7.9891 3.63595 6.8226 3.23785 5.34413 3.23785C4.62524 3.23785 3.97417 3.35255 3.39092 3.58197C2.80767 3.81138 2.31258 4.10153 1.90566 4.4524L0.745945 3.01518C1.31563 2.50237 1.98705 2.10427 2.76019 1.82087C3.53334 1.53748 4.39465 1.39578 5.34413 1.39578C6.41568 1.39578 7.38551 1.57796 8.2536 1.94233C9.13526 2.30669 9.88806 2.81275 10.512 3.46051C11.1495 4.10827 11.6378 4.87749 11.9769 5.76816C12.3296 6.65883 12.5059 7.63047 12.5059 8.68308C12.5059 9.73569 12.3296 10.7073 11.9769 11.598C11.6242 12.4887 11.1292 13.2579 10.4917 13.9056C9.85415 14.5399 9.08778 15.0392 8.19256 15.4036C7.31091 15.768 6.32752 15.9501 5.2424 15.9501C4.71341 15.9501 4.21154 15.8962 3.7368 15.7882C3.27562 15.6802 2.84836 15.5453 2.455 15.3834C2.07521 15.2079 1.72933 15.0122 1.41736 14.7963C1.10539 14.5669 0.834111 14.3375 0.603523 14.1081L1.76324 12.7316Z" fill="#269B38"/>
<path d="M16.128 7.73168L21.2348 1.67917H23.6153L17.8777 8.3592L23.7984 15.687H21.4179L16.128 9.29036V15.687H14.1341V1.67917H16.128V7.73168Z" fill="#269B38"/>
<path d="M23.0419 8.68308C23.0419 7.63047 23.2183 6.65883 23.5709 5.76816C23.9371 4.87749 24.439 4.10827 25.0765 3.46051C25.714 2.81275 26.4668 2.30669 27.3349 1.94233C28.2166 1.57796 29.1796 1.39578 30.224 1.39578C31.2956 1.39578 32.2722 1.57796 33.1539 1.94233C34.0491 2.30669 34.8155 2.81275 35.453 3.46051C36.0905 4.10827 36.5855 4.87749 36.9382 5.76816C37.2909 6.65883 37.4672 7.62372 37.4672 8.66284C37.4672 9.70195 37.2909 10.6668 36.9382 11.5575C36.5855 12.4482 36.0905 13.2174 35.453 13.8652C34.8155 14.5129 34.0491 15.0257 33.1539 15.4036C32.2722 15.768 31.3024 15.9501 30.2444 15.9501C29.1864 15.9501 28.2098 15.7747 27.3146 15.4238C26.4329 15.0595 25.6733 14.5534 25.0358 13.9056C24.4119 13.2579 23.9236 12.4887 23.5709 11.598C23.2183 10.7073 23.0419 9.73569 23.0419 8.68308ZM25.1376 8.68308C25.1376 9.47929 25.2596 10.208 25.5038 10.8693C25.7615 11.5305 26.1142 12.1041 26.5618 12.5899C27.0094 13.0622 27.5452 13.4333 28.1691 13.7032C28.793 13.9731 29.4848 14.1081 30.2444 14.1081C31.0175 14.1081 31.7161 13.9731 32.34 13.7032C32.9775 13.4333 33.5201 13.0622 33.9677 12.5899C34.4153 12.1041 34.7612 11.5305 35.0053 10.8693C35.2495 10.208 35.3716 9.47929 35.3716 8.68308C35.3716 7.90037 35.2427 7.17839 34.985 6.51713C34.7408 5.84238 34.395 5.2621 33.9474 4.77628C33.4997 4.29046 32.9572 3.9126 32.3197 3.6427C31.6957 3.3728 31.004 3.23785 30.2444 3.23785C29.4712 3.23785 28.7727 3.3728 28.1488 3.6427C27.5248 3.9126 26.989 4.29046 26.5414 4.77628C26.0938 5.2621 25.7479 5.84238 25.5038 6.51713C25.2596 7.17839 25.1376 7.90037 25.1376 8.68308Z" fill="#269B38"/>
<path d="M50.5415 14.1081C50.311 14.3375 50.0397 14.5669 49.7277 14.7963C49.4157 15.0122 49.0631 15.2079 48.6697 15.3834C48.2899 15.5453 47.8627 15.6802 47.3879 15.7882C46.9267 15.8962 46.4317 15.9501 45.9027 15.9501C44.8176 15.9501 43.8274 15.768 42.9322 15.4036C42.0369 15.0392 41.2706 14.5399 40.6331 13.9056C39.9956 13.2579 39.5005 12.4887 39.1478 11.598C38.8087 10.7073 38.6392 9.73569 38.6392 8.68308C38.6392 7.63047 38.8155 6.65883 39.1682 5.76816C39.5208 4.87749 40.0159 4.10827 40.6534 3.46051C41.2909 2.81275 42.0505 2.30669 42.9322 1.94233C43.8138 1.57796 44.7904 1.39578 45.862 1.39578C46.7843 1.39578 47.6253 1.53748 48.3849 1.82087C49.158 2.10427 49.8294 2.50237 50.3991 3.01518L49.2191 4.47264C48.8121 4.12177 48.3238 3.83163 47.7542 3.60221C47.1845 3.3593 46.5537 3.23785 45.862 3.23785C45.0753 3.23785 44.3632 3.3728 43.7257 3.6427C43.1017 3.9126 42.5659 4.29046 42.1183 4.77628C41.6707 5.2621 41.3248 5.84238 41.0807 6.51713C40.8501 7.17839 40.7348 7.90037 40.7348 8.68308C40.7348 9.47929 40.8569 10.208 41.101 10.8693C41.3587 11.5305 41.7182 12.1041 42.1794 12.5899C42.6405 13.0622 43.1899 13.4333 43.8274 13.7032C44.4649 13.9731 45.1634 14.1081 45.923 14.1081C46.7233 14.1081 47.4083 13.9596 47.978 13.6627C48.5476 13.3658 49.0156 13.0555 49.3818 12.7316L50.5415 14.1081Z" fill="#269B38"/>
<path d="M56.0354 3.52124V15.687H54.0415V3.52124H51.1524V1.67917H58.9246V3.52124H56.0354Z" fill="#269B38"/>
<path d="M66.8127 11.0717H61.5228L59.773 15.687H57.7995L63.0894 1.67917H65.1851L70.7192 15.687H68.6235L66.8127 11.0717ZM62.1535 9.37133H66.1413L64.1271 4.20949L62.1535 9.37133Z" fill="#269B38"/>
<path d="M79.5464 5.48477C79.5464 6.10554 79.4447 6.65883 79.2413 7.14465C79.0378 7.63047 78.753 8.04207 78.3867 8.37944C78.0341 8.71682 77.6 8.97322 77.0846 9.14866C76.5827 9.32409 76.0266 9.41181 75.4162 9.41181H73.7682V15.687H71.7743V1.67917H75.4162C76.7319 1.67917 77.7492 1.99631 78.4681 2.63057C79.187 3.26484 79.5464 4.21623 79.5464 5.48477ZM73.7682 3.42003V7.67096H75.3145C76.0334 7.67096 76.5692 7.47528 76.9218 7.08392C77.288 6.69257 77.4712 6.16626 77.4712 5.50501C77.4712 4.85725 77.288 4.35119 76.9218 3.98682C76.5692 3.60896 76.0334 3.42003 75.3145 3.42003H73.7682Z" fill="#269B38"/>
<path d="M84.9847 3.52124V15.687H82.9908V3.52124H80.1017V1.67917H87.8738V3.52124H84.9847Z" fill="#269B38"/>
</svg>
