<svg width="205" height="17" viewBox="0 0 205 17" fill="none" xmlns="http://www.w3.org/2000/svg">
<path d="M10.5623 13.8647H8.64118V7.7483H2.15234V13.8647H0.231178V0.298881H2.15234V5.92515H8.64118V0.298881H10.5623V13.8647Z" fill="#E7362C"/>
<path d="M12.126 7.08177C12.126 6.06238 12.2959 5.1214 12.6357 4.25883C12.9886 3.39627 13.4722 2.65133 14.0864 2.02401C14.7007 1.39669 15.426 0.906597 16.2624 0.55373C17.1119 0.200863 18.0398 0.0244293 19.0462 0.0244293C20.0786 0.0244293 21.0196 0.200863 21.8691 0.55373C22.7317 0.906597 23.4701 1.39669 24.0843 2.02401C24.6986 2.65133 25.1756 3.39627 25.5154 4.25883C25.8552 5.1214 26.0251 6.05584 26.0251 7.06217C26.0251 8.06849 25.8552 9.00294 25.5154 9.8655C25.1756 10.7281 24.6986 11.473 24.0843 12.1003C23.4701 12.7276 22.7317 13.2243 21.8691 13.5902C21.0196 13.9431 20.0852 14.1195 19.0658 14.1195C18.0464 14.1195 17.1054 13.9496 16.2428 13.6098C15.3933 13.2569 14.6615 12.7669 14.0472 12.1395C13.446 11.5122 12.9755 10.7673 12.6357 9.90471C12.2959 9.04214 12.126 8.10116 12.126 7.08177ZM14.1452 7.08177C14.1452 7.85285 14.2629 8.55859 14.4981 9.19897C14.7464 9.83936 15.0862 10.3948 15.5175 10.8653C15.9488 11.3227 16.465 11.6821 17.0662 11.9435C17.6674 12.2049 18.3339 12.3356 19.0658 12.3356C19.8107 12.3356 20.4838 12.2049 21.0849 11.9435C21.6992 11.6821 22.222 11.3227 22.6532 10.8653C23.0845 10.3948 23.4178 9.83936 23.653 9.19897C23.8883 8.55859 24.0059 7.85285 24.0059 7.08177C24.0059 6.32376 23.8817 5.62456 23.6334 4.98417C23.3982 4.33071 23.0649 3.76874 22.6336 3.29825C22.2024 2.82776 21.6796 2.46183 21.0653 2.20044C20.4642 1.93906 19.7976 1.80837 19.0658 1.80837C18.3208 1.80837 17.6478 1.93906 17.0466 2.20044C16.4454 2.46183 15.9292 2.82776 15.4979 3.29825C15.0666 3.76874 14.7333 4.33071 14.4981 4.98417C14.2629 5.62456 14.1452 6.32376 14.1452 7.08177Z" fill="#E7362C"/>
<path d="M35.4098 9.94392C35.4098 10.5582 35.3052 11.1136 35.0961 11.6102C34.9001 12.0938 34.6191 12.5055 34.2531 12.8453C33.9003 13.172 33.4755 13.4268 32.9789 13.6098C32.4823 13.7797 31.9334 13.8647 31.3322 13.8647H27.6075V0.298881H31.0969C32.3646 0.298881 33.3383 0.599472 34.0179 1.20065C34.6975 1.80183 35.0373 2.69054 35.0373 3.86676C35.0373 4.52022 34.9001 5.09526 34.6256 5.59189C34.3512 6.07545 33.9722 6.44792 33.4886 6.7093C34.0898 6.97068 34.5603 7.36929 34.9001 7.90513C35.2399 8.42789 35.4098 9.10749 35.4098 9.94392ZM29.509 7.68949V12.1787H31.1165C31.8746 12.1787 32.4431 11.9696 32.8221 11.5514C33.2141 11.1332 33.4102 10.5778 33.4102 9.8851C33.4102 9.21858 33.2207 8.68928 32.8417 8.2972C32.4627 7.89206 31.8876 7.68949 31.1165 7.68949H29.509ZM29.509 1.9848V6.06238H30.9989C31.6654 6.06238 32.1751 5.88594 32.528 5.53308C32.8809 5.16714 33.0573 4.65744 33.0573 4.00399C33.0573 3.35053 32.8874 2.8539 32.5476 2.5141C32.2078 2.16124 31.6916 1.9848 30.9989 1.9848H29.509Z" fill="#E7362C"/>
<path d="M36.4201 7.08177C36.4201 6.06238 36.59 5.1214 36.9298 4.25883C37.2827 3.39627 37.7662 2.65133 38.3805 2.02401C38.9947 1.39669 39.7201 0.906597 40.5565 0.55373C41.406 0.200863 42.3339 0.0244293 43.3402 0.0244293C44.3727 0.0244293 45.3137 0.200863 46.1632 0.55373C47.0257 0.906597 47.7641 1.39669 48.3784 2.02401C48.9926 2.65133 49.4697 3.39627 49.8095 4.25883C50.1493 5.1214 50.3192 6.05584 50.3192 7.06217C50.3192 8.06849 50.1493 9.00294 49.8095 9.8655C49.4697 10.7281 48.9926 11.473 48.3784 12.1003C47.7641 12.7276 47.0257 13.2243 46.1632 13.5902C45.3137 13.9431 44.3792 14.1195 43.3598 14.1195C42.3404 14.1195 41.3995 13.9496 40.5369 13.6098C39.6874 13.2569 38.9555 12.7669 38.3413 12.1395C37.7401 11.5122 37.2696 10.7673 36.9298 9.90471C36.59 9.04214 36.4201 8.10116 36.4201 7.08177ZM38.4393 7.08177C38.4393 7.85285 38.5569 8.55859 38.7922 9.19897C39.0405 9.83936 39.3803 10.3948 39.8116 10.8653C40.2428 11.3227 40.7591 11.6821 41.3603 11.9435C41.9614 12.2049 42.628 12.3356 43.3598 12.3356C44.1048 12.3356 44.7778 12.2049 45.379 11.9435C45.9933 11.6821 46.516 11.3227 46.9473 10.8653C47.3786 10.3948 47.7119 9.83936 47.9471 9.19897C48.1824 8.55859 48.3 7.85285 48.3 7.08177C48.3 6.32376 48.1758 5.62456 47.9275 4.98417C47.6923 4.33071 47.359 3.76874 46.9277 3.29825C46.4964 2.82776 45.9737 2.46183 45.3594 2.20044C44.7582 1.93906 44.0917 1.80837 43.3598 1.80837C42.6149 1.80837 41.9418 1.93906 41.3407 2.20044C40.7395 2.46183 40.2232 2.82776 39.792 3.29825C39.3607 3.76874 39.0274 4.33071 38.7922 4.98417C38.5569 5.62456 38.4393 6.32376 38.4393 7.08177Z" fill="#E7362C"/>
<path d="M53.8227 13.8647H51.9015V0.298881H57.8415V2.08282H53.8227V13.8647Z" fill="#E7362C"/>
<path d="M58.7998 7.08177C58.7998 6.06238 58.9697 5.1214 59.3095 4.25883C59.6623 3.39627 60.1459 2.65133 60.7601 2.02401C61.3744 1.39669 62.0997 0.906597 62.9361 0.55373C63.7856 0.200863 64.7135 0.0244293 65.7199 0.0244293C66.7523 0.0244293 67.6933 0.200863 68.5428 0.55373C69.4054 0.906597 70.1438 1.39669 70.758 2.02401C71.3723 2.65133 71.8493 3.39627 72.1891 4.25883C72.5289 5.1214 72.6988 6.05584 72.6988 7.06217C72.6988 8.06849 72.5289 9.00294 72.1891 9.8655C71.8493 10.7281 71.3723 11.473 70.758 12.1003C70.1438 12.7276 69.4054 13.2243 68.5428 13.5902C67.6933 13.9431 66.7589 14.1195 65.7395 14.1195C64.7201 14.1195 63.7791 13.9496 62.9165 13.6098C62.067 13.2569 61.3352 12.7669 60.7209 12.1395C60.1197 11.5122 59.6493 10.7673 59.3095 9.90471C58.9697 9.04214 58.7998 8.10116 58.7998 7.08177ZM60.8189 7.08177C60.8189 7.85285 60.9366 8.55859 61.1718 9.19897C61.4201 9.83936 61.7599 10.3948 62.1912 10.8653C62.6225 11.3227 63.1387 11.6821 63.7399 11.9435C64.3411 12.2049 65.0076 12.3356 65.7395 12.3356C66.4844 12.3356 67.1575 12.2049 67.7587 11.9435C68.3729 11.6821 68.8957 11.3227 69.327 10.8653C69.7582 10.3948 70.0915 9.83936 70.3268 9.19897C70.562 8.55859 70.6796 7.85285 70.6796 7.08177C70.6796 6.32376 70.5555 5.62456 70.3071 4.98417C70.0719 4.33071 69.7386 3.76874 69.3074 3.29825C68.8761 2.82776 68.3533 2.46183 67.7391 2.20044C67.1379 1.93906 66.4714 1.80837 65.7395 1.80837C64.9945 1.80837 64.3215 1.93906 63.7203 2.20044C63.1191 2.46183 62.6029 2.82776 62.1716 3.29825C61.7403 3.76874 61.4071 4.33071 61.1718 4.98417C60.9366 5.62456 60.8189 6.32376 60.8189 7.08177Z" fill="#E7362C"/>
<path d="M83.8251 13.8647H74.3761V16.6092H72.5922V12.0611H72.7294C73.1084 12.0611 73.4221 11.9827 73.6704 11.8259C73.9318 11.656 74.1409 11.4142 74.2977 11.1005C74.4546 10.7738 74.5722 10.3752 74.6506 9.90471C74.729 9.42115 74.7813 8.87224 74.8074 8.25799L75.1799 0.298881H84.1192V12.0611H85.6091V16.6092H83.8251V13.8647ZM76.6502 8.3168C76.611 9.17937 76.5195 9.91778 76.3757 10.532C76.232 11.1463 76.0032 11.656 75.6896 12.0611H82.198V2.10242H76.9442L76.6502 8.3168Z" fill="#E7362C"/>
<path d="M97.1327 13.8647H95.2115V7.7483H88.7227V13.8647H86.8015V0.298881H88.7227V5.92515H95.2115V0.298881H97.1327V13.8647Z" fill="#E7362C"/>
<path d="M99.4021 4.0824C99.4021 2.82776 99.7615 1.88678 100.48 1.25946C101.199 0.619076 102.205 0.298881 103.499 0.298881H106.891V13.8647H104.97V7.84632H103.382L100.186 13.8647H98.1083L101.559 7.47385C100.801 7.14712 100.252 6.6897 99.9118 6.10158C99.572 5.51347 99.4021 4.84041 99.4021 4.0824ZM103.558 1.9848C102.839 1.9848 102.297 2.1743 101.931 2.55331C101.578 2.91925 101.402 3.43548 101.402 4.102C101.402 4.75546 101.578 5.27169 101.931 5.6507C102.284 6.0297 102.807 6.21921 103.499 6.21921H104.97V1.9848H103.558Z" fill="#E7362C"/>
<path d="M109.166 4.0824C109.166 2.82776 109.525 1.88678 110.244 1.25946C110.963 0.619076 111.969 0.298881 113.263 0.298881H116.654V13.8647H114.733V7.84632H113.145L109.95 13.8647H107.872L111.322 7.47385C110.564 7.14712 110.015 6.6897 109.675 6.10158C109.336 5.51347 109.166 4.84041 109.166 4.0824ZM113.322 1.9848C112.603 1.9848 112.061 2.1743 111.695 2.55331C111.342 2.91925 111.165 3.43548 111.165 4.102C111.165 4.75546 111.342 5.27169 111.695 5.6507C112.047 6.0297 112.57 6.21921 113.263 6.21921H114.733V1.9848H113.322Z" fill="#E7362C"/>
<path d="M132.717 12.3356C132.494 12.5577 132.233 12.7799 131.932 13.0021C131.632 13.2112 131.292 13.4007 130.913 13.5706C130.547 13.7274 130.135 13.8581 129.678 13.9627C129.234 14.0672 128.757 14.1195 128.247 14.1195C127.201 14.1195 126.247 13.9431 125.385 13.5902C124.522 13.2373 123.784 12.7538 123.17 12.1395C122.555 11.5122 122.078 10.7673 121.738 9.90471C121.412 9.04214 121.248 8.10116 121.248 7.08177C121.248 6.06238 121.418 5.1214 121.758 4.25883C122.098 3.39627 122.575 2.65133 123.189 2.02401C123.803 1.39669 124.535 0.906597 125.385 0.55373C126.234 0.200863 127.175 0.0244293 128.208 0.0244293C129.096 0.0244293 129.907 0.161655 130.639 0.436107C131.383 0.710559 132.03 1.0961 132.579 1.59273L131.442 3.0042C131.05 2.6644 130.58 2.38341 130.031 2.16124C129.482 1.92599 128.874 1.80837 128.208 1.80837C127.45 1.80837 126.764 1.93906 126.149 2.20044C125.548 2.46183 125.032 2.82776 124.601 3.29825C124.169 3.76874 123.836 4.33071 123.601 4.98417C123.379 5.62456 123.268 6.32376 123.268 7.08177C123.268 7.85285 123.385 8.55859 123.62 9.19897C123.869 9.83936 124.215 10.3948 124.659 10.8653C125.104 11.3227 125.633 11.6821 126.247 11.9435C126.862 12.2049 127.535 12.3356 128.266 12.3356C129.038 12.3356 129.698 12.1918 130.246 11.9043C130.795 11.6168 131.246 11.3162 131.599 11.0025L132.717 12.3356Z" fill="#E7362C"/>
<path d="M138.01 2.08282V13.8647H136.089V2.08282H133.305V0.298881H140.794V2.08282H138.01Z" fill="#E7362C"/>
<path d="M140.756 7.08177C140.756 6.06238 140.926 5.1214 141.266 4.25883C141.619 3.39627 142.102 2.65133 142.717 2.02401C143.331 1.39669 144.056 0.906597 144.893 0.55373C145.742 0.200863 146.67 0.0244293 147.676 0.0244293C148.709 0.0244293 149.65 0.200863 150.499 0.55373C151.362 0.906597 152.1 1.39669 152.715 2.02401C153.329 2.65133 153.806 3.39627 154.146 4.25883C154.485 5.1214 154.655 6.05584 154.655 7.06217C154.655 8.06849 154.485 9.00294 154.146 9.8655C153.806 10.7281 153.329 11.473 152.715 12.1003C152.1 12.7276 151.362 13.2243 150.499 13.5902C149.65 13.9431 148.715 14.1195 147.696 14.1195C146.677 14.1195 145.736 13.9496 144.873 13.6098C144.024 13.2569 143.292 12.7669 142.678 12.1395C142.076 11.5122 141.606 10.7673 141.266 9.90471C140.926 9.04214 140.756 8.10116 140.756 7.08177ZM142.776 7.08177C142.776 7.85285 142.893 8.55859 143.128 9.19897C143.377 9.83936 143.717 10.3948 144.148 10.8653C144.579 11.3227 145.095 11.6821 145.696 11.9435C146.298 12.2049 146.964 12.3356 147.696 12.3356C148.441 12.3356 149.114 12.2049 149.715 11.9435C150.33 11.6821 150.852 11.3227 151.284 10.8653C151.715 10.3948 152.048 9.83936 152.283 9.19897C152.519 8.55859 152.636 7.85285 152.636 7.08177C152.636 6.32376 152.512 5.62456 152.264 4.98417C152.028 4.33071 151.695 3.76874 151.264 3.29825C150.833 2.82776 150.31 2.46183 149.696 2.20044C149.094 1.93906 148.428 1.80837 147.696 1.80837C146.951 1.80837 146.278 1.93906 145.677 2.20044C145.076 2.46183 144.559 2.82776 144.128 3.29825C143.697 3.76874 143.364 4.33071 143.128 4.98417C142.893 5.62456 142.776 6.32376 142.776 7.08177Z" fill="#E7362C"/>
<path d="M158.509 9.21858C158.443 10.7215 158.143 11.8912 157.607 12.7276C157.071 13.551 156.169 13.9627 154.902 13.9627H154.608V12.1787H154.921C155.248 12.1787 155.516 12.1003 155.725 11.9435C155.934 11.7867 156.104 11.571 156.235 11.2966C156.365 11.0221 156.463 10.6954 156.529 10.3164C156.594 9.93738 156.64 9.5257 156.666 9.08135L157.078 0.298881H165.017V13.8647H163.096V2.10242H158.822L158.509 9.21858Z" fill="#E7362C"/>
<path d="M169.052 10.7673L175.737 0.298881H177.658V13.8647H175.737V3.39627L169.052 13.8647H167.131V0.298881H169.052V10.7673Z" fill="#E7362C"/>
<path d="M187.98 0.298881H189.901V12.0611H191.411V16.6092H189.607V13.8647H179.766V0.298881H181.687V12.0611H187.98V0.298881Z" fill="#E7362C"/>
<path d="M200.677 9.39501H195.58L193.894 13.8647H191.993L197.09 0.298881H199.109L204.441 13.8647H202.422L200.677 9.39501ZM196.188 7.7483H200.03L198.089 2.74935L196.188 7.7483Z" fill="#E7362C"/>
</svg>
