<svg width="172" height="18" viewBox="0 0 172 18" fill="none" xmlns="http://www.w3.org/2000/svg">
<path d="M12.6566 13.585C12.4195 13.8145 12.1405 14.0441 11.8197 14.2736C11.4988 14.4897 11.1362 14.6854 10.7317 14.861C10.3411 15.023 9.90171 15.1581 9.4135 15.2661C8.93924 15.3741 8.43011 15.4281 7.88611 15.4281C6.77021 15.4281 5.75195 15.2458 4.83133 14.8812C3.91071 14.5167 3.12261 14.017 2.46702 13.3824C1.81143 12.7343 1.3023 11.9646 0.939628 11.0734C0.590909 10.1822 0.41655 9.20996 0.41655 8.15673C0.41655 7.10349 0.597884 6.13127 0.960551 5.24007C1.32322 4.34887 1.83235 3.57919 2.48794 2.93105C3.14353 2.2829 3.92466 1.77654 4.83133 1.41196C5.738 1.04737 6.74231 0.865082 7.84426 0.865082C8.79278 0.865082 9.6576 1.00686 10.4387 1.29043C11.2338 1.57399 11.9243 1.97233 12.5101 2.48545L11.2966 3.94378C10.8781 3.5927 10.376 3.30238 9.79012 3.07283C9.20427 2.82978 8.55565 2.70825 7.84426 2.70825C7.03524 2.70825 6.30293 2.84328 5.64734 3.11334C5.00569 3.3834 4.45472 3.76148 3.99441 4.24759C3.5341 4.7337 3.1784 5.31434 2.92733 5.98949C2.6902 6.65114 2.57163 7.37355 2.57163 8.15673C2.57163 8.95341 2.69717 9.68257 2.94825 10.3442C3.21328 11.0059 3.58292 11.5797 4.05718 12.0659C4.53143 12.5385 5.09636 12.9098 5.75195 13.1799C6.40754 13.4499 7.1259 13.585 7.90703 13.585C8.73001 13.585 9.43442 13.4364 10.0203 13.1394C10.6061 12.8423 11.0874 12.5317 11.464 12.2076L12.6566 13.585Z" fill="#FF8500"/>
<path d="M18.3063 2.99181V15.1648H16.2559V2.99181H13.2848V1.14865H21.2774V2.99181H18.3063Z" fill="#FF8500"/>
<path d="M21.2375 8.15673C21.2375 7.10349 21.4189 6.13127 21.7815 5.24007C22.1581 4.34887 22.6742 3.57919 23.3298 2.93105C23.9854 2.2829 24.7596 1.77654 25.6523 1.41196C26.559 1.04737 27.5493 0.865082 28.6234 0.865082C29.7253 0.865082 30.7297 1.04737 31.6363 1.41196C32.5569 1.77654 33.345 2.2829 34.0006 2.93105C34.6562 3.57919 35.1654 4.34887 35.528 5.24007C35.8907 6.13127 36.072 7.09674 36.072 8.13647C36.072 9.17621 35.8907 10.1417 35.528 11.0329C35.1654 11.9241 34.6562 12.6937 34.0006 13.3419C33.345 13.99 32.5569 14.5032 31.6363 14.8812C30.7297 15.2458 29.7323 15.4281 28.6443 15.4281C27.5563 15.4281 26.552 15.2526 25.6314 14.9015C24.7247 14.5369 23.9436 14.0306 23.288 13.3824C22.6464 12.7343 22.1442 11.9646 21.7815 11.0734C21.4189 10.1822 21.2375 9.20996 21.2375 8.15673ZM23.3926 8.15673C23.3926 8.95341 23.5181 9.68257 23.7692 10.3442C24.0343 11.0059 24.3969 11.5797 24.8572 12.0659C25.3175 12.5385 25.8685 12.9098 26.5102 13.1799C27.1518 13.4499 27.8632 13.585 28.6443 13.585C29.4394 13.585 30.1578 13.4499 30.7994 13.1799C31.455 12.9098 32.0129 12.5385 32.4733 12.0659C32.9336 11.5797 33.2893 11.0059 33.5403 10.3442C33.7914 9.68257 33.917 8.95341 33.917 8.15673C33.917 7.37355 33.7844 6.65114 33.5194 5.98949C33.2683 5.31434 32.9126 4.7337 32.4523 4.24759C31.992 3.76148 31.4341 3.3834 30.7785 3.11334C30.1368 2.84328 29.4254 2.70825 28.6443 2.70825C27.8492 2.70825 27.1309 2.84328 26.4892 3.11334C25.8476 3.3834 25.2966 3.76148 24.8363 4.24759C24.376 4.7337 24.0203 5.31434 23.7692 5.98949C23.5181 6.65114 23.3926 7.37355 23.3926 8.15673Z" fill="#FF8500"/>
<path d="M40.1847 10.3645C40.115 11.9173 39.7942 13.1258 39.2223 13.99C38.6504 14.8407 37.6879 15.2661 36.3349 15.2661H36.021V13.4229H36.3558C36.7045 13.4229 36.9905 13.3419 37.2137 13.1799C37.4368 13.0178 37.6182 12.795 37.7577 12.5115C37.8971 12.2279 38.0018 11.8903 38.0715 11.4987C38.1412 11.1071 38.1901 10.6818 38.218 10.2227L38.6573 1.14865H47.1312V15.1648H45.0808V3.01207H40.5195L40.1847 10.3645Z" fill="#FF8500"/>
<path d="M51.4376 11.9646L58.5724 1.14865H60.6229V15.1648H58.5724V4.34887L51.4376 15.1648H49.3872V1.14865H51.4376V11.9646Z" fill="#FF8500"/>
<path d="M71.6396 1.14865H73.69V13.3014H75.3011V18.0004H73.3762V15.1648H62.8728V1.14865H64.9232V13.3014H71.6396V1.14865Z" fill="#FF8500"/>
<path d="M85.1912 10.5468H79.7512L77.9518 15.1648H75.9223L81.3623 1.14865H83.5174L89.2085 15.1648H87.0534L85.1912 10.5468ZM80.3998 8.84538H84.5008L82.4294 3.68047L80.3998 8.84538Z" fill="#FF8500"/>
<path d="M97.4345 15.3876C96.5837 15.3876 95.8653 15.2728 95.2795 15.0433C94.7076 14.8002 94.2472 14.4897 93.8985 14.1116C93.5498 13.72 93.2987 13.2811 93.1453 12.795C93.0058 12.3089 92.943 11.8228 92.957 11.3367H94.9028C94.9168 11.6473 94.9726 11.9443 95.0702 12.2279C95.1818 12.5115 95.3422 12.7613 95.5515 12.9773C95.7607 13.1934 96.0187 13.3622 96.3256 13.4837C96.6464 13.6052 97.0161 13.666 97.4345 13.666C97.8391 13.666 98.1878 13.5985 98.4807 13.4634C98.7876 13.3284 99.0386 13.1529 99.2339 12.9368C99.4432 12.7073 99.5966 12.4439 99.6942 12.1469C99.7919 11.8498 99.8407 11.5325 99.8407 11.1949C99.8407 10.4657 99.6245 9.89187 99.1921 9.47327C98.7597 9.04118 98.0622 8.82513 97.0998 8.82513H95.9281V7.08323H97.1625C97.9437 7.08323 98.5295 6.88744 98.9201 6.49585C99.3106 6.09076 99.5059 5.54389 99.5059 4.85523C99.5059 4.16658 99.3176 3.62645 98.941 3.23487C98.5783 2.84328 98.0413 2.64748 97.3299 2.64748C96.9254 2.64748 96.5767 2.70825 96.2838 2.82977C95.9908 2.9513 95.7467 3.12009 95.5515 3.33614C95.3701 3.55219 95.2306 3.80199 95.133 4.08556C95.0353 4.36912 94.9865 4.67294 94.9865 4.99701H93.0407C93.0267 4.5109 93.0825 4.03155 93.2081 3.55894C93.3475 3.07283 93.5847 2.64073 93.9194 2.26265C94.2542 1.87106 94.6936 1.55374 95.2376 1.31068C95.7956 1.06763 96.493 0.9461 97.3299 0.9461C98.7248 0.9461 99.7849 1.29718 100.51 1.99934C101.25 2.68799 101.619 3.6062 101.619 4.75396C101.619 5.48312 101.438 6.11102 101.075 6.63763C100.726 7.16425 100.301 7.54909 99.7989 7.79214C100.454 8.0487 100.978 8.46055 101.368 9.02767C101.773 9.5813 101.975 10.3037 101.975 11.1949C101.975 11.8296 101.863 12.4034 101.64 12.9166C101.431 13.4297 101.124 13.8685 100.719 14.2331C100.329 14.5977 99.8546 14.8812 99.2967 15.0838C98.7387 15.2863 98.118 15.3876 97.4345 15.3876Z" fill="#FF8500"/>
<path d="M111.509 10.5468H106.069L104.269 15.1648H102.24L107.68 1.14865H109.835L115.526 15.1648H113.371L111.509 10.5468ZM106.717 8.84538H110.818L108.747 3.68047L106.717 8.84538Z" fill="#FF8500"/>
<path d="M118.661 7.20476L123.913 1.14865H126.361L120.461 7.83265L126.549 15.1648H124.101L118.661 8.76436V15.1648H116.611V1.14865H118.661V7.20476Z" fill="#FF8500"/>
<path d="M136.11 10.5468H130.67L128.87 15.1648H126.841L132.281 1.14865H134.436L140.127 15.1648H137.972L136.11 10.5468ZM131.318 8.84538H135.419L133.348 3.68047L131.318 8.84538Z" fill="#FF8500"/>
<path d="M143.988 2.99181V15.1648H141.938V2.99181H138.967V1.14865H146.959V2.99181H143.988Z" fill="#FF8500"/>
<path d="M146.919 8.15673C146.919 7.10349 147.101 6.13127 147.463 5.24007C147.84 4.34887 148.356 3.57919 149.012 2.93105C149.667 2.2829 150.441 1.77654 151.334 1.41196C152.241 1.04737 153.231 0.865082 154.305 0.865082C155.407 0.865082 156.412 1.04737 157.318 1.41196C158.239 1.77654 159.027 2.2829 159.683 2.93105C160.338 3.57919 160.847 4.34887 161.21 5.24007C161.573 6.13127 161.754 7.09674 161.754 8.13647C161.754 9.17621 161.573 10.1417 161.21 11.0329C160.847 11.9241 160.338 12.6937 159.683 13.3419C159.027 13.99 158.239 14.5032 157.318 14.8812C156.412 15.2458 155.414 15.4281 154.326 15.4281C153.238 15.4281 152.234 15.2526 151.313 14.9015C150.407 14.5369 149.625 14.0306 148.97 13.3824C148.328 12.7343 147.826 11.9646 147.463 11.0734C147.101 10.1822 146.919 9.20996 146.919 8.15673ZM149.074 8.15673C149.074 8.95341 149.2 9.68257 149.451 10.3442C149.716 11.0059 150.079 11.5797 150.539 12.0659C150.999 12.5385 151.55 12.9098 152.192 13.1799C152.834 13.4499 153.545 13.585 154.326 13.585C155.121 13.585 155.84 13.4499 156.481 13.1799C157.137 12.9098 157.695 12.5385 158.155 12.0659C158.615 11.5797 158.971 11.0059 159.222 10.3442C159.473 9.68257 159.599 8.95341 159.599 8.15673C159.599 7.37355 159.466 6.65114 159.201 5.98949C158.95 5.31434 158.595 4.7337 158.134 4.24759C157.674 3.76148 157.116 3.3834 156.46 3.11334C155.819 2.84328 155.107 2.70825 154.326 2.70825C153.531 2.70825 152.813 2.84328 152.171 3.11334C151.529 3.3834 150.978 3.76148 150.518 4.24759C150.058 4.7337 149.702 5.31434 149.451 5.98949C149.2 6.65114 149.074 7.37355 149.074 8.15673Z" fill="#FF8500"/>
<path d="M171.77 11.1139C171.77 11.7485 171.659 12.3224 171.435 12.8355C171.226 13.3351 170.926 13.7605 170.536 14.1116C170.159 14.4491 169.706 14.7125 169.176 14.9015C168.646 15.077 168.06 15.1648 167.418 15.1648H163.443V1.14865H167.167C168.52 1.14865 169.559 1.45922 170.285 2.08036C171.01 2.7015 171.373 3.6197 171.373 4.83498C171.373 5.51013 171.226 6.10426 170.933 6.61738C170.64 7.11699 170.236 7.50183 169.72 7.77189C170.361 8.04195 170.864 8.45379 171.226 9.00742C171.589 9.54754 171.77 10.2497 171.77 11.1139ZM165.472 8.78462V13.4229H167.188C167.997 13.4229 168.604 13.2069 169.008 12.7748C169.427 12.3427 169.636 11.7688 169.636 11.0531C169.636 10.3645 169.434 9.8176 169.029 9.41251C168.625 8.99391 168.011 8.78462 167.188 8.78462H165.472ZM165.472 2.89054V7.10349H167.062C167.774 7.10349 168.318 6.9212 168.694 6.55662C169.071 6.17853 169.259 5.65191 169.259 4.97676C169.259 4.30161 169.078 3.78849 168.715 3.43741C168.353 3.07283 167.802 2.89054 167.062 2.89054H165.472Z" fill="#FF8500"/>
</svg>
