<svg width="140" height="19" viewBox="0 0 140 19" fill="none" xmlns="http://www.w3.org/2000/svg">
<path d="M2.59169 7.21518L7.73024 1.09397H10.1255L4.35231 7.84983L10.3097 15.2608H7.91449L2.59169 8.79155V15.2608H0.585411V1.09397H2.59169V7.21518Z" fill="#72CDFA"/>
<path d="M10.1628 8.17738C10.1628 7.11282 10.3402 6.13015 10.695 5.22937C11.0635 4.32859 11.5685 3.55065 12.21 2.89553C12.8515 2.24042 13.6089 1.72861 14.4824 1.36011C15.3695 0.991612 16.3386 0.807362 17.3895 0.807362C18.4677 0.807362 19.4504 0.991612 20.3375 1.36011C21.2383 1.72861 22.0094 2.24042 22.6509 2.89553C23.2923 3.55065 23.7905 4.32859 24.1453 5.22937C24.5002 6.13015 24.6776 7.106 24.6776 8.15691C24.6776 9.20782 24.5002 10.1837 24.1453 11.0844C23.7905 11.9852 23.2923 12.7632 22.6509 13.4183C22.0094 14.0734 21.2383 14.592 20.3375 14.9742C19.4504 15.3427 18.4745 15.5269 17.4099 15.5269C16.3454 15.5269 15.3627 15.3495 14.4619 14.9946C13.5748 14.6261 12.8105 14.1143 12.169 13.4592C11.5412 12.8041 11.0499 12.0262 10.695 11.1254C10.3402 10.2246 10.1628 9.24194 10.1628 8.17738ZM12.2714 8.17738C12.2714 8.98262 12.3942 9.71963 12.6399 10.3884C12.8992 11.0571 13.2541 11.6372 13.7045 12.1285C14.1549 12.6062 14.694 12.9815 15.3218 13.2545C15.9496 13.5275 16.6456 13.664 17.4099 13.664C18.1879 13.664 18.8908 13.5275 19.5186 13.2545C20.1601 12.9815 20.706 12.6062 21.1564 12.1285C21.6068 11.6372 21.9548 11.0571 22.2005 10.3884C22.4461 9.71963 22.569 8.98262 22.569 8.17738C22.569 7.38579 22.4393 6.65561 22.18 5.98685C21.9343 5.30444 21.5863 4.71757 21.1359 4.22623C20.6855 3.7349 20.1396 3.35275 19.4981 3.07978C18.8703 2.80682 18.1742 2.67034 17.4099 2.67034C16.632 2.67034 15.9291 2.80682 15.3013 3.07978C14.6735 3.35275 14.1344 3.7349 13.684 4.22623C13.2336 4.71757 12.8856 5.30444 12.6399 5.98685C12.3942 6.65561 12.2714 7.38579 12.2714 8.17738Z" fill="#72CDFA"/>
<path d="M35.4607 15.2608H33.5159L28.8277 3.7349V15.2608H26.9443V1.09397H29.8513L34.5395 12.8451L39.2276 1.09397H42.0733V15.2608H40.1079V3.7349L35.4607 15.2608Z" fill="#72CDFA"/>
<path d="M52.8147 10.5931H47.4919L45.7313 15.2608H43.7455L49.0683 1.09397H51.1769L56.7454 15.2608H54.6367L52.8147 10.5931ZM48.1265 8.87344H52.1391L50.1123 3.65301L48.1265 8.87344Z" fill="#72CDFA"/>
<path d="M69.2101 15.2608H67.2038V8.87344H60.4275V15.2608H58.4212V1.09397H60.4275V6.96952H67.2038V1.09397H69.2101V15.2608Z" fill="#72CDFA"/>
<path d="M82.717 15.2608H72.8494V18.1269H70.9864V13.3773H71.1297C71.5255 13.3773 71.853 13.2955 72.1124 13.1317C72.3853 12.9542 72.6037 12.7018 72.7675 12.3742C72.9313 12.033 73.0541 11.6167 73.136 11.1254C73.2179 10.6204 73.2725 10.0472 73.2998 9.40572L73.6887 1.09397H83.0241V13.3773H84.58V18.1269H82.717V15.2608ZM75.2241 9.46713C75.1832 10.3679 75.0877 11.139 74.9375 11.7805C74.7874 12.422 74.5486 12.9542 74.221 13.3773H81.0178V2.97742H75.5312L75.2241 9.46713Z" fill="#72CDFA"/>
<path d="M94.882 10.5931H89.5592L87.7986 15.2608H85.8128L91.1356 1.09397H93.2442L98.8127 15.2608H96.704L94.882 10.5931ZM90.1939 8.87344H94.2064L92.1797 3.65301L90.1939 8.87344Z" fill="#72CDFA"/>
<path d="M125.766 13.3387H120.732V2.96878H125.766V13.3387ZM118.94 15.1378H127.554V1.16959H118.94V15.1378Z" fill="#72CDFA"/>
<path d="M110.318 8.15374L107.943 5.81071L110.99 2.71529L114.036 5.81071L111.662 8.15374L114.036 10.4968L110.99 13.5922L107.943 10.4968L110.318 8.15374ZM110.99 0.126907L105.41 5.81071L107.78 8.15374L105.41 10.4968L110.99 16.1806L116.508 10.5622L116.574 10.4968L114.203 8.15374L116.574 5.81071L110.99 0.126907Z" fill="#72CDFA"/>
<path d="M132.694 2.96878H137.728V13.3387H132.694V2.96878ZM130.902 15.1378H139.52V1.16959H130.902V15.1378Z" fill="#72CDFA"/>
</svg>
