<svg width="147" height="19" viewBox="0 0 147 19" fill="none" xmlns="http://www.w3.org/2000/svg">
<path d="M8.5549 13.6325C8.5549 14.2599 8.44811 14.8273 8.23452 15.3345C8.03428 15.8284 7.74727 16.2489 7.37349 16.596C7.01306 16.9298 6.57921 17.1901 6.07194 17.377C5.56467 17.5505 5.00401 17.6373 4.38994 17.6373H0.585411V3.78077H4.14965C5.44453 3.78077 6.43905 4.0878 7.13321 4.70187C7.82737 5.31593 8.17445 6.22368 8.17445 7.42511C8.17445 8.09257 8.03428 8.67994 7.75395 9.18721C7.47361 9.68113 7.08649 10.0616 6.59256 10.3286C7.20663 10.5956 7.6872 11.0027 8.03428 11.55C8.38136 12.084 8.5549 12.7782 8.5549 13.6325ZM2.52772 11.3298V15.9152H4.16968C4.94393 15.9152 5.52463 15.7016 5.91175 15.2745C6.31223 14.8473 6.51247 14.2799 6.51247 13.5724C6.51247 12.8916 6.3189 12.351 5.93178 11.9505C5.54465 11.5367 4.95728 11.3298 4.16968 11.3298H2.52772ZM2.52772 5.50282V9.66778H4.04954C4.73035 9.66778 5.25097 9.48757 5.6114 9.12714C5.97182 8.75336 6.15204 8.23274 6.15204 7.56528C6.15204 6.89782 5.9785 6.39055 5.63142 6.04347C5.28434 5.68304 4.75704 5.50282 4.04954 5.50282H2.52772Z" fill="#4445E5"/>
<path d="M10.1876 10.709C10.1876 9.66778 10.3612 8.70664 10.7082 7.82559C11.0687 6.94454 11.5626 6.18363 12.19 5.54287C12.8174 4.90211 13.5583 4.40151 14.4127 4.04108C15.2804 3.68065 16.2282 3.50044 17.256 3.50044C18.3106 3.50044 19.2718 3.68065 20.1395 4.04108C21.0205 4.40151 21.7748 4.90211 22.4022 5.54287C23.0296 6.18363 23.5168 6.94454 23.8639 7.82559C24.211 8.70664 24.3845 9.66111 24.3845 10.689C24.3845 11.7169 24.211 12.6714 23.8639 13.5524C23.5168 14.4335 23.0296 15.1944 22.4022 15.8351C21.7748 16.4759 21.0205 16.9832 20.1395 17.3569C19.2718 17.7174 18.3173 17.8976 17.2761 17.8976C16.2348 17.8976 15.2737 17.724 14.3926 17.377C13.5249 17.0165 12.7774 16.5159 12.15 15.8752C11.5359 15.2344 11.0553 14.4735 10.7082 13.5925C10.3612 12.7114 10.1876 11.7503 10.1876 10.709ZM12.2501 10.709C12.2501 11.4966 12.3702 12.2175 12.6105 12.8716C12.8641 13.5257 13.2112 14.093 13.6517 14.5736C14.0923 15.0408 14.6196 15.4079 15.2336 15.6749C15.8477 15.9419 16.5285 16.0754 17.2761 16.0754C18.037 16.0754 18.7245 15.9419 19.3385 15.6749C19.9659 15.4079 20.4999 15.0408 20.9404 14.5736C21.381 14.093 21.7214 13.5257 21.9616 12.8716C22.2019 12.2175 22.3221 11.4966 22.3221 10.709C22.3221 9.93477 22.1953 9.22058 21.9416 8.56647C21.7013 7.89901 21.3609 7.32499 20.9204 6.84442C20.4799 6.36385 19.9459 5.99007 19.3185 5.72309C18.7044 5.4561 18.0236 5.32261 17.2761 5.32261C16.5152 5.32261 15.8277 5.4561 15.2136 5.72309C14.5995 5.99007 14.0722 6.36385 13.6317 6.84442C13.1912 7.32499 12.8508 7.89901 12.6105 8.56647C12.3702 9.22058 12.2501 9.93477 12.2501 10.709Z" fill="#4445E5"/>
<path d="M28.9212 12.8916C28.8544 14.4268 28.5474 15.6215 28.0001 16.4759C27.4528 17.3169 26.5317 17.7374 25.2368 17.7374H24.9364V15.9152H25.2568C25.5905 15.9152 25.8642 15.8351 26.0778 15.6749C26.2914 15.5147 26.4649 15.2945 26.5984 15.0141C26.7319 14.7338 26.832 14.4001 26.8988 14.013C26.9655 13.6258 27.0122 13.2053 27.0389 12.7515L27.4594 3.78077H35.5691V17.6373H33.6068V5.62297H29.2416L28.9212 12.8916Z" fill="#4445E5"/>
<path d="M37.7681 10.709C37.7681 9.66778 37.9417 8.70664 38.2887 7.82559C38.6492 6.94454 39.1431 6.18363 39.7705 5.54287C40.3979 4.90211 41.1388 4.40151 41.9931 4.04108C42.8608 3.68065 43.8086 3.50044 44.8365 3.50044C45.8911 3.50044 46.8523 3.68065 47.72 4.04108C48.601 4.40151 49.3552 4.90211 49.9827 5.54287C50.6101 6.18363 51.0973 6.94454 51.4444 7.82559C51.7915 8.70664 51.965 9.66111 51.965 10.689C51.965 11.7169 51.7915 12.6714 51.4444 13.5524C51.0973 14.4335 50.6101 15.1944 49.9827 15.8351C49.3552 16.4759 48.601 16.9832 47.72 17.3569C46.8523 17.7174 45.8978 17.8976 44.8566 17.8976C43.8153 17.8976 42.8542 17.724 41.9731 17.377C41.1054 17.0165 40.3579 16.5159 39.7305 15.8752C39.1164 15.2344 38.6358 14.4735 38.2887 13.5925C37.9417 12.7114 37.7681 11.7503 37.7681 10.709ZM39.8306 10.709C39.8306 11.4966 39.9507 12.2175 40.191 12.8716C40.4446 13.5257 40.7917 14.093 41.2322 14.5736C41.6728 15.0408 42.2001 15.4079 42.8141 15.6749C43.4282 15.9419 44.109 16.0754 44.8566 16.0754C45.6175 16.0754 46.3049 15.9419 46.919 15.6749C47.5464 15.4079 48.0804 15.0408 48.5209 14.5736C48.9614 14.093 49.3019 13.5257 49.5421 12.8716C49.7824 12.2175 49.9026 11.4966 49.9026 10.709C49.9026 9.93477 49.7757 9.22058 49.5221 8.56647C49.2818 7.89901 48.9414 7.32499 48.5009 6.84442C48.0604 6.36385 47.5264 5.99007 46.899 5.72309C46.2849 5.4561 45.6041 5.32261 44.8566 5.32261C44.0956 5.32261 43.4082 5.4561 42.7941 5.72309C42.18 5.99007 41.6527 6.36385 41.2122 6.84442C40.7717 7.32499 40.4313 7.89901 40.191 8.56647C39.9507 9.22058 39.8306 9.93477 39.8306 10.709Z" fill="#4445E5"/>
<path d="M64.7346 17.6373H62.7723V11.3898H56.1444V17.6373H54.182V3.78077H56.1444V9.52761H62.7723V3.78077H64.7346V17.6373Z" fill="#4445E5"/>
<path d="M71.558 5.60294V17.6373H69.5957V5.60294H66.7523V3.78077H74.4014V5.60294H71.558Z" fill="#4445E5"/>
<path d="M76.4241 17.6373V3.78077H82.4513V5.60294H78.3865V9.60771H82.3512V11.4099H78.3865V15.8151H82.5114V17.6373H76.4241ZM77.6456 2.89972C77.3119 2.89972 77.0315 2.79293 76.8046 2.57934C76.5777 2.35241 76.4642 2.0654 76.4642 1.71832C76.4642 1.38459 76.5777 1.10425 76.8046 0.877317C77.0315 0.65038 77.3119 0.536911 77.6456 0.536911C77.9927 0.536911 78.2797 0.65038 78.5066 0.877317C78.7469 1.10425 78.867 1.38459 78.867 1.71832C78.867 2.0654 78.7469 2.35241 78.5066 2.57934C78.2663 2.79293 77.9793 2.89972 77.6456 2.89972ZM81.39 2.89972C81.0563 2.89972 80.776 2.79293 80.5491 2.57934C80.3221 2.35241 80.2086 2.0654 80.2086 1.71832C80.2086 1.38459 80.3221 1.10425 80.5491 0.877317C80.776 0.65038 81.0563 0.536911 81.39 0.536911C81.7371 0.536911 82.0241 0.65038 82.2511 0.877317C82.4914 1.10425 82.6115 1.38459 82.6115 1.71832C82.6115 2.0654 82.4914 2.35241 82.2511 2.57934C82.0108 2.79293 81.7238 2.89972 81.39 2.89972Z" fill="#4445E5"/>
<path d="M92.5349 7.54525C92.5349 8.15932 92.4348 8.70664 92.2345 9.18721C92.0343 9.66778 91.754 10.0749 91.3935 10.4087C91.0464 10.7424 90.6193 10.996 90.112 11.1696C89.6181 11.3431 89.0708 11.4299 88.47 11.4299H86.8481V17.6373H84.8858V3.78077H88.47C89.7649 3.78077 90.7661 4.09448 91.4736 4.72189C92.1811 5.34931 92.5349 6.29043 92.5349 7.54525ZM86.8481 5.50282V9.70783H88.3699C89.0774 9.70783 89.6047 9.51427 89.9518 9.12714C90.3122 8.74001 90.4925 8.21939 90.4925 7.56528C90.4925 6.92452 90.3122 6.42392 89.9518 6.06349C89.6047 5.68971 89.0774 5.50282 88.3699 5.50282H86.8481Z" fill="#4445E5"/>
<path d="M94.6185 3.78077H96.5808V9.2673H98.0025C99.3107 9.2673 100.345 9.63441 101.106 10.3686C101.88 11.0895 102.268 12.124 102.268 13.4723C102.268 14.8339 101.887 15.8685 101.126 16.576C100.365 17.2835 99.3241 17.6373 98.0025 17.6373H94.6185V3.78077ZM96.5808 10.9894V15.9152H97.9024C98.6766 15.9152 99.2573 15.7016 99.6444 15.2745C100.032 14.8339 100.225 14.2332 100.225 13.4723C100.225 12.7114 100.025 12.1107 99.6244 11.6702C99.2373 11.2163 98.6633 10.9894 97.9024 10.9894H96.5808ZM105.712 17.6373H103.749V3.78077H105.712V17.6373Z" fill="#4445E5"/>
<path d="M133.238 15.7572H128.314V5.61451H133.238V15.7572ZM126.562 17.517H134.987V3.85474H126.562V17.517Z" fill="#4445E5"/>
<path d="M118.128 10.6859L115.806 8.39419L118.786 5.36657L121.765 8.39419L119.443 10.6859L121.765 12.9776L118.786 16.0052L115.806 12.9776L118.128 10.6859ZM118.786 2.83489L113.328 8.39419L115.646 10.6859L113.328 12.9776L118.786 18.5369L124.183 13.0416L124.247 12.9776L121.929 10.6859L124.247 8.39419L118.786 2.83489Z" fill="#4445E5"/>
<path d="M140.014 5.61451H144.938V15.7572H140.014V5.61451ZM138.261 17.517H146.691V3.85474H138.261V17.517Z" fill="#4445E5"/>
</svg>
