<?xml version="1.0" encoding="UTF-8"?>
<svg id="_Слой_2" data-name="Слой 2" xmlns="http://www.w3.org/2000/svg" viewBox="0 0 594.59 558.25">
  <defs>
    <style>
      .cls-1 {
        fill: #fff;
      }
    </style>
  </defs>
  <g id="_Слой_1-2" data-name="Слой 1">
    <g>
      <path class="cls-1" d="m266.48,0c2.17.94,3.99,2.22,4.63,5.05,4.06,0,8.15-.31,12.17.07,7.36.68,14.52,2.09,20.7,6.74,6.17,4.64,6.3,12.79,2.48,18.08-3.46,4.8-8.07,8.25-13.24,10.82-6.2,3.08-12.64,5.68-19.09,8.54,0,2.62-.1,5.8.02,8.96.28,7.64.65,15.28,1,22.92.37,8.18.67,16.37,1.18,24.54.35,5.58,1.21,11.12,1.46,16.7.16,3.62-1.22,6.38-4.66,7.07-3.32.66-6.46-1.45-6.98-5.19-.82-6.01-1.32-12.07-1.73-18.13-.52-7.76-.82-15.53-1.2-23.3-.29-6.01-.55-12.03-.84-18.04-.22-4.45-.46-8.9-.74-13.35-.02-.39-.32-.91-.65-1.1-3.68-2.15-3.81-7.17-.57-9.97.76-.66.75-2.46.73-3.72-.08-4.19-.33-8.38-.53-12.57-.09-1.88-.23-3.77-.35-5.8-6.93,1.1-13.57,2.76-19.85,5.62-2.57,1.17-5.03,2.6-7.45,4.07-3.26,1.98-6.44,1.73-8.33-.83-1.94-2.62-1.29-6,1.77-8.37,4.64-3.6,9.81-6.29,15.41-8.01,5.33-1.64,10.79-2.89,16.2-4.27,1.08-.27,1.92-.46,2.13-1.88.37-2.43,2.32-3.6,4.32-4.64h2.04Zm6.64,36.34c9.24-3.33,17.94-6.52,24.04-14.15-3.51-4.43-19.21-6.27-25.2-5.01.38,6.21.76,12.46,1.17,19.15Z"/>
      <path class="cls-1" d="m0,282.39c1.31-2.18,2.84-3.89,5.78-3.4,2.92.48,4.5,1.92,4.75,4.86.26,3.17.36,6.35.49,9.53.32,7.83.67,15.65,2.51,23.3.76,3.16,1.82,6.19,4.14,8.67,3.24,3.46,8.28,3.04,11.67-.03.74-.67.47-2.64.39-3.99-.18-3.36-.58-6.72-.77-10.08-.44-7.5-.88-14.99-1.18-22.49-.14-3.64,1.3-5.6,4.14-6.37,3.17-.85,6.36,1.17,6.64,4.41.45,5.25.68,10.53,1.12,15.78.41,4.9,1.02,9.78,1.48,14.68.24,2.56.27,5.14.52,7.7.76,7.98,1.57,15.96,2.38,23.94.37,3.69.69,7.38,1.2,11.05.51,3.66,1.18,7.31,1.85,10.95.86,4.65-1.69,7.86-6.11,7.62-2.04-.11-3.61-1.21-4.28-2.95-1.05-2.74-1.97-5.6-2.37-8.48-1.13-8.14-1.97-16.32-2.93-24.49-.17-1.45-.41-2.89-.6-4.29-2.29.41-4.44,1.01-6.61,1.15-9.15.6-15.07-4.3-19.2-11.81-2.67-4.86-3.74-10.25-4.23-15.76-.13-1.42-.51-2.81-.77-4.21,0-8.43,0-16.87,0-25.3Z"/>
      <path class="cls-1" d="m176.55,459.95c-6.57-1.17-12.75-2.21-18.9-3.41-1.41-.27-2.84-.9-4.05-1.7-1.98-1.31-2.49-3.89-1.49-6.17,1.05-2.39,3.19-3.49,5.66-3.15,5.27.74,10.55,1.37,16.2,2.09-.45-1.88-.84-3.61-1.28-5.32-1.84-7.21-3.89-14.34-7.77-20.78-1.59-2.64-2.69-2.72-4.57-.18-1.16,1.56-2.14,3.28-3.04,5.01-1.13,2.21-2.71,3.8-5.28,3.73-2.11-.05-4.12-.86-4.77-3.08-.42-1.42-.66-3.19-.2-4.53,1.62-4.76,4.42-8.85,8.39-11.99,5.95-4.69,13.25-3.46,18.04,2.85,3.83,5.05,6.09,10.84,7.94,16.79,1.78,5.72,3.25,11.54,4.93,17.6,4.31-.29,8.78-.6,13.62-.93,0-5.95-.24-11.66.05-17.35.5-9.62,1.17-19.25,3.63-28.62.67-2.56,2.26-4.3,4.93-4.82,1.89-.36,4.16.92,5.27,2.79,1.18,2,.52,4.06.3,6.12-.69,6.64-1.48,13.27-1.95,19.93-.44,6.21-.52,12.44-.75,18.66-.02.6,0,1.21,0,1.96h5c.04-.09.19-.26.19-.44.19-6.64.31-13.29.59-19.93.1-2.27.47-4.56.99-6.77.68-2.89,2.98-4.32,5.95-3.99,2.56.28,4.59,2.53,4.53,5.38-.05,2.63-.53,5.25-.57,7.87-.09,6.26-.24,12.52.03,18.77.27,6.4.96,12.78,1.54,19.17,1.32,14.36,4.45,28.35,8.72,42.1.65,2.08,1.98,3.99,1.18,6.39-.85,2.57-2.67,4.28-5.11,4.47-2.54.2-4.91-1.22-5.83-3.88-1.67-4.85-3.5-9.68-4.63-14.66-2.13-9.38-3.93-18.85-5.64-28.32-.7-3.91-.97-7.91-1.13-11.88-.08-1.95-.73-2.56-2.54-2.34-.74.09-1.49.01-2.37.01,0,3.23-.22,6.41.05,9.54.62,7.19,1.13,14.41,2.32,21.51,1.37,8.22,3.39,16.33,5.2,24.48.23,1.03.78,2.01,1.3,2.95,1.78,3.19,1.18,6.3-1.63,8.17-2.66,1.77-6.5,1.23-8.14-1.73-1.67-3.03-3.02-6.38-3.76-9.75-1.98-9.01-3.85-18.07-5.21-27.19-1.04-6.99-1.23-14.11-1.81-21.17-.15-1.81-.32-3.61-.51-5.65-3.82.31-7.62.63-11.64.96.3,2.44.57,4.82.88,7.19.64,4.94,1.58,9.87,1.9,14.83.61,9.38,1.25,18.79,1.18,28.18-.06,9.24-.76,18.51-3.44,27.45-1.98,6.61-4.57,13.02-10.23,17.4-7.25,5.61-14.59,4.54-21.29-1.35-5.7-5.01-8.65-11.64-10.78-18.73-3.48-11.61-3.48-23.5-2.67-35.41.44-6.52,1.21-13.02,2.06-19.5.34-2.58,1.12-5.15,2.01-7.61,1.8-5.02,7.05-6.26,10.17-2.49,1.62,1.95,1.03,4.27.72,6.46-.88,6.05-2.2,12.06-2.7,18.15-.61,7.42-.98,14.9-.7,22.33.32,8.68,2.01,17.21,6.87,24.69,1.14,1.76,2.88,3.21,4.56,4.52,1.68,1.31,3.38.73,4.93-.65,3.22-2.88,4.18-6.92,5.42-10.73,2.11-6.45,2.95-13.16,3.09-19.95.08-3.66.28-7.33.24-10.99-.13-11.84-1.15-23.6-2.95-35.3-.43-2.79-.88-5.58-1.27-8.04Z"/>
      <path class="cls-1" d="m522.15,341c-1.74,3.35-3.41,7.04-5.51,10.46-1.31,2.15-3.05,4.17-4.99,5.77-3.83,3.17-8.57,2.74-11.68-1.14-1.9-2.38-3.17-5.26-4.64-7.79-.57,1.25-1.29,3.01-2.16,4.7-1.82,3.56-3.96,6.85-7.03,9.55-6.61,5.83-14.52,3.09-18.21-3.88-2.7-5.11-4.09-10.61-4.69-16.23-.73-6.78-1-13.62-1.25-20.44-.27-7.45-.53-14.93-.34-22.38.15-5.85.83-11.7,1.61-17.51.37-2.74,3.15-4.62,5.69-4.61,2.46.01,5.01,1.65,5.39,4.09.27,1.76-.37,3.67-.61,5.51-.12.93-.29,1.86-.33,2.79-.06,1.22-.03,2.45-.01,3.67.12,11.74.22,23.49.39,35.23.1,7.04.84,14.01,3.04,20.75.41,1.26,1.02,2.46,1.54,3.69.21.08.43.16.64.24,1.53-2.58,3.33-5.05,4.53-7.77,3.38-7.65,4.72-15.86,6.18-24.03,1.67-9.38,1.84-18.85,1.69-28.34-.06-3.57,2.46-6.78,5.4-7.05,2.59-.24,5.47,1.29,6.12,3.81.37,1.42.6,2.91.63,4.38.19,9.64.02,19.3.56,28.92.39,6.96,1.7,13.87,2.6,20.81.19.05.38.11.57.16,1.04-2.11,2.23-4.17,3.1-6.35,4.73-11.86,8.78-23.95,11.09-36.54,1.05-5.69,1.75-11.44,2.49-17.18.63-4.91,5.39-7.67,9.22-4.98,1.27.89,2.47,2.83,2.51,4.31.11,4.3-.42,8.62-.65,12.94-.14,2.64-.24,5.28-.29,7.93-.09,4.41-.13,8.83-.19,13.25-.13,9.57-.4,19.14-.34,28.7.04,7.24.09,14.53.87,21.72,1.25,11.51,3.06,22.97,4.71,34.43.69,4.76-1.93,8.07-6.34,7.75-2.43-.18-4.78-2.76-5.33-6.14-1.17-7.19-2.42-14.36-3.29-21.59-.82-6.82-1.3-13.7-1.73-20.56-.45-7.09-.67-14.19-.98-21.07Z"/>
      <path class="cls-1" d="m78.27,193.48c5.02,1.06,10.14,1.79,15.02,3.29,2.95.91,5.78,2.69,8.24,4.62,5.5,4.32,6.04,11.53,1.74,17.62-4.2,5.95-10.13,9.73-16.51,12.72-5.92,2.77-12.09,5.01-18.21,7.34-1.43.54-2.08,1.14-1.96,2.72.14,1.89.09,3.81.01,5.71-.15,3.53-2.51,5.66-6.09,5.63-3.3-.03-5.36-2.17-5.55-5.68-.07-1.34-.27-2.68-.44-4.34-3.45.93-6.88,1.81-10.27,2.77-4.11,1.16-7.25.08-8.68-3.08-1.51-3.33.28-7.01,4.23-8.21,4.32-1.31,8.72-2.34,13.06-3.57.54-.15,1.37-.82,1.35-1.23-.22-5.88-.56-11.76-.9-17.64-.02-.37-.27-.73-.72-.56-1.78-.8-3.91-1.23-5.26-2.49-2.91-2.72-1.99-7.34,1.83-9.37,2.39-1.27,3.4-2.63,3.02-5.5-.86-6.54-1.33-13.14-1.88-19.72-.5-5.99-.97-11.99-1.3-18-.17-3.04,1.99-5.41,4.87-5.75,2.66-.31,5.51,1.82,5.92,4.75.84,5.94,1.52,11.9,2.23,17.86.63,5.33,1.22,10.66,1.87,16.45,2.14-1.83,4.03-3.41,5.89-5.03,5.32-4.66,10.25-9.68,13.81-15.85,1.62-2.8,2.92-5.76,2.66-9.1-.4-5.16-4.04-7.96-8-10.29-7.05-4.16-14.89-5.99-22.95-6.74-4.24-.4-8.54-.53-12.79-.33-9.6.44-19.09,1.52-27.77,6.27-3.41,1.87-6.38,1.1-8.2-1.7-1.56-2.41-.75-6.02,1.69-7.5,8.11-4.92,17-7.4,26.33-8.61,7.15-.92,14.31-1.01,21.46-.27,10.49,1.09,20.63,3.51,29.65,9.29,6.81,4.37,11.86,10.12,12.69,18.55.67,6.77-1.88,12.73-5.42,18.31-3.47,5.46-7.64,10.34-12.55,14.57-.86.74-1.63,1.56-2.15,2.06Zm15.84,17.05c-9.29-5.5-18.96-4.8-28.88-3.17.37,6.73.73,13.17,1.12,20.28,6.3-2.88,12.13-5.35,17.78-8.18,3.93-1.97,7.43-4.62,9.98-8.93Z"/>
      <path class="cls-1" d="m467.32,163.5c-3.62,5.93-7.07,11.97-10.92,17.74-3.06,4.59-6.34,9.11-10.03,13.21-4.84,5.38-11.89,5.25-17.05.1-1.96-1.95-3.7-4.12-5.32-5.93,0,2.75-.11,5.86.03,8.97.17,3.91.62,7.81.78,11.72.36,8.73.63,17.46.9,26.19.07,2.26-.83,4.07-2.88,5.21-2.09,1.16-4.19,1.08-6.16-.15-2.33-1.46-2.73-3.96-2.85-6.41-.35-7.37-.55-14.75-.88-22.12-.35-7.56-.77-15.12-1.2-22.68-.48-8.43-1.03-16.86-1.47-25.29-.14-2.71.52-5.33,3.33-6.34,2.73-.98,5.56-.45,7.37,1.96,2.05,2.74,3.71,5.78,5.47,8.72,2.81,4.69,5.52,9.44,8.37,14.11.79,1.3,1.95,2.37,2.97,3.58,4.69-4.5,7.59-10.09,10.91-15.4,5.99-9.56,11.94-19.15,18.06-28.63,2.65-4.09,7.51-4.72,10.87-1.82,2.03,1.75,2.59,4.16,2.62,6.57.06,4.32-.21,8.65-.38,12.98-.09,2.3-.3,4.6-.38,6.9-.26,7.65-.53,15.29-.69,22.94-.1,4.88-.12,9.78,0,14.66.34,13.39,1.88,26.63,5.46,39.57.79,2.85,1.8,5.64,2.78,8.44.98,2.78-.13,5.98-2.63,7.36-2.7,1.49-5.94.78-7.74-1.77-2.56-3.61-3.63-7.86-4.44-12.06-1.82-9.38-3.38-18.81-4.88-28.25-.44-2.73-.42-5.53-.49-8.31-.18-7.05-.45-14.09-.37-21.14.08-7.17.51-14.34.82-21.51.04-1,.27-1.98.41-2.97l-.42-.15Z"/>
      <path class="cls-1" d="m376.91,81.62c7.44-2.82,14.78-5.73,22.21-8.36,3.33-1.18,6.8-2.44,10.34-.33,3.26,1.94,3.71,7.29.45,9.22-2.52,1.49-5.45,2.29-8.21,3.35-9.96,3.81-20.04,7.33-29.85,11.48-9.89,4.18-19.51,9-29.26,13.51-1.21.56-1.8,1.25-2,2.69-.75,5.32-5.45,7.27-9.93,4.34-.45-.29-1.38-.23-1.9.04-8.99,4.7-17.95,9.45-26.91,14.2-3.9,2.06-7.6.96-8.91-2.68-.83-2.28-.31-4.75,1.83-6.08,4.35-2.71,8.84-5.21,13.32-7.7,6.78-3.78,13.62-7.46,20.39-11.27.7-.39,1.43-1.3,1.56-2.06,1.63-9.35,3.17-18.72,4.7-28.08,1.49-9.11,2.93-18.23,4.39-27.34,1.53-9.57,3.04-19.15,4.58-28.73.46-2.83,2.37-4.94,4.64-5.24,3.09-.41,5.03.39,6.28,3.56,2.09,5.31,3.97,10.73,5.6,16.2,4.74,15.92,9.73,31.74,15.9,47.17.27.68.51,1.37.79,2.11Zm-33.59,15.02c7.85-3.64,15.07-6.98,22.14-10.26-4.67-13.44-9.31-26.78-14-40.25-2.7,16.76-5.38,33.37-8.14,50.51Z"/>
      <path class="cls-1" d="m166.92,114.02c4.04-1.59,6.41-4.51,8.78-7.37,5.43-6.56,9.54-13.92,12.9-21.73.87-2.03,2.04-3.97,3.34-5.76,1.64-2.25,4.84-2.71,7.31-1.31,2.38,1.34,3.75,4.21,2.72,6.67-2,4.73-3.96,9.53-6.54,13.94-3.33,5.69-7.04,11.2-11,16.48-3.35,4.46-7.62,8.03-12.83,10.35-6.4,2.85-14.08-.63-16.16-7.32-1.96-6.32-1.21-12.58.31-18.8,3.56-14.58,10.25-27.83,17.52-40.83,4.39-7.84,8.58-15.8,13-23.63,2.85-5.04,5.08-10.27,6.36-16.1-2.21-1.11-4.51-.84-6.7-.39-7.81,1.57-14.73,5.29-21.43,9.39-8.92,5.45-16.58,12.37-22.94,20.67-2.62,3.41-4.62,7.1-4.44,11.7.13,3.05-2.27,5.31-5.33,5.59-2.42.22-5.02-2.1-5.66-4.87-1.18-5.08.53-9.61,2.67-13.99,3.25-6.66,8.11-12.07,13.53-17.09,5.38-4.99,11.08-9.5,17.36-13.27,7.39-4.43,15.15-8.02,23.6-9.91,3.73-.83,7.51-1.04,11.26-.18,7.2,1.65,11.23,8.86,9.77,16.29-1.44,7.33-5.05,13.63-8.51,20.03-4.05,7.49-8.39,14.83-12.44,22.31-4.86,8.97-9.57,18.02-12.97,27.68-2.13,6.06-4.22,12.14-3.87,18.72.04.85.25,1.69.41,2.75Z"/>
      <path class="cls-1" d="m332.44,445.87c2.98,2.11,6.13,3.88,8.71,6.27,6.46,5.98,10.26,13.66,13.07,21.88,3.14,9.19,4.22,18.7,4.08,28.35-.19,13.07-3.02,25.56-8.69,37.36-1.95,4.07-4.6,7.73-8.08,10.58-7.22,5.91-15.23,4.45-21.1-2.38-4.77-5.54-7.62-12.14-9.37-19.12-1.9-7.56-3.82-15.19-4.77-22.91-1.22-9.93-1.84-19.98-1.01-30.02.29-3.46,2.46-6.48,4.96-6.97,4.3-.85,7.23,2.6,6.9,7.13-.42,5.78-.22,11.61-.08,17.42.08,3.51.42,7.02.88,10.5,1.43,10.86,3.39,21.59,8.29,31.53.86,1.74,2.03,3.35,3.23,4.89,1.62,2.09,3.21,2.13,5.13.31,3.44-3.26,5.31-7.48,6.93-11.79,4.19-11.12,5.8-22.67,4.85-34.48-.9-11.26-3.75-21.99-10.88-31.09-1.55-1.98-3.61-3.66-5.69-5.11-2.03-1.41-4.4-1.71-6.92-.86-3.3,1.12-5.94.25-7.34-2.06-1.65-2.71-1.26-5.34,1.13-7.96,3.3-3.62,6.33-7.44,8.01-12.1.56-1.57.85-3.28.95-4.95.16-2.73-.89-3.43-3.63-2.92-2.62.48-4.77,1.73-6.71,3.52-3.15,2.9-7.89,1.52-9.01-2.61-.63-2.29.49-4.16,1.93-5.71,3.75-4.05,8.53-6.04,13.99-6.46,3.68-.28,7.14.26,10.13,2.7,4.41,3.61,5.67,8.37,5.02,13.78-.59,4.91-2.44,9.37-4.9,13.27Z"/>
      <path class="cls-1" d="m284.38,310.61c5.22-.5,10.55-1.29,15.91-1.43,5.39-.15,10.74.55,15.97,2.15,8.57,2.61,14.33,7.99,16.41,16.75,1.27,5.34.35,10.62-1.92,15.64-4.78,10.55-12.19,18.63-22.63,23.73-7.63,3.73-15.72,5.81-24.25,5.54-5.33-.17-10.67-.56-15.97-1.12-3.11-.33-5.06-2.34-5.33-4.73-.36-3.26.8-5.08,4.28-6.58-.26-2.7-.49-5.44-.81-8.18-.49-4.28-1.05-8.55-1.58-12.82-1.25-9.96-2.5-19.92-3.76-29.88-.52-4.15-1.02-8.3-1.62-12.43-.14-.97-.54-1.95-1.01-2.83-2.28-4.24-1.34-8.56,3.08-10.22,5.39-2.02,11.14-3.04,16.74-.43,6.53,3.04,9.91,9.31,8.87,16.7-.48,3.43-1.57,6.78-2.39,10.15Zm-5.4,50.52c7.05.49,13.8.1,20.15-2.55,10.5-4.38,18.57-11.25,21.79-22.71,1.3-4.63-.12-8.67-4.03-11.34-3.79-2.58-8.12-3.17-12.52-3.37-6.31-.28-12.58.17-18.77,1.43-3.81.78-7.59,1.68-10.92,3.61,1.45,11.78,2.88,23.33,4.31,34.92Zm-6.85-54.06c1.73-2.96,3.16-5.94,3.02-9.37-.11-2.86-1.9-4.31-5.17-3.85.72,4.41,1.43,8.82,2.15,13.22Z"/>
      <path class="cls-1" d="m147.85,321.91c4.96.43,10.13.84,14.75,3.33,2.11,1.13,4.13,2.63,5.79,4.35,2.75,2.83,2.47,7.77-.23,11.87-2.75,4.18-6.96,6.54-11.13,8.89-8.84,4.98-18.39,8.04-28.3,10.06-.58.12-1.14.31-1.68.46-.53,5.71-1.8,7.75-5,8.12-3.66.42-5.49-1.14-7.11-6.25-1.52.2-3.1.35-4.66.63-3.94.71-7.12-1.26-7.78-4.86-.51-2.84,2.09-6.02,5.52-6.69,1.84-.36,3.71-.63,5.82-.98-.28-2.95-.6-5.87-.83-8.8-.43-5.59-.74-11.19-1.24-16.78-.74-8.18-1.6-16.36-2.47-24.53-.08-.77-.47-1.54-.85-2.24-2.19-4.01-.47-7.14,2.95-8.47,13.14-5.12,26.45-5.87,39.49.45,4.68,2.27,8.21,5.71,8.68,11.37.35,4.3-1.04,8.08-3.66,11.31-2.49,3.07-5.34,5.84-8.05,8.76Zm-24.46.32c3.19-1.65,6.3-3.11,9.27-4.82,4.99-2.88,9.83-6.01,13.4-10.67,2.66-3.48,2.32-4.74-1.75-6.42-7.41-3.05-15.06-3.44-22.84-1.79-.41.09-1.02.9-.97,1.31.9,7.4,1.89,14.78,2.89,22.4Zm33.82,13.54c-10.96-3.11-21.8-2.35-32.8-.02.4,4.54.78,8.8,1.19,13.38,11.46-2.65,22.38-5.87,31.62-13.36Z"/>
      <path class="cls-1" d="m166.3,205.14c6.83,1.03,12.01-1.79,16.11-6.88,6.42-7.97,9.19-17.24,9.91-27.37.39-5.51.25-10.94-.57-16.35-.5-3.31-1.44-6.57-2.34-9.82-.9-3.26.5-6.68,3.29-7.58,3.33-1.08,5.92.29,7.27,3.89,3.91,10.42,5.46,21.22,4.4,32.26-1.07,11.1-3.96,21.7-11.12,30.6-2.52,3.14-5.56,5.87-8.38,8.81,1.59,1.76,3.57,3.73,5.3,5.89,5.9,7.34,9.19,15.87,10.95,25.01.85,4.42,1.31,8.93,1.68,13.43.23,2.73-1.86,5.1-4.37,5.58-3.16.6-5.75-.58-6.66-3.52-.79-2.55-1.14-5.24-1.52-7.9-1.47-10.38-4.57-20.1-11.96-27.87-2.87-3.01-6-6.03-10.81-5.43-.27.03-.54.04-.8.1-.11.03-.2.17-.18.15,0,7.43.02,14.74,0,22.06-.01,3.17-2.2,5.83-4.88,6.07-3.6.33-6.31-1.59-6.9-5.1-.33-2-.44-4.05-.45-6.08-.16-23.78-.29-47.56-.39-71.34,0-2.21,0-4.49.51-6.61.71-2.94,3.07-4.15,6.3-3.76,2.21.27,4.23,2.61,4.36,5.18.13,2.58.19,5.15.24,7.73.29,12.68.58,25.36.87,38.04,0,.26.1.52.15.79Z"/>
      <path class="cls-1" d="m368.76,323.14c-1.87,1.31-3.65,2.9-5.71,3.93-6.25,3.17-12.45,1.18-16.94-3.91-5.87-6.65-7.84-14.97-9.4-23.37-.74-3.96-1.08-8-1.61-12-.36-2.69.99-5.7,3.06-6.82,1.98-1.07,4.83-.95,6.13.82,1.09,1.49,1.9,3.47,2.05,5.3.63,7.86,2.26,15.47,5.2,22.77.72,1.79,1.87,3.45,3.06,4.99,1.94,2.5,3.61,2.3,5.71-.11,2.98-3.41,4.24-7.47,4.92-11.79.54-3.46,1.04-6.92,1.51-10.39.52-3.81,2.49-5.82,5.76-5.79,2.92.03,5.47,2.39,5.78,5.73.52,5.58.83,11.18,1.25,16.77.51,6.65,1.21,13.3,1.51,19.96.28,6.31.55,12.67.11,18.95-.55,7.85-1.59,15.68-2.87,23.45-1.23,7.49-3.99,14.52-9.3,20.14-6.92,7.33-17.39,7.52-25.22.95-6.23-5.23-9.04-12.27-10.77-19.93-1.19-5.26-1.59-10.55-.97-15.92.48-4.14,2.15-7.81,4.52-11.14,1.92-2.7,4.82-3.12,7.66-1.36,2.26,1.4,2.96,4.23,1.79,6.98-4.54,10.72-2.75,20.75,3.46,30.22.83,1.26,2.11,2.3,3.38,3.16,2.57,1.74,5.83,1.02,7.98-1.51,3.54-4.17,4.87-9.25,6.08-14.41,2.92-12.46,2.45-25.14,2.4-37.79,0-2.67-.36-5.33-.54-7.89Z"/>
      <path class="cls-1" d="m418.07,330.5c1.52,11.15,3.02,22.15,4.53,33.15.01.11.19.19.41.41,4.41-1.57,8.91-3.2,13.42-4.76,3.82-1.32,7.61-2.81,11.52-3.77,4.24-1.04,7.57,2.04,7.04,6.19-.35,2.76-2.37,4.21-4.76,5.04-8.62,3-17.27,5.9-25.91,8.84-1.79.61-3.55,1.33-5.37,1.86-3.62,1.07-6.57-.71-7.14-4.41-.67-4.33-1.14-8.68-1.71-13.02-1.06-8.02-2.14-16.03-3.2-24.05-.08-.6-.09-1.2-.16-2.11-3.38,1.23-6.6,2.38-9.81,3.57-1.52.56-2.99,1.27-4.54,1.76-3.11.98-5.81-.31-6.92-3.2-.97-2.53.21-5.55,2.96-6.76,5-2.2,10.08-4.24,15.15-6.28,1.04-.42,1.54-.63,1.32-2.09-1.63-10.99-3.07-22.01-4.62-33.01-.09-.65-.64-1.3-1.13-1.81-2.59-2.69-2.51-5.37-.04-8.12,2.47-2.74,5.04-3.94,9.03-3.67,4.13.28,8.37-1.16,12.57-1.74,5.46-.76,10.92-1.66,16.42-2.04,4.05-.28,6.54,3.52,5.19,7.32-.67,1.88-2.17,2.96-4.06,3.33-3.96.77-7.94,1.46-11.93,2.1-4.58.73-9.17,1.33-13.74,2.1-.46.08-1.2.98-1.14,1.4,1.6,10.57,3.29,21.13,4.99,31.83,4.06-1.09,8.05-2.27,12.09-3.21,2.27-.53,4.68-1.11,6.94-.84,3.42.4,4.86,2.38,4.87,5.44.01,3.02-1.62,4.88-4.94,5.75-5.15,1.35-10.28,2.74-15.42,4.12-.58.16-1.14.4-1.92.68Z"/>
      <path class="cls-1" d="m284.76,471.07c-1.64,5.9-3.12,11.65-4.85,17.32-1.87,6.1-4.53,11.83-8.59,16.86-5.02,6.2-12.45,6-17.35-.37-3.8-4.94-5.53-10.72-6.66-16.59-1.7-8.86-3.23-17.79-4.04-26.76-.89-9.77-1.08-19.61-1.18-29.42-.05-4.56.67-9.16,1.35-13.7.66-4.39,4.71-6.43,8.25-4.54,1.52.82,3.06,3.49,2.69,6.07-.28,2-.27,4.04-.49,6.06-.89,8.12-.2,16.22.34,24.32.29,4.32.44,8.65.86,12.95.97,10.02,2.38,19.96,5.75,29.51.49,1.39,1.21,2.7,2.1,4.65,1.62-3.34,3.23-6.17,4.39-9.17,4.04-10.36,6.53-21.15,8.09-32.13,1.05-7.4,1.74-14.85,2.62-22.28.12-.99.34-1.99.66-2.93,1.15-3.36,3.02-4.55,6.45-4.2,2.57.27,4.57,2.56,5,5.57,1.19,8.34,2.2,16.71,3.73,24.98,1.22,6.62,3.16,13.1,4.69,19.67.89,3.83-.74,7.17-3.82,8.21-3.08,1.04-6.34-.72-7.37-4.16-.84-2.84-1.43-5.75-2.14-8.62-.09-.38-.28-.73-.5-1.3Z"/>
      <path class="cls-1" d="m561.72,325.73c4.85-.31,9.29-.92,13.71-.79,6.02.17,11.47,2.1,15.7,6.76,5.04,5.55,4.29,13.32-.35,19.08-5.02,6.24-11.95,9.55-19.23,12.29-.76.29-1.54.52-2.32.77q-3.01.98-2.53,4.13c.57,3.72-1,6.57-4.08,7.42-3.5.96-6.89-1.24-7.48-5.23-.99-6.66-1.75-13.35-2.59-20.04-1.07-8.55-2.14-17.11-3.17-25.67-.46-3.82-.76-7.66-1.24-11.47-.89-7.08-1.95-14.14-2.76-21.23-.86-7.58-1.5-15.18-2.22-22.77-.25-2.61-.63-5.23-.64-7.85-.02-3.67,2.32-6.54,5.88-6.24,2.57.21,4.66,1.88,4.94,4.47.32,2.95.42,5.92.78,8.87.89,7.22,1.85,14.43,2.83,21.64,1.2,8.87,2.46,17.74,3.66,26.61.42,3.13.74,6.28,1.09,9.24Zm3.07,27.15c2.08-.73,3.97-1.26,5.74-2.05,4.07-1.82,8.15-3.68,10.96-7.39,2.04-2.69,1.71-4.08-1.36-5.51-5.24-2.43-10.64-1.82-16.02-.57-.42.1-.94,1.09-.89,1.62.44,4.48.99,8.95,1.57,13.89Z"/>
      <path class="cls-1" d="m399.67,199.74c.17,11.59-2.63,22.47-8.11,32.64-1.94,3.59-4.63,6.61-8.32,8.67-5.12,2.86-12.08,1.5-16.44-2.24-6.29-5.41-9.33-12.63-11.4-20.35-2.47-9.2-3.24-18.61-3.05-28.1.04-2.08.46-4.15.59-6.23.06-.92-.01-1.9-.28-2.78-.81-2.64-.88-5.2.47-7.68,2.36-4.33,4.58-8.75,8.35-12.1,3.32-2.94,6.15-2.75,9.13.42.55.59,1.77.84,2.65.79,6.36-.35,11.71,1.97,16.14,6.32,4.07,4,7.08,8.83,8.33,14.41,1.18,5.3,1.69,10.75,2.49,16.14-.19.03-.37.07-.56.1Zm-11.89-1.37c-.12-1.21-.36-3.15-.48-5.09-.25-4.26-1.48-8.23-3.61-11.9-4.34-7.44-10.08-7.92-16.91-4.54-.48.24-1.03.82-1.1,1.31-.6,4.54-1.64,9.1-1.51,13.63.19,6.66.98,13.33,2,19.91.87,5.62,2.61,11.08,6.41,15.54,4.64,5.43,5.23,4.11,8.03-.37,5.28-8.44,6.79-17.96,7.16-28.49Z"/>
      <path class="cls-1" d="m419.54,483.26c-1.07-7.14-2.2-14.46-3.23-21.79-.32-2.27-.27-4.6-.49-6.89-.6-6.23-1.24-12.46-1.91-18.69-.69-6.5-1.44-12.99-2.14-19.48-.19-1.74-.37-3.49-.37-5.24,0-2.82,2.11-5.07,4.95-5.44,2.52-.33,5.08,1.47,5.58,4.28.8,4.5,1.44,9.04,2.04,13.57.98,7.34,1.87,14.68,2.8,22.02.17,1.37.34,2.74.47,3.82,5.62-1.16,10.98-2.63,16.43-3.3,6.45-.8,12.86-.19,18.59,3.38,9.89,6.15,10.07,17.16,3.12,25.5-5.99,7.18-14.02,11.33-22.47,14.71-6.41,2.56-13.02,4.47-19.97,4.92-4.19.27-6.14-.73-7.17-3.66-1.08-3.09-.17-5.08,3.76-7.72Zm11.44-2.15c4.88-.82,13.52-4.55,18.18-7.65,3.3-2.2,6.37-4.6,8.43-8.06,1.58-2.66.95-5.05-1.93-6.06-2.39-.84-4.95-1.47-7.47-1.6-6.29-.31-12.33,1.19-18.27,3.12-1.15.37-1.5.97-1.32,2.07.25,1.52.5,3.04.69,4.57.57,4.53,1.12,9.07,1.68,13.61Z"/>
      <path class="cls-1" d="m389.74,454.02c-5.23,1.2-10.28,2.35-15.44,3.53.94,10.06,2.61,20.26,5.93,30.15,1.7,5.06-1.39,9.12-6.3,8.42-2.25-.32-3.58-1.84-4.34-3.82-2.28-6.01-3.96-12.19-4.81-18.58-.67-5.01-1.33-10.02-2.06-15.02-.15-1.03-.5-1.97-1.95-2.09-1.1-.09-2.22-.58-3.23-1.1-2.27-1.15-3.37-3.5-2.89-5.84.52-2.54,2.46-4.2,5.12-4.38.53-.04,1.06-.05,1.73-.08-.13-2.49-.25-4.89-.37-7.29-.26-5-.58-9.99-.75-14.99-.11-3.41,1.94-5.73,4.79-5.97,3.62-.3,5.84,2.02,6.16,5.51.66,7.06,1.12,14.14,1.69,21.21.06.72.32,1.42.58,2.52,4.47-1.31,8.83-2.62,13.21-3.85,1.46-.41,1.81-1.28,1.73-2.69-.32-5.4-.68-10.81-.8-16.21-.1-4.17,3.29-6.68,7.14-5.56,2.04.6,3.52,2.57,3.73,5.09.47,5.66.76,11.33,1.37,16.97,1.35,12.4,2.85,24.78,7.01,36.66.77,2.2,1.32,4.56,1.48,6.88.23,3.19-1.54,4.93-4.97,5.57-2.24.41-5.18-1.19-5.91-3.63-2.16-7.23-4.25-14.49-6.16-21.79-.83-3.17-1.14-6.47-1.67-9.62Z"/>
      <path class="cls-1" d="m297.27,223.27c-4.21,1.44-8.03,2.78-11.88,4.06-2.59.86-5.13-.07-6.29-2.22-1.55-2.85-1.33-5.58,1.22-7.17,2.65-1.65,5.68-2.72,8.57-3.99.86-.38,1.78-.68,2.71-.88,1.71-.37,2.67-1.11,3.17-3.03.88-3.41,5.99-4.53,8.53-2.01,1.05,1.04,1.92,1.32,3.52,1.08,5.39-.81,10.84-1.56,16.28-1.7,4.12-.1,8.33.2,12.21,2.2,7.27,3.76,9.18,10.79,4.71,17.67-3.49,5.38-8.51,9-13.98,12.04-3.3,1.84-6.77,3.39-10.2,4.96-.94.43-1.14.79-.91,1.82,2.13,9.8,4.25,19.61,6.22,29.44.47,2.32.77,4.82.42,7.12-.4,2.65-2.65,4.13-5.2,4.31-2.32.16-4.83-1.35-5.69-3.79-.76-2.14-1.19-4.4-1.67-6.63-2.59-11.92-5.12-23.84-7.72-35.75-1.26-5.78-2.64-11.54-4.01-17.51Zm32.81-2.93c-7.42-1.51-14.3-.61-21.45.59,1.1,4.06,2.14,7.9,3.22,11.87,6.87-3.11,13.49-6,18.23-12.46Z"/>
      <path class="cls-1" d="m197.25,291.28c-3.3,4.21-4.1,8.25-4.59,12.35-.64,5.28-1.36,10.57-1.64,15.88-.36,6.7-.61,13.43-.36,20.12.37,10.19,1.68,20.29,5.42,29.9.58,1.48,1.5,2.82,2.27,4.23.2,0,.39,0,.59,0,.9-2.29,2.02-4.52,2.64-6.88,1.87-7.14,2.03-14.4,1.37-21.74-.18-2.01.18-4.18.76-6.13.7-2.36,3.01-3.44,5.71-3.21,2.24.2,4.57,2.05,4.85,4.26,1.54,12.06,1.35,24.01-3.07,35.54-1.29,3.36-3.26,6.38-6.31,8.54-4.06,2.88-9.84,2.37-13.57-1.01-4.18-3.79-6.41-8.64-8.03-13.87-2.45-7.91-3.6-16.02-3.84-24.3-.18-6.29-.92-12.57-.8-18.85.2-10.59.85-21.19,3.82-31.46,1.17-4.05,2.87-7.91,6.05-10.86,6.88-6.38,16.89-1.92,19.18,4.21,1.05,2.82.19,5.33-2.33,6.8-2.25,1.31-5.19.75-6.93-1.39-.5-.62-.79-1.42-1.18-2.14Z"/>
      <path class="cls-1" d="m81.1,313.15c1.05-3.69,2.01-7.1,2.98-10.5,1.22-4.28,2.35-8.58,3.68-12.83,1.04-3.3,3.85-4.83,6.73-3.92,3.18,1,4.6,3.83,3.7,7.26-3.22,12.27-6.39,24.55-9.62,36.81-3.04,11.54-6.2,23.04-9.16,34.6-2.14,8.36-4.05,16.79-6.07,25.18-.63,2.61-1.19,5.25-1.92,7.83-.77,2.71-4.09,4.49-6.82,3.8-3.07-.77-5-3.69-4.27-6.72,2.9-11.99,5.8-23.98,8.81-35.94,2.56-10.13,5.28-20.22,7.91-30.34.31-1.21.22-2.23-.76-3.34-7.53-8.51-14.98-17.1-22.42-25.69-1.1-1.27-2.22-2.58-3.05-4.02-1.31-2.26-.76-4.71,1.2-6.42,1.87-1.64,4.62-1.98,6.54-.39,2.07,1.72,3.92,3.72,5.73,5.73,4.35,4.82,8.62,9.72,12.94,14.58,1.21,1.36,2.44,2.7,3.88,4.3Z"/>
      <path class="cls-1" d="m268.52,162.21c0,7.65-.04,15.19.02,22.73.03,3.24.17,6.49.41,9.73.62,8.14,1.26,16.28,2.03,24.41.54,5.63,1.05,11.3,2.08,16.85,1.3,7.01,3.15,13.92,4.69,20.89.88,4.02.29,7.16-4.36,8.29-2.08.51-5-.89-6.25-3.57-1.44-3.09-2.78-6.34-3.43-9.66-1.83-9.31-3.54-18.66-4.81-28.06-.88-6.49-1.03-13.08-1.38-19.63-.47-8.65-.96-17.29-1.17-25.95-.12-4.87.3-9.75.45-14.62.02-.59-.07-1.18-.13-1.97-2.55,0-5.02.26-7.4-.09-1.69-.24-3.69-.9-4.81-2.07-2.51-2.63-1.3-6.93,2.14-8.4,1.15-.49,2.46-.82,3.71-.85,8.21-.17,16.43-.29,24.65-.31,1.52,0,3.1.27,4.54.76,2.38.81,3.48,2.86,3.4,5.65-.07,2.35-1.31,4.12-3.67,4.8-1.6.46-3.29.69-4.96.82-1.76.14-3.53.05-5.3.07-.12,0-.24.1-.44.18Z"/>
      <path class="cls-1" d="m209.72,204.1c.61-7.69,1-14.93,4.23-21.57,1.03-2.12,2.25-4.19,3.66-6.06,2.09-2.77,5.39-2.88,8.01-.57.44.39.97.86,1.5.92,8.11.94,13.2,5.86,17.07,12.58,3.53,6.14,5.91,12.54,6.04,19.73.18,9.96-1.71,19.25-8.88,26.65-5.88,6.06-14.99,5.85-21.04-.08-5.64-5.52-8.14-12.49-9.28-20.05-.6-3.99-.91-8.03-1.3-11.55Zm11.91-.26c.41,3.49.58,6.88,1.26,10.17.88,4.29,1.97,8.57,4.89,12.08,2.09,2.51,3.95,2.59,5.99.11.77-.93,1.48-1.96,1.95-3.07,4.21-9.78,3.19-19.23-2.18-28.23-1.58-2.64-3.52-5.2-6.92-5.9-2.06-.42-3.16.19-3.45,2.26-.58,4.21-1.04,8.43-1.54,12.58Z"/>
      <path class="cls-1" d="m305.65,200.11c-3.33-.76-7.61-1.28-11.56-2.72-8.02-2.93-12.22-10.8-10.87-19.32,1.65-10.4,10.84-19.89,21.31-21.57,8.74-1.4,17.52-1.24,26.08,1.26,5.39,1.57,10.06,4.4,12.56,9.79,3.03,6.52.7,13.18-3.79,18.1-7.2,7.88-16.52,11.74-26.82,13.55-1.99.35-4,.54-6.91.92Zm6.54-32.34c0,.08-.02.17-.02.25-.95,0-1.9-.03-2.85,0-8.04.25-12.92,4.31-14.18,11.76-.51,3.07.85,5.51,3.79,6.57,1.13.41,2.33.7,3.52.86,7.38,1.01,14.28-.83,20.7-4.19,2.91-1.52,5.48-3.89,7.83-6.25,2.28-2.3,1.68-4.73-1.15-6.27-1.06-.57-2.2-1.19-3.36-1.33-4.75-.57-9.51-.96-14.27-1.42Z"/>
      <path class="cls-1" d="m227.39,314.23c-3.84.69-7.72,1.44-11.62,2.05-2.46.39-4.94.7-7.42.79-3.37.12-5.78-2.06-5.93-5.08-.15-2.94,1.95-5.39,5.14-5.76,11.04-1.29,21.63-4.47,32.3-7.4,2.39-.65,4.87-1.08,7.34-1.25,2.87-.19,5.6,2.13,5.85,4.57.36,3.63-1.23,6.07-4.53,6.88-2.81.69-5.62,1.38-8.44,2-1.14.25-1.71.69-1.65,2.02.42,9.6.75,19.2,1.14,28.81.23,5.54.32,11.1.87,16.61.57,5.62,1.6,11.2,2.48,16.78.46,2.9-1.21,5.75-3.99,6.63-2.64.84-5.76-.28-6.68-2.97-1.15-3.35-1.94-6.85-2.51-10.35-2.81-17.09-1.94-34.33-2.05-51.54,0-.75-.02-1.49-.05-2.24,0-.13-.1-.25-.23-.55Z"/>
      <path class="cls-1" d="m225.9,115.01c-6.3-.38-10.44-4.01-13.29-9.41-2.14-4.07-2.98-8.44-3.37-13.03-.63-7.43.62-14.39,4.17-20.88,2.79-5.11,6.16-9.77,11.9-11.98,4.49-1.73,11.04.29,14.21,3.92,4.43,5.08,5.84,11.12,6.15,17.58.43,9.03-1.3,17.57-6.19,25.27-3.11,4.9-7.32,8.27-13.58,8.53Zm7.73-31.45c.07-3.49-.3-6.88-1.9-10.05-1.31-2.59-3.41-3.11-5.23-.83-1.68,2.11-3.13,4.59-4.01,7.14-2.3,6.68-2.15,13.44.74,19.95,1.71,3.84,3.33,3.89,5.77.47,3.55-5.01,4.49-10.74,4.64-16.69Z"/>
      <path class="cls-1" d="m324.48,77.53c.56,9.09-6.51,18.2-13.7,21.1-8.41,3.39-17.23.28-21.31-7.92-1.65-3.32-2.28-7.13-3.41-10.71-.19-.6-.44-1.33-.91-1.67-3.97-2.91-4.91-5.06-3.22-10.01.87-2.54,2.65-4.79,4.12-7.11,1.3-2.03,2.93-3.85,4.08-5.95,1.71-3.13,4.69-4.11,7.99-2.71,1.17.5,2.75.24,4.11.07,5.2-.64,9.7.88,13.67,4.19,6.42,5.37,8.64,12.48,8.57,20.71Zm-11.83-2.46c-.52-1.46-1.16-4.33-2.53-6.8-2.62-4.75-8.01-4.19-11.09-1.94-.34.25-.68.67-.77,1.07-1.18,5.52-1.15,10.96,1.06,16.26,1.72,4.13,5.17,5.54,8.09,3.16,3.25-2.64,5.08-6.07,5.23-11.75Z"/>
      <path class="cls-1" d="m517.5,370.02c0,2.75-1.11,4.46-4.18,5.49-4.08,1.38-8.21,2.7-12.4,3.65-8.33,1.89-16.69,3.62-25.08,5.19-4.33.81-7.64-2.66-6.71-6.7.51-2.22,2.06-3.58,4.19-3.91,12.08-1.86,23.69-5.61,35.47-8.67,1.43-.37,3.04-.48,4.5-.27,2.95.44,4.21,2.17,4.21,5.21Z"/>
      <path class="cls-1" d="m430.45,100.97c0-10.5,0-21,0-31.5,0-3.29,1.91-5.48,4.85-5.59,3.27-.12,5.46,1.85,5.76,5.19.71,7.92,1.44,15.83,2.14,23.75.32,3.63.73,7.25.85,10.88.13,3.81-2.7,6.58-6.43,6.59-3.75.01-6.62-2.86-6.67-6.68-.01-.88,0-1.76,0-2.65-.17,0-.33,0-.5,0Z"/>
      <path class="cls-1" d="m238.42,38.49c3.34-.34,5.55,2.25,5.95,4.97.4,2.75-1.66,5.69-5.01,6.76-6.88,2.2-13.78,4.33-20.68,6.48-1.42.44-2.82.96-4.27,1.25-3.79.76-6.43-.89-7.36-4.5-.66-2.55,1.17-5.23,4.42-6.35,7.79-2.67,15.59-5.33,23.4-7.94,1.13-.38,2.36-.46,3.55-.67Z"/>
    </g>
  </g>
</svg>