<svg width="33" height="33" viewBox="0 0 33 33" fill="none" xmlns="http://www.w3.org/2000/svg">
<g clip-path="url(#clip0)">
<path d="M32.0086 17.1012C32.0086 8.44403 24.9922 1.4277 16.3351 1.4277C7.67795 1.4277 0.661621 8.44403 0.661621 17.1012C0.661621 24.9257 6.39223 31.4093 13.8861 32.5848V21.6318H9.90652V17.1012H13.8861V13.6481C13.8861 9.72056 16.2249 7.55015 19.8065 7.55015C21.5208 7.55015 23.3147 7.85628 23.3147 7.85628V11.7134H21.3371C19.3902 11.7134 18.7841 12.9226 18.7841 14.1624V17.1012H23.131L22.4361 21.6318H18.7841V32.5848C26.2779 31.4093 32.0086 24.9257 32.0086 17.1012Z" fill="#F37320"/>
</g>
<defs>
<clipPath id="clip0">
<rect x="0.661621" y="1.4277" width="31.3469" height="31.3469" fill="white"/>
</clipPath>
</defs>
</svg>
