<svg width="33" height="33" viewBox="0 0 33 33" fill="none" xmlns="http://www.w3.org/2000/svg">
<path d="M0.408203 16.799C0.408203 7.96239 7.57165 0.79895 16.4082 0.79895C25.2448 0.79895 32.4082 7.96239 32.4082 16.799C32.4082 25.6355 25.2448 32.799 16.4082 32.799C7.57165 32.799 0.408203 25.6355 0.408203 16.799Z" fill="#F37320"/>
<path d="M16.3975 11.2187C17.3741 11.2187 18.1685 11.9853 18.1685 12.928C18.1685 13.87 17.3741 14.637 16.3975 14.637C15.4216 14.637 14.6265 13.87 14.6265 12.928C14.6265 11.9853 15.4216 11.2187 16.3975 11.2187V11.2187Z" fill="#F37320"/>
<path fill-rule="evenodd" clip-rule="evenodd" d="M13.0432 8.83337C10.5022 8.83337 8.44238 10.8932 8.44238 13.4342V20.1637C8.44238 22.7046 10.5022 24.7645 13.0432 24.7645H19.7727C22.3136 24.7645 24.3735 22.7046 24.3735 20.1637V13.4342C24.3735 10.8932 22.3136 8.83337 19.7727 8.83337H13.0432ZM13.181 10.2754C11.3606 10.2754 9.8849 11.7511 9.8849 13.5715V20.0263C9.8849 21.8467 11.3606 23.3224 13.181 23.3224H19.6358C21.4562 23.3224 22.9319 21.8467 22.9319 20.0263V13.5715C22.9319 11.7511 21.4562 10.2754 19.6358 10.2754H13.181Z" fill="white"/>
<path fill-rule="evenodd" clip-rule="evenodd" d="M20.4598 16.7989C20.4598 19.0365 18.6459 20.8504 16.4084 20.8504C14.1708 20.8504 12.3569 19.0365 12.3569 16.7989C12.3569 14.5614 14.1708 12.7475 16.4084 12.7475C18.6459 12.7475 20.4598 14.5614 20.4598 16.7989ZM19.0181 16.7989C19.0181 18.2401 17.8499 19.4083 16.4087 19.4083C14.9676 19.4083 13.7993 18.2401 13.7993 16.7989C13.7993 15.3578 14.9676 14.1895 16.4087 14.1895C17.8499 14.1895 19.0181 15.3578 19.0181 16.7989Z" fill="white"/>
<path fill-rule="evenodd" clip-rule="evenodd" d="M20.5971 13.5029C21.128 13.5029 21.5585 13.0724 21.5585 12.5415C21.5585 12.0106 21.128 11.5801 20.5971 11.5801C20.0662 11.5801 19.6357 12.0106 19.6357 12.5415C19.6357 13.0724 20.0662 13.5029 20.5971 13.5029Z" fill="white"/>
</svg>
