<svg width="33" height="33" viewBox="0 0 33 33" fill="none" xmlns="http://www.w3.org/2000/svg">
<circle cx="16.042" cy="16.799" r="16" fill="#F37320"/>
<g clip-path="url(#clip0)">
<path d="M19.748 8.79895C18.8277 8.79895 17.9622 9.1974 17.3113 9.92054L14.6276 12.9019C14.8327 12.8701 15.0376 12.8356 15.2473 12.8356C15.8253 12.8356 16.3918 12.9603 16.9125 13.1917L18.5842 11.3346C18.8953 10.9894 19.3085 10.7989 19.748 10.7989C20.6556 10.7989 21.394 11.6192 21.394 12.6275C21.394 13.1158 21.2226 13.5748 20.9119 13.9205L17.9029 17.2633C17.2806 17.9537 16.1976 17.9542 15.5752 17.2638L14.3032 18.6788C14.9537 19.401 15.8191 19.799 16.7391 19.799C17.6594 19.799 18.5248 19.4005 19.1758 18.6774L22.1848 15.3346C22.8357 14.6115 23.1944 13.65 23.1944 12.6275C23.1943 10.5162 21.6485 8.79895 19.748 8.79895V8.79895Z" fill="white"/>
<path d="M15.0575 20.4238L13.4017 22.2633C13.0905 22.6085 12.6773 22.799 12.2378 22.799C11.3302 22.799 10.5918 21.9787 10.5918 20.9704C10.5918 20.4821 10.7632 20.0231 11.074 19.6774L14.083 16.3346C14.7053 15.6442 15.7883 15.6437 16.4107 16.3341L17.6827 14.9191C16.3812 13.4747 14.112 13.4743 12.8101 14.9205L9.80109 18.2633C9.15014 18.9864 8.7915 19.9479 8.7915 20.9703C8.7915 23.0817 10.3373 24.7989 12.2378 24.7989C13.1582 24.7989 14.0236 24.4005 14.6745 23.6773L17.3226 20.7355C17.1293 20.7644 16.9369 20.7989 16.7385 20.7989C16.1515 20.7989 15.583 20.6686 15.0575 20.4238Z" fill="white"/>
</g>
<defs>
<clipPath id="clip0">
<rect x="8.7915" y="8.79895" width="14.4023" height="16" fill="white"/>
</clipPath>
</defs>
</svg>
