<svg width="33" height="33" viewBox="0 0 33 33" fill="none" xmlns="http://www.w3.org/2000/svg">
<path fill-rule="evenodd" clip-rule="evenodd" d="M16.2251 0.79895C7.38854 0.79895 0.225098 7.96239 0.225098 16.799C0.225098 25.6355 7.38854 32.799 16.2251 32.799C25.0617 32.799 32.2251 25.6355 32.2251 16.799C32.2251 7.96239 25.0617 0.79895 16.2251 0.79895ZM6.89176 16.7725C6.89176 11.6407 11.0786 7.46562 16.225 7.46562C21.3713 7.46562 25.5582 11.6407 25.5582 16.7725C25.5582 17.4995 25.4976 18.088 25.3616 18.6787L25.3596 18.6885C25.3593 18.6903 25.2918 18.9626 25.2546 19.0814C25.0239 19.8171 24.6063 20.4298 24.0467 20.8533C23.5042 21.2641 22.8314 21.4904 22.1525 21.4904C22.0686 21.4904 21.9841 21.487 21.9014 21.4803C20.9372 21.4031 20.0895 20.8972 19.5697 20.0905C18.6756 20.9869 17.4893 21.4801 16.225 21.4801C13.6219 21.4801 11.504 19.3683 11.504 16.7725C11.504 14.1767 13.6219 12.0649 16.225 12.0649C18.8281 12.0649 20.9459 14.1767 20.9459 16.7725V18.29C20.9498 19.1755 21.5457 19.5374 22.0547 19.5784C22.5612 19.6173 23.2352 19.3232 23.47 18.363C23.5858 17.8364 23.6447 17.3011 23.6447 16.7725C23.6447 12.6927 20.3162 9.3737 16.225 9.3737C12.1337 9.3737 8.8053 12.6927 8.8053 16.7725C8.8053 20.8522 12.1337 24.1713 16.225 24.1713C17.6491 24.1713 19.0342 23.7657 20.2304 22.9983L20.2518 22.9846L21.5092 24.4423L21.4822 24.4607C19.9284 25.5197 18.1104 26.0794 16.225 26.0794C11.0786 26.0794 6.89176 21.9043 6.89176 16.7725Z" fill="#F37320"/>
<path fill-rule="evenodd" clip-rule="evenodd" d="M19.0322 16.7725C19.0322 18.3161 17.7728 19.572 16.2249 19.572C14.6768 19.572 13.4175 18.3161 13.4175 16.7725C13.4175 15.2289 14.6768 13.9731 16.2249 13.9731C17.7728 13.9731 19.0322 15.2289 19.0322 16.7725" fill="#F37320"/>
</svg>
