<svg width="33" height="33" viewBox="0 0 33 33" fill="none" xmlns="http://www.w3.org/2000/svg">
<path fill-rule="evenodd" clip-rule="evenodd" d="M0.59082 16.799C0.59082 7.96239 7.75426 0.79895 16.5908 0.79895C25.4274 0.79895 32.5908 7.96239 32.5908 16.799C32.5908 25.6355 25.4274 32.799 16.5908 32.799C7.75426 32.799 0.59082 25.6355 0.59082 16.799ZM16.5799 17.0558C18.9393 17.0558 20.8572 15.2042 20.8572 12.928C20.8572 10.651 18.9393 8.79895 16.5799 8.79895C14.2211 8.79895 12.3026 10.651 12.3026 12.928C12.3026 15.2042 14.2211 17.0558 16.5799 17.0558ZM20.8053 19.433C20.0319 19.9018 19.1922 20.2344 18.3215 20.4258L20.7126 22.7342C21.2025 23.206 21.2025 23.9724 20.7126 24.4447C20.2233 24.917 19.4302 24.917 18.9414 24.4447L16.5904 22.1764L14.2416 24.4447C13.9966 24.6806 13.6757 24.7987 13.3548 24.7987C13.0344 24.7987 12.7139 24.6806 12.469 24.4447C11.9797 23.9724 11.9797 23.2065 12.4685 22.7342L14.8599 20.4258C13.9892 20.2344 13.1495 19.9014 12.3761 19.433C11.7908 19.0767 11.615 18.3304 11.9838 17.7649C12.3516 17.1987 13.125 17.0283 13.7113 17.3845C15.4623 18.4478 17.7181 18.448 19.4701 17.3845C20.0564 17.0283 20.8296 17.1987 21.1981 17.7649C21.5669 18.3299 21.3906 19.0767 20.8053 19.433Z" fill="#F37320"/>
<path d="M16.5801 11.2187C17.5567 11.2187 18.3511 11.9853 18.3511 12.928C18.3511 13.87 17.5567 14.637 16.5801 14.637C15.6042 14.637 14.8091 13.87 14.8091 12.928C14.8091 11.9853 15.6042 11.2187 16.5801 11.2187V11.2187Z" fill="#F37320"/>
</svg>
