<svg width="33" height="33" viewBox="0 0 33 33" fill="none" xmlns="http://www.w3.org/2000/svg">
<path fill-rule="evenodd" clip-rule="evenodd" d="M16.2109 0.79895C7.37438 0.79895 0.210938 7.96239 0.210938 16.799C0.210938 25.6355 7.37438 32.799 16.2109 32.799C25.0475 32.799 32.2109 25.6355 32.2109 16.799C32.2109 7.96239 25.0475 0.79895 16.2109 0.79895ZM17.5138 21.8497C17.3561 22.0161 17.048 22.0497 17.048 22.0497H16.028C16.028 22.0497 13.7776 22.1824 11.7951 20.1569C9.63312 17.9471 7.72409 13.5626 7.72409 13.5626C7.72409 13.5626 7.61391 13.275 7.73328 13.1366C7.86767 12.9801 8.23411 12.9702 8.23411 12.9702L10.6724 12.9547C10.6724 12.9547 10.9019 12.9915 11.0664 13.1104C11.2024 13.2087 11.2784 13.3914 11.2784 13.3914C11.2784 13.3914 11.6724 14.3697 12.1941 15.2546C13.2133 16.9827 13.6874 17.3604 14.033 17.1752C14.5372 16.9057 14.3861 14.7327 14.3861 14.7327C14.3861 14.7327 14.3953 13.9445 14.1323 13.593C13.9287 13.3209 13.5447 13.2415 13.3752 13.2193C13.2375 13.2013 13.4629 12.8883 13.755 12.7482C14.1941 12.5376 14.9687 12.5253 15.8844 12.5343C16.5981 12.5417 16.8035 12.5851 17.0823 12.6515C17.7293 12.8048 17.7091 13.296 17.6655 14.3561C17.6525 14.6731 17.6374 15.041 17.6374 15.466C17.6374 15.5615 17.6345 15.6633 17.6316 15.7681C17.6165 16.3112 17.5992 16.9331 17.9637 17.1646C18.1507 17.2826 18.6073 17.1818 19.7501 15.2776C20.2918 14.3746 20.6975 13.3136 20.6975 13.3136C20.6975 13.3136 20.7868 13.1243 20.9245 13.0432C21.0656 12.9604 21.2559 12.9858 21.2559 12.9858L23.8219 12.9702C23.8219 12.9702 24.5932 12.8793 24.7176 13.2218C24.8486 13.5799 24.4296 14.4172 23.3811 15.7889C22.3866 17.0903 21.9026 17.5695 21.9471 17.9933C21.9795 18.3029 22.2941 18.583 22.8978 19.1327C24.1581 20.2813 24.4959 20.8855 24.5771 21.0307C24.5838 21.0428 24.5888 21.0516 24.5923 21.0574C25.1575 21.9776 23.9655 22.0497 23.9655 22.0497L21.6858 22.0808C21.6858 22.0808 21.1967 22.1759 20.5522 21.7416C20.2147 21.5143 19.8848 21.1431 19.5706 20.7895C19.0908 20.2495 18.6476 19.7507 18.2693 19.8685C17.634 20.0668 17.6532 21.4097 17.6532 21.4097C17.6532 21.4097 17.6582 21.6973 17.5138 21.8497Z" fill="#F37320"/>
</svg>
