<svg width="33" height="33" viewBox="0 0 33 33" fill="none" xmlns="http://www.w3.org/2000/svg">
<path fill-rule="evenodd" clip-rule="evenodd" d="M16.8311 0.79895C7.9945 0.79895 0.831055 7.96239 0.831055 16.799C0.831055 25.6355 7.9945 32.799 16.8311 32.799C25.6676 32.799 32.8311 25.6355 32.8311 16.799C32.8311 7.96239 25.6676 0.79895 16.8311 0.79895ZM23.4987 11.2985C24.2331 11.5 24.8114 12.0938 25.0077 12.8478C25.3643 14.2143 25.3643 17.0656 25.3643 17.0656C25.3643 17.0656 25.3643 19.9168 25.0077 21.2835C24.8114 22.0375 24.2331 22.6312 23.4987 22.8328C22.1679 23.1989 16.831 23.1989 16.831 23.1989C16.831 23.1989 11.4941 23.1989 10.1632 22.8328C9.42881 22.6312 8.85048 22.0375 8.65421 21.2835C8.29766 19.9168 8.29766 17.0656 8.29766 17.0656C8.29766 17.0656 8.29766 14.2143 8.65421 12.8478C8.85048 12.0938 9.42881 11.5 10.1632 11.2985C11.4941 10.9323 16.831 10.9323 16.831 10.9323C16.831 10.9323 22.1679 10.9323 23.4987 11.2985Z" fill="#F37320"/>
<path d="M15.231 19.999V14.6656L19.4976 17.3324L15.231 19.999Z" fill="#F37320"/>
</svg>
