<?xml version="1.0" standalone="no"?>
<!DOCTYPE svg PUBLIC "-//W3C//DTD SVG 1.1//EN" "http://www.w3.org/Graphics/SVG/1.1/DTD/svg11.dtd" >
<svg>
<metadata>
Created by FontForge 20090622 at Thu May 28 20:18:39 2020
 By deploy user
Copyright (C) 2010 Berton Hasebe, under exclusive license to Schwartzco Inc. d/b/a Commercial Type.
</metadata>
<defs>
<font id="PlatformLCWeb-Regular" horiz-adv-x="624" >
  <font-face 
    font-family="Platform LC Web Regular"
    font-weight="400"
    font-stretch="normal"
    units-per-em="1000"
    panose-1="2 11 5 4 3 2 2 2 2 4"
    ascent="800"
    descent="-200"
    x-height="535"
    cap-height="692"
    bbox="-58.0385 -252 1135 1067"
    underline-thickness="50"
    underline-position="-50"
    unicode-range="U+000D-U+FB02"
  />
<missing-glyph horiz-adv-x="154" 
 />
    <glyph glyph-name="f_f" unicode="ff" horiz-adv-x="502" 
d="M301 569q0 37 8 67t26 51t47 32.5t72 11.5h36v-81h-26q-22 0 -35 -6.5t-20.5 -17.5t-10 -25.5t-2.5 -31.5v-34h92v-81h-92v-454h-95v454h-141v-454h-95v454h-54v81h54v34q0 37 8 67t26 51t47.5 32.5t72.5 11.5h35v-81h-26q-21 0 -34.5 -6.5t-21 -17.5t-10 -25.5
t-2.5 -31.5v-34h141v34z" />
    <glyph glyph-name=".notdef" horiz-adv-x="154" 
 />
    <glyph glyph-name="NULL" horiz-adv-x="0" 
 />
    <glyph glyph-name="NULL" horiz-adv-x="0" 
 />
    <glyph glyph-name="nonmarkingreturn" unicode="&#xd;" horiz-adv-x="154" 
 />
    <glyph glyph-name="space" unicode=" " horiz-adv-x="154" 
 />
    <glyph glyph-name="exclam" unicode="!" horiz-adv-x="212" 
d="M155 172h-97v520h97v-520zM107 -8q-28 0 -47.5 19t-19.5 47t19.5 47t47.5 19q27 0 46.5 -19t19.5 -47t-19.5 -47t-46.5 -19z" />
    <glyph glyph-name="quotedbl" unicode="&#x22;" horiz-adv-x="295" 
d="M119 692v-230h-88v230h88zM264 692v-230h-88v230h88z" />
    <glyph glyph-name="numbersign" unicode="#" horiz-adv-x="581" 
d="M395 187l-45 -187h-88l45 187h-116l-45 -187h-88l45 187h-86v80h106l45 183h-88v80h107l40 162h88l-40 -162h115l39 162h88l-39 -162h87v-80h-107l-44 -183h88v-80h-107zM211 267h115l44 183h-114z" />
    <glyph glyph-name="dollar" unicode="$" horiz-adv-x="483" 
d="M277 702q43 -6 73 -24t48 -44t26 -58t7 -66h-82q-2 42 -19.5 71.5t-52.5 41.5v-224q14 -5 30.5 -12.5t26.5 -12.5q56 -29 88.5 -72t32.5 -116q0 -39 -12.5 -72.5t-36 -59t-56.5 -42t-73 -21.5v-59h-72v58q-49 6 -83 25.5t-55 49t-30.5 66.5t-8.5 76h88q1 -51 21 -88.5
t68 -48.5v256q-14 5 -30 12.5t-24 12.5q-51 26 -80.5 67.5t-29.5 109.5q0 33 11.5 62.5t32.5 53t51.5 39t68.5 20.5v59h72v-60zM281 293q-2 0 -4 2v-225q38 9 61.5 37t23.5 73q0 22 -5.5 39t-16 30t-25.5 23.5t-34 20.5zM131 529q0 -38 19.5 -61t54.5 -40v198
q-36 -8 -55 -34t-19 -63z" />
    <glyph glyph-name="percent" unicode="%" horiz-adv-x="780" 
d="M496 160q0 -40 24.5 -67t66.5 -27q44 0 67 27t23 67q0 41 -24.5 68t-67.5 27q-42 0 -65.5 -27.5t-23.5 -67.5zM417 160q0 35 12 65t34 52.5t53 35.5t68 13q39 0 70.5 -12.5t54 -35t35 -53t12.5 -65.5t-12.5 -65t-35 -52.5t-53.5 -35.5t-69 -13t-69 12.5t-53.5 35
t-34.5 53t-12 65.5zM173 0h-86l525 691h86zM103 533q0 -41 24.5 -68t66.5 -27q45 0 68 27.5t23 67.5q0 41 -24.5 67.5t-68.5 26.5q-42 0 -65.5 -27t-23.5 -67zM24 532q0 35 12.5 65.5t34.5 53t52.5 35.5t67.5 13q39 0 70.5 -13t54 -35.5t35 -53t12.5 -65.5t-12 -65
t-34.5 -52t-54 -35t-69.5 -13t-69 12.5t-53 34.5t-34.5 52.5t-12.5 65.5z" />
    <glyph glyph-name="ampersand" unicode="&#x26;" horiz-adv-x="639" 
d="M471 57q-35 -31 -81.5 -49t-108.5 -18q-59 0 -105.5 15.5t-78.5 43.5t-49.5 65.5t-17.5 82.5q0 63 30.5 111t83.5 76q-32 23 -51 58t-19 81q0 34 12.5 66.5t36.5 58t60 40.5t83 15q46 0 82.5 -13.5t61.5 -37.5t38.5 -56.5t13.5 -71.5q0 -37 -12 -67.5t-33 -52.5
t-49 -35.5t-60 -16.5l156 -161q19 38 25 85t4 95h90q4 -65 -8.5 -129.5t-45.5 -118.5l119 -123h-120zM283 76q41 0 72 11.5t54 32.5l-205 208q-35 -18 -53.5 -49.5t-18.5 -73.5q0 -27 11 -51t31 -41t47.5 -27t61.5 -10zM167 522q0 -45 29 -73t74 -28t73 28.5t28 74.5
q-1 44 -29.5 72t-74.5 28t-73 -28.5t-27 -73.5z" />
    <glyph glyph-name="quotesingle" unicode="'" horiz-adv-x="149" 
d="M119 692v-230h-88v230h88z" />
    <glyph glyph-name="parenleft" unicode="(" horiz-adv-x="248" 
d="M51 610q0 84 38.5 124.5t123.5 40.5h21v-82h-18q-24 0 -38.5 -6t-23 -17.5t-11 -27t-2.5 -34.5v-616q0 -19 2.5 -34.5t11 -27t23 -17.5t38.5 -6h18v-82h-21q-85 0 -123.5 40.5t-38.5 124.5v620z" />
    <glyph glyph-name="parenright" unicode=")" horiz-adv-x="248" 
d="M197 -10q0 -84 -38.5 -124.5t-123.5 -40.5h-21v82h18q24 0 38.5 6t22.5 17.5t10.5 27t2.5 34.5v616q0 19 -2.5 34.5t-10.5 27t-22.5 17.5t-38.5 6h-18v82h21q85 0 123.5 -40.5t38.5 -124.5v-620z" />
    <glyph glyph-name="asterisk" unicode="*" horiz-adv-x="392" 
d="M65 636l97 -58v114h68v-115l97 59l33 -57l-99 -58l99 -57l-33 -58l-97 58v-114h-68v114l-97 -58l-33 57l99 57l-100 58z" />
    <glyph glyph-name="plus" unicode="+" horiz-adv-x="462" 
d="M24 377h164v169h87v-169h164v-80h-164v-170h-87v170h-164v80z" />
    <glyph glyph-name="comma" unicode="," horiz-adv-x="183" 
d="M74 -4q-23 6 -36 23t-13 40q-1 29 18 47.5t49 18.5q29 0 47 -19t18 -48q0 -17 -5 -32.5t-13 -33.5l-44 -101h-69z" />
    <glyph glyph-name="hyphen" unicode="-" horiz-adv-x="282" 
d="M36 331h211v-90h-211v90z" />
    <glyph glyph-name="period" unicode="." horiz-adv-x="183" 
d="M91 -9q-28 0 -47 19t-19 48t18.5 48t47.5 19t48 -19t19 -48t-19 -48t-48 -19z" />
    <glyph glyph-name="slash" unicode="/" horiz-adv-x="453" 
d="M93 -175h-89l356 906h89z" />
    <glyph glyph-name="zero" unicode="0" horiz-adv-x="517" 
d="M373 485q0 57 -28.5 93.5t-85.5 36.5q-60 0 -87 -36t-27 -94v-279q0 -57 27 -92.5t87 -35.5q57 0 85.5 36t28.5 92v279zM471 208q0 -50 -14.5 -90.5t-42 -69.5t-67 -45t-89.5 -16q-109 0 -160.5 60t-51.5 161v277q0 100 53 160.5t160 60.5q51 0 90.5 -16t66.5 -45.5
t41 -70t14 -89.5v-277z" />
    <glyph glyph-name="one" unicode="1" horiz-adv-x="232" 
d="M180 0h-98v592l-69 -27v93l76 34h91v-692z" />
    <glyph glyph-name="two" unicode="2" horiz-adv-x="468" 
d="M29 0v88l233 261q35 39 53.5 74.5t18.5 78.5q0 50 -26 81.5t-78 31.5q-32 0 -51.5 -11t-30.5 -28t-15.5 -37.5t-4.5 -39.5h-97q0 36 9.5 72.5t32.5 66.5t61.5 49t95.5 19q51 0 89.5 -15.5t64.5 -42.5t39 -63.5t13 -78.5q0 -65 -25.5 -113t-71.5 -97l-186 -207h291v-89
h-415z" />
    <glyph glyph-name="three" unicode="3" horiz-adv-x="476" 
d="M147 397l160 206h-263v89h378v-88l-161 -199q39 -3 74 -15.5t61 -37.5t41.5 -62t15.5 -89q0 -47 -16.5 -86t-45.5 -67.5t-69 -44.5t-87 -16q-60 0 -101 18t-66.5 47t-37 66.5t-11.5 75.5h98q1 -52 30.5 -84.5t86.5 -32.5t88 34.5t31 88.5q0 57 -34 89t-97 32h-75v76z" />
    <glyph glyph-name="four" unicode="4" horiz-adv-x="504" 
d="M409 219v-219h-96v219h-301v84l301 389h96v-386h81v-87h-81zM117 306h196v253z" />
    <glyph glyph-name="five" unicode="5" horiz-adv-x="485" 
d="M132 194q3 -51 28.5 -83.5t83.5 -32.5q57 0 85.5 35.5t28.5 95.5v25q0 57 -26 92t-85 35q-22 0 -39 -5t-29 -12.5t-20 -17t-13 -19.5h-96v385h367v-89h-272v-192q16 17 46 29t72 12q99 0 145.5 -57t46.5 -160v-25q0 -47 -13.5 -88t-40 -71t-66 -47t-91.5 -17
q-56 0 -95.5 16t-64.5 44t-36.5 65.5t-12.5 81.5h97z" />
    <glyph glyph-name="six" unicode="6" horiz-adv-x="503" 
d="M383 559q-17 23 -44.5 39.5t-69.5 16.5q-35 0 -58.5 -10.5t-38.5 -29t-21.5 -44.5t-6.5 -56v-70q14 20 47.5 38t82.5 18q100 0 148 -56.5t48 -160.5v-37q0 -47 -14 -87.5t-41 -70t-66.5 -46t-90.5 -16.5q-54 0 -94 15.5t-66.5 44.5t-39 69.5t-12.5 90.5v266
q0 48 12.5 90.5t39.5 74t68.5 50t99.5 18.5q39 0 69.5 -8t53 -21t37.5 -29t25 -31zM260 370q-58 0 -86.5 -33.5t-29.5 -86.5v-44q0 -57 27 -92.5t87 -35.5q58 0 86.5 36.5t28.5 91.5v39q0 57 -26.5 91t-86.5 34z" />
    <glyph glyph-name="seven" unicode="7" horiz-adv-x="446" 
d="M179 0h-107l238 603h-295v89h406v-72z" />
    <glyph glyph-name="eight" unicode="8" horiz-adv-x="490" 
d="M136 510q0 -48 30 -79t79 -31t79 31t30 79t-30 78.5t-79 30.5q-50 0 -79.5 -30.5t-29.5 -78.5zM37 513q0 39 13.5 74t40 61.5t65.5 42t89 15.5t88.5 -15.5t65 -41.5t40 -61t13.5 -75q0 -54 -24 -92.5t-60 -60.5q45 -23 71 -65t26 -104q0 -42 -15.5 -79t-44 -64.5
t-69.5 -44t-92 -16.5q-53 0 -93.5 16t-69 43.5t-43 64.5t-14.5 80q0 61 26.5 103t68.5 65q-35 23 -58.5 61.5t-23.5 92.5zM125 194q0 -52 32.5 -86t86.5 -34t87.5 33.5t33.5 86.5q0 54 -33.5 87.5t-87.5 33.5q-57 0 -88 -34t-31 -87z" />
    <glyph glyph-name="nine" unicode="9" horiz-adv-x="503" 
d="M120 134q18 -23 44.5 -39.5t72.5 -16.5q68 0 95 39t27 101v69q-15 -22 -47 -38.5t-77 -16.5q-102 0 -152 56.5t-50 160.5v37q0 47 14 87.5t40.5 70t66 46t90.5 16.5q108 0 160.5 -59.5t52.5 -159.5v-267q0 -50 -12.5 -92.5t-38.5 -73.5t-67.5 -49t-99.5 -18q-39 0 -69 8
t-52.5 20.5t-38 28.5t-26.5 32zM246 323q57 0 84.5 33t29.5 87v44q0 58 -28 93t-88 35q-58 0 -85.5 -36t-27.5 -92v-40q0 -57 27.5 -90.5t87.5 -33.5z" />
    <glyph glyph-name="colon" unicode=":" horiz-adv-x="183" 
d="M91 341q-28 0 -47 19t-19 48t18.5 48t47.5 19t48 -19t19 -48t-19 -48t-48 -19zM91 -9q-28 0 -47 19t-19 48t18.5 48t47.5 19t48 -19t19 -48t-19 -48t-48 -19z" />
    <glyph glyph-name="semicolon" unicode=";" horiz-adv-x="183" 
d="M74 -4q-23 6 -36 23t-13 40q-1 29 18 47.5t49 18.5q29 0 47 -19t18 -48q0 -17 -5 -32.5t-13 -33.5l-44 -101h-69zM91 340q-28 0 -47 19t-19 48t18.5 48t47.5 19t48 -19t19 -48t-19 -48t-48 -19z" />
    <glyph glyph-name="less" unicode="&#x3c;" horiz-adv-x="413" 
d="M25 380l362 165v-86l-271 -120l271 -123v-85l-362 164v85z" />
    <glyph glyph-name="equal" unicode="=" horiz-adv-x="474" 
d="M29 449h415v-77h-415v77zM29 292h415v-77h-415v77z" />
    <glyph glyph-name="greater" unicode="&#x3e;" horiz-adv-x="409" 
d="M385 295l-359 -164v85l267 123l-267 120v86l359 -165v-85z" />
    <glyph glyph-name="question" unicode="?" horiz-adv-x="462" 
d="M265 172h-95v224h53q51 0 84.5 27t33.5 83q0 51 -30 82t-81 31q-35 0 -57 -13t-34 -32t-16 -41t-4 -39h-95q-1 25 6 61t29 69t63 56t108 23q50 0 89 -15.5t65.5 -42t40.5 -62t14 -76.5q0 -39 -12.5 -71.5t-35.5 -56.5t-55 -38.5t-71 -16.5v-152zM218 -8q-28 0 -47.5 19
t-19.5 47t19.5 47t47.5 19q27 0 46.5 -19t19.5 -47t-19.5 -47t-46.5 -19z" />
    <glyph glyph-name="at" unicode="@" horiz-adv-x="955" 
d="M622 145q-9 -13 -24 -26t-34.5 -23.5t-44 -17t-52.5 -6.5q-48 0 -87 15.5t-67 43.5t-43.5 67t-15.5 85q0 45 15.5 84t43.5 68t66.5 45.5t83.5 16.5q46 0 81.5 -15.5t52.5 -37.5v46h87v-267q0 -35 14 -55t49 -20q42 0 70 50.5t28 137.5q0 76 -25.5 136.5t-72 102.5
t-113.5 64.5t-149 22.5q-87 0 -156 -30t-117 -81t-73 -119.5t-25 -145.5q0 -85 28.5 -154t80.5 -117.5t125 -74.5t161 -26q83 0 148.5 27t113.5 69l46 -56q-22 -22 -53.5 -43t-71.5 -37t-86.5 -26t-98.5 -10q-113 0 -202.5 34t-151.5 94t-94.5 141.5t-32.5 176.5
q0 98 34 181t95 143.5t146 94.5t187 34q105 0 187 -31t138.5 -84.5t86 -126t29.5 -155.5q0 -65 -14.5 -114.5t-40 -83.5t-60.5 -51.5t-76 -17.5q-51 0 -78.5 21.5t-37.5 50.5zM345 284q0 -57 34 -93.5t89 -36.5q27 0 51 9t41 26t27 41t10 54t-10 54t-27.5 41.5t-41.5 26.5
t-51 9q-55 0 -88.5 -36.5t-33.5 -94.5z" />
    <glyph glyph-name="A" unicode="A" horiz-adv-x="631" 
d="M441 228h-260l-86 -228h-97l260 692h103l272 -692h-103zM212 312h196l-99 255z" />
    <glyph glyph-name="B" unicode="B" horiz-adv-x="478" 
d="M452 200q0 -47 -15.5 -84.5t-43 -63t-65.5 -39t-84 -13.5h-190v692h178q97 0 149 -46t52 -136q0 -50 -21 -87.5t-58 -57.5q46 -20 72 -60.5t26 -104.5zM151 315v-229h82q58 0 87.5 32t29.5 85q0 51 -29 81.5t-88 30.5h-82zM151 606v-208h76q51 0 78 27.5t27 77.5
t-26 76.5t-79 26.5h-76z" />
    <glyph glyph-name="C" unicode="C" 
d="M611 78q-17 -17 -40 -33.5t-51.5 -29t-63 -20.5t-73.5 -8q-80 0 -146 27t-113 74.5t-72.5 113.5t-25.5 144t26 144t73 114t112 75t144 27q68 0 124.5 -21t98.5 -59l-58 -72q-30 26 -72 43.5t-93 17.5q-58 0 -104.5 -20t-79.5 -56t-50.5 -85.5t-17.5 -107.5
q0 -59 18.5 -108t52.5 -84.5t81 -55.5t103 -20q59 0 101 22t69 46z" />
    <glyph glyph-name="D" unicode="D" horiz-adv-x="550" 
d="M152 88h21q119 -1 183.5 67.5t64.5 190.5t-64 190.5t-184 67.5h-21v-516zM169 692q84 0 149.5 -24.5t111.5 -69.5t70 -108.5t24 -142.5q0 -78 -24.5 -142t-70 -109.5t-111.5 -70.5t-149 -25h-115v692h115z" />
    <glyph glyph-name="E" unicode="E" horiz-adv-x="393" 
d="M54 0v692h301v-91h-203v-200h198v-90h-198v-220h206v-91h-304z" />
    <glyph glyph-name="F" unicode="F" horiz-adv-x="390" 
d="M152 311v-311h-98v692h303v-91h-205v-200h199v-90h-199z" />
    <glyph glyph-name="G" unicode="G" horiz-adv-x="716" 
d="M668 0h-96v51q-29 -25 -78 -44.5t-115 -19.5q-77 0 -142 26t-112 73.5t-73 113.5t-26 146q0 77 26 143t73 114t112 75.5t143 27.5q52 0 94.5 -10.5t75.5 -27.5t57 -39t41 -45l-73 -60q-14 16 -32 32.5t-42 29.5t-54.5 21t-67.5 8q-55 0 -101 -20t-79 -55.5t-51.5 -85
t-18.5 -108.5q0 -60 19 -109.5t52.5 -84.5t80 -54.5t102.5 -19.5q63 0 110.5 20.5t77.5 51.5v122h-126v84h223v-356z" />
    <glyph glyph-name="H" unicode="H" horiz-adv-x="635" 
d="M581 0h-98v312h-331v-312h-98v692h98v-287h331v287h98v-692z" />
    <glyph glyph-name="I" unicode="I" horiz-adv-x="206" 
d="M152 0h-98v692h98v-692z" />
    <glyph glyph-name="J" unicode="J" horiz-adv-x="262" 
d="M209 142q0 -33 -6 -59t-22 -45t-43.5 -29t-70.5 -10q-14 0 -28 0.5t-20 0.5v89h39q33 0 43 17.5t10 43.5v542h98v-550z" />
    <glyph glyph-name="K" unicode="K" horiz-adv-x="525" 
d="M152 393l251 299h117l-282 -330l291 -362h-117l-260 316v-316h-98v692h98v-299z" />
    <glyph glyph-name="L" unicode="L" horiz-adv-x="374" 
d="M54 0v692h98v-601h201v-91h-299z" />
    <glyph glyph-name="M" unicode="M" horiz-adv-x="847" 
d="M470 0h-95l-229 563v-563h-92v692h142l229 -574l229 574h139v-692h-96v563z" />
    <glyph glyph-name="N" unicode="N" horiz-adv-x="657" 
d="M150 525v-525h-96v692h101l352 -531v531h96v-692h-99z" />
    <glyph glyph-name="O" unicode="O" horiz-adv-x="761" 
d="M26 346q0 78 26.5 144t73.5 114t111.5 75t141.5 27q79 0 144.5 -27t112.5 -75t73 -114t26 -143t-26 -143t-73 -114t-112.5 -75.5t-143.5 -27.5t-143.5 26.5t-112 74.5t-72.5 114t-26 144zM129 346q0 -59 18.5 -108t51.5 -84.5t79 -55.5t102 -20q57 0 103.5 20t79.5 55.5
t51 84.5t18 108q0 58 -18.5 107.5t-51.5 85.5t-79.5 56t-102.5 20q-57 0 -103 -20t-79 -56t-51 -85.5t-18 -107.5z" />
    <glyph glyph-name="P" unicode="P" horiz-adv-x="456" 
d="M436 504q0 -46 -15 -82t-41.5 -61t-64 -38t-82.5 -13h-81v-310h-98v692h179q97 0 150 -47t53 -141zM152 606v-210h76q53 0 79.5 29t26.5 78q0 48 -26.5 75.5t-79.5 27.5h-76z" />
    <glyph glyph-name="Q" unicode="Q" horiz-adv-x="761" 
d="M26 346q0 78 26.5 144t73.5 114t111.5 75t141.5 27q79 0 144.5 -27t112.5 -75t73 -114t26 -143q0 -68 -20.5 -126.5t-58.5 -105.5l60 -54l-63 -71l-66 60q-43 -30 -95 -46.5t-112 -16.5q-78 0 -143.5 26.5t-112 74.5t-72.5 114t-26 144zM128 346q0 -59 18.5 -108.5
t51.5 -85t79.5 -55.5t102.5 -20q78 0 137 37l-65 59l62 70l71 -64q48 68 48 167q0 59 -18.5 108.5t-51.5 85.5t-79.5 56t-103.5 20t-103.5 -20t-79.5 -56t-51 -85.5t-18 -108.5z" />
    <glyph glyph-name="R" unicode="R" horiz-adv-x="495" 
d="M436 504q0 -64 -28.5 -108t-79.5 -65l174 -331h-105l-163 313h-82v-313h-98v692h179q97 0 150 -47t53 -141zM152 606v-210h76q53 0 79.5 29t26.5 78q0 48 -26.5 75.5t-79.5 27.5h-76z" />
    <glyph glyph-name="S" unicode="S" horiz-adv-x="482" 
d="M141 527q0 -35 17.5 -57.5t49.5 -38.5q31 -14 63 -26.5t65 -29.5q56 -27 87 -71t31 -113q0 -45 -15.5 -82.5t-43 -64t-67 -41.5t-87.5 -15q-60 0 -101.5 18t-66.5 48.5t-35.5 70t-9.5 82.5h95q0 -28 6.5 -52.5t20.5 -42.5t36.5 -28.5t54.5 -10.5q49 0 81 27.5t32 81.5
q0 42 -20 66.5t-54 41.5q-34 18 -68.5 30.5t-69.5 31.5q-47 26 -72.5 68t-25.5 104q0 38 13.5 71t39 57.5t61.5 38.5t81 14q55 0 92.5 -16.5t60.5 -43.5t32.5 -62t8.5 -73h-90q-2 48 -27.5 79.5t-76.5 31.5q-48 0 -73 -26.5t-25 -67.5z" />
    <glyph glyph-name="T" unicode="T" horiz-adv-x="416" 
d="M257 601v-601h-98v601h-142v91h382v-91h-142z" />
    <glyph glyph-name="U" unicode="U" 
d="M312 -13q-67 0 -116 19.5t-81.5 55.5t-48.5 86.5t-16 112.5v431h98v-431q0 -83 39.5 -133t125.5 -50q81 0 122.5 51.5t41.5 132.5v430h97v-431q0 -60 -17.5 -110t-50.5 -86.5t-82 -57t-112 -20.5z" />
    <glyph glyph-name="V" unicode="V" horiz-adv-x="641" 
d="M-1 692h110l214 -570l215 570h104l-269 -692h-105z" />
    <glyph glyph-name="W" unicode="W" horiz-adv-x="981" 
d="M492 547l-170 -547h-107l-214 692h106l166 -558l168 558h106l168 -558l165 558h100l-211 -692h-108z" />
    <glyph glyph-name="X" unicode="X" horiz-adv-x="614" 
d="M248 360l-234 332h120l175 -249l173 249h116l-232 -333l249 -359h-113l-197 277l-196 -277h-110z" />
    <glyph glyph-name="Y" unicode="Y" horiz-adv-x="481" 
d="M-4 692h110l137 -241l137 241h105l-196 -336v-356h-98v355z" />
    <glyph glyph-name="Z" unicode="Z" horiz-adv-x="588" 
d="M28 0v73l396 529h-390v90h525v-73l-400 -529h401v-90h-532z" />
    <glyph glyph-name="bracketleft" unicode="[" horiz-adv-x="248" 
d="M51 775h183v-83h-93v-784h92v-83h-182v950z" />
    <glyph glyph-name="backslash" unicode="\" horiz-adv-x="453" 
d="M4 731h89l356 -906h-89z" />
    <glyph glyph-name="bracketright" unicode="]" horiz-adv-x="248" 
d="M197 -175h-183v83h92v784h-92v83h183v-950z" />
    <glyph glyph-name="asciicircum" unicode="^" horiz-adv-x="452" 
d="M440 385h-97l-117 217l-117 -217h-97l166 307h97z" />
    <glyph glyph-name="underscore" unicode="_" horiz-adv-x="625" 
d="M33 -45h559v-78h-559v78z" />
    <glyph glyph-name="grave" unicode="`" horiz-adv-x="476" 
d="M216 714l76 -135h-91l-79 135h94z" />
    <glyph glyph-name="a" unicode="a" horiz-adv-x="459" 
d="M26 171q0 38 13 70.5t37 56t57.5 36.5t73.5 13q41 0 69 -11.5t42 -24.5v45q0 52 -23.5 80t-71.5 28q-49 0 -68.5 -26t-20.5 -59h-89q0 35 11.5 65t33.5 51.5t55.5 33.5t78.5 12q51 0 86.5 -14t58 -39.5t33 -62t10.5 -80.5v-345h-84v42q-19 -22 -48.5 -36t-72.5 -14
q-38 0 -71 12.5t-57.5 35.5t-38.5 56.5t-14 74.5zM118 171q0 -43 27.5 -72t72.5 -29q44 0 73 29t29 72q0 44 -29 72t-74 28t-72 -28.5t-27 -71.5z" />
    <glyph glyph-name="b" unicode="b" horiz-adv-x="621" 
d="M140 267q0 -42 13 -77t37 -60.5t57.5 -39.5t73.5 -14t73.5 14t57 39.5t36.5 60.5t13 77t-13 77t-37 60.5t-57 40t-73 14.5q-41 0 -74 -14.5t-57 -40t-37 -60.5t-13 -77zM140 0h-91v731h95v-270q12 15 29.5 30t41 26.5t52.5 19t62 7.5q60 0 109 -20t84.5 -56t55 -87
t19.5 -113q0 -59 -19.5 -110t-55 -88t-86 -58t-112.5 -21q-35 0 -64 8t-52.5 20t-40.5 26t-27 27v-72z" />
    <glyph glyph-name="c" unicode="c" horiz-adv-x="509" 
d="M299 77q27 0 48.5 6t38.5 15t30.5 19.5t23.5 20.5l56 -59q-12 -14 -30 -29.5t-42.5 -28.5t-56 -21.5t-69.5 -8.5q-62 0 -112.5 21t-86.5 58t-55.5 87.5t-19.5 109.5t20.5 109.5t57 88t86.5 58.5t109 21q39 0 71 -8t56.5 -20.5t42.5 -28t29 -29.5l-59 -60
q-21 23 -54.5 41.5t-84.5 18.5q-40 0 -72.5 -14.5t-56 -40t-36 -60.5t-12.5 -76q0 -43 13.5 -78t37.5 -60t56.5 -38.5t70.5 -13.5z" />
    <glyph glyph-name="d" unicode="d" horiz-adv-x="621" 
d="M482 79q-11 -15 -28 -31t-40.5 -28.5t-53 -20.5t-63.5 -8q-60 0 -110.5 20t-86.5 56.5t-56 87t-20 112.5q0 59 20 109.5t56 88t86 58.5t109 21q64 0 110 -23t72 -54v264h95v-731h-90v79zM120 267q0 -42 13.5 -77t37.5 -60.5t57 -39.5t72 -14q40 0 73.5 14t57.5 39.5
t37 60.5t13 77t-13.5 77t-37.5 60.5t-57 40t-73 14.5t-73 -14.5t-57 -40t-37 -60.5t-13 -77z" />
    <glyph glyph-name="e" unicode="e" horiz-adv-x="566" 
d="M122 239q5 -76 51 -119.5t122 -43.5q64 0 102.5 29t64.5 77l73 -38q-13 -31 -34.5 -58.5t-51.5 -48.5t-68.5 -33.5t-85.5 -12.5q-60 0 -110 19.5t-86 55.5t-55.5 86.5t-19.5 113.5q0 61 19.5 112t54 88t82.5 57.5t105 20.5q59 0 107 -18.5t82 -52.5t53 -82.5t20 -108.5
v-19.5t-2 -23.5h-423zM284 462q-66 0 -108 -39t-51 -107h323q-5 66 -49.5 106t-114.5 40z" />
    <glyph glyph-name="f" unicode="f" horiz-adv-x="266" 
d="M160 535h92v-81h-92v-454h-95v454h-54v81h54v34q0 37 8 67t26 51t47.5 32.5t72.5 11.5h35v-81h-26q-21 0 -34.5 -6.5t-21 -17.5t-10 -25.5t-2.5 -31.5v-34z" />
    <glyph glyph-name="g" unicode="g" horiz-adv-x="620" 
d="M480 535h92v-444q0 -75 -21.5 -127.5t-59.5 -85t-89 -47t-110 -14.5q-69 0 -123 18.5t-86 39.5l37 75q26 -17 70 -33.5t103 -16.5q37 0 70.5 9t59 28.5t40 50t14.5 73.5v15q-9 -14 -24.5 -29t-38 -27.5t-51.5 -20.5t-65 -8q-60 0 -110.5 20t-87 56t-56.5 87t-20 113
q0 59 20.5 109.5t56.5 88t86 58.5t109 21q62 0 110 -23t74 -58v72zM120 267q0 -42 13.5 -77t37.5 -60.5t57 -39.5t72 -14q40 0 73.5 14t57.5 39.5t37 60.5t13 77t-13.5 77t-37.5 60.5t-57 40t-73 14.5t-73 -14.5t-57 -40t-37 -60.5t-13 -77z" />
    <glyph glyph-name="h" unicode="h" horiz-adv-x="479" 
d="M337 343q0 54 -23 83.5t-72 29.5q-48 0 -73 -31.5t-25 -84.5v-340h-95v731h95v-246q12 18 41.5 37t79.5 19q46 0 77.5 -15t51.5 -40.5t29 -59.5t9 -73v-353h-95v343z" />
    <glyph glyph-name="i" unicode="i" horiz-adv-x="193" 
d="M144 0h-95v535h95v-535zM96 587q-26 0 -44.5 18.5t-18.5 44.5q0 27 18.5 45t44.5 18t45 -18t19 -45q0 -26 -19 -44.5t-45 -18.5z" />
    <glyph glyph-name="j" unicode="j" horiz-adv-x="193" 
d="M144 -11q0 -37 -7.5 -67.5t-25.5 -52t-47.5 -33t-72.5 -11.5h-31v82h22q22 0 35 6.5t20 17.5t9.5 25.5t2.5 31.5v547h95v-546zM96 587q-26 0 -44.5 18.5t-18.5 44.5q0 27 18.5 45t44.5 18t45 -18t19 -45q0 -26 -19 -44.5t-45 -18.5z" />
    <glyph glyph-name="k" unicode="k" horiz-adv-x="463" 
d="M236 286l227 -286h-117l-202 251v-251h-95v731h95v-422l196 226h115z" />
    <glyph glyph-name="l" unicode="l" horiz-adv-x="193" 
d="M144 0h-95v731h95v-731z" />
    <glyph glyph-name="m" unicode="m" horiz-adv-x="750" 
d="M423 0h-95v343q0 52 -22 82.5t-68 30.5q-48 0 -71 -32.5t-23 -86.5v-337h-95v535h95v-48q6 9 16 18.5t24.5 17.5t34 13t44.5 5q53 0 84.5 -20.5t47.5 -50.5q18 29 51 50t86 21q46 0 79 -14.5t53 -40t29.5 -59t9.5 -72.5v-355h-95v344q0 52 -22 82t-69 30q-46 0 -69.5 -31
t-24.5 -81v-344z" />
    <glyph glyph-name="n" unicode="n" horiz-adv-x="479" 
d="M337 343q0 54 -23 83.5t-72 29.5q-48 0 -73 -31.5t-25 -84.5v-340h-95v535h95v-48q6 8 16 17.5t25 17.5t35 13.5t45 5.5q46 0 77.5 -15t51.5 -40.5t29 -59.5t9 -73v-353h-95v343z" />
    <glyph glyph-name="o" unicode="o" horiz-adv-x="600" 
d="M120 267q0 -42 13.5 -76.5t37.5 -60t57 -39.5t72 -14q40 0 73 14t57 39.5t37 60t13 76.5q0 41 -13.5 76t-37.5 60.5t-57 40t-72 14.5q-40 0 -73 -14t-57 -39.5t-37 -60.5t-13 -77zM24 267q0 61 21 111.5t58 87.5t87.5 57.5t109.5 20.5q60 0 111 -20.5t87.5 -57.5
t57 -87.5t20.5 -110.5t-21 -111t-58 -87.5t-88 -57.5t-110 -21q-60 0 -110.5 20t-87 56.5t-57 87.5t-20.5 112z" />
    <glyph glyph-name="p" unicode="p" horiz-adv-x="621" 
d="M140 267q0 -42 13 -77t37 -60.5t57.5 -39.5t73.5 -14t73.5 14t57 39.5t36.5 60.5t13 77t-13 77t-37 60.5t-57 40t-73 14.5q-41 0 -74 -14.5t-57 -40t-37 -60.5t-13 -77zM144 -175h-95v710h91v-77q12 16 29.5 31.5t41 27.5t53 19.5t64.5 7.5q60 0 109.5 -20t85 -56.5
t55 -87.5t19.5 -112q0 -59 -19 -109.5t-54.5 -87.5t-86 -58.5t-113.5 -21.5q-35 0 -64 7.5t-51.5 18.5t-39 24.5t-25.5 24.5v-241z" />
    <glyph glyph-name="q" unicode="q" horiz-adv-x="621" 
d="M477 73q-9 -14 -25.5 -28.5t-39.5 -26.5t-52 -19.5t-63 -7.5q-60 0 -110.5 20t-86.5 56t-56 87t-20 113q0 60 20 110.5t56.5 87.5t86.5 58t110 21t109 -23.5t75 -58.5v73h91v-710h-95v248zM120 267q0 -42 13 -77t37 -60.5t57.5 -39.5t73.5 -14t73 14t57 39.5t37 60.5
t13 77t-13.5 77t-37.5 60.5t-57 40t-73 14.5t-73 -14.5t-57 -40t-37 -60.5t-13 -77z" />
    <glyph glyph-name="r" unicode="r" horiz-adv-x="281" 
d="M263 439h-26q-49 0 -71 -27t-22 -76v-336h-95v535h95v-52q14 23 42 38.5t77 14.5v-97z" />
    <glyph glyph-name="s" unicode="s" horiz-adv-x="399" 
d="M124 401q0 -49 54 -68q21 -8 42 -13t43 -13q56 -20 86 -54.5t30 -99.5q0 -39 -14.5 -69t-39 -50t-57.5 -30t-70 -10q-51 0 -85.5 14t-55.5 38t-30 55.5t-8 66.5h92q0 -20 4.5 -37.5t15 -30.5t27 -21t42.5 -8q35 -1 60.5 18t25.5 55q0 33 -16 50t-46 28q-23 8 -46 14
t-49 17q-53 23 -75 58.5t-22 83.5q0 33 12.5 60t35 46t53 29.5t67.5 10.5q84 0 124.5 -44.5t41.5 -117.5h-88q-2 41 -21.5 64.5t-58.5 23.5q-34 0 -54 -17.5t-20 -48.5z" />
    <glyph glyph-name="t" unicode="t" horiz-adv-x="277" 
d="M160 535h99v-81h-99v-301q0 -35 11 -53t49 -18h38v-82q-6 0 -22.5 -2.5t-39.5 -2.5q-74 0 -102.5 35t-28.5 99v325h-54v81h54v82h95v-82z" />
    <glyph glyph-name="u" unicode="u" horiz-adv-x="475" 
d="M141 193q0 -54 22.5 -83.5t70.5 -29.5t72.5 31.5t24.5 84.5v339h96v-535h-95v49q-12 -19 -41 -37t-79 -18q-45 0 -76.5 14.5t-51.5 40t-29 59.5t-9 74v353h95v-342z" />
    <glyph glyph-name="v" unicode="v" horiz-adv-x="511" 
d="M259 115l155 420h99l-204 -535h-104l-207 535h105z" />
    <glyph glyph-name="w" unicode="w" horiz-adv-x="830" 
d="M601 120l131 415h98l-174 -535h-105l-134 402l-135 -402h-105l-177 535h105l130 -415l132 415h103z" />
    <glyph glyph-name="x" unicode="x" horiz-adv-x="519" 
d="M258 201l-153 -201h-106l206 275l-194 260h113l138 -183l138 183h108l-194 -258l206 -277h-109z" />
    <glyph glyph-name="y" unicode="y" horiz-adv-x="512" 
d="M143 -175l71 185l-216 525h105l160 -398l152 398h99l-278 -710h-93z" />
    <glyph glyph-name="z" unicode="z" horiz-adv-x="441" 
d="M133 80h285v-80h-395v73l279 382h-273v80h389v-73z" />
    <glyph glyph-name="braceleft" unicode="{" horiz-adv-x="279" 
d="M172 -8q0 -19 2.5 -34.5t11 -26.5t23 -17t38.5 -6h18v-83h-21q-85 0 -123.5 40.5t-38.5 124.5v201q0 32 -9.5 49.5t-47.5 17.5h-4v86h4q38 0 47.5 17.5t9.5 49.5v199q0 84 38.5 124.5t123.5 40.5h21v-83h-18q-24 0 -38.5 -6t-23 -17t-11 -26.5t-2.5 -34.5v-204
q0 -52 -15 -74t-40 -29q25 -7 40 -29t15 -75v-205v0z" />
    <glyph glyph-name="bar" unicode="|" horiz-adv-x="225" 
d="M154 -175h-83v906h83v-906z" />
    <glyph glyph-name="braceright" unicode="}" horiz-adv-x="279" 
d="M106 197q0 53 15.5 75t40.5 29q-26 7 -41 29t-15 74v204q0 19 -2.5 34.5t-10.5 26.5t-22.5 17t-38.5 6h-18v83h21q85 0 123.5 -40.5t38.5 -124.5v-199q0 -32 9.5 -49.5t47.5 -17.5h4v-86h-4q-38 0 -47.5 -17.5t-9.5 -49.5v-201q0 -84 -38.5 -124.5t-123.5 -40.5h-21v83
h18q24 0 38.5 6t22.5 17t10.5 26.5t2.5 34.5v205z" />
    <glyph glyph-name="asciitilde" unicode="~" horiz-adv-x="474" 
d="M228 260q-21 14 -37 23t-36 9q-29 0 -40.5 -20t-13.5 -43h-81q0 29 8 56.5t24 48.5t40.5 33.5t58.5 12.5q27 0 48.5 -8t47.5 -25q20 -14 37 -23t37 -9q29 0 39.5 20t12.5 44h81q0 -30 -8 -57.5t-23.5 -48.5t-40 -33.5t-57.5 -12.5q-27 0 -49 8.5t-48 24.5z" />
    <glyph glyph-name="uni00A0" unicode="&#xa0;" horiz-adv-x="154" 
 />
    <glyph glyph-name="exclamdown" unicode="&#xa1;" horiz-adv-x="212" 
d="M155 -103h-97v523h97v-523zM106 599q28 0 47.5 -19.5t19.5 -47.5t-19.5 -47t-47.5 -19t-47 19t-19 47t19 47.5t47 19.5z" />
    <glyph glyph-name="cent" unicode="&#xa2;" horiz-adv-x="511" 
d="M326 540q33 -3 60 -11.5t48 -20.5t36.5 -25.5t25.5 -26.5l-57 -60q-19 21 -47 38t-66 22v-377q40 5 68 21.5t49 39.5l54 -59q-11 -13 -27 -27t-37.5 -26.5t-48.5 -21t-58 -11.5v-63h-70v64q-53 7 -96 30t-73 58.5t-46.5 82t-16.5 100.5q0 53 17 99.5t48 82.5t73.5 59.5
t93.5 30.5v65h70v-64zM119 267q0 -36 10.5 -67t28.5 -55t43 -40t55 -23v372q-63 -14 -100 -64.5t-37 -122.5z" />
    <glyph glyph-name="sterling" unicode="&#xa3;" horiz-adv-x="525" 
d="M191 379h144v-85h-144v-206h306v-88h-473v88h69v206h-69v85h69v123q0 44 13 81.5t38.5 64.5t63 42.5t87.5 15.5q57 0 96 -19t62.5 -48.5t33.5 -66.5t9 -73h-97q0 19 -4.5 39.5t-16 37.5t-31.5 28t-52 11q-54 0 -79 -33t-25 -85v-118z" />
    <glyph glyph-name="yen" unicode="&#xa5;" horiz-adv-x="492" 
d="M188 412l-184 280h113l132 -202l131 202h106l-185 -280h144v-73h-151v-86h151v-73h-151v-180h-98v180h-151v73h151v86h-151v73h143z" />
    <glyph glyph-name="section" unicode="&#xa7;" horiz-adv-x="568" 
d="M378 -7q0 33 -19 57.5t-67 41.5l-132 48q-62 23 -96 61t-34 103q0 57 30.5 92t78.5 47q-23 25 -33 55.5t-10 62.5q0 35 12.5 67t36.5 56t60.5 38.5t84.5 14.5q57 0 94 -18t58.5 -46.5t29.5 -63.5t7 -68h-94q0 17 -4.5 36t-15.5 35.5t-29.5 27.5t-45.5 11
q-52 0 -74.5 -25.5t-22.5 -60.5q0 -32 19 -57t64 -40l127 -46q70 -23 102 -63t32 -103q0 -29 -9 -52.5t-23 -41.5t-33 -29.5t-38 -17.5q23 -23 32.5 -55t9.5 -64q0 -36 -13.5 -68.5t-39 -56.5t-62.5 -38.5t-85 -14.5q-54 0 -91.5 16t-60.5 43.5t-33 64t-9 76.5h96
q0 -22 5 -42.5t16.5 -36.5t30.5 -25.5t47 -9.5q50 0 75.5 24.5t25.5 64.5zM250 374q-28 10 -50.5 9t-39 -10.5t-25.5 -25.5t-9 -36q0 -34 19.5 -52t48.5 -29l132 -47q21 -8 41.5 -7t37 9.5t26.5 24t10 38.5q0 35 -19.5 52.5t-48.5 28.5z" />
    <glyph glyph-name="dieresis" unicode="&#xa8;" horiz-adv-x="476" 
d="M158 590q-25 0 -42 17t-17 42t17 42t42 17q26 0 43.5 -17t17.5 -42t-18 -42t-43 -17zM329 590q-26 0 -43 17t-17 42t17 42t43 17q25 0 42.5 -17t17.5 -42t-18 -42t-42 -17z" />
    <glyph glyph-name="copyright" unicode="&#xa9;" horiz-adv-x="778" 
d="M26 346q0 75 26.5 141t73.5 114.5t113 76.5t146 28q84 0 152 -27.5t116 -75.5t73.5 -113t25.5 -141t-25.5 -142t-72.5 -115t-114 -77t-150 -28t-150 27.5t-114.5 76t-73.5 114t-26 141.5zM97 346q0 -63 20.5 -117.5t58.5 -94t92 -62.5t122 -23t122 22.5t91.5 62
t57.5 94.5t20 120q0 64 -20 118.5t-58.5 93.5t-93.5 61t-124 22q-65 0 -118 -22.5t-91 -62t-58.5 -94t-20.5 -118.5zM486 436q-11 11 -32 21.5t-53 10.5q-53 0 -82.5 -35t-29.5 -87q0 -51 30.5 -86t84.5 -35q26 0 48 9t36 22l45 -54q-24 -26 -57 -38.5t-72 -12.5
q-46 0 -83 15t-62.5 41.5t-39 62t-13.5 76.5t14 77t40 62.5t62 41.5t80 15t76 -12.5t55 -32.5z" />
    <glyph glyph-name="ordfeminine" unicode="&#xaa;" horiz-adv-x="352" 
d="M25 417q0 58 37 94.5t99 36.5q31 0 49.5 -7.5t29.5 -16.5v34q0 35 -15.5 55.5t-49.5 20.5q-35 0 -48 -17.5t-14 -40.5h-73q0 53 33 87.5t102 34.5q76 0 108.5 -40.5t32.5 -106.5v-262h-68v25q-14 -14 -35 -22.5t-51 -8.5q-59 0 -97.5 35.5t-39.5 98.5zM100 417
q0 -31 19 -50.5t51 -19.5q31 0 51 19t20 51t-20 51.5t-51 19.5q-32 0 -51 -19.5t-19 -51.5z" />
    <glyph glyph-name="guillemotleft" unicode="&#xab;" horiz-adv-x="348" 
d="M99 105l-83 163l83 164h85l-84 -164l83 -163h-84zM247 105l-83 163l83 164h85l-84 -164l83 -163h-84z" />
    <glyph glyph-name="registered" unicode="&#xae;" horiz-adv-x="450" 
d="M206 517v-88h-50v220h76q37 0 55.5 -17.5t18.5 -48.5q0 -20 -9 -34t-22 -21l40 -99h-52l-36 88h-21zM206 605v-46h25q23 0 23 24q0 22 -23 22h-25zM20 535q0 42 14.5 79t41 64.5t64 43.5t83.5 16q48 0 86.5 -15.5t65.5 -43t41.5 -64.5t14.5 -79t-14.5 -78.5t-41.5 -64.5
t-65 -44t-85 -16t-85 15.5t-64.5 42.5t-41 64t-14.5 80zM67 535q0 -34 11 -63t31 -50.5t49.5 -33.5t66.5 -12t66.5 12t50 33t31 50.5t10.5 64.5q0 71 -42 115t-118 44q-36 0 -65 -12t-49.5 -33t-31 -50.5t-10.5 -64.5z" />
    <glyph glyph-name="macron" unicode="&#xaf;" horiz-adv-x="400" 
d="M85 670h230v-73h-230v73z" />
    <glyph glyph-name="degree" unicode="&#xb0;" horiz-adv-x="349" 
d="M22 552q0 31 11 59t31 48t48 32t62 12q35 0 63.5 -11.5t48.5 -32t30.5 -47.5t10.5 -58q0 -32 -11 -59.5t-30.5 -48t-48 -32t-62.5 -11.5q-35 0 -63.5 11.5t-48.5 32t-30.5 47.5t-10.5 58zM94 552q0 -35 21.5 -59t59.5 -24t59 24.5t21 59.5q0 36 -21.5 60t-59.5 24
q-37 0 -58.5 -24.5t-21.5 -60.5z" />
    <glyph glyph-name="acute" unicode="&#xb4;" horiz-adv-x="476" 
d="M370 714l-80 -135h-92l78 135h94z" />
    <glyph glyph-name="paragraph" unicode="&#xb6;" horiz-adv-x="441" 
d="M164 0v418q-30 1 -56 11t-45.5 28t-30.5 43t-11 56q0 63 41.5 99.5t109.5 36.5h71v-692h-79zM387 0h-78v692h78v-692z" />
    <glyph glyph-name="periodcentered" unicode="&#xb7;" horiz-adv-x="190" 
d="M94 261q-28 0 -47 19t-19 48t18.5 48t47.5 19t48 -19t19 -48t-19 -48t-48 -19z" />
    <glyph glyph-name="cedilla" unicode="&#xb8;" horiz-adv-x="400" 
d="M129 -252v61h21q23 0 39 11t16 37q0 25 -14.5 36.5t-40.5 11.5h-21v112h60v-56q46 -9 66 -37t20 -67q0 -54 -35.5 -81.5t-90.5 -27.5h-20z" />
    <glyph glyph-name="ordmasculine" unicode="&#xba;" horiz-adv-x="446" 
d="M95 491q0 -60 36 -97t92 -37q57 0 92 37t35 97q0 29 -9.5 54t-26.5 43t-40.5 28t-50.5 10q-29 0 -52.5 -10t-40 -28t-26 -42.5t-9.5 -54.5zM16 491q0 46 16 84t43.5 65.5t65.5 42.5t82 15q45 0 83 -15.5t65 -42.5t42.5 -65t15.5 -83t-15.5 -83t-43.5 -65.5t-65.5 -43
t-81.5 -15.5q-45 0 -83 15t-65.5 42t-43 65t-15.5 84z" />
    <glyph glyph-name="guillemotright" unicode="&#xbb;" horiz-adv-x="348" 
d="M100 432l84 -163l-84 -164h-84l84 164l-84 163h84zM248 432l84 -163l-84 -164h-84l84 164l-84 163h84z" />
    <glyph glyph-name="questiondown" unicode="&#xbf;" horiz-adv-x="462" 
d="M197 420h95v-227h-53q-51 0 -84.5 -27t-33.5 -82q0 -51 30 -82.5t81 -31.5q35 0 57 13t34 32.5t16 41t4 39.5h95q1 -26 -6 -61.5t-29.5 -68.5t-63.5 -56t-107 -23q-51 0 -90 15t-65.5 41.5t-40 62t-13.5 76.5q0 38 12.5 70.5t35.5 56.5t55 38.5t71 17.5v155zM245 599
q27 0 46.5 -19t19.5 -47q0 -29 -19.5 -48t-46.5 -19q-28 0 -47.5 19t-19.5 48q0 28 19.5 47t47.5 19z" />
    <glyph glyph-name="Agrave" unicode="&#xc0;" horiz-adv-x="631" 
d="M441 228h-260l-86 -228h-97l260 692h103l272 -692h-103zM212 312h196l-99 255zM276 855l74 -126h-91l-78 126h95z" />
    <glyph glyph-name="Aacute" unicode="&#xc1;" horiz-adv-x="631" 
d="M441 228h-260l-86 -228h-97l260 692h103l272 -692h-103zM212 312h196l-99 255zM438 855l-78 -126h-93l75 126h96z" />
    <glyph glyph-name="Acircumflex" unicode="&#xc2;" horiz-adv-x="631" 
d="M441 228h-260l-86 -228h-97l260 692h103l272 -692h-103zM212 312h196l-99 255zM357 855l108 -126h-92l-65 68l-64 -68h-93l108 126h98z" />
    <glyph glyph-name="Atilde" unicode="&#xc3;" horiz-adv-x="631" 
d="M441 228h-260l-86 -228h-97l260 692h103l272 -692h-103zM212 312h196l-99 255zM369 736q-20 0 -35 6.5t-28 15t-25.5 15t-26.5 6.5q-16 0 -24.5 -11t-8.5 -31h-70q-2 49 24.5 82.5t74.5 33.5q20 0 35 -6.5t27.5 -14.5t24.5 -14.5t26 -6.5q31 0 33 42h70q1 -53 -25.5 -85
t-71.5 -32z" />
    <glyph glyph-name="Adieresis" unicode="&#xc4;" horiz-adv-x="631" 
d="M441 228h-260l-86 -228h-97l260 692h103l272 -692h-103zM212 312h196l-99 255zM215 736q-25 0 -42 16.5t-17 42.5q0 25 17 42t42 17q26 0 43.5 -17t17.5 -42q0 -26 -18 -42.5t-43 -16.5zM402 736q-25 0 -42 16.5t-17 42.5q0 25 17 42t42 17q26 0 43.5 -17t17.5 -42
q0 -26 -18 -42.5t-43 -16.5z" />
    <glyph glyph-name="Aring" unicode="&#xc5;" horiz-adv-x="631" 
d="M441 228h-260l-86 -228h-97l260 692h103l272 -692h-103zM212 312h196l-99 255zM206 817q0 45 28.5 73.5t73.5 28.5q49 0 77 -28.5t28 -71.5q0 -44 -28 -72.5t-76 -28.5q-46 0 -74.5 28.5t-28.5 70.5zM262 818q0 -21 12.5 -34.5t34.5 -13.5q23 0 35.5 13.5t12.5 35.5
q0 21 -12.5 34.5t-35.5 13.5q-22 0 -34.5 -13.5t-12.5 -35.5z" />
    <glyph glyph-name="AE" unicode="&#xc6;" horiz-adv-x="772" 
d="M432 0v200h-216l-112 -200h-108l393 692h345v-91h-204v-200h198v-90h-198v-220h206v-91h-304zM432 285v300l-169 -300h169z" />
    <glyph glyph-name="Ccedilla" unicode="&#xc7;" 
d="M297 -252v61h21q23 0 39 11t16 37q0 25 -14.5 36.5t-40.5 11.5h-21v91q-62 13 -112.5 44t-85.5 77t-54 104t-19 125q0 78 26 144t73 114t112 75t144 27q68 0 124.5 -21t98.5 -59l-58 -72q-30 26 -72 43.5t-93 17.5q-58 0 -104.5 -20t-79.5 -56t-50.5 -85.5t-17.5 -107.5
q0 -59 18.5 -108t52.5 -84.5t81 -55.5t103 -20q59 0 101 22t69 46l57 -68q-17 -17 -40 -33.5t-51.5 -29t-63 -20.5t-73.5 -8h-12t-14 1v-27q46 -9 66 -37t20 -67q0 -54 -35.5 -81.5t-90.5 -27.5h-20z" />
    <glyph glyph-name="Egrave" unicode="&#xc8;" horiz-adv-x="393" 
d="M54 0v692h301v-91h-203v-200h198v-90h-198v-220h206v-91h-304zM190 855l74 -126h-91l-78 126h95z" />
    <glyph glyph-name="Eacute" unicode="&#xc9;" horiz-adv-x="393" 
d="M54 0v692h301v-91h-203v-200h198v-90h-198v-220h206v-91h-304zM319 855l-78 -126h-93l75 126h96z" />
    <glyph glyph-name="Ecircumflex" unicode="&#xca;" horiz-adv-x="393" 
d="M54 0v692h301v-91h-203v-200h198v-90h-198v-220h206v-91h-304zM252 855l108 -126h-92l-65 68l-64 -68h-93l108 126h98z" />
    <glyph glyph-name="Edieresis" unicode="&#xcb;" horiz-adv-x="393" 
d="M54 0v692h301v-91h-203v-200h198v-90h-198v-220h206v-91h-304zM115 736q-25 0 -42 16.5t-17 42.5q0 25 17 42t42 17q26 0 43.5 -17t17.5 -42q0 -26 -18 -42.5t-43 -16.5zM302 736q-25 0 -42 16.5t-17 42.5q0 25 17 42t42 17q26 0 43.5 -17t17.5 -42q0 -26 -18 -42.5
t-43 -16.5z" />
    <glyph glyph-name="Igrave" unicode="&#xcc;" horiz-adv-x="206" 
d="M152 0h-98v692h98v-692zM75 855l74 -126h-91l-78 126h95z" />
    <glyph glyph-name="Iacute" unicode="&#xcd;" horiz-adv-x="206" 
d="M152 0h-98v692h98v-692zM229 855l-78 -126h-93l75 126h96z" />
    <glyph glyph-name="Icircumflex" unicode="&#xce;" horiz-adv-x="206" 
d="M151 855l100 -126h-89l-59 69l-59 -69h-90l100 126h97zM152 0h-98v692h98v-692z" />
    <glyph glyph-name="Idieresis" unicode="&#xcf;" horiz-adv-x="206" 
d="M19 736q-25 0 -42 16.5t-17 42.5q0 25 17 42t42 17q26 0 43.5 -17t17.5 -42q0 -26 -18 -42.5t-43 -16.5zM186 736q-26 0 -42.5 16.5t-16.5 42.5q0 25 16.5 42t42.5 17q25 0 43 -17t18 -42q0 -26 -18 -42.5t-43 -16.5zM152 0h-98v692h98v-692z" />
    <glyph glyph-name="Ntilde" unicode="&#xd1;" horiz-adv-x="657" 
d="M150 525v-525h-96v692h101l352 -531v531h96v-692h-99zM405 736q-20 0 -35 6.5t-28 15t-25.5 15t-26.5 6.5q-16 0 -24.5 -11t-8.5 -31h-70q-2 49 24.5 82.5t74.5 33.5q20 0 35 -6.5t27.5 -14.5t24.5 -14.5t26 -6.5q31 0 33 42h70q1 -53 -25.5 -85t-71.5 -32z" />
    <glyph glyph-name="Ograve" unicode="&#xd2;" horiz-adv-x="761" 
d="M26 346q0 78 26.5 144t73.5 114t111.5 75t141.5 27q79 0 144.5 -27t112.5 -75t73 -114t26 -143t-26 -143t-73 -114t-112.5 -75.5t-143.5 -27.5t-143.5 26.5t-112 74.5t-72.5 114t-26 144zM129 346q0 -59 18.5 -108t51.5 -84.5t79 -55.5t102 -20q57 0 103.5 20t79.5 55.5
t51 84.5t18 108q0 58 -18.5 107.5t-51.5 85.5t-79.5 56t-102.5 20q-57 0 -103 -20t-79 -56t-51 -85.5t-18 -107.5zM351 855l74 -126h-91l-78 126h95z" />
    <glyph glyph-name="Oacute" unicode="&#xd3;" horiz-adv-x="761" 
d="M26 346q0 78 26.5 144t73.5 114t111.5 75t141.5 27q79 0 144.5 -27t112.5 -75t73 -114t26 -143t-26 -143t-73 -114t-112.5 -75.5t-143.5 -27.5t-143.5 26.5t-112 74.5t-72.5 114t-26 144zM129 346q0 -59 18.5 -108t51.5 -84.5t79 -55.5t102 -20q57 0 103.5 20t79.5 55.5
t51 84.5t18 108q0 58 -18.5 107.5t-51.5 85.5t-79.5 56t-102.5 20q-57 0 -103 -20t-79 -56t-51 -85.5t-18 -107.5zM503 855l-78 -126h-93l75 126h96z" />
    <glyph glyph-name="Ocircumflex" unicode="&#xd4;" horiz-adv-x="761" 
d="M26 346q0 78 26.5 144t73.5 114t111.5 75t141.5 27q79 0 144.5 -27t112.5 -75t73 -114t26 -143t-26 -143t-73 -114t-112.5 -75.5t-143.5 -27.5t-143.5 26.5t-112 74.5t-72.5 114t-26 144zM129 346q0 -59 18.5 -108t51.5 -84.5t79 -55.5t102 -20q57 0 103.5 20t79.5 55.5
t51 84.5t18 108q0 58 -18.5 107.5t-51.5 85.5t-79.5 56t-102.5 20q-57 0 -103 -20t-79 -56t-51 -85.5t-18 -107.5zM429 855l108 -126h-92l-65 68l-64 -68h-93l108 126h98z" />
    <glyph glyph-name="Otilde" unicode="&#xd5;" horiz-adv-x="761" 
d="M26 346q0 78 26.5 144t73.5 114t111.5 75t141.5 27q79 0 144.5 -27t112.5 -75t73 -114t26 -143t-26 -143t-73 -114t-112.5 -75.5t-143.5 -27.5t-143.5 26.5t-112 74.5t-72.5 114t-26 144zM129 346q0 -59 18.5 -108t51.5 -84.5t79 -55.5t102 -20q57 0 103.5 20t79.5 55.5
t51 84.5t18 108q0 58 -18.5 107.5t-51.5 85.5t-79.5 56t-102.5 20q-57 0 -103 -20t-79 -56t-51 -85.5t-18 -107.5zM440 736q-20 0 -35 6.5t-28 15t-25.5 15t-26.5 6.5q-16 0 -24.5 -11t-8.5 -31h-70q-2 49 24.5 82.5t74.5 33.5q20 0 35 -6.5t27.5 -14.5t24.5 -14.5t26 -6.5
q31 0 33 42h70q1 -53 -25.5 -85t-71.5 -32z" />
    <glyph glyph-name="Odieresis" unicode="&#xd6;" horiz-adv-x="761" 
d="M26 346q0 78 26.5 144t73.5 114t111.5 75t141.5 27q79 0 144.5 -27t112.5 -75t73 -114t26 -143t-26 -143t-73 -114t-112.5 -75.5t-143.5 -27.5t-143.5 26.5t-112 74.5t-72.5 114t-26 144zM129 346q0 -59 18.5 -108t51.5 -84.5t79 -55.5t102 -20q57 0 103.5 20t79.5 55.5
t51 84.5t18 108q0 58 -18.5 107.5t-51.5 85.5t-79.5 56t-102.5 20q-57 0 -103 -20t-79 -56t-51 -85.5t-18 -107.5zM287 736q-25 0 -42 16.5t-17 42.5q0 25 17 42t42 17q26 0 43.5 -17t17.5 -42q0 -26 -18 -42.5t-43 -16.5zM474 736q-25 0 -42 16.5t-17 42.5q0 25 17 42
t42 17q26 0 43.5 -17t17.5 -42q0 -26 -18 -42.5t-43 -16.5z" />
    <glyph glyph-name="Oslash" unicode="&#xd8;" horiz-adv-x="761" 
d="M26 346q0 78 26.5 143.5t73.5 113.5t111.5 75t140.5 27q59 0 111 -15.5t92 -44.5l53 61l65 -56l-52 -61q39 -45 63 -106.5t24 -135.5q0 -77 -26 -142.5t-73.5 -113.5t-112.5 -75.5t-143 -27.5q-60 0 -111.5 16t-90.5 44l-54 -63l-64 55l54 62q-42 47 -64.5 109t-22.5 135
zM633 346q0 50 -13.5 92.5t-37.5 77.5l-344 -398q30 -20 65 -30.5t77 -10.5q57 0 103.5 20t79.5 55.5t51.5 85t18.5 108.5zM128 346q0 -50 13 -92.5t37 -76.5l343 398q-30 20 -65.5 30.5t-76.5 10.5q-57 0 -103 -20t-79 -56t-51 -85.5t-18 -108.5z" />
    <glyph glyph-name="Ugrave" unicode="&#xd9;" 
d="M312 -13q-67 0 -116 19.5t-81.5 55.5t-48.5 86.5t-16 112.5v431h98v-431q0 -83 39.5 -133t125.5 -50q81 0 122.5 51.5t41.5 132.5v430h97v-431q0 -60 -17.5 -110t-50.5 -86.5t-82 -57t-112 -20.5zM296 855l74 -126h-91l-78 126h95z" />
    <glyph glyph-name="Uacute" unicode="&#xda;" 
d="M312 -13q-67 0 -116 19.5t-81.5 55.5t-48.5 86.5t-16 112.5v431h98v-431q0 -83 39.5 -133t125.5 -50q81 0 122.5 51.5t41.5 132.5v430h97v-431q0 -60 -17.5 -110t-50.5 -86.5t-82 -57t-112 -20.5zM427 855l-78 -126h-93l75 126h96z" />
    <glyph glyph-name="Ucircumflex" unicode="&#xdb;" 
d="M312 -13q-67 0 -116 19.5t-81.5 55.5t-48.5 86.5t-16 112.5v431h98v-431q0 -83 39.5 -133t125.5 -50q81 0 122.5 51.5t41.5 132.5v430h97v-431q0 -60 -17.5 -110t-50.5 -86.5t-82 -57t-112 -20.5zM362 855l108 -126h-92l-65 68l-64 -68h-93l108 126h98z" />
    <glyph glyph-name="Udieresis" unicode="&#xdc;" 
d="M312 -13q-67 0 -116 19.5t-81.5 55.5t-48.5 86.5t-16 112.5v431h98v-431q0 -83 39.5 -133t125.5 -50q81 0 122.5 51.5t41.5 132.5v430h97v-431q0 -60 -17.5 -110t-50.5 -86.5t-82 -57t-112 -20.5zM218 736q-25 0 -42 16.5t-17 42.5q0 25 17 42t42 17q26 0 43.5 -17
t17.5 -42q0 -26 -18 -42.5t-43 -16.5zM405 736q-25 0 -42 16.5t-17 42.5q0 25 17 42t42 17q26 0 43.5 -17t17.5 -42q0 -26 -18 -42.5t-43 -16.5z" />
    <glyph glyph-name="germandbls" unicode="&#xdf;" horiz-adv-x="506" 
d="M211 81h12q31 0 60 9t51.5 28t36 49t13.5 71t-13.5 71t-36 49t-51.5 28t-59 9h-13v79h15q42 0 69 25t27 67t-24 66.5t-66 24.5q-25 0 -42 -9t-27 -23.5t-14.5 -33t-4.5 -38.5v-553h-95v548q0 37 9.5 71.5t31 60.5t57 41.5t87.5 15.5q46 0 80.5 -13t57 -35t33.5 -52.5
t11 -64.5q0 -46 -20 -76.5t-47 -45.5q27 -12 51 -30.5t42 -44.5t28.5 -60t10.5 -76q0 -59 -19.5 -103.5t-53.5 -75t-81 -46t-102 -14.5h-14v81z" />
    <glyph glyph-name="agrave" unicode="&#xe0;" horiz-adv-x="459" 
d="M26 171q0 38 13 70.5t37 56t57.5 36.5t73.5 13q41 0 69 -11.5t42 -24.5v45q0 52 -23.5 80t-71.5 28q-49 0 -68.5 -26t-20.5 -59h-89q0 35 11.5 65t33.5 51.5t55.5 33.5t78.5 12q51 0 86.5 -14t58 -39.5t33 -62t10.5 -80.5v-345h-84v42q-19 -22 -48.5 -36t-72.5 -14
q-38 0 -71 12.5t-57.5 35.5t-38.5 56.5t-14 74.5zM118 171q0 -43 27.5 -72t72.5 -29q44 0 73 29t29 72q0 44 -29 72t-74 28t-72 -28.5t-27 -71.5zM195 714l76 -135h-91l-79 135h94z" />
    <glyph glyph-name="aacute" unicode="&#xe1;" horiz-adv-x="459" 
d="M26 171q0 38 13 70.5t37 56t57.5 36.5t73.5 13q41 0 69 -11.5t42 -24.5v45q0 52 -23.5 80t-71.5 28q-49 0 -68.5 -26t-20.5 -59h-89q0 35 11.5 65t33.5 51.5t55.5 33.5t78.5 12q51 0 86.5 -14t58 -39.5t33 -62t10.5 -80.5v-345h-84v42q-19 -22 -48.5 -36t-72.5 -14
q-38 0 -71 12.5t-57.5 35.5t-38.5 56.5t-14 74.5zM118 171q0 -43 27.5 -72t72.5 -29q44 0 73 29t29 72q0 44 -29 72t-74 28t-72 -28.5t-27 -71.5zM355 714l-80 -135h-92l78 135h94z" />
    <glyph glyph-name="acircumflex" unicode="&#xe2;" horiz-adv-x="459" 
d="M26 171q0 38 13 70.5t37 56t57.5 36.5t73.5 13q41 0 69 -11.5t42 -24.5v45q0 52 -23.5 80t-71.5 28q-49 0 -68.5 -26t-20.5 -59h-89q0 35 11.5 65t33.5 51.5t55.5 33.5t78.5 12q51 0 86.5 -14t58 -39.5t33 -62t10.5 -80.5v-345h-84v42q-19 -22 -48.5 -36t-72.5 -14
q-38 0 -71 12.5t-57.5 35.5t-38.5 56.5t-14 74.5zM118 171q0 -43 27.5 -72t72.5 -29q44 0 73 29t29 72q0 44 -29 72t-74 28t-72 -28.5t-27 -71.5zM276 715l102 -140h-87l-62 79l-62 -79h-87l101 140h95z" />
    <glyph glyph-name="atilde" unicode="&#xe3;" horiz-adv-x="459" 
d="M26 171q0 38 13 70.5t37 56t57.5 36.5t73.5 13q41 0 69 -11.5t42 -24.5v45q0 52 -23.5 80t-71.5 28q-49 0 -68.5 -26t-20.5 -59h-89q0 35 11.5 65t33.5 51.5t55.5 33.5t78.5 12q51 0 86.5 -14t58 -39.5t33 -62t10.5 -80.5v-345h-84v42q-19 -22 -48.5 -36t-72.5 -14
q-38 0 -71 12.5t-57.5 35.5t-38.5 56.5t-14 74.5zM118 171q0 -43 27.5 -72t72.5 -29q44 0 73 29t29 72q0 44 -29 72t-74 28t-72 -28.5t-27 -71.5zM286 582q-20 0 -34.5 6.5t-27.5 15t-25 15t-26 6.5q-16 0 -23 -11t-8 -31h-70q-1 49 24 82.5t73 33.5q20 0 35 -6.5t27.5 -15
t24 -15t25.5 -6.5q30 0 30 43h70q1 -53 -24.5 -85t-70.5 -32z" />
    <glyph glyph-name="adieresis" unicode="&#xe4;" horiz-adv-x="459" 
d="M26 171q0 38 13 70.5t37 56t57.5 36.5t73.5 13q41 0 69 -11.5t42 -24.5v45q0 52 -23.5 80t-71.5 28q-49 0 -68.5 -26t-20.5 -59h-89q0 35 11.5 65t33.5 51.5t55.5 33.5t78.5 12q51 0 86.5 -14t58 -39.5t33 -62t10.5 -80.5v-345h-84v42q-19 -22 -48.5 -36t-72.5 -14
q-38 0 -71 12.5t-57.5 35.5t-38.5 56.5t-14 74.5zM118 171q0 -43 27.5 -72t72.5 -29q44 0 73 29t29 72q0 44 -29 72t-74 28t-72 -28.5t-27 -71.5zM138 590q-25 0 -42 17t-17 42t17 42t42 17q26 0 43.5 -17t17.5 -42t-18 -42t-43 -17zM309 590q-26 0 -43 17t-17 42t17 42
t43 17q25 0 42.5 -17t17.5 -42t-18 -42t-42 -17z" />
    <glyph glyph-name="aring" unicode="&#xe5;" horiz-adv-x="459" 
d="M26 171q0 38 13 70.5t37 56t57.5 36.5t73.5 13q41 0 69 -11.5t42 -24.5v45q0 52 -23.5 80t-71.5 28q-49 0 -68.5 -26t-20.5 -59h-89q0 35 11.5 65t33.5 51.5t55.5 33.5t78.5 12q51 0 86.5 -14t58 -39.5t33 -62t10.5 -80.5v-345h-84v42q-19 -22 -48.5 -36t-72.5 -14
q-38 0 -71 12.5t-57.5 35.5t-38.5 56.5t-14 74.5zM118 171q0 -43 27.5 -72t72.5 -29q44 0 73 29t29 72q0 44 -29 72t-74 28t-72 -28.5t-27 -71.5zM121 662q0 44 28.5 72.5t73.5 28.5q49 0 77 -28.5t28 -70.5q0 -45 -28 -73.5t-76 -28.5q-46 0 -74.5 28.5t-28.5 71.5z
M175 662q0 -21 13.5 -35t35.5 -14q24 0 37 14t13 37q0 20 -13 34.5t-37 14.5q-23 0 -36 -14.5t-13 -36.5z" />
    <glyph glyph-name="ae" unicode="&#xe6;" horiz-adv-x="849" 
d="M580 -7q-68 0 -121.5 25t-87.5 71q-7 -15 -19 -32.5t-30.5 -32t-45 -24t-62.5 -9.5q-41 0 -75 12.5t-59.5 35.5t-39.5 55.5t-14 73.5q0 38 13 70t36.5 55.5t57 36.5t74.5 13q38 0 66 -10.5t43 -24.5v48q0 51 -22 79.5t-70 28.5q-24 0 -41 -7t-27 -19t-14.5 -27.5
t-4.5 -31.5h-89q0 34 11 64t33 51.5t55 34t78 12.5q61 0 99 -24.5t55 -66.5q29 41 77.5 66.5t113.5 25.5q58 0 106 -18.5t81.5 -52t52.5 -82t20 -108.5q0 -7 -0.5 -19.5t-1.5 -23.5h-418q1 -35 13.5 -64t34.5 -51t53 -34t69 -12q63 0 102 30t62 78l73 -39q-13 -31 -34 -58.5
t-50 -48.5t-67.5 -33.5t-85.5 -12.5zM569 460q-35 0 -63 -12t-48 -32t-32 -47.5t-14 -57.5h318q-3 70 -47.5 109.5t-113.5 39.5zM117 170q0 -44 28 -72.5t73 -28.5t74 28.5t29 72.5q0 45 -29 73.5t-75 28.5t-73 -29t-27 -73z" />
    <glyph glyph-name="ccedilla" unicode="&#xe7;" horiz-adv-x="509" 
d="M224 -252v61h21q23 0 39 11t16 37q0 25 -14.5 36.5t-40.5 11.5h-21v94q-46 11 -83 35.5t-63.5 59.5t-40.5 79t-14 94q0 59 20.5 109.5t57 88t86.5 58.5t109 21q39 0 71 -8t56.5 -20.5t42.5 -28t29 -29.5l-59 -60q-21 23 -54.5 41.5t-84.5 18.5q-40 0 -72.5 -14.5t-56 -40
t-36 -60.5t-12.5 -76q0 -43 13.5 -78t37.5 -60t56.5 -38.5t70.5 -13.5q27 0 48.5 6t38.5 15t30.5 19.5t23.5 20.5l56 -59q-12 -14 -30 -29.5t-42.5 -28.5t-56 -21.5t-69.5 -8.5h-13v-30q46 -9 66 -37t20 -67q0 -54 -35.5 -81.5t-90.5 -27.5h-20z" />
    <glyph glyph-name="egrave" unicode="&#xe8;" horiz-adv-x="566" 
d="M122 239q5 -76 51 -119.5t122 -43.5q64 0 102.5 29t64.5 77l73 -38q-13 -31 -34.5 -58.5t-51.5 -48.5t-68.5 -33.5t-85.5 -12.5q-60 0 -110 19.5t-86 55.5t-55.5 86.5t-19.5 113.5q0 61 19.5 112t54 88t82.5 57.5t105 20.5q59 0 107 -18.5t82 -52.5t53 -82.5t20 -108.5
v-19.5t-2 -23.5h-423zM284 462q-66 0 -108 -39t-51 -107h323q-5 66 -49.5 106t-114.5 40zM261 714l76 -135h-91l-79 135h94z" />
    <glyph glyph-name="eacute" unicode="&#xe9;" horiz-adv-x="566" 
d="M122 239q5 -76 51 -119.5t122 -43.5q64 0 102.5 29t64.5 77l73 -38q-13 -31 -34.5 -58.5t-51.5 -48.5t-68.5 -33.5t-85.5 -12.5q-60 0 -110 19.5t-86 55.5t-55.5 86.5t-19.5 113.5q0 61 19.5 112t54 88t82.5 57.5t105 20.5q59 0 107 -18.5t82 -52.5t53 -82.5t20 -108.5
v-19.5t-2 -23.5h-423zM284 462q-66 0 -108 -39t-51 -107h323q-5 66 -49.5 106t-114.5 40zM412 714l-80 -135h-92l78 135h94z" />
    <glyph glyph-name="ecircumflex" unicode="&#xea;" horiz-adv-x="566" 
d="M122 239q5 -76 51 -119.5t122 -43.5q64 0 102.5 29t64.5 77l73 -38q-13 -31 -34.5 -58.5t-51.5 -48.5t-68.5 -33.5t-85.5 -12.5q-60 0 -110 19.5t-86 55.5t-55.5 86.5t-19.5 113.5q0 61 19.5 112t54 88t82.5 57.5t105 20.5q59 0 107 -18.5t82 -52.5t53 -82.5t20 -108.5
v-19.5t-2 -23.5h-423zM284 462q-66 0 -108 -39t-51 -107h323q-5 66 -49.5 106t-114.5 40zM332 715l102 -140h-87l-62 79l-62 -79h-87l101 140h95z" />
    <glyph glyph-name="edieresis" unicode="&#xeb;" horiz-adv-x="566" 
d="M122 239q5 -76 51 -119.5t122 -43.5q64 0 102.5 29t64.5 77l73 -38q-13 -31 -34.5 -58.5t-51.5 -48.5t-68.5 -33.5t-85.5 -12.5q-60 0 -110 19.5t-86 55.5t-55.5 86.5t-19.5 113.5q0 61 19.5 112t54 88t82.5 57.5t105 20.5q59 0 107 -18.5t82 -52.5t53 -82.5t20 -108.5
v-19.5t-2 -23.5h-423zM284 462q-66 0 -108 -39t-51 -107h323q-5 66 -49.5 106t-114.5 40zM199 590q-25 0 -42 17t-17 42t17 42t42 17q26 0 43.5 -17t17.5 -42t-18 -42t-43 -17zM370 590q-26 0 -43 17t-17 42t17 42t43 17q25 0 42.5 -17t17.5 -42t-18 -42t-42 -17z" />
    <glyph glyph-name="igrave" unicode="&#xec;" horiz-adv-x="193" 
d="M144 0h-95v535h95v-535zM66 714l76 -135h-91l-79 135h94z" />
    <glyph glyph-name="iacute" unicode="&#xed;" horiz-adv-x="193" 
d="M144 0h-95v535h95v-535zM223 714l-80 -135h-92l78 135h94z" />
    <glyph glyph-name="icircumflex" unicode="&#xee;" horiz-adv-x="193" 
d="M143 715l93 -140h-85l-55 80l-54 -80h-85l92 140h94zM144 0h-95v535h95v-535z" />
    <glyph glyph-name="idieresis" unicode="&#xef;" horiz-adv-x="193" 
d="M19 590q-26 0 -43 17t-17 42t17 42t43 17q25 0 42.5 -17t17.5 -42t-17.5 -42t-42.5 -17zM175 590q-26 0 -43 17t-17 42t17 42t43 17q25 0 42.5 -17t17.5 -42t-18 -42t-42 -17zM144 0h-95v535h95v-535z" />
    <glyph glyph-name="ntilde" unicode="&#xf1;" horiz-adv-x="479" 
d="M337 343q0 54 -23 83.5t-72 29.5q-48 0 -73 -31.5t-25 -84.5v-340h-95v535h95v-48q6 8 16 17.5t25 17.5t35 13.5t45 5.5q46 0 77.5 -15t51.5 -40.5t29 -59.5t9 -73v-353h-95v343zM298 582q-20 0 -34.5 6.5t-27.5 15t-25 15t-26 6.5q-16 0 -23 -11t-8 -31h-70
q-1 49 24 82.5t73 33.5q20 0 35 -6.5t27.5 -15t24 -15t25.5 -6.5q30 0 30 43h70q1 -53 -24.5 -85t-70.5 -32z" />
    <glyph glyph-name="ograve" unicode="&#xf2;" horiz-adv-x="600" 
d="M120 267q0 -42 13.5 -76.5t37.5 -60t57 -39.5t72 -14q40 0 73 14t57 39.5t37 60t13 76.5q0 41 -13.5 76t-37.5 60.5t-57 40t-72 14.5q-40 0 -73 -14t-57 -39.5t-37 -60.5t-13 -77zM24 267q0 61 21 111.5t58 87.5t87.5 57.5t109.5 20.5q60 0 111 -20.5t87.5 -57.5
t57 -87.5t20.5 -110.5t-21 -111t-58 -87.5t-88 -57.5t-110 -21q-60 0 -110.5 20t-87 56.5t-57 87.5t-20.5 112zM274 714l76 -135h-91l-79 135h94z" />
    <glyph glyph-name="oacute" unicode="&#xf3;" horiz-adv-x="600" 
d="M120 267q0 -42 13.5 -76.5t37.5 -60t57 -39.5t72 -14q40 0 73 14t57 39.5t37 60t13 76.5q0 41 -13.5 76t-37.5 60.5t-57 40t-72 14.5q-40 0 -73 -14t-57 -39.5t-37 -60.5t-13 -77zM24 267q0 61 21 111.5t58 87.5t87.5 57.5t109.5 20.5q60 0 111 -20.5t87.5 -57.5
t57 -87.5t20.5 -110.5t-21 -111t-58 -87.5t-88 -57.5t-110 -21q-60 0 -110.5 20t-87 56.5t-57 87.5t-20.5 112zM418 714l-80 -135h-92l78 135h94z" />
    <glyph glyph-name="ocircumflex" unicode="&#xf4;" horiz-adv-x="600" 
d="M120 267q0 -42 13.5 -76.5t37.5 -60t57 -39.5t72 -14q40 0 73 14t57 39.5t37 60t13 76.5q0 41 -13.5 76t-37.5 60.5t-57 40t-72 14.5q-40 0 -73 -14t-57 -39.5t-37 -60.5t-13 -77zM24 267q0 61 21 111.5t58 87.5t87.5 57.5t109.5 20.5q60 0 111 -20.5t87.5 -57.5
t57 -87.5t20.5 -110.5t-21 -111t-58 -87.5t-88 -57.5t-110 -21q-60 0 -110.5 20t-87 56.5t-57 87.5t-20.5 112zM346 715l102 -140h-87l-62 79l-62 -79h-87l101 140h95z" />
    <glyph glyph-name="otilde" unicode="&#xf5;" horiz-adv-x="600" 
d="M120 267q0 -42 13.5 -76.5t37.5 -60t57 -39.5t72 -14q40 0 73 14t57 39.5t37 60t13 76.5q0 41 -13.5 76t-37.5 60.5t-57 40t-72 14.5q-40 0 -73 -14t-57 -39.5t-37 -60.5t-13 -77zM24 267q0 61 21 111.5t58 87.5t87.5 57.5t109.5 20.5q60 0 111 -20.5t87.5 -57.5
t57 -87.5t20.5 -110.5t-21 -111t-58 -87.5t-88 -57.5t-110 -21q-60 0 -110.5 20t-87 56.5t-57 87.5t-20.5 112zM359 582q-20 0 -34.5 6.5t-27.5 15t-25 15t-26 6.5q-16 0 -23 -11t-8 -31h-70q-1 49 24 82.5t73 33.5q20 0 35 -6.5t27.5 -15t24 -15t25.5 -6.5q30 0 30 43h70
q1 -53 -24.5 -85t-70.5 -32z" />
    <glyph glyph-name="odieresis" unicode="&#xf6;" horiz-adv-x="600" 
d="M120 267q0 -42 13.5 -76.5t37.5 -60t57 -39.5t72 -14q40 0 73 14t57 39.5t37 60t13 76.5q0 41 -13.5 76t-37.5 60.5t-57 40t-72 14.5q-40 0 -73 -14t-57 -39.5t-37 -60.5t-13 -77zM24 267q0 61 21 111.5t58 87.5t87.5 57.5t109.5 20.5q60 0 111 -20.5t87.5 -57.5
t57 -87.5t20.5 -110.5t-21 -111t-58 -87.5t-88 -57.5t-110 -21q-60 0 -110.5 20t-87 56.5t-57 87.5t-20.5 112zM213 590q-25 0 -42 17t-17 42t17 42t42 17q26 0 43.5 -17t17.5 -42t-18 -42t-43 -17zM384 590q-26 0 -43 17t-17 42t17 42t43 17q25 0 42.5 -17t17.5 -42
t-18 -42t-42 -17z" />
    <glyph glyph-name="divide" unicode="&#xf7;" horiz-adv-x="462" 
d="M231 104q-26 0 -44.5 18.5t-18.5 44.5t18 44.5t45 18.5t44.5 -18.5t17.5 -44.5t-18 -44.5t-44 -18.5zM231 440q-26 0 -44.5 18t-18.5 45q0 26 18 44t45 18t44.5 -18t17.5 -44q0 -27 -18 -45t-44 -18zM24 377h415v-80h-415v80z" />
    <glyph glyph-name="oslash" unicode="&#xf8;" horiz-adv-x="600" 
d="M24 267q0 61 21 111.5t58 87.5t87.5 57.5t109.5 20.5q45 0 83 -12t69 -32l41 48l56 -48l-40 -47q32 -36 49.5 -83t17.5 -102q0 -60 -21 -111t-58 -87.5t-88 -57.5t-110 -21q-45 0 -83.5 11t-67.5 31l-41 -47l-55 46l40 47q-32 35 -50 83t-18 105zM118 267q0 -69 34 -118
l244 285q-44 27 -96 27q-41 0 -74.5 -14.5t-57.5 -40t-37 -61.5t-13 -78zM482 267q0 66 -33 116l-245 -284q40 -25 96 -25q40 0 73.5 14.5t57.5 40t37.5 61t13.5 77.5z" />
    <glyph glyph-name="ugrave" unicode="&#xf9;" horiz-adv-x="475" 
d="M141 193q0 -54 22.5 -83.5t70.5 -29.5t72.5 31.5t24.5 84.5v339h96v-535h-95v49q-12 -19 -41 -37t-79 -18q-45 0 -76.5 14.5t-51.5 40t-29 59.5t-9 74v353h95v-342zM218 714l76 -135h-91l-79 135h94z" />
    <glyph glyph-name="uacute" unicode="&#xfa;" horiz-adv-x="475" 
d="M141 193q0 -54 22.5 -83.5t70.5 -29.5t72.5 31.5t24.5 84.5v339h96v-535h-95v49q-12 -19 -41 -37t-79 -18q-45 0 -76.5 14.5t-51.5 40t-29 59.5t-9 74v353h95v-342zM359 714l-80 -135h-92l78 135h94z" />
    <glyph glyph-name="ucircumflex" unicode="&#xfb;" horiz-adv-x="475" 
d="M141 193q0 -54 22.5 -83.5t70.5 -29.5t72.5 31.5t24.5 84.5v339h96v-535h-95v49q-12 -19 -41 -37t-79 -18q-45 0 -76.5 14.5t-51.5 40t-29 59.5t-9 74v353h95v-342zM284 715l102 -140h-87l-62 79l-62 -79h-87l101 140h95z" />
    <glyph glyph-name="udieresis" unicode="&#xfc;" horiz-adv-x="475" 
d="M141 193q0 -54 22.5 -83.5t70.5 -29.5t72.5 31.5t24.5 84.5v339h96v-535h-95v49q-12 -19 -41 -37t-79 -18q-45 0 -76.5 14.5t-51.5 40t-29 59.5t-9 74v353h95v-342zM150 590q-25 0 -42 17t-17 42t17 42t42 17q26 0 43.5 -17t17.5 -42t-18 -42t-43 -17zM321 590
q-26 0 -43 17t-17 42t17 42t43 17q25 0 42.5 -17t17.5 -42t-18 -42t-42 -17z" />
    <glyph glyph-name="ydieresis" unicode="&#xff;" horiz-adv-x="512" 
d="M143 -175l71 185l-216 525h105l160 -398l152 398h99l-278 -710h-93zM176 590q-25 0 -42 17t-17 42t17 42t42 17q26 0 43.5 -17t17.5 -42t-18 -42t-43 -17zM347 590q-26 0 -43 17t-17 42t17 42t43 17q25 0 42.5 -17t17.5 -42t-18 -42t-42 -17z" />
    <glyph glyph-name="dotlessi" unicode="&#x131;" horiz-adv-x="192" 
d="M144 0h-95v535h95v-535z" />
    <glyph glyph-name="OE" unicode="&#x152;" horiz-adv-x="717" 
d="M378 601q-119 0 -183.5 -68.5t-64.5 -186.5t65 -186.5t183 -68.5v510zM679 692v-91h-203v-200h198v-90h-198v-220h206v-91h-300q-83 0 -149 25.5t-112 71t-70.5 109.5t-24.5 141q0 76 24.5 139.5t70.5 109.5t111.5 71t148.5 25h298z" />
    <glyph glyph-name="oe" unicode="&#x153;" horiz-adv-x="1019" 
d="M120 267q0 -42 13.5 -76.5t37.5 -60t57 -39.5t72 -14q40 0 73 14t57 39.5t37 60t13 76.5t-13.5 77t-37.5 60.5t-57 39.5t-72 14q-40 0 -73 -14t-57 -39.5t-37 -60.5t-13 -77zM738 460q-35 0 -63 -12t-48 -32t-32 -47.5t-14 -57.5h318q-2 34 -14.5 62t-33.5 47t-50 29.5
t-63 10.5zM749 -7q-75 0 -132.5 31t-91.5 88q-35 -57 -94.5 -89t-131.5 -32q-60 0 -110.5 20t-87 56.5t-57 87.5t-20.5 112t21 111.5t58 87.5t87.5 57.5t109.5 20.5q74 0 133 -32.5t94 -89.5q32 56 87 88t125 32q58 0 105.5 -18.5t81.5 -52t53 -82t20 -108.5
q0 -7 -0.5 -19.5t-1.5 -23.5h-418q1 -35 13.5 -64t34.5 -51t53 -34t69 -12q63 0 101.5 30t61.5 78l74 -39q-13 -31 -34 -58.5t-50 -48.5t-67.5 -33.5t-85.5 -12.5z" />
    <glyph glyph-name="Ydieresis" unicode="&#x178;" horiz-adv-x="481" 
d="M-4 692h110l137 -241l137 241h105l-196 -336v-356h-98v355zM148 736q-25 0 -42 16.5t-17 42.5q0 25 17 42t42 17q26 0 43.5 -17t17.5 -42q0 -26 -18 -42.5t-43 -16.5zM335 736q-25 0 -42 16.5t-17 42.5q0 25 17 42t42 17q26 0 43.5 -17t17.5 -42q0 -26 -18 -42.5
t-43 -16.5z" />
    <glyph glyph-name="florin" unicode="&#x192;" horiz-adv-x="336" 
d="M198 418h83v-81h-98l-89 -512h-94l90 512h-52v81h66l22 124q14 81 51.5 116t109.5 35h7.5t11.5 -0.5t10.5 -0.5h6.5v-80h-30q-39 0 -53.5 -20t-19.5 -53z" />
    <glyph glyph-name="circumflex" unicode="&#x2c6;" horiz-adv-x="400" 
d="M247 715l102 -140h-87l-62 79l-62 -79h-87l101 140h95z" />
    <glyph glyph-name="caron" unicode="&#x2c7;" horiz-adv-x="400" 
d="M152 578l-101 140h87l62 -80l62 80h87l-102 -140h-95z" />
    <glyph glyph-name="breve" unicode="&#x2d8;" horiz-adv-x="400" 
d="M202 571q-39 0 -65.5 13t-42.5 33t-23 43.5t-7 43.5h74q0 -11 3.5 -22t10.5 -21t19.5 -16t30.5 -6t30 6t19.5 16t11 21t3.5 22h72q0 -21 -7 -44t-23 -43t-42 -33t-64 -13z" />
    <glyph glyph-name="dotaccent" unicode="&#x2d9;" horiz-adv-x="400" 
d="M202 589q-26 0 -44 17.5t-18 43.5t17.5 43.5t43.5 17.5t44 -17.5t18 -43.5t-17.5 -43.5t-43.5 -17.5z" />
    <glyph glyph-name="ring" unicode="&#x2da;" horiz-adv-x="400" 
d="M96 662q0 44 28.5 72.5t73.5 28.5q49 0 77 -28.5t28 -70.5q0 -45 -28 -73.5t-76 -28.5q-46 0 -74.5 28.5t-28.5 71.5zM150 662q0 -21 13.5 -35t35.5 -14q24 0 37 14t13 37q0 20 -13 34.5t-37 14.5q-23 0 -36 -14.5t-13 -36.5z" />
    <glyph glyph-name="ogonek" unicode="&#x2db;" horiz-adv-x="400" 
d="M251 0q-29 -13 -41 -28t-12 -34q0 -23 16 -33t41 -11v-69q-74 -3 -109.5 24t-35.5 71q0 23 10 43t32 37h99z" />
    <glyph glyph-name="tilde" unicode="&#x2dc;" horiz-adv-x="400" 
d="M258 582q-20 0 -34.5 6.5t-27.5 15t-25 15t-26 6.5q-16 0 -23 -11t-8 -31h-70q-1 49 24 82.5t73 33.5q20 0 35 -6.5t27.5 -15t24 -15t25.5 -6.5q30 0 30 43h70q1 -53 -24.5 -85t-70.5 -32z" />
    <glyph glyph-name="hungarumlaut" unicode="&#x2dd;" horiz-adv-x="400" 
d="M209 714l-65 -135h-89l62 135h92zM360 714l-67 -135h-88l64 135h91z" />
    <glyph glyph-name="endash" unicode="&#x2013;" horiz-adv-x="605" 
d="M36 244v80h533v-80h-533z" />
    <glyph glyph-name="emdash" unicode="&#x2014;" horiz-adv-x="937" 
d="M36 244v80h865v-80h-865z" />
    <glyph glyph-name="quoteleft" unicode="&#x2018;" horiz-adv-x="179" 
d="M107 589q22 -6 35 -22t13 -39q0 -29 -18 -47.5t-47 -18.5t-47.5 18.5t-18.5 47.5q0 17 5 31.5t13 34.5l43 98h67z" />
    <glyph glyph-name="quoteright" unicode="&#x2019;" horiz-adv-x="179" 
d="M72 573q-22 6 -35.5 21.5t-13.5 38.5q0 29 18.5 47.5t47.5 18.5t47.5 -18.5t18.5 -47.5q0 -17 -5 -31.5t-14 -34.5l-42 -98h-67z" />
    <glyph glyph-name="quotesinglbase" unicode="&#x201a;" horiz-adv-x="179" 
d="M72 4q-22 6 -35.5 21.5t-13.5 38.5q0 29 18.5 47.5t47.5 18.5t47.5 -18.5t18.5 -47.5q0 -17 -5 -31.5t-14 -34.5l-42 -98h-67z" />
    <glyph glyph-name="quotedblleft" unicode="&#x201c;" horiz-adv-x="342" 
d="M270 589q22 -6 35 -22t13 -39q0 -29 -18 -47.5t-47 -18.5t-47.5 18.5t-18.5 47.5q0 17 5 31.5t13 34.5l43 98h67zM107 589q22 -6 35 -22t13 -39q0 -29 -18 -47.5t-47 -18.5t-47.5 18.5t-18.5 47.5q0 17 5 31.5t13 34.5l43 98h67z" />
    <glyph glyph-name="quotedblright" unicode="&#x201d;" horiz-adv-x="342" 
d="M235 573q-22 6 -35.5 21.5t-13.5 38.5q0 29 18.5 47.5t47.5 18.5t47.5 -18.5t18.5 -47.5q0 -17 -5 -31.5t-14 -34.5l-42 -98h-67zM72 573q-22 6 -35.5 21.5t-13.5 38.5q0 29 18.5 47.5t47.5 18.5t47.5 -18.5t18.5 -47.5q0 -17 -5 -31.5t-14 -34.5l-42 -98h-67z" />
    <glyph glyph-name="quotedblbase" unicode="&#x201e;" horiz-adv-x="344" 
d="M237 4q-22 6 -35.5 21.5t-13.5 38.5q0 29 18.5 47.5t47.5 18.5t47.5 -18.5t18.5 -47.5q0 -17 -5 -31.5t-14 -34.5l-42 -98h-67zM72 4q-22 6 -35.5 21.5t-13.5 38.5q0 29 18.5 47.5t47.5 18.5t47.5 -18.5t18.5 -47.5q0 -17 -5 -31.5t-14 -34.5l-42 -98h-67z" />
    <glyph glyph-name="dagger" unicode="&#x2020;" horiz-adv-x="364" 
d="M229 459v-459h-94v459h-113v87h113v146h94v-146h112v-87h-112z" />
    <glyph glyph-name="daggerdbl" unicode="&#x2021;" horiz-adv-x="371" 
d="M139 241v218h-113v87h113v146h94v-146h112v-87h-112v-218h112v-86h-112v-155h-94v155h-113v86h113z" />
    <glyph glyph-name="bullet" unicode="&#x2022;" horiz-adv-x="286" 
d="M25 297q0 25 9 46.5t24.5 37.5t37 25t46.5 9t47 -9t38 -25t25 -37.5t9 -46.5t-9 -46.5t-25 -37t-38 -24.5t-47 -9t-46.5 9t-37 24.5t-24.5 37t-9 46.5z" />
    <glyph glyph-name="ellipsis" unicode="&#x2026;" horiz-adv-x="570" 
d="M478 -9q-28 0 -47 19t-19 48t18.5 48t47.5 19t48 -19t19 -48t-19 -48t-48 -19zM284 -9q-28 0 -47 19t-19 48t18.5 48t47.5 19t48 -19t19 -48t-19 -48t-48 -19zM91 -9q-28 0 -47 19t-19 48t18.5 48t47.5 19t48 -19t19 -48t-19 -48t-48 -19z" />
    <glyph glyph-name="perthousand" unicode="&#x2030;" horiz-adv-x="1159" 
d="M874 160q0 -40 24.5 -67t66.5 -27q45 0 68 27t23 67q0 41 -24.5 68t-68.5 27q-42 0 -65.5 -27.5t-23.5 -67.5zM796 160q0 35 12 65t34 52.5t53 35.5t68 13q39 0 70.5 -12.5t54 -35t35 -53t12.5 -65.5t-12.5 -65t-35 -52.5t-53.5 -35.5t-69 -13t-69 12.5t-53.5 35
t-34.5 53t-12 65.5zM496 160q0 -40 24.5 -67t66.5 -27q44 0 67 27t23 67q0 41 -24.5 68t-67.5 27q-42 0 -65.5 -27.5t-23.5 -67.5zM417 160q0 35 12 65t34 52.5t53 35.5t68 13q39 0 70.5 -12.5t54 -35t35 -53t12.5 -65.5t-12.5 -65t-35 -52.5t-53.5 -35.5t-69 -13t-69 12.5
t-53.5 35t-34.5 53t-12 65.5zM173 0h-86l525 691h86zM103 533q0 -41 24.5 -68t66.5 -27q45 0 68 27.5t23 67.5q0 41 -24.5 67.5t-68.5 26.5q-42 0 -65.5 -27t-23.5 -67zM24 532q0 35 12.5 65.5t34.5 53t52.5 35.5t67.5 13q39 0 70.5 -13t54 -35.5t35 -53t12.5 -65.5t-12 -65
t-34.5 -52t-54 -35t-69.5 -13t-69 12.5t-53 34.5t-34.5 52.5t-12.5 65.5z" />
    <glyph glyph-name="guilsinglleft" unicode="&#x2039;" horiz-adv-x="200" 
d="M99 105l-83 163l83 164h85l-84 -164l83 -163h-84z" />
    <glyph glyph-name="guilsinglright" unicode="&#x203a;" horiz-adv-x="200" 
d="M100 432l84 -163l-84 -164h-84l84 164l-84 163h84z" />
    <glyph glyph-name="fraction" unicode="&#x2044;" horiz-adv-x="653" 
d="M107 0h-82l516 692h82z" />
    <glyph glyph-name="Euro" unicode="&#x20ac;" horiz-adv-x="653" 
d="M81 466q16 53 47 97t74 75t96 48t115 17q136 0 220 -78l-59 -70q-30 27 -71 43t-92 16q-62 0 -111.5 -23.5t-81.5 -67.5q-18 -27 -30 -57h243v-75h-262q-1 -11 -1.5 -22.5t-0.5 -22.5v-20.5t2 -19.5h262v-75h-243q8 -20 18.5 -38t23.5 -34q32 -39 80 -59.5t106 -20.5
q59 0 99.5 21t67.5 45l57 -65q-17 -17 -39.5 -33.5t-50.5 -29t-61.5 -20t-73.5 -7.5q-63 0 -117.5 17.5t-97.5 49t-74 76t-47 98.5h-62v75h49q-1 10 -1.5 19.5t-0.5 20.5t0.5 22.5t1.5 22.5h-49v75h64z" />
    <glyph glyph-name="trademark" unicode="&#x2122;" horiz-adv-x="607" 
d="M202 632h-56v-222h-66v222h-56v60h178v-60zM520 607l-77 -197h-66l-79 196v-196h-60v282h93l81 -205l80 205h91v-282h-63v197z" />
    <glyph glyph-name="f_i" unicode="&#xfb01;" horiz-adv-x="451" 
d="M160 535h85v-81h-85v-454h-95v454h-54v81h54v34q0 37 8 67t26 51t47.5 32.5t72.5 11.5h28v-81h-19q-21 0 -34.5 -6.5t-21 -17.5t-10 -25.5t-2.5 -31.5v-34zM402 0h-95v535h95v-535zM354 587q-26 0 -44.5 18.5t-18.5 44.5q0 27 18.5 45t44.5 18t45 -18t19 -45
q0 -26 -19 -44.5t-45 -18.5z" />
    <glyph glyph-name="f_l" unicode="&#xfb02;" horiz-adv-x="451" 
d="M160 535h85v-81h-85v-454h-95v454h-54v81h54v34q0 37 8 67t26 51t47.5 32.5t72.5 11.5h28v-81h-19q-21 0 -34.5 -6.5t-21 -17.5t-10 -25.5t-2.5 -31.5v-34zM402 0h-95v731h95v-731z" />
    <glyph glyph-name="brokenbar" unicode="&#xa6;" horiz-adv-x="225" 
d="M154 -175h-83v430h83v-430zM154 312h-83v419h83v-419z" />
    <glyph glyph-name="twosuperior" unicode="&#xb2;" horiz-adv-x="306" 
d="M31 335v59l125 118q20 19 30.5 34.5t10.5 35.5t-11.5 33t-33.5 13q-28 0 -37 -16.5t-8 -32.5h-74q-1 19 4.5 40t19 38.5t37 29t58.5 11.5q60 0 91.5 -31.5t31.5 -80.5q0 -35 -15.5 -58t-41.5 -49l-77 -77h138v-67h-248z" />
    <glyph glyph-name="threesuperior" unicode="&#xb3;" horiz-adv-x="311" 
d="M99 549l76 78h-130v65h218v-63l-77 -77q17 -2 34 -8.5t30 -19.5t21 -32t8 -44q0 -53 -35 -86t-93 -33q-33 0 -56.5 9.5t-39 25.5t-23 37.5t-7.5 45.5h75q0 -25 13.5 -39t38.5 -14q23 0 36.5 13.5t13.5 38.5t-15 37.5t-42 12.5h-46v53z" />
    <glyph glyph-name="onesuperior" unicode="&#xb9;" horiz-adv-x="181" 
d="M133 335h-76v288l-41 -17v65l47 21h70v-357z" />
    <glyph glyph-name="onequarter" unicode="&#xbc;" horiz-adv-x="651" 
d="M168 335h-75v289l-41 -17v64l47 21h69v-357zM574 93v-93h-73v93h-163v63l162 202h74v-199h41v-66h-41zM413 159h88v111zM87 0h-82l516 692h82z" />
    <glyph glyph-name="onehalf" unicode="&#xbd;" horiz-adv-x="674" 
d="M168 335h-75v289l-41 -17v64l47 21h69v-357zM390 0v58l126 120q20 19 30 35t10 36t-12 34t-34 14q-14 0 -23 -5t-14.5 -12.5t-7 -16.5t-1.5 -17h-73q-1 19 4.5 40t19.5 39t37 29.5t58 11.5q60 0 91.5 -32t31.5 -81q0 -35 -15 -59t-42 -50l-78 -78h139v-66h-247zM87 0h-82
l516 692h82z" />
    <glyph glyph-name="threequarters" unicode="&#xbe;" horiz-adv-x="725" 
d="M108 547l78 81h-131v64h216v-62l-76 -79q17 -2 34 -8.5t30.5 -19.5t21.5 -32t8 -45q0 -54 -34.5 -87t-93.5 -33q-33 0 -56.5 9.5t-39 25.5t-23 37.5t-7.5 45.5h74q0 -25 13.5 -40t39.5 -15q23 0 37 15t14 40q0 26 -15.5 39t-43.5 13h-46v51zM648 93v-93h-73v93h-163v63
l162 202h74v-199h41v-66h-41zM487 159h88v111zM162 0h-82l516 692h82z" />
    <glyph glyph-name="Eth" unicode="&#xd0;" horiz-adv-x="562" 
d="M180 692q84 0 149.5 -24.5t111.5 -69.5t70 -108.5t24 -142.5q0 -78 -24.5 -142t-70 -109.5t-111.5 -70.5t-149 -25h-115v307h-56v91h56v294h115zM163 398h120v-91h-120v-219h21q119 -1 183.5 67.5t64.5 190.5t-64 190.5t-184 67.5h-21v-206z" />
    <glyph glyph-name="multiply" unicode="&#xd7;" horiz-adv-x="406" 
d="M77 519l126 -127l126 126l56 -56l-126 -127l128 -128l-57 -56l-128 127l-126 -126l-56 56l126 126l-127 127z" />
    <glyph glyph-name="Yacute" unicode="&#xdd;" horiz-adv-x="481" 
d="M-4 692h110l137 -241l137 241h105l-196 -336v-356h-98v355zM366 855l-78 -126h-93l75 126h96z" />
    <glyph glyph-name="Thorn" unicode="&#xde;" horiz-adv-x="460" 
d="M436 355q0 -93 -56 -143.5t-147 -50.5h-81v-161h-98v692h98v-148h81q97 0 150 -47.5t53 -141.5zM152 458v-210h76q53 0 79.5 28.5t26.5 78.5q0 48 -26.5 75.5t-79.5 27.5h-76z" />
    <glyph glyph-name="eth" unicode="&#xf0;" horiz-adv-x="601" 
d="M306 677l110 34l20 -69l-74 -22l97 -98q60 -60 89.5 -120t29.5 -133q0 -60 -21 -111t-57.5 -88t-87 -58t-110.5 -21t-110.5 19.5t-88 55.5t-58.5 86.5t-21 112.5q0 63 21.5 113t58.5 85.5t86 54t105 18.5q9 0 18 -1t15 -3l-56 61l-130 -39l-21 68l97 29l-74 80h110z
M120 265q0 -42 13.5 -76.5t37.5 -59.5t57.5 -39t72.5 -14q40 0 73 14t57 39t37 59.5t13 76.5q0 41 -13.5 76t-37.5 60.5t-57 40t-73 14.5t-73 -14t-57 -39.5t-37 -60.5t-13 -77z" />
    <glyph glyph-name="yacute" unicode="&#xfd;" horiz-adv-x="512" 
d="M143 -175l71 185l-216 525h105l160 -398l152 398h99l-278 -710h-93zM382 714l-80 -135h-92l78 135h94z" />
    <glyph glyph-name="thorn" unicode="&#xfe;" horiz-adv-x="621" 
d="M140 267q0 -42 13 -77t37 -60.5t57.5 -39.5t73.5 -14t73 14t57 39.5t37 60.5t13 77t-13 77t-37 60.5t-57.5 40t-73.5 14.5t-73 -14.5t-57 -40t-37 -60.5t-13 -77zM144 -176h-95v907h95v-270q24 31 71 57t114 26q60 0 109.5 -20t85 -56.5t54.5 -87.5t19 -112
q0 -59 -19.5 -109.5t-55 -87.5t-86 -58.5t-113.5 -21.5q-35 0 -64 8t-51.5 19.5t-38.5 25t-25 24.5v-244z" />
    <glyph glyph-name="Amacron" unicode="&#x100;" horiz-adv-x="631" 
d="M441 228h-260l-86 -228h-97l260 692h103l272 -692h-103zM212 312h196l-99 255zM189 818h240v-73h-240v73z" />
    <glyph glyph-name="amacron" unicode="&#x101;" horiz-adv-x="459" 
d="M26 171q0 38 13 70.5t37 56t57.5 36.5t73.5 13q41 0 69 -11.5t42 -24.5v45q0 52 -23.5 80t-71.5 28q-49 0 -68.5 -26t-20.5 -59h-89q0 35 11.5 65t33.5 51.5t55.5 33.5t78.5 12q51 0 86.5 -14t58 -39.5t33 -62t10.5 -80.5v-345h-84v42q-19 -22 -48.5 -36t-72.5 -14
q-38 0 -71 12.5t-57.5 35.5t-38.5 56.5t-14 74.5zM118 171q0 -43 27.5 -72t72.5 -29q44 0 73 29t29 72q0 44 -29 72t-74 28t-72 -28.5t-27 -71.5zM111 670h230v-73h-230v73z" />
    <glyph glyph-name="Abreve" unicode="&#x102;" horiz-adv-x="631" 
d="M441 228h-260l-86 -228h-97l260 692h103l272 -692h-103zM212 312h196l-99 255zM310 730q-39 0 -65.5 12.5t-42.5 31.5t-23.5 41t-7.5 42h76q0 -9 3.5 -19t10.5 -18.5t19 -14t30 -5.5t30 5.5t19 14t10.5 18.5t3.5 19h74q0 -20 -7.5 -42.5t-23.5 -41t-42.5 -31t-63.5 -12.5
z" />
    <glyph glyph-name="abreve" unicode="&#x103;" horiz-adv-x="459" 
d="M26 171q0 38 13 70.5t37 56t57.5 36.5t73.5 13q41 0 69 -11.5t42 -24.5v45q0 52 -23.5 80t-71.5 28q-49 0 -68.5 -26t-20.5 -59h-89q0 35 11.5 65t33.5 51.5t55.5 33.5t78.5 12q51 0 86.5 -14t58 -39.5t33 -62t10.5 -80.5v-345h-84v42q-19 -22 -48.5 -36t-72.5 -14
q-38 0 -71 12.5t-57.5 35.5t-38.5 56.5t-14 74.5zM118 171q0 -43 27.5 -72t72.5 -29q44 0 73 29t29 72q0 44 -29 72t-74 28t-72 -28.5t-27 -71.5zM222 571q-39 0 -65.5 13t-42.5 33t-23 43.5t-7 43.5h74q0 -11 3.5 -22t10.5 -21t19.5 -16t30.5 -6t30 6t19.5 16t11 21t3.5 22
h72q0 -21 -7 -44t-23 -43t-42 -33t-64 -13z" />
    <glyph glyph-name="Aogonek" unicode="&#x104;" horiz-adv-x="631" 
d="M441 228h-260l-86 -228h-97l260 692h103l273 -695q-32 -10 -44.5 -25.5t-12.5 -33.5q0 -23 17 -33t40 -11v-69q-73 -2 -109 25.5t-36 69.5q0 23 10.5 44.5t30.5 35.5zM212 312h196l-99 255z" />
    <glyph glyph-name="aogonek" unicode="&#x105;" horiz-adv-x="459" 
d="M26 171q0 38 13 70.5t37 56t57.5 36.5t73.5 13q41 0 69 -11.5t42 -24.5v45q0 52 -23.5 80t-71.5 28q-49 0 -68.5 -26t-20.5 -59h-89q0 35 11.5 65t33.5 51.5t55.5 33.5t78.5 12q51 0 86.5 -14t58 -39.5t33 -62t10.5 -80.5v-348q-32 -10 -44 -25.5t-12 -34.5
q0 -23 16 -33.5t40 -10.5v-69q-74 -3 -109.5 24.5t-35.5 70.5q0 25 14 48t47 40v35q-19 -22 -48.5 -36t-72.5 -14q-38 0 -71 12.5t-57.5 35.5t-38.5 56.5t-14 74.5zM118 171q0 -43 27.5 -72t72.5 -29q44 0 73 29t29 72q0 44 -29 72t-74 28t-72 -28.5t-27 -71.5z" />
    <glyph glyph-name="Cacute" unicode="&#x106;" 
d="M489 855l-78 -126h-93l75 126h96zM611 78q-17 -17 -40 -33.5t-51.5 -29t-63 -20.5t-73.5 -8q-80 0 -146 27t-113 74.5t-72.5 113.5t-25.5 144t26 144t73 114t112 75t144 27q68 0 124.5 -21t98.5 -59l-58 -72q-30 26 -72 43.5t-93 17.5q-58 0 -104.5 -20t-79.5 -56
t-50.5 -85.5t-17.5 -107.5q0 -59 18.5 -108t52.5 -84.5t81 -55.5t103 -20q59 0 101 22t69 46z" />
    <glyph glyph-name="cacute" unicode="&#x107;" horiz-adv-x="509" 
d="M298 77q27 0 48.5 6t38.5 15t30.5 19.5t23.5 20.5l56 -59q-12 -14 -30 -29.5t-42.5 -28.5t-56 -21.5t-69.5 -8.5q-62 0 -112.5 21t-86.5 58t-55.5 87.5t-19.5 109.5t20.5 109.5t57 88t86.5 58.5t109 21q39 0 71 -8t56.5 -20.5t42.5 -28t29 -29.5l-59 -60
q-21 23 -54.5 41.5t-84.5 18.5q-40 0 -72.5 -14.5t-56 -40t-36 -60.5t-12.5 -76q0 -43 13.5 -78t37.5 -60t56.5 -38.5t70.5 -13.5zM411 714l-80 -135h-92l78 135h94z" />
    <glyph glyph-name="Ccircumflex" unicode="&#x108;" 
d="M413 855l108 -126h-92l-65 68l-64 -68h-93l108 126h98zM611 78q-17 -17 -40 -33.5t-51.5 -29t-63 -20.5t-73.5 -8q-80 0 -146 27t-113 74.5t-72.5 113.5t-25.5 144t26 144t73 114t112 75t144 27q68 0 124.5 -21t98.5 -59l-58 -72q-30 26 -72 43.5t-93 17.5
q-58 0 -104.5 -20t-79.5 -56t-50.5 -85.5t-17.5 -107.5q0 -59 18.5 -108t52.5 -84.5t81 -55.5t103 -20q59 0 101 22t69 46z" />
    <glyph glyph-name="ccircumflex" unicode="&#x109;" horiz-adv-x="509" 
d="M298 77q27 0 48.5 6t38.5 15t30.5 19.5t23.5 20.5l56 -59q-12 -14 -30 -29.5t-42.5 -28.5t-56 -21.5t-69.5 -8.5q-62 0 -112.5 21t-86.5 58t-55.5 87.5t-19.5 109.5t20.5 109.5t57 88t86.5 58.5t109 21q39 0 71 -8t56.5 -20.5t42.5 -28t29 -29.5l-59 -60
q-21 23 -54.5 41.5t-84.5 18.5q-40 0 -72.5 -14.5t-56 -40t-36 -60.5t-12.5 -76q0 -43 13.5 -78t37.5 -60t56.5 -38.5t70.5 -13.5zM330 715l102 -140h-87l-62 79l-62 -79h-87l101 140h95z" />
    <glyph glyph-name="Cdotaccent" unicode="&#x10a;" 
d="M366 741q-26 0 -44 17.5t-18 43.5t17.5 43.5t43.5 17.5t44 -17.5t18 -43.5t-17.5 -43.5t-43.5 -17.5zM611 78q-17 -17 -40 -33.5t-51.5 -29t-63 -20.5t-73.5 -8q-80 0 -146 27t-113 74.5t-72.5 113.5t-25.5 144t26 144t73 114t112 75t144 27q68 0 124.5 -21t98.5 -59
l-58 -72q-30 26 -72 43.5t-93 17.5q-58 0 -104.5 -20t-79.5 -56t-50.5 -85.5t-17.5 -107.5q0 -59 18.5 -108t52.5 -84.5t81 -55.5t103 -20q59 0 101 22t69 46z" />
    <glyph glyph-name="cdotaccent" unicode="&#x10b;" horiz-adv-x="509" 
d="M298 77q27 0 48.5 6t38.5 15t30.5 19.5t23.5 20.5l56 -59q-12 -14 -30 -29.5t-42.5 -28.5t-56 -21.5t-69.5 -8.5q-62 0 -112.5 21t-86.5 58t-55.5 87.5t-19.5 109.5t20.5 109.5t57 88t86.5 58.5t109 21q39 0 71 -8t56.5 -20.5t42.5 -28t29 -29.5l-59 -60
q-21 23 -54.5 41.5t-84.5 18.5q-40 0 -72.5 -14.5t-56 -40t-36 -60.5t-12.5 -76q0 -43 13.5 -78t37.5 -60t56.5 -38.5t70.5 -13.5zM282 589q-26 0 -44 17.5t-18 43.5t17.5 43.5t43.5 17.5t44 -17.5t18 -43.5t-17.5 -43.5t-43.5 -17.5z" />
    <glyph glyph-name="Ccaron" unicode="&#x10c;" 
d="M323 729l-107 126h92l65 -70l65 70h91l-108 -126h-98zM611 78q-17 -17 -40 -33.5t-51.5 -29t-63 -20.5t-73.5 -8q-80 0 -146 27t-113 74.5t-72.5 113.5t-25.5 144t26 144t73 114t112 75t144 27q68 0 124.5 -21t98.5 -59l-58 -72q-30 26 -72 43.5t-93 17.5
q-58 0 -104.5 -20t-79.5 -56t-50.5 -85.5t-17.5 -107.5q0 -59 18.5 -108t52.5 -84.5t81 -55.5t103 -20q59 0 101 22t69 46z" />
    <glyph glyph-name="ccaron" unicode="&#x10d;" horiz-adv-x="509" 
d="M298 77q27 0 48.5 6t38.5 15t30.5 19.5t23.5 20.5l56 -59q-12 -14 -30 -29.5t-42.5 -28.5t-56 -21.5t-69.5 -8.5q-62 0 -112.5 21t-86.5 58t-55.5 87.5t-19.5 109.5t20.5 109.5t57 88t86.5 58.5t109 21q39 0 71 -8t56.5 -20.5t42.5 -28t29 -29.5l-59 -60
q-21 23 -54.5 41.5t-84.5 18.5q-40 0 -72.5 -14.5t-56 -40t-36 -60.5t-12.5 -76q0 -43 13.5 -78t37.5 -60t56.5 -38.5t70.5 -13.5zM233 578l-101 140h87l62 -80l62 80h87l-102 -140h-95z" />
    <glyph glyph-name="Dcaron" unicode="&#x10e;" horiz-adv-x="550" 
d="M152 88h21q119 -1 183.5 67.5t64.5 190.5t-64 190.5t-184 67.5h-21v-516zM169 692q84 0 149.5 -24.5t111.5 -69.5t70 -108.5t24 -142.5q0 -78 -24.5 -142t-70 -109.5t-111.5 -70.5t-149 -25h-115v692h115zM207 729l-107 126h92l65 -70l65 70h91l-108 -126h-98z" />
    <glyph glyph-name="dcaron" unicode="&#x10f;" horiz-adv-x="621" 
d="M482 79q-11 -15 -28 -31t-40.5 -28.5t-53 -20.5t-63.5 -8q-60 0 -110.5 20t-86.5 56.5t-56 87t-20 112.5q0 59 20 109.5t56 88t86 58.5t109 21q64 0 110 -23t72 -54v264h95v-731h-90v79zM120 267q0 -42 13.5 -77t37.5 -60.5t57 -39.5t72 -14q40 0 73.5 14t57.5 39.5
t37 60.5t13 77t-13.5 77t-37.5 60.5t-57 40t-73 14.5t-73 -14.5t-57 -40t-37 -60.5t-13 -77zM704 731l-16 -154h-78l14 154h80z" />
    <glyph glyph-name="Dcroat" unicode="&#x110;" horiz-adv-x="562" 
d="M180 692q84 0 149.5 -24.5t111.5 -69.5t70 -108.5t24 -142.5q0 -78 -24.5 -142t-70 -109.5t-111.5 -70.5t-149 -25h-115v307h-56v91h56v294h115zM163 398h120v-91h-120v-219h21q119 -1 183.5 67.5t64.5 190.5t-64 190.5t-184 67.5h-21v-206z" />
    <glyph glyph-name="dcroat" unicode="&#x111;" horiz-adv-x="628" 
d="M351 662h126v69h95v-69h52v-71h-52v-591h-90v79q-11 -15 -28 -31t-40.5 -28.5t-53 -20.5t-63.5 -8q-60 0 -110.5 20t-86.5 56.5t-56 87t-20 112.5q0 59 20 109.5t56 88t86 58.5t109 21q64 0 110 -23t72 -54v124h-126v71zM120 267q0 -42 13.5 -77t37.5 -60.5t57 -39.5
t72 -14q40 0 73.5 14t57.5 39.5t37 60.5t13 77t-13.5 77t-37.5 60.5t-57 40t-73 14.5t-73 -14.5t-57 -40t-37 -60.5t-13 -77z" />
    <glyph glyph-name="Emacron" unicode="&#x112;" horiz-adv-x="393" 
d="M54 0v692h301v-91h-203v-200h198v-90h-198v-220h206v-91h-304zM89 818h240v-73h-240v73z" />
    <glyph glyph-name="emacron" unicode="&#x113;" horiz-adv-x="566" 
d="M122 239q5 -76 51 -119.5t122 -43.5q64 0 102.5 29t64.5 77l73 -38q-13 -31 -34.5 -58.5t-51.5 -48.5t-68.5 -33.5t-85.5 -12.5q-60 0 -110 19.5t-86 55.5t-55.5 86.5t-19.5 113.5q0 61 19.5 112t54 88t82.5 57.5t105 20.5q59 0 107 -18.5t82 -52.5t53 -82.5t20 -108.5
v-19.5t-2 -23.5h-423zM284 462q-66 0 -108 -39t-51 -107h323q-5 66 -49.5 106t-114.5 40zM170 670h230v-73h-230v73z" />
    <glyph glyph-name="Ebreve" unicode="&#x114;" horiz-adv-x="393" 
d="M54 0v692h301v-91h-203v-200h198v-90h-198v-220h206v-91h-304zM208 730q-39 0 -65.5 12.5t-42.5 31.5t-23.5 41t-7.5 42h76q0 -9 3.5 -19t10.5 -18.5t19 -14t30 -5.5t30 5.5t19 14t10.5 18.5t3.5 19h74q0 -20 -7.5 -42.5t-23.5 -41t-42.5 -31t-63.5 -12.5z" />
    <glyph glyph-name="ebreve" unicode="&#x115;" horiz-adv-x="566" 
d="M122 239q5 -76 51 -119.5t122 -43.5q64 0 102.5 29t64.5 77l73 -38q-13 -31 -34.5 -58.5t-51.5 -48.5t-68.5 -33.5t-85.5 -12.5q-60 0 -110 19.5t-86 55.5t-55.5 86.5t-19.5 113.5q0 61 19.5 112t54 88t82.5 57.5t105 20.5q59 0 107 -18.5t82 -52.5t53 -82.5t20 -108.5
v-19.5t-2 -23.5h-423zM284 462q-66 0 -108 -39t-51 -107h323q-5 66 -49.5 106t-114.5 40zM286 571q-39 0 -65.5 13t-42.5 33t-23 43.5t-7 43.5h74q0 -11 3.5 -22t10.5 -21t19.5 -16t30.5 -6t30 6t19.5 16t11 21t3.5 22h72q0 -21 -7 -44t-23 -43t-42 -33t-64 -13z" />
    <glyph glyph-name="Edotaccent" unicode="&#x116;" horiz-adv-x="393" 
d="M54 0v692h301v-91h-203v-200h198v-90h-198v-220h206v-91h-304zM203 741q-26 0 -44 17.5t-18 43.5t17.5 43.5t43.5 17.5t44 -17.5t18 -43.5t-17.5 -43.5t-43.5 -17.5z" />
    <glyph glyph-name="edotaccent" unicode="&#x117;" horiz-adv-x="566" 
d="M122 239q5 -76 51 -119.5t122 -43.5q64 0 102.5 29t64.5 77l73 -38q-13 -31 -34.5 -58.5t-51.5 -48.5t-68.5 -33.5t-85.5 -12.5q-60 0 -110 19.5t-86 55.5t-55.5 86.5t-19.5 113.5q0 61 19.5 112t54 88t82.5 57.5t105 20.5q59 0 107 -18.5t82 -52.5t53 -82.5t20 -108.5
v-19.5t-2 -23.5h-423zM284 462q-66 0 -108 -39t-51 -107h323q-5 66 -49.5 106t-114.5 40zM285 589q-26 0 -44 17.5t-18 43.5t17.5 43.5t43.5 17.5t44 -17.5t18 -43.5t-17.5 -43.5t-43.5 -17.5z" />
    <glyph glyph-name="Eogonek" unicode="&#x118;" horiz-adv-x="393" 
d="M318 0q-31 -9 -43.5 -25.5t-12.5 -34.5q0 -24 16.5 -34.5t39.5 -11.5v-69q-73 -2 -109 25.5t-36 69.5q0 23 11 43.5t36 36.5h-166v692h301v-91h-203v-200h198v-90h-198v-220h206v-91h-40z" />
    <glyph glyph-name="eogonek" unicode="&#x119;" horiz-adv-x="566" 
d="M295 -9q-60 0 -110 19.5t-86 55.5t-55.5 86.5t-19.5 113.5q0 61 19.5 112t54 88t82.5 57.5t105 20.5q59 0 107 -18.5t82 -52.5t53 -82.5t20 -108.5v-19.5t-2 -23.5h-423q5 -76 51 -119.5t122 -43.5q64 0 102.5 29t64.5 77l73 -38q-13 -29 -32 -55t-47 -49
q-36 -30 -50.5 -53t-14.5 -46q0 -27 20 -37.5t51 -10.5v-68q-41 -2 -71 4t-49.5 19t-29 30.5t-9.5 38.5q0 20 9 40t26 37q-21 -3 -43 -3zM284 462q-66 0 -108 -39t-51 -107h323q-5 66 -49.5 106t-114.5 40z" />
    <glyph glyph-name="Ecaron" unicode="&#x11a;" horiz-adv-x="393" 
d="M54 0v692h301v-91h-203v-200h198v-90h-198v-220h206v-91h-304zM157 729l-107 126h92l65 -70l65 70h91l-108 -126h-98z" />
    <glyph glyph-name="ecaron" unicode="&#x11b;" horiz-adv-x="566" 
d="M122 239q5 -76 51 -119.5t122 -43.5q64 0 102.5 29t64.5 77l73 -38q-13 -31 -34.5 -58.5t-51.5 -48.5t-68.5 -33.5t-85.5 -12.5q-60 0 -110 19.5t-86 55.5t-55.5 86.5t-19.5 113.5q0 61 19.5 112t54 88t82.5 57.5t105 20.5q59 0 107 -18.5t82 -52.5t53 -82.5t20 -108.5
v-19.5t-2 -23.5h-423zM284 462q-66 0 -108 -39t-51 -107h323q-5 66 -49.5 106t-114.5 40zM238 578l-101 140h87l62 -80l62 80h87l-102 -140h-95z" />
    <glyph glyph-name="Gcircumflex" unicode="&#x11c;" horiz-adv-x="716" 
d="M668 0h-96v51q-29 -25 -78 -44.5t-115 -19.5q-77 0 -142 26t-112 73.5t-73 113.5t-26 146q0 77 26 143t73 114t112 75.5t143 27.5q52 0 94.5 -10.5t75.5 -27.5t57 -39t41 -45l-73 -60q-14 16 -32 32.5t-42 29.5t-54.5 21t-67.5 8q-55 0 -101 -20t-79 -55.5t-51.5 -85
t-18.5 -108.5q0 -60 19 -109.5t52.5 -84.5t80 -54.5t102.5 -19.5q63 0 110.5 20.5t77.5 51.5v122h-126v84h223v-356zM426 855l108 -126h-92l-65 68l-64 -68h-93l108 126h98z" />
    <glyph glyph-name="gcircumflex" unicode="&#x11d;" horiz-adv-x="620" 
d="M480 535h92v-444q0 -75 -21.5 -127.5t-59.5 -85t-89 -47t-110 -14.5q-69 0 -123 18.5t-86 39.5l37 75q26 -17 70 -33.5t103 -16.5q37 0 70.5 9t59 28.5t40 50t14.5 73.5v15q-9 -14 -24.5 -29t-38 -27.5t-51.5 -20.5t-65 -8q-60 0 -110.5 20t-87 56t-56.5 87t-20 113
q0 59 20.5 109.5t56.5 88t86 58.5t109 21q62 0 110 -23t74 -58v72zM120 267q0 -42 13.5 -77t37.5 -60.5t57 -39.5t72 -14q40 0 73.5 14t57.5 39.5t37 60.5t13 77t-13.5 77t-37.5 60.5t-57 40t-73 14.5t-73 -14.5t-57 -40t-37 -60.5t-13 -77zM352 715l102 -140h-87l-62 79
l-62 -79h-87l101 140h95z" />
    <glyph glyph-name="Gbreve" unicode="&#x11e;" horiz-adv-x="716" 
d="M668 0h-96v51q-29 -25 -78 -44.5t-115 -19.5q-77 0 -142 26t-112 73.5t-73 113.5t-26 146q0 77 26 143t73 114t112 75.5t143 27.5q52 0 94.5 -10.5t75.5 -27.5t57 -39t41 -45l-73 -60q-14 16 -32 32.5t-42 29.5t-54.5 21t-67.5 8q-55 0 -101 -20t-79 -55.5t-51.5 -85
t-18.5 -108.5q0 -60 19 -109.5t52.5 -84.5t80 -54.5t102.5 -19.5q63 0 110.5 20.5t77.5 51.5v122h-126v84h223v-356zM368 730q-39 0 -65.5 12.5t-42.5 31.5t-23.5 41t-7.5 42h76q0 -9 3.5 -19t10.5 -18.5t19 -14t30 -5.5t30 5.5t19 14t10.5 18.5t3.5 19h74q0 -20 -7.5 -42.5
t-23.5 -41t-42.5 -31t-63.5 -12.5z" />
    <glyph glyph-name="gbreve" unicode="&#x11f;" horiz-adv-x="620" 
d="M480 535h92v-444q0 -75 -21.5 -127.5t-59.5 -85t-89 -47t-110 -14.5q-69 0 -123 18.5t-86 39.5l37 75q26 -17 70 -33.5t103 -16.5q37 0 70.5 9t59 28.5t40 50t14.5 73.5v15q-9 -14 -24.5 -29t-38 -27.5t-51.5 -20.5t-65 -8q-60 0 -110.5 20t-87 56t-56.5 87t-20 113
q0 59 20.5 109.5t56.5 88t86 58.5t109 21q62 0 110 -23t74 -58v72zM120 267q0 -42 13.5 -77t37.5 -60.5t57 -39.5t72 -14q40 0 73.5 14t57.5 39.5t37 60.5t13 77t-13.5 77t-37.5 60.5t-57 40t-73 14.5t-73 -14.5t-57 -40t-37 -60.5t-13 -77zM301 571q-39 0 -65.5 13
t-42.5 33t-23 43.5t-7 43.5h74q0 -11 3.5 -22t10.5 -21t19.5 -16t30.5 -6t30 6t19.5 16t11 21t3.5 22h72q0 -21 -7 -44t-23 -43t-42 -33t-64 -13z" />
    <glyph glyph-name="Gdotaccent" unicode="&#x120;" horiz-adv-x="716" 
d="M668 0h-96v51q-29 -25 -78 -44.5t-115 -19.5q-77 0 -142 26t-112 73.5t-73 113.5t-26 146q0 77 26 143t73 114t112 75.5t143 27.5q52 0 94.5 -10.5t75.5 -27.5t57 -39t41 -45l-73 -60q-14 16 -32 32.5t-42 29.5t-54.5 21t-67.5 8q-55 0 -101 -20t-79 -55.5t-51.5 -85
t-18.5 -108.5q0 -60 19 -109.5t52.5 -84.5t80 -54.5t102.5 -19.5q63 0 110.5 20.5t77.5 51.5v122h-126v84h223v-356zM379 741q-26 0 -44 17.5t-18 43.5t17.5 43.5t43.5 17.5t44 -17.5t18 -43.5t-17.5 -43.5t-43.5 -17.5z" />
    <glyph glyph-name="gdotaccent" unicode="&#x121;" horiz-adv-x="620" 
d="M480 535h92v-444q0 -75 -21.5 -127.5t-59.5 -85t-89 -47t-110 -14.5q-69 0 -123 18.5t-86 39.5l37 75q26 -17 70 -33.5t103 -16.5q37 0 70.5 9t59 28.5t40 50t14.5 73.5v15q-9 -14 -24.5 -29t-38 -27.5t-51.5 -20.5t-65 -8q-60 0 -110.5 20t-87 56t-56.5 87t-20 113
q0 59 20.5 109.5t56.5 88t86 58.5t109 21q62 0 110 -23t74 -58v72zM120 267q0 -42 13.5 -77t37.5 -60.5t57 -39.5t72 -14q40 0 73.5 14t57.5 39.5t37 60.5t13 77t-13.5 77t-37.5 60.5t-57 40t-73 14.5t-73 -14.5t-57 -40t-37 -60.5t-13 -77zM299 589q-26 0 -44 17.5
t-18 43.5t17.5 43.5t43.5 17.5t44 -17.5t18 -43.5t-17.5 -43.5t-43.5 -17.5z" />
    <glyph glyph-name="Gcommaaccent" unicode="&#x122;" horiz-adv-x="716" 
d="M668 0h-96v51q-29 -25 -78 -44.5t-115 -19.5q-77 0 -142 26t-112 73.5t-73 113.5t-26 146q0 77 26 143t73 114t112 75.5t143 27.5q52 0 94.5 -10.5t75.5 -27.5t57 -39t41 -45l-73 -60q-14 16 -32 32.5t-42 29.5t-54.5 21t-67.5 8q-55 0 -101 -20t-79 -55.5t-51.5 -85
t-18.5 -108.5q0 -60 19 -109.5t52.5 -84.5t80 -54.5t102.5 -19.5q63 0 110.5 20.5t77.5 51.5v122h-126v84h223v-356zM360 -156q-21 5 -34 20.5t-13 38.5q0 26 17.5 43t45.5 17q29 0 45.5 -18t16.5 -44q0 -18 -6 -33t-13 -29l-39 -81h-59z" />
    <glyph glyph-name="gcommaaccent" unicode="&#x123;" horiz-adv-x="620" 
d="M480 535h92v-444q0 -75 -21.5 -127.5t-59.5 -85t-89 -47t-110 -14.5q-69 0 -123 18.5t-86 39.5l37 75q26 -17 70 -33.5t103 -16.5q37 0 70.5 9t59 28.5t40 50t14.5 73.5v15q-9 -14 -24.5 -29t-38 -27.5t-51.5 -20.5t-65 -8q-60 0 -110.5 20t-87 56t-56.5 87t-20 113
q0 59 20.5 109.5t56.5 88t86 58.5t109 21q62 0 110 -23t74 -58v72zM120 267q0 -42 13.5 -77t37.5 -60.5t57 -39.5t72 -14q40 0 73.5 14t57.5 39.5t37 60.5t13 77t-13.5 77t-37.5 60.5t-57 40t-73 14.5t-73 -14.5t-57 -40t-37 -60.5t-13 -77zM313 692q21 -5 34 -19.5
t13 -37.5q0 -26 -17 -43.5t-46 -17.5t-45.5 18t-16.5 43q0 19 6 33.5t13 28.5l39 82h59z" />
    <glyph glyph-name="Hcircumflex" unicode="&#x124;" horiz-adv-x="635" 
d="M581 0h-98v312h-331v-312h-98v692h98v-287h331v287h98v-692zM365 855l108 -126h-92l-65 68l-64 -68h-93l108 126h98z" />
    <glyph glyph-name="hcircumflex" unicode="&#x125;" horiz-adv-x="479" 
d="M337 343q0 54 -23 83.5t-72 29.5q-48 0 -73 -31.5t-25 -84.5v-340h-95v731h95v-246q12 18 41.5 37t79.5 19q46 0 77.5 -15t51.5 -40.5t29 -59.5t9 -73v-353h-95v343zM285 891l108 -126h-92l-65 68l-64 -68h-93l108 126h98z" />
    <glyph glyph-name="Hbar" unicode="&#x126;" horiz-adv-x="649" 
d="M587 592h58v-76h-58v-516h-98v312h-331v-312h-98v516h-56v76h56v100h98v-100h331v100h98v-100zM489 405v111h-331v-111h331z" />
    <glyph glyph-name="hbar" unicode="&#x127;" horiz-adv-x="486" 
d="M4 662h51v69h95v-69h122v-71h-122v-106q12 18 41.5 37t79.5 19q46 0 77.5 -15t51.5 -40.5t29 -59.5t9 -73v-353h-95v343q0 54 -23 83.5t-72 29.5q-48 0 -73 -31.5t-25 -84.5v-340h-95v591h-51v71z" />
    <glyph glyph-name="Itilde" unicode="&#x128;" horiz-adv-x="206" 
d="M152 0h-98v692h98v-692zM164 736q-20 0 -35 6.5t-28 15t-25.5 15t-26.5 6.5q-16 0 -24.5 -11t-8.5 -31h-70q-2 49 24.5 82.5t74.5 33.5q20 0 35 -6.5t27.5 -14.5t24.5 -14.5t26 -6.5q31 0 33 42h70q1 -53 -25.5 -85t-71.5 -32z" />
    <glyph glyph-name="itilde" unicode="&#x129;" horiz-adv-x="193" 
d="M144 0h-95v535h95v-535zM156 582q-20 0 -34.5 6.5t-27.5 15t-25 15t-26 6.5q-16 0 -23 -11t-8 -31h-70q-1 49 24 82.5t73 33.5q20 0 35 -6.5t27.5 -15t24 -15t25.5 -6.5q30 0 30 43h70q1 -53 -24.5 -85t-70.5 -32z" />
    <glyph glyph-name="Imacron" unicode="&#x12a;" horiz-adv-x="206" 
d="M152 0h-98v692h98v-692zM-16 818h240v-73h-240v73z" />
    <glyph glyph-name="imacron" unicode="&#x12b;" horiz-adv-x="193" 
d="M-7 670h207v-73h-207v73zM144 0h-95v535h95v-535z" />
    <glyph glyph-name="Ibreve" unicode="&#x12c;" horiz-adv-x="206" 
d="M152 0h-98v692h98v-692zM104 730q-39 0 -65.5 12.5t-42.5 31.5t-23.5 41t-7.5 42h76q0 -9 3.5 -19t10.5 -18.5t19 -14t30 -5.5t30 5.5t19 14t10.5 18.5t3.5 19h74q0 -20 -7.5 -42.5t-23.5 -41t-42.5 -31t-63.5 -12.5z" />
    <glyph glyph-name="ibreve" unicode="&#x12d;" horiz-adv-x="193" 
d="M144 0h-95v535h95v-535zM97 571q-39 0 -65.5 13t-42.5 33t-23 43.5t-7 43.5h74q0 -11 3.5 -22t10.5 -21t19.5 -16t30.5 -6t30 6t19.5 16t11 21t3.5 22h72q0 -21 -7 -44t-23 -43t-42 -33t-64 -13z" />
    <glyph glyph-name="Iogonek" unicode="&#x12e;" horiz-adv-x="206" 
d="M152 -3q-28 -11 -38.5 -26.5t-10.5 -32.5q0 -23 16 -33t40 -11v-69q-74 -3 -109.5 24.5t-35.5 69.5q0 49 40 81v692h98v-695z" />
    <glyph glyph-name="iogonek" unicode="&#x12f;" horiz-adv-x="193" 
d="M144 -3q-32 -10 -44.5 -25.5t-12.5 -33.5q0 -23 16.5 -33t40.5 -11v-69q-73 -3 -109 24t-36 71q0 24 11.5 45.5t38.5 39.5v530h95v-538zM96 587q-26 0 -44.5 18.5t-18.5 44.5q0 27 18.5 45t44.5 18t45 -18t19 -45q0 -26 -19 -44.5t-45 -18.5z" />
    <glyph glyph-name="Idotaccent" unicode="&#x130;" horiz-adv-x="206" 
d="M152 0h-98v692h98v-692zM103 741q-26 0 -44 17.5t-18 43.5t17.5 43.5t43.5 17.5t44 -17.5t18 -43.5t-17.5 -43.5t-43.5 -17.5z" />
    <glyph glyph-name="IJ" unicode="&#x132;" horiz-adv-x="468" 
d="M152 0h-98v692h98v-692zM415 142q0 -33 -6 -59t-22 -45t-43.5 -29t-70.5 -10q-14 0 -28 0.5t-20 0.5v89h39q33 0 43 17.5t10 43.5v542h98v-550z" />
    <glyph glyph-name="ij" unicode="&#x133;" horiz-adv-x="385" 
d="M144 0h-95v535h95v-535zM96 587q-26 0 -44.5 18.5t-18.5 44.5q0 27 18.5 45t44.5 18t45 -18t19 -45q0 -26 -19 -44.5t-45 -18.5zM336 -11q0 -37 -7.5 -67.5t-25.5 -52t-47.5 -33t-72.5 -11.5h-31v82h22q22 0 35 6.5t20 17.5t9.5 25.5t2.5 31.5v547h95v-546zM288 587
q-26 0 -44.5 18.5t-18.5 44.5q0 27 18.5 45t44.5 18t45 -18t19 -45q0 -26 -19 -44.5t-45 -18.5z" />
    <glyph glyph-name="Jcircumflex" unicode="&#x134;" horiz-adv-x="262" 
d="M202 855l100 -126h-89l-59 69l-59 -69h-90l99 126h98zM208 142q0 -33 -6 -59t-22 -45t-43.5 -29t-70.5 -10q-14 0 -28 0.5t-20 0.5v89h39q33 0 43 17.5t10 43.5v542h98v-550z" />
    <glyph glyph-name="jcircumflex" unicode="&#x135;" horiz-adv-x="193" 
d="M144 -11q0 -37 -7.5 -67.5t-25.5 -52t-47.5 -33t-72.5 -11.5h-31v82h22q22 0 35 6.5t20 17.5t9.5 25.5t2.5 31.5v547h95v-546zM144 715l102 -140h-87l-62 79l-62 -79h-87l101 140h95z" />
    <glyph glyph-name="Kcommaaccent" unicode="&#x136;" horiz-adv-x="525" 
d="M152 393l251 299h117l-282 -330l291 -362h-117l-260 316v-316h-98v692h98v-299zM248 -156q-21 5 -34 20.5t-13 38.5q0 26 17.5 43t45.5 17q29 0 45.5 -18t16.5 -44q0 -18 -6 -33t-13 -29l-39 -81h-59z" />
    <glyph glyph-name="kcommaaccent" unicode="&#x137;" horiz-adv-x="463" 
d="M236 286l227 -286h-117l-202 251v-251h-95v731h95v-422l196 226h115zM225 -156q-21 5 -34 20.5t-13 38.5q0 26 17.5 43t45.5 17q29 0 45.5 -18t16.5 -44q0 -18 -6 -33t-13 -29l-39 -81h-59z" />
    <glyph glyph-name="Lacute" unicode="&#x139;" horiz-adv-x="374" 
d="M54 0v692h98v-601h201v-91h-299zM233 855l-78 -126h-93l75 126h96z" />
    <glyph glyph-name="lacute" unicode="&#x13a;" horiz-adv-x="193" 
d="M144 0h-95v731h95v-731zM221 891l-78 -126h-93l75 126h96z" />
    <glyph glyph-name="Lcommaaccent" unicode="&#x13b;" horiz-adv-x="374" 
d="M54 0v692h98v-601h201v-91h-299zM185 -156q-21 5 -34 20.5t-13 38.5q0 26 17.5 43t45.5 17q29 0 45.5 -18t16.5 -44q0 -18 -6 -33t-13 -29l-39 -81h-59z" />
    <glyph glyph-name="lcommaaccent" unicode="&#x13c;" horiz-adv-x="193" 
d="M144 0h-95v731h95v-731zM80 -156q-21 5 -34 20.5t-13 38.5q0 26 17.5 43t45.5 17q29 0 45.5 -18t16.5 -44q0 -18 -6 -33t-13 -29l-39 -81h-59z" />
    <glyph glyph-name="Lcaron" unicode="&#x13d;" horiz-adv-x="374" 
d="M54 0v692h98v-601h201v-91h-299zM284 692l-16 -154h-78l14 154h80z" />
    <glyph glyph-name="lcaron" unicode="&#x13e;" horiz-adv-x="193" 
d="M144 0h-95v731h95v-731zM276 731l-16 -154h-78l14 154h80z" />
    <glyph glyph-name="Ldot" unicode="&#x13f;" horiz-adv-x="399" 
d="M303 286q-29 0 -48.5 19.5t-19.5 48.5t19.5 48t48.5 19t48 -19t19 -48t-19 -48.5t-48 -19.5zM54 0v692h98v-601h201v-91h-299z" />
    <glyph glyph-name="ldot" unicode="&#x140;" horiz-adv-x="299" 
d="M181 354q0 27 18.5 45.5t45.5 18.5t45.5 -18.5t18.5 -45.5t-18.5 -45.5t-45.5 -18.5t-45.5 18.5t-18.5 45.5zM144 0h-95v731h95v-731z" />
    <glyph glyph-name="Lslash" unicode="&#x141;" horiz-adv-x="376" 
d="M60 0v215l-51 -30v90l51 31v386h98v-327l132 81v-95l-132 -78v-182h201v-91h-299z" />
    <glyph glyph-name="lslash" unicode="&#x142;" horiz-adv-x="212" 
d="M153 499l52 36v-97l-52 -36v-402h-95v338l-49 -33v94l49 34v298h95v-232z" />
    <glyph glyph-name="Nacute" unicode="&#x143;" horiz-adv-x="657" 
d="M150 525v-525h-96v692h101l352 -531v531h96v-692h-99zM449 855l-78 -126h-93l75 126h96z" />
    <glyph glyph-name="nacute" unicode="&#x144;" horiz-adv-x="479" 
d="M337 343q0 54 -23 83.5t-72 29.5q-48 0 -73 -31.5t-25 -84.5v-340h-95v535h95v-48q6 8 16 17.5t25 17.5t35 13.5t45 5.5q46 0 77.5 -15t51.5 -40.5t29 -59.5t9 -73v-353h-95v343zM362 714l-80 -135h-92l78 135h94z" />
    <glyph glyph-name="Ncommaaccent" unicode="&#x145;" horiz-adv-x="657" 
d="M150 525v-525h-96v692h101l352 -531v531h96v-692h-99zM321 -156q-21 5 -34 20.5t-13 38.5q0 26 17.5 43t45.5 17q29 0 45.5 -18t16.5 -44q0 -18 -6 -33t-13 -29l-39 -81h-59z" />
    <glyph glyph-name="ncommaaccent" unicode="&#x146;" horiz-adv-x="479" 
d="M337 343q0 54 -23 83.5t-72 29.5q-48 0 -73 -31.5t-25 -84.5v-340h-95v535h95v-48q6 8 16 17.5t25 17.5t35 13.5t45 5.5q46 0 77.5 -15t51.5 -40.5t29 -59.5t9 -73v-353h-95v343zM229 -156q-21 5 -34 20.5t-13 38.5q0 26 17.5 43t45.5 17q29 0 45.5 -18t16.5 -44
q0 -18 -6 -33t-13 -29l-39 -81h-59z" />
    <glyph glyph-name="Ncaron" unicode="&#x147;" horiz-adv-x="657" 
d="M150 525v-525h-96v692h101l352 -531v531h96v-692h-99zM287 729l-107 126h92l65 -70l65 70h91l-108 -126h-98z" />
    <glyph glyph-name="ncaron" unicode="&#x148;" horiz-adv-x="479" 
d="M337 343q0 54 -23 83.5t-72 29.5q-48 0 -73 -31.5t-25 -84.5v-340h-95v535h95v-48q6 8 16 17.5t25 17.5t35 13.5t45 5.5q46 0 77.5 -15t51.5 -40.5t29 -59.5t9 -73v-353h-95v343zM192 578l-101 140h87l62 -80l62 80h87l-102 -140h-95z" />
    <glyph glyph-name="napostrophe" unicode="&#x149;" horiz-adv-x="573" 
d="M431 343q0 54 -23 83.5t-72 29.5q-48 0 -73 -31.5t-25 -84.5v-340h-95v535h95v-48q6 8 16 17.5t25 17.5t35 13.5t45 5.5q46 0 77.5 -15t51.5 -40.5t29 -59.5t9 -73v-353h-95v343zM41 573q-22 6 -35.5 21.5t-13.5 38.5q0 29 18.5 47.5t47.5 18.5t47.5 -18.5t18.5 -47.5
q0 -17 -5 -31.5t-14 -34.5l-42 -98h-67z" />
    <glyph glyph-name="Eng" unicode="&#x14a;" horiz-adv-x="658" 
d="M150 525v-525h-96v692h102l352 -530v530h96v-728q0 -32 -6.5 -58.5t-22 -45t-43 -28.5t-69.5 -10q-14 0 -26.5 0.5t-17.5 0.5v89h35q31 0 41 15.5t11 38.5v32z" />
    <glyph glyph-name="eng" unicode="&#x14b;" horiz-adv-x="479" 
d="M432 -11q0 -37 -7.5 -67.5t-25.5 -52t-47.5 -33t-72.5 -11.5h-31v82h22q22 0 35 6.5t20 17.5t9.5 25.5t2.5 31.5v356q0 53 -23 83t-72 30q-48 0 -73 -31.5t-25 -84.5v-341h-95v535h95v-48q6 8 16 17.5t25 17.5t35 13.5t45 5.5q46 0 77.5 -15t51.5 -40.5t29 -59.5t9 -73
v-364z" />
    <glyph glyph-name="Omacron" unicode="&#x14c;" horiz-adv-x="761" 
d="M26 346q0 78 26.5 144t73.5 114t111.5 75t141.5 27q79 0 144.5 -27t112.5 -75t73 -114t26 -143t-26 -143t-73 -114t-112.5 -75.5t-143.5 -27.5t-143.5 26.5t-112 74.5t-72.5 114t-26 144zM129 346q0 -59 18.5 -108t51.5 -84.5t79 -55.5t102 -20q57 0 103.5 20t79.5 55.5
t51 84.5t18 108q0 58 -18.5 107.5t-51.5 85.5t-79.5 56t-102.5 20q-57 0 -103 -20t-79 -56t-51 -85.5t-18 -107.5zM260 818h240v-73h-240v73z" />
    <glyph glyph-name="omacron" unicode="&#x14d;" horiz-adv-x="600" 
d="M120 267q0 -42 13.5 -76.5t37.5 -60t57 -39.5t72 -14q40 0 73 14t57 39.5t37 60t13 76.5q0 41 -13.5 76t-37.5 60.5t-57 40t-72 14.5q-40 0 -73 -14t-57 -39.5t-37 -60.5t-13 -77zM24 267q0 61 21 111.5t58 87.5t87.5 57.5t109.5 20.5q60 0 111 -20.5t87.5 -57.5
t57 -87.5t20.5 -110.5t-21 -111t-58 -87.5t-88 -57.5t-110 -21q-60 0 -110.5 20t-87 56.5t-57 87.5t-20.5 112zM184 670h230v-73h-230v73z" />
    <glyph glyph-name="Obreve" unicode="&#x14e;" horiz-adv-x="761" 
d="M26 346q0 78 26.5 144t73.5 114t111.5 75t141.5 27q79 0 144.5 -27t112.5 -75t73 -114t26 -143t-26 -143t-73 -114t-112.5 -75.5t-143.5 -27.5t-143.5 26.5t-112 74.5t-72.5 114t-26 144zM129 346q0 -59 18.5 -108t51.5 -84.5t79 -55.5t102 -20q57 0 103.5 20t79.5 55.5
t51 84.5t18 108q0 58 -18.5 107.5t-51.5 85.5t-79.5 56t-102.5 20q-57 0 -103 -20t-79 -56t-51 -85.5t-18 -107.5zM382 730q-39 0 -65.5 12.5t-42.5 31.5t-23.5 41t-7.5 42h76q0 -9 3.5 -19t10.5 -18.5t19 -14t30 -5.5t30 5.5t19 14t10.5 18.5t3.5 19h74q0 -20 -7.5 -42.5
t-23.5 -41t-42.5 -31t-63.5 -12.5z" />
    <glyph glyph-name="obreve" unicode="&#x14f;" horiz-adv-x="600" 
d="M120 267q0 -42 13.5 -76.5t37.5 -60t57 -39.5t72 -14q40 0 73 14t57 39.5t37 60t13 76.5q0 41 -13.5 76t-37.5 60.5t-57 40t-72 14.5q-40 0 -73 -14t-57 -39.5t-37 -60.5t-13 -77zM24 267q0 61 21 111.5t58 87.5t87.5 57.5t109.5 20.5q60 0 111 -20.5t87.5 -57.5
t57 -87.5t20.5 -110.5t-21 -111t-58 -87.5t-88 -57.5t-110 -21q-60 0 -110.5 20t-87 56.5t-57 87.5t-20.5 112zM300 571q-39 0 -65.5 13t-42.5 33t-23 43.5t-7 43.5h74q0 -11 3.5 -22t10.5 -21t19.5 -16t30.5 -6t30 6t19.5 16t11 21t3.5 22h72q0 -21 -7 -44t-23 -43t-42 -33
t-64 -13z" />
    <glyph glyph-name="Ohungarumlaut" unicode="&#x150;" horiz-adv-x="761" 
d="M26 346q0 78 26.5 144t73.5 114t111.5 75t141.5 27q79 0 144.5 -27t112.5 -75t73 -114t26 -143t-26 -143t-73 -114t-112.5 -75.5t-143.5 -27.5t-143.5 26.5t-112 74.5t-72.5 114t-26 144zM129 346q0 -59 18.5 -108t51.5 -84.5t79 -55.5t102 -20q57 0 103.5 20t79.5 55.5
t51 84.5t18 108q0 58 -18.5 107.5t-51.5 85.5t-79.5 56t-102.5 20q-57 0 -103 -20t-79 -56t-51 -85.5t-18 -107.5zM418 855l-63 -126h-90l61 126h92zM569 855l-64 -126h-89l62 126h91z" />
    <glyph glyph-name="ohungarumlaut" unicode="&#x151;" horiz-adv-x="600" 
d="M120 267q0 -42 13.5 -76.5t37.5 -60t57 -39.5t72 -14q40 0 73 14t57 39.5t37 60t13 76.5q0 41 -13.5 76t-37.5 60.5t-57 40t-72 14.5q-40 0 -73 -14t-57 -39.5t-37 -60.5t-13 -77zM24 267q0 61 21 111.5t58 87.5t87.5 57.5t109.5 20.5q60 0 111 -20.5t87.5 -57.5
t57 -87.5t20.5 -110.5t-21 -111t-58 -87.5t-88 -57.5t-110 -21q-60 0 -110.5 20t-87 56.5t-57 87.5t-20.5 112zM335 714l-65 -135h-89l62 135h92zM486 714l-67 -135h-88l64 135h91z" />
    <glyph glyph-name="Racute" unicode="&#x154;" horiz-adv-x="495" 
d="M436 504q0 -64 -28.5 -108t-79.5 -65l174 -331h-105l-163 313h-82v-313h-98v692h179q97 0 150 -47t53 -141zM152 606v-210h76q53 0 79.5 29t26.5 78q0 48 -26.5 75.5t-79.5 27.5h-76zM342 855l-78 -126h-93l75 126h96z" />
    <glyph glyph-name="racute" unicode="&#x155;" horiz-adv-x="281" 
d="M263 439h-26q-49 0 -71 -27t-22 -76v-336h-95v535h95v-52q14 23 42 38.5t77 14.5v-97zM276 714l-80 -135h-92l78 135h94z" />
    <glyph glyph-name="Rcommaaccent" unicode="&#x156;" horiz-adv-x="496" 
d="M436 504q0 -64 -28.5 -108t-79.5 -65l174 -331h-105l-163 313h-82v-313h-98v692h179q97 0 150 -47t53 -141zM152 606v-210h76q53 0 79.5 29t26.5 78q0 48 -26.5 75.5t-79.5 27.5h-76zM243 -156q-21 5 -34 20.5t-13 38.5q0 26 17.5 43t45.5 17q29 0 45.5 -18t16.5 -44
q0 -18 -6 -33t-13 -29l-39 -81h-59z" />
    <glyph glyph-name="rcommaaccent" unicode="&#x157;" horiz-adv-x="281" 
d="M263 439h-26q-49 0 -71 -27t-22 -76v-336h-95v535h95v-52q14 23 42 38.5t77 14.5v-97zM81 -156q-21 5 -34 20.5t-13 38.5q0 26 17.5 43t45.5 17q29 0 45.5 -18t16.5 -44q0 -18 -6 -33t-13 -29l-39 -81h-59z" />
    <glyph glyph-name="Rcaron" unicode="&#x158;" horiz-adv-x="495" 
d="M436 504q0 -64 -28.5 -108t-79.5 -65l174 -331h-105l-163 313h-82v-313h-98v692h179q97 0 150 -47t53 -141zM152 606v-210h76q53 0 79.5 29t26.5 78q0 48 -26.5 75.5t-79.5 27.5h-76zM183 729l-107 126h92l65 -70l65 70h91l-108 -126h-98z" />
    <glyph glyph-name="rcaron" unicode="&#x159;" horiz-adv-x="281" 
d="M263 439h-26q-49 0 -71 -27t-22 -76v-336h-95v535h95v-52q14 23 42 38.5t77 14.5v-97zM108 578l-101 140h87l62 -80l62 80h87l-102 -140h-95z" />
    <glyph glyph-name="Sacute" unicode="&#x15a;" horiz-adv-x="482" 
d="M141 527q0 -35 17.5 -57.5t49.5 -38.5q31 -14 63 -26.5t65 -29.5q56 -27 87 -71t31 -113q0 -45 -15.5 -82.5t-43 -64t-67 -41.5t-87.5 -15q-60 0 -101.5 18t-66.5 48.5t-35.5 70t-9.5 82.5h95q0 -28 6.5 -52.5t20.5 -42.5t36.5 -28.5t54.5 -10.5q49 0 81 27.5t32 81.5
q0 42 -20 66.5t-54 41.5q-34 18 -68.5 30.5t-69.5 31.5q-47 26 -72.5 68t-25.5 104q0 38 13.5 71t39 57.5t61.5 38.5t81 14q55 0 92.5 -16.5t60.5 -43.5t32.5 -62t8.5 -73h-90q-2 48 -27.5 79.5t-76.5 31.5q-48 0 -73 -26.5t-25 -67.5zM360 855l-78 -126h-93l75 126h96z" />
    <glyph glyph-name="sacute" unicode="&#x15b;" horiz-adv-x="399" 
d="M123 401q0 -49 54 -68q21 -8 42 -13t43 -13q56 -20 86 -54.5t30 -99.5q0 -39 -14.5 -69t-39 -50t-57.5 -30t-70 -10q-51 0 -85.5 14t-55.5 38t-30 55.5t-8 66.5h92q0 -20 4.5 -37.5t15 -30.5t27 -21t42.5 -8q35 -1 60.5 18t25.5 55q0 33 -16 50t-46 28q-23 8 -46 14
t-49 17q-53 23 -75 58.5t-22 83.5q0 33 12.5 60t35 46t53 29.5t67.5 10.5q84 0 124.5 -44.5t41.5 -117.5h-88q-2 41 -21.5 64.5t-58.5 23.5q-34 0 -54 -17.5t-20 -48.5zM330 714l-80 -135h-92l78 135h94z" />
    <glyph glyph-name="Scircumflex" unicode="&#x15c;" horiz-adv-x="482" 
d="M141 527q0 -35 17.5 -57.5t49.5 -38.5q31 -14 63 -26.5t65 -29.5q56 -27 87 -71t31 -113q0 -45 -15.5 -82.5t-43 -64t-67 -41.5t-87.5 -15q-60 0 -101.5 18t-66.5 48.5t-35.5 70t-9.5 82.5h95q0 -28 6.5 -52.5t20.5 -42.5t36.5 -28.5t54.5 -10.5q49 0 81 27.5t32 81.5
q0 42 -20 66.5t-54 41.5q-34 18 -68.5 30.5t-69.5 31.5q-47 26 -72.5 68t-25.5 104q0 38 13.5 71t39 57.5t61.5 38.5t81 14q55 0 92.5 -16.5t60.5 -43.5t32.5 -62t8.5 -73h-90q-2 48 -27.5 79.5t-76.5 31.5q-48 0 -73 -26.5t-25 -67.5zM288 855l108 -126h-92l-65 68l-64 -68
h-93l108 126h98z" />
    <glyph glyph-name="scircumflex" unicode="&#x15d;" horiz-adv-x="399" 
d="M123 401q0 -49 54 -68q21 -8 42 -13t43 -13q56 -20 86 -54.5t30 -99.5q0 -39 -14.5 -69t-39 -50t-57.5 -30t-70 -10q-51 0 -85.5 14t-55.5 38t-30 55.5t-8 66.5h92q0 -20 4.5 -37.5t15 -30.5t27 -21t42.5 -8q35 -1 60.5 18t25.5 55q0 33 -16 50t-46 28q-23 8 -46 14
t-49 17q-53 23 -75 58.5t-22 83.5q0 33 12.5 60t35 46t53 29.5t67.5 10.5q84 0 124.5 -44.5t41.5 -117.5h-88q-2 41 -21.5 64.5t-58.5 23.5q-34 0 -54 -17.5t-20 -48.5zM246 715l102 -140h-87l-62 79l-62 -79h-87l101 140h95z" />
    <glyph glyph-name="Scedilla" unicode="&#x15e;" horiz-adv-x="482" 
d="M171 -252v61h21q23 0 39 11t16 37q0 25 -14.5 36.5t-40.5 11.5h-21v91q-40 9 -67.5 29.5t-44.5 49t-24.5 62.5t-6.5 70h95q0 -28 6.5 -52.5t20.5 -42.5t36.5 -28.5t54.5 -10.5q49 0 81 27.5t32 81.5q0 42 -20 66.5t-54 41.5q-34 18 -68.5 30.5t-69.5 31.5
q-47 26 -72.5 68t-25.5 104q0 38 13.5 71t39 57.5t61.5 38.5t81 14q55 0 92.5 -16.5t60.5 -43.5t32.5 -62t8.5 -73h-90q-2 48 -27.5 79.5t-76.5 31.5q-48 0 -73 -26.5t-25 -67.5q0 -35 17.5 -57.5t49.5 -38.5q31 -14 63 -26.5t65 -29.5q56 -27 87 -71t31 -113
q0 -45 -15.5 -82.5t-43 -64t-67 -41.5t-87.5 -15h-10v-27q46 -9 66 -37t20 -67q0 -54 -35.5 -81.5t-90.5 -27.5h-20z" />
    <glyph glyph-name="scedilla" unicode="&#x15f;" horiz-adv-x="399" 
d="M133 -252v61h21q23 0 39 11t16 37q0 25 -14.5 36.5t-40.5 11.5h-21v96q-32 9 -54.5 25.5t-36 38.5t-19.5 48t-5 55h92q0 -20 4.5 -37.5t15 -30.5t27 -21t42.5 -8q35 -1 60.5 18t25.5 55q0 33 -16 50t-46 28q-23 8 -46 14t-49 17q-53 23 -75 58.5t-22 83.5q0 33 12.5 60
t35 46t53 29.5t67.5 10.5q84 0 124.5 -44.5t41.5 -117.5h-88q-2 41 -21.5 64.5t-58.5 23.5q-34 0 -54 -17.5t-20 -48.5q0 -49 54 -68q21 -8 42 -13t43 -13q56 -20 86 -54.5t30 -99.5q0 -39 -14.5 -69t-39 -50t-57.5 -30t-70 -10h-4v-33q46 -9 66 -37t20 -67
q0 -54 -35.5 -81.5t-90.5 -27.5h-20z" />
    <glyph glyph-name="Scaron" unicode="&#x160;" horiz-adv-x="482" 
d="M141 527q0 -35 17.5 -57.5t49.5 -38.5q31 -14 63 -26.5t65 -29.5q56 -27 87 -71t31 -113q0 -45 -15.5 -82.5t-43 -64t-67 -41.5t-87.5 -15q-60 0 -101.5 18t-66.5 48.5t-35.5 70t-9.5 82.5h95q0 -28 6.5 -52.5t20.5 -42.5t36.5 -28.5t54.5 -10.5q49 0 81 27.5t32 81.5
q0 42 -20 66.5t-54 41.5q-34 18 -68.5 30.5t-69.5 31.5q-47 26 -72.5 68t-25.5 104q0 38 13.5 71t39 57.5t61.5 38.5t81 14q55 0 92.5 -16.5t60.5 -43.5t32.5 -62t8.5 -73h-90q-2 48 -27.5 79.5t-76.5 31.5q-48 0 -73 -26.5t-25 -67.5zM191 729l-107 126h92l65 -70l65 70h91
l-108 -126h-98z" />
    <glyph glyph-name="scaron" unicode="&#x161;" horiz-adv-x="399" 
d="M123 401q0 -49 54 -68q21 -8 42 -13t43 -13q56 -20 86 -54.5t30 -99.5q0 -39 -14.5 -69t-39 -50t-57.5 -30t-70 -10q-51 0 -85.5 14t-55.5 38t-30 55.5t-8 66.5h92q0 -20 4.5 -37.5t15 -30.5t27 -21t42.5 -8q35 -1 60.5 18t25.5 55q0 33 -16 50t-46 28q-23 8 -46 14
t-49 17q-53 23 -75 58.5t-22 83.5q0 33 12.5 60t35 46t53 29.5t67.5 10.5q84 0 124.5 -44.5t41.5 -117.5h-88q-2 41 -21.5 64.5t-58.5 23.5q-34 0 -54 -17.5t-20 -48.5zM152 578l-101 140h87l62 -80l62 80h87l-102 -140h-95z" />
    <glyph glyph-name="Tcommaaccent" unicode="&#x162;" horiz-adv-x="416" 
d="M257 601v-601h-98v601h-142v91h382v-91h-142zM192 -156q-21 5 -34 20.5t-13 38.5q0 26 17.5 43t45.5 17q29 0 45.5 -18t16.5 -44q0 -18 -6 -33t-13 -29l-39 -81h-59z" />
    <glyph glyph-name="tcommaaccent" unicode="&#x163;" horiz-adv-x="277" 
d="M160 535h99v-81h-99v-301q0 -35 11 -53t49 -18h38v-82q-6 0 -22.5 -2.5t-39.5 -2.5q-74 0 -102.5 35t-28.5 99v325h-54v81h54v82h95v-82zM146 -156q-21 5 -34 20.5t-13 38.5q0 26 17.5 43t45.5 17q29 0 45.5 -18t16.5 -44q0 -18 -6 -33t-13 -29l-39 -81h-59z" />
    <glyph glyph-name="Tcaron" unicode="&#x164;" horiz-adv-x="416" 
d="M257 601v-601h-98v601h-142v91h382v-91h-142zM157 729l-107 126h92l65 -70l65 70h91l-108 -126h-98z" />
    <glyph glyph-name="tcaron" unicode="&#x165;" horiz-adv-x="277" 
d="M160 535h99v-81h-99v-301q0 -35 11 -53t49 -18h38v-82q-6 0 -22.5 -2.5t-39.5 -2.5q-74 0 -102.5 35t-28.5 99v325h-54v81h54v82h95v-82zM297 731l-16 -154h-78l14 154h80z" />
    <glyph glyph-name="Tbar" unicode="&#x166;" horiz-adv-x="416" 
d="M257 601v-171h100v-76h-100v-354h-98v354h-99v76h99v171h-142v91h382v-91h-142z" />
    <glyph glyph-name="tbar" unicode="&#x167;" horiz-adv-x="277" 
d="M160 535h99v-81h-99v-111h99v-73h-99v-117q0 -35 11 -53t49 -18h38v-82q-6 0 -22.5 -2.5t-39.5 -2.5q-74 0 -102.5 35t-28.5 99v141h-52v73h52v111h-54v81h54v82h95v-82z" />
    <glyph glyph-name="Utilde" unicode="&#x168;" 
d="M312 -13q-67 0 -116 19.5t-81.5 55.5t-48.5 86.5t-16 112.5v431h98v-431q0 -83 39.5 -133t125.5 -50q81 0 122.5 51.5t41.5 132.5v430h97v-431q0 -60 -17.5 -110t-50.5 -86.5t-82 -57t-112 -20.5zM373 739q-20 0 -34.5 6.5t-27.5 15t-25 15t-26 6.5q-16 0 -23 -11t-8 -31
h-70q-1 49 24 82.5t73 33.5q20 0 35 -6.5t27.5 -15t24 -15t25.5 -6.5q30 0 30 43h70q1 -53 -24.5 -85t-70.5 -32z" />
    <glyph glyph-name="utilde" unicode="&#x169;" horiz-adv-x="475" 
d="M141 193q0 -54 22.5 -83.5t70.5 -29.5t72.5 31.5t24.5 84.5v339h96v-535h-95v49q-12 -19 -41 -37t-79 -18q-45 0 -76.5 14.5t-51.5 40t-29 59.5t-9 74v353h95v-342zM298 582q-20 0 -34.5 6.5t-27.5 15t-25 15t-26 6.5q-16 0 -23 -11t-8 -31h-70q-1 49 24 82.5t73 33.5
q20 0 35 -6.5t27.5 -15t24 -15t25.5 -6.5q30 0 30 43h70q1 -53 -24.5 -85t-70.5 -32z" />
    <glyph glyph-name="Umacron" unicode="&#x16a;" 
d="M312 -13q-67 0 -116 19.5t-81.5 55.5t-48.5 86.5t-16 112.5v431h98v-431q0 -83 39.5 -133t125.5 -50q81 0 122.5 51.5t41.5 132.5v430h97v-431q0 -60 -17.5 -110t-50.5 -86.5t-82 -57t-112 -20.5zM195 827h230v-73h-230v73z" />
    <glyph glyph-name="umacron" unicode="&#x16b;" horiz-adv-x="475" 
d="M141 193q0 -54 22.5 -83.5t70.5 -29.5t72.5 31.5t24.5 84.5v339h96v-535h-95v49q-12 -19 -41 -37t-79 -18q-45 0 -76.5 14.5t-51.5 40t-29 59.5t-9 74v353h95v-342zM122 670h230v-73h-230v73z" />
    <glyph glyph-name="Ubreve" unicode="&#x16c;" 
d="M312 -13q-67 0 -116 19.5t-81.5 55.5t-48.5 86.5t-16 112.5v431h98v-431q0 -83 39.5 -133t125.5 -50q81 0 122.5 51.5t41.5 132.5v430h97v-431q0 -60 -17.5 -110t-50.5 -86.5t-82 -57t-112 -20.5zM312 730q-39 0 -65.5 12.5t-42.5 31.5t-23.5 41t-7.5 42h76q0 -9 3.5 -19
t10.5 -18.5t19 -14t30 -5.5t30 5.5t19 14t10.5 18.5t3.5 19h74q0 -20 -7.5 -42.5t-23.5 -41t-42.5 -31t-63.5 -12.5z" />
    <glyph glyph-name="ubreve" unicode="&#x16d;" horiz-adv-x="475" 
d="M141 193q0 -54 22.5 -83.5t70.5 -29.5t72.5 31.5t24.5 84.5v339h96v-535h-95v49q-12 -19 -41 -37t-79 -18q-45 0 -76.5 14.5t-51.5 40t-29 59.5t-9 74v353h95v-342zM236 571q-39 0 -65.5 13t-42.5 33t-23 43.5t-7 43.5h74q0 -11 3.5 -22t10.5 -21t19.5 -16t30.5 -6t30 6
t19.5 16t11 21t3.5 22h72q0 -21 -7 -44t-23 -43t-42 -33t-64 -13z" />
    <glyph glyph-name="Uring" unicode="&#x16e;" 
d="M312 -13q-67 0 -116 19.5t-81.5 55.5t-48.5 86.5t-16 112.5v431h98v-431q0 -83 39.5 -133t125.5 -50q81 0 122.5 51.5t41.5 132.5v430h97v-431q0 -60 -17.5 -110t-50.5 -86.5t-82 -57t-112 -20.5zM208 817q0 45 28.5 73.5t73.5 28.5q49 0 77 -28.5t28 -71.5
q0 -44 -28 -72.5t-76 -28.5q-46 0 -74.5 28.5t-28.5 70.5zM264 818q0 -21 12.5 -34.5t34.5 -13.5q23 0 35.5 13.5t12.5 35.5q0 21 -12.5 34.5t-35.5 13.5q-22 0 -34.5 -13.5t-12.5 -35.5z" />
    <glyph glyph-name="uring" unicode="&#x16f;" horiz-adv-x="475" 
d="M141 193q0 -54 22.5 -83.5t70.5 -29.5t72.5 31.5t24.5 84.5v339h96v-535h-95v49q-12 -19 -41 -37t-79 -18q-45 0 -76.5 14.5t-51.5 40t-29 59.5t-9 74v353h95v-342zM134 662q0 44 28.5 72.5t73.5 28.5q49 0 77 -28.5t28 -70.5q0 -45 -28 -73.5t-76 -28.5
q-46 0 -74.5 28.5t-28.5 71.5zM188 662q0 -21 13.5 -35t35.5 -14q24 0 37 14t13 37q0 20 -13 34.5t-37 14.5q-23 0 -36 -14.5t-13 -36.5z" />
    <glyph glyph-name="Uhungarumlaut" unicode="&#x170;" 
d="M312 -13q-67 0 -116 19.5t-81.5 55.5t-48.5 86.5t-16 112.5v431h98v-431q0 -83 39.5 -133t125.5 -50q81 0 122.5 51.5t41.5 132.5v430h97v-431q0 -60 -17.5 -110t-50.5 -86.5t-82 -57t-112 -20.5zM336 855l-63 -126h-90l61 126h92zM487 855l-64 -126h-89l62 126h91z" />
    <glyph glyph-name="uhungarumlaut" unicode="&#x171;" horiz-adv-x="475" 
d="M141 193q0 -54 22.5 -83.5t70.5 -29.5t72.5 31.5t24.5 84.5v339h96v-535h-95v49q-12 -19 -41 -37t-79 -18q-45 0 -76.5 14.5t-51.5 40t-29 59.5t-9 74v353h95v-342zM266 714l-65 -135h-89l62 135h92zM417 714l-67 -135h-88l64 135h91z" />
    <glyph glyph-name="Uogonek" unicode="&#x172;" 
d="M405 1q-35 -11 -47 -28.5t-12 -34.5q0 -21 16 -32t41 -12v-69q-74 -3 -110 24.5t-36 68.5q0 39 34 70q-62 3 -107.5 24t-75 56.5t-44 84.5t-14.5 108v431h98v-431q0 -41 9.5 -74.5t29.5 -57.5t51 -37.5t74 -13.5q41 0 72 13.5t51.5 38t31 58t10.5 73.5v431h98v-431
q0 -97 -43.5 -165t-126.5 -95z" />
    <glyph glyph-name="uogonek" unicode="&#x173;" horiz-adv-x="475" 
d="M141 193q0 -54 22.5 -83.5t70.5 -29.5t72.5 31.5t24.5 84.5v339h96v-538q-32 -10 -44.5 -25.5t-12.5 -33.5q0 -23 16 -33t41 -11v-69q-74 -3 -110 24t-36 71q0 24 12.5 46t38.5 39v44q-12 -19 -41 -37t-79 -18q-45 0 -76.5 14.5t-51.5 40t-29 59.5t-9 74v353h95v-342z
" />
    <glyph glyph-name="Wcircumflex" unicode="&#x174;" horiz-adv-x="981" 
d="M492 547l-170 -547h-107l-214 692h106l166 -558l168 558h106l168 -558l165 558h100l-211 -692h-108zM538 855l108 -126h-92l-65 68l-64 -68h-93l108 126h98z" />
    <glyph glyph-name="wcircumflex" unicode="&#x175;" horiz-adv-x="830" 
d="M601 120l131 415h98l-174 -535h-105l-134 402l-135 -402h-105l-177 535h105l130 -415l132 415h103zM464 715l102 -140h-87l-62 79l-62 -79h-87l101 140h95z" />
    <glyph glyph-name="Ycircumflex" unicode="&#x176;" horiz-adv-x="481" 
d="M-4 692h110l137 -241l137 241h105l-196 -336v-356h-98v355zM291 855l108 -126h-92l-65 68l-64 -68h-93l108 126h98z" />
    <glyph glyph-name="ycircumflex" unicode="&#x177;" horiz-adv-x="512" 
d="M143 -175l71 185l-216 525h105l160 -398l152 398h99l-278 -710h-93zM308 715l102 -140h-87l-62 79l-62 -79h-87l101 140h95z" />
    <glyph glyph-name="Zacute" unicode="&#x179;" horiz-adv-x="588" 
d="M28 0v73l396 529h-390v90h525v-73l-400 -529h401v-90h-532zM405 855l-78 -126h-93l75 126h96z" />
    <glyph glyph-name="zacute" unicode="&#x17a;" horiz-adv-x="441" 
d="M133 80h285v-80h-395v73l279 382h-273v80h389v-73zM341 714l-80 -135h-92l78 135h94z" />
    <glyph glyph-name="Zdotaccent" unicode="&#x17b;" horiz-adv-x="588" 
d="M28 0v73l396 529h-390v90h525v-73l-400 -529h401v-90h-532zM293 741q-26 0 -44 17.5t-18 43.5t17.5 43.5t43.5 17.5t44 -17.5t18 -43.5t-17.5 -43.5t-43.5 -17.5z" />
    <glyph glyph-name="zdotaccent" unicode="&#x17c;" horiz-adv-x="441" 
d="M133 80h285v-80h-395v73l279 382h-273v80h389v-73zM224 589q-26 0 -44 17.5t-18 43.5t17.5 43.5t43.5 17.5t44 -17.5t18 -43.5t-17.5 -43.5t-43.5 -17.5z" />
    <glyph glyph-name="Zcaron" unicode="&#x17d;" horiz-adv-x="588" 
d="M28 0v73l396 529h-390v90h525v-73l-400 -529h401v-90h-532zM244 729l-107 126h92l65 -70l65 70h91l-108 -126h-98z" />
    <glyph glyph-name="zcaron" unicode="&#x17e;" horiz-adv-x="441" 
d="M133 80h285v-80h-395v73l279 382h-273v80h389v-73zM176 578l-101 140h87l62 -80l62 80h87l-102 -140h-95z" />
    <glyph glyph-name="uni018F" unicode="&#x18f;" horiz-adv-x="710" 
d="M581 378q-5 54 -23.5 98t-50.5 74.5t-76 47.5t-98 17q-38 0 -68.5 -8t-55 -21.5t-43 -30t-33.5 -33.5l-68 64q19 23 45 45t59 38.5t74 26.5t90 10q80 0 145 -27t110.5 -75t70 -114t24.5 -144q0 -79 -23 -145t-65 -113.5t-102 -74t-135 -26.5q-85 0 -148.5 27t-104.5 77.5
t-60.5 123t-17.5 163.5h554zM354 77q48 0 87 15.5t67.5 44t46.5 68.5t24 89h-446q4 -47 19.5 -87t43 -69t67 -45t91.5 -16z" />
    <glyph glyph-name="Aringacute" unicode="&#x1fa;" horiz-adv-x="631" 
d="M441 228h-260l-86 -228h-97l260 692h103l272 -692h-103zM212 312h196l-99 255zM205 817q0 45 28.5 73.5t73.5 28.5q49 0 77 -28.5t28 -71.5q0 -44 -28 -72.5t-76 -28.5q-46 0 -74.5 28.5t-28.5 70.5zM261 818q0 -21 12.5 -34.5t34.5 -13.5q23 0 35.5 13.5t12.5 35.5
q0 21 -12.5 34.5t-35.5 13.5q-22 0 -34.5 -13.5t-12.5 -35.5zM433 1067l-78 -126h-93l75 126h96z" />
    <glyph glyph-name="aringacute" unicode="&#x1fb;" horiz-adv-x="459" 
d="M26 171q0 38 13 70.5t37 56t57.5 36.5t73.5 13q41 0 69 -11.5t42 -24.5v45q0 52 -23.5 80t-71.5 28q-49 0 -68.5 -26t-20.5 -59h-89q0 35 11.5 65t33.5 51.5t55.5 33.5t78.5 12q51 0 86.5 -14t58 -39.5t33 -62t10.5 -80.5v-345h-84v42q-19 -22 -48.5 -36t-72.5 -14
q-38 0 -71 12.5t-57.5 35.5t-38.5 56.5t-14 74.5zM118 171q0 -43 27.5 -72t72.5 -29q44 0 73 29t29 72q0 44 -29 72t-74 28t-72 -28.5t-27 -71.5zM129 662q0 44 28.5 72.5t73.5 28.5q49 0 77 -28.5t28 -70.5q0 -45 -28 -73.5t-76 -28.5q-46 0 -74.5 28.5t-28.5 71.5z
M183 662q0 -21 13.5 -35t35.5 -14q24 0 37 14t13 37q0 20 -13 34.5t-37 14.5q-23 0 -36 -14.5t-13 -36.5zM360 915l-78 -126h-93l75 126h96z" />
    <glyph glyph-name="AEacute" unicode="&#x1fc;" horiz-adv-x="772" 
d="M432 0v200h-216l-112 -200h-108l393 692h345v-91h-204v-200h198v-90h-198v-220h206v-91h-304zM432 285v300l-169 -300h169zM653 855l-78 -126h-93l75 126h96z" />
    <glyph glyph-name="aeacute" unicode="&#x1fd;" horiz-adv-x="849" 
d="M580 -7q-68 0 -121.5 25t-87.5 71q-7 -15 -19 -32.5t-30.5 -32t-45 -24t-62.5 -9.5q-41 0 -75 12.5t-59.5 35.5t-39.5 55.5t-14 73.5q0 38 13 70t36.5 55.5t57 36.5t74.5 13q38 0 66 -10.5t43 -24.5v48q0 51 -22 79.5t-70 28.5q-24 0 -41 -7t-27 -19t-14.5 -27.5
t-4.5 -31.5h-89q0 34 11 64t33 51.5t55 34t78 12.5q61 0 99 -24.5t55 -66.5q29 41 77.5 66.5t113.5 25.5q58 0 106 -18.5t81.5 -52t52.5 -82t20 -108.5q0 -7 -0.5 -19.5t-1.5 -23.5h-418q1 -35 13.5 -64t34.5 -51t53 -34t69 -12q63 0 102 30t62 78l73 -39q-13 -31 -34 -58.5
t-50 -48.5t-67.5 -33.5t-85.5 -12.5zM569 460q-35 0 -63 -12t-48 -32t-32 -47.5t-14 -57.5h318q-3 70 -47.5 109.5t-113.5 39.5zM117 170q0 -44 28 -72.5t73 -28.5t74 28.5t29 72.5q0 45 -29 73.5t-75 28.5t-73 -29t-27 -73zM522 714l-80 -135h-92l78 135h94z" />
    <glyph glyph-name="Oslashacute" unicode="&#x1fe;" horiz-adv-x="761" 
d="M503 855l-78 -126h-93l75 126h96zM26 346q0 78 26.5 143.5t73.5 113.5t111.5 75t140.5 27q59 0 111 -15.5t92 -44.5l53 61l65 -56l-52 -61q39 -45 63 -106.5t24 -135.5q0 -77 -26 -142.5t-73.5 -113.5t-112.5 -75.5t-143 -27.5q-60 0 -111.5 16t-90.5 44l-54 -63l-64 55
l54 62q-42 47 -64.5 109t-22.5 135zM633 346q0 50 -13.5 92.5t-37.5 77.5l-344 -398q30 -20 65 -30.5t77 -10.5q57 0 103.5 20t79.5 55.5t51.5 85t18.5 108.5zM128 346q0 -50 13 -92.5t37 -76.5l343 398q-30 20 -65.5 30.5t-76.5 10.5q-57 0 -103 -20t-79 -56t-51 -85.5
t-18 -108.5z" />
    <glyph glyph-name="oslashacute" unicode="&#x1ff;" horiz-adv-x="600" 
d="M426 714l-80 -135h-92l78 135h94zM24 267q0 61 21 111.5t58 87.5t87.5 57.5t109.5 20.5q45 0 83 -12t69 -32l41 48l56 -48l-40 -47q32 -36 49.5 -83t17.5 -102q0 -60 -21 -111t-58 -87.5t-88 -57.5t-110 -21q-45 0 -83.5 11t-67.5 31l-41 -47l-55 46l40 47q-32 35 -50 83
t-18 105zM118 267q0 -69 34 -118l244 285q-44 27 -96 27q-41 0 -74.5 -14.5t-57.5 -40t-37 -61.5t-13 -78zM482 267q0 66 -33 116l-245 -284q40 -25 96 -25q40 0 73.5 14.5t57.5 40t37.5 61t13.5 77.5z" />
    <glyph glyph-name="Scommaaccent" unicode="&#x218;" horiz-adv-x="482" 
d="M141 527q0 -35 17.5 -57.5t49.5 -38.5q31 -14 63 -26.5t65 -29.5q56 -27 87 -71t31 -113q0 -45 -15.5 -82.5t-43 -64t-67 -41.5t-87.5 -15q-60 0 -101.5 18t-66.5 48.5t-35.5 70t-9.5 82.5h95q0 -28 6.5 -52.5t20.5 -42.5t36.5 -28.5t54.5 -10.5q49 0 81 27.5t32 81.5
q0 42 -20 66.5t-54 41.5q-34 18 -68.5 30.5t-69.5 31.5q-47 26 -72.5 68t-25.5 104q0 38 13.5 71t39 57.5t61.5 38.5t81 14q55 0 92.5 -16.5t60.5 -43.5t32.5 -62t8.5 -73h-90q-2 48 -27.5 79.5t-76.5 31.5q-48 0 -73 -26.5t-25 -67.5zM224 -156q-21 5 -34 20.5t-13 38.5
q0 26 17.5 43t45.5 17q29 0 45.5 -18t16.5 -44q0 -18 -6 -33t-13 -29l-39 -81h-59z" />
    <glyph glyph-name="scommaaccent" unicode="&#x219;" horiz-adv-x="398" 
d="M123 401q0 -49 54 -68q21 -8 42 -13t43 -13q56 -20 86 -54.5t30 -99.5q0 -39 -14.5 -69t-39 -50t-57.5 -30t-70 -10q-51 0 -85.5 14t-55.5 38t-30 55.5t-8 66.5h92q0 -20 4.5 -37.5t15 -30.5t27 -21t42.5 -8q35 -1 60.5 18t25.5 55q0 33 -16 50t-46 28q-23 8 -46 14
t-49 17q-53 23 -75 58.5t-22 83.5q0 33 12.5 60t35 46t53 29.5t67.5 10.5q84 0 124.5 -44.5t41.5 -117.5h-88q-2 41 -21.5 64.5t-58.5 23.5q-34 0 -54 -17.5t-20 -48.5zM191 -156q-21 5 -34 20.5t-13 38.5q0 26 17.5 43t45.5 17q29 0 45.5 -18t16.5 -44q0 -18 -6 -33
t-13 -29l-39 -81h-59z" />
    <glyph glyph-name="uni021A" unicode="&#x21a;" horiz-adv-x="416" 
d="M257 601v-601h-98v601h-142v91h382v-91h-142zM192 -156q-21 5 -34 20.5t-13 38.5q0 26 17.5 43t45.5 17q29 0 45.5 -18t16.5 -44q0 -18 -6 -33t-13 -29l-39 -81h-59z" />
    <glyph glyph-name="uni021B" unicode="&#x21b;" horiz-adv-x="277" 
d="M160 535h99v-81h-99v-301q0 -35 11 -53t49 -18h38v-82q-6 0 -22.5 -2.5t-39.5 -2.5q-74 0 -102.5 35t-28.5 99v325h-54v81h54v82h95v-82zM146 -156q-21 5 -34 20.5t-13 38.5q0 26 17.5 43t45.5 17q29 0 45.5 -18t16.5 -44q0 -18 -6 -33t-13 -29l-39 -81h-59z" />
    <glyph glyph-name="uni0237" unicode="&#x237;" horiz-adv-x="193" 
d="M144 -11q0 -37 -7.5 -67.5t-25.5 -52t-47.5 -33t-72.5 -11.5h-31v82h22q22 0 35 6.5t20 17.5t9.5 25.5t2.5 31.5v547h95v-546z" />
    <glyph glyph-name="uni0259" unicode="&#x259;" horiz-adv-x="567" 
d="M448.008 296.015q-5 75.9951 -50.9971 119.492q-45.9971 43.498 -121.993 43.498q-63.9961 0 -102.493 -28.998q-38.498 -28.999 -64.4961 -76.9961l-72.9961 37.998q13 30.998 34.498 58.4961q21.499 27.499 51.4971 48.4971q29.998 20.999 68.4961 33.498
q38.4971 12.499 85.4941 12.499q59.9971 0 109.994 -19.498q49.9961 -19.499 85.9941 -55.4971t55.4971 -86.4941q19.499 -50.4971 19.499 -113.493q0 -60.9971 -19.499 -111.993q-19.499 -50.9971 -53.9971 -87.9951t-82.4951 -57.4961q-47.9971 -20.499 -104.993 -20.499
q-58.9961 0 -106.994 18.499q-47.9961 18.499 -81.9941 52.4971q-33.998 33.9971 -52.9971 82.4941t-19.999 108.494v19.498q0 11.5 2 23.499h422.975zM286.018 73.0283q65.9961 0 107.993 38.9971q41.9971 38.998 50.9971 106.994h-322.98q5 -65.9961 49.4971 -105.994
q44.4971 -39.9971 114.493 -39.9971z" />
    <glyph glyph-name="uni02BC" unicode="&#x2bc;" horiz-adv-x="179" 
d="M72 573q-22 6 -35.5 21.5t-13.5 38.5q0 29 18.5 47.5t47.5 18.5t47.5 -18.5t18.5 -47.5q0 -17 -5 -31.5t-14 -34.5l-42 -98h-67z" />
    <glyph glyph-name="uni0401" unicode="&#x401;" horiz-adv-x="393" 
d="M54 0v692h301v-91h-203v-200h198v-90h-198v-220h206v-91h-304zM115 736q-25 0 -42 16.5t-17 42.5q0 25 17 42t42 17q26 0 43.5 -17t17.5 -42q0 -26 -18 -42.5t-43 -16.5zM302 736q-25 0 -42 16.5t-17 42.5q0 25 17 42t42 17q26 0 43.5 -17t17.5 -42q0 -26 -18 -42.5
t-43 -16.5z" />
    <glyph glyph-name="uni0402" unicode="&#x402;" horiz-adv-x="602" 
d="M344 403q57 0 100 -17t72 -47t43.5 -71.5t14.5 -91.5q0 -47 -14.5 -89t-43.5 -73.5t-71.5 -50t-98.5 -18.5v91q31 0 55 11.5t40.5 31t25 44.5t8.5 53q0 57 -32 96t-97 39q-21 0 -39 -2.5l-32 -4.5q-16 -3 -29 -6v-298h-98v601h-131v91h382v-91h-153v-211q13 3 29 6
l31.5 4.5t37.5 2.5z" />
    <glyph glyph-name="uni0403" unicode="&#x403;" horiz-adv-x="380" 
d="M152 0h-98v692h303v-91h-205v-601zM325 855l-78 -126h-93l75 126h96z" />
    <glyph glyph-name="uni0404" unicode="&#x404;" 
d="M611 78q-17 -17 -40 -33.5t-51.5 -29t-63 -20.5t-73.5 -8q-80 0 -145.5 27t-112.5 74.5t-73 113.5t-26 144t26 144t73 114t112 75t144 27q68 0 124.5 -21t98.5 -59l-58 -72q-30 26 -72 43.5t-93 17.5q-53 0 -96 -16t-75 -44.5t-52 -69t-27 -88.5h306v-88h-308
q6 -51 26.5 -93.5t53.5 -73t77.5 -47.5t97.5 -17q60 0 101.5 21.5t69.5 46.5z" />
    <glyph glyph-name="uni0405" unicode="&#x405;" horiz-adv-x="482" 
d="M141 527q0 -35 17.5 -57.5t49.5 -38.5q31 -14 63 -26.5t65 -29.5q56 -27 87 -71t31 -113q0 -45 -15.5 -82.5t-43 -64t-67 -41.5t-87.5 -15q-60 0 -101.5 18t-66.5 48.5t-35.5 70t-9.5 82.5h95q0 -28 6.5 -52.5t20.5 -42.5t36.5 -28.5t54.5 -10.5q49 0 81 27.5t32 81.5
q0 42 -20 66.5t-54 41.5q-34 18 -68.5 30.5t-69.5 31.5q-47 26 -72.5 68t-25.5 104q0 38 13.5 71t39 57.5t61.5 38.5t81 14q55 0 92.5 -16.5t60.5 -43.5t32.5 -62t8.5 -73h-90q-2 48 -27.5 79.5t-76.5 31.5q-48 0 -73 -26.5t-25 -67.5z" />
    <glyph glyph-name="uni0406" unicode="&#x406;" horiz-adv-x="206" 
d="M152 0h-98v692h98v-692z" />
    <glyph glyph-name="uni0407" unicode="&#x407;" horiz-adv-x="206" 
d="M19 736q-25 0 -42 16.5t-17 42.5q0 25 17 42t42 17q26 0 43.5 -17t17.5 -42q0 -26 -18 -42.5t-43 -16.5zM186 736q-26 0 -42.5 16.5t-16.5 42.5q0 25 16.5 42t42.5 17q25 0 43 -17t18 -42q0 -26 -18 -42.5t-43 -16.5zM152 0h-98v692h98v-692z" />
    <glyph glyph-name="uni0408" unicode="&#x408;" horiz-adv-x="262" 
d="M209 142q0 -33 -6 -59t-22 -45t-43.5 -29t-70.5 -10q-14 0 -28 0.5t-20 0.5v89h39q33 0 43 17.5t10 43.5v542h98v-550z" />
    <glyph glyph-name="uni0409" unicode="&#x409;" horiz-adv-x="805" 
d="M205 237q-5 -115 -46 -178.5t-138 -63.5h-15v91h16q25 0 41 12t26 33t15 50t7 63l21 448h369v-274h71q98 0 155.5 -54.5t57.5 -155.5q0 -102 -57 -155t-156 -53h-169v600h-182zM501 332v-246h66q58 0 87 32.5t29 89.5t-29.5 90.5t-86.5 33.5h-66z" />
    <glyph glyph-name="uni040A" unicode="&#x40a;" horiz-adv-x="865" 
d="M463 318h-311v-318h-98v692h98v-281h311v281h97v-281h71q99 0 156.5 -54t57.5 -154q0 -99 -57 -151t-156 -52h-169v318zM560 325v-239h66q59 0 88 31.5t29 86.5q0 56 -29.5 88.5t-87.5 32.5h-66z" />
    <glyph glyph-name="uni040B" unicode="&#x40b;" horiz-adv-x="601" 
d="M246 0h-98v601h-131v91h382v-91h-153v-211q14 3 32 6q14 2 33.5 4.5t41.5 2.5q99 0 151.5 -52.5t52.5 -155.5v-195h-98v193q0 57 -27 87.5t-82 30.5q-23 0 -41.5 -2.5l-32.5 -4.5q-17 -3 -30 -6v-298z" />
    <glyph glyph-name="uni040C" unicode="&#x40c;" horiz-adv-x="525" 
d="M152 393l251 299h117l-282 -330l291 -362h-117l-260 316v-316h-98v692h98v-299zM394 855l-78 -126h-93l75 126h96z" />
    <glyph glyph-name="uni040E" unicode="&#x40e;" horiz-adv-x="584" 
d="M248 184l-254 508h109l198 -396l185 396h104l-330 -692h-98zM297 730q-39 0 -65.5 12.5t-42.5 31.5t-23.5 41t-7.5 42h76q0 -9 3.5 -19t10.5 -18.5t19 -14t30 -5.5t30 5.5t19 14t10.5 18.5t3.5 19h74q0 -20 -7.5 -42.5t-23.5 -41t-42.5 -31t-63.5 -12.5z" />
    <glyph glyph-name="uni040F" unicode="&#x40f;" horiz-adv-x="625" 
d="M473 92v600h98v-692h-213v-140h-91v140h-213v692h98v-600h321z" />
    <glyph glyph-name="uni0410" unicode="&#x410;" horiz-adv-x="631" 
d="M441 228h-260l-86 -228h-97l260 692h103l272 -692h-103zM212 312h196l-99 255z" />
    <glyph glyph-name="uni0411" unicode="&#x411;" horiz-adv-x="462" 
d="M54 692h343v-92h-245v-194h71q99 0 156 -53t57 -151q0 -99 -57 -150.5t-156 -51.5h-169v692zM152 320v-234h66q58 0 87 31t29 85t-29.5 86t-86.5 32h-66z" />
    <glyph glyph-name="uni0412" unicode="&#x412;" horiz-adv-x="478" 
d="M452 200q0 -47 -15.5 -84.5t-43 -63t-65.5 -39t-84 -13.5h-190v692h178q97 0 149 -46t52 -136q0 -50 -21 -87.5t-58 -57.5q46 -20 72 -60.5t26 -104.5zM151 315v-229h82q58 0 87.5 32t29.5 85q0 51 -29 81.5t-88 30.5h-82zM151 606v-208h76q51 0 78 27.5t27 77.5
t-26 76.5t-79 26.5h-76z" />
    <glyph glyph-name="uni0413" unicode="&#x413;" horiz-adv-x="380" 
d="M152 0h-98v692h303v-91h-205v-601z" />
    <glyph glyph-name="uni0414" unicode="&#x414;" horiz-adv-x="674" 
d="M576 0h-482v-140h-91v232h7q29 0 48.5 12.5t31.5 37t18 61t8 83.5l19 406h456v-600h76v-232h-91v140zM210 283q-3 -66 -14 -113t-35 -78h332v508h-268z" />
    <glyph glyph-name="uni0415" unicode="&#x415;" horiz-adv-x="393" 
d="M54 0v692h301v-91h-203v-200h198v-90h-198v-220h206v-91h-304z" />
    <glyph glyph-name="uni0416" unicode="&#x416;" horiz-adv-x="802" 
d="M352 692h98v-298l231 298h116l-263 -333l273 -359h-118l-239 316v-316h-98v316l-240 -316h-115l271 356l-266 336h118l232 -298v298z" />
    <glyph glyph-name="uni0417" unicode="&#x417;" horiz-adv-x="482" 
d="M241 -11q-61 0 -102.5 17.5t-66.5 46t-35.5 64.5t-9.5 72h93q1 -23 8.5 -44t22.5 -37t37.5 -25t52.5 -9q29 0 50.5 10t36 26.5t21.5 38.5t7 47q0 54 -31 85.5t-100 31.5h-56v86h59q56 0 84 29.5t28 80.5t-26.5 80t-77.5 29q-29 0 -50 -9t-34.5 -25t-20.5 -37t-7 -45h-93
q-1 36 8.5 71.5t33.5 64t63.5 46.5t99.5 18q100 0 152.5 -51.5t52.5 -136.5q0 -54 -25.5 -93t-61.5 -57q47 -19 75.5 -60.5t28.5 -107.5q0 -47 -15.5 -85t-44 -65t-68.5 -42t-89 -15z" />
    <glyph glyph-name="uni0418" unicode="&#x418;" horiz-adv-x="645" 
d="M152 158l341 534h98v-692h-98v534l-341 -534h-98v692h98v-534z" />
    <glyph glyph-name="uni0419" unicode="&#x419;" horiz-adv-x="645" 
d="M152 158l341 534h98v-692h-98v534l-341 -534h-98v692h98v-534zM323 730q-39 0 -65.5 12.5t-42.5 31.5t-23.5 41t-7.5 42h76q0 -9 3.5 -19t10.5 -18.5t19 -14t30 -5.5t30 5.5t19 14t10.5 18.5t3.5 19h74q0 -20 -7.5 -42.5t-23.5 -41t-42.5 -31t-63.5 -12.5z" />
    <glyph glyph-name="uni041A" unicode="&#x41a;" horiz-adv-x="525" 
d="M152 393l251 299h117l-282 -330l291 -362h-117l-260 316v-316h-98v692h98v-299z" />
    <glyph glyph-name="uni041B" unicode="&#x41b;" horiz-adv-x="591" 
d="M205 237q-5 -115 -46 -178.5t-138 -63.5h-15v91h16q25 0 41 12t26 33t15 50t7 63l21 448h405v-692h-98v600h-218l-16 -363v0z" />
    <glyph glyph-name="uni041C" unicode="&#x41c;" horiz-adv-x="847" 
d="M470 0h-95l-229 563v-563h-92v692h142l229 -574l229 574h139v-692h-96v563z" />
    <glyph glyph-name="uni041D" unicode="&#x41d;" horiz-adv-x="635" 
d="M581 0h-98v312h-331v-312h-98v692h98v-287h331v287h98v-692z" />
    <glyph glyph-name="uni041E" unicode="&#x41e;" horiz-adv-x="762" 
d="M26 346q0 78 26.5 144t73.5 114t111.5 75t141.5 27q79 0 144.5 -27t112.5 -75t73 -114t26 -143t-26 -143t-73 -114t-112.5 -75.5t-143.5 -27.5t-143.5 26.5t-112 74.5t-72.5 114t-26 144zM129 346q0 -59 18.5 -108t51.5 -84.5t79 -55.5t102 -20q57 0 103.5 20t79.5 55.5
t51 84.5t18 108q0 58 -18.5 107.5t-51.5 85.5t-79.5 56t-102.5 20q-57 0 -103 -20t-79 -56t-51 -85.5t-18 -107.5z" />
    <glyph glyph-name="uni041F" unicode="&#x41f;" horiz-adv-x="625" 
d="M571 0h-98v600h-321v-600h-98v692h517v-692z" />
    <glyph glyph-name="uni0420" unicode="&#x420;" horiz-adv-x="456" 
d="M436 504q0 -46 -15 -82t-41.5 -61t-64 -38t-82.5 -13h-81v-310h-98v692h179q97 0 150 -47t53 -141zM152 606v-210h76q53 0 79.5 29t26.5 78q0 48 -26.5 75.5t-79.5 27.5h-76z" />
    <glyph glyph-name="uni0421" unicode="&#x421;" 
d="M611 78q-17 -17 -40 -33.5t-51.5 -29t-63 -20.5t-73.5 -8q-80 0 -146 27t-113 74.5t-72.5 113.5t-25.5 144t26 144t73 114t112 75t144 27q68 0 124.5 -21t98.5 -59l-58 -72q-30 26 -72 43.5t-93 17.5q-58 0 -104.5 -20t-79.5 -56t-50.5 -85.5t-17.5 -107.5
q0 -59 18.5 -108t52.5 -84.5t81 -55.5t103 -20q59 0 101 22t69 46z" />
    <glyph glyph-name="uni0422" unicode="&#x422;" horiz-adv-x="416" 
d="M257 601v-601h-98v601h-142v91h382v-91h-142z" />
    <glyph glyph-name="uni0423" unicode="&#x423;" horiz-adv-x="584" 
d="M248 184l-254 508h109l198 -396l185 396h104l-330 -692h-98z" />
    <glyph glyph-name="uni0424" unicode="&#x424;" horiz-adv-x="717" 
d="M408 636q64 -2 118 -20t92 -49.5t59.5 -76.5t21.5 -100q0 -56 -22 -101t-61 -77t-92 -50t-116 -19v-163h-98v163q-65 2 -118.5 19.5t-92 49t-59.5 76t-21 100.5t22 101t60.5 77t92 50t116.5 20v76h98v-76zM121 389q0 -36 14 -64.5t39 -48.5t59.5 -31t76.5 -12v312
q-85 -3 -137 -43.5t-52 -112.5zM597 389q0 36 -14 64.5t-39 48.5t-60 31t-76 12v-312q84 3 136.5 43.5t52.5 112.5z" />
    <glyph glyph-name="uni0425" unicode="&#x425;" horiz-adv-x="613" 
d="M248 360l-234 332h120l175 -249l173 249h116l-232 -333l249 -359h-113l-197 277l-196 -277h-110z" />
    <glyph glyph-name="uni0426" unicode="&#x426;" horiz-adv-x="654" 
d="M473 692h98v-600h77v-232h-92v140h-502v692h98v-600h321v600z" />
    <glyph glyph-name="uni0427" unicode="&#x427;" horiz-adv-x="520" 
d="M466 0h-98v302q-15 -4 -33 -7q-16 -2 -37 -4t-44 -2q-102 0 -155.5 52.5t-53.5 155.5v195h98v-193q0 -57 28.5 -87.5t86.5 -30.5q23 0 43.5 2t35.5 4q18 3 31 7v298h98v-692z" />
    <glyph glyph-name="uni0428" unicode="&#x428;" horiz-adv-x="938" 
d="M54 0v692h98v-600h268v600h98v-600h268v600h98v-692h-830z" />
    <glyph glyph-name="uni0429" unicode="&#x429;" horiz-adv-x="967" 
d="M961 92v-232h-91v140h-84v92h175zM54 0v692h98v-600h268v600h98v-600h268v600h98v-692h-830z" />
    <glyph glyph-name="uni042A" unicode="&#x42a;" horiz-adv-x="554" 
d="M218 601h-201v91h201v-91zM151 692h98v-274h71q98 0 155.5 -54.5t57.5 -155.5q0 -102 -57 -155t-156 -53h-169v692zM249 332v-246h66q58 0 87 32.5t29 89.5t-29.5 90.5t-86.5 33.5h-66z" />
    <glyph glyph-name="uni042B" unicode="&#x42b;" horiz-adv-x="662" 
d="M54 692h98v-274h71q98 0 155.5 -54.5t57.5 -155.5q0 -102 -57 -155t-156 -53h-169v692zM152 332v-246h66q58 0 87 32.5t29 89.5t-29.5 90.5t-86.5 33.5h-66zM608 0h-98v692h98v-692z" />
    <glyph glyph-name="uni042C" unicode="&#x42c;" horiz-adv-x="456" 
d="M54 692h98v-274h71q98 0 155.5 -54.5t57.5 -155.5q0 -102 -57 -155t-156 -53h-169v692zM152 332v-246h66q58 0 87 32.5t29 89.5t-29.5 90.5t-86.5 33.5h-66z" />
    <glyph glyph-name="uni042D" unicode="&#x42d;" 
d="M70 146q28 -24 69.5 -46t100.5 -22q54 0 99 16.5t78 47t53.5 73t25.5 94.5h-309v88h308q-14 100 -77 159t-172 59q-53 0 -96 -17t-73 -43l-57 71q42 38 99 59t127 21q79 0 143.5 -27t111 -75t72 -114t25.5 -144t-26 -144t-73 -113.5t-112.5 -74.5t-145.5 -27
q-39 0 -73.5 8t-63 20.5t-51.5 29t-40 33.5l57 68v0z" />
    <glyph glyph-name="uni042E" unicode="&#x42e;" horiz-adv-x="959" 
d="M932 347q0 -77 -25.5 -143t-71 -114t-109 -75.5t-139.5 -27.5q-72 0 -132.5 24t-105 67t-71.5 102.5t-33 131.5h-93v-312h-98v692h98v-287h96q9 66 38 121.5t73 95.5t102 62t125 22q76 0 140 -27t109.5 -75t71 -114t25.5 -143zM346 346q0 -59 17.5 -108t49.5 -84.5
t76.5 -55.5t98.5 -20t99 20t76.5 55.5t49 84.5t17.5 108q0 58 -17.5 107.5t-49.5 85.5t-77 56t-99 20t-98.5 -20t-76 -56t-49 -85.5t-17.5 -107.5z" />
    <glyph glyph-name="uni042F" unicode="&#x42f;" horiz-adv-x="498" 
d="M62 499q0 96 55 144.5t154 48.5h173v-692h-98v307h-81l-163 -307h-106l176 326q-58 25 -84 70t-26 103zM274 606q-55 0 -82.5 -28.5t-27.5 -79.5q0 -50 27 -79t80 -29h75v216h-72z" />
    <glyph glyph-name="uni0430" unicode="&#x430;" horiz-adv-x="459" 
d="M26 171q0 38 13 70.5t37 56t57.5 36.5t73.5 13q41 0 69 -11.5t42 -24.5v45q0 52 -23.5 80t-71.5 28q-49 0 -68.5 -26t-20.5 -59h-89q0 35 11.5 65t33.5 51.5t55.5 33.5t78.5 12q51 0 86.5 -14t58 -39.5t33 -62t10.5 -80.5v-345h-84v42q-19 -22 -48.5 -36t-72.5 -14
q-38 0 -71 12.5t-57.5 35.5t-38.5 56.5t-14 74.5zM118 171q0 -43 27.5 -72t72.5 -29q44 0 73 29t29 72q0 44 -29 72t-74 28t-72 -28.5t-27 -71.5z" />
    <glyph glyph-name="uni0431" unicode="&#x431;" horiz-adv-x="609" 
d="M33 275v50t1 41.5t2.5 38.5t3.5 42q5 55 19 99.5t44.5 77.5t81 54t128.5 30l240 28v-87l-238 -28q-51 -6 -85 -18t-55 -33t-31.5 -53.5t-14.5 -80.5q33 44 83 64t104 20q57 0 106.5 -19.5t86 -54.5t57 -83.5t20.5 -106.5q0 -57 -21 -106t-58.5 -84t-88 -55t-110.5 -20
t-110.5 19.5t-87 56t-57 89.5t-20.5 119zM129 255q0 -39 13.5 -72t37.5 -56.5t57 -36.5t72 -13q40 0 73 13t57 37t37.5 56.5t13.5 71.5t-13.5 71.5t-37.5 56.5t-57 37.5t-73 13.5t-73 -13.5t-57 -37t-37 -56.5t-13 -72z" />
    <glyph glyph-name="uni0432" unicode="&#x432;" horiz-adv-x="446" 
d="M49 535h171q86 0 133.5 -36t47.5 -105q0 -42 -21.5 -71t-53.5 -44q39 -13 66 -44t27 -82q0 -72 -51.5 -112.5t-140.5 -40.5h-178v535zM144 458v-147h66q45 0 68.5 19.5t23.5 55.5q0 35 -23 53.5t-69 18.5h-66zM144 238v-161h75q51 0 76 22t25 58q0 37 -25 59t-76 22h-75z
" />
    <glyph glyph-name="uni0433" unicode="&#x433;" horiz-adv-x="378" 
d="M49 535h307v-87h-212v-448h-95v535z" />
    <glyph glyph-name="uni0434" unicode="&#x434;" horiz-adv-x="502" 
d="M87 535h346v-448h69v-227h-87v140h-329v-140h-86v227h9q19 0 32 6t20.5 22t11 43.5t4.5 70.5zM338 448h-164l-6 -216q-2 -46 -7 -82t-16 -63h193v361z" />
    <glyph glyph-name="uni0435" unicode="&#x435;" horiz-adv-x="567" 
d="M122 239q5 -76 51 -119.5t122 -43.5q64 0 102.5 29t64.5 77l73 -38q-13 -31 -34.5 -58.5t-51.5 -48.5t-68.5 -33.5t-85.5 -12.5q-60 0 -110 19.5t-86 55.5t-55.5 86.5t-19.5 113.5q0 61 19.5 112t54 88t82.5 57.5t105 20.5q59 0 107 -18.5t82 -52.5t53 -82.5t20 -108.5
v-19.5t-2 -23.5h-423zM284 462q-66 0 -108 -39t-51 -107h323q-5 66 -49.5 106t-114.5 40z" />
    <glyph glyph-name="uni0436" unicode="&#x436;" horiz-adv-x="688" 
d="M119 535l176 -226v226h95v-226l176 226h114l-200 -250l209 -285h-116l-183 251v-251h-95v251l-182 -251h-114l207 283l-202 252h115z" />
    <glyph glyph-name="uni0437" unicode="&#x437;" horiz-adv-x="442" 
d="M414 158q0 -75 -50 -119.5t-141 -44.5q-53 0 -90 14t-60 38t-33.5 55.5t-10.5 66.5h94q1 -40 23.5 -68.5t75.5 -28.5q47 0 70 23.5t23 64.5q0 79 -98 79h-54v76h54q41 0 62 21t21 57q0 35 -22 55t-62 20q-42 0 -63 -23t-23 -64h-92q0 71 45.5 116.5t134.5 45.5
q87 0 133.5 -40.5t46.5 -107.5q0 -40 -18.5 -69t-48.5 -46q36 -14 59.5 -43.5t23.5 -77.5z" />
    <glyph glyph-name="uni0438" unicode="&#x438;" horiz-adv-x="486" 
d="M144 159l198 376h95v-535h-95v376l-198 -376h-95v535h95v-376z" />
    <glyph glyph-name="uni0439" unicode="&#x439;" horiz-adv-x="486" 
d="M144 159l198 376h95v-535h-95v376l-198 -376h-95v535h95v-376zM243 572q-39 0 -65.5 13t-42.5 33t-23 43.5t-7 43.5h74q0 -11 3.5 -22t10.5 -21t19.5 -16t30.5 -6t30 6t19.5 16t11 21t3.5 22h72q0 -21 -7 -44t-23 -43t-42 -33t-64 -13z" />
    <glyph glyph-name="uni043A" unicode="&#x43a;" horiz-adv-x="463" 
d="M236 286l227 -286h-117l-202 251v-251h-95v535h95v-226l196 226h115z" />
    <glyph glyph-name="uni043B" unicode="&#x43b;" horiz-adv-x="476" 
d="M91 535h337v-535h-96v448h-153l-8 -233q-2 -56 -9 -97.5t-24.5 -68.5t-48 -40.5t-79.5 -13.5h-5v87h6q20 0 33 6.5t21 22t11.5 42t5.5 67.5z" />
    <glyph glyph-name="uni043C" unicode="&#x43c;" horiz-adv-x="682" 
d="M139 403v-403h-90v535h139l155 -408l156 408h135v-535h-94v406l-158 -406h-85z" />
    <glyph glyph-name="uni043D" unicode="&#x43d;" horiz-adv-x="476" 
d="M144 324h188v211h95v-535h-95v237h-188v-237h-95v535h95v-211z" />
    <glyph glyph-name="uni043E" unicode="&#x43e;" horiz-adv-x="600" 
d="M120 267q0 -42 13.5 -76.5t37.5 -60t57 -39.5t72 -14q40 0 73 14t57 39.5t37 60t13 76.5q0 41 -13.5 76t-37.5 60.5t-57 40t-72 14.5q-40 0 -73 -14t-57 -39.5t-37 -60.5t-13 -77zM24 267q0 61 21 111.5t58 87.5t87.5 57.5t109.5 20.5q60 0 111 -20.5t87.5 -57.5
t57 -87.5t20.5 -110.5t-21 -111t-58 -87.5t-88 -57.5t-110 -21q-60 0 -110.5 20t-87 56.5t-57 87.5t-20.5 112z" />
    <glyph glyph-name="uni043F" unicode="&#x43f;" horiz-adv-x="473" 
d="M424 0h-95v448h-185v-448h-95v535h375v-535z" />
    <glyph glyph-name="uni0440" unicode="&#x440;" horiz-adv-x="621" 
d="M140 267q0 -42 13 -77t37 -60.5t57.5 -39.5t73.5 -14t73.5 14t57 39.5t36.5 60.5t13 77t-13 77t-37 60.5t-57 40t-73 14.5q-41 0 -74 -14.5t-57 -40t-37 -60.5t-13 -77zM144 -175h-95v710h91v-77q12 16 29.5 31.5t41 27.5t53 19.5t64.5 7.5q60 0 109.5 -20t85 -56.5
t55 -87.5t19.5 -112q0 -59 -19 -109.5t-54.5 -87.5t-86 -58.5t-113.5 -21.5q-35 0 -64 7.5t-51.5 18.5t-39 24.5t-25.5 24.5v-241z" />
    <glyph glyph-name="uni0441" unicode="&#x441;" horiz-adv-x="508" 
d="M299 77q27 0 48.5 6t38.5 15t30.5 19.5t23.5 20.5l56 -59q-12 -14 -30 -29.5t-42.5 -28.5t-56 -21.5t-69.5 -8.5q-62 0 -112.5 21t-86.5 58t-55.5 87.5t-19.5 109.5t20.5 109.5t57 88t86.5 58.5t109 21q39 0 71 -8t56.5 -20.5t42.5 -28t29 -29.5l-59 -60
q-21 23 -54.5 41.5t-84.5 18.5q-40 0 -72.5 -14.5t-56 -40t-36 -60.5t-12.5 -76q0 -43 13.5 -78t37.5 -60t56.5 -38.5t70.5 -13.5z" />
    <glyph glyph-name="uni0442" unicode="&#x442;" horiz-adv-x="397" 
d="M375 535v-87h-129v-448h-95v448h-129v87h353z" />
    <glyph glyph-name="uni0443" unicode="&#x443;" horiz-adv-x="513" 
d="M143 -175l71 185l-216 525h105l160 -398l152 398h99l-278 -710h-93z" />
    <glyph glyph-name="uni0444" unicode="&#x444;" horiz-adv-x="704" 
d="M400 544q61 -3 112.5 -23.5t89 -56.5t58.5 -85.5t21 -110.5t-21.5 -110.5t-59.5 -85.5t-89.5 -57t-110.5 -24v-166h-95v166q-61 3 -112.5 23.5t-89 56.5t-58.5 85.5t-21 110.5t21.5 110.5t59.5 85.5t89 57t111 24v187h95v-187zM120 267q0 -42 13.5 -76t38.5 -59t58.5 -39
t74.5 -16v381q-41 -2 -75 -16.5t-58.5 -39.5t-38 -59t-13.5 -76zM585 268q0 42 -14 76t-38.5 58.5t-58.5 39t-74 16.5v-381q41 2 75 17t58.5 39.5t38 59t13.5 75.5z" />
    <glyph glyph-name="uni0445" unicode="&#x445;" horiz-adv-x="520" 
d="M258 201l-153 -201h-106l206 275l-194 260h113l138 -183l138 183h108l-194 -258l206 -277h-109z" />
    <glyph glyph-name="uni0446" unicode="&#x446;" horiz-adv-x="492" 
d="M329 535h95v-448h68v-227h-86v140h-357v535h95v-448h185v448z" />
    <glyph glyph-name="uni0447" unicode="&#x447;" horiz-adv-x="452" 
d="M308 535h95v-535h-95v211q-9 -2 -21 -3q-21 -3 -59 -3q-97 0 -142 46t-45 146v138h95v-140q0 -51 22 -77.5t78 -26.5q36 0 54 3q11 1 18 3v238z" />
    <glyph glyph-name="uni0448" unicode="&#x448;" horiz-adv-x="698" 
d="M49 0v535h95v-448h157v448h96v-448h157v448h96v-535h-601z" />
    <glyph glyph-name="uni0449" unicode="&#x449;" horiz-adv-x="718" 
d="M718 87v-227h-86v140h-78v87h164zM49 0v535h95v-448h157v448h96v-448h157v448h96v-535h-601z" />
    <glyph glyph-name="uni044A" unicode="&#x44a;" horiz-adv-x="510" 
d="M202 535v-87h-180v87h180zM126 535h95v-192h61q95 0 150 -44t55 -126q0 -84 -54.5 -128.5t-149.5 -44.5h-157v535zM221 258v-173h62q53 0 79 23t26 66q0 39 -26.5 61.5t-78.5 22.5h-62z" />
    <glyph glyph-name="uni044B" unicode="&#x44b;" horiz-adv-x="617" 
d="M49 535h95v-192h61q95 0 150 -44t55 -126q0 -84 -54.5 -128.5t-149.5 -44.5h-157v535zM144 258v-173h62q53 0 79 23t26 66q0 39 -26.5 61.5t-78.5 22.5h-62zM569 0h-95v535h95v-535z" />
    <glyph glyph-name="uni044C" unicode="&#x44c;" horiz-adv-x="433" 
d="M49 535h95v-192h61q95 0 150 -44t55 -126q0 -84 -54.5 -128.5t-149.5 -44.5h-157v535zM144 258v-173h62q53 0 79 23t26 66q0 39 -26.5 61.5t-78.5 22.5h-62z" />
    <glyph glyph-name="uni044D" unicode="&#x44d;" horiz-adv-x="508" 
d="M209 77q69 0 117.5 41t59.5 113h-230v83h229q-12 66 -57 105t-117 39q-51 0 -85 -17.5t-57 -43.5l-56 62q11 14 28.5 29t42 27.5t56 20.5t70.5 8q60 0 110.5 -21t87 -58.5t56.5 -88t20 -109.5q0 -58 -20 -108.5t-56 -87.5t-86.5 -58.5t-112.5 -21.5q-38 0 -69 8t-55.5 21
t-43 28.5t-30.5 29.5l56 62q24 -25 57.5 -44t84.5 -19z" />
    <glyph glyph-name="uni044E" unicode="&#x44e;" horiz-adv-x="779" 
d="M144 324h74q9 49 32.5 89.5t58.5 69.5t79.5 45t95.5 16q59 0 109 -20.5t86 -57.5t56 -87.5t20 -110.5t-20.5 -111t-57 -87.5t-86.5 -57.5t-108 -21q-55 0 -102 18t-82.5 50t-57.5 77.5t-27 100.5h-70v-237h-95v535h95v-211zM309 267q0 -42 13 -76.5t36 -60t55.5 -39.5
t70.5 -14q39 0 71 14t55 39.5t36 60t13 76.5q0 41 -13 76t-36.5 60.5t-55.5 40t-70 14.5q-39 0 -71 -14t-55.5 -39.5t-36 -60.5t-12.5 -77z" />
    <glyph glyph-name="uni044F" unicode="&#x44f;" horiz-adv-x="456" 
d="M407 0h-95v201h-73l-130 -201h-104l143 220q-54 19 -80.5 56.5t-26.5 89.5q0 82 52.5 125.5t148.5 43.5h165v-535zM312 283v167h-70q-51 0 -77 -22.5t-26 -62.5q0 -38 25.5 -60t75.5 -22h72z" />
    <glyph glyph-name="uni0451" unicode="&#x451;" horiz-adv-x="567" 
d="M122 239q5 -76 51 -119.5t122 -43.5q64 0 102.5 29t64.5 77l73 -38q-13 -31 -34.5 -58.5t-51.5 -48.5t-68.5 -33.5t-85.5 -12.5q-60 0 -110 19.5t-86 55.5t-55.5 86.5t-19.5 113.5q0 61 19.5 112t54 88t82.5 57.5t105 20.5q59 0 107 -18.5t82 -52.5t53 -82.5t20 -108.5
v-19.5t-2 -23.5h-423zM284 462q-66 0 -108 -39t-51 -107h323q-5 66 -49.5 106t-114.5 40zM199 590q-25 0 -42 17t-17 42t17 42t42 17q26 0 43.5 -17t17.5 -42t-18 -42t-43 -17zM370 590q-26 0 -43 17t-17 42t17 42t43 17q25 0 42.5 -17t17.5 -42t-18 -42t-42 -17z" />
    <glyph glyph-name="uni0452" unicode="&#x452;" horiz-adv-x="486" 
d="M151 485q12 18 41 37t79 19q46 0 78 -15t52 -40.5t29 -59.5t9 -73v-364q0 -37 -7.5 -67.5t-25.5 -52t-47.5 -33t-72.5 -11.5h-31v82h22q22 0 35 6.5t20 17.5t9.5 25.5t2.5 31.5v355q0 54 -23.5 83.5t-71.5 29.5t-73 -31.5t-25 -84.5v-340h-95v591h-52v71h52v69h95v-69
h121v-71h-121v-106v0z" />
    <glyph glyph-name="uni0453" unicode="&#x453;" horiz-adv-x="378" 
d="M49 535h307v-87h-212v-448h-95v535zM318 714l-80 -135h-92l78 135h94z" />
    <glyph glyph-name="uni0454" unicode="&#x454;" horiz-adv-x="508" 
d="M299 77q51 0 84.5 18.5t57.5 43.5l55 -61q-12 -14 -30.5 -29.5t-43 -28.5t-56 -21t-68.5 -8q-62 0 -112.5 21t-86.5 58t-55.5 87.5t-19.5 109.5t20.5 109.5t57 88t86.5 58.5t109 21q39 0 71 -8t56.5 -20.5t42 -27.5t28.5 -29l-58 -62q-23 25 -56.5 43t-82.5 18
q-69 0 -115 -40t-59 -104h227v-83h-229q6 -35 22 -63.5t39.5 -48.5t53 -31t62.5 -11z" />
    <glyph glyph-name="uni0455" unicode="&#x455;" horiz-adv-x="399" 
d="M124 401q0 -49 54 -68q21 -8 42 -13t43 -13q56 -20 86 -54.5t30 -99.5q0 -39 -14.5 -69t-39 -50t-57.5 -30t-70 -10q-51 0 -85.5 14t-55.5 38t-30 55.5t-8 66.5h92q0 -20 4.5 -37.5t15 -30.5t27 -21t42.5 -8q35 -1 60.5 18t25.5 55q0 33 -16 50t-46 28q-23 8 -46 14
t-49 17q-53 23 -75 58.5t-22 83.5q0 33 12.5 60t35 46t53 29.5t67.5 10.5q84 0 124.5 -44.5t41.5 -117.5h-88q-2 41 -21.5 64.5t-58.5 23.5q-34 0 -54 -17.5t-20 -48.5z" />
    <glyph glyph-name="uni0456" unicode="&#x456;" horiz-adv-x="192" 
d="M144 0h-95v535h95v-535zM96 587q-26 0 -44.5 18.5t-18.5 44.5q0 27 18.5 45t44.5 18t45 -18t19 -45q0 -26 -19 -44.5t-45 -18.5z" />
    <glyph glyph-name="uni0457" unicode="&#x457;" horiz-adv-x="192" 
d="M89 651q0 -21 -3 -32.5t-8 -18.5q-10 -13 -27 -13q-18 0 -29 14q-5 7 -7.5 18.5t-2.5 31.5q0 35 8 47q10 15 31 15q20 0 28 -14q5 -7 7.5 -17.5t2.5 -30.5zM180 651q0 -21 -3 -32.5t-8 -18.5q-10 -13 -27 -13q-18 0 -29 14q-5 7 -7.5 18.5t-2.5 31.5q0 19 2 29.5t6 17.5
q10 15 31 15q19 0 29 -14q5 -7 7 -17.5t2 -30.5zM144 0h-95v535h95v-535z" />
    <glyph glyph-name="uni0458" unicode="&#x458;" horiz-adv-x="194" 
d="M145 -11q0 -37 -7.5 -67.5t-25.5 -52t-47.5 -33t-72.5 -11.5h-31v82h22q22 0 35 6.5t20 17.5t9.5 25.5t2.5 31.5v547h95v-546zM97 587q-26 0 -44.5 18.5t-18.5 44.5q0 27 18.5 45t44.5 18t45 -18t19 -45q0 -26 -19 -44.5t-45 -18.5z" />
    <glyph glyph-name="uni0459" unicode="&#x459;" horiz-adv-x="710" 
d="M91 535h330v-192h62q95 0 149.5 -44t54.5 -126q0 -84 -54.5 -128.5t-149.5 -44.5h-157v448h-147l-8 -233q-2 -56 -9 -97.5t-24.5 -68.5t-48 -40.5t-79.5 -13.5h-5v87h6q20 0 33 6.5t21 22t11.5 42t5.5 67.5zM421 258v-173h62q54 0 80 23t26 66q0 39 -27 61.5t-79 22.5
h-62z" />
    <glyph glyph-name="uni045A" unicode="&#x45a;" horiz-adv-x="706" 
d="M326 248h-182v-248h-95v535h95v-201h182v201h95v-200h61q94 0 147.5 -42.5t53.5 -122.5q0 -82 -53.5 -126t-146.5 -44h-157v248zM421 250v-165h62q51 0 76.5 22t25.5 63q0 37 -25.5 58.5t-76.5 21.5h-62z" />
    <glyph glyph-name="uni045B" unicode="&#x45b;" horiz-adv-x="486" 
d="M4 662h51v69h95v-69h122v-71h-122v-106q12 18 41.5 37t79.5 19q46 0 77.5 -15t51.5 -40.5t29 -59.5t9 -73v-353h-95v343q0 54 -23 83.5t-72 29.5q-48 0 -73 -31.5t-25 -84.5v-340h-95v591h-51v71z" />
    <glyph glyph-name="uni045C" unicode="&#x45c;" horiz-adv-x="463" 
d="M356 714l-80 -135h-92l78 135h94zM236 286l227 -286h-117l-202 251v-251h-95v535h95v-226l196 226h115z" />
    <glyph glyph-name="uni045E" unicode="&#x45e;" horiz-adv-x="513" 
d="M143 -175l71 185l-216 525h105l160 -398l152 398h99l-278 -710h-93zM264 580q-39 0 -65.5 13t-42.5 33t-23 43.5t-7 43.5h74q0 -11 3.5 -22t10.5 -21t19.5 -16t30.5 -6t30 6t19.5 16t11 21t3.5 22h72q0 -21 -7 -44t-23 -43t-42 -33t-64 -13z" />
    <glyph glyph-name="uni045F" unicode="&#x45f;" horiz-adv-x="471" 
d="M192 0h-143v535h95v-448h185v448h95v-535h-146v-140h-86v140z" />
    <glyph glyph-name="uni0490" unicode="&#x490;" horiz-adv-x="380" 
d="M357 832v-231h-91v231h91zM152 0h-98v692h303v-91h-205v-601z" />
    <glyph glyph-name="uni0491" unicode="&#x491;" horiz-adv-x="378" 
d="M270 675h86v-227h-86v227zM49 535h307v-87h-212v-448h-95v535z" />
    <glyph glyph-name="uni0492" unicode="&#x492;" horiz-adv-x="391" 
d="M9 390h278v-75h-278v75zM164 0h-98v692h303v-91h-205v-601z" />
    <glyph glyph-name="uni0493" unicode="&#x493;" horiz-adv-x="394" 
d="M288 298v-71h-283v71h283zM65 535h307v-87h-212v-448h-95v535z" />
    <glyph glyph-name="uni0496" unicode="&#x496;" horiz-adv-x="804" 
d="M823 92v-232h-91v140h-43v92h134zM352 692h98v-298l231 298h116l-263 -333l273 -359h-118l-239 316v-316h-98v316l-240 -316h-115l271 356l-266 336h118l232 -298v298z" />
    <glyph glyph-name="uni0497" unicode="&#x497;" horiz-adv-x="699" 
d="M708 87v-227h-86v140h-49v87h135zM119 535l176 -226v226h95v-226l176 226h114l-200 -250l209 -285h-116l-183 251v-251h-95v251l-182 -251h-114l207 283l-202 252h115z" />
    <glyph glyph-name="uni0498" unicode="&#x498;" horiz-adv-x="482" 
d="M288 58v-198h-91v198h91zM241 -11q-61 0 -102.5 17.5t-66.5 46t-35.5 64.5t-9.5 72h93q1 -23 8.5 -44t22.5 -37t37.5 -25t52.5 -9q29 0 50.5 10t36 26.5t21.5 38.5t7 47q0 54 -31 85.5t-100 31.5h-56v86h59q56 0 84 29.5t28 80.5t-26.5 80t-77.5 29q-29 0 -50 -9
t-34.5 -25t-20.5 -37t-7 -45h-93q-1 36 8.5 71.5t33.5 64t63.5 46.5t99.5 18q100 0 152.5 -51.5t52.5 -136.5q0 -54 -25.5 -93t-61.5 -57q47 -19 75.5 -60.5t28.5 -107.5q0 -47 -15.5 -85t-44 -65t-68.5 -42t-89 -15z" />
    <glyph glyph-name="uni0499" unicode="&#x499;" horiz-adv-x="442" 
d="M181 41h86v-181h-86v181zM414 158q0 -75 -50 -119.5t-141 -44.5q-53 0 -90 14t-60 38t-33.5 55.5t-10.5 66.5h94q1 -40 23.5 -68.5t75.5 -28.5q47 0 70 23.5t23 64.5q0 79 -98 79h-54v76h54q41 0 62 21t21 57q0 35 -22 55t-62 20q-42 0 -63 -23t-23 -64h-92
q0 71 45.5 116.5t134.5 45.5q87 0 133.5 -40.5t46.5 -107.5q0 -40 -18.5 -69t-48.5 -46q36 -14 59.5 -43.5t23.5 -77.5z" />
    <glyph glyph-name="uni049A" unicode="&#x49a;" horiz-adv-x="525" 
d="M548 92v-232h-91v140h-45v92h136zM152 393l251 299h117l-282 -330l291 -362h-117l-260 316v-316h-98v692h98v-299z" />
    <glyph glyph-name="uni049B" unicode="&#x49b;" horiz-adv-x="469" 
d="M483 87v-227h-87v140h-50v87h137zM236 286l227 -286h-117l-202 251v-251h-95v535h95v-226l196 226h115z" />
    <glyph glyph-name="uni049C" unicode="&#x49c;" horiz-adv-x="610" 
d="M152 0h-98v692h98v-692zM218 140v409h75v-155l202 298h109l-226 -331l237 -361h-113l-209 316v-176h-75z" />
    <glyph glyph-name="uni049D" unicode="&#x49d;" horiz-adv-x="544" 
d="M144 0h-95v535h95v-535zM201 94v355h67v-140l161 226h105l-176 -250l187 -285h-110l-167 251v-157h-67z" />
    <glyph glyph-name="uni04A0" unicode="&#x4a0;" horiz-adv-x="683" 
d="M258 601h-241v91h241v-91zM310 393l251 299h117l-282 -330l291 -362h-117l-260 316v-316h-98v692h98v-299z" />
    <glyph glyph-name="uni04A1" unicode="&#x4a1;" horiz-adv-x="575" 
d="M234 535v-87h-212v87h212zM349 286l227 -286h-117l-202 251v-251h-95v535h95v-226l196 226h115z" />
    <glyph glyph-name="uni04A2" unicode="&#x4a2;" horiz-adv-x="664" 
d="M658 92v-232h-92v140h-83v92h175zM581 0h-98v312h-331v-312h-98v692h98v-287h331v287h98v-692z" />
    <glyph glyph-name="uni04A3" unicode="&#x4a3;" horiz-adv-x="495" 
d="M495 87v-227h-86v140h-77v87h163zM144 324h188v211h95v-535h-95v237h-188v-237h-95v535h95v-211z" />
    <glyph glyph-name="uni04AA" unicode="&#x4aa;" 
d="M422 65v-205h-91v205h91zM611 78q-17 -17 -40 -33.5t-51.5 -29t-63 -20.5t-73.5 -8q-80 0 -146 27t-113 74.5t-72.5 113.5t-25.5 144t26 144t73 114t112 75t144 27q68 0 124.5 -21t98.5 -59l-58 -72q-30 26 -72 43.5t-93 17.5q-58 0 -104.5 -20t-79.5 -56t-50.5 -85.5
t-17.5 -107.5q0 -59 18.5 -108t52.5 -84.5t81 -55.5t103 -20q59 0 101 22t69 46z" />
    <glyph glyph-name="uni04AB" unicode="&#x4ab;" horiz-adv-x="508" 
d="M250 53h86v-193h-86v193zM299 77q27 0 48.5 6t38.5 15t30.5 19.5t23.5 20.5l56 -59q-12 -14 -30 -29.5t-42.5 -28.5t-56 -21.5t-69.5 -8.5q-62 0 -112.5 21t-86.5 58t-55.5 87.5t-19.5 109.5t20.5 109.5t57 88t86.5 58.5t109 21q39 0 71 -8t56.5 -20.5t42.5 -28t29 -29.5
l-59 -60q-21 23 -54.5 41.5t-84.5 18.5q-40 0 -72.5 -14.5t-56 -40t-36 -60.5t-12.5 -76q0 -43 13.5 -78t37.5 -60t56.5 -38.5t70.5 -13.5z" />
    <glyph glyph-name="uni04AE" unicode="&#x4ae;" horiz-adv-x="481" 
d="M-4 692h110l137 -241l137 241h105l-196 -336v-356h-98v355z" />
    <glyph glyph-name="uni04AF" unicode="&#x4af;" horiz-adv-x="512" 
d="M209 0l-211 535h106l156 -409l155 409h98l-209 -535v-175h-95v175z" />
    <glyph glyph-name="uni04B0" unicode="&#x4b0;" horiz-adv-x="481" 
d="M71 356h337v-76h-337v76zM-4 692h110l137 -241l137 241h105l-196 -336v-356h-98v355z" />
    <glyph glyph-name="uni04B1" unicode="&#x4b1;" horiz-adv-x="512" 
d="M414 0v-70h-314v70h314zM209 0l-211 535h106l156 -409l155 409h98l-209 -535v-175h-95v175z" />
    <glyph glyph-name="uni04B2" unicode="&#x4b2;" horiz-adv-x="613" 
d="M634 92v-232h-91v140h-41v92h132zM248 360l-234 332h120l175 -249l173 249h116l-232 -333l249 -359h-113l-197 277l-196 -277h-110z" />
    <glyph glyph-name="uni04B3" unicode="&#x4b3;" horiz-adv-x="526" 
d="M543 87v-227h-86v140h-45v87h131zM258 201l-153 -201h-106l206 275l-194 260h113l138 -183l138 183h108l-194 -258l206 -277h-109z" />
    <glyph glyph-name="uni04B6" unicode="&#x4b6;" horiz-adv-x="549" 
d="M543 92v-232h-91v140h-84v92h175zM466 0h-98v302q-15 -4 -33 -7q-16 -2 -37 -4t-44 -2q-102 0 -155.5 52.5t-53.5 155.5v195h98v-193q0 -57 28.5 -87.5t86.5 -30.5q23 0 43.5 2t35.5 4q18 3 31 7v298h98v-692z" />
    <glyph glyph-name="uni04B7" unicode="&#x4b7;" horiz-adv-x="471" 
d="M471 87v-227h-86v140h-77v87h163zM308 535h95v-535h-95v211q-9 -2 -21 -3q-21 -3 -59 -3q-97 0 -142 46t-45 146v138h95v-140q0 -51 22 -77.5t78 -26.5q36 0 54 3q11 1 18 3v238z" />
    <glyph glyph-name="uni04B8" unicode="&#x4b8;" horiz-adv-x="566" 
d="M243 140v152q-95 10 -146.5 62.5t-51.5 152.5v185h98v-185q0 -55 23.5 -85.5t76.5 -38.5v160h76v-162q21 1 38.5 3t30.5 4q15 3 26 5v299h98v-692h-98v303q-11 -2 -26 -5q-13 -2 -30.5 -4t-38.5 -3v-151h-76z" />
    <glyph glyph-name="uni04B9" unicode="&#x4b9;" horiz-adv-x="511" 
d="M217 88v117q-92 5 -134 50t-42 138v142h95v-140q0 -46 18 -72t63 -31v128h71v-127q35 2 55 6t24 6v230h95v-535h-95v219q-4 -2 -24 -6t-55 -6v-119h-71z" />
    <glyph glyph-name="uni04BA" unicode="&#x4ba;" horiz-adv-x="520" 
d="M54.0283 692h97.9941v-301.981q14.999 4 32.998 6.99902q15.999 2 36.998 4q20.998 2 43.9971 2q101.994 0 155.49 -52.4971q53.4971 -52.4961 53.4971 -155.49v-194.988h-97.9941v192.988q0 56.9971 -28.498 87.4951q-28.499 30.498 -86.4951 30.498
q-22.998 0 -43.4971 -2t-35.498 -4q-17.999 -3 -30.998 -6.99902v-297.982h-97.9941v691.958z" />
    <glyph glyph-name="uni04BB" unicode="&#x4bb;" horiz-adv-x="479" 
d="M337 343q0 54 -23 83.5t-72 29.5q-48 0 -73 -31.5t-25 -84.5v-340h-95v731h95v-246q12 18 41.5 37t79.5 19q46 0 77.5 -15t51.5 -40.5t29 -59.5t9 -73v-353h-95v343z" />
    <glyph glyph-name="uni04C0" unicode="&#x4c0;" horiz-adv-x="206" 
d="M152 0h-98v692h98v-692z" />
    <glyph glyph-name="uni04C1" unicode="&#x4c1;" horiz-adv-x="802" 
d="M352 692h98v-298l231 298h116l-263 -333l273 -359h-118l-239 316v-316h-98v316l-240 -316h-115l271 356l-266 336h118l232 -298v298zM401 730q-39 0 -65.5 12.5t-42.5 31.5t-23.5 41t-7.5 42h76q0 -9 3.5 -19t10.5 -18.5t19 -14t30 -5.5t30 5.5t19 14t10.5 18.5t3.5 19
h74q0 -20 -7.5 -42.5t-23.5 -41t-42.5 -31t-63.5 -12.5z" />
    <glyph glyph-name="uni04C2" unicode="&#x4c2;" horiz-adv-x="688" 
d="M119 535l176 -226v226h95v-226l176 226h114l-200 -250l209 -285h-116l-183 251v-251h-95v251l-182 -251h-114l207 283l-202 252h115zM344 572q-39 0 -65.5 13t-42.5 33t-23 43.5t-7 43.5h74q0 -11 3.5 -22t10.5 -21t19.5 -16t30.5 -6t30 6t19.5 16t11 21t3.5 22h72
q0 -21 -7 -44t-23 -43t-42 -33t-64 -13z" />
    <glyph glyph-name="uni04CF" unicode="&#x4cf;" horiz-adv-x="192" 
d="M144 0h-95v731h95v-731z" />
    <glyph glyph-name="uni04D0" unicode="&#x4d0;" horiz-adv-x="631" 
d="M441 228h-260l-86 -228h-97l260 692h103l272 -692h-103zM212 312h196l-99 255zM308 730q-39 0 -65.5 12.5t-42.5 31.5t-23.5 41t-7.5 42h76q0 -9 3.5 -19t10.5 -18.5t19 -14t30 -5.5t30 5.5t19 14t10.5 18.5t3.5 19h74q0 -20 -7.5 -42.5t-23.5 -41t-42.5 -31t-63.5 -12.5
z" />
    <glyph glyph-name="uni04D1" unicode="&#x4d1;" horiz-adv-x="459" 
d="M26 171q0 38 13 70.5t37 56t57.5 36.5t73.5 13q41 0 69 -11.5t42 -24.5v45q0 52 -23.5 80t-71.5 28q-49 0 -68.5 -26t-20.5 -59h-89q0 35 11.5 65t33.5 51.5t55.5 33.5t78.5 12q51 0 86.5 -14t58 -39.5t33 -62t10.5 -80.5v-345h-84v42q-19 -22 -48.5 -36t-72.5 -14
q-38 0 -71 12.5t-57.5 35.5t-38.5 56.5t-14 74.5zM118 171q0 -43 27.5 -72t72.5 -29q44 0 73 29t29 72q0 44 -29 72t-74 28t-72 -28.5t-27 -71.5zM223 571q-39 0 -65.5 13t-42.5 33t-23 43.5t-7 43.5h74q0 -11 3.5 -22t10.5 -21t19.5 -16t30.5 -6t30 6t19.5 16t11 21t3.5 22
h72q0 -21 -7 -44t-23 -43t-42 -33t-64 -13z" />
    <glyph glyph-name="uni04D6" unicode="&#x4d6;" horiz-adv-x="393" 
d="M54 0v692h301v-91h-203v-200h198v-90h-198v-220h206v-91h-304zM209 730q-39 0 -65.5 12.5t-42.5 31.5t-23.5 41t-7.5 42h76q0 -9 3.5 -19t10.5 -18.5t19 -14t30 -5.5t30 5.5t19 14t10.5 18.5t3.5 19h74q0 -20 -7.5 -42.5t-23.5 -41t-42.5 -31t-63.5 -12.5z" />
    <glyph glyph-name="uni04D7" unicode="&#x4d7;" horiz-adv-x="567" 
d="M122 239q5 -76 51 -119.5t122 -43.5q64 0 102.5 29t64.5 77l73 -38q-13 -31 -34.5 -58.5t-51.5 -48.5t-68.5 -33.5t-85.5 -12.5q-60 0 -110 19.5t-86 55.5t-55.5 86.5t-19.5 113.5q0 61 19.5 112t54 88t82.5 57.5t105 20.5q59 0 107 -18.5t82 -52.5t53 -82.5t20 -108.5
v-19.5t-2 -23.5h-423zM284 462q-66 0 -108 -39t-51 -107h323q-5 66 -49.5 106t-114.5 40zM286 571q-39 0 -65.5 13t-42.5 33t-23 43.5t-7 43.5h74q0 -11 3.5 -22t10.5 -21t19.5 -16t30.5 -6t30 6t19.5 16t11 21t3.5 22h72q0 -21 -7 -44t-23 -43t-42 -33t-64 -13z" />
    <glyph glyph-name="uni04D8" unicode="&#x4d8;" horiz-adv-x="710" 
d="M581 378q-5 54 -23.5 98t-50.5 74.5t-76 47.5t-98 17q-38 0 -68.5 -8t-55 -21.5t-43 -30t-33.5 -33.5l-68 64q19 23 45 45t59 38.5t74 26.5t90 10q80 0 145 -27t110.5 -75t70 -114t24.5 -144q0 -79 -23 -145t-65 -113.5t-102 -74t-135 -26.5q-85 0 -148.5 27t-104.5 77.5
t-60.5 123t-17.5 163.5h554zM354 77q48 0 87 15.5t67.5 44t46.5 68.5t24 89h-446q4 -47 19.5 -87t43 -69t67 -45t91.5 -16z" />
    <glyph glyph-name="uni04D9" unicode="&#x4d9;" horiz-adv-x="567" 
d="M448.008 296.015q-5 75.9951 -50.9971 119.492q-45.9971 43.498 -121.993 43.498q-63.9961 0 -102.493 -28.998q-38.498 -28.999 -64.4961 -76.9961l-72.9961 37.998q13 30.998 34.498 58.4961q21.499 27.499 51.4971 48.4971q29.998 20.999 68.4961 33.498
q38.4971 12.499 85.4941 12.499q59.9971 0 109.994 -19.498q49.9961 -19.499 85.9941 -55.4971t55.4971 -86.4941q19.499 -50.4971 19.499 -113.493q0 -60.9971 -19.499 -111.993q-19.499 -50.9971 -53.9971 -87.9951t-82.4951 -57.4961q-47.9971 -20.499 -104.993 -20.499
q-58.9961 0 -106.994 18.499q-47.9961 18.499 -81.9941 52.4971q-33.998 33.9971 -52.9971 82.4941t-19.999 108.494v19.498q0 11.5 2 23.499h422.975zM286.018 73.0283q65.9961 0 107.993 38.9971q41.9971 38.998 50.9971 106.994h-322.98q5 -65.9961 49.4971 -105.994
q44.4971 -39.9971 114.493 -39.9971z" />
    <glyph glyph-name="uni04E2" unicode="&#x4e2;" horiz-adv-x="645" 
d="M152 158l341 534h98v-692h-98v534l-341 -534h-98v692h98v-534zM202 818h240v-73h-240v73z" />
    <glyph glyph-name="uni04E3" unicode="&#x4e3;" horiz-adv-x="486" 
d="M144 159l198 376h95v-535h-95v376l-198 -376h-95v535h95v-376zM127 670h230v-73h-230v73z" />
    <glyph glyph-name="uni04E6" unicode="&#x4e6;" horiz-adv-x="762" 
d="M26 346q0 78 26.5 144t73.5 114t111.5 75t141.5 27q79 0 144.5 -27t112.5 -75t73 -114t26 -143t-26 -143t-73 -114t-112.5 -75.5t-143.5 -27.5t-143.5 26.5t-112 74.5t-72.5 114t-26 144zM129 346q0 -59 18.5 -108t51.5 -84.5t79 -55.5t102 -20q57 0 103.5 20t79.5 55.5
t51 84.5t18 108q0 58 -18.5 107.5t-51.5 85.5t-79.5 56t-102.5 20q-57 0 -103 -20t-79 -56t-51 -85.5t-18 -107.5zM287 736q-25 0 -42 16.5t-17 42.5q0 25 17 42t42 17q26 0 43.5 -17t17.5 -42q0 -26 -18 -42.5t-43 -16.5zM474 736q-25 0 -42 16.5t-17 42.5q0 25 17 42
t42 17q26 0 43.5 -17t17.5 -42q0 -26 -18 -42.5t-43 -16.5z" />
    <glyph glyph-name="uni04E7" unicode="&#x4e7;" horiz-adv-x="600" 
d="M120 267q0 -42 13.5 -76.5t37.5 -60t57 -39.5t72 -14q40 0 73 14t57 39.5t37 60t13 76.5q0 41 -13.5 76t-37.5 60.5t-57 40t-72 14.5q-40 0 -73 -14t-57 -39.5t-37 -60.5t-13 -77zM24 267q0 61 21 111.5t58 87.5t87.5 57.5t109.5 20.5q60 0 111 -20.5t87.5 -57.5
t57 -87.5t20.5 -110.5t-21 -111t-58 -87.5t-88 -57.5t-110 -21q-60 0 -110.5 20t-87 56.5t-57 87.5t-20.5 112zM213 590q-25 0 -42 17t-17 42t17 42t42 17q26 0 43.5 -17t17.5 -42t-18 -42t-43 -17zM384 590q-26 0 -43 17t-17 42t17 42t43 17q25 0 42.5 -17t17.5 -42
t-18 -42t-42 -17z" />
    <glyph glyph-name="uni04E8" unicode="&#x4e8;" horiz-adv-x="762" 
d="M26 346q0 78 26.5 144t73.5 114t111.5 75t141.5 27q79 0 144.5 -27t112.5 -75t73 -114t26 -143t-26 -143t-73 -114t-112.5 -75.5t-143.5 -27.5t-143.5 26.5t-112 74.5t-72.5 114t-26 144zM380 617q-51 0 -93 -16t-74.5 -45t-53.5 -69t-28 -89h500q-8 49 -29 89t-53.5 69
t-75.5 45t-93 16zM380 76q53 0 97 17t77 48t53.5 74t25.5 95h-504q5 -52 25.5 -95t53.5 -74t77 -48t95 -17z" />
    <glyph glyph-name="uni04E9" unicode="&#x4e9;" horiz-adv-x="600" 
d="M24 267q0 61 21 111.5t58.5 87.5t87.5 57.5t109 20.5q60 0 111 -20.5t87.5 -57.5t57 -87.5t20.5 -110.5t-21 -111t-58 -87.5t-88 -57.5t-110 -21q-60 0 -110.5 20t-87 56.5t-57 87.5t-20.5 112zM300 460q-69 0 -116 -40t-61 -104h354q-7 32 -23 58.5t-39 45.5t-52 29.5
t-63 10.5zM300 76q36 0 67 11.5t54.5 32.5t38.5 50.5t20 65.5h-360q5 -36 20 -65.5t38.5 -50.5t54.5 -32.5t67 -11.5z" />
    <glyph glyph-name="uni04EE" unicode="&#x4ee;" horiz-adv-x="584" 
d="M248 184l-254 508h109l198 -396l185 396h104l-330 -692h-98zM176 818h240v-73h-240v73z" />
    <glyph glyph-name="uni04EF" unicode="&#x4ef;" horiz-adv-x="513" 
d="M143 -175l71 185l-216 525h105l160 -398l152 398h99l-278 -710h-93zM148 661h230v-73h-230v73z" />
    <glyph glyph-name="uni04F2" unicode="&#x4f2;" horiz-adv-x="584" 
d="M248 184l-254 508h109l198 -396l185 396h104l-330 -692h-98zM327 855l-63 -126h-90l61 126h92zM478 855l-64 -126h-89l62 126h91z" />
    <glyph glyph-name="uni04F3" unicode="&#x4f3;" horiz-adv-x="513" 
d="M296 714l-65 -135h-89l62 135h92zM447 714l-67 -135h-88l64 135h91zM143 -175l71 185l-216 525h105l160 -398l152 398h99l-278 -710h-93z" />
    <glyph glyph-name="Wgrave" unicode="&#x1e80;" horiz-adv-x="981" 
d="M492 547l-170 -547h-107l-214 692h106l166 -558l168 558h106l168 -558l165 558h100l-211 -692h-108zM459 855l74 -126h-91l-78 126h95z" />
    <glyph glyph-name="wgrave" unicode="&#x1e81;" horiz-adv-x="830" 
d="M601 120l131 415h98l-174 -535h-105l-134 402l-135 -402h-105l-177 535h105l130 -415l132 415h103zM383 714l76 -135h-91l-79 135h94z" />
    <glyph glyph-name="Wacute" unicode="&#x1e82;" horiz-adv-x="981" 
d="M492 547l-170 -547h-107l-214 692h106l166 -558l168 558h106l168 -558l165 558h100l-211 -692h-108zM616 855l-78 -126h-93l75 126h96z" />
    <glyph glyph-name="wacute" unicode="&#x1e83;" horiz-adv-x="830" 
d="M601 120l131 415h98l-174 -535h-105l-134 402l-135 -402h-105l-177 535h105l130 -415l132 415h103zM547 714l-80 -135h-92l78 135h94z" />
    <glyph glyph-name="Wdieresis" unicode="&#x1e84;" horiz-adv-x="981" 
d="M492 547l-170 -547h-107l-214 692h106l166 -558l168 558h106l168 -558l165 558h100l-211 -692h-108zM398 736q-25 0 -42 16.5t-17 42.5q0 25 17 42t42 17q26 0 43.5 -17t17.5 -42q0 -26 -18 -42.5t-43 -16.5zM585 736q-25 0 -42 16.5t-17 42.5q0 25 17 42t42 17
q26 0 43.5 -17t17.5 -42q0 -26 -18 -42.5t-43 -16.5z" />
    <glyph glyph-name="wdieresis" unicode="&#x1e85;" horiz-adv-x="830" 
d="M601 120l131 415h98l-174 -535h-105l-134 402l-135 -402h-105l-177 535h105l130 -415l132 415h103zM330 590q-25 0 -42 17t-17 42t17 42t42 17q26 0 43.5 -17t17.5 -42t-18 -42t-43 -17zM501 590q-26 0 -43 17t-17 42t17 42t43 17q25 0 42.5 -17t17.5 -42t-18 -42
t-42 -17z" />
    <glyph glyph-name="Ygrave" unicode="&#x1ef2;" horiz-adv-x="481" 
d="M-4 692h110l137 -241l137 241h105l-196 -336v-356h-98v355zM217 855l74 -126h-91l-78 126h95z" />
    <glyph glyph-name="ygrave" unicode="&#x1ef3;" horiz-adv-x="512" 
d="M143 -175l71 185l-216 525h105l160 -398l152 398h99l-278 -710h-93zM237 714l76 -135h-91l-79 135h94z" />
    <glyph glyph-name="uni2009" unicode="&#x2009;" horiz-adv-x="15" 
 />
    <glyph glyph-name="uni20B4" unicode="&#x20b4;" horiz-adv-x="486" 
d="M475 394h-464v73h316q9 13 13 28t4 32q0 42 -24 68t-72 26q-52 0 -78 -30t-28 -75h-90q-1 36 9 70.5t33 60.5t61 42t94 16q44 0 80 -13t61 -36t38.5 -55t13.5 -70q0 -18 -4 -34.5t-9 -29.5h46v-73zM457 200q1 -42 -9.5 -80t-35.5 -67.5t-66 -47t-102 -17.5
q-48 0 -87.5 14.5t-67 40t-43 60t-15.5 75.5q0 20 3 37t8 30h-31v74h464v-74h-326q-18 -26 -18 -63q0 -54 32 -81.5t81 -27.5q32 0 54.5 10t37 27t21 40.5t6.5 49.5h94z" />
    <glyph glyph-name="uni20B8" unicode="&#x20b8;" horiz-adv-x="416" 
d="M399 618h-382v74h382v-74zM17 536h382v-91h-143v-445h-98v445h-141v91z" />
    <glyph glyph-name="uni20BD" unicode="&#x20bd;" horiz-adv-x="477" 
d="M75 0v161h-67v74h67v82h-67v74h67v301h178q98 0 151 -47t53 -140q0 -44 -15 -79t-41.5 -59t-64 -36.5t-82.5 -12.5h-82v-83h165v-74h-165v-161h-97zM172 396h76q53 0 80 29t27 78q0 48 -26.5 75.5t-80.5 27.5h-76v-210z" />
    <glyph glyph-name="uni2116" unicode="&#x2116;" horiz-adv-x="1039" 
d="M675 532q0 35 12.5 65.5t34.5 53t52.5 35.5t67.5 13q39 0 70.5 -13t54 -35.5t35 -53t12.5 -65.5t-12 -65t-34.5 -52t-54 -35t-69.5 -13t-69 12.5t-53 35t-34.5 52.5t-12.5 65zM754 533q0 -41 24.5 -68t66.5 -27q44 0 67.5 27.5t23.5 67.5q0 41 -24.5 67.5t-68.5 26.5
q-42 0 -65.5 -27t-23.5 -67zM692 318h306v-80h-306v80zM150 525v-525h-96v692h101l352 -531v531h96v-692h-99z" />
    <glyph glyph-name="onethird" unicode="&#x2153;" horiz-adv-x="691" 
d="M168 335h-75v289l-41 -17v64l47 21h69v-357zM472 213l78 81h-131v64h216v-62l-76 -79q17 -2 34 -8.5t30.5 -19.5t21.5 -32t8 -45q0 -54 -34.5 -87t-93.5 -33q-33 0 -56.5 9.5t-39 25.5t-23 37.5t-7.5 45.5h74q0 -25 13.5 -40t39.5 -15q23 0 37 15t14 40q0 26 -15.5 39
t-43.5 13h-46v51zM87 0h-82l516 692h82z" />
    <glyph glyph-name="twothirds" unicode="&#x2154;" horiz-adv-x="781" 
d="M33 335v58l126 120q20 19 30 35t10 36t-12 34t-34 14q-14 0 -23 -5t-14.5 -12.5t-7 -16.5t-1.5 -17h-73q-1 19 4.5 40t19.5 39t37 29.5t58 11.5q60 0 91.5 -32t31.5 -81q0 -35 -15 -59t-42 -50l-78 -78h139v-66h-247zM562 213l78 81h-131v64h216v-62l-76 -79
q17 -2 34 -8.5t30.5 -19.5t21.5 -32t8 -45q0 -54 -34.5 -87t-93.5 -33q-33 0 -56.5 9.5t-39 25.5t-23 37.5t-7.5 45.5h74q0 -25 13.5 -40t39.5 -15q23 0 37 15t14 40q0 26 -15.5 39t-43.5 13h-46v51zM177 0h-82l516 692h82z" />
    <glyph glyph-name="oneeighth" unicode="&#x215b;" horiz-adv-x="683" 
d="M168 335h-75v289l-41 -17v64l47 21h69v-357zM396 264q0 20 7.5 38.5t22 32.5t36.5 22.5t52 8.5q60 0 90 -30t30 -72q0 -28 -11 -48t-31 -31q49 -23 49 -84q0 -45 -32 -77t-95 -33q-63 1 -94 32.5t-31 76.5q0 28 12 50t36 35q-18 11 -29.5 30.5t-11.5 48.5zM469 259
q0 -20 13 -33.5t33 -13.5t33 13.5t13 33.5q0 21 -13 34.5t-33 13.5q-21 0 -33.5 -13.5t-12.5 -34.5zM464 103q0 -23 14 -38t37 -15q22 0 36.5 14.5t14.5 38.5q0 23 -14.5 37t-36.5 14q-23 0 -37 -14t-14 -37zM87 0h-82l516 692h82z" />
    <glyph glyph-name="threeeighths" unicode="&#x215c;" horiz-adv-x="759" 
d="M108 547l78 81h-131v64h216v-62l-76 -79q17 -2 34 -8.5t30.5 -19.5t21.5 -32t8 -45q0 -54 -34.5 -87t-93.5 -33q-33 0 -56.5 9.5t-39 25.5t-23 37.5t-7.5 45.5h74q0 -25 13.5 -40t39.5 -15q23 0 37 15t14 40q0 26 -15.5 39t-43.5 13h-46v51zM472 264q0 20 7.5 38.5
t22 32.5t36.5 22.5t52 8.5q60 0 90 -30t30 -72q0 -28 -11 -48t-31 -31q49 -23 49 -84q0 -45 -32 -77t-95 -33q-63 1 -94 32.5t-31 76.5q0 28 12 50t36 35q-18 11 -29.5 30.5t-11.5 48.5zM545 259q0 -20 13 -33.5t33 -13.5t33 13.5t13 33.5q0 21 -13 34.5t-33 13.5
q-21 0 -33.5 -13.5t-12.5 -34.5zM540 103q0 -23 14 -38t37 -15q22 0 36.5 14.5t14.5 38.5q0 23 -14.5 37t-36.5 14q-23 0 -37 -14t-14 -37zM162 0h-82l516 692h82z" />
    <glyph glyph-name="fiveeighths" unicode="&#x215d;" horiz-adv-x="763" 
d="M119 442q0 -23 11.5 -37t37.5 -14q23 0 35 15t12 38v15q0 50 -48 50q-18 0 -28 -7t-15 -15h-71v205h219v-64h-147v-75q7 7 22 13t38 6q53 0 79.5 -29.5t26.5 -82.5v-14q0 -53 -33 -86.5t-90 -33.5q-36 0 -59.5 10t-37.5 26.5t-20 37t-6 42.5h74zM476 264q0 20 7.5 38.5
t22 32.5t36.5 22.5t52 8.5q60 0 90 -30t30 -72q0 -28 -11 -48t-31 -31q49 -23 49 -84q0 -45 -32 -77t-95 -33q-63 1 -94 32.5t-31 76.5q0 28 12 50t36 35q-18 11 -29.5 30.5t-11.5 48.5zM549 259q0 -20 13 -33.5t33 -13.5t33 13.5t13 33.5q0 21 -13 34.5t-33 13.5
q-21 0 -33.5 -13.5t-12.5 -34.5zM544 103q0 -23 14 -38t37 -15q22 0 36.5 14.5t14.5 38.5q0 23 -14.5 37t-36.5 14q-23 0 -37 -14t-14 -37zM165 0h-82l516 692h82z" />
    <glyph glyph-name="seveneighths" unicode="&#x215e;" horiz-adv-x="694" 
d="M175 335h-81l101 289h-138v68h223v-55zM407 264q0 20 7.5 38.5t22 32.5t36.5 22.5t52 8.5q60 0 90 -30t30 -72q0 -28 -11 -48t-31 -31q49 -23 49 -84q0 -45 -32 -77t-95 -33q-63 1 -94 32.5t-31 76.5q0 28 12 50t36 35q-18 11 -29.5 30.5t-11.5 48.5zM480 259
q0 -20 13 -33.5t33 -13.5t33 13.5t13 33.5q0 21 -13 34.5t-33 13.5q-21 0 -33.5 -13.5t-12.5 -34.5zM475 103q0 -23 14 -38t37 -15q22 0 36.5 14.5t14.5 38.5q0 23 -14.5 37t-36.5 14q-23 0 -37 -14t-14 -37zM98 0h-82l516 692h82z" />
    <glyph glyph-name="minus" unicode="&#x2212;" horiz-adv-x="462" 
d="M24 377h415v-80h-415v80z" />
    <glyph glyph-name="uni24C5" unicode="&#x24c5;" horiz-adv-x="778" 
d="M532 424q0 -54 -33 -86.5t-89 -32.5h-44v-148h-75v381h118q61 0 92 -31.5t31 -82.5zM366 473v-103h30q58 0 58 52q0 51 -58 51h-30zM26 346q0 75 26.5 141t73.5 114.5t113 76.5t146 28q84 0 152 -27.5t116 -75.5t73.5 -113t25.5 -141t-25.5 -142t-72.5 -115t-114 -77
t-150 -28t-150 27.5t-114.5 76t-73.5 114t-26 141.5zM97 346q0 -63 20.5 -117.5t58.5 -94t92 -62.5t122 -23t122 22.5t91.5 62t57.5 94.5t20 120q0 64 -20 118.5t-58.5 94t-93.5 61.5t-124 22q-65 0 -118 -22.5t-91 -62.5t-58.5 -94.5t-20.5 -118.5z" />
    <glyph glyph-name="zero.den" unicode="&#xe402;" horiz-adv-x="307" 
d="M278 119q0 -55 -32 -91.5t-93 -36.5q-64 0 -94.5 35.5t-30.5 92.5v118q0 56 31 92.5t94 36.5t94 -36.5t31 -92.5v-118zM202 239q0 25 -12.5 40t-36.5 15t-36 -14.5t-12 -40.5v-122q0 -25 12 -39.5t36 -14.5t36.5 14.5t12.5 39.5v122z" />
    <glyph glyph-name="one.den" unicode="&#xe403;" horiz-adv-x="162" 
d="M125 0h-75v289l-41 -17v64l47 21h69v-357z" />
    <glyph glyph-name="two.den" unicode="&#xe404;" horiz-adv-x="281" 
d="M18 0v58l126 120q20 19 30 35t10 36t-12 34t-34 14q-14 0 -23 -5t-14.5 -12.5t-7 -16.5t-1.5 -17h-73q-1 19 4.5 40t19.5 39t37 29.5t58 11.5q60 0 91.5 -32t31.5 -81q0 -35 -15 -59t-42 -50l-78 -78h139v-66h-247z" />
    <glyph glyph-name="three.den" unicode="&#xe405;" horiz-adv-x="288" 
d="M87 213l78 81h-131v64h216v-62l-76 -79q17 -2 34 -8.5t30.5 -19.5t21.5 -32t8 -45q0 -54 -34.5 -87t-93.5 -33q-33 0 -56.5 9.5t-39 25.5t-23 37.5t-7.5 45.5h74q0 -25 13.5 -40t39.5 -15q23 0 37 15t14 40q0 26 -15.5 39t-43.5 13h-46v51z" />
    <glyph glyph-name="four.den" unicode="&#xe406;" horiz-adv-x="307" 
d="M253 93v-93h-73v93h-163v63l162 202h74v-199h41v-66h-41zM92 159h88v111z" />
    <glyph glyph-name="five.den" unicode="&#xe407;" horiz-adv-x="292" 
d="M99 107q0 -23 11.5 -37t37.5 -14q23 0 35 15t12 38v15q0 50 -48 50q-18 0 -28 -7t-15 -15h-71v205h219v-64h-147v-75q7 7 22 13t38 6q53 0 79.5 -29.5t26.5 -82.5v-14q0 -53 -33 -86.5t-90 -33.5q-36 0 -59.5 10t-37.5 26.5t-20 37t-6 42.5h74z" />
    <glyph glyph-name="six.den" unicode="&#xe408;" horiz-adv-x="297" 
d="M211 271q-7 10 -20 20t-36 10q-28 0 -40 -16.5t-12 -42.5v-23q8 8 24 14.5t38 6.5q54 0 83.5 -30.5t29.5 -82.5v-15q0 -52 -32.5 -86.5t-91.5 -34.5q-33 0 -57 10t-39 27t-22.5 39.5t-7.5 47.5v123q0 26 7.5 49t23.5 40.5t39.5 28t56.5 10.5q46 0 71 -16t36 -34zM103 111
q0 -23 12 -39t38 -16q24 0 37.5 15t13.5 40v15q0 23 -12.5 38t-37.5 15q-26 0 -38.5 -15.5t-12.5 -35.5v-17z" />
    <glyph glyph-name="seven.den" unicode="&#xe409;" horiz-adv-x="248" 
d="M129 0h-81l101 289h-138v68h223v-55z" />
    <glyph glyph-name="eight.den" unicode="&#xe40a;" horiz-adv-x="298" 
d="M30 264q0 20 7.5 38.5t22 32.5t36.5 22.5t52 8.5q60 0 90 -30t30 -72q0 -28 -11 -48t-31 -31q49 -23 49 -84q0 -45 -32 -77t-95 -33q-63 1 -94 32.5t-31 76.5q0 28 12 50t36 35q-18 11 -29.5 30.5t-11.5 48.5zM103 259q0 -20 13 -33.5t33 -13.5t33 13.5t13 33.5
q0 21 -13 34.5t-33 13.5q-21 0 -33.5 -13.5t-12.5 -34.5zM98 103q0 -23 14 -38t37 -15q22 0 36.5 14.5t14.5 38.5q0 23 -14.5 37t-36.5 14q-23 0 -37 -14t-14 -37z" />
    <glyph glyph-name="nine.den" unicode="&#xe40b;" horiz-adv-x="297" 
d="M86 86q7 -9 20.5 -19.5t35.5 -10.5q28 0 40.5 16.5t12.5 42.5v23q-8 -8 -23.5 -14.5t-35.5 -6.5q-55 0 -85.5 30.5t-30.5 83.5v15q0 52 32 86t92 34q33 0 56.5 -10t39 -26.5t22.5 -39.5t7 -48v-123q0 -26 -7.5 -49.5t-23 -41t-39.5 -27.5t-57 -10q-45 0 -70.5 16.5
t-36.5 33.5zM195 246q0 23 -12.5 39t-38.5 16q-24 0 -37.5 -15t-13.5 -40v-15q0 -23 13 -38t37 -15q26 0 39 15.5t13 35.5v17z" />
    <glyph glyph-name="zero.num" unicode="&#xe416;" horiz-adv-x="307" 
d="M278 454q0 -55 -32 -91.5t-93 -36.5q-64 0 -94.5 35.5t-30.5 92.5v118q0 56 31 92.5t94 36.5t94 -36.5t31 -92.5v-118zM202 574q0 25 -12.5 40t-36.5 15t-36 -14.5t-12 -40.5v-122q0 -25 12 -39.5t36 -14.5t36.5 14.5t12.5 39.5v122z" />
    <glyph glyph-name="one.num" unicode="&#xe417;" horiz-adv-x="162" 
d="M125 335h-75v289l-41 -17v64l47 21h69v-357z" />
    <glyph glyph-name="two.num" unicode="&#xe418;" horiz-adv-x="281" 
d="M18 335v58l126 120q20 19 30 35t10 36t-12 34t-34 14q-14 0 -23 -5t-14.5 -12.5t-7 -16.5t-1.5 -17h-73q-1 19 4.5 40t19.5 39t37 29.5t58 11.5q60 0 91.5 -32t31.5 -81q0 -35 -15 -59t-42 -50l-78 -78h139v-66h-247z" />
    <glyph glyph-name="three.num" unicode="&#xe419;" horiz-adv-x="288" 
d="M87 547l78 81h-131v64h216v-62l-76 -79q17 -2 34 -8.5t30.5 -19.5t21.5 -32t8 -45q0 -54 -34.5 -87t-93.5 -33q-33 0 -56.5 9.5t-39 25.5t-23 37.5t-7.5 45.5h74q0 -25 13.5 -40t39.5 -15q23 0 37 15t14 40q0 26 -15.5 39t-43.5 13h-46v51z" />
    <glyph glyph-name="four.num" unicode="&#xe41a;" horiz-adv-x="307" 
d="M253 427v-93h-73v93h-163v63l162 202h74v-199h41v-66h-41zM92 493h88v111z" />
    <glyph glyph-name="five.num" unicode="&#xe41b;" horiz-adv-x="292" 
d="M99 442q0 -23 11.5 -37t37.5 -14q23 0 35 15t12 38v15q0 50 -48 50q-18 0 -28 -7t-15 -15h-71v205h219v-64h-147v-75q7 7 22 13t38 6q53 0 79.5 -29.5t26.5 -82.5v-14q0 -53 -33 -86.5t-90 -33.5q-36 0 -59.5 10t-37.5 26.5t-20 37t-6 42.5h74z" />
    <glyph glyph-name="six.num" unicode="&#xe41c;" horiz-adv-x="297" 
d="M211 606q-7 10 -20 20t-36 10q-28 0 -40 -16.5t-12 -42.5v-23q8 8 24 14.5t38 6.5q54 0 83.5 -30.5t29.5 -82.5v-15q0 -52 -32.5 -86.5t-91.5 -34.5q-33 0 -57 10t-39 27t-22.5 39.5t-7.5 47.5v123q0 26 7.5 49t23.5 40.5t39.5 28t56.5 10.5q46 0 71 -16t36 -34zM103 446
q0 -23 12 -39t38 -16q24 0 37.5 15t13.5 40v15q0 23 -12.5 38t-37.5 15q-26 0 -38.5 -15.5t-12.5 -35.5v-17z" />
    <glyph glyph-name="seven.num" unicode="&#xe41d;" horiz-adv-x="248" 
d="M129 335h-81l101 289h-138v68h223v-55z" />
    <glyph glyph-name="eight.num" unicode="&#xe41e;" horiz-adv-x="298" 
d="M30 599q0 20 7.5 38.5t22 32.5t36.5 22.5t52 8.5q60 0 90 -30t30 -72q0 -28 -11 -48t-31 -31q49 -23 49 -84q0 -45 -32 -77t-95 -33q-63 1 -94 32.5t-31 76.5q0 28 12 50t36 35q-18 11 -29.5 30.5t-11.5 48.5zM103 594q0 -20 13 -33.5t33 -13.5t33 13.5t13 33.5
q0 21 -13 34.5t-33 13.5q-21 0 -33.5 -13.5t-12.5 -34.5zM98 438q0 -23 14 -38t37 -15q22 0 36.5 14.5t14.5 38.5q0 23 -14.5 37t-36.5 14q-23 0 -37 -14t-14 -37z" />
    <glyph glyph-name="nine.num" unicode="&#xe41f;" horiz-adv-x="297" 
d="M86 421q7 -9 20.5 -19.5t35.5 -10.5q28 0 40.5 16.5t12.5 42.5v23q-8 -8 -23.5 -14.5t-35.5 -6.5q-55 0 -85.5 30.5t-30.5 83.5v15q0 52 32 86t92 34q33 0 56.5 -10t39 -26.5t22.5 -39.5t7 -48v-123q0 -26 -7.5 -49.5t-23 -41t-39.5 -27.5t-57 -10q-45 0 -70.5 16.5
t-36.5 33.5zM195 581q0 23 -12.5 39t-38.5 16q-24 0 -37.5 -15t-13.5 -40v-15q0 -23 13 -38t37 -15q26 0 39 15.5t13 35.5v17z" />
    <glyph glyph-name="cyrbreve" unicode="&#xf6d4;" horiz-adv-x="402" 
d="M202 571q-39 0 -65.5 13t-42.5 33t-23 43.5t-7 43.5h74q0 -11 3.5 -22t10.5 -21t19.5 -16t30.5 -6t30 6t19.5 16t11 21t3.5 22h72q0 -21 -7 -44t-23 -43t-42 -33t-64 -13z" />
    <glyph glyph-name="hyphen.uc" horiz-adv-x="282" 
d="M36 368h211v-90h-211v90z" />
    <glyph glyph-name="uni0438.bgr" horiz-adv-x="474" 
d="M141 193q0 -54 22.5 -83.5t70.5 -29.5t72.5 31.5t24.5 84.5v339h96v-535h-95v49q-12 -19 -41 -37t-79 -18q-45 0 -76.5 14.5t-51.5 40t-29 59.5t-9 74v353h95v-342z" />
    <glyph glyph-name="a.alt" horiz-adv-x="621" 
d="M482 79q-9 -14 -25 -29t-39 -28.5t-53.5 -22t-67.5 -8.5q-60 0 -110.5 20t-86.5 56t-56 87t-20 113q0 60 20 110.5t56.5 87.5t86.5 58t110 21t109 -23.5t75 -58.5v73h91v-535h-90v79zM120 267q0 -42 13 -77t37 -60.5t57.5 -39.5t73.5 -14t73 14t57 39.5t37 60.5t13 77
t-13.5 77t-37.5 60.5t-57 40t-73 14.5t-73 -14.5t-57 -40t-37 -60.5t-13 -77z" />
    <glyph glyph-name="k.alt" horiz-adv-x="462" 
d="M451 0h-112l-194 215v-215h-95v731h95v-232q13 14 41 28.5t71 14.5q41 0 74 -13t56.5 -36.5t36 -55.5t12.5 -71q0 -37 -12 -67t-33 -52.5t-49.5 -35.5t-61.5 -16zM344 361q0 44 -27 73t-73 29q-45 0 -73.5 -28.5t-28.5 -73.5t28.5 -73t73.5 -28t72.5 29t27.5 72z" />
    <glyph glyph-name="uni0449.bgr" horiz-adv-x="768" 
d="M768 87v-227h-86v140h-77v87h163zM326 535h95v-343q0 -52 22 -82.5t68 -30.5q48 0 71 32.5t23 86.5v337h95v-535h-95v48q-6 -9 -16 -18.5t-24.5 -17.5t-34 -13t-44.5 -5q-53 0 -84.5 20.5t-47.5 50.5q-18 -29 -51 -50t-86 -21q-46 0 -79 14.5t-53 40t-29.5 59t-9.5 72.5
v355h95v-344q0 -52 22 -82t69 -30q46 0 69.5 31t24.5 81v344z" />
    <glyph glyph-name="uni0437.bgr" horiz-adv-x="471" 
d="M236 -183q-56 0 -97 17t-68 44.5t-40 63.5t-13 75h93q2 -48 32.5 -82t91.5 -34q29 0 51 10t37 27t22.5 40t7.5 49q0 58 -36 92.5t-102 34.5h-52v83h54q57 0 89 29.5t32 83.5q0 46 -28.5 77.5t-78.5 31.5q-56 0 -84 -32.5t-30 -82.5h-93q0 39 12.5 74.5t38 63.5t64.5 44.5
t92 16.5q46 0 83 -14.5t63 -40t40.5 -59.5t14.5 -74q0 -56 -26 -95t-64 -59q48 -20 77.5 -64.5t29.5 -109.5q0 -47 -15 -85.5t-43 -66t-67 -43t-88 -15.5z" />
    <glyph glyph-name="uni04F3.alt" horiz-adv-x="475" 
d="M269 714l-65 -135h-89l62 135h92zM420 714l-67 -135h-88l64 135h91zM91 -65q17 -9 50 -21.5t81 -12.5q54 0 83.5 26.5t29.5 72.5v45q-12 -19 -40 -35.5t-76 -16.5q-47 0 -80 15t-53.5 40.5t-29.5 60t-9 73.5v353h95v-342q0 -54 22 -83.5t70 -29.5t73 31.5t25 84.5v339h95
v-525q0 -43 -13 -78.5t-38.5 -61t-64 -39.5t-88.5 -14q-58 0 -98.5 13t-63.5 26z" />
    <glyph glyph-name="u.alt" horiz-adv-x="470" 
d="M423 535v-342q0 -43 -12 -79.5t-36 -63t-59 -41.5t-81 -15q-51 0 -87 15t-58.5 41.5t-32.5 63t-10 79.5v342h95v-339q0 -53 23 -83t70 -30t70 30t23 83v339h95z" />
    <glyph glyph-name="w.alt" horiz-adv-x="751" 
d="M704 535v-345q0 -43 -12 -79t-35.5 -62t-58.5 -40.5t-81 -14.5q-102 0 -143 66q-48 -66 -140 -66q-51 0 -86.5 14.5t-58 40.5t-32.5 62t-10 79v345h95v-339q0 -53 23 -83t70 -30q46 0 69 29t24 81v342h95v-342q1 -52 24 -81t69 -29q47 0 70 30t23 83v339h95z" />
    <glyph glyph-name="y.alt" horiz-adv-x="476" 
d="M91 -65q17 -9 50 -21.5t81 -12.5q54 0 83.5 26.5t29.5 72.5v45q-12 -19 -40 -35.5t-76 -16.5q-47 0 -80 15t-53.5 40.5t-29.5 60t-9 73.5v353h95v-342q0 -54 22 -83.5t70 -29.5t73 31.5t25 84.5v339h95v-525q0 -43 -13 -78.5t-38.5 -61t-64 -39.5t-88.5 -14
q-58 0 -98.5 13t-63.5 26z" />
    <glyph glyph-name="seven.tab" horiz-adv-x="504" 
d="M103 0l257 603h-334v89h445v-72l-260 -620h-108z" />
    <glyph glyph-name="aacute.alt" horiz-adv-x="621" 
d="M419 714l-80 -135h-92l78 135h94zM482 79q-9 -14 -25 -29t-39 -28.5t-53.5 -22t-67.5 -8.5q-60 0 -110.5 20t-86.5 56t-56 87t-20 113q0 60 20 110.5t56.5 87.5t86.5 58t110 21t109 -23.5t75 -58.5v73h91v-535h-90v79zM120 267q0 -42 13 -77t37 -60.5t57.5 -39.5
t73.5 -14t73 14t57 39.5t37 60.5t13 77t-13.5 77t-37.5 60.5t-57 40t-73 14.5t-73 -14.5t-57 -40t-37 -60.5t-13 -77z" />
    <glyph glyph-name="abreve.alt" horiz-adv-x="621" 
d="M302 571q-39 0 -65.5 13t-42.5 33t-23 43.5t-7 43.5h74q0 -11 3.5 -22t10.5 -21t19.5 -16t30.5 -6t30 6t19.5 16t11 21t3.5 22h72q0 -21 -7 -44t-23 -43t-42 -33t-64 -13zM482 79q-9 -14 -25 -29t-39 -28.5t-53.5 -22t-67.5 -8.5q-60 0 -110.5 20t-86.5 56t-56 87
t-20 113q0 60 20 110.5t56.5 87.5t86.5 58t110 21t109 -23.5t75 -58.5v73h91v-535h-90v79zM120 267q0 -42 13 -77t37 -60.5t57.5 -39.5t73.5 -14t73 14t57 39.5t37 60.5t13 77t-13.5 77t-37.5 60.5t-57 40t-73 14.5t-73 -14.5t-57 -40t-37 -60.5t-13 -77z" />
    <glyph glyph-name="uni0431.locl" horiz-adv-x="600" 
d="M576 256q0 -57 -21 -106t-58 -84t-88 -55t-110 -20q-60 0 -110.5 19.5t-87 54t-57 83t-20.5 106.5q0 74 35 134t110 95q-56 16 -82 44.5t-26 69.5q0 60 46.5 97t143.5 35q80 -1 151.5 1.5l126.5 4.5v-87q-53 -3 -118.5 -4.5t-157.5 -1.5q-56 0 -76.5 -12.5t-20.5 -39.5
q0 -20 15 -31.5t41 -19.5t60.5 -13.5l74.5 -11.5q42 -7 83 -25t73.5 -49t52.5 -76.5t20 -107.5zM120 255q0 -39 13.5 -71.5t37.5 -56.5t57 -37t72 -13q40 0 73 13t57 37t37 56.5t13 71.5t-13.5 71.5t-37.5 56.5t-57 37.5t-72 13.5q-40 0 -73 -13.5t-57 -37t-37 -56.5
t-13 -72z" />
    <glyph glyph-name="acircumflex.alt" horiz-adv-x="621" 
d="M351 715l102 -140h-87l-62 79l-62 -79h-87l101 140h95zM482 79q-9 -14 -25 -29t-39 -28.5t-53.5 -22t-67.5 -8.5q-60 0 -110.5 20t-86.5 56t-56 87t-20 113q0 60 20 110.5t56.5 87.5t86.5 58t110 21t109 -23.5t75 -58.5v73h91v-535h-90v79zM120 267q0 -42 13 -77
t37 -60.5t57.5 -39.5t73.5 -14t73 14t57 39.5t37 60.5t13 77t-13.5 77t-37.5 60.5t-57 40t-73 14.5t-73 -14.5t-57 -40t-37 -60.5t-13 -77z" />
    <glyph glyph-name="uni0433.alt" horiz-adv-x="398" 
d="M273 401q0 32 -20 49t-52 17q-38 0 -57 -23.5t-21 -63.5h-90q1 72 42 116.5t129 44.5q36 0 65.5 -10.5t51.5 -29t34 -45t12 -59.5q0 -51 -23 -85.5t-77 -57.5q-22 -10 -44.5 -16t-46.5 -14q-31 -11 -46.5 -28.5t-15.5 -51.5q0 -36 23.5 -54.5t58.5 -18.5q26 0 43 8
t27.5 21t15 30.5t4.5 37.5h93q0 -36 -9.5 -67.5t-31.5 -55.5t-57 -37.5t-86 -13.5q-37 0 -69 10.5t-56 30t-37.5 48.5t-13.5 65q0 62 29 98.5t86 56.5q23 8 44 13t43 14q26 10 39 26.5t13 44.5z" />
    <glyph glyph-name="minus.tab" horiz-adv-x="504" 
d="M45 377h415v-80h-415v80z" />
    <glyph glyph-name="adieresis.alt" horiz-adv-x="621" 
d="M215 590q-25 0 -42 17t-17 42t17 42t42 17q26 0 43.5 -17t17.5 -42t-18 -42t-43 -17zM386 590q-26 0 -43 17t-17 42t17 42t43 17q25 0 42.5 -17t17.5 -42t-18 -42t-42 -17zM482 79q-9 -14 -25 -29t-39 -28.5t-53.5 -22t-67.5 -8.5q-60 0 -110.5 20t-86.5 56t-56 87
t-20 113q0 60 20 110.5t56.5 87.5t86.5 58t110 21t109 -23.5t75 -58.5v73h91v-535h-90v79zM120 267q0 -42 13 -77t37 -60.5t57.5 -39.5t73.5 -14t73 14t57 39.5t37 60.5t13 77t-13.5 77t-37.5 60.5t-57 40t-73 14.5t-73 -14.5t-57 -40t-37 -60.5t-13 -77z" />
    <glyph glyph-name="uni0442.bgr" horiz-adv-x="750" 
d="M423 0h-95v343q0 52 -22 82.5t-68 30.5q-48 0 -71 -32.5t-23 -86.5v-337h-95v535h95v-48q6 9 16 18.5t24.5 17.5t34 13t44.5 5q53 0 84.5 -20.5t47.5 -50.5q18 29 51 50t86 21q46 0 79 -14.5t53 -40t29.5 -59t9.5 -72.5v-355h-95v344q0 52 -22 82t-69 30q-46 0 -69.5 -31
t-24.5 -81v-344z" />
    <glyph glyph-name="agrave.alt" horiz-adv-x="621" 
d="M280 714l76 -135h-91l-79 135h94zM482 79q-9 -14 -25 -29t-39 -28.5t-53.5 -22t-67.5 -8.5q-60 0 -110.5 20t-86.5 56t-56 87t-20 113q0 60 20 110.5t56.5 87.5t86.5 58t110 21t109 -23.5t75 -58.5v73h91v-535h-90v79zM120 267q0 -42 13 -77t37 -60.5t57.5 -39.5
t73.5 -14t73 14t57 39.5t37 60.5t13 77t-13.5 77t-37.5 60.5t-57 40t-73 14.5t-73 -14.5t-57 -40t-37 -60.5t-13 -77z" />
    <glyph glyph-name="uni0424.bgr" horiz-adv-x="801" 
d="M450 643q73 -3 133 -25.5t103.5 -61t67.5 -92t24 -117.5q0 -65 -24.5 -118.5t-68.5 -92.5t-104 -61.5t-131 -24.5v-70h-98v70q-73 2 -133.5 24.5t-104 61.5t-67.5 92.5t-24 117.5t24.5 118t68.5 93t104.5 61.5t131.5 24.5v69h98v-69zM125 346q0 -45 17 -82t47 -64
t71.5 -42.5t91.5 -16.5v411q-51 -2 -93 -17.5t-71.5 -42.5t-46 -64t-16.5 -82zM676 347q0 45 -17 82t-47 64t-71.5 42.5t-90.5 16.5v-411q51 1 92.5 17t71 43t46 64t16.5 82z" />
    <glyph glyph-name="uni0439.alt" horiz-adv-x="474" 
d="M141 193q0 -54 22.5 -83.5t70.5 -29.5t72.5 31.5t24.5 84.5v339h96v-535h-95v49q-12 -19 -41 -37t-79 -18q-45 0 -76.5 14.5t-51.5 40t-29 59.5t-9 74v353h95v-342zM234 572q-39 0 -65.5 13t-42.5 33t-23 43.5t-7 43.5h74q0 -11 3.5 -22t10.5 -21t19.5 -16t30.5 -6t30 6
t19.5 16t11 21t3.5 22h72q0 -21 -7 -44t-23 -43t-42 -33t-64 -13z" />
    <glyph glyph-name="uni043F.alt" horiz-adv-x="479" 
d="M337 343q0 54 -23 83.5t-72 29.5q-48 0 -73 -31.5t-25 -84.5v-340h-95v535h95v-48q6 8 16 17.5t25 17.5t35 13.5t45 5.5q46 0 77.5 -15t51.5 -40.5t29 -59.5t9 -73v-353h-95v343z" />
    <glyph glyph-name="uni041B.bgr" horiz-adv-x="640" 
d="M641 0.0419922h-109.993l-213.987 569.966l-214.986 -569.966h-103.994l268.983 691.958h104.994z" />
    <glyph glyph-name="amacron.alt" horiz-adv-x="621" 
d="M187 670h230v-73h-230v73zM482 79q-9 -14 -25 -29t-39 -28.5t-53.5 -22t-67.5 -8.5q-60 0 -110.5 20t-86.5 56t-56 87t-20 113q0 60 20 110.5t56.5 87.5t86.5 58t110 21t109 -23.5t75 -58.5v73h91v-535h-90v79zM120 267q0 -42 13 -77t37 -60.5t57.5 -39.5t73.5 -14t73 14
t57 39.5t37 60.5t13 77t-13.5 77t-37.5 60.5t-57 40t-73 14.5t-73 -14.5t-57 -40t-37 -60.5t-13 -77z" />
    <glyph glyph-name="aogonek.alt" horiz-adv-x="621" 
d="M427 -81q0 53 55 85v75q-9 -14 -25 -29t-39 -28.5t-53.5 -22t-67.5 -8.5q-60 0 -110.5 20t-86.5 56t-56 87t-20 113q0 60 20 110.5t56.5 87.5t86.5 58t110 21t109 -23.5t75 -58.5v73h91v-538q-31 -10 -43.5 -25.5t-12.5 -33.5q0 -23 16 -33t40 -11v-69
q-74 -3 -109.5 24.5t-35.5 69.5zM120 267q0 -42 13 -77t37 -60.5t57.5 -39.5t73.5 -14t73 14t57 39.5t37 60.5t13 77t-13.5 77t-37.5 60.5t-57 40t-73 14.5t-73 -14.5t-57 -40t-37 -60.5t-13 -77z" />
    <glyph glyph-name="aring.alt" horiz-adv-x="621" 
d="M196 662q0 44 28.5 72.5t73.5 28.5q49 0 77 -28.5t28 -70.5q0 -45 -28 -73.5t-76 -28.5q-46 0 -74.5 28.5t-28.5 71.5zM250 662q0 -21 13.5 -35t35.5 -14q24 0 37 14t13 37q0 20 -13 34.5t-37 14.5q-23 0 -36 -14.5t-13 -36.5zM482 79q-9 -14 -25 -29t-39 -28.5
t-53.5 -22t-67.5 -8.5q-60 0 -110.5 20t-86.5 56t-56 87t-20 113q0 60 20 110.5t56.5 87.5t86.5 58t110 21t109 -23.5t75 -58.5v73h91v-535h-90v79zM120 267q0 -42 13 -77t37 -60.5t57.5 -39.5t73.5 -14t73 14t57 39.5t37 60.5t13 77t-13.5 77t-37.5 60.5t-57 40t-73 14.5
t-73 -14.5t-57 -40t-37 -60.5t-13 -77z" />
    <glyph glyph-name="aringacute.alt" horiz-adv-x="621" 
d="M198 662q0 44 28.5 72.5t73.5 28.5q49 0 77 -28.5t28 -70.5q0 -45 -28 -73.5t-76 -28.5q-46 0 -74.5 28.5t-28.5 71.5zM252 662q0 -21 13.5 -35t35.5 -14q24 0 37 14t13 37q0 20 -13 34.5t-37 14.5q-23 0 -36 -14.5t-13 -36.5zM482 79q-9 -14 -25 -29t-39 -28.5
t-53.5 -22t-67.5 -8.5q-60 0 -110.5 20t-86.5 56t-56 87t-20 113q0 60 20 110.5t56.5 87.5t86.5 58t110 21t109 -23.5t75 -58.5v73h91v-535h-90v79zM120 267q0 -42 13 -77t37 -60.5t57.5 -39.5t73.5 -14t73 14t57 39.5t37 60.5t13 77t-13.5 77t-37.5 60.5t-57 40t-73 14.5
t-73 -14.5t-57 -40t-37 -60.5t-13 -77zM425 915l-78 -126h-93l75 126h96z" />
    <glyph glyph-name="atilde.alt" horiz-adv-x="621" 
d="M361 582q-20 0 -34.5 6.5t-27.5 15t-25 15t-26 6.5q-16 0 -23 -11t-8 -31h-70q-1 49 24 82.5t73 33.5q20 0 35 -6.5t27.5 -15t24 -15t25.5 -6.5q30 0 30 43h70q1 -53 -24.5 -85t-70.5 -32zM482 79q-9 -14 -25 -29t-39 -28.5t-53.5 -22t-67.5 -8.5q-60 0 -110.5 20
t-86.5 56t-56 87t-20 113q0 60 20 110.5t56.5 87.5t86.5 58t110 21t109 -23.5t75 -58.5v73h91v-535h-90v79zM120 267q0 -42 13 -77t37 -60.5t57.5 -39.5t73.5 -14t73 14t57 39.5t37 60.5t13 77t-13.5 77t-37.5 60.5t-57 40t-73 14.5t-73 -14.5t-57 -40t-37 -60.5t-13 -77z
" />
    <glyph glyph-name="kcommaaccent.alt" horiz-adv-x="462" 
d="M225 -156q-21 5 -34 20.5t-13 38.5q0 26 17.5 43t45.5 17q29 0 45.5 -18t16.5 -44q0 -18 -6 -33t-13 -29l-39 -81h-59zM451 0h-112l-194 215v-215h-95v731h95v-232q13 14 41 28.5t71 14.5q41 0 74 -13t56.5 -36.5t36 -55.5t12.5 -71q0 -37 -12 -67t-33 -52.5t-49.5 -35.5
t-61.5 -16zM344 361q0 44 -27 73t-73 29q-45 0 -73.5 -28.5t-28.5 -73.5t28.5 -73t73.5 -28t72.5 29t27.5 72z" />
    <glyph glyph-name="uni0491.alt" horiz-adv-x="398" 
d="M33 675h86v-163q18 14 41.5 21.5t52.5 7.5q32 0 60 -10.5t49 -29t33 -45t12 -59.5q0 -51 -23 -85.5t-77 -57.5q-22 -10 -44.5 -16t-46.5 -14q-30 -11 -46 -28.5t-16 -51.5q0 -36 23.5 -54.5t58.5 -18.5q26 0 43 8t27.5 21t15 30.5t4.5 37.5h93q0 -36 -9.5 -67.5
t-31.5 -55.5t-57 -37.5t-86 -13.5q-37 0 -69 10.5t-56 30t-37.5 48.5t-13.5 65q0 62 29 98.5t86 56.5q23 8 44 13t43 14q26 10 39 26.5t13 44.5q0 32 -20 49t-52 17q-38 0 -57 -23.5t-21 -63.5h-90v295z" />
    <glyph glyph-name="uni0444.alt" horiz-adv-x="922" 
d="M509 -175h-96v247q-8 -11 -21.5 -25t-33 -26.5t-46 -21t-60.5 -8.5q-53 0 -95 21t-71.5 58t-45.5 87.5t-16 109.5q0 60 16 111t46 88t72 57.5t95 20.5q29 0 53.5 -7.5t44 -19t35 -26.5t27.5 -30v270h96v-271q11 15 26 30t35 27t45 19.5t57 7.5q51 0 93 -20t71.5 -56.5
t45.5 -87.5t16 -112q0 -59 -15.5 -109.5t-45.5 -87.5t-72.5 -58.5t-96.5 -21.5q-32 0 -57.5 8.5t-45 20.5t-33.5 26t-23 25v-246zM509 267q0 -42 11.5 -77t32 -60.5t48 -39.5t60.5 -14t59 14t44.5 39.5t28 60.5t9.5 77t-10 77t-28 60.5t-44 40t-59 14.5t-61 -14.5t-48.5 -40
t-31.5 -60.5t-11 -77zM413 267q0 42 -11.5 77t-31.5 60.5t-48 40t-61 14.5t-59 -14.5t-44.5 -40t-28 -60.5t-9.5 -77t10 -77t28 -60.5t44 -39.5t59 -14t61 14t48.5 39.5t31.5 60.5t11 77z" />
    <glyph glyph-name="zacute.pl" horiz-adv-x="441" 
d="M133 80h285v-80h-395v73l279 382h-273v80h389v-73zM301 714l-44 -135h-83l43 135h84z" />
    <glyph glyph-name="cyrbreve.uc" horiz-adv-x="402" 
d="M202 730q-39 0 -65.5 12.5t-42.5 31.5t-23.5 41t-7.5 42h76q0 -9 3.5 -19t10.5 -18.5t19 -14t30 -5.5t30 5.5t19 14t10.5 18.5t3.5 19h74q0 -20 -7.5 -42.5t-23.5 -41t-42.5 -31t-63.5 -12.5z" />
    <glyph glyph-name="sacute.pl" horiz-adv-x="398" 
d="M123 401q0 -49 54 -68q21 -8 42 -13t43 -13q56 -20 86 -54.5t30 -99.5q0 -39 -14.5 -69t-39 -50t-57.5 -30t-70 -10q-51 0 -85.5 14t-55.5 38t-30 55.5t-8 66.5h92q0 -20 4.5 -37.5t15 -30.5t27 -21t42.5 -8q35 -1 60.5 18t25.5 55q0 33 -16 50t-46 28q-23 8 -46 14
t-49 17q-53 23 -75 58.5t-22 83.5q0 33 12.5 60t35 46t53 29.5t67.5 10.5q84 0 124.5 -44.5t41.5 -117.5h-88q-2 41 -21.5 64.5t-58.5 23.5q-34 0 -54 -17.5t-20 -48.5zM285 714l-44 -135h-83l43 135h84z" />
    <glyph glyph-name="oacute.pl" horiz-adv-x="600" 
d="M120 267q0 -42 13.5 -76.5t37.5 -60t57 -39.5t72 -14q40 0 73 14t57 39.5t37 60t13 76.5q0 41 -13.5 76t-37.5 60.5t-57 40t-72 14.5q-40 0 -73 -14t-57 -39.5t-37 -60.5t-13 -77zM24 267q0 61 21 111.5t58 87.5t87.5 57.5t109.5 20.5q60 0 111 -20.5t87.5 -57.5
t57 -87.5t20.5 -110.5t-21 -111t-58 -87.5t-88 -57.5t-110 -21q-60 0 -110.5 20t-87 56.5t-57 87.5t-20.5 112zM385 714l-44 -135h-83l43 135h84z" />
    <glyph glyph-name="nacute.pl" horiz-adv-x="479" 
d="M337 343q0 54 -23 83.5t-72 29.5q-48 0 -73 -31.5t-25 -84.5v-340h-95v535h95v-48q6 8 16 17.5t25 17.5t35 13.5t45 5.5q46 0 77.5 -15t51.5 -40.5t29 -59.5t9 -73v-353h-95v343zM329 714l-44 -135h-83l43 135h84z" />
    <glyph glyph-name="idotaccent" horiz-adv-x="193" 
d="M144 0h-95v535h95v-535zM96 587q-26 0 -44.5 18.5t-18.5 44.5q0 27 18.5 45t44.5 18t45 -18t19 -45q0 -26 -19 -44.5t-45 -18.5z" />
    <glyph glyph-name="cacute.pl" horiz-adv-x="504" 
d="M298 77q27 0 48.5 6t38.5 15t30.5 19.5t23.5 20.5l56 -59q-12 -14 -30 -29.5t-42.5 -28.5t-56 -21.5t-69.5 -8.5q-62 0 -112.5 21t-86.5 58t-55.5 87.5t-19.5 109.5t20.5 109.5t57 88t86.5 58.5t109 21q39 0 71 -8t56.5 -20.5t42.5 -28t29 -29.5l-59 -60
q-21 23 -54.5 41.5t-84.5 18.5q-40 0 -72.5 -14.5t-56 -40t-36 -60.5t-12.5 -76q0 -43 13.5 -78t37.5 -60t56.5 -38.5t70.5 -13.5zM368 714l-44 -135h-83l43 135h84z" />
    <glyph glyph-name="Zacute.pl" horiz-adv-x="588" 
d="M28 0v73l396 529h-390v90h525v-73l-400 -529h401v-90h-532zM370 855l-44 -126h-84l42 126h86z" />
    <glyph glyph-name="Sacute.pl" horiz-adv-x="482" 
d="M141 527q0 -35 17.5 -57.5t49.5 -38.5q31 -14 63 -26.5t65 -29.5q56 -27 87 -71t31 -113q0 -45 -15.5 -82.5t-43 -64t-67 -41.5t-87.5 -15q-60 0 -101.5 18t-66.5 48.5t-35.5 70t-9.5 82.5h95q0 -28 6.5 -52.5t20.5 -42.5t36.5 -28.5t54.5 -10.5q49 0 81 27.5t32 81.5
q0 42 -20 66.5t-54 41.5q-34 18 -68.5 30.5t-69.5 31.5q-47 26 -72.5 68t-25.5 104q0 38 13.5 71t39 57.5t61.5 38.5t81 14q55 0 92.5 -16.5t60.5 -43.5t32.5 -62t8.5 -73h-90q-2 48 -27.5 79.5t-76.5 31.5q-48 0 -73 -26.5t-25 -67.5zM328 855l-44 -126h-84l42 126h86z" />
    <glyph glyph-name="Oacute.pl" horiz-adv-x="761" 
d="M26 346q0 78 26.5 144t73.5 114t111.5 75t141.5 27q79 0 144.5 -27t112.5 -75t73 -114t26 -143t-26 -143t-73 -114t-112.5 -75.5t-143.5 -27.5t-143.5 26.5t-112 74.5t-72.5 114t-26 144zM129 346q0 -59 18.5 -108t51.5 -84.5t79 -55.5t102 -20q57 0 103.5 20t79.5 55.5
t51 84.5t18 108q0 58 -18.5 107.5t-51.5 85.5t-79.5 56t-102.5 20q-57 0 -103 -20t-79 -56t-51 -85.5t-18 -107.5zM469 855l-44 -126h-84l42 126h86z" />
    <glyph glyph-name="uni044A.alt" horiz-adv-x="514" 
d="M202 535v-87h-180v87h180zM491 172q0 -39 -12 -72t-35.5 -57.5t-58 -38.5t-79.5 -14q-44 0 -77.5 13.5t-56.5 38t-34.5 57.5t-11.5 72v364h95v-189h66q95 0 149.5 -46t54.5 -128zM221 171q0 -44 21.5 -70t63.5 -26t64.5 26.5t22.5 70.5q0 41 -26.5 65t-79.5 24h-66v-90z
" />
    <glyph glyph-name="Nacute.pl" horiz-adv-x="657" 
d="M150 525v-525h-96v692h101l352 -531v531h96v-692h-99zM417 855l-44 -126h-84l42 126h86z" />
    <glyph glyph-name="Cacute.pl" 
d="M456 855l-44 -126h-84l42 126h86zM611 78q-17 -17 -40 -33.5t-51.5 -29t-63 -20.5t-73.5 -8q-80 0 -146 27t-113 74.5t-72.5 113.5t-25.5 144t26 144t73 114t112 75t144 27q68 0 124.5 -21t98.5 -59l-58 -72q-30 26 -72 43.5t-93 17.5q-58 0 -104.5 -20t-79.5 -56
t-50.5 -85.5t-17.5 -107.5q0 -59 18.5 -108t52.5 -84.5t81 -55.5t103 -20q59 0 101 22t69 46z" />
    <glyph glyph-name="semicolon.tab" horiz-adv-x="252" 
d="M127 340q-28 0 -47 19t-19 48t18.5 48t47.5 19t48 -19t19 -48t-19 -48t-48 -19zM109 -4q-23 6 -36 23t-13 40q-1 29 18 47.5t49 18.5q29 0 47 -19t18 -48q0 -17 -5 -32.5t-13 -33.5l-44 -101h-69z" />
    <glyph glyph-name="uni0431.alt" horiz-adv-x="600" 
d="M576 256q0 -57 -21 -106t-58 -84t-88 -55t-110 -20q-60 0 -110.5 19.5t-87 54t-57 83t-20.5 106.5q0 74 35 134t110 95q-56 16 -82 44.5t-26 69.5q0 60 46.5 97t143.5 35q80 -1 151.5 1.5l126.5 4.5v-87q-53 -3 -118.5 -4.5t-157.5 -1.5q-56 0 -76.5 -12.5t-20.5 -39.5
q0 -20 15 -31.5t41 -19.5t60.5 -13.5l74.5 -11.5q42 -7 83 -25t73.5 -49t52.5 -76.5t20 -107.5zM120 255q0 -39 13.5 -71.5t37.5 -56.5t57 -37t72 -13q40 0 73 13t57 37t37 56.5t13 71.5t-13.5 71.5t-37.5 56.5t-57 37.5t-72 13.5q-40 0 -73 -13.5t-57 -37t-37 -56.5
t-13 -72z" />
    <glyph glyph-name="comma.tab" horiz-adv-x="252" 
d="M130 -109h-69l48 105q-23 6 -36 23t-13 40q-1 29 18.5 47.5t48.5 18.5t47 -19t18 -48q0 -17 -5 -32.5t-13 -33.5z" />
    <glyph glyph-name="uni044B.alt" horiz-adv-x="617" 
d="M413 172q0 -39 -12 -72t-35.5 -57.5t-58 -38.5t-79.5 -14q-44 0 -77.5 13.5t-56.5 38t-34.5 57.5t-11.5 72v364h95v-189h66q95 0 149.5 -46t54.5 -128zM143 171q0 -44 21.5 -70t63.5 -26t64.5 26.5t22.5 70.5q0 41 -26.5 65t-79.5 24h-66v-90zM569 0h-95v535h95v-535z
" />
    <glyph glyph-name="four.tab" horiz-adv-x="504" 
d="M406 226v-226h-94v226h-291v84l291 382h94v-380h80v-86h-80zM313 566l-196 -255h196v255z" />
    <glyph glyph-name="uni044C.bgr" horiz-adv-x="436" 
d="M413 172q0 -39 -12 -72t-35.5 -57.5t-58 -38.5t-79.5 -14q-44 0 -77.5 13.5t-56.5 38t-34.5 57.5t-11.5 72v364h95v-189h66q95 0 149.5 -46t54.5 -128zM143 171q0 -44 21.5 -70t63.5 -26t64.5 26.5t22.5 70.5q0 41 -26.5 65t-79.5 24h-66v-90z" />
    <glyph glyph-name="divide.tab" horiz-adv-x="504" 
d="M252 440q-26 0 -44 18t-18 45q0 26 18 44t44 18q27 0 45 -18t18 -44q0 -27 -18 -45t-45 -18zM45 377h415v-80h-415v80zM252 104q-26 0 -44 18.5t-18 44.5t18 44.5t44 18.5q27 0 45 -18.5t18 -44.5t-18 -44.5t-45 -18.5z" />
    <glyph glyph-name="period.tab" horiz-adv-x="252" 
d="M126 -9q-28 0 -47 19t-19 48t19 48t47 19q29 0 48 -19t19 -48t-19 -48t-48 -19z" />
    <glyph glyph-name="uni043F.bgr" horiz-adv-x="479" 
d="M337 343q0 54 -23 83.5t-72 29.5q-48 0 -73 -31.5t-25 -84.5v-340h-95v535h95v-48q6 8 16 17.5t25 17.5t35 13.5t45 5.5q46 0 77.5 -15t51.5 -40.5t29 -59.5t9 -73v-353h-95v343z" />
    <glyph glyph-name="uni0442.locl" horiz-adv-x="397" 
d="M375 535v-87h-129v-448h-95v448h-129v87h353z" />
    <glyph glyph-name="uni0448.bgr" horiz-adv-x="748" 
d="M326.025 535h94.9941v-342.979q0 -51.9961 21.999 -82.4941q21.999 -30.499 67.9961 -30.499q47.9971 0 70.9951 32.498q22.999 32.498 22.999 86.4951v336.979h94.9941v-534.968h-94.9941v47.9971q-6 -8.99902 -15.999 -18.498q-9.99902 -9.5 -24.498 -17.499
q-14.5 -8 -33.998 -12.999q-19.499 -5 -44.498 -5q-52.9961 0 -84.4941 20.498q-31.498 20.499 -47.4971 50.4971q-17.999 -28.998 -50.9971 -49.9971q-32.998 -20.998 -85.9951 -20.998q-45.9971 0 -78.9951 14.499t-52.9961 39.9971q-19.999 25.499 -29.499 58.9971
q-9.49902 33.498 -9.49902 72.4951v354.979h94.9941v-343.979q0 -51.9971 21.999 -81.9951q21.998 -29.999 68.9951 -29.999q45.9971 0 69.4961 30.999q23.498 30.998 24.498 80.9951v343.979z" />
    <glyph glyph-name="equal.tab" horiz-adv-x="504" 
d="M47 449h411v-77h-411v77zM47 292h411v-77h-411v77z" />
    <glyph glyph-name="uni0424.alt" horiz-adv-x="808" 
d="M402 706q90 0 160 -24.5t119 -68.5t74.5 -104.5t25.5 -132.5q0 -70 -24.5 -129t-68.5 -101.5t-104 -67.5t-131 -28v-70h-98v70q-73 3 -133.5 28t-104 67.5t-67.5 101t-24 128.5q0 71 26.5 131.5t75 105t118 69.5t156.5 25zM129 375q0 -51 16.5 -93.5t46.5 -73t71.5 -48.5
t91.5 -20v473q-52 -4 -94 -23.5t-71 -51t-45 -73t-16 -90.5zM679 376q0 49 -16 91t-46 73t-71.5 50t-92.5 23v-473q51 2 92.5 20t71 49t46 73.5t16.5 93.5z" />
    <glyph glyph-name="uni044E.bgr" horiz-adv-x="779" 
d="M144 324h74q9 49 32.5 89.5t58.5 69.5t79.5 45t95.5 16q59 0 109 -20.5t86 -57.5t56 -87.5t20 -110.5t-20.5 -111t-57 -87.5t-86.5 -57.5t-108 -21q-55 0 -102 18t-82.5 50t-57.5 77.5t-27 100.5h-70v-237h-95v731h95v-407zM309 267q0 -42 13 -76.5t36 -60t55.5 -39.5
t70.5 -14q39 0 71 14t55 39.5t36 60t13 76.5q0 41 -13 76t-36.5 60.5t-55.5 40t-70 14.5q-39 0 -71 -14t-55.5 -39.5t-36 -60.5t-12.5 -77z" />
    <glyph glyph-name="uacute.alt" horiz-adv-x="470" 
d="M356 714l-80 -135h-92l78 135h94zM423 535v-342q0 -43 -12 -79.5t-36 -63t-59 -41.5t-81 -15q-51 0 -87 15t-58.5 41.5t-32.5 63t-10 79.5v342h95v-339q0 -53 23 -83t70 -30t70 30t23 83v339h95z" />
    <glyph glyph-name="ugrave.alt" horiz-adv-x="470" 
d="M216 714l76 -135h-91l-79 135h94zM423 535v-342q0 -43 -12 -79.5t-36 -63t-59 -41.5t-81 -15q-51 0 -87 15t-58.5 41.5t-32.5 63t-10 79.5v342h95v-339q0 -53 23 -83t70 -30t70 30t23 83v339h95z" />
    <glyph glyph-name="ucircumflex.alt" horiz-adv-x="470" 
d="M281 715l102 -140h-87l-62 79l-62 -79h-87l101 140h95zM423 535v-342q0 -43 -12 -79.5t-36 -63t-59 -41.5t-81 -15q-51 0 -87 15t-58.5 41.5t-32.5 63t-10 79.5v342h95v-339q0 -53 23 -83t70 -30t70 30t23 83v339h95z" />
    <glyph glyph-name="uni04EF.alt" horiz-adv-x="475" 
d="M91 -65q17 -9 50 -21.5t81 -12.5q54 0 83.5 26.5t29.5 72.5v45q-12 -19 -40 -35.5t-76 -16.5q-47 0 -80 15t-53.5 40.5t-29.5 60t-9 73.5v353h95v-342q0 -54 22 -83.5t70 -29.5t73 31.5t25 84.5v339h95v-525q0 -43 -13 -78.5t-38.5 -61t-64 -39.5t-88.5 -14
q-58 0 -98.5 13t-63.5 26zM121 667h230v-73h-230v73z" />
    <glyph glyph-name="uni0453.alt" horiz-adv-x="398" 
d="M273 401q0 32 -20 49t-52 17q-38 0 -57 -23.5t-21 -63.5h-90q1 72 42 116.5t129 44.5q36 0 65.5 -10.5t51.5 -29t34 -45t12 -59.5q0 -51 -23 -85.5t-77 -57.5q-22 -10 -44.5 -16t-46.5 -14q-31 -11 -46.5 -28.5t-15.5 -51.5q0 -36 23.5 -54.5t58.5 -18.5q26 0 43 8
t27.5 21t15 30.5t4.5 37.5h93q0 -36 -9.5 -67.5t-31.5 -55.5t-57 -37.5t-86 -13.5q-37 0 -69 10.5t-56 30t-37.5 48.5t-13.5 65q0 62 29 98.5t86 56.5q23 8 44 13t43 14q26 10 39 26.5t13 44.5zM318 714l-80 -135h-92l78 135h94z" />
    <glyph glyph-name="uni043A.bgralt" horiz-adv-x="462" 
d="M451 0h-112l-194 215v-215h-95v731h95v-232q13 14 41 28.5t71 14.5q41 0 74 -13t56.5 -36.5t36 -55.5t12.5 -71q0 -37 -12 -67t-33 -52.5t-49.5 -35.5t-61.5 -16zM344 361q0 44 -27 73t-73 29q-45 0 -73.5 -28.5t-28.5 -73.5t28.5 -73t73.5 -28t72.5 29t27.5 72z" />
    <glyph glyph-name="six.tab" horiz-adv-x="504" 
d="M470 209q0 -50 -14 -90.5t-41.5 -70t-67 -45.5t-90.5 -16q-54 0 -94 16t-66 45t-39 70t-13 91v262q0 49 12.5 91.5t39 74.5t68 50.5t100.5 18.5q38 0 67.5 -7.5t51.5 -20t37.5 -28.5t25.5 -32l-60 -65q-18 25 -45 43t-74 18q-35 0 -59.5 -10.5t-39.5 -29.5t-21.5 -45
t-6.5 -57v-69q16 23 50 40.5t83 17.5q100 0 148 -57t48 -163v-32zM374 243q0 57 -27.5 92t-87.5 35q-59 0 -88.5 -34t-29.5 -88v-39q0 -57 27.5 -94t88.5 -37q59 0 88 37t29 94v34z" />
    <glyph glyph-name="acute.ucpl" horiz-adv-x="476" 
d="M336 855l-44 -126h-84l42 126h86z" />
    <glyph glyph-name="hungarumlaut.uc" horiz-adv-x="400" 
d="M198 855l-63 -126h-90l61 126h92zM349 855l-64 -126h-89l62 126h91z" />
    <glyph glyph-name="dotaccent.uc" horiz-adv-x="400" 
d="M202 741q-26 0 -44 17.5t-18 43.5t17.5 43.5t43.5 17.5t44 -17.5t18 -43.5t-17.5 -43.5t-43.5 -17.5z" />
    <glyph glyph-name="breve.uc" horiz-adv-x="400" 
d="M202 730q-39 0 -65.5 12.5t-42.5 31.5t-23.5 41t-7.5 42h76q0 -9 3.5 -19t10.5 -18.5t19 -14t30 -5.5t30 5.5t19 14t10.5 18.5t3.5 19h74q0 -20 -7.5 -42.5t-23.5 -41t-42.5 -31t-63.5 -12.5z" />
    <glyph glyph-name="macron.uc" horiz-adv-x="476" 
d="M126 818h240v-73h-240v73z" />
    <glyph glyph-name="acute.pl" horiz-adv-x="476" 
d="M326 714l-44 -135h-83l43 135h84z" />
    <glyph glyph-name="space_uni0326.alt" horiz-adv-x="400" 
d="M220 692q21 -5 34 -19.5t13 -37.5q0 -26 -17 -43.5t-46 -17.5t-45.5 18t-16.5 43q0 19 6 33.5t13 28.5l39 82h59z" />
    <glyph glyph-name="uni04E3.alt" horiz-adv-x="474" 
d="M121 670h230v-73h-230v73zM141 193q0 -54 22.5 -83.5t70.5 -29.5t72.5 31.5t24.5 84.5v339h96v-535h-95v49q-12 -19 -41 -37t-79 -18q-45 0 -76.5 14.5t-51.5 40t-29 59.5t-9 74v353h95v-342z" />
    <glyph glyph-name="uni0434.bgr" horiz-adv-x="620" 
d="M480 535h92v-444q0 -75 -21.5 -127.5t-59.5 -85t-89 -47t-110 -14.5q-69 0 -123 18.5t-86 39.5l37 75q26 -17 70 -33.5t103 -16.5q37 0 70.5 9t59 28.5t40 50t14.5 73.5v15q-9 -14 -24.5 -29t-38 -27.5t-51.5 -20.5t-65 -8q-60 0 -110.5 20t-87 56t-56.5 87t-20 113
q0 59 20.5 109.5t56.5 88t86 58.5t109 21q62 0 110 -23t74 -58v72zM120 267q0 -42 13.5 -77t37.5 -60.5t57 -39.5t72 -14q40 0 73.5 14t57.5 39.5t37 60.5t13 77t-13.5 77t-37.5 60.5t-57 40t-73 14.5t-73 -14.5t-57 -40t-37 -60.5t-13 -77z" />
    <glyph glyph-name="less.tab" horiz-adv-x="504" 
d="M71 380l362 165v-86l-271 -120l271 -123v-85l-362 164v85z" />
    <glyph glyph-name="uni0438.alt1" horiz-adv-x="542" 
d="M144 143l254 392h96v-535h-96v392l-254 -392h-95v535h95v-392z" />
    <glyph glyph-name="caron.alt" horiz-adv-x="476" 
d="M350 731l-16 -154h-78l14 154h80z" />
    <glyph glyph-name="udieresis.alt" horiz-adv-x="470" 
d="M149 590q-25 0 -42 17t-17 42t17 42t42 17q26 0 43.5 -17t17.5 -42t-18 -42t-43 -17zM320 590q-26 0 -43 17t-17 42t17 42t43 17q25 0 42.5 -17t17.5 -42t-18 -42t-42 -17zM423 535v-342q0 -43 -12 -79.5t-36 -63t-59 -41.5t-81 -15q-51 0 -87 15t-58.5 41.5t-32.5 63
t-10 79.5v342h95v-339q0 -53 23 -83t70 -30t70 30t23 83v339h95z" />
    <glyph glyph-name="colon.tab" horiz-adv-x="252" 
d="M126 340q-28 0 -47 19t-19 48t18.5 48t47.5 19t48 -19t19 -48t-19 -48t-48 -19zM126 -9q-28 0 -47 19t-19 48t18.5 48t47.5 19t48 -19t19 -48t-19 -48t-48 -19z" />
    <glyph glyph-name="uni04D1.alt" horiz-adv-x="621" 
d="M482 79q-9 -14 -25 -29t-39 -28.5t-53.5 -22t-67.5 -8.5q-60 0 -110.5 20t-86.5 56t-56 87t-20 113q0 60 20 110.5t56.5 87.5t86.5 58t110 21t109 -23.5t75 -58.5v73h91v-535h-90v79zM120 267q0 -42 13 -77t37 -60.5t57.5 -39.5t73.5 -14t73 14t57 39.5t37 60.5t13 77
t-13.5 77t-37.5 60.5t-57 40t-73 14.5t-73 -14.5t-57 -40t-37 -60.5t-13 -77zM303 571q-39 0 -65.5 13t-42.5 33t-23 43.5t-7 43.5h74q0 -11 3.5 -22t10.5 -21t19.5 -16t30.5 -6t30 6t19.5 16t11 21t3.5 22h72q0 -21 -7 -44t-23 -43t-42 -33t-64 -13z" />
    <glyph glyph-name="uni043A.bgr" horiz-adv-x="463" 
d="M236 286l227 -286h-117l-202 251v-251h-95v731h95v-422l196 226h115z" />
    <glyph glyph-name="uni044A.bgr" horiz-adv-x="514" 
d="M202 535v-87h-180v87h180zM491 172q0 -39 -12 -72t-35.5 -57.5t-58 -38.5t-79.5 -14q-44 0 -77.5 13.5t-56.5 38t-34.5 57.5t-11.5 72v364h95v-189h66q95 0 149.5 -46t54.5 -128zM221 171q0 -44 21.5 -70t63.5 -26t64.5 26.5t22.5 70.5q0 41 -26.5 65t-79.5 24h-66v-90z
" />
    <glyph glyph-name="space_uni0326" horiz-adv-x="400" 
d="M198 -156q-21 5 -34 20.5t-13 38.5q0 26 17.5 43t45.5 17q29 0 45.5 -18t16.5 -44q0 -18 -6 -33t-13 -29l-39 -81h-59z" />
    <glyph glyph-name="circumflex.uc" horiz-adv-x="400" 
d="M248 855l108 -126h-92l-65 68l-64 -68h-93l108 126h98z" />
    <glyph glyph-name="grave.uc" horiz-adv-x="476" 
d="M213 855l74 -126h-91l-78 126h95z" />
    <glyph glyph-name="tilde.uc" horiz-adv-x="476" 
d="M301 736q-20 0 -35 6.5t-28 15t-25.5 15t-26.5 6.5q-16 0 -24.5 -11t-8.5 -31h-70q-2 49 24.5 82.5t74.5 33.5q20 0 35 -6.5t27.5 -14.5t24.5 -14.5t26 -6.5q31 0 33 42h70q1 -53 -25.5 -85t-71.5 -32z" />
    <glyph glyph-name="uni0442.alt" horiz-adv-x="750" 
d="M423 0h-95v343q0 52 -22 82.5t-68 30.5q-48 0 -71 -32.5t-23 -86.5v-337h-95v535h95v-48q6 9 16 18.5t24.5 17.5t34 13t44.5 5q53 0 84.5 -20.5t47.5 -50.5q18 29 51 50t86 21q46 0 79 -14.5t53 -40t29.5 -59t9.5 -72.5v-355h-95v344q0 52 -22 82t-69 30q-46 0 -69.5 -31
t-24.5 -81v-344z" />
    <glyph glyph-name="uni043F.locl" horiz-adv-x="471" 
d="M424 0h-95v448h-185v-448h-95v535h375v-535z" />
    <glyph glyph-name="uni0438.alt" horiz-adv-x="474" 
d="M141 193q0 -54 22.5 -83.5t70.5 -29.5t72.5 31.5t24.5 84.5v339h96v-535h-95v49q-12 -19 -41 -37t-79 -18q-45 0 -76.5 14.5t-51.5 40t-29 59.5t-9 74v353h95v-342z" />
    <glyph glyph-name="uni0433.locl" horiz-adv-x="378" 
d="M49 535h307v-87h-212v-448h-95v535z" />
    <glyph glyph-name="ring.uc" horiz-adv-x="473" 
d="M133 817q0 45 28.5 73.5t73.5 28.5q49 0 77 -28.5t28 -71.5q0 -44 -28 -72.5t-76 -28.5q-46 0 -74.5 28.5t-28.5 70.5zM189 818q0 -21 12.5 -34.5t34.5 -13.5q23 0 35.5 13.5t12.5 35.5q0 21 -12.5 34.5t-35.5 13.5q-22 0 -34.5 -13.5t-12.5 -35.5z" />
    <glyph glyph-name="dieresis.uc" horiz-adv-x="476" 
d="M141 736q-25 0 -42 16.5t-17 42.5q0 25 17 42t42 17q26 0 43.5 -17t17.5 -42q0 -26 -18 -42.5t-43 -16.5zM328 736q-25 0 -42 16.5t-17 42.5q0 25 17 42t42 17q26 0 43.5 -17t17.5 -42q0 -26 -18 -42.5t-43 -16.5z" />
    <glyph glyph-name="acute.uc" horiz-adv-x="476" 
d="M369 855l-78 -126h-93l75 126h96z" />
    <glyph glyph-name="caron.uc" horiz-adv-x="400" 
d="M150 729l-107 126h92l65 -70l65 70h91l-108 -126h-98z" />
    <glyph glyph-name="uni0446.bgr" horiz-adv-x="495" 
d="M495 87v-227h-86v140h-77v87h163zM141 193q0 -54 22.5 -83.5t70.5 -29.5t72.5 31.5t24.5 84.5v339h96v-535h-95v49q-12 -19 -41 -37t-79 -18q-45 0 -76.5 14.5t-51.5 40t-29 59.5t-9 74v353h95v-342z" />
    <glyph glyph-name="uni043D.bgr" horiz-adv-x="476" 
d="M144 324h188v211h95v-535h-95v237h-188v-237h-95v535h95v-211z" />
    <glyph glyph-name="ubreve.alt" horiz-adv-x="470" 
d="M235 571q-39 0 -65.5 13t-42.5 33t-23 43.5t-7 43.5h74q0 -11 3.5 -22t10.5 -21t19.5 -16t30.5 -6t30 6t19.5 16t11 21t3.5 22h72q0 -21 -7 -44t-23 -43t-42 -33t-64 -13zM423 535v-342q0 -43 -12 -79.5t-36 -63t-59 -41.5t-81 -15q-51 0 -87 15t-58.5 41.5t-32.5 63
t-10 79.5v342h95v-339q0 -53 23 -83t70 -30t70 30t23 83v339h95z" />
    <glyph glyph-name="uni0439.bgr" horiz-adv-x="474" 
d="M141 193q0 -54 22.5 -83.5t70.5 -29.5t72.5 31.5t24.5 84.5v339h96v-535h-95v49q-12 -19 -41 -37t-79 -18q-45 0 -76.5 14.5t-51.5 40t-29 59.5t-9 74v353h95v-342zM247 572q-39 0 -65.5 13t-42.5 33t-23 43.5t-7 43.5h74q0 -11 3.5 -22t10.5 -21t19.5 -16t30.5 -6t30 6
t19.5 16t11 21t3.5 22h72q0 -21 -7 -44t-23 -43t-42 -33t-64 -13z" />
    <glyph glyph-name="perthousand.tab" horiz-adv-x="1126" 
d="M354 536q0 -34 -12.5 -63.5t-34.5 -51.5t-52.5 -35t-67.5 -13q-36 0 -66.5 12.5t-52.5 34.5t-34.5 51.5t-12.5 64.5q0 34 12 63.5t34 51.5t52.5 35t66.5 13q37 0 68 -12.5t53.5 -34.5t34.5 -52t12 -64zM594 691h86l-524 -691h-86zM186 628q-41 0 -64 -26.5t-23 -65.5
t24 -65.5t65 -26.5q42 0 65 26.5t23 65.5t-23.5 65.5t-66.5 26.5zM396 156q0 34 12.5 64t34 52t52 34.5t66.5 12.5q37 0 68.5 -12.5t53.5 -34.5t34.5 -52t12.5 -64t-12.5 -63.5t-34.5 -51.5t-52.5 -34.5t-67.5 -12.5t-67.5 12.5t-52.5 34.5t-34.5 51.5t-12.5 63.5zM772 156
q0 34 12 64t34 52t52.5 34.5t66.5 12.5q37 0 68 -12.5t53.5 -34.5t34.5 -52t12 -64t-12.5 -63.5t-34.5 -51.5t-52.5 -34.5t-67.5 -12.5q-36 0 -66.5 12.5t-52.5 34.5t-34.5 51.5t-12.5 63.5zM561 249q-40 0 -63.5 -27t-23.5 -66q0 -38 24 -64.5t65 -26.5q42 0 65.5 26.5
t23.5 64.5q0 39 -24 66t-67 27zM937 249q-41 0 -64 -27t-23 -66q0 -38 24 -64.5t65 -26.5q42 0 65 26.5t23 64.5q0 39 -23.5 66t-66.5 27z" />
    <glyph glyph-name="uhungarumlaut.alt" horiz-adv-x="470" 
d="M264 714l-65 -135h-89l62 135h92zM415 714l-67 -135h-88l64 135h91zM423 535v-342q0 -43 -12 -79.5t-36 -63t-59 -41.5t-81 -15q-51 0 -87 15t-58.5 41.5t-32.5 63t-10 79.5v342h95v-339q0 -53 23 -83t70 -30t70 30t23 83v339h95z" />
    <glyph glyph-name="uni0434.alt" horiz-adv-x="601" 
d="M572 273q0 -62 -20 -114t-56.5 -89t-87 -57.5t-110.5 -20.5t-110.5 21t-86.5 58t-56.5 88t-20.5 110q0 61 20 111.5t56.5 86.5t87 56t110.5 20q63 0 107.5 -23.5t72.5 -57.5q-1 51 -15.5 87t-40 59t-60 33.5t-76.5 10.5q-63 0 -109 -20t-76 -41l-41 76q17 13 40.5 26
t52 23t62 16.5t71.5 6.5q60 0 112 -15.5t91 -51.5t61 -94t22 -143v-162zM120 268q0 -41 13 -76t37 -60.5t57 -40t73 -14.5t73 14.5t57 40t37.5 60.5t13.5 76t-13 76t-37 60.5t-57.5 39.5t-73.5 14q-39 0 -72 -14t-57 -39.5t-37.5 -60t-13.5 -76.5z" />
    <glyph glyph-name="uni0414.bgr" horiz-adv-x="688" 
d="M593 0h-499v-140h-91v232h55l234 600h104l233 -600h55v-232h-91v140zM162 92h359l-180 478z" />
    <glyph glyph-name="umacron.alt" horiz-adv-x="470" 
d="M119 670h230v-73h-230v73zM423 535v-342q0 -43 -12 -79.5t-36 -63t-59 -41.5t-81 -15q-51 0 -87 15t-58.5 41.5t-32.5 63t-10 79.5v342h95v-339q0 -53 23 -83t70 -30t70 30t23 83v339h95z" />
    <glyph glyph-name="one.tab" horiz-adv-x="504" 
d="M207 593l-101 -42v93l108 48h91v-604h151v-88h-403v88h154v505z" />
    <glyph glyph-name="uni0433.bgr" horiz-adv-x="398" 
d="M273 401q0 32 -20 49t-52 17q-38 0 -57 -23.5t-21 -63.5h-90q1 72 42 116.5t129 44.5q36 0 65.5 -10.5t51.5 -29t34 -45t12 -59.5q0 -51 -23 -85.5t-77 -57.5q-22 -10 -44.5 -16t-46.5 -14q-31 -11 -46.5 -28.5t-15.5 -51.5q0 -36 23.5 -54.5t58.5 -18.5q26 0 43 8
t27.5 21t15 30.5t4.5 37.5h93q0 -36 -9.5 -67.5t-31.5 -55.5t-57 -37.5t-86 -13.5q-37 0 -69 10.5t-56 30t-37.5 48.5t-13.5 65q0 62 29 98.5t86 56.5q23 8 44 13t43 14q26 10 39 26.5t13 44.5z" />
    <glyph glyph-name="space.tab" horiz-adv-x="252" 
 />
    <glyph glyph-name="uni044C.alt" horiz-adv-x="436" 
d="M413 172q0 -39 -12 -72t-35.5 -57.5t-58 -38.5t-79.5 -14q-44 0 -77.5 13.5t-56.5 38t-34.5 57.5t-11.5 72v364h95v-189h66q95 0 149.5 -46t54.5 -128zM143 171q0 -44 21.5 -70t63.5 -26t64.5 26.5t22.5 70.5q0 41 -26.5 65t-79.5 24h-66v-90z" />
    <glyph glyph-name="uni0430.alt" horiz-adv-x="621" 
d="M482 79q-9 -14 -25 -29t-39 -28.5t-53.5 -22t-67.5 -8.5q-60 0 -110.5 20t-86.5 56t-56 87t-20 113q0 60 20 110.5t56.5 87.5t86.5 58t110 21t109 -23.5t75 -58.5v73h91v-535h-90v79zM120 267q0 -42 13 -77t37 -60.5t57.5 -39.5t73.5 -14t73 14t57 39.5t37 60.5t13 77
t-13.5 77t-37.5 60.5t-57 40t-73 14.5t-73 -14.5t-57 -40t-37 -60.5t-13 -77z" />
    <glyph glyph-name="uni043B.bgr" horiz-adv-x="512" 
d="M253.016 420.007l-154.99 -419.975h-98.9941l203.987 534.968h103.994l206.987 -534.968h-104.994z" />
    <glyph glyph-name="five.tab" horiz-adv-x="504" 
d="M140 197q3 -51 29.5 -84.5t86.5 -33.5q58 0 87.5 36.5t29.5 97.5v21q0 58 -26.5 93.5t-87.5 35.5q-46 0 -70.5 -18t-34.5 -38h-96v385h375v-89h-280v-192q14 16 45.5 30t76.5 14q100 0 148 -57.5t48 -163.5v-21q0 -50 -13.5 -91.5t-40.5 -71.5t-67.5 -46.5t-93.5 -16.5
q-57 0 -97.5 16.5t-66 45t-37 66.5t-12.5 82h97z" />
    <glyph glyph-name="uni0448.alt" horiz-adv-x="748" 
d="M326.025 535h94.9941v-342.979q0 -51.9961 21.999 -82.4941q21.999 -30.499 67.9961 -30.499q47.9971 0 70.9951 32.498q22.999 32.498 22.999 86.4951v336.979h94.9941v-534.968h-94.9941v47.9971q-6 -8.99902 -15.999 -18.498q-9.99902 -9.5 -24.498 -17.499
q-14.5 -8 -33.998 -12.999q-19.499 -5 -44.498 -5q-52.9961 0 -84.4941 20.498q-31.498 20.499 -47.4971 50.4971q-17.999 -28.998 -50.9971 -49.9971q-32.998 -20.998 -85.9951 -20.998q-45.9971 0 -78.9951 14.499t-52.9961 39.9971q-19.999 25.499 -29.499 58.9971
q-9.49902 33.498 -9.49902 72.4951v354.979h94.9941v-343.979q0 -51.9971 21.999 -81.9951q21.998 -29.999 68.9951 -29.999q45.9971 0 69.4961 30.999q23.498 30.998 24.498 80.9951v343.979z" />
    </font>
</defs>
</svg>
