<svg width="390" height="264" viewBox="0 0 390 264" fill="none" xmlns="http://www.w3.org/2000/svg">
<g clip-path="url(#clip0_297_29067)">
<path d="M359.939 63.8272C359.041 63.8272 358.04 64.2424 356.867 65.1076C355.693 65.9727 354.416 66.907 353.07 67.9452C351.724 68.9834 350.275 69.9523 348.756 70.7828C347.238 71.648 345.685 72.0632 344.098 72.0632C343.96 72.0632 342.855 71.8556 342.682 70.6444C342.613 70.1945 342.579 69.7101 342.579 69.2256C342.579 67.3223 343.097 65.0038 344.132 62.2353C345.167 59.4669 346.34 56.6985 347.652 53.8609C348.963 51.0578 350.102 48.3932 351.172 45.867C352.207 43.3755 352.725 41.4376 352.725 40.1226C352.725 39.2228 352.449 38.4269 351.931 37.6656C351.379 36.9043 350.654 36.5236 349.688 36.5236C348.722 36.5236 347.79 37.4234 346.789 39.1882C345.823 40.9531 344.753 43.1678 343.614 45.8324C342.475 48.497 341.233 51.3693 339.887 54.4492C338.541 57.529 336.953 60.4013 335.193 63.0659C333.433 65.7305 331.431 67.9452 329.222 69.7101C327.013 71.4749 324.494 72.3747 321.629 72.3747C321.077 72.3747 320.629 72.0978 320.352 71.5788C320.076 71.0251 319.835 70.4022 319.697 69.6755C319.524 68.9488 319.455 68.2221 319.421 67.4953C319.421 66.7686 319.386 66.2149 319.386 65.8343C319.386 63.4811 319.766 60.9895 320.56 58.3249C321.353 55.6603 322.251 53.1342 323.217 50.7118C324.183 48.2894 325.081 46.1093 325.875 44.1368C326.668 42.1643 327.048 40.6763 327.048 39.6727C327.048 38.9114 326.806 38.1847 326.289 37.4926C325.771 36.8005 325.081 36.4544 324.218 36.4544C322.837 36.4544 321.837 36.9735 321.284 37.977V37.8732C319.317 40.1572 317.453 42.5449 315.693 45.0019C313.933 47.4589 312.035 49.8813 310.482 52.5113C305.857 60.2282 299.092 66.9071 297.712 67.9798C296.366 69.018 294.916 69.9869 293.398 70.8174C291.879 71.6826 290.326 72.0978 288.738 72.0978C288.6 72.0978 288.462 72.0978 288.324 71.994C288.152 71.9248 288.013 71.8556 287.91 71.821C287.599 71.5095 287.392 71.1289 287.323 70.679C287.254 70.2292 287.22 69.7447 287.22 69.2602C287.22 67.3569 287.737 65.0384 288.773 62.2699C289.808 59.5015 290.982 56.7331 292.293 53.8955C293.605 51.0924 294.744 48.4278 295.813 45.9016C296.849 43.4101 297.367 41.4722 297.367 40.1572C297.367 39.2574 297.09 38.4615 296.573 37.7002C296.021 36.9389 295.296 36.5582 294.329 36.5582C293.363 36.5582 292.431 37.458 291.43 39.2228C290.464 40.9877 289.394 43.2024 288.255 45.867C287.116 48.5316 285.874 51.4039 284.528 54.4838C283.182 57.5636 281.594 60.4359 279.834 63.1005C278.074 65.7651 276.072 67.9798 273.863 69.7447C271.654 71.5096 269.135 72.4093 266.27 72.4093C265.683 72.4093 265.269 72.1324 264.993 71.6134C264.717 71.0597 264.475 70.4368 264.337 69.7101C264.165 68.9834 264.096 68.2567 264.061 67.5299C264.061 66.8032 264.027 66.2495 264.027 65.8689C264.027 63.5157 264.406 61.0241 265.2 58.3595C265.994 55.6949 266.891 53.1688 267.858 50.7464C268.824 48.324 269.721 46.1439 270.515 44.1714C271.309 42.1989 271.689 40.7109 271.689 39.7073C271.689 38.946 271.447 38.2193 270.929 37.5272C270.412 36.8351 269.721 36.489 268.859 36.489C268.168 36.489 267.616 36.5928 267.202 36.8351C266.788 37.0427 266.443 37.3541 266.201 37.7002C265.96 38.0463 265.718 38.4615 265.545 38.946C265.338 39.4305 265.166 39.9149 264.959 40.434C264.717 41.0569 264.096 42.1297 263.164 43.6523C262.232 45.1749 261.093 46.8706 259.782 48.7739C258.47 50.6772 257.09 52.6843 255.571 54.7606C254.052 56.8369 249.221 63.2389 237.313 71.4057C235.726 72.4785 234.104 72.9976 232.516 73.1014L232.413 71.5788C232.413 70.8174 232.585 69.6755 232.93 68.1528C233.275 66.6302 233.724 64.8999 234.242 62.9274C234.794 60.9549 235.381 58.9132 236.036 56.7331C236.692 54.5876 237.348 52.4766 237.969 50.4695C238.59 48.4278 239.177 46.5938 239.729 44.8981C240.282 43.2024 240.696 41.8874 241.006 40.8493H240.903C241.075 40.261 241.283 39.6727 241.421 39.0498C241.559 38.4269 241.662 37.7694 241.662 37.1465C241.662 36.0738 241.421 35.4509 240.903 35.2432C240.385 35.0356 239.695 34.9664 238.832 34.9664C238.004 34.9664 237.383 35.1394 236.934 35.5201C236.485 35.9007 236.14 36.3506 235.898 36.9043C235.657 37.458 235.45 38.0463 235.277 38.6691C235.105 39.292 234.863 39.8803 234.552 40.3648C233.655 41.8182 232.516 43.1332 231.136 44.3098C229.755 45.4864 228.236 46.5592 226.58 47.5281C224.923 48.497 223.232 49.3622 221.506 50.0889C219.781 50.8156 218.124 51.4385 216.606 51.9576C216.847 51.3347 217.296 50.2619 217.883 48.8085C218.469 47.3551 219.09 45.867 219.677 44.3444C220.264 42.8218 220.816 41.403 221.23 40.1226C221.644 38.8422 221.886 37.977 221.886 37.5964C221.886 36.9043 221.506 36.2814 220.782 35.7277C220.057 35.174 219.367 34.9318 218.745 34.9318C217.537 34.9318 216.571 35.5547 215.812 36.8351C214.673 38.8076 213.016 41.2645 210.876 44.2406C208.736 47.2167 206.424 50.1927 203.939 53.1688C201.489 56.1448 198.969 58.844 196.415 61.301C193.861 63.758 188.581 68.4297 182.748 71.3711C180.988 72.2709 179.262 72.7553 177.467 72.7553C176.018 72.7553 175.017 72.167 174.465 70.9905C173.913 69.8139 173.671 68.6373 173.671 67.4261C173.671 65.3844 173.982 62.9967 174.637 60.2628C175.259 57.4944 176.225 54.899 177.536 52.4074C178.848 49.9505 180.436 47.8395 182.334 46.0747C184.232 44.3098 186.441 43.4447 188.96 43.4447C189.409 43.4447 189.823 43.5831 190.203 43.8599C190.583 44.1368 190.893 44.4482 191.135 44.7597C191.342 44.7597 191.514 44.7597 191.756 44.7943C191.963 44.7943 192.17 44.8289 192.377 44.8289C193.137 44.8289 193.861 44.552 194.552 44.033C195.242 43.4793 195.587 42.8218 195.587 41.9913C195.587 41.0915 195.345 40.3648 194.828 39.7419C194.31 39.1536 193.689 38.6345 192.964 38.2539C192.239 37.8732 191.445 37.5964 190.583 37.3888C189.72 37.2157 188.96 37.1119 188.27 37.1119C186.303 37.1119 184.439 37.5618 182.679 38.4961C180.919 39.4305 179.228 40.6417 177.606 42.1643C175.983 43.6869 174.465 45.3826 173.015 47.2859C171.566 49.1891 170.22 51.127 168.977 53.0995C167.735 55.072 166.596 57.0099 165.526 58.9132C164.456 60.8165 163.49 62.4776 162.592 63.8618C163.041 62.0969 163.593 60.159 164.249 58.0481C164.905 55.9372 165.526 53.8263 166.113 51.6461C166.699 49.466 167.183 47.3205 167.597 45.1749C168.011 43.064 168.218 41.0915 168.218 39.3266C168.218 38.6345 168.045 37.9424 167.631 37.2849C167.252 36.6274 166.665 36.2814 165.837 36.2814C165.146 36.2814 164.18 36.9043 162.937 38.1501C161.695 39.3959 160.487 40.8147 159.244 42.3719C158.002 43.9291 156.863 45.521 155.793 47.0782C154.723 48.6355 153.964 49.7428 153.515 50.3657C153.653 48.6009 153.619 46.9398 153.481 45.4172C153.308 43.8945 152.929 42.5795 152.238 41.4376C151.548 40.2956 150.616 39.3959 149.339 38.773C148.062 38.1501 146.44 37.8386 144.404 37.8386C141.574 37.8386 138.951 38.4961 136.569 39.7765C134.188 41.0915 132.013 42.718 129.977 44.6905C127.941 46.663 126.077 48.8085 124.386 51.0924C122.695 53.411 116.483 61.8893 115.654 63.0313C114.826 64.1732 109.2 69.9177 107.682 70.7828C106.163 71.648 104.61 72.0632 103.022 72.0632C102.884 72.0632 102.746 72.0632 102.608 71.9594C102.436 71.8902 102.298 71.821 102.194 71.7864C101.883 71.4749 101.676 71.0943 101.607 70.6444C101.538 70.1945 101.504 69.7101 101.504 69.2256C101.504 67.3223 102.021 65.0038 103.057 62.2353C104.092 59.4669 105.266 56.6985 106.577 53.8609C107.889 51.0578 109.028 48.3932 110.098 45.867C111.133 43.3755 111.651 41.4376 111.651 40.1226C111.651 39.2228 111.375 38.4269 110.857 37.6656C110.305 36.9043 109.58 36.5236 108.613 36.5236C107.647 36.5236 106.715 37.4234 105.714 39.1882C104.748 40.9531 103.678 43.1678 102.539 45.8324C101.4 48.497 100.158 51.3693 98.8117 54.4492C97.4657 57.529 95.8781 60.4013 94.1179 63.0659C92.3577 65.7305 90.356 67.9452 88.1471 69.7101C85.9383 71.4749 83.4188 72.3747 80.5542 72.3747C79.9675 72.3747 79.5533 72.0978 79.2772 71.5788C79.0011 71.0251 78.7595 70.4022 78.6215 69.6755C78.4489 68.9488 78.3799 68.2221 78.3453 67.4953C78.3453 66.7686 78.3108 66.2149 78.3108 65.8343C78.3108 63.4811 78.6905 60.9895 79.4843 58.3249C80.2781 55.6603 81.1754 53.1342 82.1418 50.7118C83.1082 48.2894 84.0055 46.1093 84.7993 44.1368C85.5931 42.1643 85.9728 40.6763 85.9728 39.6727C85.9728 38.9114 85.7312 38.1847 85.2135 37.4926C84.6958 36.8005 84.0055 36.4544 83.1427 36.4544C82.4524 36.4544 81.9002 36.5582 81.4861 36.8005C81.0719 37.0081 80.7268 37.3195 80.4852 37.6656C80.2436 38.0116 80.002 38.4269 79.8294 38.9114C79.6223 39.3959 79.4498 39.8803 79.2427 40.3994C79.0011 41.0223 78.3799 42.0951 77.448 43.6177C76.5162 45.1403 75.3772 46.836 74.0657 48.7393C72.7542 50.6426 71.3737 52.6497 69.8551 54.726C64.7471 61.6817 58.5692 66.6648 57.3613 67.4607C56.1533 68.2567 54.3931 69.4332 53.2542 70.1253C52.1153 70.8174 51.0799 71.4057 50.1135 71.8902C49.1816 72.3747 48.4569 72.6169 48.0427 72.6169C47.2144 72.6169 46.7657 72.3747 46.6622 71.8902C46.5586 71.4057 46.5241 70.852 46.5241 70.2291C46.5241 64.4501 47.1799 58.8094 48.5259 53.3072C49.8719 47.8049 51.356 42.3027 52.9781 36.8697C54.4967 36.1776 56.2223 35.347 58.1896 34.3435C60.1569 33.3746 62.1586 32.2672 64.1604 31.056C66.1967 29.8448 68.1639 28.5298 70.0967 27.0764C72.0294 25.623 73.7206 24.0658 75.2046 22.4739C76.6887 20.8475 77.8967 19.1172 78.794 17.2831C79.7259 15.449 80.1745 13.5458 80.1745 11.5733C80.1745 10.0506 79.933 8.63181 79.4498 7.28221C78.9666 5.9326 78.3108 4.79063 77.448 3.82168C76.5852 2.85273 75.5498 2.05681 74.3073 1.43392C73.0648 0.845628 71.6843 0.53418 70.0967 0.53418C67.6462 0.53418 65.4029 1.08786 63.4701 2.16063C61.5029 3.23339 59.7772 4.65221 58.2931 6.38247C56.8091 8.11273 55.4976 10.1544 54.3586 12.4384C53.2197 14.7223 52.2533 17.0409 51.425 19.4287C50.5967 21.8164 49.8719 24.135 49.2507 26.4535C48.6294 28.7721 48.0427 30.883 47.5595 32.7863L31.8216 40.1226C33.6508 34.2397 35.3073 28.3222 36.7914 22.3701C38.2754 16.4526 39.6905 10.4659 41.002 4.44458L40.6223 2.92194C40.2427 2.54129 39.794 2.16063 39.3108 1.81458C38.8276 1.46852 38.2754 1.2955 37.6887 1.2955C37.4471 1.2955 36.7223 1.67615 35.5144 2.47208C34.3065 3.268 32.8915 4.27155 31.3039 5.48273C29.6817 6.69392 27.9561 8.00892 26.1269 9.46234C24.2977 10.9158 22.6065 12.3346 21.0534 13.6842C19.5003 15.0338 18.2233 16.2796 17.2224 17.3523C16.2216 18.4251 15.7039 19.1864 15.7039 19.6363C15.7039 20.4668 15.98 21.1589 16.4977 21.678C17.0499 22.2317 17.7401 22.4739 18.6375 22.4739C19.2242 22.4739 20.1216 22.1279 21.3985 21.4358C22.6755 20.7437 24.0216 19.9131 25.4366 19.0134C26.8516 18.1137 28.2322 17.1793 29.5092 16.3142C30.8207 15.4144 31.7525 14.7915 32.3047 14.4109L24.7118 43.0294C21.9162 44.3098 19.0862 45.7286 16.187 47.3205C13.2879 48.9123 10.6304 50.7464 8.21448 52.8919C5.79855 55.0374 3.83129 57.4252 2.27821 60.1244C0.725111 62.8236 -0.0341797 65.9035 -0.0341797 69.3986C-0.0341797 72.6861 1.07024 75.1431 3.24458 76.7695C5.4189 78.396 8.04191 79.1919 11.0791 79.1919C13.357 79.1919 15.3587 78.6382 17.1189 77.5309C18.8791 76.4235 20.3286 74.9701 21.5711 73.1706C22.8136 71.3711 23.849 69.2948 24.7463 66.9762C25.6437 64.6577 26.403 62.3045 27.0242 59.9514C27.6455 57.5636 28.1977 55.2797 28.6463 53.0649C29.095 50.8502 29.5437 48.8777 29.9578 47.182C32.6154 45.9709 35.2383 44.7251 37.8268 43.4101C40.4153 42.0951 43.0728 40.9531 45.7993 39.9495C44.4878 44.7597 43.2108 49.6044 42.0374 54.4838C40.8639 59.3631 40.2772 64.3463 40.2772 69.3986C40.2772 70.7136 40.3807 71.994 40.6223 73.1706C40.8639 74.3472 41.2436 75.3507 41.8648 76.2159C42.4515 77.081 43.2453 77.7385 44.2462 78.2576C45.2126 78.7766 46.4896 79.0189 47.9737 79.0189C48.6639 79.0189 49.6303 78.8113 50.8038 78.3614C52.0117 77.9115 53.3232 77.3232 54.7383 76.5619C56.1533 75.8006 57.5684 74.9355 59.0179 74.0011C60.433 73.0668 61.7445 72.0978 62.9179 71.0943C62.9179 71.0943 62.9524 71.0597 62.9869 71.0251C63.4701 70.7482 66.8869 67.4953 68.0604 66.0765C69.2338 64.6577 70.3383 63.3081 71.3391 61.9239C72.34 60.5743 73.0648 59.6053 73.41 59.017C73.0993 60.332 72.8232 61.7163 72.5471 63.1005C72.3055 64.4847 72.1675 65.9035 72.1675 67.2877C72.1675 70.852 72.9268 73.6205 74.4454 75.593C75.9639 77.6001 78.5869 78.6036 82.3144 78.6036C83.6949 78.6036 85.0409 78.3614 86.2834 77.8769C87.5604 77.3924 88.7338 76.7695 89.8728 76.0082C91.0117 75.2469 92.0816 74.3818 93.0825 73.4474C94.0834 72.5131 95.0498 71.5442 95.9471 70.6098C96.0161 72.8245 96.6029 74.6932 97.7073 76.1813C98.8117 77.6693 100.572 78.4306 102.988 78.4306C104.265 78.4306 105.852 78.0499 107.82 77.2886C109.787 76.5273 112.03 75.8006 113.583 74.278C122.177 65.9035 129.736 52.9265 131.496 50.954C133.256 48.9815 135.12 47.3551 137.121 46.0401C139.158 44.7251 141.401 44.1022 143.852 44.1022C146.302 44.1022 147.648 45.4172 147.648 48.0818C147.648 50.5042 147.165 53.2034 146.233 56.214C145.267 59.2247 143.955 62.0623 142.298 64.7269C140.642 67.3915 138.606 69.6409 136.259 71.4749C133.912 73.309 131.358 74.2434 128.562 74.2434C128.113 74.2434 127.699 74.1049 127.32 73.8281C126.94 73.5513 125.87 72.7553 125.145 72.8245C124.421 72.8938 123.661 73.1014 122.971 73.6205C122.281 74.1741 121.936 74.8316 121.936 75.6622C121.936 76.5619 122.177 77.2886 122.695 77.9115C123.213 78.4998 123.834 79.0189 124.559 79.3995C125.283 79.7802 126.077 80.057 126.94 80.2647C127.803 80.4377 128.562 80.5415 129.252 80.5415C131.22 80.5415 133.187 80.0571 135.12 79.1227C137.087 78.1884 138.985 76.908 140.814 75.3161C142.644 73.7243 144.438 71.9594 146.164 69.9869C147.89 68.0144 149.546 66.0073 151.099 63.931C152.652 61.8547 154.067 59.8822 155.31 57.9789C156.587 56.0756 157.726 54.3799 158.727 52.9265C158.416 53.9993 157.933 55.6949 157.312 57.9789C156.69 60.2628 156.035 62.6506 155.379 65.1076C154.723 67.5645 154.137 69.9177 153.688 72.0978C153.205 74.278 152.963 75.8352 152.963 76.7003C152.963 77.5309 153.101 78.3614 153.446 79.2265C153.757 80.0917 154.447 80.5069 155.517 80.5069C156.276 80.5069 157.243 79.9186 158.451 78.7074C159.659 77.4963 160.867 76.0774 162.109 74.4856C163.352 72.8591 164.49 71.2673 165.526 69.7447C166.561 68.1874 167.321 67.0801 167.769 66.3534C167.631 68.1182 167.666 69.7793 167.804 71.3019C167.942 72.8245 168.39 74.1395 169.046 75.2815C169.702 76.4235 170.668 77.3232 171.945 77.9807C173.222 78.6382 174.844 78.9843 176.881 78.9843C177.571 78.9843 178.537 78.7767 179.78 78.396C181.022 78.0153 182.368 77.4963 183.852 76.8388C185.337 76.1813 186.855 75.4199 188.374 74.5548C189.892 73.6897 195.483 69.7447 200.281 64.9346C202.006 63.2043 203.629 61.474 205.113 59.7438C206.597 58.0135 207.632 56.8023 208.184 56.041C207.598 57.7366 206.976 59.4323 206.286 61.0934C205.596 62.7544 204.94 64.4155 204.284 66.1457H204.388C204.215 66.5956 203.905 67.2877 203.525 68.2913C203.145 69.2602 202.766 70.2984 202.352 71.3365C201.937 72.3747 201.592 73.3782 201.247 74.3472C200.902 75.3161 200.764 75.939 200.764 76.2505C200.764 76.9426 201.109 77.5655 201.868 78.1191C202.628 78.6728 203.283 78.9151 203.905 78.9151C204.526 78.9151 205.216 78.5344 205.906 77.7385C206.597 76.9426 207.287 75.939 207.943 74.6932C208.598 73.4474 209.254 72.0978 209.841 70.6098C210.428 69.1218 210.98 67.6684 211.498 66.2495C212.015 64.8307 212.464 63.5503 212.809 62.4084C213.189 61.2664 213.465 60.4359 213.672 59.9514H213.568L213.672 59.7784C216.709 58.8786 219.746 57.7366 222.783 56.3524C225.821 54.9682 228.651 53.411 231.308 51.6807C230.998 52.7535 230.549 54.2761 229.928 56.214C229.341 58.1519 228.754 60.159 228.167 62.2699C227.581 64.3809 227.098 66.388 226.649 68.3259C226.2 70.2638 225.993 71.7172 225.993 72.6515C225.993 74.4856 226.58 76.0774 227.788 77.3924C228.996 78.7074 230.549 79.3995 232.447 79.3995C233.517 79.3995 235.105 78.9151 237.175 77.9807C239.246 77.0464 246.321 71.8902 248.22 70.2984C250.463 68.3951 255.882 63.4119 256.917 62.0623C257.918 60.7127 258.643 59.7438 258.988 59.1555C258.677 60.4705 258.401 61.8547 258.125 63.2389C257.883 64.6231 257.745 66.0419 257.745 67.4261C257.745 70.9905 258.505 73.7589 260.023 75.7314C261.542 77.7385 264.165 78.742 267.892 78.742C269.273 78.742 270.619 78.4998 271.861 78.0153C273.138 77.5309 274.312 76.908 275.451 76.1467C276.59 75.3853 277.659 74.5202 278.66 73.5859C279.661 72.6515 280.628 71.6826 281.525 70.7482C281.594 72.963 282.181 74.8316 283.285 76.3197C284.39 77.8077 286.15 78.569 288.566 78.569C289.843 78.569 291.43 78.1884 293.398 77.427C295.365 76.6657 297.263 75.6968 299.127 74.5202C300.99 73.3436 303.268 71.3711 304.58 69.9177C305.063 69.3986 307.686 66.0765 309.032 64.2771C310.447 62.3738 311.793 60.5397 313.001 58.8094C314.209 57.0791 314.968 55.8334 315.348 55.2797C314.83 57.2522 314.347 59.2593 313.829 61.3356C313.312 63.4119 313.07 65.4536 313.07 67.4607C313.07 71.0251 313.829 73.7935 315.348 75.766C316.867 77.7731 319.49 78.7767 323.217 78.7767C324.598 78.7767 325.944 78.5344 327.186 78.0499C328.463 77.5655 329.636 76.9426 330.775 76.1813C331.914 75.4199 332.984 74.5548 333.985 73.6205C334.986 72.6861 335.952 71.7172 336.815 70.7828C336.884 72.9976 337.471 74.8663 338.575 76.3543C339.68 77.8423 341.44 78.6036 343.856 78.6036C345.132 78.6036 346.72 78.223 348.687 77.4616C350.654 76.7003 352.553 75.7314 354.416 74.5548C356.28 73.3782 357.868 72.0632 359.214 70.6098C360.56 69.1564 361.215 67.7376 361.215 66.3188C361.215 65.7997 361.146 65.3152 361.043 64.7961C360.905 64.277 360.491 64.0348 359.8 64.0348L359.939 63.8272ZM56.671 22.8892C57.4648 20.2592 58.4657 17.733 59.7082 15.3452C60.9507 12.9229 62.4002 10.8465 64.0568 9.11629C65.748 7.38602 67.6807 6.48629 69.8896 6.48629C71.3391 6.48629 72.3745 7.03997 72.9613 8.11273C73.548 9.1855 73.8586 10.3621 73.8586 11.6425C73.8586 13.4073 73.1339 15.2068 71.6843 16.9717C70.2347 18.7365 68.5091 20.4322 66.4728 22.024C64.4365 23.6159 62.3657 25.0693 60.2259 26.3497C58.0861 27.6647 56.2914 28.6683 54.9108 29.4296C55.2905 27.7339 55.8772 25.5538 56.671 22.9238V22.8892ZM21.5711 55.8334C21.0189 58.2903 20.3286 60.8165 19.5003 63.3427C18.6375 65.8689 17.6366 68.0836 16.4632 69.9869C15.2897 71.8902 13.9092 72.8245 12.3216 72.8245C11.8039 72.8245 11.2171 72.8246 10.5269 72.7207C9.8366 72.6515 9.18085 72.5131 8.5251 72.3055C7.90386 72.0978 7.35165 71.7518 6.90297 71.3711C6.4543 70.9905 6.24722 70.4022 6.24722 69.7101C6.24722 67.0455 6.73041 64.7615 7.66227 62.8236C8.62864 60.8857 9.8366 59.1901 11.3552 57.702C12.8738 56.214 14.6339 54.899 16.6357 53.757C18.6375 52.6151 20.6738 51.5077 22.7446 50.4349C22.503 51.5769 22.0888 53.3764 21.5711 55.868V55.8334Z" fill="#B71351"/>
<path d="M332.915 30.7099C334.365 31.5751 335.883 32.2326 337.436 32.717C338.99 33.2015 340.336 33.4438 341.475 33.4438C342.303 33.4438 343.373 33.2707 344.684 32.9247C345.995 32.5786 347.307 32.0941 348.584 31.5059C349.861 30.9176 350.965 30.1909 351.897 29.3603C352.863 28.5298 353.312 27.6301 353.312 26.5919C353.312 25.7614 353.036 25.0693 352.449 24.4464C351.862 23.8235 351.172 23.5466 350.378 23.5466C349.688 23.5466 349.067 23.7197 348.48 24.1349C347.893 24.5156 347.307 24.8963 346.685 25.3115C346.064 25.7268 345.305 26.1074 344.443 26.4881C343.58 26.8688 342.579 27.0418 341.371 27.0418C339.645 27.0418 338.299 26.7303 337.298 26.142C336.298 25.5538 335.435 24.8616 334.744 24.1003C334.054 23.339 333.398 22.6469 332.812 22.0586C332.225 21.4703 331.466 21.1589 330.568 21.1589C329.809 21.1589 329.153 21.4357 328.567 22.024C327.98 22.6123 327.704 23.2698 327.704 24.0311C327.704 25.3461 328.221 26.5919 329.222 27.7339C330.223 28.8759 331.466 29.8794 332.915 30.7445V30.7099Z" fill="#B71351"/>
<path d="M386.652 64.3117C386.307 63.5503 385.789 62.9274 385.133 62.4084C384.477 61.8893 383.58 61.647 382.441 61.647C381.302 61.647 380.405 61.9585 379.542 62.5814C378.679 63.2043 377.954 64.0002 377.299 64.9691C376.677 65.9035 376.194 66.9417 375.884 68.0144C375.573 69.0872 375.4 70.0907 375.4 71.0597C375.4 72.0632 375.538 73.1014 375.815 74.1049C376.091 75.1085 376.608 75.9736 377.368 76.6657C377.195 77.1156 376.953 77.7039 376.643 78.4306C376.332 79.1573 376.091 79.9532 375.849 80.7492C375.607 81.5797 375.366 82.3756 375.193 83.1369C375.021 83.8982 374.917 84.4865 374.917 84.9364C374.917 85.7669 375.193 86.4936 375.711 87.1165C376.263 87.7394 376.953 88.0509 377.851 88.0509C378.541 88.0509 379.266 87.6702 380.025 86.9435C380.784 86.2168 381.509 85.2478 382.199 84.1059C382.89 82.9639 383.546 81.6489 384.201 80.1955C384.823 78.7767 385.375 77.3578 385.858 76.0082C386.341 74.6586 386.721 73.3782 386.997 72.2363C387.273 71.0943 387.411 70.1945 387.411 69.5716C387.411 68.6719 387.376 67.7722 387.273 66.8032C387.169 65.8343 386.962 65.0038 386.617 64.2424L386.652 64.3117Z" fill="#B71351"/>
<path d="M345.167 103.104C346.616 103.969 348.135 104.627 349.688 105.111C351.241 105.596 352.587 105.838 353.726 105.838C354.554 105.838 355.624 105.665 356.936 105.319C358.247 104.973 359.559 104.488 360.836 103.9C362.113 103.312 363.217 102.585 364.149 101.755C365.115 100.924 365.564 100.024 365.564 98.9861C365.564 98.1556 365.288 97.4635 364.701 96.8406C364.115 96.2177 363.424 95.9409 362.63 95.9409C361.94 95.9409 361.319 96.1139 360.732 96.5291C360.146 96.9098 359.559 97.2905 358.938 97.7057C358.316 98.121 357.557 98.5016 356.694 98.8823C355.831 99.263 354.83 99.436 353.622 99.436C351.897 99.436 350.551 99.1245 349.55 98.5363C348.549 97.948 347.686 97.2559 346.996 96.4945C346.306 95.7332 345.65 95.0411 345.063 94.4528C344.477 93.8645 343.717 93.5531 342.82 93.5531C342.061 93.5531 341.405 93.8299 340.818 94.4182C340.231 95.0065 339.955 95.664 339.955 96.4253C339.955 97.7403 340.473 98.9861 341.474 100.128C342.475 101.27 343.717 102.274 345.167 103.139V103.104Z" fill="#B71351"/>
<path d="M372.191 136.256C371.293 136.256 370.292 136.671 369.119 137.536C367.945 138.402 366.669 139.336 365.323 140.374C363.977 141.412 362.527 142.381 361.008 143.212C359.49 144.077 357.937 144.492 356.349 144.492C356.211 144.492 356.073 144.492 355.935 144.388C355.762 144.319 355.624 144.25 355.521 144.215C355.21 143.904 355.003 143.523 354.934 143.073C354.865 142.623 354.83 142.139 354.83 141.654C354.83 139.751 355.348 137.433 356.384 134.664C357.419 131.896 358.592 129.127 359.904 126.29C361.215 123.487 362.354 120.822 363.424 118.296C364.46 115.804 364.977 113.866 364.977 112.551C364.977 111.652 364.701 110.856 364.184 110.094C363.631 109.333 362.907 108.952 361.94 108.952C360.974 108.952 360.042 109.852 359.041 111.617C358.075 113.382 357.005 115.597 355.866 118.261C354.727 120.926 353.484 123.798 352.138 126.878C350.792 129.958 349.205 132.83 347.445 135.495C345.684 138.159 343.682 140.374 341.473 142.139C339.264 143.904 336.745 144.804 333.88 144.804C333.328 144.804 332.879 144.527 332.603 144.008C332.327 143.454 332.086 142.831 331.947 142.104C331.775 141.378 331.706 140.651 331.671 139.924C331.671 139.197 331.637 138.644 331.637 138.263C331.637 135.91 332.016 133.418 332.81 130.754C333.604 128.089 334.501 125.563 335.468 123.141C336.434 120.718 337.332 118.538 338.125 116.566C338.919 114.593 339.299 113.105 339.299 112.102C339.299 111.34 339.057 110.613 338.539 109.921C338.022 109.229 337.332 108.883 336.469 108.883C335.088 108.883 334.087 109.402 333.535 110.406V110.302C331.568 112.586 329.704 114.974 327.944 117.431C326.184 119.888 324.424 122.414 322.732 124.94C321.007 127.466 319.523 130.165 317.624 132.553C313.207 137.986 310.239 139.959 308.72 141.066C307.201 142.173 305.614 143.177 303.992 144.111C302.335 145.046 300.782 145.496 299.263 145.496C298.332 145.496 297.848 144.977 297.848 143.973C297.848 143.039 298.159 141.724 298.78 140.028C299.401 138.367 300.23 136.498 301.196 134.457C302.163 132.415 303.232 130.304 304.371 128.089C305.51 125.874 306.58 123.764 307.547 121.756C308.513 119.749 309.341 117.984 309.962 116.393C310.584 114.801 310.894 113.59 310.894 112.69C310.894 111.859 310.653 111.098 310.135 110.371C309.617 109.645 308.927 109.264 308.064 109.264C306.787 109.264 305.855 109.818 305.234 110.925C304.613 112.032 304.095 113.105 303.716 114.109C302.577 112.655 301.162 111.409 299.505 110.406C297.848 109.402 296.019 108.883 294.052 108.883C292.223 108.883 290.359 109.125 288.461 109.645C286.563 110.164 284.733 110.856 282.904 111.721C281.075 112.586 279.418 113.659 277.831 114.87C276.243 116.081 274.897 117.362 273.758 118.78C270.79 122.379 267.787 125.909 264.75 129.335C263.163 131.134 254.534 139.094 252.843 140.547C251.152 142 249.357 143.35 247.424 144.527C245.492 145.703 243.594 146.326 241.695 146.326C240.729 146.326 239.693 146.015 238.555 145.426C237.416 144.838 236.829 143.938 236.829 142.796C236.829 141.032 237.243 139.44 238.106 138.09C238.969 136.74 240.004 135.46 241.281 134.283C242.558 133.107 243.939 132.034 245.457 131.065C246.976 130.096 248.356 129.058 249.633 128.02C250.91 126.982 251.946 125.874 252.809 124.698C253.671 123.521 254.086 122.206 254.086 120.753C254.086 116.946 253.016 114.109 250.91 112.205C248.805 110.302 245.871 109.368 242.144 109.368C239.417 109.368 237.105 109.921 235.172 111.063C233.24 112.205 231.548 113.451 230.099 114.766C228.649 116.081 227.338 117.327 226.199 118.469C225.819 118.85 224.266 119.472 223.921 119.576C223.162 119.784 222.333 119.922 221.471 119.922C220.849 119.922 219.607 119.715 219.572 119.715C218.951 119.576 218.364 119.369 217.778 119.126C216.57 118.573 215.5 117.846 214.499 116.946C213.498 116.047 212.67 115.008 211.979 113.901C211.289 112.794 210.909 111.755 210.288 110.717C210.047 110.337 209.701 109.921 209.287 109.645C208.873 109.402 208.424 109.264 207.907 109.264C206.975 109.264 206.181 109.679 205.525 110.51C204.455 109.921 203.351 109.541 202.212 109.264C201.073 109.022 199.9 108.883 198.692 108.883C197.035 108.883 195.482 109.16 193.998 109.679C192.514 110.233 191.099 110.925 189.787 111.755C188.476 112.621 187.199 113.59 186.025 114.697C184.852 115.804 183.747 116.981 182.747 118.157C180.71 120.58 178.847 123.071 177.121 125.632C175.395 128.193 173.566 130.719 171.668 133.176C170.909 134.11 169.977 135.079 168.907 136.083C168.424 136.533 167.975 136.983 167.561 137.433C167.526 137.433 167.457 137.467 167.423 137.502C166.249 138.367 164.972 139.301 163.626 140.339C162.28 141.378 160.831 142.347 159.312 143.177C157.794 144.042 156.24 144.457 154.653 144.457C154.515 144.457 154.377 144.457 154.239 144.354C154.066 144.284 153.928 144.215 153.824 144.181C153.514 143.8 153.307 143.385 153.203 142.935C153.1 142.485 153.065 142 153.065 141.516C153.065 140.201 153.307 138.609 153.824 136.81C154.342 135.01 154.963 133.107 155.723 131.134C156.482 129.162 157.31 127.189 158.173 125.252C159.036 123.314 159.899 121.445 160.624 119.68C161.383 117.95 162.004 116.393 162.522 115.078C163.04 113.763 163.281 112.724 163.281 112.032C163.281 111.133 163.005 110.406 162.487 109.783C161.935 109.195 161.21 108.883 160.244 108.883C159.554 108.883 158.656 109.437 157.552 110.51C156.447 111.582 155.171 113.001 153.755 114.801C152.34 116.566 150.787 118.573 149.165 120.857C147.543 123.141 145.817 125.39 144.092 127.743C142.366 130.096 140.606 132.38 138.88 134.63C137.155 136.879 135.463 138.851 133.91 140.582C134.497 138.125 135.187 135.391 135.981 132.415C136.809 129.439 137.569 126.567 138.294 123.798C139.018 121.03 139.64 118.573 140.192 116.427C140.744 114.282 140.986 112.828 140.986 112.067C140.986 111.167 140.709 110.44 140.192 109.818C139.64 109.229 138.915 108.918 137.948 108.918C137.258 108.918 136.119 109.783 134.532 111.548C132.944 113.278 131.115 115.493 129.044 118.123C126.973 120.753 124.73 123.59 122.348 126.636C119.967 129.681 117.655 132.519 115.377 135.149C113.099 137.779 110.959 139.959 108.957 141.724C106.955 143.454 105.299 144.354 103.987 144.354C103.608 144.354 103.228 144.181 102.883 143.835C102.538 143.488 102.227 143.073 101.986 142.589C101.744 142.104 101.537 141.62 101.364 141.101C101.192 140.582 101.123 140.166 101.123 139.855C101.123 139.163 101.261 138.471 101.537 137.813C101.813 137.156 101.951 136.429 101.951 135.668C101.951 135.149 101.778 134.699 101.468 134.249C101.157 133.799 100.709 133.591 100.156 133.591C99.3971 133.591 98.7068 133.799 98.1201 134.214C97.5333 134.63 96.9466 135.079 96.636 135.737C96.0148 137.052 95.1174 139.924 94.5997 140.789C94.0475 141.654 93.4263 142.416 92.667 143.073C91.9077 143.731 91.0794 144.25 90.1475 144.63C89.2157 145.011 88.2838 145.219 87.3519 145.219C86.5236 145.219 85.8679 145.046 85.3157 144.734C84.7634 144.423 84.3148 144.008 83.9351 143.488C86.0749 140.685 87.6971 137.536 88.767 134.041C89.8369 130.512 90.3891 126.843 90.3891 123.071C90.3891 118.815 89.2156 115.389 86.8687 112.794C84.5218 110.198 81.1741 108.883 76.8254 108.883C73.8572 108.883 70.9581 109.818 68.0935 111.686C65.2634 113.555 62.7094 115.873 60.5006 118.642C58.2918 121.41 56.4971 124.421 55.151 127.674C53.805 130.927 53.1148 133.937 53.1148 136.671C53.1148 137.26 53.1838 137.779 53.2183 138.367C52.528 138.886 51.8378 139.37 51.0785 139.959C49.9741 140.824 48.8351 141.62 47.6962 142.381C46.5572 143.142 45.4528 143.835 44.3829 144.388C41.9325 145.599 40.8971 145.288 40.7935 144.388C40.4829 142.243 41.0696 140.132 41.5873 138.125C42.1395 136.083 42.7263 134.041 43.382 132C44.0378 129.958 44.659 127.882 45.1767 125.805C45.7289 123.729 45.9705 121.653 45.9705 119.472C45.9705 117.95 45.6599 116.566 45.0732 115.32C44.4864 114.074 43.6926 113.036 42.6917 112.136C41.7254 111.236 40.5519 110.579 39.2404 110.094C37.9289 109.61 36.5484 109.368 35.1679 109.368C33.5801 109.368 31.958 109.714 30.2669 110.371C28.5757 111.029 27.0571 111.721 25.6766 112.413C25.8147 111.513 25.6076 110.717 25.0554 109.956C24.5032 109.195 23.7439 108.814 22.743 108.814C22.2253 108.814 21.7766 108.952 21.3279 109.195C21.0863 109.333 20.5686 110.337 19.7748 112.205C18.981 114.074 18.0492 116.358 16.9793 119.092C15.9093 121.826 14.7704 124.767 13.597 127.985C12.4235 131.204 11.3536 134.214 10.3872 137.052C9.42085 139.89 8.59254 142.347 7.93678 144.423C7.28103 146.499 6.9359 147.71 6.9359 148.091C6.9359 148.991 7.212 149.787 7.7297 150.513C8.28192 151.24 9.00669 151.621 9.97307 151.621C11.2846 151.621 12.389 150.721 13.2518 148.956C14.1147 147.191 14.9085 144.977 15.6678 142.312C16.427 139.647 17.2554 136.775 18.1182 133.661C19.0155 130.546 20.1545 127.674 21.6386 125.009C23.0881 122.345 24.9173 120.13 27.0916 118.365C29.266 116.6 32.0616 115.7 35.4785 115.7C36.3758 115.7 37.3077 116.047 38.2741 116.704C39.2404 117.362 39.7581 118.227 39.7581 119.23C39.7581 121.376 39.5165 123.487 38.9988 125.494C38.4811 127.535 37.9634 129.577 37.3767 131.619C36.79 133.695 36.2723 135.737 35.7546 137.744C35.2369 139.786 34.9953 141.862 34.9953 144.008C34.9953 146.534 35.3749 148.472 36.1687 149.752C36.9625 151.067 38.7572 151.69 41.5183 151.69C42.105 151.69 42.9333 151.448 44.0723 150.929C45.2112 150.41 46.4882 149.752 47.8687 148.922C49.2493 148.091 50.6643 147.191 52.1484 146.153C53.0457 145.53 53.7705 144.907 54.5643 144.284C55.082 145.461 55.6687 146.568 56.4625 147.537C58.7059 150.306 62.1572 151.69 66.8511 151.69C69.5776 151.69 72.028 151.309 74.2024 150.513C76.3767 149.717 78.3785 148.645 80.2422 147.226C81.5192 148.126 82.8652 148.852 84.2802 149.406C85.6953 149.96 87.1794 150.271 88.698 150.271C89.6988 150.271 90.8723 149.994 92.1493 149.406C93.4608 148.818 94.6687 148.091 95.8422 147.226C96.3254 146.88 96.7395 146.465 97.1537 146.084C97.3608 146.43 97.5333 146.776 97.7749 147.087C98.5342 148.056 99.4661 148.852 100.571 149.475C101.675 150.098 102.952 150.375 104.401 150.375C105.471 150.375 106.783 149.89 108.336 148.956C109.889 148.022 111.546 146.776 113.306 145.253C115.066 143.731 116.895 142.035 118.724 140.166C120.554 138.298 122.279 136.464 123.832 134.664C125.42 132.865 126.835 131.204 128.043 129.681C129.286 128.158 130.183 126.982 130.735 126.151C130.148 130.339 129.596 133.799 129.078 136.567C128.526 139.336 128.147 141.551 127.836 143.212C127.56 144.907 127.422 146.153 127.491 147.018C127.56 147.883 127.94 148.541 128.63 148.956C129.009 149.198 129.493 149.371 130.045 149.475C130.597 149.579 131.391 149.406 132.426 148.956C133.013 148.506 133.703 147.814 134.566 146.88C135.429 145.945 136.361 144.838 137.362 143.662C138.363 142.45 139.432 141.17 140.537 139.751C141.641 138.367 142.78 136.983 143.919 135.668C145.058 134.353 146.128 133.072 147.129 131.896C148.13 130.719 149.096 129.716 149.959 128.885C149.062 130.858 148.268 132.968 147.509 135.218C146.749 137.467 146.37 139.717 146.37 141.931C146.37 143.004 146.577 144.077 146.991 145.15C147.405 146.222 147.957 147.191 148.648 148.056C149.338 148.922 150.201 149.579 151.201 150.098C152.202 150.617 153.272 150.859 154.411 150.859C155.688 150.859 157.276 150.479 159.243 149.717C161.21 148.956 163.109 147.987 164.972 146.811C166.801 145.669 168.355 144.388 169.666 142.969C170.356 142.45 171.047 141.862 171.702 141.17C172.358 140.478 172.979 139.786 173.566 139.094C174.153 138.402 174.567 137.813 174.878 137.398C175.016 141.758 176.189 145.253 178.398 147.849C180.607 150.444 183.989 151.759 188.545 151.759C192.721 151.759 196.241 150.963 199.106 149.337C201.971 147.71 204.352 145.565 206.216 142.935C208.079 140.27 209.46 137.225 210.392 133.764C211.324 130.304 211.876 126.774 212.048 123.175C213.325 124.248 214.706 125.044 216.224 125.563C217.743 126.082 219.331 126.186 220.953 126.324C223.403 126.532 226.958 125.874 228.684 124.629C229.961 123.694 230.996 122.379 232.135 121.064C233.274 119.749 234.586 118.573 236.07 117.5C237.554 116.427 239.521 115.873 242.006 115.873C243.663 115.873 244.974 116.289 245.975 117.119C246.976 117.95 247.494 119.196 247.494 120.822C247.494 121.826 247.079 122.76 246.216 123.625C245.354 124.49 244.318 125.355 243.041 126.29C241.764 127.224 240.418 128.193 238.969 129.231C237.519 130.269 236.139 131.446 234.896 132.692C233.619 133.972 232.584 135.425 231.721 137.052C230.858 138.713 230.444 140.582 230.444 142.658C230.444 144.042 230.789 145.357 231.445 146.568C232.101 147.78 232.963 148.852 234.068 149.752C235.138 150.686 236.311 151.378 237.623 151.898C238.934 152.417 240.246 152.659 241.557 152.659C242.869 152.659 244.594 152.14 246.872 151.102C249.15 150.063 251.393 148.783 253.602 147.26C255.293 146.084 261.437 141.17 264.992 136.602C264.612 138.367 264.509 140.201 264.716 142.104C264.923 144.008 265.44 145.738 266.269 147.295C267.132 148.852 268.271 150.133 269.72 151.136C271.17 152.14 272.93 152.659 275.035 152.659C277.831 152.659 280.626 152.001 283.525 150.652C286.424 149.302 289.013 147.918 291.36 146.465C291.74 148.126 292.671 149.406 294.121 150.306C295.57 151.24 297.124 151.69 298.78 151.69C299.401 151.69 300.333 151.517 301.541 151.136C302.749 150.756 304.026 150.237 305.441 149.614C306.822 148.991 308.237 148.264 309.652 147.434C311.067 146.603 312.378 145.772 313.552 144.907C317.797 141.758 319.799 138.505 321.248 136.602C322.663 134.699 324.009 132.865 325.217 131.134C326.425 129.404 327.254 128.228 327.633 127.674C327.116 129.646 326.632 131.653 326.115 133.73C325.597 135.806 325.355 137.848 325.355 139.855C325.355 143.419 326.115 146.188 327.633 148.16C329.152 150.167 331.775 151.171 335.502 151.171C336.883 151.171 338.229 150.929 339.471 150.444C340.748 149.96 341.922 149.337 343.061 148.575C344.2 147.814 345.27 146.949 346.271 146.015C347.272 145.08 348.238 144.111 349.101 143.177C349.17 145.392 349.757 147.26 350.861 148.749C351.966 150.237 353.726 150.998 356.142 150.998C357.419 150.998 359.007 150.617 360.974 149.856C362.941 149.095 364.839 148.126 366.703 146.949C368.567 145.772 370.154 144.457 371.5 143.004C372.846 141.551 373.502 140.132 373.502 138.713C373.502 138.194 373.433 137.709 373.33 137.19C373.191 136.671 372.777 136.429 372.087 136.429L372.191 136.256ZM83.2794 131.273C82.8997 134.041 82.1404 136.464 81.0015 138.609C79.8625 140.72 78.2404 142.45 76.1006 143.731C73.9953 145.046 71.1652 145.669 67.6103 145.669C65.0909 145.669 63.1236 144.769 61.7776 143.004C60.8457 141.793 60.259 140.443 59.9829 138.955C59.8794 138.436 59.7068 137.606 59.8103 136.394C59.8103 136.394 60.259 131.688 61.0873 129.266C61.9847 126.705 63.1926 124.386 64.7803 122.31C66.3679 120.234 68.2661 118.538 70.4749 117.223C72.6838 115.908 75.1687 115.216 77.8608 115.216C78.8617 115.216 79.759 115.424 80.5183 115.873C81.2776 116.323 81.8988 116.912 82.382 117.638C82.8652 118.365 83.2103 119.161 83.4864 120.061C83.728 120.96 83.8661 121.826 83.8661 122.725C83.8661 125.632 83.6935 128.47 83.2794 131.238V131.273ZM205.767 121.722C205.767 124.456 205.525 126.255 205.111 129.197C204.697 132.138 203.903 134.837 202.695 137.294C201.487 139.751 199.831 141.758 197.725 143.35C195.62 144.942 192.824 145.738 189.442 145.738C186.923 145.738 184.955 144.838 183.609 143.073C182.263 141.308 181.573 139.232 181.573 136.879C181.573 134.422 182.022 131.896 182.885 129.335C183.782 126.774 184.99 124.456 186.578 122.379C188.165 120.303 190.063 118.607 192.272 117.292C194.481 115.977 196.966 115.285 199.658 115.285C202.35 115.285 205.491 116.393 205.732 119.369C205.767 119.922 205.732 121.756 205.732 121.756L205.767 121.722ZM294.984 134.041C294.294 135.46 293.707 136.74 293.258 137.882C291.981 138.817 290.739 139.786 289.462 140.72C288.185 141.654 286.873 142.554 285.527 143.385C284.181 144.215 282.732 144.873 281.247 145.392C279.763 145.911 278.21 146.153 276.554 146.153C272.688 146.153 270.755 144.181 270.755 140.27C270.755 137.225 271.377 134.214 272.619 131.204C273.862 128.193 275.518 125.494 277.658 123.106C279.798 120.718 282.248 118.78 285.113 117.292C287.978 115.804 290.946 115.043 294.121 115.043C295.881 115.043 297.262 115.7 298.194 117.05C299.125 118.365 299.609 119.888 299.609 121.514C299.609 122.656 299.367 123.937 298.849 125.355C298.332 126.774 297.745 128.228 297.055 129.681C296.364 131.134 295.674 132.588 294.984 134.007V134.041Z" fill="#B71351"/>
<path d="M219.572 178.059C216.501 176.19 213.049 175.671 209.563 176.606C203.903 178.128 199.071 183.215 195.827 187.541C194.343 183.942 191.927 179.893 188.131 177.54C184.438 175.222 179.986 174.806 175.257 176.329C168.078 178.647 163.488 183.354 161.97 189.963C158.173 206.505 174.705 231.109 183.989 240.003C185.37 241.352 187.199 242.01 188.994 242.01C190.65 242.01 192.272 241.456 193.618 240.349C205.491 230.521 227.2 205.397 226.026 188.96C225.681 184.219 223.472 180.447 219.572 178.059ZM189.235 235.019C189.235 235.019 188.89 235.158 188.752 235.019C180.158 226.783 165.663 204.567 168.665 191.521C169.632 187.299 172.462 184.461 177.363 182.904C178.571 182.523 179.675 182.316 180.676 182.316C182.056 182.316 183.333 182.662 184.472 183.388C188.855 186.122 190.823 193.597 191.237 196.262C191.444 197.75 192.583 198.926 194.067 199.168C195.517 199.411 197.001 198.719 197.691 197.404C199.52 194.012 205.525 184.911 211.427 183.319C213.084 182.869 214.533 183.077 216.017 183.977C218.019 185.188 219.02 186.953 219.193 189.444C220.021 201.452 202.04 224.465 189.27 235.019H189.235Z" fill="#B71351"/>
<path d="M192.723 249.554C192.378 248.965 191.929 248.446 191.342 248.066C190.755 247.685 190.1 247.477 189.34 247.477C188.27 247.477 187.304 247.789 186.441 248.412C185.578 249.035 184.854 249.83 184.198 250.799C183.577 251.734 183.093 252.772 182.783 253.879C182.472 254.987 182.3 256.025 182.3 256.959C182.3 257.651 182.369 258.378 182.541 259.105C182.679 259.831 182.955 260.489 183.301 261.112C183.646 261.7 184.094 262.219 184.681 262.634C185.268 263.05 185.958 263.257 186.752 263.257C187.822 263.257 188.788 262.911 189.651 262.254C190.514 261.596 191.239 260.766 191.825 259.797C192.412 258.828 192.895 257.755 193.206 256.648C193.516 255.54 193.689 254.502 193.689 253.568C193.689 252.945 193.62 252.253 193.447 251.526C193.275 250.799 193.033 250.142 192.688 249.519L192.723 249.554Z" fill="#B71351"/>
</g>
<defs>
<clipPath id="clip0_297_29067">
<rect width="390" height="263" fill="white" transform="translate(0 0.5)"/>
</clipPath>
</defs>
</svg>
