<svg width="300" height="231" viewBox="0 0 300 231" fill="none" xmlns="http://www.w3.org/2000/svg">
<path d="M272.518 117.198C274.589 117.458 279.563 119.389 280.986 120.875C281.369 121.275 281.654 121.735 281.56 122.315C281.444 123.026 280.952 123.444 280.402 123.842C279.994 123.844 279.62 123.843 279.218 123.76C277.548 123.416 272.138 120.473 271.375 119.027C271.199 118.693 271.176 118.35 271.362 118.015C271.63 117.53 272.037 117.376 272.518 117.198Z" fill="#1671B8"/>
<path d="M1.02142 64.5061C1.46382 64.5501 1.85292 64.5951 2.24572 64.8291C4.03562 65.8919 7.96202 69.5895 9.36592 71.2433C9.81242 71.7692 10.2045 72.2901 10.0646 73.03C9.95542 73.607 9.56662 73.9179 9.14392 74.2709C8.72162 74.2439 8.41752 74.2279 8.03192 74.0319C6.95412 73.485 0.289521 67.0198 0.152621 66.0749C0.0599213 65.435 0.629322 64.9281 1.02142 64.5061Z" fill="#1671B8"/>
<path d="M16.7719 33.135C17.2187 33.173 17.53 33.226 17.9387 33.413C18.6446 34.1909 26.6855 52.9345 26.9277 54.1684C27.0379 54.7313 26.7741 55.0363 26.5273 55.5132C26.328 55.4802 25.9987 55.4522 25.8059 55.3662C25.7194 55.3282 25.4171 55.1552 25.3324 55.0682C24.6369 54.3563 17.0976 36.3996 16.503 34.5948C16.2904 33.9509 16.4796 33.6979 16.7719 33.135Z" fill="#1671B8"/>
<path d="M12.4006 100.762C12.7995 100.848 13.2755 100.974 13.6088 101.227C13.9814 101.51 14.2297 101.886 14.2575 102.364C14.2834 102.81 14.0701 103.252 13.8096 103.597C12.7955 104.939 11.1657 106.116 9.9037 107.232L2.399 113.864C2.2999 113.887 2.2034 113.926 2.1017 113.934C1.6376 113.968 1.4347 113.891 1.0902 113.627C0.966197 113.178 0.906897 112.951 1.1205 112.516C2.0214 110.681 9.2147 102.975 11.1397 101.431C11.5375 101.112 11.9246 100.937 12.4006 100.762Z" fill="#1671B8"/>
<path d="M216.704 0.541992C217.031 0.598885 217.381 0.668478 217.691 0.785164C218.116 0.945144 218.443 1.26581 218.59 1.69785C218.794 2.29628 218.254 3.55742 218.052 4.15114C216.528 8.63918 214.502 12.9603 212.878 17.4162C211.834 20.277 211.198 23.5839 209.856 26.2884C209.291 26.3418 208.804 26.26 208.381 25.8459C207.935 25.4085 207.996 24.6815 208.041 24.1153C208.461 18.9032 211.19 13.4961 213.013 8.62868C213.861 6.36526 214.551 3.80599 215.711 1.68595C215.965 1.22291 216.306 0.88135 216.704 0.541992Z" fill="#1671B8"/>
<path d="M297.38 93.5654C297.475 93.5944 297.571 93.6214 297.666 93.6524C298.241 93.8424 298.832 94.3693 299.023 94.9583C299.153 95.3582 299.053 95.7392 298.821 96.0771C297.684 97.7299 275.423 105.657 272.317 106.603C272.102 106.599 271.778 106.614 271.563 106.551C271.092 106.414 270.875 106.138 270.596 105.759C270.567 105.488 270.494 105.328 270.633 105.077C270.922 104.553 271.451 104.294 271.96 104.026C273.66 103.132 275.531 102.453 277.302 101.701C280.75 100.222 284.216 98.7838 287.701 97.3899C290.882 96.1131 294.096 94.5323 297.38 93.5654Z" fill="#1671B8"/>
<path d="M244.164 21.1993C247.908 21.0382 251.399 21.8777 254.575 23.9101C258.478 26.4082 261.821 31.1472 262.805 35.6757C262.174 37.7934 261.217 39.8441 260.368 41.8839L256.484 51.2337C248.113 71.2622 238.22 90.4708 228.483 109.847C229.957 112.403 231.956 114.727 233.85 116.977C238.99 123.085 244.374 128.521 250.651 133.468C251.989 132.912 254.474 131.601 255.907 132.034C256.394 132.181 256.717 132.399 256.961 132.853C257.241 133.375 257.12 133.887 256.817 134.364C256.255 135.249 255.222 135.973 254.465 136.699C252.011 139.052 250.736 142.018 249.852 145.259C247.569 153.627 248.287 163.252 252.686 170.82C256.973 178.195 264.789 182.55 273.258 182.911C274.763 182.975 277.915 182.425 279.165 182.874C279.613 183.035 279.901 183.271 280.069 183.729C280.229 184.165 280.165 184.559 279.96 184.963C279.055 186.753 271.048 188.765 268.866 189.499C270.667 189.825 281.347 191.015 282.013 191.75C282.292 192.059 282.475 192.576 282.435 192.994C282.392 193.452 282.107 193.828 281.784 194.131C280.604 195.239 274.229 196.914 272.347 197.53C250.325 204.577 228.117 210.982 205.723 216.742C191.61 220.422 177.452 224.159 163.19 227.212C155.997 228.751 148.444 230.317 141.062 230.346C120.889 230.426 103.883 215.894 90.424 202.449C67.776 179.55 46.5928 147.682 34.7516 117.732C31.7813 110.219 28.972 102.536 28.1205 94.4453C27.4297 87.8771 28.4621 80.2151 32.7708 74.9587C34.2688 73.131 36.1577 71.6031 38.3789 70.7523C41.8275 69.4324 44.9694 70.1223 47.8875 69.1454C51.7811 67.8426 55.6279 66.3638 59.5056 65.008C66.378 62.6383 73.268 60.3236 80.177 58.0638C106.974 49.3989 133.936 41.283 161.063 33.7159C166.881 32.0711 172.685 30.3783 178.475 28.6388C182.293 27.4906 186.434 25.8086 190.393 25.4313C190.6 25.5467 190.766 25.6573 190.914 25.8461C191.185 26.1902 191.521 26.8251 191.34 27.2632C191.058 27.9438 190.315 28.6467 189.85 29.2323C188.078 31.4642 187.149 34.0309 186.853 36.8595C185.775 47.1842 191.821 57.4619 197.135 65.8769C200.207 70.7472 203.525 75.4437 207.089 79.9661C210.404 73.8309 213.912 67.7886 217.287 61.6844C223.006 51.3407 228.663 40.955 234.685 30.7863C236.02 28.5311 237.674 24.1948 239.159 22.4697C240.205 21.2555 242.711 21.3149 244.164 21.1993Z" fill="#161310"/>
<path d="M194 141.472V124.475C194.5 119.975 201.5 120.476 204 121.976C206.5 123.476 208.5 129.975 206 132.474C204.834 133.639 197.333 138.64 194 141.472Z" fill="white"/>
<path d="M200.874 109.542C202.792 109.829 202.995 113.821 204.49 115.199C207.037 117.547 208.593 113.922 211.021 114.074C211.587 114.109 211.999 114.331 212.355 114.772C213.464 116.146 212.754 118.537 212.607 120.118C212.509 121.164 212.342 122.699 213.173 123.496C213.719 124.02 214.74 123.969 215.458 124.023C215.477 125.139 215.48 126.297 215.089 127.359C214.27 129.579 211.915 130.35 209.944 131.263C209.977 129.095 209.866 127.152 209.389 125.034C208.803 123.219 208.01 121.537 206.64 120.176C204.737 118.286 201.964 117.33 199.301 117.365C196.172 117.405 194.207 118.914 192.155 121.064C191.345 118.552 190.645 115.7 191.493 113.11C191.691 112.503 192.03 111.736 192.675 111.496C193.492 111.191 194.563 111.886 195.316 112.176C199.211 113.674 198.384 110.618 200.874 109.542Z" fill="white"/>
<path d="M242.95 24.4254C245.648 24.3148 248.104 24.4712 250.621 25.5355C255.108 27.4329 257.645 31.0122 259.417 35.4127C257.969 39.1642 256.215 42.8668 254.541 46.5253L252.452 47.1662C252.468 46.4063 252.366 45.6504 252.289 44.8945C250.895 40.904 249.299 40.3651 245.334 40.516C244.907 40.532 244.135 40.599 243.742 40.4121C242.944 40.0331 242.903 38.1623 241.494 37.5334C239.46 36.6245 236.674 37.7124 234.75 38.4643C235.889 35.6657 237.747 33.05 239.16 30.3613C240.038 28.69 240.724 26.6575 241.752 25.1053C242.114 24.5602 242.358 24.5865 242.95 24.4254Z" fill="white"/>
<path d="M238.272 40.4251C238.719 40.3881 239.147 40.3841 239.594 40.3921C240.862 41.156 239.922 42.2509 240.538 43.3297C241.827 45.5885 245.501 42.9308 247.43 43.5347C250.189 44.3986 248.868 47.9702 249.845 49.9049C250.343 50.8888 251.343 51.1248 252.302 51.4627C247.232 64.5301 240.304 78.1184 234.093 90.7628C230.759 97.6759 227.301 104.527 223.719 111.316C221.888 114.785 220.096 118.327 218.009 121.649C217.29 121.223 216.534 120.894 215.772 120.552C216.336 118.08 216.463 115.826 215.67 113.395C214.989 112.25 214.032 111.519 212.751 111.139C210.326 110.419 208.156 111.498 206.114 112.679C205.694 110.71 205.363 108.612 203.733 107.237C199.767 103.889 198.059 108.957 196.363 109.098L196.111 108.784C196.25 107.601 199.52 101.567 200.337 100.026C207.732 86.0894 215.602 72.3881 223.229 58.5758L228.848 48.3041C229.937 46.3114 230.992 43.7297 232.519 42.0769C232.715 42.0969 232.911 42.1129 233.107 42.1349C234.937 42.3379 236.527 40.956 238.272 40.4251Z" fill="white"/>
<path d="M248.43 138.273C248.533 138.496 246.617 143.467 246.417 144.19C243.796 153.623 244.763 164.285 249.641 172.818C253.675 179.874 260.012 183.703 267.645 185.783C254.529 189.153 241.613 193.301 228.617 197.101C216.162 200.692 203.673 204.162 191.15 207.511C177.662 211.192 164.159 214.936 150.511 217.988C136.219 213.166 122.186 202.768 115.185 189.196C112.808 184.587 110.715 179.016 112.416 173.83C113.529 170.439 116.03 168.163 119.132 166.573C121.722 165.554 124.084 165.006 126.887 165.239C132.911 165.739 138.699 169.577 142.514 174.104C146.327 178.63 149.081 185.291 148.53 191.277C148.385 192.851 147.885 194.791 146.562 195.791C145.915 196.28 145.139 196.415 144.352 196.249C141.077 195.561 137.715 191.47 137.066 188.312C136.782 186.93 137.201 184.837 136.409 183.662C135.999 183.402 135.734 183.28 135.236 183.313C134.781 183.342 134.281 183.602 134.013 183.967C133.168 185.118 133.796 187.777 134.11 189.074C135.022 192.849 137.355 196.912 140.77 198.913C142.529 199.945 144.739 200.576 146.751 199.997C148.479 199.5 149.803 198.204 150.638 196.647C152.808 192.597 151.778 186.909 150.464 182.756C147.723 174.098 141.642 167.655 133.702 163.502C142.662 162.565 151.591 161.397 160.49 159.998C168.359 158.682 176.179 156.962 183.969 155.241C193.977 153.078 203.94 150.72 213.856 148.168C225.462 145.175 237.098 142.2 248.43 138.273Z" fill="white"/>
<path d="M184.576 30.5364C184.803 30.9883 183.907 33.252 183.752 33.9559C183.486 35.1138 183.304 36.2847 183.205 37.4685C183.106 38.6524 183.092 39.8382 183.163 41.0241C183.792 52.7746 192.913 67.1968 199.839 76.4616C201.585 78.7973 203.325 81.356 205.498 83.3157C203.78 86.2264 202.233 89.25 200.606 92.2126C197.724 97.457 194.809 102.719 192.33 108.168C190.962 108.787 189.855 109.38 189.042 110.715C188.1 112.262 187.933 114.534 188.013 116.315C188.144 119.25 189.59 121.714 189.938 124.542C190.495 129.06 190.557 134.042 190.918 138.645C191.053 140.364 191.085 142.247 191.502 143.921C191.666 144.579 191.91 145.426 192.543 145.775C193.059 146.059 193.607 146.141 194.175 145.959C195.451 145.549 200.437 140.918 202.081 139.791C206.145 137.005 210.729 135.298 214.823 132.612C215.793 131.976 216.722 131.224 217.379 130.257C218.505 128.599 219.219 126.598 220.168 124.828C222.238 120.967 224.378 117.163 226.377 113.263C230.293 118.638 234.678 123.897 239.378 128.604C241.616 130.846 244.002 132.931 246.319 135.09C231.54 140.215 216.141 144.144 200.927 147.73C186.141 151.312 171.257 154.421 156.273 157.055C149.571 158.258 142.84 159.271 136.081 160.096C130.614 160.765 124.485 160.874 119.257 162.646C115.354 163.969 112.127 166.295 110.293 170.066C107.926 174.931 108.667 180.795 110.427 185.727C116.031 201.431 128.383 212.412 143.127 219.36C139.032 219.929 134.999 220.403 130.853 220.151C111.029 218.945 95.378 203.436 82.969 189.411C78.211 183.857 73.515 178.161 69.265 172.204C63.9741 164.866 59.0124 157.312 54.38 149.542C45.6876 134.882 28.8462 102.944 31.7579 85.9904C32.4537 81.9399 34.147 77.5035 37.6593 75.0858C41.1573 72.6781 45.439 72.6351 49.4767 73.377C57.3889 74.8318 63.6378 79.4662 68.158 86.0164C72.821 92.7745 75.542 102.139 73.967 110.312C73.552 112.464 72.732 114.653 70.808 115.892C69.438 116.775 67.801 116.954 66.228 116.609C63.032 115.908 60.3373 113.361 58.6376 110.67C55.1767 105.191 54.9432 98.1049 59.1655 92.9475C60.079 91.8327 62.236 90.5458 62.4793 89.136C62.5582 88.6781 62.5405 88.4911 62.2825 88.1101C61.8699 87.9962 61.5269 88.0821 61.1384 88.2371C57.9612 89.501 55.7854 92.9365 54.5119 95.9432C52.7527 100.098 53.1927 105.24 54.8834 109.335C56.6401 113.591 60.0786 117.514 64.3992 119.275C66.691 120.208 69.227 120.491 71.537 119.443C73.947 118.35 75.658 116.038 76.541 113.596C79.129 106.445 77.076 96.2121 73.958 89.523C69.676 80.3381 63.2151 74.1999 53.6853 70.7593C74.392 63.4332 95.266 56.6211 116.308 50.3209L184.576 30.5364Z" fill="white"/>
<path d="M181.075 129.763C181.461 129.905 181.764 130.066 181.983 130.437C182.175 130.762 182.229 131.218 182.044 131.559C181.681 132.231 180.676 132.41 179.992 132.64C174.367 134.539 168.591 136.01 162.956 137.896C154.859 140.605 146.887 143.699 138.754 146.294L138.042 146.397L137.879 146.156C139.482 143.786 162.278 135.755 166.135 134.458C171.08 132.796 176.092 131.308 181.075 129.763Z" fill="#1671B8"/>
<path d="M184.201 104.332C184.251 104.331 184.302 104.328 184.351 104.329C184.944 104.337 185.126 104.401 185.526 104.811C185.614 105.228 185.657 105.391 185.508 105.808C185.084 106.988 183.298 107.748 182.225 108.23C175.697 111.164 168.667 113.039 161.846 115.168C151.509 118.308 141.264 121.722 131.109 125.408C119.539 129.739 108.384 134.778 97.215 140.034C96.806 140.224 96.477 140.346 96.028 140.432L95.873 140.261C96.881 138.624 101.838 136.471 103.652 135.519C119.133 127.393 135.36 121.113 151.941 115.619C162.7 112.054 173.956 109.233 184.201 104.332Z" fill="#1671B8"/>
<path d="M179.536 81.709C179.733 81.691 179.93 81.675 180.127 81.661C180.87 81.613 181.345 81.651 181.898 82.18C182.296 82.5619 182.358 82.8889 182.344 83.4198C181.855 84.1257 181.296 84.1817 180.515 84.3717C158.049 89.845 135.967 96.1062 114.243 104.048C104.412 107.643 94.4192 111.476 85.0592 116.191C84.7152 116.4 84.2992 116.603 83.8892 116.62C83.3892 116.642 83.0032 116.432 82.6302 116.122C82.6202 115.907 82.5602 115.749 82.6922 115.564C83.6382 114.23 90.9322 111.455 92.8342 110.629C102.718 106.259 112.734 102.214 122.882 98.4949C133.029 94.7764 143.287 91.3908 153.655 88.3392C162.109 85.8295 170.838 83.2038 179.536 81.709Z" fill="#1671B8"/>
</svg>
