<svg width="129" height="115" viewBox="0 0 129 115" fill="none" xmlns="http://www.w3.org/2000/svg">
<mask id="mask0" mask-type="alpha" maskUnits="userSpaceOnUse" x="0" y="0" width="129" height="115">
<rect x="0.572266" y="0.830566" width="128.237" height="113.911" fill="#C4C4C4"/>
</mask>
<g mask="url(#mask0)">
<path d="M0.558551 62.4857L0.558548 114.768L128.792 0.830603L99.22 0.830604L69.6477 0.830604L0.558551 62.4857Z" fill="#F37320"/>
<path d="M8.44784 114.742H0.572266L8.44784 107.769V114.742Z" fill="#C65913"/>
<path d="M128.754 7.57266L128.81 0.775635L121.208 7.57266H128.754Z" fill="#C65913"/>
<path d="M24.4656 57.1979C23.4186 56.028 22.8714 54.8986 22.8237 53.8096C22.7701 52.7139 23.2212 51.7383 24.1772 50.8828C24.6785 50.4341 25.1941 50.1291 25.724 49.9679C26.2539 49.8067 26.7861 49.7758 27.3206 49.8753C27.8551 49.9749 28.3829 50.1947 28.9041 50.5349C29.4253 50.8751 29.9311 51.3193 30.4217 51.8674C31.4686 53.0372 32.0156 54.173 32.0625 55.2747C32.1101 56.3637 31.6593 57.333 30.7101 58.1825C30.2021 58.6372 29.6831 58.9451 29.1532 59.1063C28.6233 59.2676 28.0911 59.2984 27.5566 59.1989C27.0288 59.0934 26.5043 58.8706 25.9832 58.5304C25.462 58.1902 24.9562 57.746 24.4656 57.1979ZM25.9095 55.9056C26.2266 56.2599 26.5498 56.5606 26.8792 56.8075C27.2026 57.0478 27.5201 57.2211 27.8319 57.3273C28.1504 57.4275 28.4604 57.4511 28.7619 57.3979C29.0635 57.3447 29.3479 57.1985 29.6153 56.9592C30.1033 56.5225 30.3105 55.9939 30.2369 55.3736C30.1632 54.7533 29.7436 54.0153 28.9778 53.1596C28.6727 52.8187 28.3584 52.5281 28.035 52.2878C27.7183 52.0416 27.4011 51.862 27.0833 51.7491C26.7656 51.6362 26.4559 51.6063 26.1544 51.6595C25.8469 51.7059 25.5527 51.8548 25.272 52.1061C24.784 52.5428 24.5828 53.078 24.6684 53.7117C24.748 54.3387 25.1617 55.07 25.9095 55.9056ZM42.0378 50.0492L41.0652 50.9196L39.793 49.8009L35.2808 53.8391L36.2522 55.2271L35.2795 56.0975L33.063 53.6208L33.805 52.9568C33.786 52.8414 33.7163 52.6088 33.5959 52.2591C33.4755 51.9093 33.2624 51.456 32.9566 50.899C32.6448 50.3353 32.2145 49.673 31.6659 48.912C31.1112 48.1443 30.4028 47.2855 29.5406 46.3355L33.742 42.5755L38.9289 48.3712L39.8213 47.5725L42.0378 50.0492ZM37.5551 49.6006L33.4631 45.0282L31.9089 46.4192C32.9337 47.6449 33.7102 48.7076 34.2385 49.6073C34.7674 50.4943 35.1076 51.1771 35.2589 51.6556L37.5551 49.6006ZM38.5165 44.6229C37.4695 43.4531 36.9222 42.3237 36.8746 41.2347C36.821 40.139 37.2721 39.1633 38.228 38.3078C38.7294 37.8592 39.245 37.5542 39.7749 37.393C40.3048 37.2318 40.837 37.2009 41.3715 37.3004C41.906 37.3999 42.4338 37.6198 42.955 37.96C43.4761 38.3002 43.982 38.7443 44.4726 39.2925C45.5195 40.4623 46.0664 41.5981 46.1134 42.6998C46.161 43.7888 45.7102 44.7581 44.761 45.6076C44.2529 46.0623 43.734 46.3702 43.2041 46.5314C42.6742 46.6926 42.142 46.7235 41.6075 46.624C41.0797 46.5185 40.5552 46.2956 40.0341 45.9554C39.5129 45.6153 39.007 45.1711 38.5165 44.6229ZM39.9604 43.3307C40.2774 43.685 40.6007 43.9856 40.93 44.2326C41.2534 44.4729 41.571 44.6461 41.8828 44.7524C42.2012 44.8526 42.5112 44.8761 42.8128 44.823C43.1143 44.7698 43.3988 44.6236 43.6662 44.3843C44.1542 43.9475 44.3613 43.419 44.2877 42.7987C44.2141 42.1784 43.7944 41.4404 43.0287 40.5847C42.7235 40.2438 42.4093 39.9532 42.0859 39.7129C41.7692 39.4666 41.452 39.287 41.1342 39.1741C40.8165 39.0612 40.5068 39.0314 40.2053 39.0845C39.8977 39.131 39.6036 39.2799 39.3228 39.5312C38.8349 39.9679 38.6337 40.5031 38.7192 41.1368C38.7988 41.7638 39.2125 42.4951 39.9604 43.3307ZM42.7147 34.5453L47.0364 30.6776L48.1312 31.9009L45.1832 34.5392L46.4934 36.0032C46.5891 35.8814 46.7082 35.7387 46.8506 35.5751C46.9998 35.4054 47.1546 35.2489 47.3151 35.1053C47.6894 34.7702 48.0666 34.4989 48.4466 34.2913C48.8265 34.0836 49.2046 33.968 49.5808 33.9444C49.9576 33.9081 50.3352 33.9735 50.7134 34.1406C51.0857 34.301 51.4514 34.5817 51.8103 34.9828C52.1633 35.3772 52.4045 35.7813 52.5341 36.1951C52.6703 36.6029 52.7015 37.0144 52.6276 37.4296C52.5605 37.8388 52.398 38.2491 52.1401 38.6605C51.8889 39.0658 51.5494 39.46 51.1216 39.8429C51.008 39.9446 50.8612 40.0699 50.6815 40.2187C50.5084 40.3616 50.3189 40.5131 50.1131 40.6732C49.9139 40.8274 49.7118 40.9782 49.5067 41.1256C49.3016 41.2731 49.1105 41.3959 48.9335 41.4941L42.7147 34.5453ZM50.2078 38.6201C50.3816 38.4645 50.5241 38.3009 50.6353 38.1292C50.7472 37.9448 50.821 37.7583 50.8569 37.5697C50.8868 37.3744 50.8723 37.1766 50.8135 36.9764C50.7548 36.7762 50.6356 36.5758 50.4561 36.3753C50.2408 36.1346 50.0305 35.9737 49.8254 35.8924C49.6202 35.8112 49.4182 35.7873 49.2194 35.8207C49.0147 35.8475 48.8167 35.9223 48.6257 36.0451C48.4413 36.162 48.2556 36.3041 48.0684 36.4717C47.9748 36.5554 47.8668 36.6701 47.7444 36.8158C47.616 36.9548 47.531 37.0549 47.4895 37.1162L49.4009 39.2519C49.4924 39.2062 49.6146 39.1208 49.7677 38.9959C49.9274 38.865 50.0741 38.7397 50.2078 38.6201ZM48.8972 29.1387C49.1301 28.8339 49.4017 28.5186 49.712 28.1927C50.023 27.8542 50.3456 27.5354 50.6798 27.2362C51.0274 26.9252 51.402 26.6441 51.8034 26.3932C52.2056 26.1296 52.6248 25.9591 53.0611 25.8816C53.4914 25.7975 53.9311 25.8314 54.3801 25.9833C54.8298 26.1226 55.273 26.4362 55.7097 26.9242C56.1046 27.3654 56.3627 27.8086 56.4842 28.2537C56.5996 28.6921 56.6171 29.1219 56.5366 29.5431C56.4561 29.9643 56.2909 30.3649 56.0411 30.7449C55.798 31.119 55.5027 31.4616 55.1551 31.7727C55.1217 31.8026 55.0682 31.8504 54.9946 31.9163C54.9211 31.9821 54.8442 32.0509 54.764 32.1227C54.6778 32.1878 54.5916 32.2529 54.5054 32.318C54.4259 32.3771 54.3665 32.4183 54.327 32.4415L56.4897 34.858L55.116 36.0874L48.8972 29.1387ZM51.849 28.3207C51.7154 28.4404 51.5943 28.5607 51.486 28.6818C51.3716 28.7962 51.2837 28.8929 51.2221 28.9721L53.2592 31.2483C53.2919 31.231 53.338 31.2018 53.3974 31.1606C53.4569 31.1195 53.5197 31.0753 53.5858 31.0281C53.646 30.9743 53.7028 30.9234 53.7563 30.8756C53.8165 30.8217 53.8599 30.7829 53.8867 30.7589C54.0671 30.5974 54.2293 30.4221 54.3732 30.2332C54.5238 30.0382 54.6304 29.8345 54.693 29.6219C54.7496 29.4027 54.7462 29.177 54.6829 28.9448C54.6262 28.7066 54.4812 28.4571 54.2479 28.1964C54.0505 27.9758 53.8488 27.8312 53.643 27.7626C53.4311 27.6874 53.2195 27.6661 53.008 27.6988C52.8032 27.7256 52.6023 27.7971 52.4053 27.9132C52.2083 28.0293 52.0229 28.1652 51.849 28.3207ZM54.9736 23.5741L59.1348 19.85L60.2297 21.0733L57.4421 23.568L58.9048 25.2024L61.4417 22.932L62.5365 24.1553L59.9997 26.4257L61.5342 28.1404L64.3719 25.6008L65.4667 26.8241L61.2553 30.5931L54.9736 23.5741ZM68.2065 19.081L65.6395 21.3783L68.2688 24.3162L66.8951 25.5456L60.6135 18.5267L61.9872 17.2973L64.5447 20.155L67.1116 17.8577L64.5541 15L65.9278 13.7705L72.2095 20.7895L70.8358 22.0189L68.2065 19.081ZM25.6979 75.1414L28.3952 72.7274C28.1359 72.478 27.8607 72.2849 27.5697 72.148C27.2794 71.9985 26.9855 71.9123 26.6882 71.8895C26.3909 71.8667 26.0897 71.9135 25.7846 72.03C25.4736 72.1398 25.1744 72.3234 24.8869 72.5806C24.5259 72.9037 24.2476 73.225 24.0521 73.5445C23.8505 73.8573 23.708 74.1353 23.6246 74.3785L22.2929 73.4755C22.4192 73.1458 22.6236 72.7823 22.9061 72.385C23.1826 71.9811 23.4946 71.6235 23.8422 71.3124C24.3035 70.8996 24.7848 70.5832 25.2862 70.3633C25.7943 70.1373 26.3203 70.0458 26.8643 70.0886C27.409 70.1188 27.9709 70.2961 28.5501 70.6204C29.1234 70.9381 29.7091 71.4312 30.3074 72.0996C30.9295 72.7949 31.3564 73.4602 31.588 74.0956C31.8197 74.7311 31.904 75.3298 31.8411 75.8917C31.7782 76.4536 31.5967 76.9772 31.2966 77.4625C30.9965 77.9478 30.6259 78.3878 30.1847 78.7827C29.8036 79.1237 29.4261 79.4013 29.0521 79.6157C28.6848 79.824 28.3687 79.9685 28.1037 80.0491L27.3968 78.5328C27.6164 78.4688 27.8864 78.3535 28.2069 78.187C28.5215 78.0139 28.8492 77.7747 29.1901 77.4696C29.4508 77.2363 29.6586 76.9842 29.8134 76.7132C29.9682 76.4423 30.0603 76.1551 30.0898 75.8518C30.1201 75.5358 30.081 75.2096 29.9725 74.8733C29.8641 74.5369 29.6707 74.1863 29.3924 73.8214L26.685 76.2444L25.6979 75.1414ZM33.8856 69.8182L33.5247 70.1413L36.2078 73.1394L34.8341 74.3688L28.5525 67.3498L29.9262 66.1204L32.7081 69.2288L32.9033 68.8013L32.1823 64.1013L33.7465 62.7014L34.3393 67.48L34.1388 68.3456L35.0503 68.2341L40.339 69.4421L38.6444 70.9587L33.8856 69.8182ZM45.6814 64.1372C45.6051 64.4824 45.4297 64.838 45.1553 65.204C44.8876 65.564 44.5799 65.8995 44.2323 66.2106C43.8112 66.5875 43.3533 66.883 42.8586 67.097C42.3646 67.2983 41.8452 67.3839 41.3005 67.3537C40.7499 67.3168 40.1812 67.1455 39.5946 66.8398C39.0087 66.5214 38.4196 66.0313 37.8274 65.3696C37.2112 64.681 36.7903 64.0224 36.5646 63.3936C36.3397 62.7522 36.252 62.1565 36.3016 61.6065C36.3518 61.0439 36.5103 60.5349 36.7769 60.0795C37.0376 59.6175 37.3551 59.219 37.7295 58.884C38.1305 58.525 38.4921 58.2496 38.814 58.0578C39.1426 57.86 39.4301 57.7171 39.6764 57.6291L40.4466 59.0346C40.227 59.0986 39.9954 59.2097 39.7515 59.3677C39.5144 59.5197 39.2454 59.7304 38.9446 59.9996C38.3898 60.4961 38.1184 61.0942 38.1304 61.7937C38.1492 62.4872 38.5294 63.2484 39.2713 64.0773C39.5943 64.4383 39.9306 64.7333 40.28 64.9623C40.6235 65.1847 40.9711 65.331 41.323 65.4013C41.6756 65.459 42.026 65.4403 42.3744 65.3452C42.7234 65.2375 43.0584 65.0401 43.3792 64.7529C43.68 64.4837 43.9071 64.2263 44.0605 63.9807C44.2139 63.7351 44.3256 63.4967 44.3956 63.2655L45.6814 64.1372ZM45.8345 54.0863L43.3778 56.2849L48.5647 62.0805L47.191 63.3099L40.9093 56.291L46.1134 51.6335L52.395 58.6525L51.0213 59.8819L45.8345 54.0863ZM47.7144 50.2007L51.8757 46.4765L52.9705 47.6998L50.1829 50.1946L51.6457 51.829L54.1825 49.5586L55.2773 50.7819L52.7405 53.0523L54.275 54.7669L57.1127 52.2273L58.2075 53.4506L53.9961 57.2197L47.7144 50.2007ZM53.4171 45.2234C53.65 44.9187 53.9216 44.6034 54.2319 44.2775C54.5429 43.939 54.8655 43.6202 55.1998 43.321C55.5474 43.0099 55.9219 42.7289 56.3233 42.478C56.7255 42.2144 57.1447 42.0439 57.581 41.9664C58.0113 41.8823 58.451 41.9162 58.9 42.0681C59.3497 42.2074 59.7929 42.521 60.2296 43.009C60.6245 43.4502 60.8826 43.8934 61.0041 44.3384C61.1196 44.7769 61.137 45.2067 61.0565 45.6279C60.976 46.0491 60.8108 46.4497 60.561 46.8297C60.318 47.2038 60.0226 47.5464 59.675 47.8575C59.6416 47.8874 59.5881 47.9352 59.5146 48.001C59.441 48.0668 59.3642 48.1356 59.2839 48.2074C59.1977 48.2725 59.1115 48.3376 59.0253 48.4028C58.9458 48.4619 58.8864 48.5031 58.847 48.5263L61.0097 50.9428L59.6359 52.1722L53.4171 45.2234ZM56.369 44.4055C56.2353 44.5252 56.1142 44.6455 56.0059 44.7666C55.8915 44.881 55.8036 44.9777 55.742 45.0569L57.7791 47.3331C57.8118 47.3158 57.8579 47.2866 57.9173 47.2454C57.9768 47.2042 58.0396 47.1601 58.1058 47.1129C58.1659 47.0591 58.2227 47.0082 58.2762 46.9604C58.3364 46.9065 58.3798 46.8676 58.4066 46.8437C58.5871 46.6822 58.7492 46.5069 58.8931 46.318C59.0437 46.123 59.1503 45.9193 59.2129 45.7067C59.2695 45.4875 59.2662 45.2618 59.2028 45.0296C59.1461 44.7914 59.0011 44.5419 58.7678 44.2812C58.5704 44.0606 58.3687 43.916 58.1629 43.8474C57.9511 43.7721 57.7394 43.7509 57.5279 43.7836C57.3232 43.8104 57.1222 43.8819 56.9252 43.998C56.7282 44.1141 56.5428 44.25 56.369 44.4055ZM65.4935 36.4923L63.4479 38.323L68.6348 44.1186L67.2611 45.348L62.0742 39.5524L60.0187 41.392L58.9238 40.1687L64.3986 35.269L65.4935 36.4923ZM73.082 37.3396L70.9261 39.2689L71.7857 41.2987L70.4119 42.5282L66.6122 33.1976L67.625 32.2913L76.4783 37.099L75.0344 38.3912L73.082 37.3396ZM70.29 37.8519L71.794 36.5058L69.8727 35.4082L68.675 34.4937L68.6249 34.5385L69.4104 35.84L70.29 37.8519ZM79.673 27.6848L78.576 26.1564L78.5158 26.2102L79.0898 27.7192L79.9379 31.6733L79.4967 32.0682L75.5713 30.85L74.134 30.1318L74.0839 30.1767L75.5228 31.3809L78.7893 35.0308L77.4857 36.1974L71.2041 29.1784L72.4575 28.0567L77.2041 29.5873L78.253 30.0933L78.2931 30.0574L77.858 28.966L76.7791 24.189L78.0225 23.0762L84.3042 30.0952L82.9305 31.3246L79.673 27.6848ZM86.5158 21.1093L85.7794 20.1251L85.7292 20.1699L86.1015 21.5342L86.9393 27.7368L85.9066 28.6611L79.6249 21.6422L80.9986 20.4128L84.4176 24.2331L85.1609 25.2654L85.221 25.2115L84.8419 23.7992L84.0669 17.6668L85.0896 16.7514L91.3713 23.7704L89.9976 24.9998L86.5158 21.1093Z" fill="white"/>
</g>
</svg>
