<svg xmlns="http://www.w3.org/2000/svg" width="32" height="32" viewBox="0 0 32 32" fill="none">
<path d="M26.6666 0C23.9813 0.0044375 21.7173 2.00275 21.3793 4.66669H3.33319C2.965 4.66669 2.6665 4.96519 2.6665 5.33337C2.66657 5.7015 2.965 6 3.33319 6H21.3332V26.6667C21.3332 27.0349 21.6317 27.3334 21.9999 27.3334C22.3681 27.3334 22.6666 27.0349 22.6666 26.6667C22.6666 24.4576 24.4574 22.6667 26.6666 22.6667C28.8757 22.6667 30.6666 24.4576 30.6666 26.6667C30.6666 28.8758 28.8757 30.6667 26.6666 30.6667H5.99988C5.63169 30.6667 5.33319 30.9652 5.33319 31.3334C5.33319 31.7015 5.63169 32 5.99988 32H26.6666C29.2209 31.9972 31.4157 30.1861 31.9033 27.6787C31.9666 27.5747 32.0001 27.4552 31.9999 27.3334V5.33337C31.9966 2.38919 29.6107 0.0033125 26.6666 0ZM30.6666 23.1427C28.7244 20.9336 25.3591 20.7171 23.15 22.6593C22.9787 22.8099 22.8172 22.9714 22.6666 23.1427V5.33331C22.6666 3.12419 24.4574 1.33331 26.6666 1.33331C28.8757 1.33331 30.6666 3.12419 30.6666 5.33331V23.1427Z" fill="white"/>
<path d="M2.61331 8.40469C2.56198 8.28456 2.47648 8.18217 2.36744 8.11022C2.2584 8.03828 2.13063 7.99995 2 8C1.86936 7.99994 1.74159 8.03826 1.63255 8.11021C1.52351 8.18216 1.43802 8.28456 1.38669 8.40469C0 11.6527 0 11.8453 0 12V24.6667C0 25.0349 0.2985 25.3334 0.666687 25.3334C1.03487 25.3334 1.33337 25.0349 1.33337 24.6667V12.074C1.40006 11.8547 1.67069 11.182 2.00006 10.386C2.32938 11.182 2.60006 11.8527 2.66675 12.074V26.6667H0.66675C0.2985 26.6667 0 26.9651 0 27.3333V30.6666C0 31.4031 0.596938 32 1.33331 32H2.66663C3.40306 32 4 31.4031 4 30.6667V12C4 11.8453 4 11.6527 2.61331 8.40469ZM2.66669 30.6667H1.33331V28H2.66663L2.66669 30.6667ZM18 8H5.33331C4.96513 8 4.66663 8.2985 4.66663 8.66669C4.66663 9.03488 4.96513 9.33338 5.33331 9.33338H18V10.6667H6C5.63181 10.6667 5.33331 10.9652 5.33331 11.3334C5.33331 11.7015 5.63181 12 6 12H18V28C18 28.3682 18.2985 28.6667 18.6667 28.6667C19.0349 28.6667 19.3334 28.3682 19.3334 28V9.33331C19.3333 8.59694 18.7364 8 18 8Z" fill="white"/>
<path d="M9.80469 20.1952L7.60931 17.9999L9.80462 15.8046C9.92502 15.6787 9.99133 15.5106 9.98937 15.3364C9.9874 15.1622 9.91732 14.9956 9.79412 14.8724C9.67092 14.7492 9.50439 14.6792 9.33017 14.6772C9.15595 14.6752 8.98788 14.7415 8.86194 14.8619L6.19525 17.5286C5.935 17.7889 5.935 18.2109 6.19525 18.4713L8.86194 21.138C8.98694 21.2631 9.1565 21.3333 9.33325 21.3333C9.70144 21.3332 9.99988 21.0347 9.99975 20.6665C9.99978 20.579 9.98257 20.4923 9.9491 20.4115C9.91563 20.3306 9.86656 20.2571 9.80469 20.1952ZM15.8047 17.5286L13.138 14.8619C12.8732 14.6062 12.4511 14.6135 12.1953 14.8783C11.9458 15.1367 11.9458 15.5462 12.1953 15.8046L14.3907 17.9999L12.1954 20.1952C11.9306 20.451 11.9232 20.8731 12.179 21.1379C12.4348 21.4027 12.8568 21.4101 13.1217 21.1543C13.1273 21.1489 13.1327 21.1435 13.1381 21.1379L15.8048 18.4712C16.0649 18.2109 16.0649 17.7889 15.8047 17.5286ZM8 23.9999H6.66669C6.2985 23.9999 6 24.2984 6 24.6666C6 25.0348 6.2985 25.3333 6.66669 25.3333H8C8.36819 25.3333 8.66669 25.0348 8.66669 24.6666C8.66669 24.2984 8.36819 23.9999 8 23.9999ZM11.3333 26.6666H10C9.63181 26.6666 9.33331 26.9651 9.33331 27.3333C9.33331 27.7015 9.63181 28 10 28H11.3333C11.7015 28 12 27.7015 12 27.3333C12 26.9651 11.7015 26.6666 11.3333 26.6666ZM15.3333 26.6666H14C13.6318 26.6666 13.3333 26.9651 13.3333 27.3333C13.3333 27.7015 13.6318 28 14 28H15.3333C15.7015 28 16 27.7015 16 27.3333C16 26.9651 15.7015 26.6666 15.3333 26.6666ZM15.3333 23.9999H10.6666C10.2984 23.9999 9.99994 24.2984 9.99994 24.6666C9.99994 25.0348 10.2984 25.3333 10.6666 25.3333H15.3333C15.7015 25.3333 16 25.0348 16 24.6666C16 24.2984 15.7015 23.9999 15.3333 23.9999Z" fill="white"/>
</svg>