<svg xmlns="http://www.w3.org/2000/svg" width="36" height="36" viewBox="0 0 36 36" fill="none">
<path d="M3.71875 20.8828C3.71875 20.7708 3.6276 20.6797 3.51562 20.6797C3.40364 20.6797 3.3125 20.7708 3.3125 20.8828C3.3125 20.9948 3.40364 21.0859 3.51562 21.0859C3.6276 21.0859 3.71875 20.9948 3.71875 20.8828Z" fill="white" stroke="white"/>
<path d="M6.32811 29.3245C6.326 30.0994 5.69741 30.7266 4.92186 30.7266H0.703125V18.0704H4.92186C5.69881 18.0704 6.32811 18.6997 6.32811 19.4766V29.3245Z" stroke="white" stroke-miterlimit="10" stroke-linecap="round" stroke-linejoin="round"/>
<path d="M23.9104 26.2513L32.5504 23.2813C33.4722 22.9487 34.5641 23.263 35.0296 24.1243C35.6617 25.2937 35.1084 26.5832 34.0347 27.0128L20.8968 32.7974C19.6784 33.3518 18.3436 33.6017 17.0072 33.5258C15.6707 33.4498 14.3728 33.0502 13.2251 32.3614L9.54772 30.1551C8.69906 29.6459 7.31461 29.3605 6.32812 29.3246" stroke="white" stroke-miterlimit="10" stroke-linecap="round" stroke-linejoin="round"/>
<path d="M6.32812 19.4766H11.8947C12.6197 19.4766 13.3319 19.6629 13.9633 20.0187L17.6786 22.1084C17.8896 22.2272 18.1265 22.2891 18.3684 22.2891H22.9218C24.0869 22.2891 25.0312 23.2334 25.0312 24.3984C25.0312 25.1859 24.6002 25.8722 23.9603 26.2343C23.6538 26.4087 23.2994 26.5078 22.9218 26.5078H15.7739" stroke="white" stroke-miterlimit="10" stroke-linecap="round" stroke-linejoin="round"/>
<path d="M11.9492 5.83687C12.5187 3.89337 14.1381 2.45415 16.2909 2.45415C19.7587 2.45415 20.8542 6.40922 20.8542 6.40922C20.8542 6.40922 21.9497 2.45415 25.4182 2.45415C28.1196 2.45415 29.9814 4.72172 29.9814 7.40758C29.9814 10.9619 26.6304 13.3412 20.9386 18.2744C17.5098 15.3026 14.7286 13.2261 13.1504 11.1587" stroke="white" stroke-miterlimit="10" stroke-linecap="round" stroke-linejoin="round"/>
<path d="M12.0859 8.64844C12.0859 8.53646 11.9948 8.44532 11.8828 8.44532C11.7708 8.44532 11.6797 8.53646 11.6797 8.64844C11.6797 8.76042 11.7708 8.85156 11.8828 8.85156C11.9948 8.85156 12.0859 8.76042 12.0859 8.64844Z" fill="white" stroke="white"/>
</svg>