<svg xmlns="http://www.w3.org/2000/svg" width="32" height="32" viewBox="0 0 32 32" fill="none">
<path d="M26.7709 29.2139H5.22977C5.03201 29.2139 4.71777 29.0677 4.71777 28.675V13.8907C4.71777 13.7549 4.77172 13.6247 4.86773 13.5287C4.96375 13.4326 5.09398 13.3787 5.22977 13.3787C5.36556 13.3787 5.49579 13.4326 5.59181 13.5287C5.68783 13.6247 5.74177 13.7549 5.74177 13.8907V28.1915H26.2592V13.8878C26.2592 13.752 26.3132 13.6218 26.4092 13.5258C26.5052 13.4298 26.6354 13.3758 26.7712 13.3758C26.907 13.3758 27.0372 13.4298 27.1333 13.5258C27.2293 13.6218 27.2832 13.752 27.2832 13.8878V28.6737C27.2826 29.0677 26.9687 29.2139 26.7709 29.2139ZM26.7709 10.2398H5.22977C5.09398 10.2398 4.96375 10.1859 4.86773 10.0899C4.77172 9.99384 4.71777 9.86361 4.71777 9.72782C4.71777 9.59203 4.77172 9.4618 4.86773 9.36578C4.96375 9.26976 5.09398 9.21582 5.22977 9.21582H26.7709C26.9067 9.21582 27.0369 9.26976 27.1329 9.36578C27.229 9.4618 27.2829 9.59203 27.2829 9.72782C27.2829 9.86361 27.229 9.99384 27.1329 10.0899C27.0369 10.1859 26.9067 10.2398 26.7709 10.2398Z" fill="white"/>
<path d="M28.7969 10.2397H3.20331C3.09989 10.2404 2.99869 10.2097 2.91303 10.1517C2.82738 10.0938 2.76128 10.0112 2.72346 9.91495C2.68563 9.81869 2.67785 9.71323 2.70113 9.61246C2.72441 9.51169 2.77766 9.42033 2.85387 9.35041L6.38763 6.04577L6.40011 6.03425C6.49358 5.95214 6.61362 5.90666 6.73803 5.90625H25.2622C25.3866 5.90666 25.5067 5.95214 25.6001 6.03425L25.6126 6.04577L29.1473 9.35009C29.2233 9.42022 29.2764 9.51174 29.2994 9.61259C29.3224 9.71343 29.3143 9.81888 29.2762 9.91505C29.2381 10.0112 29.1717 10.0936 29.0859 10.1513C29.0001 10.209 28.8987 10.2394 28.7953 10.2384L28.7969 10.2397ZM4.49739 9.21569H27.5028L25.0606 6.93249H6.93963L4.49739 9.21569Z" fill="white"/>
<path d="M25.2624 6.93143C25.1266 6.93143 24.9964 6.87749 24.9004 6.78147C24.8043 6.68545 24.7504 6.55522 24.7504 6.41943V3.80983H7.24959V6.41943C7.24959 6.55522 7.19565 6.68545 7.09963 6.78147C7.00361 6.87749 6.87338 6.93143 6.73759 6.93143C6.6018 6.93143 6.47157 6.87749 6.37555 6.78147C6.27953 6.68545 6.22559 6.55522 6.22559 6.41943V3.29911C6.22618 3.1635 6.28031 3.03361 6.3762 2.93772C6.47209 2.84183 6.60198 2.7877 6.73759 2.78711H25.2611C25.3967 2.7877 25.5266 2.84183 25.6225 2.93772C25.7184 3.03361 25.7725 3.1635 25.7731 3.29911V6.41943C25.7731 6.555 25.7193 6.68503 25.6236 6.78102C25.5279 6.877 25.398 6.93109 25.2624 6.93143ZM4.79999 14.4594C4.52594 14.4591 4.25465 14.4047 4.00168 14.2993C3.7487 14.1939 3.519 14.0397 3.32575 13.8454C2.9198 13.4412 2.69048 12.8927 2.68799 12.3199V9.72791C2.68799 9.59212 2.74193 9.46189 2.83795 9.36587C2.93397 9.26985 3.0642 9.21591 3.19999 9.21591C3.33578 9.21591 3.46601 9.26985 3.56203 9.36587C3.65805 9.46189 3.71199 9.59212 3.71199 9.72791V12.3199C3.71334 12.6205 3.83396 12.9082 4.04735 13.1199C4.14677 13.2205 4.26519 13.3002 4.39571 13.3546C4.52624 13.409 4.66627 13.4369 4.80767 13.4367C4.90348 13.4359 4.99878 13.4227 5.09119 13.3974C5.32036 13.3332 5.52228 13.1959 5.66615 13.0064C5.81001 12.8168 5.88792 12.5854 5.88799 12.3474V9.72791C5.88799 9.59212 5.94193 9.46189 6.03795 9.36587C6.13397 9.26985 6.2642 9.21591 6.39999 9.21591C6.53578 9.21591 6.66601 9.26985 6.76203 9.36587C6.85805 9.46189 6.91199 9.59212 6.91199 9.72791V12.3487C6.912 12.9063 6.69155 13.4412 6.29872 13.8368C5.90589 14.2325 5.37256 14.4567 4.81503 14.4607L4.79999 14.4594Z" fill="white"/>
<path d="M8.00002 14.4593H7.97314C6.82306 14.4453 5.8877 13.4865 5.8877 12.3224V9.72782C5.8877 9.59203 5.94164 9.4618 6.03766 9.36578C6.13367 9.26976 6.2639 9.21582 6.3997 9.21582C6.53549 9.21582 6.66572 9.26976 6.76173 9.36578C6.85775 9.4618 6.9117 9.59203 6.9117 9.72782V12.3233C6.9117 12.9297 7.39362 13.4289 7.98594 13.4363C8.12997 13.4381 8.27293 13.4113 8.40652 13.3575C8.54012 13.3036 8.66169 13.2238 8.76418 13.1225C8.86667 13.0213 8.94804 12.9008 9.00358 12.7679C9.05912 12.635 9.08771 12.4923 9.08769 12.3483V9.72782C9.08769 9.59203 9.14164 9.4618 9.23766 9.36578C9.33368 9.26976 9.4639 9.21582 9.59969 9.21582C9.73549 9.21582 9.86572 9.26976 9.96173 9.36578C10.0578 9.4618 10.1117 9.59203 10.1117 9.72782V12.3486C10.1117 12.9088 9.88918 13.446 9.49311 13.842C9.09703 14.2381 8.55983 14.4606 7.9997 14.4606L8.00002 14.4593Z" fill="white"/>
<path d="M11.2002 14.4593H11.174C10.0236 14.4456 9.08789 13.4869 9.08789 12.3224V9.72782C9.08789 9.59203 9.14183 9.4618 9.23785 9.36578C9.33387 9.26976 9.4641 9.21582 9.59989 9.21582C9.73568 9.21582 9.86591 9.26976 9.96193 9.36578C10.0579 9.4618 10.1119 9.59203 10.1119 9.72782V12.3233C10.1119 12.9313 10.5938 13.4293 11.1861 13.4363C11.3302 13.4381 11.4731 13.4113 11.6067 13.3575C11.7403 13.3036 11.8619 13.2238 11.9644 13.1225C12.0669 13.0213 12.1482 12.9008 12.2038 12.7679C12.2593 12.635 12.2879 12.4923 12.2879 12.3483V9.72782C12.2879 9.59203 12.3418 9.4618 12.4379 9.36578C12.5339 9.26976 12.6641 9.21582 12.7999 9.21582C12.9357 9.21582 13.0659 9.26976 13.1619 9.36578C13.2579 9.4618 13.3119 9.59203 13.3119 9.72782V12.3486C13.3119 12.9088 13.0894 13.446 12.6933 13.842C12.2972 14.2381 11.76 14.4606 11.1999 14.4606L11.2002 14.4593Z" fill="white"/>
<path d="M14.3999 14.4593H14.3737C13.2236 14.4456 12.2876 13.4872 12.2876 12.3227V9.72782C12.2876 9.59203 12.3415 9.4618 12.4376 9.36578C12.5336 9.26976 12.6638 9.21582 12.7996 9.21582C12.9354 9.21582 13.0656 9.26976 13.1616 9.36578C13.2577 9.4618 13.3116 9.59203 13.3116 9.72782V12.3237C13.3116 12.9301 13.7935 13.4293 14.3862 13.4363C14.5302 13.4381 14.6731 13.4113 14.8066 13.3574C14.9402 13.3035 15.0617 13.2236 15.1642 13.1224C15.2667 13.0212 15.348 12.9007 15.4035 12.7678C15.459 12.6349 15.4876 12.4923 15.4876 12.3483V9.72782C15.4876 9.59203 15.5415 9.4618 15.6376 9.36578C15.7336 9.26976 15.8638 9.21582 15.9996 9.21582C16.1354 9.21582 16.2656 9.26976 16.3616 9.36578C16.4577 9.4618 16.5116 9.59203 16.5116 9.72782V12.3486C16.5116 12.9088 16.2891 13.446 15.893 13.842C15.4969 14.2381 14.9597 14.4606 14.3996 14.4606L14.3999 14.4593Z" fill="white"/>
<path d="M17.6003 14.4593C17.0401 14.4593 16.5029 14.2368 16.1069 13.8408C15.7108 13.4447 15.4883 12.9075 15.4883 12.3473V9.72782C15.4883 9.59203 15.5422 9.4618 15.6382 9.36578C15.7343 9.26976 15.8645 9.21582 16.0003 9.21582C16.1361 9.21582 16.2663 9.26976 16.3623 9.36578C16.4583 9.4618 16.5123 9.59203 16.5123 9.72782V12.3486C16.5123 12.4926 16.5409 12.6352 16.5964 12.7681C16.6519 12.901 16.7332 13.0215 16.8357 13.1227C16.9381 13.224 17.0597 13.3038 17.1932 13.3577C17.3268 13.4116 17.4697 13.4384 17.6137 13.4366C18.2064 13.428 18.6883 12.9278 18.6883 12.3224V9.72782C18.6883 9.59203 18.7422 9.4618 18.8382 9.36578C18.9343 9.26976 19.0645 9.21582 19.2003 9.21582C19.3361 9.21582 19.4663 9.26976 19.5623 9.36578C19.6583 9.4618 19.7123 9.59203 19.7123 9.72782V12.3237C19.7123 13.4881 18.7763 14.4465 17.6262 14.4603L17.6003 14.4593Z" fill="white"/>
<path d="M20.8 14.4593C20.2399 14.4593 19.7027 14.2368 19.3066 13.8408C18.9105 13.4447 18.688 12.9075 18.688 12.3473V9.72782C18.688 9.59203 18.7419 9.4618 18.8379 9.36578C18.934 9.26976 19.0642 9.21582 19.2 9.21582C19.3358 9.21582 19.466 9.26976 19.562 9.36578C19.658 9.4618 19.712 9.59203 19.712 9.72782V12.3486C19.712 12.4927 19.7406 12.6353 19.7961 12.7682C19.8516 12.9011 19.933 13.0216 20.0355 13.1229C20.138 13.2241 20.2596 13.3039 20.3932 13.3578C20.5268 13.4116 20.6697 13.4384 20.8137 13.4366C21.4061 13.428 21.888 12.9278 21.888 12.3221V9.72782C21.888 9.59203 21.9419 9.4618 22.0379 9.36578C22.134 9.26976 22.2642 9.21582 22.4 9.21582C22.5358 9.21582 22.666 9.26976 22.762 9.36578C22.858 9.4618 22.912 9.59203 22.912 9.72782V12.3233C22.912 13.4878 21.9763 14.4465 20.8259 14.4603L20.8 14.4593Z" fill="white"/>
<path d="M24 14.4593H23.9741C22.8221 14.4456 21.8877 13.4872 21.8877 12.3227V9.72782C21.8877 9.59203 21.9416 9.4618 22.0377 9.36578C22.1337 9.26976 22.2639 9.21582 22.3997 9.21582C22.5355 9.21582 22.6657 9.26976 22.7617 9.36578C22.8578 9.4618 22.9117 9.59203 22.9117 9.72782V12.3237C22.9117 12.9301 23.3939 13.4293 23.9863 13.4363C24.1303 13.4381 24.2732 13.4113 24.4067 13.3574C24.5403 13.3035 24.6618 13.2236 24.7643 13.1224C24.8667 13.0212 24.9481 12.9007 25.0036 12.7678C25.0591 12.6349 25.0877 12.4923 25.0877 12.3483V9.72782C25.0877 9.59203 25.1416 9.4618 25.2377 9.36578C25.3337 9.26976 25.4639 9.21582 25.5997 9.21582C25.7355 9.21582 25.8657 9.26976 25.9617 9.36578C26.0578 9.4618 26.1117 9.59203 26.1117 9.72782V12.3486C26.1117 12.9088 25.8892 13.446 25.4931 13.842C25.097 14.2381 24.5598 14.4606 23.9997 14.4606L24 14.4593Z" fill="white"/>
<path d="M27.1999 14.4593H27.1849C26.6272 14.4558 26.0936 14.2317 25.7007 13.8359C25.3078 13.4402 25.0875 12.905 25.0879 12.3473V9.72782C25.0879 9.59203 25.1419 9.4618 25.2379 9.36578C25.3339 9.26976 25.4641 9.21582 25.5999 9.21582C25.7357 9.21582 25.8659 9.26976 25.962 9.36578C26.058 9.4618 26.1119 9.59203 26.1119 9.72782V12.3486C26.1119 12.6359 26.2255 12.9114 26.4279 13.1153C26.6303 13.3191 26.905 13.4346 27.1922 13.4366C27.3337 13.437 27.4738 13.4092 27.6043 13.3548C27.7349 13.3004 27.8533 13.2205 27.9526 13.1198C28.1659 12.9081 28.2866 12.6204 28.2879 12.3198V9.72782C28.2879 9.59203 28.3419 9.4618 28.4379 9.36578C28.5339 9.26976 28.6641 9.21582 28.7999 9.21582C28.9357 9.21582 29.0659 9.26976 29.162 9.36578C29.258 9.4618 29.3119 9.59203 29.3119 9.72782V12.3198C29.3093 12.8924 29.08 13.4406 28.6742 13.8446C28.481 14.039 28.2513 14.1934 27.9983 14.2989C27.7453 14.4044 27.474 14.4589 27.1999 14.4593ZM19.1622 29.2139C19.0264 29.2139 18.8961 29.16 18.8001 29.0639C18.7041 28.9679 18.6502 28.8377 18.6502 28.7019V19.3377H13.3497V28.7019C13.3497 28.8377 13.2957 28.9679 13.1997 29.0639C13.1037 29.16 12.9735 29.2139 12.8377 29.2139C12.7019 29.2139 12.5717 29.16 12.4756 29.0639C12.3796 28.9679 12.3257 28.8377 12.3257 28.7019V18.8257C12.3257 18.6899 12.3796 18.5597 12.4756 18.4637C12.5717 18.3677 12.7019 18.3137 12.8377 18.3137H19.1622C19.298 18.3137 19.4282 18.3677 19.5242 18.4637C19.6202 18.5597 19.6742 18.6899 19.6742 18.8257V28.7019C19.6742 28.8377 19.6202 28.9679 19.5242 29.0639C19.4282 29.16 19.298 29.2139 19.1622 29.2139Z" fill="white"/>
<path d="M17.5833 24.9899C17.4475 24.9899 17.3173 24.936 17.2213 24.84C17.1252 24.7439 17.0713 24.6137 17.0713 24.4779V23.0501C17.0713 22.9143 17.1252 22.7841 17.2213 22.688C17.3173 22.592 17.4475 22.5381 17.5833 22.5381C17.7191 22.5381 17.8493 22.592 17.9453 22.688C18.0413 22.7841 18.0953 22.9143 18.0953 23.0501V24.4779C18.0953 24.6137 18.0413 24.7439 17.9453 24.84C17.8493 24.936 17.7191 24.9899 17.5833 24.9899Z" fill="white"/>
</svg>