<svg xmlns="http://www.w3.org/2000/svg" width="32" height="32" viewBox="0 0 32 32" fill="none">
<path d="M13.2703 4.76367C13.2172 4.66157 13.2065 4.54267 13.2404 4.4327C13.2744 4.32274 13.3503 4.23058 13.4517 4.17618C13.5531 4.12178 13.6718 4.10953 13.7822 4.14207C13.8926 4.17461 13.9857 4.24934 14.0414 4.35005C14.1357 4.5258 14.3178 4.63492 14.5167 4.63492C14.7155 4.63492 14.8977 4.5258 14.9919 4.35005C15.0191 4.29942 15.0559 4.25463 15.1004 4.21824C15.1449 4.18186 15.1961 4.15459 15.2511 4.13799C15.3061 4.12139 15.3638 4.11579 15.421 4.1215C15.4782 4.12722 15.5337 4.14414 15.5843 4.1713C15.6349 4.19846 15.6797 4.23532 15.7161 4.27979C15.7525 4.32426 15.7798 4.37546 15.7964 4.43047C15.813 4.48547 15.8186 4.54321 15.8128 4.60038C15.8071 4.65755 15.7902 4.71304 15.763 4.76367C15.6424 4.98928 15.4627 5.17787 15.2431 5.30931C15.0236 5.44074 14.7725 5.51008 14.5167 5.50992C14.2608 5.51008 14.0097 5.44074 13.7902 5.30931C13.5707 5.17787 13.391 4.98928 13.2703 4.76367ZM7.44474 16.3412C6.46405 16.3412 5.47755 16.009 4.58361 15.365C3.37392 14.4937 2.47624 13.1502 2.05605 11.582L0.577424 6.06449C0.557274 5.98933 0.557533 5.91017 0.578176 5.83515C0.598818 5.76013 0.639097 5.69197 0.694858 5.63771C0.750619 5.58344 0.819845 5.54503 0.895398 5.52644C0.970951 5.50784 1.0501 5.50974 1.12467 5.53192C2.89017 6.05649 5.51611 5.5648 7.49417 4.67399L7.49411 0.999236C7.4941 0.921435 7.51484 0.845039 7.55419 0.777924C7.59354 0.710808 7.65007 0.655401 7.71797 0.617415C7.78587 0.579429 7.86267 0.560239 7.94045 0.561822C8.01824 0.563406 8.09419 0.585706 8.16049 0.626424C10.4565 2.03624 15.0932 1.82211 17.0113 0.627674C17.0775 0.586412 17.1536 0.56362 17.2316 0.561661C17.3096 0.559703 17.3868 0.578648 17.455 0.616534C17.5232 0.65442 17.5801 0.709867 17.6197 0.777126C17.6592 0.844384 17.6801 0.921007 17.6801 0.999049L17.6803 6.7113C17.6804 10.0964 15.3957 12.8504 12.5874 12.8505C12.3433 12.8505 12.0997 12.8296 11.8592 12.7882C11.7857 13.0265 11.6994 13.2598 11.5977 13.4855C10.9722 14.8754 9.89499 15.8372 8.56455 16.1937C8.19932 16.2916 7.82285 16.3412 7.44474 16.3412ZM13.8752 8.7713C13.4807 8.38224 13.0403 8.17542 12.5871 8.17542C12.3028 8.17542 12.0235 8.25774 11.7537 8.41867L11.8374 8.7308C12.5149 8.69317 13.2068 8.70636 13.8752 8.7713ZM8.36911 4.2288C8.90136 3.92242 9.35105 3.58774 9.67417 3.2423C9.72748 3.1853 9.79506 3.1436 9.86991 3.12152C9.94476 3.09944 10.0242 3.09778 10.0999 3.11672C10.1756 3.13565 10.2448 3.1745 10.3005 3.22922C10.3561 3.28394 10.3961 3.35254 10.4163 3.42792L10.738 4.62849C10.8209 4.61602 10.8998 4.58436 10.9684 4.53602C11.0369 4.48768 11.0932 4.424 11.1328 4.35005C11.16 4.29942 11.1968 4.25463 11.2413 4.21824C11.2858 4.18186 11.337 4.15459 11.392 4.13799C11.447 4.12139 11.5047 4.11579 11.5619 4.1215C11.6191 4.12722 11.6745 4.14414 11.7252 4.1713C11.7758 4.19846 11.8206 4.23532 11.857 4.27979C11.8934 4.32426 11.9206 4.37546 11.9372 4.43047C11.9538 4.48547 11.9594 4.54321 11.9537 4.60038C11.948 4.65755 11.9311 4.71304 11.9039 4.76367C11.8079 4.94297 11.6743 5.09942 11.5123 5.22231C11.3502 5.34521 11.1635 5.43165 10.965 5.47574L11.5212 7.55149C11.8639 7.38649 12.2245 7.30042 12.587 7.30042C13.614 7.30042 14.5537 7.95061 15.2331 9.13124C15.2748 9.20361 15.2948 9.2864 15.2909 9.36981C15.2871 9.45323 15.2594 9.53379 15.2112 9.60198C15.163 9.67018 15.0963 9.72315 15.0189 9.75465C14.9416 9.78615 14.8569 9.79485 14.7747 9.77974C14.0698 9.65011 13.3337 9.58436 12.587 9.58436C12.4038 9.58436 12.2204 9.58861 12.0377 9.59655C12.1761 10.3875 12.1824 11.1789 12.0592 11.9338C12.2339 11.9613 12.4104 11.9752 12.5872 11.9754C14.913 11.9753 16.8051 9.6138 16.805 6.71117L16.8049 1.71417C14.6286 2.64605 10.8137 2.7988 8.36886 1.71917L8.36911 4.2288ZM5.09492 14.6551C6.11449 15.3895 7.26611 15.6356 8.33805 15.3484C9.40986 15.0612 10.2842 14.272 10.7999 13.1264C11.3292 11.9503 11.4179 10.5459 11.0497 9.17199L9.75624 4.34524C7.8953 5.80867 4.24986 6.94336 1.60899 6.53355L2.90124 11.3556C3.26936 12.7295 4.04849 13.9012 5.09492 14.6551ZM7.88424 13.6559C7.68081 13.7104 7.4711 13.738 7.26049 13.7379C6.45255 13.7379 5.61774 13.3376 4.85461 12.5722C4.7956 12.5131 4.75476 12.4384 4.7369 12.3568C4.71904 12.2752 4.72491 12.1902 4.75383 12.1118C4.78275 12.0335 4.8335 11.965 4.90008 11.9146C4.96666 11.8642 5.04629 11.8338 5.12955 11.8272C5.8438 11.77 6.57174 11.643 7.29324 11.4497C8.01455 11.2564 8.70855 11.0024 9.3558 10.6948C9.43121 10.6589 9.51532 10.6454 9.59818 10.6558C9.68104 10.6662 9.75919 10.7001 9.8234 10.7535C9.8876 10.8069 9.93518 10.8775 9.9605 10.9571C9.98583 11.0367 9.98784 11.1219 9.9663 11.2025C9.61561 12.5187 8.87624 13.39 7.88424 13.6559ZM7.6578 12.8106C8.09555 12.6934 8.46749 12.3795 8.7478 11.9016C8.34499 12.0524 7.93511 12.1837 7.51961 12.2949C7.10419 12.4063 6.68361 12.4976 6.25936 12.5684C6.74099 12.8421 7.21992 12.9281 7.6578 12.8106ZM5.20011 9.25699C5.27956 9.34156 5.38935 9.3911 5.50533 9.39472C5.62131 9.39835 5.73398 9.35575 5.81855 9.2763C5.90312 9.19685 5.95267 9.08706 5.95629 8.97108C5.95991 8.8551 5.91731 8.74243 5.83786 8.65786C5.66285 8.47122 5.44045 8.33559 5.1944 8.26545C4.94834 8.19531 4.68785 8.19329 4.44074 8.25961C4.19357 8.32569 3.96898 8.45767 3.79098 8.64145C3.61297 8.82522 3.48822 9.0539 3.43005 9.30305C3.41691 9.35898 3.41492 9.41695 3.42419 9.47365C3.43346 9.53036 3.45382 9.58467 3.4841 9.6335C3.51437 9.68234 3.55397 9.72472 3.60063 9.75824C3.6473 9.79176 3.70011 9.81576 3.75605 9.82886C3.7889 9.83665 3.82254 9.84059 3.8563 9.84061C3.9549 9.84048 4.05056 9.80706 4.1278 9.74577C4.20504 9.68448 4.25932 9.59891 4.28186 9.50292C4.30403 9.40788 4.35159 9.32063 4.41948 9.25051C4.48736 9.18038 4.573 9.13001 4.66728 9.10476C4.76155 9.07951 4.86092 9.08033 4.95476 9.10714C5.0486 9.13395 5.1334 9.18574 5.20011 9.25699ZM7.48361 8.83017C7.51647 8.83791 7.55011 8.84183 7.58386 8.84186C7.68247 8.84174 7.77815 8.80833 7.8554 8.74704C7.93265 8.68575 7.98695 8.60017 8.00949 8.50417C8.03161 8.40912 8.07914 8.32186 8.147 8.25172C8.21486 8.18158 8.3005 8.13119 8.39477 8.10593C8.48903 8.08067 8.58839 8.08149 8.68223 8.10831C8.77607 8.13512 8.86086 8.18692 8.92755 8.25817C9.00744 8.34084 9.11665 8.38874 9.23158 8.39152C9.3465 8.39431 9.45791 8.35175 9.54171 8.27306C9.62551 8.19436 9.67498 8.08585 9.67942 7.97098C9.68385 7.8561 9.64291 7.7441 9.56542 7.65917C9.39048 7.47245 9.1681 7.33677 8.92203 7.26662C8.67596 7.19648 8.41546 7.19451 8.16836 7.26092C7.92117 7.327 7.69657 7.45897 7.51854 7.64275C7.34051 7.82652 7.21574 8.0552 7.15755 8.30436C7.13106 8.41733 7.15054 8.53619 7.21168 8.6348C7.27283 8.7334 7.37065 8.80368 7.48361 8.83017ZM31.4226 8.75774C31.3926 8.8698 31.3192 8.96533 31.2188 9.02335C31.1183 9.08136 30.9989 9.0971 30.8868 9.06711L28.2461 8.35955C27.7427 8.22467 27.3719 7.82236 27.2782 7.30967C27.2615 7.21811 27.1936 7.14374 27.1052 7.11999C27.0232 7.09817 26.9567 7.12599 26.9245 7.14461C26.8927 7.16292 26.8367 7.20542 26.8139 7.28511L22.0882 26.7734L22.0857 26.7835C21.6532 28.3972 20.6131 29.7489 19.1569 30.5897C18.1846 31.151 17.1079 31.4378 16.0194 31.4378C15.4712 31.4375 14.9255 31.3653 14.3962 31.223C11.8307 30.5355 9.96942 28.2897 9.76205 25.6331C9.57792 24.0477 8.78674 23.5055 8.4258 23.3385C8.1608 23.522 7.84611 23.6208 7.51561 23.6208C7.08717 23.6208 6.68517 23.4548 6.3838 23.1534C6.08236 22.852 5.91636 22.45 5.91636 22.0215C5.91636 21.5931 6.08236 21.1911 6.3838 20.8897L11.8312 15.4424C12.4522 14.8213 13.4609 14.8185 14.0855 15.4333C14.3787 15.6982 14.5469 16.0764 14.5596 16.4997C14.5687 16.8016 14.498 17.0957 14.3602 17.3497C15.0391 18.0859 16.6149 20.2355 16.1985 23.9884C16.1219 24.6795 16.3008 25.0879 16.7302 25.2022C17.1023 25.3012 17.4242 24.9554 17.6881 24.1747L19.8391 17.8111L19.0947 17.6117C18.8576 17.9485 18.4674 18.1545 18.0514 18.1545C17.9401 18.1544 17.8293 18.1398 17.7218 18.1109C17.3928 18.0227 17.1179 17.8117 16.9475 17.5168C16.7772 17.2219 16.732 16.8782 16.8202 16.5493C17.0021 15.8704 17.7022 15.4659 18.3817 15.6477C18.9121 15.7899 19.2735 16.2487 19.3202 16.7663L20.1199 16.9805L20.9135 14.6327L20.1688 14.4332C20.0625 14.5853 19.9242 14.7122 19.7636 14.805C19.5706 14.9171 19.3514 14.9762 19.1282 14.9764C19.0174 14.9764 18.9059 14.9619 18.7961 14.9324C18.1171 14.7505 17.7126 14.05 17.8945 13.3709C18.0765 12.6918 18.7772 12.2875 19.456 12.4692L19.4561 12.4693C19.618 12.5122 19.7698 12.5868 19.9027 12.6888C20.0356 12.7908 20.1469 12.9181 20.2303 13.0634C20.323 13.2241 20.3793 13.4032 20.3953 13.588L21.1943 13.8021L21.9879 11.4543L21.2435 11.2549C21.0064 11.5917 20.6161 11.7977 20.2002 11.7977C20.0889 11.7976 19.9781 11.783 19.8706 11.7541C19.1915 11.5721 18.7871 10.8716 18.9689 10.1925C19.0119 10.0306 19.0865 9.87882 19.1884 9.74592C19.2904 9.61303 19.4178 9.50167 19.563 9.4183C19.7079 9.33413 19.868 9.27953 20.034 9.25768C20.2001 9.23582 20.3689 9.24714 20.5306 9.29099C20.6925 9.33389 20.8443 9.40848 20.9771 9.51045C21.11 9.61243 21.2213 9.73975 21.3047 9.88505C21.3974 10.0458 21.4537 10.2248 21.4697 10.4097L22.2687 10.6237L23.6161 6.63749C24.2505 4.76055 26.0885 3.7093 27.8899 4.19205C28.7888 4.43292 29.5416 5.01211 30.0097 5.82292C30.4037 6.50536 30.5548 7.2803 30.4492 8.04455L31.1133 8.22249C31.3466 8.28449 31.4851 8.52436 31.4226 8.75774ZM20.3041 10.1356C20.2533 10.1219 20.2004 10.1183 20.1483 10.1252C20.0962 10.132 20.046 10.1491 20.0005 10.1755C19.955 10.2016 19.915 10.2366 19.883 10.2783C19.851 10.32 19.8276 10.3676 19.8142 10.4184C19.7869 10.5209 19.8013 10.63 19.8543 10.7219C19.9074 10.8137 19.9946 10.8808 20.097 10.9084C20.3095 10.9652 20.5298 10.8387 20.587 10.6255C20.6143 10.523 20.5998 10.4139 20.5468 10.3221C20.4937 10.2302 20.4065 10.1632 20.3041 10.1356ZM19.4725 13.5005C19.4464 13.4549 19.4114 13.4149 19.3697 13.3829C19.328 13.3509 19.2804 13.3275 19.2295 13.314C19.1959 13.305 19.1611 13.3005 19.1262 13.3004C19.0382 13.3005 18.9526 13.3296 18.8827 13.3832C18.8128 13.4368 18.7625 13.512 18.7396 13.597C18.7123 13.6995 18.7267 13.8086 18.7798 13.9004C18.8328 13.9922 18.9201 14.0593 19.0225 14.0869C19.0732 14.1006 19.1262 14.1042 19.1783 14.0973C19.2304 14.0905 19.2806 14.0733 19.326 14.0469C19.3716 14.0208 19.4116 13.9858 19.4436 13.9441C19.4755 13.9024 19.4989 13.8548 19.5124 13.804C19.5262 13.7533 19.5298 13.7003 19.5229 13.6482C19.5161 13.5961 19.499 13.5459 19.4725 13.5005ZM18.1553 16.4926C18.1216 16.4835 18.0868 16.4789 18.0519 16.4789C17.8752 16.4789 17.7132 16.5969 17.6654 16.7754C17.6516 16.8261 17.6481 16.8791 17.6549 16.9312C17.6618 16.9833 17.6789 17.0335 17.7053 17.0789C17.7314 17.1245 17.7664 17.1645 17.8081 17.1965C17.8498 17.2285 17.8974 17.2519 17.9482 17.2653C18.1618 17.3228 18.3811 17.1955 18.4382 16.9824C18.4655 16.88 18.451 16.7709 18.398 16.679C18.345 16.5872 18.2577 16.5202 18.1553 16.4926ZM8.0288 22.5347L13.4762 17.0873C13.6134 16.95 13.6915 16.7401 13.685 16.5258C13.6819 16.419 13.6529 16.2189 13.4952 16.079C13.4886 16.0732 13.4823 16.0672 13.4761 16.061C13.1932 15.7783 12.7328 15.7782 12.4498 16.061L7.00242 21.5084C6.86624 21.6446 6.7913 21.8269 6.7913 22.0215C6.7913 22.2163 6.86624 22.3986 7.00242 22.5347C7.13861 22.6709 7.32086 22.7459 7.51561 22.7459C7.71036 22.7459 7.89267 22.6709 8.0288 22.5347ZM29.2519 6.25992C28.9006 5.65155 28.3365 5.21705 27.6634 5.0368C26.3132 4.67505 24.9296 5.48342 24.4449 6.91717L23.1155 10.8502L23.243 10.8844C23.3547 10.9147 23.4499 10.9881 23.5076 11.0885C23.5653 11.1888 23.5809 11.308 23.5509 11.4198C23.5209 11.5316 23.4479 11.627 23.3477 11.6851C23.2476 11.7431 23.1285 11.7591 23.0166 11.7295L22.8347 11.6808L22.0411 14.0287L22.1687 14.0629C22.2804 14.0932 22.3755 14.1666 22.4333 14.267C22.491 14.3673 22.5066 14.4865 22.4766 14.5983C22.4466 14.7101 22.3736 14.8055 22.2734 14.8636C22.1733 14.9216 22.0542 14.9376 21.9422 14.908L21.7604 14.8593L20.9668 17.2071L21.0943 17.2413C21.206 17.2716 21.3012 17.345 21.3589 17.4454C21.4166 17.5457 21.4322 17.6649 21.4022 17.7767C21.3723 17.8885 21.2992 17.9839 21.199 18.042C21.0989 18.1001 20.9798 18.1161 20.8679 18.0865L20.686 18.0377L18.517 24.4546C17.9427 26.1537 17.01 26.1819 16.5051 26.0475C15.6314 25.8148 15.2028 25.029 15.329 23.8917C15.5703 21.7159 15.0619 20.1582 14.5929 19.2345C14.3056 18.6689 13.9975 18.2645 13.7824 18.0184L9.08967 22.7111C9.6668 23.0781 10.4412 23.873 10.6324 25.5412C10.633 25.5466 10.6335 25.5521 10.6339 25.5575C10.8095 27.8484 12.4125 29.7855 14.6227 30.3777C16.0105 30.7496 17.4654 30.5558 18.7194 29.8319C19.9718 29.1088 20.8665 27.9476 21.2392 26.5619L25.9652 7.07249L25.9677 7.06236C26.0445 6.77574 26.229 6.5358 26.4871 6.3868C26.7452 6.23774 27.0453 6.19799 27.3317 6.2748C27.7451 6.38561 28.0619 6.73011 28.139 7.15249C28.1722 7.33449 28.2939 7.46642 28.4726 7.5143L29.5949 7.81505C29.6457 7.27867 29.5285 6.73911 29.2519 6.25992Z" fill="white"/>
</svg>