<svg xmlns="http://www.w3.org/2000/svg" width="32" height="32" viewBox="0 0 32 32" fill="none">
<path d="M16.7661 15.2321C13.2757 11.8623 8.91913 9.35642 7.85194 11.9262C7.83913 11.9554 7.73682 12.2331 7.65819 12.4047L2.20334 27.7305C1.89084 28.6109 1.98402 29.2665 2.38977 29.6007C2.72415 30.0044 3.38021 30.0994 4.26102 29.787L19.595 24.3351C19.7668 24.2566 20.0445 24.1543 20.0738 24.1415C22.645 23.0749 20.1377 18.7206 16.7661 15.2321Z" stroke="white" stroke-miterlimit="10" stroke-linecap="round" stroke-linejoin="round"/>
<path d="M14.5056 19.3016C16.2252 21.2504 17.5848 23.3453 17.9211 24.9307L15.1068 25.9316C14.3612 24.3025 12.9267 22.4029 11.2893 20.7062C9.59159 19.0697 7.69109 17.6359 6.06104 16.8907L7.06247 14.0779C8.71809 14.4286 10.9293 15.8934 12.9486 17.7181" stroke="white" stroke-miterlimit="10" stroke-linecap="round" stroke-linejoin="round"/>
<path d="M8.15918 23.8345C9.25749 24.9724 10.2644 26.2016 11.0337 27.3796L7.82843 28.5176C7.22356 27.7267 6.53825 26.934 5.81094 26.1815C5.058 25.4546 4.26494 24.7697 3.47363 24.1652L4.61213 20.9615C5.79081 21.7305 7.02068 22.7368 8.15918 23.8345Z" stroke="white" stroke-miterlimit="10" stroke-linecap="round" stroke-linejoin="round"/>
<path d="M19.5386 9.91377L21.5105 7.54303C21.7608 7.29278 22.1701 7.29278 22.4205 7.54303L24.4306 9.55033C24.681 9.80052 24.681 10.2096 24.4306 10.4599L17.5998 16.1328M15.8345 14.3703L18.1132 11.6306" stroke="white" stroke-miterlimit="10" stroke-linecap="round" stroke-linejoin="round"/>
<path d="M13.8261 12.7695C15.946 9.36504 15.2771 6.1048 14.7819 4.09206C14.1788 1.63731 10.7652 2.22 11.4633 4.81718C12.0572 7.03267 12.3167 8.78054 11.9 11.5878" stroke="white" stroke-miterlimit="10" stroke-linecap="round" stroke-linejoin="round"/>
<path d="M19.2646 18.2201C22.7349 16.348 25.9146 17.1718 27.8809 17.7617C30.3042 18.4886 29.5494 21.8658 26.9892 21.0384C24.8675 20.3516 23.1698 20.0046 20.4818 20.2366" stroke="white" stroke-miterlimit="10" stroke-linecap="round" stroke-linejoin="round"/>
<path d="M26.3934 0.857698L26.0022 2.23301C25.9584 2.38276 25.9602 2.42844 25.8122 2.51063L24.5001 3.23394C24.2461 3.37457 24.2497 3.44213 24.4928 3.60288L25.6898 4.4485C25.8177 4.53981 25.867 4.67137 25.8981 4.83937L26.1522 6.21468C26.196 6.50324 26.2636 6.52156 26.4957 6.34618L27.594 5.50056C27.7072 5.41287 27.9102 5.35806 28.0527 5.37818L29.425 5.56081C29.7156 5.59731 29.7631 5.548 29.659 5.27587L29.1893 3.95719C29.1327 3.7965 29.1108 3.6595 29.1765 3.51519L29.7887 2.18369C29.9184 1.92432 29.8892 1.86407 29.5968 1.86957L28.1002 1.89876C27.9302 1.90063 27.9083 1.86045 27.7968 1.75263L26.7698 0.757261C26.5614 0.556324 26.4737 0.580074 26.3934 0.857698Z" stroke="white" stroke-miterlimit="10" stroke-linecap="round" stroke-linejoin="round"/>
<path d="M21.0956 1.8989L19.2682 0.843217C19.0617 0.724467 18.7565 0.77928 18.6742 1.00397L17.6783 3.69246C17.5942 3.91715 17.6307 4.16733 17.8372 4.28608L18.8277 4.85958C19.0361 4.97833 19.27 4.88333 19.4217 4.69883L21.2546 2.49252C21.4081 2.30803 21.3039 2.01765 21.0956 1.8989Z" stroke="white" stroke-miterlimit="10" stroke-linecap="round" stroke-linejoin="round"/>
<path d="M28.1879 8.88492H30.9547C31.2689 8.88492 31.5777 9.14611 31.5248 9.45479L30.8925 13.1607C30.8395 13.4693 30.6348 13.7305 30.3223 13.7305H28.822C28.5077 13.7305 28.3049 13.4693 28.2518 13.1607L27.6178 9.45479C27.5648 9.14611 27.8754 8.88492 28.1879 8.88492Z" stroke="white" stroke-miterlimit="10" stroke-linecap="round" stroke-linejoin="round"/>
<path d="M0.909788 9.81875L3.58147 9.10276C3.88484 9.02057 4.25034 9.19407 4.27959 9.50463L4.62859 13.2488C4.65784 13.5611 4.52809 13.8662 4.22478 13.9465L2.7756 14.3356C2.47222 14.4159 2.2091 14.2169 2.07753 13.9319L0.505914 10.5164C0.374352 10.2315 0.606414 9.89913 0.909788 9.81875Z" stroke="white" stroke-miterlimit="10" stroke-linecap="round" stroke-linejoin="round"/>
<path d="M23.3928 29.4089L21.591 31.2097C21.3863 31.4143 21.0153 31.4453 20.8491 31.2097L18.8462 28.3842C18.678 28.1486 18.6415 27.8454 18.8462 27.6409L19.822 26.6655C20.0267 26.4609 20.3301 26.4975 20.5658 26.6655L23.3928 28.6673C23.6285 28.8335 23.5975 29.2043 23.3928 29.4089Z" stroke="white" stroke-miterlimit="10" stroke-linecap="round" stroke-linejoin="round"/>
<path d="M6.48359 0.934553L6.90934 2.42674C6.9569 2.5893 6.95503 2.63861 7.1159 2.72811L8.53946 3.51348C8.8154 3.66511 8.81171 3.73817 8.54858 3.91348L7.24928 4.83217C7.10859 4.93079 7.05559 5.07329 7.02084 5.25591L6.74671 6.74816C6.6974 7.06047 6.62428 7.08053 6.37209 6.8906L5.18247 5.97191C5.05816 5.87691 4.83891 5.81848 4.6836 5.83854L3.19422 6.03766C2.87991 6.07779 2.82691 6.02304 2.94023 5.72898L3.45004 4.29886C3.51222 4.12354 3.53591 3.97373 3.46466 3.81854L2.79948 2.3738C2.65691 2.09074 2.68985 2.02492 3.00598 2.03224L4.63241 2.0633C4.81697 2.06699 4.83891 2.02311 4.96134 1.90442L6.07603 0.824991C6.30265 0.605804 6.39765 0.631366 6.48359 0.934553Z" stroke="white" stroke-miterlimit="10" stroke-linecap="round" stroke-linejoin="round"/>
<path d="M28.1694 23.0291L27.3709 24.3624C27.2831 24.5084 27.2722 24.556 27.093 24.5998L25.5123 24.9907C25.2053 25.0674 25.1907 25.1386 25.4009 25.3761L26.4187 26.6016C26.5284 26.7331 26.543 26.8847 26.5284 27.0692L26.4077 28.5851C26.373 28.8992 26.4389 28.9376 26.7331 28.8189L28.1219 28.2399C28.2681 28.1796 28.4947 28.1796 28.6391 28.2399L30.0298 28.8189C30.3221 28.9376 30.3879 28.8992 30.355 28.5851L30.2326 27.0692C30.218 26.8847 30.2326 26.7331 30.3423 26.6016L31.3619 25.3761C31.5721 25.1386 31.5557 25.0674 31.2487 24.9907L29.6679 24.5998C29.4888 24.556 29.4779 24.5084 29.3901 24.3624L28.5915 23.0291C28.4308 22.7588 28.3321 22.7588 28.1694 23.0291Z" stroke="white" stroke-miterlimit="10" stroke-linecap="round" stroke-linejoin="round"/>
</svg>