<svg xmlns="http://www.w3.org/2000/svg" width="36" height="36" viewBox="0 0 36 36" fill="none">
<path d="M7.85645 3.41076V0.527252C17.1273 4.14833 17.9999 11.6963 17.9999 11.6963C17.9999 11.6963 18.8726 4.14833 28.1434 0.527252V3.41083" stroke="white" stroke-miterlimit="10" stroke-linecap="round" stroke-linejoin="round"/>
<path d="M10.2758 4.54102C7.10285 2.86857 4.36566 2.24131 4.36566 2.24131L2.43945 4.19867" stroke="white" stroke-miterlimit="10" stroke-linecap="round" stroke-linejoin="round"/>
<path d="M18.1118 11.6963C16.8496 9.44109 15.0381 7.67302 13.1426 6.30748" stroke="white" stroke-miterlimit="10" stroke-linecap="round" stroke-linejoin="round"/>
<path d="M17.8887 11.6963C21.9367 4.4634 31.6351 2.24083 31.6351 2.24083L33.5614 4.19819" stroke="white" stroke-miterlimit="10" stroke-linecap="round" stroke-linejoin="round"/>
<path d="M19.664 35.4727H16.3359C15.9476 35.4727 15.6328 35.1578 15.6328 34.7695V12.3996C15.6328 12.0113 15.9476 11.6965 16.3359 11.6965H19.664C20.0524 11.6965 20.3672 12.0113 20.3672 12.3996V34.7695C20.3672 35.1578 20.0524 35.4727 19.664 35.4727Z" stroke="white" stroke-miterlimit="10" stroke-linecap="round" stroke-linejoin="round"/>
<path d="M20.3671 16.4925H15.6328V14.1488H20.3671V16.4925ZM20.3671 33.0195H15.6328V30.6757H20.3671V33.0195Z" stroke="white" stroke-miterlimit="10" stroke-linecap="round" stroke-linejoin="round"/>
<path d="M18 20.4209V26.749" stroke="white" stroke-miterlimit="10" stroke-linecap="round" stroke-linejoin="round"/>
<path d="M35.3671 23.7956V26.624C35.3671 26.7488 35.3339 26.8713 35.2709 26.979C35.208 27.0867 35.1175 27.1756 35.0087 27.2368L21.415 34.8833C20.9463 35.1469 20.3672 34.8082 20.3672 34.2705V12.1077C20.3672 11.983 20.4004 11.8605 20.4634 11.7528C20.5263 11.6451 20.6168 11.5561 20.7256 11.4949L34.3193 3.84848C34.788 3.58488 35.3671 3.92351 35.3671 4.46126V20.4206" stroke="white" stroke-miterlimit="10" stroke-linecap="round" stroke-linejoin="round"/>
<path d="M14.585 34.8833L0.991265 27.2368C0.882516 27.1757 0.792 27.0867 0.729007 26.979C0.666014 26.8713 0.632814 26.7487 0.632812 26.624V4.46125C0.632812 3.9235 1.21197 3.58481 1.68068 3.84841L15.2744 11.4949C15.3831 11.556 15.4736 11.645 15.5366 11.7527C15.5996 11.8604 15.6328 11.9829 15.6328 12.1077V34.2704C15.6328 34.8082 15.0537 35.1469 14.585 34.8833Z" stroke="white" stroke-miterlimit="10" stroke-linecap="round" stroke-linejoin="round"/>
<path d="M32.7894 13.0664L22.9453 18.6914V15.2917L32.7894 9.66675V13.0664Z" stroke="white" stroke-miterlimit="10" stroke-linecap="round" stroke-linejoin="round"/>
</svg>