<svg xmlns="http://www.w3.org/2000/svg" width="32" height="32" viewBox="0 0 32 32" fill="none">
<path fill-rule="evenodd" clip-rule="evenodd" d="M27.5369 12.9172H6.21362L26.6949 6.98413C26.854 6.93788 26.9883 6.83042 27.0684 6.68531C27.108 6.61344 27.1331 6.53447 27.1422 6.4529C27.1513 6.37133 27.1442 6.28876 27.1213 6.20994L26.0496 2.51C25.6213 1.03225 24.2454 0 22.7033 0C22.3784 0 22.0547 0.046125 21.7407 0.136937L2.51099 5.70756C1.62162 5.96506 0.884494 6.55638 0.435057 7.37206C-0.0141931 8.18769 -0.119631 9.12694 0.137932 10.0161L1.18506 13.6309V28.5217C1.18499 30.4397 2.74537 32 4.66306 32H12.1733C12.5186 32 12.7983 31.7202 12.7983 31.375C12.7983 31.0298 12.5186 30.75 12.1733 30.75H4.66331C3.43456 30.75 2.43506 29.7505 2.43506 28.5217V20.0164H26.9118V28.5217C26.9118 29.7505 25.9124 30.75 24.6836 30.75H17.1733C16.8283 30.75 16.5483 31.0298 16.5483 31.375C16.5483 31.7202 16.8283 32 17.1733 32H24.6836C26.6016 32 28.1619 30.4397 28.1619 28.5217V13.5422C28.1619 13.197 27.8821 12.9172 27.5369 12.9172ZM16.5161 18.7664L19.1716 14.1672H22.6255L19.9702 18.7664H16.5161ZM11.6186 18.7664L14.2742 14.1672H17.728L15.0727 18.7664H11.6186ZM6.72143 18.7664L9.37668 14.1672H12.8308L10.1753 18.7664H6.72143ZM9.04518 10.6753L4.59837 6.40431L7.93018 5.43919C7.95415 5.47405 7.98163 5.50636 8.01218 5.53562L12.459 9.80663L9.12718 10.7718C9.1032 10.7369 9.07572 10.7046 9.04518 10.6753ZM17.4202 2.81031L21.8669 7.08125L18.5351 8.04631C18.5112 8.0114 18.4837 7.97908 18.4531 7.94987L14.0063 3.67887L17.3381 2.71381C17.362 2.74867 17.3895 2.78099 17.4201 2.81025L17.4202 2.81031ZM12.7161 4.17312L17.1628 8.44388L13.8311 9.40919C13.8071 9.37428 13.7796 9.34196 13.749 9.31275L9.30224 5.04175L12.6341 4.07669C12.6577 4.11062 12.6851 4.14306 12.7161 4.17312ZM22.0886 1.33763C22.2892 1.2795 22.4961 1.25 22.7034 1.25C23.6924 1.25 24.5744 1.91113 24.8489 2.85794L25.7468 5.95731L23.2393 6.68356C23.2152 6.64877 23.1876 6.61649 23.157 6.58719L18.7104 2.31638L22.0886 1.33763ZM1.52999 7.97512C1.81812 7.45187 2.28999 7.073 2.85887 6.90825L3.22606 6.80175C3.25013 6.83655 3.27762 6.86885 3.30812 6.89819L7.75487 11.1692L2.23656 12.7678L1.33862 9.66844C1.17381 9.09988 1.24193 8.49856 1.52999 7.97512ZM2.43499 14.1672H7.93337L5.27806 18.7664H2.43506L2.43499 14.1672ZM21.4136 18.7664L24.0689 14.1672H26.9119V18.7664H21.4136Z" fill="white"/>
<path fill-rule="evenodd" clip-rule="evenodd" d="M18.9949 25.3195C18.9949 25.2098 18.966 25.102 18.9112 25.007C18.8563 24.912 18.7774 24.8331 18.6824 24.7783L13.1914 21.6081C13.0964 21.5533 12.9886 21.5244 12.8789 21.5244C12.7692 21.5244 12.6614 21.5533 12.5664 21.6081C12.4714 21.6629 12.3925 21.7418 12.3376 21.8368C12.2828 21.9318 12.2539 22.0396 12.2539 22.1493V28.4897C12.2539 28.5994 12.2828 28.7071 12.3377 28.8021C12.3925 28.8971 12.4714 28.9759 12.5664 29.0307C12.6614 29.0857 12.7692 29.1146 12.8789 29.1146C12.9886 29.1146 13.0964 29.0857 13.1914 29.0307L18.6824 25.8608C18.7774 25.8059 18.8563 25.727 18.9112 25.632C18.966 25.537 18.9949 25.4292 18.9949 25.3195ZM13.5039 27.4072V23.2318L17.1199 25.3195L13.5039 27.4072ZM14.6731 30.75C14.3289 30.75 14.0481 31.0307 14.0481 31.375C14.0481 31.7192 14.3289 32 14.6731 32C15.0176 32 15.2981 31.7192 15.2981 31.375C15.2981 31.0307 15.0176 30.75 14.6731 30.75Z" fill="white"/>
</svg>