<svg xmlns="http://www.w3.org/2000/svg" width="37" height="36" viewBox="0 0 37 36" fill="none">
<path d="M35.5003 12.8911L20.6857 6.94621C19.5535 6.49185 17.7795 6.49192 16.6473 6.94621L1.83271 12.8911C0.818027 13.2984 0.666504 13.9166 0.666504 14.249C0.666504 14.5813 0.818027 15.1996 1.83271 15.6068L8.68684 18.3573V27.5497C8.68683 27.7065 8.73918 27.8587 8.83558 27.9823C8.93197 28.1058 9.06689 28.1936 9.21889 28.2318C12.2946 29.003 15.6103 29.3941 19.0739 29.3941C22.2167 29.3941 25.2526 29.0695 28.0973 28.4295C28.2531 28.3944 28.3923 28.3074 28.492 28.1828C28.5918 28.0581 28.6461 27.9032 28.6461 27.7435V18.3573L31.0464 17.3941L31.045 19.2679C31.0447 19.6563 31.3593 19.9713 31.7477 19.9715H31.7481C32.1362 19.9715 32.451 19.6571 32.4513 19.2689L32.4531 16.8295L35.5003 15.6067C36.515 15.1996 36.6665 14.5813 36.6665 14.249C36.6665 13.9166 36.515 13.2984 35.5003 12.8911ZM24.4165 25.6311C24.4673 25.9812 24.7678 26.2335 25.1115 26.2335C25.1451 26.2335 25.1791 26.2311 25.2132 26.2261C25.8918 26.1275 26.5676 26.0109 27.2399 25.8763V27.1764C24.6554 27.715 21.9114 27.9878 19.074 27.9878C15.9251 27.9878 12.9068 27.6544 10.0932 26.9966V25.704C12.9201 26.338 15.9361 26.6602 19.074 26.6602C19.4837 26.6602 19.8985 26.6545 20.3068 26.6431C20.695 26.6324 21.001 26.3091 20.9903 25.9209C20.9796 25.5326 20.6544 25.2246 20.268 25.2374C19.8701 25.2484 19.472 25.2539 19.074 25.2539C15.9252 25.2539 12.907 24.9204 10.0932 24.2625V18.9216L16.6473 21.5517C17.2135 21.7788 17.94 21.8924 18.6666 21.8924C19.3931 21.8924 20.1197 21.7788 20.6858 21.5517L27.2399 18.9216V24.4412C26.5013 24.5949 25.7581 24.726 25.0115 24.8344C24.6272 24.8902 24.3608 25.2468 24.4165 25.6311ZM34.9766 14.3017L31.7075 15.6136L21.1461 12.7337C20.8468 11.8236 19.8393 11.1523 18.6453 11.1523C17.2162 11.1523 16.0535 12.1138 16.0535 13.2956C16.0535 14.4774 17.2162 15.4388 18.6453 15.4388C19.7042 15.4388 20.6163 14.9106 21.0181 14.1564L29.5447 16.4815L27.672 17.233C27.6707 17.2336 27.6694 17.2341 27.6681 17.2345L20.1621 20.2465C19.3654 20.5662 17.9677 20.5662 17.171 20.2465L9.66475 17.2343L9.66137 17.233L2.35646 14.3017C2.3109 14.2834 2.27139 14.2657 2.23729 14.249C2.27139 14.2323 2.31083 14.2146 2.35646 14.1963L17.171 8.25135C17.9677 7.93171 19.3654 7.93164 20.1621 8.25135L34.9765 14.1963C35.0221 14.2146 35.0616 14.2323 35.0957 14.249C35.0616 14.2657 35.0222 14.2833 34.9766 14.3017ZM19.8309 13.2955C19.8309 13.6434 19.3239 14.0325 18.6453 14.0325C17.9668 14.0325 17.4598 13.6434 17.4598 13.2955C17.4598 12.9476 17.9668 12.5585 18.6453 12.5585C19.3239 12.5585 19.8309 12.9476 19.8309 13.2955Z" fill="white"/>
<path d="M23.7698 25.7081C23.734 25.3214 23.3904 25.0376 23.0044 25.0729L22.988 25.0745C22.6017 25.1143 22.3218 25.4596 22.3617 25.846C22.399 26.2077 22.7052 26.4769 23.0612 26.4769C23.0853 26.4769 23.1097 26.4756 23.1342 26.4731L23.1351 26.4731C23.5217 26.4372 23.8057 26.0947 23.7698 25.7081ZM31.748 20.6104C31.3597 20.6104 31.0449 20.9251 31.0449 21.3135V21.3469C31.0449 21.7352 31.3597 22.05 31.748 22.05C32.1363 22.05 32.4511 21.7352 32.4511 21.3469V21.3135C32.4511 20.9251 32.1363 20.6104 31.748 20.6104Z" fill="white"/>
</svg>
