<svg xmlns="http://www.w3.org/2000/svg" width="32" height="32" viewBox="0 0 32 32" fill="none">
<path d="M16 0.00976562C8.24359 0.00976562 0 1.6376 0 4.65489V16.0097C0 17.8724 3.02195 18.9847 5.5577 19.5896C5.63346 19.6081 5.71245 19.609 5.78859 19.5922C5.86473 19.5753 5.93601 19.5413 5.99692 19.4926C6.05818 19.4443 6.1077 19.3827 6.14175 19.3126C6.17581 19.2424 6.19352 19.1654 6.19354 19.0874V13.3501C8.72935 12.8106 11.3093 12.5044 13.9009 12.4355C13.2415 13.3471 13.261 14.5841 13.9489 15.4745H13.4194C11.9948 15.4762 10.8404 16.6306 10.8387 18.0551V22.1841C10.8387 23.0393 11.5319 23.7325 12.3871 23.7325C12.5634 23.7309 12.738 23.6987 12.9033 23.6376V30.1842C12.904 31.1818 13.7133 31.9901 14.711 31.9894C14.9511 31.9892 15.1888 31.9412 15.4102 31.8481C15.6315 31.755 15.832 31.6187 16.0001 31.4472C16.6983 32.1598 17.8421 32.1715 18.5547 31.4732C18.7262 31.3052 18.8625 31.1046 18.9556 30.8833C19.0487 30.662 19.0967 30.4243 19.0969 30.1842V23.6376C19.2621 23.6988 19.4368 23.7309 19.613 23.7326C20.4681 23.7326 21.1614 23.0394 21.1614 22.1842V18.0552C21.1597 16.6306 20.0053 15.4762 18.5807 15.4745H18.0512C18.7391 14.5842 18.7587 13.3472 18.0992 12.4356C20.6909 12.5045 23.2708 12.8106 25.8066 13.3502V19.0875C25.8066 19.1655 25.8242 19.2424 25.8582 19.3126C25.8922 19.3828 25.9416 19.4443 26.0028 19.4927C26.064 19.541 26.1353 19.5748 26.2115 19.5916C26.2876 19.6084 26.3666 19.6078 26.4424 19.5897C28.9782 18.9843 32.0001 17.8725 32.0001 16.0098V4.65489C32 1.6376 23.7564 0.00976562 16 0.00976562ZM5.1613 18.4248C2.12852 17.6134 1.0323 16.6317 1.0323 16.0098C1.0323 15.2438 2.50275 14.3252 5.1613 13.6052V18.4248ZM5.1613 12.5409C3.68548 12.8497 2.28337 13.4412 1.0323 14.2828V6.40251C2.04652 7.19013 3.65578 7.75216 5.1613 8.13672V12.5409ZM18.5806 16.5068C19.4358 16.5068 20.129 17.2 20.129 18.0552V22.1842C20.129 22.252 20.1157 22.3191 20.0897 22.3817C20.0638 22.4443 20.0258 22.5012 19.9779 22.5491C19.9299 22.5971 19.873 22.6351 19.8104 22.661C19.7478 22.687 19.6807 22.7003 19.6129 22.7003C19.5451 22.7003 19.478 22.687 19.4154 22.661C19.3528 22.6351 19.2959 22.5971 19.248 22.5491C19.2 22.5012 19.162 22.4443 19.1361 22.3817C19.1101 22.3191 19.0968 22.252 19.0968 22.1842V19.0874H18.0646V30.1842C18.0646 30.6117 17.7179 30.9584 17.2904 30.9584C16.8628 30.9584 16.5161 30.6117 16.5161 30.1842V21.6681H15.4839V30.1842C15.4839 30.6117 15.1373 30.9584 14.7097 30.9584C14.2821 30.9584 13.9355 30.6117 13.9355 30.1842V19.0874H12.9033V22.1842C12.9033 22.252 12.8899 22.3191 12.864 22.3817C12.838 22.4443 12.8 22.5012 12.7521 22.5491C12.7042 22.5971 12.6473 22.6351 12.5847 22.661C12.522 22.687 12.4549 22.7003 12.3871 22.7003C12.3194 22.7003 12.2523 22.687 12.1896 22.661C12.127 22.6351 12.0701 22.5971 12.0222 22.5491C11.9743 22.5012 11.9362 22.4443 11.9103 22.3817C11.8844 22.3191 11.871 22.252 11.871 22.1842V18.0552C11.871 17.2 12.5642 16.5068 13.4194 16.5068H18.5806ZM14.4516 13.9261C14.4552 13.1525 15.0293 12.5003 15.7961 12.3984H16.2064C17.052 12.5141 17.6436 13.2934 17.5279 14.1389C17.4121 14.9845 16.6329 15.5761 15.7873 15.4604C15.0208 15.3555 14.45 14.6998 14.4516 13.9261ZM26.8387 18.4248V13.6051C29.4973 14.3251 30.9677 15.2438 30.9677 16.0097C30.9678 16.6317 29.8715 17.6134 26.8387 18.4248ZM30.9678 14.2807C29.7167 13.4391 28.3146 12.8476 26.8388 12.5387V8.13665C28.3443 7.75216 29.9536 7.19007 30.9678 6.40245V14.2807ZM26.2029 7.23038C26.0899 7.25731 25.9894 7.32152 25.9175 7.41265C25.8455 7.50377 25.8064 7.61649 25.8065 7.73258V12.2967C22.6439 11.6685 19.4266 11.3573 16.2023 11.3677C16.1347 11.362 16.0692 11.347 16 11.347C15.9308 11.347 15.8653 11.362 15.7976 11.3677C12.5733 11.3573 9.35601 11.6685 6.19348 12.2967V7.73258C6.19351 7.61649 6.15441 7.50377 6.08248 7.41265C6.01056 7.32152 5.91001 7.25731 5.79708 7.23038C2.28024 6.39067 1.03224 5.31863 1.03224 4.65489C1.03224 3.14621 6.72616 1.042 16 1.042C25.2738 1.042 30.9677 3.14628 30.9677 4.65489C30.9678 5.31863 29.7198 6.39067 26.2029 7.23038Z" fill="white"/>
<path d="M19.0969 2.07422H12.9033C12.7664 2.07422 12.6352 2.1286 12.5384 2.22539C12.4416 2.32218 12.3872 2.45345 12.3872 2.59034V9.81617C12.3872 9.95306 12.4416 10.0843 12.5384 10.1811C12.6352 10.2779 12.7664 10.3323 12.9033 10.3323H19.0969C19.2337 10.3323 19.365 10.2779 19.4618 10.1811C19.5586 10.0843 19.613 9.95306 19.613 9.81617V2.5904C19.613 2.45351 19.5586 2.32223 19.4618 2.22543C19.365 2.12863 19.2338 2.07424 19.0969 2.07422ZM18.5807 9.30006H13.4194V3.10652H18.5807V9.30006Z" fill="white"/>
<path d="M24.1733 5.17789L21.0765 5.694C20.956 5.71404 20.8465 5.77617 20.7675 5.86935C20.6885 5.96253 20.6451 6.08071 20.645 6.20288V9.81577C20.6451 9.93794 20.6885 10.0561 20.7675 10.1493C20.8465 10.2425 20.956 10.3046 21.0765 10.3246L24.1733 10.8408C24.2012 10.8457 24.2295 10.8481 24.2579 10.848C24.3948 10.848 24.5261 10.7936 24.6229 10.6968C24.7196 10.6 24.774 10.4688 24.774 10.3319V5.68682C24.774 5.6119 24.7577 5.53788 24.7261 5.46991C24.6946 5.40194 24.6487 5.34164 24.5915 5.29321C24.5344 5.24478 24.4673 5.20938 24.3951 5.18947C24.3229 5.16955 24.2472 5.1656 24.1733 5.17789ZM23.7418 9.72243L21.6773 9.37869V6.64008L23.7418 6.29634V9.72243Z" fill="white"/>
<path d="M10.7543 2.59781L7.65755 3.11393C7.53703 3.13395 7.42753 3.19608 7.34852 3.28926C7.26951 3.38244 7.22612 3.50063 7.22607 3.6228V8.78411C7.22607 8.92099 7.28045 9.05227 7.37724 9.14906C7.47403 9.24585 7.60531 9.30022 7.74219 9.30022C7.7706 9.30041 7.79887 9.29796 7.82684 9.29298L10.9236 8.77686C11.0441 8.75684 11.1536 8.69471 11.2326 8.60153C11.3116 8.50835 11.355 8.39016 11.3551 8.26799V3.10675C11.3551 3.03182 11.3387 2.9578 11.3072 2.88983C11.2757 2.82186 11.2297 2.76156 11.1726 2.71314C11.1154 2.66471 11.0484 2.6293 10.9762 2.60939C10.9039 2.58947 10.8282 2.58552 10.7543 2.59781ZM10.3228 7.83085L8.25831 8.17459V4.06001L10.3228 3.71626V7.83085Z" fill="white"/>
</svg>