<svg xmlns="http://www.w3.org/2000/svg" width="33" height="32" viewBox="0 0 33 32" fill="none">
<path d="M20.9338 6.4C21.7825 6.4 22.5964 6.06286 23.1965 5.46274C23.7966 4.86263 24.1338 4.04869 24.1338 3.2C24.1338 2.35131 23.7966 1.53737 23.1965 0.937258C22.5964 0.337142 21.7825 0 20.9338 0C20.0851 0 19.2711 0.337142 18.671 0.937258C18.0709 1.53737 17.7338 2.35131 17.7338 3.2C17.7338 4.04869 18.0709 4.86263 18.671 5.46274C19.2711 6.06286 20.0851 6.4 20.9338 6.4ZM20.9338 1.06667C21.4996 1.06667 22.0422 1.29143 22.4423 1.69151C22.8423 2.09158 23.0671 2.6342 23.0671 3.2C23.0671 3.7658 22.8423 4.30842 22.4423 4.70849C22.0422 5.10857 21.4996 5.33333 20.9338 5.33333C20.368 5.33333 19.8253 5.10857 19.4253 4.70849C19.0252 4.30842 18.8004 3.7658 18.8004 3.2C18.8004 2.6342 19.0252 2.09158 19.4253 1.69151C19.8253 1.29143 20.368 1.06667 20.9338 1.06667ZM1.73376 32H31.6004C31.7827 32.0003 31.9619 31.9538 32.1211 31.8652C32.2803 31.7765 32.4141 31.6485 32.5098 31.4934C32.6055 31.3383 32.6599 31.1612 32.6677 30.9792C32.6755 30.7971 32.6366 30.6161 32.5546 30.4533L32.0212 29.3867C31.9328 29.2096 31.7965 29.0608 31.6279 28.9571C31.4593 28.8535 31.265 28.799 31.0671 28.8H26.2671V14.8352C26.5781 14.7258 26.8475 14.5226 27.0381 14.2536C27.2287 13.9846 27.331 13.663 27.331 13.3333C27.331 13.0036 27.2287 12.6821 27.0381 12.4131C26.8475 12.144 26.5781 11.9408 26.2671 11.8315V9.06667C26.2671 8.92522 26.2109 8.78956 26.1109 8.68954C26.0109 8.58952 25.8752 8.53333 25.7338 8.53333C25.5923 8.53333 25.4567 8.58952 25.3566 8.68954C25.2566 8.78956 25.2004 8.92522 25.2004 9.06667V11.7333H23.6378C23.55 11.7333 23.4636 11.7117 23.3861 11.6703C23.3087 11.6289 23.2428 11.569 23.194 11.496L20.6724 7.7136C20.28 7.12395 19.6908 6.69296 19.01 6.49758C18.3291 6.30219 17.601 6.35513 16.9556 6.64693C16.913 6.36036 16.793 6.09085 16.6085 5.86746C16.424 5.64406 16.182 5.47524 15.9087 5.3792L12.8842 4.32853C12.4824 4.19066 12.0424 4.21752 11.6604 4.40322C11.2784 4.58893 10.9855 4.91836 10.8458 5.31947L10.3204 6.82933C10.1888 6.79012 10.047 6.80323 9.92479 6.86593C9.80255 6.92863 9.70922 7.03609 9.66425 7.16591C9.61928 7.29573 9.62614 7.43789 9.6834 7.56278C9.74067 7.68766 9.84392 7.78563 9.97163 7.83627L9.27296 9.8528C9.14178 9.81509 9.00113 9.8291 8.87998 9.89197C8.75882 9.95483 8.66638 10.0618 8.62168 10.1907C8.57698 10.3197 8.58343 10.4609 8.6397 10.5852C8.69597 10.7096 8.79778 10.8076 8.92416 10.8592C8.4079 12.3499 8.23723 12.6357 8.3375 13.1835C7.99616 13.2653 7.69121 13.4572 7.46965 13.7295C7.24809 14.0017 7.12222 14.3393 7.11143 14.6901C7.10063 15.041 7.20552 15.3857 7.40992 15.671C7.61433 15.9564 7.9069 16.1666 8.24256 16.2693C11.8543 17.5264 12.0463 17.6912 12.7119 17.4837L12.2319 20.864C12.1786 21.2309 12.4031 20.9499 8.34123 26.4245C8.08396 26.7614 7.93286 27.1672 7.90722 27.5903C7.88157 28.0134 7.98253 28.4345 8.19723 28.8H2.2671C2.06918 28.7991 1.87494 28.8536 1.70634 28.9572C1.53774 29.0609 1.40148 29.2096 1.31296 29.3867L0.779631 30.4533C0.697625 30.6161 0.658681 30.7971 0.666513 30.9792C0.674345 31.1612 0.728693 31.3383 0.824372 31.4934C0.920051 31.6485 1.05387 31.7765 1.21307 31.8652C1.37226 31.9538 1.55153 32.0003 1.73376 32ZM22.2175 28.8C22.424 28.4494 22.5332 28.0501 22.5338 27.6432V22.3467C22.5347 21.5635 22.2477 20.8072 21.7274 20.2219L18.5396 16.6341C18.4777 16.5647 18.4355 16.48 18.4174 16.3887C18.3993 16.2974 18.406 16.203 18.4367 16.1152L19.4127 13.1888L19.8618 13.8171C20.1088 14.1621 20.4344 14.4432 20.8117 14.6374C21.189 14.8315 21.6071 14.9329 22.0314 14.9333H25.2004V28.8H22.2175ZM17.4175 7.6048C17.8317 7.42635 18.2954 7.39886 18.7278 7.52711C19.1602 7.65536 19.534 7.93123 19.7839 8.30667L22.3044 12.0875C22.4507 12.3069 22.649 12.4868 22.8816 12.6111C23.1143 12.7355 23.374 12.8003 23.6378 12.8H25.7338C25.8752 12.8 26.0109 12.8562 26.1109 12.9562C26.2109 13.0562 26.2671 13.1919 26.2671 13.3333C26.2671 13.4748 26.2109 13.6104 26.1109 13.7105C26.0109 13.8105 25.8752 13.8667 25.7338 13.8667H22.0314C21.7768 13.8664 21.5259 13.8055 21.2995 13.689C21.0731 13.5725 20.8778 13.4038 20.7295 13.1968L18.7028 10.3568C18.6634 10.2969 18.6122 10.2455 18.5525 10.2058C18.4927 10.1661 18.4255 10.1388 18.355 10.1257C18.2844 10.1126 18.212 10.1138 18.1419 10.1293C18.0718 10.1449 18.0056 10.1744 17.9472 10.2161C17.8889 10.2578 17.8395 10.3109 17.8021 10.3722C17.7647 10.4334 17.7401 10.5016 17.7297 10.5726C17.7192 10.6436 17.7233 10.7159 17.7415 10.7854C17.7597 10.8548 17.7917 10.9198 17.8356 10.9765L18.6484 12.1152L17.4282 15.7755C17.3373 16.0421 17.3191 16.3281 17.3753 16.6042C17.4316 16.8802 17.5602 17.1363 17.7482 17.3461L20.9332 20.9307C21.2789 21.3212 21.469 21.8251 21.4671 22.3467V27.6432C21.4748 27.9241 21.378 28.1978 21.1956 28.4114C21.0131 28.6251 20.7579 28.7635 20.4794 28.8C20.3328 28.8109 20.1856 28.7913 20.0469 28.7426C19.9082 28.6939 19.7811 28.6171 19.6736 28.5169C19.566 28.4168 19.4803 28.2955 19.4218 28.1606C19.3633 28.0258 19.3334 27.8803 19.3338 27.7333V24.3733C19.331 23.6543 19.0881 22.9567 18.6436 22.3915L14.5519 17.8096C14.294 17.4767 14.1191 17.0872 14.0417 16.6732C13.9644 16.2593 13.9868 15.8329 14.1071 15.4293C16.1114 9.10347 16.1338 9.45867 16.1423 9.40533C16.3866 8.68267 16.5407 7.9856 17.4196 7.6048H17.4175ZM14.2772 11.5861L10.281 10.1995L10.9791 8.18453L14.9604 9.56747L14.2772 11.5861ZM11.8522 5.66613C11.9503 5.3888 12.2532 5.24107 12.5327 5.33493L15.5572 6.3856C15.6898 6.43252 15.7985 6.5299 15.8596 6.65656C15.9207 6.78321 15.9294 6.92888 15.8836 7.06187L15.617 7.8368C15.4943 8.0448 15.3962 8.26507 15.3236 8.49493C15.2959 8.58347 15.7423 8.70827 11.33 7.17707L11.8522 5.66613ZM12.0607 16.4603L8.59403 15.2608C8.45908 15.2206 8.34336 15.1327 8.26847 15.0135C8.19359 14.8942 8.16467 14.7518 8.1871 14.6128C8.20559 14.5407 8.23867 14.4732 8.2843 14.4144C8.32992 14.3557 8.38712 14.3069 8.45236 14.2711C8.51759 14.2353 8.58948 14.2132 8.66357 14.2063C8.73766 14.1994 8.81237 14.2078 8.8831 14.2309C9.42763 14.4203 9.45963 14.4475 9.62336 14.4293C11.266 15.1051 11.2175 15.1019 11.3636 15.1019C11.4872 15.102 11.607 15.0592 11.7025 14.9808C11.798 14.9024 11.8634 14.7933 11.8874 14.6721C11.9114 14.5509 11.8925 14.4251 11.8341 14.3162C11.7756 14.2073 11.6811 14.1222 11.5668 14.0752C9.1535 13.0827 9.6703 13.2885 9.5279 13.2507C9.45955 13.1822 9.412 13.0957 9.39076 13.0014C9.36952 12.907 9.37547 12.8085 9.4079 12.7173L9.93056 11.208L13.9338 12.5947C13.7348 13.184 12.9428 15.5445 12.7407 16.1328C12.6942 16.2661 12.5968 16.3756 12.4697 16.4372C12.3426 16.4988 12.1963 16.5075 12.0628 16.4613L12.0607 16.4603ZM9.20043 27.0603L12.898 21.9733C13.3194 21.4064 13.2762 21.12 13.665 18.3931C13.7898 18.5664 13.3823 18.1003 15.7135 20.7109L15.4404 22.2752C15.3796 22.6379 15.5972 22.2917 10.937 28.3072C10.8154 28.4874 10.6423 28.6268 10.4403 28.7069C10.2382 28.7871 10.0166 28.8044 9.8046 28.7564C9.59256 28.7085 9.39994 28.5977 9.25198 28.4385C9.10401 28.2792 9.00759 28.079 8.97536 27.864C8.94133 27.5769 9.02223 27.288 9.20043 27.0603ZM16.0804 23.3915C16.4093 22.8958 16.5955 22.3192 16.6186 21.7248L17.8223 23.0725C18.1119 23.4443 18.2682 23.9024 18.2671 24.3733V27.7333C18.2687 28.1088 18.3711 28.4768 18.5626 28.8H11.9066L16.0804 23.3915ZM1.73376 30.9333L2.2671 29.8667H31.0671L31.6004 30.9333H1.73376Z" fill="white"/>
</svg>