<svg width="209" height="101" viewBox="0 0 209 101" fill="none" xmlns="http://www.w3.org/2000/svg">
<path d="M0 31.0067L13.7445 20.1287L28.3586 30.8246L20.6138 30.875C22.2877 33.821 27.0431 36.9536 34.1233 36.9022C43.6745 36.8394 51.1599 31.3343 51.1586 24.3833C51.1558 16.721 44.6349 12.0116 34.1246 12.0793C25.092 12.1409 22.7624 14.8947 20.1987 17.4711L8.28881 17.5476C10.6423 5.44766 25.0541 0.664734 34.1307 0.606134C50.9181 0.497424 62.6455 10.2459 62.6518 24.307C62.6533 37.7008 50.1251 48.2736 34.1274 48.3789C18.6382 48.4797 8.6145 39.8138 8.61588 30.9456L0 31.0067Z" fill="#269B38"/>
<path d="M68.2926 69.2153L54.5482 80.0933L39.934 69.3974L47.6785 69.3469C46.0047 66.4009 41.2496 63.2684 34.1693 63.3198C24.6182 63.3826 17.1328 68.8877 17.1341 75.8387C17.1369 83.501 23.6578 88.2104 34.1681 88.1427C43.2006 88.0811 45.5299 85.3272 48.0936 82.7508L60.0035 82.6743C57.65 94.7742 43.2386 99.5573 34.1619 99.6159C17.3746 99.7246 5.64685 89.976 5.64052 75.9149C5.63901 62.5211 18.1672 51.9483 34.1649 51.843C49.6541 51.7422 59.6781 60.4082 59.6768 69.2765L68.2926 69.2153Z" fill="#269B38"/>
<path d="M138.116 54.0765L124.373 43.3699L109.757 54.2588L118.302 54.2081C117.627 85.8084 109.021 88.6372 100.913 88.6941C92.4808 88.7471 83.4895 85.8208 83.4849 50.3784C83.4909 11.9718 94.8215 11.8766 100.915 11.8439C105.555 11.8137 110.575 13.6331 113.931 20.0129C115.542 23.4574 116.86 28.3645 117.617 35.3123C117.75 37.1268 117.819 39.0671 117.816 41.1538C121.894 41.1217 125.154 41.1072 129.039 41.0802C129.039 39.7828 129.013 38.4991 128.969 37.2326C128.993 37.229 129.013 37.2356 129.047 37.2353C128.998 36.5989 128.939 35.9591 128.88 35.3194C127.712 15.0931 120.034 0.350165 100.929 0.451934L100.908 0.445267C75.3762 0.630012 72.098 27.2566 72.0967 50.4434C72.0955 73.6303 75.3653 100.213 100.897 100.063L100.918 100.069C124.968 99.9007 129.28 76.2495 129.697 54.1227L138.116 54.0765Z" fill="#269B38"/>
<path d="M208.051 53.6313L194.308 42.9246L179.692 53.8135L188.237 53.7629C187.562 85.3631 178.955 88.1919 170.848 88.2488C162.416 88.3018 153.424 85.3755 153.42 49.9331C153.426 11.5266 164.756 11.4313 170.85 11.3987C175.49 11.3685 180.511 13.1879 183.866 19.5677C185.477 23.0123 186.795 27.9193 187.553 34.8671C187.685 36.6816 187.754 38.6218 187.751 40.7085C191.829 40.6764 195.089 40.6619 198.973 40.6349C198.974 39.3375 198.947 38.0538 198.904 36.7873C198.928 36.7837 198.948 36.7903 198.982 36.79C198.933 36.1536 198.875 35.5139 198.816 34.8742C197.647 14.648 189.969 -0.0951017 170.863 0.00666755L170.843 0C145.311 0.184745 142.033 26.8113 142.032 49.9982C142.03 73.185 145.3 99.7681 170.832 99.6173L170.853 99.6239C194.903 99.4554 199.215 75.8044 199.632 53.6775L208.051 53.6313Z" fill="#269B38"/>
</svg>
