<svg width="36" height="30" viewBox="0 0 36 30" fill="none" xmlns="http://www.w3.org/2000/svg">
<path d="M2.40039 15.2968H0.900391C0.900391 15.7007 1.06322 16.0874 1.35205 16.3697L2.40039 15.2968ZM5.00039 17.8375L3.95205 18.9103L4.3892 19.3375H5.00039V17.8375ZM16.8861 16.2042V14.7042H15.3861V16.2042H16.8861ZM2.40039 6.94908V5.44908C1.57196 5.44908 0.900391 6.12066 0.900391 6.94908H2.40039ZM3.14325 28H1.64325C1.64325 28.8284 2.31482 29.5 3.14325 29.5V28ZM16.8861 19.4212H15.3861V20.9212H16.8861V19.4212ZM33.6004 15.2968L34.6487 16.3697C34.9376 16.0874 35.1004 15.7007 35.1004 15.2968H33.6004ZM31.0004 17.8375V19.3375H31.6116L32.0487 18.9103L31.0004 17.8375ZM19.1147 16.2042H20.6147V14.7042H19.1147V16.2042ZM33.6004 6.94908H35.1004C35.1004 6.12066 34.4288 5.44908 33.6004 5.44908V6.94908ZM32.8575 28V29.5C33.686 29.5 34.3575 28.8284 34.3575 28H32.8575ZM19.1147 19.4212V20.9212H20.6147V19.4212H19.1147ZM5.00039 19.3375H16.8861V16.3375H5.00039V19.3375ZM18.3861 17.8375V16.2042H15.3861V17.8375H18.3861ZM16.8861 17.7042H18.0004V14.7042H16.8861V17.7042ZM18.0004 5.44908H13.5432V8.44908H18.0004V5.44908ZM15.0432 6.94908V2.94995H12.0432V6.94908H15.0432ZM14.2932 3.69995H18.0004V0.699951H14.2932V3.69995ZM13.5432 5.44908H2.40039V8.44908H13.5432V5.44908ZM0.900391 6.94908V15.2968H3.90039V6.94908H0.900391ZM1.35205 16.3697L2.09491 17.0956L4.19159 14.9499L3.44873 14.224L1.35205 16.3697ZM2.09491 17.0956L3.95205 18.9103L6.04873 16.7646L4.19159 14.9499L2.09491 17.0956ZM1.64325 16.0227V28H4.64325V16.0227H1.64325ZM3.14325 29.5H18.0004V26.5H3.14325V29.5ZM15.3861 17.8375V19.4212H18.3861V17.8375H15.3861ZM16.8861 20.9212H18.0004V17.9212H16.8861V20.9212ZM31.0004 16.3375H19.1147V19.3375H31.0004V16.3375ZM20.6147 17.8375V16.2042H17.6147V17.8375H20.6147ZM19.1147 14.7042H18.0004V17.7042H19.1147V14.7042ZM18.0004 8.44908H22.4575V5.44908H18.0004V8.44908ZM23.9575 6.94908V2.94995H20.9575V6.94908H23.9575ZM21.7075 0.699951H18.0004V3.69995H21.7075V0.699951ZM22.4575 8.44908H33.6004V5.44908H22.4575V8.44908ZM32.1004 6.94908V15.2968H35.1004V6.94908H32.1004ZM32.552 14.224L31.8092 14.9499L33.9059 17.0956L34.6487 16.3697L32.552 14.224ZM31.8092 14.9499L29.9521 16.7646L32.0487 18.9103L33.9059 17.0956L31.8092 14.9499ZM31.3575 16.0227V28H34.3575V16.0227H31.3575ZM32.8575 26.5H18.0004V29.5H32.8575V26.5ZM17.6147 17.8375V19.4212H20.6147V17.8375H17.6147ZM19.1147 17.9212H18.0004V20.9212H19.1147V17.9212ZM23.9575 2.94995C23.9575 1.70731 22.9502 0.699951 21.7075 0.699951V3.69995C21.2933 3.69995 20.9575 3.36416 20.9575 2.94995H23.9575ZM15.0432 2.94995C15.0432 3.36416 14.7075 3.69995 14.2932 3.69995V0.699951C13.0506 0.699951 12.0432 1.70731 12.0432 2.94995H15.0432Z" fill="white"/>
</svg>
