<svg width="42" height="31" viewBox="0 0 42 31" fill="none" xmlns="http://www.w3.org/2000/svg">
<path d="M10.8955 28.8C10.8955 27.8975 10.8955 25.6862 10.8955 24.0616C10.8955 21.8843 11.4755 20.1904 12.3663 18.8859M10.8955 28.8H21.0008H31.106M10.8955 28.8H1.80078V25.0769C1.80078 22.3693 4.02394 17.9693 8.87447 17.9693C10.2452 17.9693 11.4061 18.3206 12.3663 18.8859M12.3663 18.8859C14.3559 15.9725 17.8963 15.001 19.9903 14.9231H21.0008H22.0113C24.1053 15.001 27.6456 15.9725 29.6352 18.8859M31.106 28.8C31.106 27.8975 31.106 25.6862 31.106 24.0616C31.106 21.8843 30.5261 20.1904 29.6352 18.8859M31.106 28.8H40.2008V25.0769C40.2008 22.3693 37.9776 17.9693 33.1271 17.9693C31.7564 17.9693 30.5955 18.3206 29.6352 18.8859M21.0008 12.5539C18.2103 12.5539 15.9482 10.2809 15.9482 7.47695C15.9482 4.67304 18.2103 2.40002 21.0008 2.40002C23.7913 2.40002 26.0534 4.67304 26.0534 7.47695C26.0534 10.2809 23.7913 12.5539 21.0008 12.5539ZM12.5797 11.5385C12.5797 13.5947 10.9208 15.2616 8.87447 15.2616C6.82811 15.2616 5.1692 13.5947 5.1692 11.5385C5.1692 9.48229 6.82811 7.81541 8.87447 7.81541C10.9208 7.81541 12.5797 9.48229 12.5797 11.5385ZM29.4218 11.5385C29.4218 13.5947 31.0807 15.2616 33.1271 15.2616C35.1735 15.2616 36.8324 13.5947 36.8324 11.5385C36.8324 9.48229 35.1735 7.81541 33.1271 7.81541C31.0807 7.81541 29.4218 9.48229 29.4218 11.5385Z" stroke="white" stroke-width="3"/>
</svg>
