<svg width="63" height="56" viewBox="0 0 63 56" fill="none" xmlns="http://www.w3.org/2000/svg">
<path d="M31.2102 28.3721L32.937 30.0988L34.6637 31.8255M31.2102 28.3721L30.1396 27.3014L16.3001 41.1409C14.7552 42.6858 14.7552 45.1907 16.3001 46.7356C17.845 48.2806 20.3499 48.2806 21.8949 46.7356L35.7344 32.8961L34.6637 31.8255M31.2102 28.3721L35.2761 24.3062C33.0262 21.8642 29.3001 16.2064 32.3951 13.1113L36.0324 9.47405C38.9727 6.53386 45.2783 1.0791 47.5066 3.30738C48.015 3.81582 47.794 4.56743 45.5834 6.77803L40.5357 11.8257C39.5387 12.8227 39.5387 14.4391 40.5357 15.4361C41.5327 16.4331 43.1492 16.4331 44.1462 15.4361L49.1938 10.3885C50.6307 8.95158 52.682 8.31928 53.7077 9.345C54.7334 10.3707 54.0842 12.405 52.6473 13.8419L47.5997 18.8895C46.6027 19.8865 46.6027 21.503 47.5997 22.5C48.5967 23.497 50.2131 23.497 51.2101 22.5L56.2577 17.4523C58.4683 15.2417 59.22 15.0207 59.7284 15.5291C61.9567 17.7574 56.5019 24.063 53.5617 27.0033L49.9244 30.6406C46.8294 33.7356 41.1716 30.0095 38.7296 27.7596L34.6637 31.8255" stroke="#269B38" stroke-width="3"/>
<path opacity="0.3" d="M17.9319 32.0543C18.1546 32.8523 18.9819 33.3186 19.7799 33.096C20.5778 32.8733 21.0442 32.0459 20.8215 31.248L17.9319 32.0543ZM26.5932 8.87168L27.5922 9.99062C28.1409 9.50071 28.2534 8.68516 27.8578 8.06498C27.4622 7.4448 26.6752 7.20302 25.9997 7.49411L26.5932 8.87168ZM22.3311 20.6087L20.8438 20.8037C20.9287 21.4506 21.422 21.9685 22.064 22.0847C22.706 22.2009 23.3495 21.8887 23.6557 21.3126L22.3311 20.6087ZM26.5932 17.2184L27.9481 17.8619C28.1953 17.3415 28.1226 16.7256 27.7611 16.277C27.3995 15.8285 26.813 15.6266 26.252 15.7577L26.5932 17.2184ZM26.3559 26.0283C26.9417 26.6141 27.8914 26.6141 28.4772 26.0283C29.063 25.4425 29.063 24.4927 28.4772 23.907L26.3559 26.0283ZM11.7649 25.036C12.0435 25.8162 12.9019 26.2228 13.682 25.9441C14.4622 25.6655 14.8688 24.8072 14.5901 24.027L11.7649 25.036ZM4.25656 19.9762V18.4762C3.58021 18.4762 2.98751 18.9288 2.80947 19.5813C2.63142 20.2338 2.91206 20.9248 3.49467 21.2683L4.25656 19.9762ZM9.15735 31.409L8.38964 32.6976C8.81134 32.9489 9.32927 32.9779 9.77638 32.7753C10.2235 32.5727 10.5432 32.1642 10.6324 31.6815L9.15735 31.409ZM1.74707 31.6512L0.976939 30.3639C0.50624 30.6456 0.22679 31.1616 0.248215 31.7097C0.26964 32.2578 0.588522 32.7505 1.07977 32.9945L1.74707 31.6512ZM8.19011 43.8562C8.19011 44.6847 8.86169 45.3562 9.69011 45.3562C10.5185 45.3562 11.1901 44.6847 11.1901 43.8562H8.19011ZM10.6468 17.6028C10.4967 18.4175 11.0355 19.1996 11.8502 19.3497C12.6649 19.4998 13.4471 18.961 13.5971 18.1463L10.6468 17.6028ZM10.067 8.87146L10.4488 7.42085C9.85125 7.2636 9.21844 7.48884 8.85463 7.98824C8.49082 8.48764 8.47046 9.15904 8.80333 9.67957L10.067 8.87146ZM14.9129 13.3068C15.3802 13.9909 16.3136 14.1665 16.9976 13.6991C17.6816 13.2318 17.8573 12.2984 17.3899 11.6144L14.9129 13.3068ZM20.8215 31.248C20.0916 28.6323 18.7369 24.6573 19.0544 20.6209C19.2098 18.6454 19.768 16.7114 20.9844 14.963C22.1988 13.2174 24.1329 11.5651 27.1868 10.2492L25.9997 7.49411C22.5151 8.99551 20.1039 10.9755 18.5217 13.2497C16.9415 15.5211 16.2518 17.9943 16.0636 20.3856C15.6941 25.083 17.2695 29.6806 17.9319 32.0543L20.8215 31.248ZM25.5942 7.75273C21.0875 11.7763 20.4153 17.5363 20.8438 20.8037L23.8184 20.4136C23.472 17.7722 24.059 13.145 27.5922 9.99062L25.5942 7.75273ZM23.6557 21.3126C24.2135 20.263 25.0379 19.5988 25.752 19.1901C26.1074 18.9868 26.4241 18.8535 26.6451 18.7729C26.755 18.7329 26.8393 18.7066 26.8905 18.6916C26.916 18.6842 26.9331 18.6796 26.9408 18.6776C26.9447 18.6766 26.9461 18.6762 26.9451 18.6765C26.9446 18.6766 26.9434 18.6769 26.9417 18.6773C26.9408 18.6775 26.9397 18.6778 26.9385 18.6781C26.9379 18.6782 26.9373 18.6784 26.9366 18.6785C26.9362 18.6786 26.9357 18.6787 26.9355 18.6788C26.935 18.6789 26.9344 18.679 26.5932 17.2184C26.252 15.7577 26.2514 15.7578 26.2508 15.758C26.2506 15.758 26.25 15.7581 26.2496 15.7582C26.2487 15.7584 26.2478 15.7587 26.2469 15.7589C26.245 15.7593 26.2429 15.7598 26.2407 15.7604C26.2362 15.7614 26.231 15.7627 26.2251 15.7642C26.2134 15.7671 26.1989 15.7707 26.1818 15.7752C26.1476 15.7841 26.1029 15.7963 26.0488 15.8121C25.9407 15.8437 25.7942 15.8901 25.618 15.9543C25.2669 16.0822 24.7906 16.2838 24.262 16.5863C23.2083 17.1893 21.9017 18.2202 21.0065 19.9047L23.6557 21.3126ZM25.2383 16.5748C23.0739 21.1314 24.8849 24.5573 26.3559 26.0283L28.4772 23.907C27.7203 23.1501 26.4316 21.0546 27.9481 17.8619L25.2383 16.5748ZM14.5901 24.027C13.8859 22.0551 11.0306 18.4762 4.25656 18.4762V21.4762C9.80307 21.4762 11.5005 24.2956 11.7649 25.036L14.5901 24.027ZM3.49467 21.2683C6.9216 23.289 8.45273 26.9669 7.68232 31.1364L10.6324 31.6815C11.6056 26.4147 9.65 21.4151 5.01845 18.6841L3.49467 21.2683ZM9.92506 30.1203C7.11094 28.4438 3.89236 28.6197 0.976939 30.3639L2.5172 32.9384C4.62076 31.6798 6.65106 31.6619 8.38964 32.6976L9.92506 30.1203ZM1.07977 32.9945C4.51681 34.7018 6.24562 36.7367 7.14627 38.6049C8.0607 40.5017 8.19011 42.3658 8.19011 43.8562H11.1901C11.1901 42.1985 11.0531 39.8006 9.84862 37.3021C8.63032 34.775 6.38761 32.2814 2.41437 30.3078L1.07977 32.9945ZM13.5971 18.1463C13.9634 16.1579 14.206 12.5597 11.3307 8.06335L8.80333 9.67957C11.1683 13.3778 10.9135 16.1548 10.6468 17.6028L13.5971 18.1463ZM9.6853 10.3221C12.6174 11.0937 14.0662 12.0676 14.9129 13.3068L17.3899 11.6144C15.9652 9.52922 13.7161 8.28068 10.4488 7.42085L9.6853 10.3221Z" fill="#269B38"/>
</svg>
