<svg width="64" height="55" viewBox="0 0 64 55" fill="none" xmlns="http://www.w3.org/2000/svg">
<path d="M20.5054 38.6116L18.3601 30.4586M20.5054 38.6116C24.1032 39.1178 31.8331 40.346 35.0122 41.5002C39.8313 43.2497 40.343 40.0975 40.0955 39.1568L38.404 32.7284M20.5054 38.6116L16.1153 39.7668M16.7099 24.1871L4.48039 27.405C3.09493 27.7696 2.26732 29.1883 2.63187 30.5737L5.1072 39.981C5.47176 41.3665 6.89043 42.1941 8.2759 41.8295L9.5302 41.4995M16.7099 24.1871L17.2049 26.0686M16.7099 24.1871C19.5926 21.9757 25.7169 17.102 27.9162 14.5326C31.2501 10.6378 33.247 13.1299 33.4945 14.0706L35.3923 21.2829M16.1153 39.7668C16.3683 41.1531 17.277 44.6915 18.8877 47.7546C19.9274 49.1575 20.9671 50.5603 18.541 51.534C17.2867 51.864 14.8606 52.8377 13.986 52.062C13.2862 51.4414 11.4279 48.7116 9.5302 41.4995M16.1153 39.7668L9.5302 41.4995M35.3923 21.2829L36.7125 26.3001L38.404 32.7284M35.3923 21.2829C36.6246 21.2939 39.3367 22.2567 40.3268 26.0196C41.317 29.7825 39.4575 32.06 38.404 32.7284" stroke="#269B38" stroke-width="3"/>
<path opacity="0.3" d="M36.6366 14.8534C45.3083 16.2225 50.7853 27.1765 43.9389 36.7613M37.0928 9.37631C43.0263 10.2892 49.4162 14.3969 51.6982 20.7867C53.9802 27.1765 52.6109 34.6656 47.5902 40.4126M37.5493 3.89933C42.7776 4.35564 53.9802 8.91982 57.1751 18.5046C60.3701 28.0893 58.088 38.1305 51.6982 44.5204" stroke="#269B38" stroke-width="3"/>
</svg>
