<svg width="57" height="44" viewBox="0 0 57 44" fill="none" xmlns="http://www.w3.org/2000/svg">
<path d="M23.2193 34.588C34.9385 34.588 44.4387 27.1811 44.4387 18.0441C44.4387 8.9072 34.9385 1.50024 23.2193 1.50024C11.5002 1.50024 2 8.9072 2 18.0441C2 23.4992 5.38631 28.3375 10.6094 31.3512C10.9912 33.8687 10.2719 36.0266 9.55265 37.8249C13.1491 38.5442 16.0263 36.7459 17.1053 34.2284C18.2743 34.384 21.9934 34.588 23.2193 34.588Z" stroke="#269B38" stroke-width="3"/>
<path opacity="0.3" d="M23.01 34.5881C26.3733 37.6296 31.3426 39.5539 36.8864 39.5539C37.946 39.5539 41.1609 39.3769 42.1714 39.2419C43.1041 41.4258 45.5911 42.9857 48.7 42.3618C48.0782 40.8018 47.4564 38.9299 47.7865 36.746C52.3014 34.1318 55.2285 29.9346 55.2285 25.2026C55.2285 18.7141 49.7252 13.2313 42.1714 11.4559" stroke="#269B38" stroke-width="3"/>
<circle cx="12.9055" cy="17.7946" r="1.48657" stroke="#269B38" stroke-width="3"/>
<circle cx="23.3004" cy="17.7947" r="1.485" stroke="#269B38" stroke-width="3"/>
<circle cx="33.6959" cy="17.7947" r="1.485" stroke="#269B38" stroke-width="3"/>
</svg>
