<svg width="15" height="19" viewBox="0 0 15 19" fill="none" xmlns="http://www.w3.org/2000/svg">
<path fill-rule="evenodd" clip-rule="evenodd" d="M2.16939 7.88118C2.16939 4.58402 4.6031 2.30025 7.46882 2.30025C10.3345 2.30025 12.7683 4.58402 12.7683 7.88118C12.7683 10.1111 11.144 12.8695 7.46882 16.2566C3.79361 12.8695 2.16939 10.1111 2.16939 7.88118ZM7.46882 0.541016C3.6022 0.541016 0.410156 3.64198 0.410156 7.88118C0.410156 10.9446 2.60454 14.1984 6.42419 17.6856L6.87576 18.0978L7.46882 18.6393L8.06189 18.0978L8.51346 17.6856C12.3331 14.1984 14.5275 10.9446 14.5275 7.88118C14.5275 3.64198 11.3354 0.541016 7.46882 0.541016ZM9.25937 7.90543C9.25937 6.87182 8.45797 6.03391 7.4694 6.03391C6.48082 6.03391 5.67942 6.87182 5.67942 7.90543C5.67942 8.93904 6.48082 9.77695 7.4694 9.77695C8.45797 9.77695 9.25937 8.93904 9.25937 7.90543Z" fill="#FF5D30"/>
</svg>
