<svg width="45" height="45" viewBox="0 0 45 45" fill="none" xmlns="http://www.w3.org/2000/svg">
<path fill-rule="evenodd" clip-rule="evenodd" d="M22.4219 44.8623C10.2716 44.8623 0.421875 35.0126 0.421875 22.8623C0.421875 10.712 10.2716 0.862305 22.4219 0.862305C34.5721 0.862305 44.4219 10.712 44.4219 22.8623C44.4219 35.0126 34.5721 44.8623 22.4219 44.8623ZM18.72 17.4353C18.1177 16.8665 18.0906 15.9171 18.6594 15.3149C19.2282 14.7126 20.1776 14.6855 20.7799 15.2543L28.1132 22.1802L29.2679 23.2707L28.1132 24.3612L20.7799 31.2872C20.1776 31.856 19.2282 31.8289 18.6594 31.2266C18.0906 30.6243 18.1177 29.675 18.72 29.1061L24.8986 23.2707L18.72 17.4353Z" fill="white"/>
</svg>
