<svg width="45" height="45" viewBox="0 0 45 45" fill="none" xmlns="http://www.w3.org/2000/svg">
<path fill-rule="evenodd" clip-rule="evenodd" d="M22.5 44.8623C34.6503 44.8623 44.5 35.0126 44.5 22.8623C44.5 10.712 34.6503 0.862305 22.5 0.862305C10.3497 0.862305 0.5 10.712 0.5 22.8623C0.5 35.0126 10.3497 44.8623 22.5 44.8623ZM26.202 17.4353C26.8043 16.8665 26.8314 15.9171 26.2626 15.3149C25.6938 14.7126 24.7444 14.6855 24.1421 15.2543L16.8088 22.1802L15.6541 23.2707L16.8088 24.3613L24.1421 31.2872C24.7444 31.856 25.6938 31.8289 26.2626 31.2266C26.8314 30.6243 26.8043 29.675 26.202 29.1061L20.0234 23.2707L26.202 17.4353Z" fill="white"/>
</svg>
