<svg width="45" height="45" viewBox="0 0 45 45" fill="none" xmlns="http://www.w3.org/2000/svg">
<path fill-rule="evenodd" clip-rule="evenodd" d="M22.9219 44.8633C10.7716 44.8633 0.921875 35.0135 0.921875 22.8633C0.921875 10.713 10.7716 0.863281 22.9219 0.863281C35.0721 0.863281 44.9219 10.713 44.9219 22.8633C44.9219 35.0135 35.0721 44.8633 22.9219 44.8633ZM19.2199 17.4363C18.6177 16.8675 18.5905 15.9181 19.1593 15.3158C19.7282 14.7136 20.6775 14.6864 21.2798 15.2553L28.6131 22.1812L29.7678 23.2717L28.6131 24.3622L21.2798 31.2882C20.6775 31.857 19.7282 31.8298 19.1593 31.2276C18.5905 30.6253 18.6177 29.6759 19.2199 29.1071L25.3986 23.2717L19.2199 17.4363Z" fill="#FF4D1C"/>
</svg>
