<svg width="44" height="45" viewBox="0 0 44 45" fill="none" xmlns="http://www.w3.org/2000/svg">
<path fill-rule="evenodd" clip-rule="evenodd" d="M22 44.8633C34.1503 44.8633 44 35.0135 44 22.8633C44 10.713 34.1503 0.863281 22 0.863281C9.84974 0.863281 0 10.713 0 22.8633C0 35.0135 9.84974 44.8633 22 44.8633ZM25.702 17.4363C26.3043 16.8675 26.3314 15.9181 25.7626 15.3158C25.1938 14.7136 24.2444 14.6864 23.6421 15.2553L16.3088 22.1812L15.1541 23.2717L16.3088 24.3622L23.6421 31.2882C24.2444 31.857 25.1938 31.8298 25.7626 31.2276C26.3314 30.6253 26.3043 29.6759 25.702 29.1071L19.5234 23.2717L25.702 17.4363Z" fill="#FF4D1C"/>
</svg>
