<svg width="19" height="17" viewBox="0 0 19 17" fill="none" xmlns="http://www.w3.org/2000/svg">
<path d="M13.0658 1.2832C14.2939 1.2832 15.4155 1.79633 16.2241 2.72807C16.9953 3.61691 17.4201 4.80731 17.4201 6.08002C17.4201 7.46535 16.8875 8.75381 15.7441 10.1349C14.7223 11.3693 13.2522 12.6416 11.5498 14.1149L11.5438 14.12C10.9113 14.6676 10.2572 15.2336 9.56102 15.8522L9.54007 15.8709C9.44945 15.9514 9.3366 15.9917 9.22374 15.9917C9.11078 15.9917 8.99793 15.9515 8.9074 15.8709L8.88646 15.8522C8.18817 15.2318 7.53218 14.6641 6.89793 14.1152L6.89763 14.1149C5.1953 12.6416 3.72517 11.3693 2.70328 10.1349C1.55988 8.75381 1.02734 7.46535 1.02734 6.08002C1.02734 4.80731 1.45212 3.61691 2.22335 2.72811C3.0319 1.79636 4.15356 1.2832 5.38168 1.2832C7.10892 1.2832 8.2025 2.33091 8.8157 3.20985C8.9748 3.43792 9.11009 3.66663 9.22374 3.88177C9.33739 3.66663 9.47268 3.43792 9.63178 3.20985C10.245 2.33091 11.3385 1.2832 13.0658 1.2832Z" fill="#FF4D1C" stroke="#FF4D1C" stroke-width="2"/>
</svg>
