<svg width="19" height="18" viewBox="0 0 19 18" fill="none" xmlns="http://www.w3.org/2000/svg">
<path d="M13.515 1.39551C14.7431 1.39551 15.8647 1.90863 16.6733 2.84038C17.4445 3.72921 17.8693 4.91961 17.8693 6.19232C17.8693 7.57765 17.3367 8.86611 16.1933 10.2472C15.1715 11.4816 13.7014 12.7539 11.9991 14.2272L11.993 14.2323C11.3605 14.7799 10.7065 15.3459 10.0102 15.9645L9.98929 15.9832C9.89867 16.0637 9.78581 16.104 9.67296 16.104C9.56 16.104 9.44715 16.0638 9.35662 15.9832L9.33567 15.9645C8.63739 15.3441 7.9814 14.7764 7.34715 14.2275L7.34685 14.2272C5.64451 12.7539 4.17439 11.4816 3.1525 10.2472C2.0091 8.86611 1.47656 7.57765 1.47656 6.19232C1.47656 4.91961 1.90134 3.72921 2.67256 2.84042C3.48112 1.90866 4.60278 1.39551 5.8309 1.39551C7.55813 1.39551 8.65172 2.44321 9.26492 3.32215C9.42402 3.55023 9.55931 3.77894 9.67296 3.99408C9.78661 3.77894 9.9219 3.55023 10.081 3.32215C10.6942 2.44321 11.7877 1.39551 13.515 1.39551Z" stroke="white" stroke-width="2"/>
</svg>
