<svg width="19" height="17" viewBox="0 0 19 17" fill="none" xmlns="http://www.w3.org/2000/svg">
<path d="M13.2103 1.2832C14.4384 1.2832 15.5601 1.79633 16.3686 2.72807C17.1399 3.61691 17.5646 4.80731 17.5646 6.08002C17.5646 7.46535 17.032 8.75381 15.8886 10.1349C14.8668 11.3693 13.3967 12.6416 11.6944 14.1149L11.6884 14.12C11.0558 14.6676 10.4018 15.2336 9.70556 15.8522L9.68461 15.8709C9.59398 15.9514 9.48113 15.9917 9.36827 15.9917C9.25532 15.9917 9.14246 15.9515 9.05194 15.8709L9.03099 15.8522C8.3327 15.2318 7.67671 14.6641 7.04246 14.1152L7.04216 14.1149C5.33983 12.6416 3.8697 11.3693 2.84781 10.1349C1.70442 8.75381 1.17188 7.46535 1.17188 6.08002C1.17188 4.80731 1.59665 3.61691 2.36788 2.72811C3.17643 1.79636 4.29809 1.2832 5.52621 1.2832C7.25345 1.2832 8.34703 2.33091 8.96023 3.20985C9.11933 3.43792 9.25462 3.66663 9.36827 3.88177C9.48192 3.66663 9.61721 3.43792 9.77631 3.20985C10.3895 2.33091 11.483 1.2832 13.2103 1.2832Z" stroke="#FF4D1C" stroke-width="2"/>
</svg>
