<svg width="23" height="21" viewBox="0 0 23 21" fill="none" xmlns="http://www.w3.org/2000/svg">
<path d="M16.1004 1.10938C17.6014 1.10938 18.9723 1.73653 19.9605 2.87533C20.9031 3.96168 21.4223 5.41661 21.4223 6.97215C21.4223 8.66533 20.7714 10.2401 19.3739 11.9281C18.125 13.4368 16.3282 14.9918 14.2476 16.7925L14.2402 16.7988C13.467 17.468 12.6677 18.1599 11.8168 18.9159L11.7912 18.9388C11.6804 19.0371 11.5425 19.0864 11.4045 19.0864C11.2665 19.0864 11.1285 19.0372 11.0179 18.9388L10.9923 18.9159C10.1388 18.1576 9.33707 17.4638 8.56187 16.7929C6.48124 14.9922 4.68406 13.4368 3.43509 11.9281C2.0376 10.2401 1.38672 8.66533 1.38672 6.97215C1.38672 5.41661 1.90589 3.96168 2.8485 2.87538C3.83673 1.73656 5.20765 1.10938 6.70868 1.10938C8.81975 1.10938 10.1563 2.3899 10.9058 3.46416C11.1003 3.74292 11.2656 4.02246 11.4045 4.2854C11.5434 4.02246 11.7088 3.74292 11.9033 3.46416C12.6527 2.3899 13.9892 1.10938 16.1004 1.10938Z" fill="white" stroke="white" stroke-width="2"/>
</svg>
