<svg width="18" height="14" viewBox="0 0 18 14" fill="none" xmlns="http://www.w3.org/2000/svg">
<path d="M0.271863 6.51215C2.11332 5.5596 4.16887 4.76455 6.08948 3.96546C9.39368 2.65662 12.711 1.37045 16.0618 0.173052C16.7137 -0.0309616 17.8851 -0.23045 18 0.676841C17.9371 1.96116 17.6783 3.23795 17.5009 4.51474C17.0505 7.32253 16.5298 10.1207 16.0221 12.9192C15.8472 13.8515 14.6038 14.334 13.8081 13.7374C11.8961 12.5245 9.96929 11.3234 8.08162 10.0824C7.46328 9.4923 8.03668 8.64493 8.58892 8.22356C10.1638 6.76604 11.8339 5.52771 13.3264 3.99487C13.7291 3.08185 12.5395 3.85131 12.1471 4.0871C9.99112 5.48236 7.88791 6.96281 5.61484 8.18906C4.45376 8.78929 3.10049 8.27635 1.93994 7.94143C0.899372 7.53682 -0.625472 7.12917 0.271758 6.51227L0.271863 6.51215Z" fill="white"/>
</svg>
