<svg width="16" height="13" viewBox="0 0 16 13" fill="none" xmlns="http://www.w3.org/2000/svg">
<path d="M15.6178 1.50097C15.043 1.75568 14.4262 1.92842 13.7782 2.00554C14.4399 1.6093 14.9464 0.980813 15.1865 0.234217C14.5658 0.60116 13.8807 0.867608 13.1507 1.01205C12.5661 0.388431 11.7346 0 10.8123 0C9.04295 0 7.60833 1.43462 7.60833 3.20302C7.60833 3.45382 7.63663 3.69878 7.69129 3.93302C5.02895 3.7993 2.66818 2.52377 1.08815 0.585543C0.81195 1.05791 0.654828 1.60831 0.654828 2.19584C0.654828 3.30744 1.22087 4.28825 2.0797 4.86208C1.55464 4.84453 1.06082 4.70009 0.628492 4.46V4.50001C0.628492 6.05175 1.73325 7.3468 3.19812 7.64155C2.92973 7.71377 2.64672 7.75379 2.35393 7.75379C2.14705 7.75379 1.94698 7.7333 1.75081 7.69425C2.15874 8.96785 3.34159 9.894 4.74303 9.91939C3.64705 10.7782 2.26513 11.2886 0.764153 11.2886C0.505539 11.2886 0.250805 11.273 0 11.2447C1.41804 12.1553 3.10152 12.6862 4.9109 12.6862C10.8046 12.6862 14.0261 7.80455 14.0261 3.57095L14.0154 3.15619C14.6448 2.70723 15.1894 2.14314 15.6178 1.50097Z" fill="white"/>
</svg>
