<svg width="19" height="11" viewBox="0 0 19 11" fill="none" xmlns="http://www.w3.org/2000/svg">
<path d="M9.93005 10.0859C9.93005 10.0859 10.2565 10.0503 10.4236 9.87404C10.5767 9.71254 10.5714 9.40776 10.5714 9.40776C10.5714 9.40776 10.551 7.98459 11.2242 7.77446C11.8877 7.5678 12.7395 9.15074 13.6436 9.75943C14.3265 10.2196 14.8449 10.1189 14.8449 10.1189L17.2607 10.0859C17.2607 10.0859 18.5239 10.0095 17.925 9.03438C17.8755 8.9545 17.5756 8.31281 16.1293 6.99471C14.614 5.61496 14.8174 5.83812 16.6415 3.45112C17.7525 1.99756 18.1966 1.11014 18.0577 0.730689C17.9259 0.367733 17.1085 0.464116 17.1085 0.464116L14.3893 0.480614C14.3893 0.480614 14.1876 0.453696 14.0381 0.541396C13.8921 0.627359 13.7975 0.82794 13.7975 0.82794C13.7975 0.82794 13.3676 1.95241 12.7935 2.90929C11.5825 4.92725 11.0986 5.03406 10.9004 4.90902C10.4396 4.6164 10.5546 3.73506 10.5546 3.109C10.5546 1.15269 10.8571 0.337342 9.96632 0.126342C9.67086 0.0560081 9.45325 0.00998741 8.69692 0.00217255C7.72652 -0.00737891 6.90562 0.00564583 6.44032 0.228803C6.13071 0.377285 5.89187 0.708981 6.03783 0.728084C6.2174 0.751528 6.62432 0.835755 6.84016 1.12404C7.11881 1.49654 7.10908 2.33186 7.10908 2.33186C7.10908 2.33186 7.26919 4.63463 6.73489 4.92031C6.36867 5.11655 5.86622 4.71625 4.78613 2.88498C4.23326 1.9472 3.81573 0.91043 3.81573 0.91043C3.81573 0.91043 3.73523 0.716796 3.59104 0.612598C3.41678 0.486692 3.17352 0.447618 3.17352 0.447618L0.589616 0.464116C0.589616 0.464116 0.201279 0.474536 0.0588595 0.640384C-0.0676375 0.787129 0.0491289 1.09191 0.0491289 1.09191C0.0491289 1.09191 2.0722 5.73826 4.3633 8.08011C6.46421 10.2266 8.84907 10.0859 8.84907 10.0859H9.93005Z" fill="white"/>
</svg>
