<svg width="1920" height="176" viewBox="0 0 1920 176" fill="none" xmlns="http://www.w3.org/2000/svg">
<mask id="mask0_305_31068" style="mask-type:alpha" maskUnits="userSpaceOnUse" x="0" y="41" width="1921" height="135">
<rect x="0.5" y="41.751" width="1920" height="133.743" fill="#001D3D"/>
</mask>
<g mask="url(#mask0_305_31068)">
<rect x="1" y="124" width="1919.5" height="106.982" fill="white"/>
<path d="M-84.9893 107.083C-77.9244 84.5193 -56.9849 68.1712 -32.1299 68.1712C-21.9155 68.1712 -12.297 70.981 -4.04038 75.8344C2.08824 73.4503 8.81271 72.1731 15.7925 72.1731C21.6658 72.1731 27.3688 73.1097 32.7314 74.8126C42.6053 55.7398 62.5233 42.7124 85.5057 42.7124C104.402 42.7124 121.256 51.5676 132.151 65.3613C136.152 63.999 140.493 63.2327 144.919 63.2327C153.857 63.2327 190.884 70.0444 197.694 102.826L168.583 107.168H-84.9893V107.083Z" fill="white"/>
<path d="M23.4909 113.047C30.5558 90.4836 51.4953 74.1356 76.3503 74.1356C86.5647 74.1356 96.1832 76.9454 104.44 81.7987C110.568 79.4146 117.293 78.1374 124.273 78.1374C130.146 78.1374 135.849 79.0741 141.212 80.777C151.086 61.7042 171.004 48.6768 193.986 48.6768C212.882 48.6768 229.736 57.532 240.632 71.3257C244.632 69.9633 248.973 69.197 253.4 69.197C262.337 69.197 299.364 76.0087 306.174 108.79L277.063 113.133H23.4909V113.047Z" fill="white"/>
<path d="M714.111 156.143C721.176 133.579 742.116 117.231 766.971 117.231C777.185 117.231 786.804 120.041 795.06 124.894C801.189 122.51 807.914 121.233 814.893 121.233C820.767 121.233 826.47 122.17 831.832 123.873C841.706 104.8 861.624 91.7725 884.607 91.7725C903.503 91.7725 920.357 100.628 931.252 114.421C935.253 113.059 939.594 112.293 944.02 112.293C952.958 112.293 989.985 119.104 996.794 151.886L967.683 156.228H714.111V156.143Z" fill="white"/>
<path d="M-101.015 102.505C-132.555 107.861 -165.332 105.35 -196.907 101.608C-184.811 107.656 -186.142 126.183 -186.142 137.493C-186.142 165.363 -150.836 180.981 -129.723 189.426C-122.497 192.316 -113.983 191.32 -106.398 191.32C-85.7308 191.32 -65.063 191.384 -44.3964 191.32C38.5689 191.065 121.522 189.526 204.505 189.526C259.914 189.526 314.742 186.457 370.074 184.542C470.612 181.062 571.72 184.143 672.305 184.143C756.528 184.143 840.708 184.807 924.895 182.349C952.896 181.531 980.808 179.079 1008.83 178.76C1026.81 178.556 1044.86 177.957 1062.65 175.172C1074.49 173.319 1089.29 171.573 1097.44 161.615C1104.49 153 1084.99 145.075 1080.6 142.875C1014.67 109.912 938.678 108.785 866.283 108.785L864.546 108.785C821.222 108.784 777.085 108.783 734.007 113.27C689.078 117.95 642.347 124.933 597.146 124.933C548.903 124.933 500.575 125.858 452.41 122.939C393.68 119.38 335.904 105.699 277.77 97.122C232.391 90.4268 187.937 81.8987 142.205 76.887C79.5241 70.0178 9.72723 83.5429 -51.9721 93.0352C-68.3896 95.5609 -84.6193 99.7206 -101.015 102.505Z" fill="white"/>
<path d="M1781.97 126.71V88.6913C1777.88 87.5414 1773.28 86.8945 1768.9 86.8945C1752.95 86.8945 1738.94 95.3751 1731.11 108.024C1724.21 98.4654 1713 92.2128 1700.28 92.2128C1693.46 92.2128 1687.07 94.0096 1681.53 97.1718C1673.41 87.6132 1652.51 86.3196 1639 85.8884C1609.18 85.0259 1580.09 111.33 1576.35 126.71" fill="white"/>
<path d="M1211.01 132.367C1205.05 113.322 1187.37 99.5233 1166.4 99.5233C1157.77 99.5233 1149.66 101.895 1142.69 105.992C1137.51 103.979 1131.84 102.901 1125.95 102.901C1120.99 102.901 1116.18 103.692 1111.65 105.129C1103.31 89.0304 1086.5 78.0344 1067.1 78.0344C1051.15 78.0344 1036.93 85.5088 1027.73 97.1516C1024.36 96.0017 1020.69 95.3549 1016.96 95.3549C1009.41 95.3549 978.159 101.104 972.411 128.774L996.983 132.439H1211.01V132.367Z" fill="white"/>
<path d="M1958.74 129.576C1952.03 108.141 1932.14 92.61 1908.53 92.61C1898.82 92.61 1889.69 95.2793 1881.84 99.89C1876.02 97.6251 1869.63 96.4117 1863 96.4117C1857.42 96.4117 1852.01 97.3015 1846.91 98.9193C1837.53 80.8003 1818.61 68.4243 1796.78 68.4243C1778.82 68.4243 1762.81 76.8367 1752.46 89.9407C1748.66 88.6464 1744.54 87.9184 1740.33 87.9184C1731.84 87.9184 1696.67 94.3895 1690.2 125.532L1717.85 129.657H1838.3H1958.74V129.576Z" fill="white"/>
</g>
<path d="M965.223 69.7285L989.799 57.9222" stroke="#BB872B" stroke-width="4.81841" stroke-miterlimit="10"/>
<path d="M918.961 68.5238L892.939 59.127" stroke="#BB872B" stroke-width="4.81841" stroke-miterlimit="10"/>
<path d="M941.373 120.568C959.337 120.568 973.9 106.005 973.9 88.0404C973.9 70.0759 959.337 55.5128 941.373 55.5128C923.408 55.5128 908.845 70.0759 908.845 88.0404C908.845 106.005 923.408 120.568 941.373 120.568Z" fill="white"/>
<path d="M953.419 22.0217C957.756 25.395 960.406 30.6957 960.406 36.7194C960.406 47.08 951.973 55.754 941.372 55.754C930.77 55.754 922.337 47.3209 922.337 36.7194C922.337 32.8642 923.301 29.491 925.228 26.5997C926.433 24.9131 927.638 23.2265 929.325 22.0217" fill="white"/>
<path d="M934.382 27.0811C932.695 27.0811 931.49 28.5267 931.49 29.9724C931.49 31.4181 932.936 32.8637 934.382 32.8637C936.068 32.8637 937.273 31.4181 937.273 29.9724C937.273 28.5267 936.068 27.0811 934.382 27.0811Z" fill="black"/>
<path d="M948.358 27.0811C946.672 27.0811 945.467 28.5267 945.467 29.9724C945.467 31.4181 946.913 32.8637 948.358 32.8637C950.045 32.8637 951.25 31.4181 951.25 29.9724C951.25 28.5267 950.045 27.0811 948.358 27.0811Z" fill="black"/>
<path d="M924.022 25.3947H958.959L951.49 0.095459H931.25L924.022 25.3947Z" fill="#D3D3D3"/>
<path d="M989.802 120.568V38.8877" stroke="#BB872B" stroke-width="4.81841" stroke-miterlimit="10"/>
<path d="M989.803 38.8879L972.696 22.0217" stroke="#BB872B" stroke-width="4.81841" stroke-miterlimit="10"/>
<path d="M989.802 15.5156V38.8873" stroke="#BB872B" stroke-width="4.81841" stroke-miterlimit="10"/>
<path d="M989.802 38.8879L1006.43 22.0217" stroke="#BB872B" stroke-width="4.81841" stroke-miterlimit="10"/>
<path d="M891.254 47.8026L892.941 59.127" stroke="#BB872B" stroke-width="4.81841" stroke-miterlimit="10"/>
<path d="M886.436 62.7411L892.941 59.127" stroke="#BB872B" stroke-width="4.81841" stroke-miterlimit="10"/>
<path d="M941.373 35.5142L952.938 40.0921V43.4653H941.373" fill="#E7462B"/>
<path d="M941.37 76.4749C939.684 76.4749 938.479 77.9205 938.479 79.3662C938.479 81.0528 939.925 82.2575 941.37 82.2575C943.057 82.2575 944.262 80.8119 944.262 79.3662C944.503 77.9205 943.057 76.4749 941.37 76.4749Z" fill="black"/>
<path d="M941.37 91.4133C939.683 91.4133 938.479 92.859 938.479 94.3047C938.479 95.9913 939.924 97.196 941.37 97.196C943.057 97.196 944.261 95.7503 944.261 94.3047C944.502 92.859 943.057 91.4133 941.37 91.4133Z" fill="black"/>
</svg>
