<svg width="381" height="375" viewBox="0 0 381 375" fill="none" xmlns="http://www.w3.org/2000/svg">
<mask id="mask0_251_73413" style="mask-type:alpha" maskUnits="userSpaceOnUse" x="0" y="0" width="381" height="375">
<rect x="0.213867" y="0.251953" width="380" height="374" rx="20" fill="#E5212D"/>
</mask>
<g mask="url(#mask0_251_73413)">
<g clip-path="url(#clip0_251_73413)">
<path d="M318.83 210.359C326.815 210.359 334.474 213.531 340.12 219.177C345.767 224.824 348.939 232.482 348.939 240.468V297.882H288.854V240.468C288.845 236.511 289.618 232.592 291.128 228.935C292.638 225.278 294.856 221.956 297.653 219.158C300.451 216.36 303.774 214.143 307.431 212.633C311.088 211.123 315.007 210.35 318.963 210.359H318.83ZM318.963 197.007C307.442 197.024 296.398 201.609 288.251 209.756C280.104 217.902 275.52 228.947 275.502 240.468V311.235H362.291V240.468C362.274 228.947 357.689 217.902 349.542 209.756C341.395 201.609 330.351 197.024 318.83 197.007H318.963Z" fill="#08A9CB"/>
<path d="M226.769 251.016V256.29V265.036H222.096V271.445L226.769 283.395V383.537" stroke="#08A9CB" stroke-width="13.3522" stroke-miterlimit="10"/>
<path d="M339.009 76.5029L375.194 146.201L387.611 151.876V157.284L411.779 162.959V184.322L407.974 195.404V205.686L404.969 212.362L404.168 251.217H463.052V266.438L471.73 267.64V275.718L461.449 279.123V331.463L465.855 334.935L462.117 338.407V378.463L463.919 383.337H174.377L176.179 378.463V338.407L172.774 334.935L176.847 331.463V279.123L167.367 275.317V267.239L174.911 266.038V250.816H233.794L232.993 211.961L229.989 205.285V195.004L226.183 183.921V162.558L250.351 156.883V151.476L262.768 145.801L298.953 76.1023H339.009V76.5029ZM347.154 62.7501H290.474L286.736 69.8936L252.687 135.586L244.476 139.325L236.665 142.93V146.335L222.778 149.606L212.497 152.01V186.191L213.232 188.261L216.303 197.207V208.223L217.571 210.96L219.374 214.832L219.841 237.264H161.024V254.421L153.48 255.556V284.063L161.826 287.468L162.96 287.935V325.856L152.813 334.601L162.293 344.348V376.594L161.291 379.264L154.615 397.223H482.479L475.803 379.264L474.801 376.594V344.749L485.55 334.601L474.801 325.255V288.736L476.604 288.069L485.416 284.864V255.756L476.737 254.621V237.664H418.121L418.589 215.232L420.391 211.36L421.66 208.623V197.608L424.731 188.662L425.465 186.592V152.277L415.184 149.873L401.298 146.602V143.197L393.487 139.592L385.275 135.854L351.227 70.1607L347.488 63.0172L347.154 62.7501Z" fill="#08A9CB"/>
<path d="M411.779 162.958H354.631V158.952C354.613 155.086 353.065 151.384 350.325 148.657C347.585 145.93 343.876 144.398 340.01 144.398V144.398C339.754 138.376 337.225 132.675 332.934 128.442C329.395 125.638 325.59 123.569 322.786 121.766C321.602 120.818 320.13 120.302 318.614 120.302C317.097 120.302 315.625 120.818 314.441 121.766C311.637 123.836 307.765 125.906 304.293 128.442C300.002 132.675 297.473 138.376 297.217 144.398V144.398C293.35 144.398 289.642 145.93 286.902 148.657C284.162 151.384 282.614 155.086 282.596 158.952V162.958H225.649" stroke="#08A9CB" stroke-width="13.3522" stroke-miterlimit="10"/>
<path d="M318.83 334.868C329.107 334.874 339.302 336.705 348.939 340.276V383.537H288.854V340.276C298.512 336.697 308.73 334.866 319.03 334.868H318.83ZM319.03 321.516C307.161 321.52 295.386 323.622 284.248 327.725L275.502 330.996V396.889H362.291V330.996L353.546 327.725C342.432 323.618 330.678 321.515 318.83 321.516H319.03Z" fill="#08A9CB"/>
</g>
</g>
<defs>
<clipPath id="clip0_251_73413">
<rect width="332.938" height="333.739" fill="white" transform="translate(153.003 63.1509)"/>
</clipPath>
</defs>
</svg>
