<svg width="381" height="375" viewBox="0 0 381 375" fill="none" xmlns="http://www.w3.org/2000/svg">
<mask id="mask0_251_73448" style="mask-type:alpha" maskUnits="userSpaceOnUse" x="0" y="0" width="381" height="375">
<rect x="0.213867" y="0.251953" width="380" height="374" rx="20" fill="#3EA8CF"/>
</mask>
<g mask="url(#mask0_251_73448)">
<g opacity="0.8">
<g clip-path="url(#clip0_251_73448)">
<path d="M273.189 245.59H292.812C310.98 274.695 335.344 299.434 364.168 318.044H336.381L353.533 340.205C363.877 353.395 376.27 364.838 390.241 374.1H181.662C194.556 364.57 205.386 352.526 213.497 338.696L225.573 318.113H201.834C230.668 299.515 255.034 274.773 273.189 245.659V245.59ZM265.162 231.937C264.018 234.132 262.783 236.419 261.457 238.798C241.424 270.288 213.979 296.39 181.524 314.819C179.792 315.855 178.448 317.433 177.701 319.309C176.954 321.185 176.846 323.254 177.392 325.198C177.939 327.142 179.11 328.852 180.725 330.064C182.339 331.275 184.308 331.922 186.327 331.903H201.628C192.022 348.103 178.352 361.514 161.97 370.806C160.214 371.822 158.843 373.39 158.071 375.266C157.298 377.142 157.168 379.221 157.701 381.178C158.233 383.136 159.398 384.863 161.014 386.089C162.631 387.316 164.607 387.973 166.636 387.959H406.159C408.204 387.985 410.199 387.328 411.829 386.093C413.459 384.857 414.63 383.113 415.158 381.137C415.685 379.161 415.539 377.065 414.742 375.182C413.944 373.298 412.541 371.734 410.755 370.738C392.817 361.079 377.035 347.865 364.374 331.903H379.674C381.687 331.907 383.646 331.249 385.249 330.032C386.853 328.815 388.012 327.105 388.549 325.165C389.087 323.225 388.973 321.162 388.225 319.293C387.477 317.424 386.136 315.853 384.409 314.819C358.542 299.382 323.825 273.241 302.487 235.093C301.869 234.063 301.32 233.034 300.771 232.005L265.162 231.937Z" fill="#FFBC0F"/>
<path d="M284.586 189.534L293.231 231.799H272.648L281.499 189.534H284.655H284.586ZM295.907 175.812H270.315L256.044 245.521H310.041L295.838 175.812H295.907Z" fill="#FFBC0F"/>
<path d="M283.005 75.7763L297.757 105.622L300.913 112.072L307.774 113.101L340.708 117.904L316.899 141.094L311.754 146.172L312.92 153.033L318.546 185.829L289.386 170.735L283.005 167.373L276.624 170.735L247.19 186.035L252.816 153.239L254.051 146.378L248.837 141.3L225.029 118.11L257.962 113.307L264.823 112.278L268.048 105.828L282.731 75.9822L283.005 75.7763ZM282.731 44.9698L255.698 99.859L195.32 108.641L239.025 151.249L228.665 211.49L282.731 183.016L336.797 211.49L326.436 151.249L370.691 108.298L310.244 99.5159L283.211 44.6267L282.731 44.9698Z" fill="#FFBC0F"/>
</g>
</g>
</g>
<defs>
<clipPath id="clip0_251_73448">
<rect width="258.048" height="343.057" fill="white" transform="translate(157.379 44.7644)"/>
</clipPath>
</defs>
</svg>
