<svg width="381" height="375" viewBox="0 0 381 375" fill="none" xmlns="http://www.w3.org/2000/svg">
<mask id="mask0_251_73427" style="mask-type:alpha" maskUnits="userSpaceOnUse" x="0" y="0" width="381" height="375">
<rect x="0.213867" y="0.251953" width="380" height="374" rx="20" fill="#F4C500"/>
</mask>
<g mask="url(#mask0_251_73427)">
<path d="M-190.559 128.252L-138.412 267.655L0.990723 319.802L-138.412 371.949L-190.559 511.352L-242.706 371.949L-382.109 319.802L-242.706 267.655L-190.559 128.252Z" fill="#C4C4C4"/>
<g clip-path="url(#clip0_251_73427)">
<path d="M228.783 298.145V348.073" stroke="#DE241A" stroke-width="11.7903" stroke-miterlimit="10"/>
<path d="M168.035 348.073H478.209" stroke="#DE241A" stroke-width="11.7903" stroke-miterlimit="10"/>
<path d="M244.378 270.27V291.073H213.174V270.27H244.378ZM258.247 256.401H199.305V304.941H258.247V256.401Z" fill="#DE241A"/>
<path d="M315.105 67.5087C320.583 109.115 330.222 161.261 345.755 179.845C368.846 207.583 392.839 219.787 448.591 232.893C477.924 239.827 478.686 254.805 479.796 275.609V279.977C479.939 282.299 479.6 284.624 478.801 286.808C478.001 288.992 476.758 290.987 475.15 292.667C473.373 294.557 471.222 296.056 468.835 297.071C466.447 298.086 463.875 298.593 461.281 298.561H365.795L263.652 257.441L261.156 256.4H212.616C212.517 242.735 215.036 229.177 220.035 216.459C231.824 190.801 229.119 124.995 226.554 96.009C247.357 89.0747 293.609 73.9577 314.897 67.5087H315.105ZM317.879 52.5999C316.894 52.6018 315.913 52.7418 314.967 53.016C290.003 60.3664 211.506 86.3702 211.506 86.3702C214.418 104.954 218.995 185.531 207.484 210.703C195.973 235.875 199.094 270.269 199.094 270.269H258.244L362.883 312.43H462.113C466.445 312.463 470.738 311.613 474.731 309.932C478.723 308.251 482.332 305.775 485.336 302.654C488.34 299.533 490.677 295.833 492.204 291.779C493.732 287.725 494.417 283.403 494.219 279.076C492.902 257.441 494.219 229.287 452.128 219.371C395.544 206.057 375.85 193.922 356.781 170.83C341.594 152.732 332.094 88.2425 328.697 61.6839C328.393 59.1706 327.183 56.8544 325.294 55.1693C323.404 53.4843 320.965 52.5461 318.434 52.5306L317.879 52.5999Z" fill="#DE241A"/>
<path d="M290.004 109.115L321.971 99.6843" stroke="#DE241A" stroke-width="11.7903" stroke-miterlimit="10"/>
<path d="M295.903 132.969L327.87 123.538" stroke="#DE241A" stroke-width="11.7903" stroke-miterlimit="10"/>
<path d="M302.432 155.922L334.399 146.491" stroke="#DE241A" stroke-width="11.7903" stroke-miterlimit="10"/>
</g>
</g>
<defs>
<clipPath id="clip0_251_73427">
<rect width="345.746" height="302.407" fill="white" transform="translate(168.035 52.6001)"/>
</clipPath>
</defs>
</svg>
