<svg width="83" height="83" viewBox="0 0 83 83" fill="none" xmlns="http://www.w3.org/2000/svg">
<g clip-path="url(#clip0_256_86515)">
<path d="M38.3452 48.2311H42.6049C46.5487 54.5492 51.8377 59.9195 58.0948 63.9593H52.0627L55.7862 68.7701C58.0315 71.6332 60.7219 74.1174 63.7545 76.1278H18.4765C21.2755 74.0591 23.6264 71.4447 25.3873 68.4424L28.0087 63.9742H22.8554C29.1146 59.937 34.4041 54.5662 38.3452 48.246V48.2311ZM36.6026 45.2672C36.3543 45.7438 36.0862 46.2403 35.7983 46.7566C31.4496 53.5925 25.492 59.2587 18.4467 63.2593C18.0705 63.4842 17.7789 63.8267 17.6167 64.2339C17.4546 64.6411 17.431 65.0904 17.5496 65.5123C17.6683 65.9343 17.9225 66.3054 18.273 66.5685C18.6236 66.8316 19.051 66.9719 19.4893 66.9679H22.8106C20.7254 70.4846 17.7579 73.3956 14.2018 75.4129C13.8206 75.6333 13.523 75.9737 13.3553 76.381C13.1877 76.7882 13.1595 77.2395 13.275 77.6645C13.3906 78.0894 13.6436 78.4642 13.9944 78.7305C14.3452 78.9967 14.7743 79.1394 15.2147 79.1364H67.21C67.6539 79.142 68.0871 78.9994 68.4409 78.7312C68.7947 78.463 69.049 78.0845 69.1635 77.6555C69.278 77.2265 69.2462 76.7716 69.0732 76.3627C68.9001 75.9538 68.5956 75.6144 68.2079 75.398C64.3138 73.3013 60.8879 70.4329 58.1394 66.9679H61.4608C61.8978 66.9686 62.323 66.8259 62.671 66.5616C63.0191 66.2974 63.2707 65.9262 63.3874 65.5051C63.5041 65.084 63.4794 64.6362 63.317 64.2305C63.1546 63.8248 62.8636 63.4836 62.4885 63.2593C56.8735 59.9081 49.337 54.2335 44.705 45.9523C44.5709 45.7289 44.4518 45.5055 44.3326 45.2821L36.6026 45.2672Z" fill="white"/>
<path d="M40.8197 36.0626L42.6964 45.2373H38.2281L40.1495 36.0626H40.8346H40.8197ZM43.2772 33.0837H37.7217L34.6238 48.2162H46.3454L43.2623 33.0837H43.2772Z" fill="white"/>
<path d="M40.4758 11.3681L43.678 17.8471L44.3632 19.2471L45.8526 19.4705L53.0018 20.5131L47.8335 25.5473L46.7165 26.6495L46.9696 28.1389L48.191 35.2583L41.861 31.9816L40.4758 31.2518L39.0907 31.9816L32.7011 35.303L33.9224 28.1836L34.1905 26.6942L33.0585 25.592L27.8903 20.5578L35.0395 19.5152L36.5289 19.2918L37.2289 17.8917L40.4162 11.4128L40.4758 11.3681ZM40.4162 4.68067L34.548 16.596L21.4412 18.5024L30.9287 27.7516L28.6797 40.8287L40.4162 34.6476L52.1528 40.8287L49.9038 27.7516L59.5105 18.4279L46.3888 16.5215L40.5205 4.6062L40.4162 4.68067Z" fill="white"/>
</g>
<defs>
<clipPath id="clip0_256_86515">
<rect width="56.0167" height="74.4705" fill="white" transform="translate(13.2056 4.63611)"/>
</clipPath>
</defs>
</svg>
