<svg width="83" height="83" viewBox="0 0 83 83" fill="none" xmlns="http://www.w3.org/2000/svg">
<path d="M41.1391 37.6413C42.8601 37.6413 44.5106 38.3249 45.7275 39.5418C46.9444 40.7587 47.6281 42.4093 47.6281 44.1302V56.5039H34.6789V44.1302C34.677 43.2776 34.8435 42.4329 35.1689 41.6448C35.4944 40.8566 35.9723 40.1405 36.5752 39.5376C37.1782 38.9347 37.8943 38.4568 38.6824 38.1313C39.4705 37.8059 40.3152 37.6394 41.1679 37.6413H41.1391ZM41.1679 34.7637C38.6849 34.7675 36.3046 35.7555 34.5489 37.5113C32.7931 39.267 31.8051 41.6472 31.8013 44.1302V59.3815H50.5057V44.1302C50.5019 41.6472 49.5138 39.267 47.7581 37.5113C46.0023 35.7555 43.6221 34.7675 41.1391 34.7637H41.1679Z" fill="white"/>
<path d="M21.2977 46.4036V47.5402V49.425H20.2905V50.8063L21.2977 53.3818V74.9638" stroke="white" stroke-width="2.8776" stroke-miterlimit="10"/>
<path d="M45.4871 8.79327L53.2854 23.8144L55.9615 25.0374V26.2028L61.17 27.4258V32.0299L60.3499 34.4183V36.6341L59.7024 38.0729L59.5298 46.4467H72.22V49.7272L74.0904 49.9862V51.7271L71.8747 52.4609V63.7411L72.8243 64.4893L72.0186 65.2375V73.8703L72.407 74.9206H10.0062L10.3947 73.8703V65.2375L9.66091 64.4893L10.5386 63.7411V52.4609L8.49547 51.6408V49.8998L10.1213 49.6409V46.3604H22.8116L22.6389 37.9866L21.9914 36.5478V34.332L21.1713 31.9436V27.3394L26.3798 26.1165V24.951L29.0559 23.728L36.8543 8.70695H45.4871V8.79327ZM47.2424 5.82935H35.027L34.2213 7.36887L26.8834 21.5267L25.1136 22.3324L23.4302 23.1094V23.8431L20.4375 24.5482L18.2218 25.0661V32.4328L18.38 32.8788L19.0419 34.8068V37.1808L19.3153 37.7708L19.7037 38.6052L19.8045 43.4396H7.12862V47.1373L5.50278 47.3819V53.5256L7.30128 54.2594L7.54587 54.3601V62.5325L5.35889 64.4173L7.40199 66.518V73.4674L7.18617 74.0429L5.74737 77.9133H76.4069L74.9681 74.0429L74.7523 73.4674V66.6043L77.0688 64.4173L74.7523 62.403V54.5328L75.1408 54.3889L77.04 53.6982V47.4251L75.1695 47.1805V43.526H62.5368L62.6376 38.6916L63.0261 37.8571L63.2994 37.2672V34.8931L63.9613 32.9652L64.1195 32.5191V25.1237L61.9038 24.6057L58.9111 23.9007V23.1669L57.2277 22.39L55.458 21.5842L48.1201 7.42644L47.3143 5.88691L47.2424 5.82935Z" fill="white"/>
<path d="M61.1704 27.4257H48.8543V26.5624C48.8505 25.7292 48.5168 24.9314 47.9263 24.3436C47.3358 23.7558 46.5365 23.4258 45.7033 23.4258V23.4258C45.6481 22.128 45.1031 20.8992 44.1782 19.9871C43.4156 19.3828 42.5955 18.9368 41.9912 18.5483C41.736 18.344 41.4189 18.2327 41.092 18.2327C40.7651 18.2327 40.4479 18.344 40.1927 18.5483C39.5884 18.9943 38.7539 19.4403 38.0057 19.9871C37.0808 20.8992 36.5358 22.128 36.4806 23.4258V23.4258C35.6474 23.4258 34.8481 23.7558 34.2576 24.3436C33.6671 24.9314 33.3334 25.7292 33.3296 26.5624V27.4257H21.0566" stroke="white" stroke-width="2.8776" stroke-miterlimit="10"/>
<path d="M60.9817 46.4036V47.5402V49.425H61.9889V50.8063L60.9817 53.3818V74.9638" stroke="white" stroke-width="2.8776" stroke-miterlimit="10"/>
<path d="M41.1391 64.4749C43.354 64.4761 45.5511 64.8707 47.6281 65.6403V74.9638H34.6789V65.6403C36.7603 64.869 38.9625 64.4744 41.1823 64.4749H41.1391ZM41.1823 61.5973C38.6242 61.5982 36.0865 62.0512 33.6861 62.9354L31.8013 63.6404V77.8414H50.5057V63.6404L48.6208 62.9354C46.2257 62.0503 43.6925 61.5972 41.1391 61.5973H41.1823Z" fill="white"/>
</svg>
