<svg width="82" height="83" viewBox="0 0 82 83" fill="none" xmlns="http://www.w3.org/2000/svg">
<path d="M14.3013 63.0103V74.7638" stroke="white" stroke-width="3.26487" stroke-miterlimit="10"/>
<path d="M54.98 74.7638V64.6427" stroke="white" stroke-width="3.26487" stroke-miterlimit="10"/>
<path d="M0 74.7638H73.0187" stroke="white" stroke-width="3.26487" stroke-miterlimit="10"/>
<path d="M72.595 74.7638C73.9473 74.7665 75.2727 74.3857 76.4173 73.6656C77.5619 72.9454 78.4789 71.9154 79.0617 70.6951C79.6445 69.4748 79.8693 68.1142 79.71 66.7713C79.5506 65.4284 79.0137 64.1582 78.1616 63.1082" stroke="white" stroke-width="3.26487" stroke-miterlimit="10"/>
<path d="M17.9726 56.448V61.3453H10.6267V56.448H17.9726ZM21.2375 53.1831H7.36182V64.6101H21.2375V53.1831Z" fill="white"/>
<path d="M34.6218 8.71549C35.9115 18.5101 38.1806 30.786 41.8372 35.1609C47.2732 41.6907 52.9214 44.5637 66.0462 47.649C72.9514 49.2815 73.1309 52.8075 73.3921 57.7048V58.7333C73.4258 59.2797 73.3461 59.8273 73.1579 60.3414C72.9696 60.8555 72.677 61.3251 72.2984 61.7206C71.88 62.1654 71.3738 62.5185 70.8118 62.7574C70.2497 62.9962 69.6442 63.1157 69.0336 63.1082H46.5549L22.5092 53.4279L21.9215 53.183H10.4945C10.4713 49.966 11.0642 46.7743 12.2412 43.7802C15.0163 37.7402 14.3797 22.2484 13.7757 15.4248C18.673 13.7924 29.5613 10.2337 34.5729 8.71549H34.6218ZM35.2748 5.20577C35.0428 5.2062 34.812 5.23917 34.5892 5.30371C28.7124 7.03409 10.2333 13.1557 10.2333 13.1557C10.9189 17.5306 11.9963 36.4995 9.28649 42.4252C6.57665 48.351 7.31126 56.4479 7.31126 56.4479H21.2359L45.8693 66.373H69.2294C70.2492 66.3808 71.2598 66.1807 72.1997 65.785C73.1396 65.3893 73.9891 64.8064 74.6963 64.0717C75.4035 63.3369 75.9537 62.4659 76.3132 61.5116C76.6728 60.5573 76.8342 59.5398 76.7876 58.521C76.4774 53.4279 76.7876 46.8001 66.8787 44.4658C53.5581 41.3315 48.922 38.4747 44.4328 33.0387C40.8577 28.7781 38.6213 13.5965 37.8214 7.34425C37.7499 6.75259 37.4651 6.20732 37.0203 5.81063C36.5755 5.41395 36.0014 5.19309 35.4054 5.18945L35.2748 5.20577Z" fill="white"/>
<path d="M28.7129 18.5101L36.2384 16.29" stroke="white" stroke-width="3.26487" stroke-miterlimit="10"/>
<path d="M30.1011 24.1256L37.6266 21.9055" stroke="white" stroke-width="3.26487" stroke-miterlimit="10"/>
<path d="M31.6392 29.5291L39.1647 27.309" stroke="white" stroke-width="3.26487" stroke-miterlimit="10"/>
</svg>
