<svg width="237" height="348" viewBox="0 0 237 348" fill="none" xmlns="http://www.w3.org/2000/svg">
<g clip-path="url(#clip0_251_79920)">
<path d="M203.967 130.037H-81.7957V347.388H203.967V130.037Z" fill="#057191"/>
<path d="M234.606 66.614H-112.443V148.566H234.606V66.614Z" fill="#057191"/>
<path d="M130.567 0.339661C84.959 0.339661 60.7297 66.6138 60.7297 66.6138H130.567C149.095 66.6138 164.06 51.6487 164.06 33.1204C164.06 15.3048 149.095 0.339661 130.567 0.339661Z" fill="#E6362C"/>
<path d="M-8.39822 0.339722C37.2098 0.339722 61.4391 66.6139 61.4391 66.6139H-8.39822C-26.9265 66.6139 -41.8916 51.6487 -41.8916 33.1205C-41.179 15.3049 -26.9265 0.339722 -8.39822 0.339722Z" fill="#E6362C"/>
<mask id="mask0_251_79920" style="mask-type:alpha" maskUnits="userSpaceOnUse" x="-82" y="130" width="286" height="218">
<path d="M203.967 130.037H-81.7957V347.388H203.967V130.037Z" fill="#057191"/>
</mask>
<g mask="url(#mask0_251_79920)">
<path d="M-112.446 293.227L-73.9639 307.48L-35.4822 293.227L2.9996 307.48L42.194 293.227L80.6757 307.48L119.158 293.227L157.639 307.48L196.121 293.227L234.603 307.48" stroke="white" stroke-width="14.8064" stroke-miterlimit="10"/>
<path d="M-112.446 241.206L-73.9639 254.746L-35.4822 241.206L2.9996 254.746L42.194 241.206L80.6757 254.746L119.158 241.206L157.639 254.746L196.121 241.206L234.603 254.746" stroke="white" stroke-width="14.8064" stroke-miterlimit="10"/>
<path d="M-112.445 188.472L-73.9631 202.012L-35.4813 188.472L3.00046 202.012L42.1948 188.472L80.6766 202.012L119.158 188.472L157.64 202.012L196.122 188.472L234.604 202.012" stroke="white" stroke-width="14.8064" stroke-miterlimit="10"/>
</g>
<path d="M203.967 148.566H-81.7957V167.807H203.967V148.566Z" fill="#05657B"/>
<path d="M61.4408 66.614V347.388" stroke="#E6362C" stroke-width="14.8064" stroke-miterlimit="10"/>
</g>
<defs>
<clipPath id="clip0_251_79920">
<rect width="351.324" height="347.048" fill="white" transform="translate(-114.588 0.339355)"/>
</clipPath>
</defs>
</svg>
