<svg width="18" height="24" viewBox="0 0 18 24" fill="none" xmlns="http://www.w3.org/2000/svg">
<path fill-rule="evenodd" clip-rule="evenodd" d="M14.736 12.8391C15.513 11.2935 15.8794 10.1002 15.8794 9.34875C15.8794 5.53716 12.8389 2.49073 9.14148 2.49073C5.44408 2.49073 2.40358 5.53716 2.40358 9.34875C2.40358 10.1002 2.76999 11.2935 3.54692 12.8391C4.29429 14.3259 5.30984 15.9249 6.35414 17.4175C7.35837 18.8529 8.36609 20.1573 9.14148 21.1242C9.91687 20.1573 10.9246 18.8529 11.9288 17.4175C12.9731 15.9249 13.9887 14.3259 14.736 12.8391ZM10.3234 22.5597C12.6717 19.6604 17.7004 13.0229 17.7004 9.34875C17.7004 4.55543 13.8685 0.669678 9.14148 0.669678C4.4145 0.669678 0.58252 4.55543 0.58252 9.34875C0.58252 13.0229 5.61123 19.6604 7.95954 22.5597C8.67487 23.4429 9.14148 23.9792 9.14148 23.9792C9.14148 23.9792 9.6081 23.4429 10.3234 22.5597Z" fill="white"/>
<path fill-rule="evenodd" clip-rule="evenodd" d="M9.14174 10.5033C9.64461 10.5033 10.0523 10.0956 10.0523 9.59273C10.0523 9.08986 9.64461 8.6822 9.14174 8.6822C8.63887 8.6822 8.23121 9.08986 8.23121 9.59273C8.23121 10.0956 8.63887 10.5033 9.14174 10.5033ZM9.14174 12.3243C10.6504 12.3243 11.8733 11.1013 11.8733 9.59273C11.8733 8.08412 10.6504 6.86115 9.14174 6.86115C7.63313 6.86115 6.41016 8.08412 6.41016 9.59273C6.41016 11.1013 7.63313 12.3243 9.14174 12.3243Z" fill="white"/>
</svg>
