<svg xmlns="http://www.w3.org/2000/svg" width="31" height="41" viewBox="0 0 31 41" fill="none">
<circle cx="15.2154" cy="15.0704" r="9.92121" fill="white"/>
<path fill-rule="evenodd" clip-rule="evenodd" d="M30.0637 15.3823C30.0637 21.7564 21.3396 33.2716 17.2656 38.3015C16.0246 39.8337 15.2151 40.7641 15.2151 40.7641C15.2151 40.7641 14.4055 39.8337 13.1645 38.3015C9.09056 33.2716 0.366455 21.7564 0.366455 15.3823C0.366455 7.06656 7.0144 0.325317 15.2151 0.325317C23.4157 0.325317 30.0637 7.06656 30.0637 15.3823ZM23.199 14.4613C23.199 18.8707 19.6245 22.4452 15.2151 22.4452C10.8057 22.4452 7.2312 18.8707 7.2312 14.4613C7.2312 10.0519 10.8057 6.47743 15.2151 6.47743C19.6245 6.47743 23.199 10.0519 23.199 14.4613Z" fill="#00A5C8"/>
</svg>