<svg width="312" height="117" viewBox="0 0 312 117" fill="none" xmlns="http://www.w3.org/2000/svg">
<path d="M87.267 79.4408L75.9202 63.9318C76.8073 63.3577 77.5366 62.5707 78.0415 61.6424C78.5465 60.7142 78.811 59.6743 78.811 58.6176C78.811 57.561 78.5465 56.5211 78.0415 55.5929C77.5366 54.6646 76.8073 53.8776 75.9202 53.3035L87.267 37.7945L68.3267 39.8632C68.2432 38.7701 67.9107 37.7107 67.3546 36.7659C66.7985 35.8212 66.0336 35.0163 65.1184 34.4127C64.2221 33.8988 63.2032 33.6376 62.1702 33.6571C61.035 33.6766 59.9133 33.9076 58.8628 34.3384L51.2074 16.9961L43.5644 34.3384C42.5139 33.9076 41.3922 33.6766 40.257 33.6571C39.224 33.6376 38.2051 33.8988 37.3088 34.4127C36.3936 35.0163 35.6287 35.8212 35.0726 36.7659C34.5165 37.7107 34.184 38.7701 34.1004 39.8632L15.1602 37.7945L26.507 53.3035C25.6199 53.8776 24.8906 54.6646 24.3856 55.5929C23.8807 56.5211 23.6162 57.561 23.6162 58.6176C23.6162 59.6743 23.8807 60.7142 24.3856 61.6424C24.8906 62.5707 25.6199 63.3577 26.507 63.9318L15.1602 79.4408L34.1004 77.3721C34.184 78.4652 34.5165 79.5246 35.0726 80.4694C35.6287 81.4141 36.3936 82.219 37.3088 82.8226C38.2051 83.3365 39.224 83.5976 40.257 83.5782C41.3922 83.5587 42.5139 83.3277 43.5644 82.8969L51.2074 100.239L58.8628 82.8969C59.9133 83.3277 61.035 83.5587 62.1702 83.5782C63.2032 83.5976 64.2221 83.3365 65.1184 82.8226C66.0336 82.219 66.7985 81.4141 67.3546 80.4694C67.9107 79.5246 68.2432 78.4652 68.3267 77.3721L87.267 79.4408ZM82.4855 76.6536L68.4754 75.13C68.3981 72.5846 67.887 70.071 66.9641 67.6976C69.4656 67.297 71.8768 66.4583 74.0869 65.2201L82.4855 76.6536ZM57.7108 79.8496C55.7353 78.5984 53.9918 77.0141 52.5576 75.1672C53.1027 74.3992 53.6105 73.594 54.106 72.7516C55.0328 71.1465 55.8082 69.4587 56.4225 67.71C58.1449 68.0077 59.8896 68.1569 61.6376 68.1559C62.6657 68.1559 63.6691 68.1559 64.6477 68.0073C65.5547 70.1925 66.0745 72.5188 66.1837 74.8823L61.811 74.4115L60.1882 74.2257L59.5317 75.7246L57.7108 79.8496ZM42.8459 75.7246L42.1894 74.2257L40.5666 74.4115L36.1939 74.8823C36.3003 72.5104 36.8201 70.1754 37.7299 67.9825C38.7085 68.0692 39.7119 68.1311 40.7401 68.1311C42.488 68.1322 44.2328 67.983 45.9551 67.6852C46.5694 69.4339 47.3449 71.1217 48.2716 72.7269C48.7671 73.5692 49.275 74.3744 49.82 75.1424C48.3858 76.9893 46.6423 78.5736 44.6669 79.8248L42.8459 75.7246ZM50.204 71.6368C49.345 70.1506 48.6275 68.5871 48.061 66.9667L47.4416 65.1706L45.5711 65.505C43.9766 65.7897 42.3598 65.9307 40.7401 65.9262C40.034 65.9262 39.3527 65.9262 38.6838 65.8519C38.9439 65.3316 39.2164 64.8237 39.5137 64.3034C40.3831 62.7938 41.3952 61.371 42.5362 60.0546L43.775 58.5929L42.5362 57.1312C41.3922 55.8231 40.376 54.4086 39.5013 52.9071C39.204 52.3868 38.9315 51.8789 38.6714 51.3587C39.3403 51.3587 40.0216 51.2843 40.7277 51.2843C42.3474 51.2798 43.9642 51.4208 45.5588 51.7055L47.4292 52.04L48.0486 50.2438C48.6151 48.6234 49.3326 47.0599 50.1916 45.5738C50.5261 45.0039 50.8605 44.4713 51.195 43.9634C51.5419 44.4713 51.8763 45.0039 52.2108 45.5738C53.0691 47.062 53.7905 48.6251 54.3662 50.2438L54.9855 52.04L56.8436 51.7055C58.4381 51.4202 60.055 51.2793 61.6747 51.2843C62.3808 51.2843 63.0621 51.2843 63.731 51.3587C63.4709 51.8789 63.1984 52.3868 62.9011 52.9071C62.0278 54.4142 61.0159 55.8366 59.8785 57.1559L58.6398 58.6176L59.8785 60.0794C61.0159 61.3987 62.0278 62.8211 62.9011 64.3282C63.1984 64.8485 63.4709 65.3564 63.731 65.8766C63.0621 65.8766 62.3808 65.951 61.6747 65.951C60.0542 65.9478 58.4373 65.7986 56.8436 65.505L54.9731 65.1706L54.3662 66.9915C53.7965 68.6225 53.0792 70.1981 52.2232 71.6987C51.8887 72.2685 51.5542 72.8012 51.2074 73.3091C50.8729 72.764 50.5385 72.2314 50.204 71.6987V71.6368ZM32.1928 57.3046L29.7153 53.8485C31.7918 52.7193 34.0526 51.9685 36.3921 51.6312C36.7637 52.424 37.1725 53.2291 37.6308 54.0219C38.5718 55.6547 39.6669 57.1936 40.9011 58.6176C39.6669 60.0417 38.5718 61.5806 37.6308 63.2134C37.1725 64.0062 36.7637 64.8113 36.3921 65.6041C34.0526 65.2668 31.7918 64.516 29.7153 63.3868L32.1928 59.9307L33.159 58.6176L32.1928 57.3046ZM36.1939 42.3283L40.5666 42.799L42.1894 42.9848L42.8459 41.4859L44.6669 37.3609C46.6423 38.6122 48.3858 40.1964 49.82 42.0433C49.275 42.8114 48.7671 43.6165 48.2716 44.5208C47.3449 46.126 46.5694 47.8138 45.9551 49.5625C44.2346 49.2439 42.4898 49.074 40.7401 49.0546C39.7119 49.0546 38.7085 49.0546 37.7299 49.2032C36.8229 47.0181 36.3032 44.6917 36.1939 42.3283V42.3283ZM59.5812 41.4859L60.2378 42.9848L61.8605 42.799L66.2333 42.3283C66.124 44.6917 65.6042 47.0181 64.6972 49.2032C63.7186 49.1165 62.7153 49.0546 61.6871 49.0546C59.9392 49.0536 58.1944 49.2028 56.472 49.5005C55.8585 47.7476 55.083 46.0556 54.1556 44.4465C53.6601 43.6042 53.1522 42.799 52.6072 41.969C54.0413 40.1221 55.7849 38.5378 57.7603 37.2866L59.5812 41.4859ZM70.2344 59.9307L72.7119 63.3868C70.6353 64.516 68.3745 65.2668 66.0351 65.6041C65.6511 64.8113 65.2547 64.0062 64.7963 63.2134C63.8554 61.5806 62.7603 60.0417 61.5261 58.6176C62.7603 57.1936 63.8554 55.6547 64.7963 54.0219C65.2547 53.2291 65.6511 52.424 66.0351 51.6312C68.3745 51.9685 70.6353 52.7193 72.7119 53.8485L70.2344 57.3046L69.231 58.6176L70.2344 59.9307ZM76.5767 58.6176C76.5085 59.306 76.2969 59.9724 75.9555 60.5741C75.6142 61.1757 75.1506 61.6992 74.5947 62.1109L72.0306 58.6176L74.5947 55.1244C75.1506 55.5361 75.6142 56.0596 75.9555 56.6612C76.2969 57.2628 76.5085 57.9293 76.5767 58.6176V58.6176ZM82.4855 40.5569L74.0869 52.04C71.8768 50.8017 69.4656 49.9631 66.9641 49.5625C67.887 47.189 68.3981 44.6755 68.4754 42.1301L82.4855 40.5569ZM62.1702 35.8868C62.8116 35.8702 63.4454 36.0286 64.0035 36.3452C64.6029 36.774 65.1009 37.3289 65.4626 37.971C65.8243 38.613 66.0409 39.3266 66.097 40.0614L61.6252 40.5569L59.7671 36.3452C60.5343 36.0499 61.3482 35.8947 62.1702 35.8868ZM51.2074 22.5085L56.8436 35.317C54.6914 36.6337 52.7809 38.3096 51.195 40.272C49.6162 38.3075 47.7093 36.6311 45.5588 35.317L51.2074 22.5085ZM38.4236 36.3452C38.9817 36.0286 39.6156 35.8702 40.257 35.8868C41.0812 35.9065 41.8953 36.0744 42.6601 36.3823L40.802 40.594L36.3302 40.0985C36.381 39.3573 36.595 38.6365 36.9569 37.9876C37.3188 37.3387 37.8197 36.7779 38.4236 36.3452V36.3452ZM19.9417 40.5569L33.9518 42.0805C34.0304 44.6246 34.5371 47.1372 35.4507 49.5129C32.9536 49.9154 30.5468 50.754 28.3403 51.9904L19.9417 40.5569ZM25.8752 58.6176C25.9435 57.9293 26.1551 57.2628 26.4964 56.6612C26.8378 56.0596 27.3013 55.5361 27.8572 55.1244L30.4214 58.6176L27.8572 62.1109C27.3013 61.6992 26.8378 61.1757 26.4964 60.5741C26.1551 59.9724 25.9435 59.306 25.8752 58.6176V58.6176ZM19.9417 76.6536L28.3527 65.1953C30.5592 66.4317 32.966 67.2703 35.463 67.6728C34.5495 70.0485 34.0428 72.5611 33.9642 75.1052L19.9417 76.6536ZM40.257 81.3237C39.6156 81.3403 38.9817 81.1819 38.4236 80.8654C37.8243 80.4366 37.3262 79.8816 36.9645 79.2395C36.6028 78.5975 36.3863 77.8839 36.3302 77.1491L40.802 76.6536L42.6601 80.8654C41.8945 81.169 41.0805 81.3327 40.257 81.3485V81.3237ZM51.2074 94.702L45.5711 81.9183C47.7217 80.6042 49.6286 78.9278 51.2074 76.9633C52.7933 78.9257 54.7038 80.6016 56.856 81.9183L51.2074 94.702ZM64.0035 80.8654C63.4454 81.1819 62.8116 81.3403 62.1702 81.3237C61.3459 81.304 60.5319 81.1361 59.7671 80.8282L61.6252 76.6165L66.097 77.112C66.0498 77.8575 65.8374 78.5832 65.4754 79.2366C65.1133 79.89 64.6106 80.4548 64.0035 80.8901V80.8654Z" fill="white"/>
<path d="M55.8282 55.9563L51.2077 53.293L46.5996 55.9563V61.2828L51.2077 63.9461L55.8282 61.2828V55.9563ZM53.5985 59.9945L51.2077 61.3695L48.8293 59.9945V57.2445L51.2077 55.8695L53.5985 57.2445V59.9945Z" fill="white"/>
<path d="M51.2329 15.4091L52.2735 12.7582C54.3669 7.28296 54.85 3.66585 53.5989 1.83252C53.3308 1.45665 52.9768 1.15027 52.5663 0.938869C52.1558 0.727473 51.7008 0.617188 51.2391 0.617188C50.7774 0.617188 50.3224 0.727473 49.9119 0.938869C49.5015 1.15027 49.1474 1.45665 48.8793 1.83252C47.6406 3.66585 48.0741 7.33251 50.2048 12.7582L51.2329 15.4091ZM50.7127 3.09604C50.7676 3.01025 50.8454 2.94158 50.9374 2.89779C51.0293 2.854 51.1317 2.83685 51.2329 2.84829C51.3358 2.83732 51.4398 2.85458 51.5336 2.89823C51.6275 2.94188 51.7077 3.01026 51.7656 3.09604C51.9266 3.34378 52.5708 4.65685 51.2329 8.99242C49.9075 4.65685 50.5516 3.34378 50.7127 3.09604V3.09604Z" fill="white"/>
<path d="M51.2315 101.824L50.2034 104.475C48.0728 109.901 47.6268 113.567 48.8779 115.401C49.1461 115.777 49.5001 116.083 49.9105 116.294C50.321 116.506 50.776 116.616 51.2377 116.616C51.6994 116.616 52.1545 116.506 52.5649 116.294C52.9754 116.083 53.3294 115.777 53.5975 115.401C54.8363 113.567 54.4027 109.901 52.2721 104.475L51.2315 101.824ZM51.7642 114.137C51.7063 114.223 51.6261 114.291 51.5323 114.335C51.4384 114.379 51.3345 114.396 51.2315 114.385C51.1303 114.396 51.0279 114.379 50.936 114.336C50.844 114.292 50.7662 114.223 50.7113 114.137C50.5502 113.889 49.9061 112.576 51.2315 108.241C52.5694 112.576 51.8881 113.889 51.7642 114.137Z" fill="white"/>
<path d="M53.8585 11.9076C53.5274 12.7783 53.3554 13.7013 53.3506 14.6328V14.6328C53.3506 14.831 53.3506 15.0168 53.3506 15.215C53.6355 18.9312 56.5713 20.8884 58.9621 22.4988C61.0307 23.8862 62.8145 25.0877 62.8145 26.9582C62.8179 27.2172 62.7692 27.4743 62.6712 27.7141C62.5733 27.9539 62.4281 28.1715 62.2444 28.3541C62.0606 28.5367 61.8421 28.6805 61.6017 28.7769C61.3613 28.8733 61.1039 28.9204 60.8449 28.9154C60.488 28.9124 60.1417 28.7935 59.8581 28.5766C59.5745 28.3597 59.3691 28.0566 59.2727 27.7129C59.1763 27.3692 59.1941 27.0035 59.3235 26.6708C59.4529 26.3381 59.6869 26.0564 59.9902 25.8681L58.8382 23.9605C58.1126 24.3983 57.5504 25.0617 57.2376 25.8493C56.9249 26.637 56.8788 27.5054 57.1064 28.3217C57.334 29.138 57.8228 29.8572 58.4979 30.3694C59.1731 30.8815 59.9975 31.1584 60.8449 31.1575C61.3967 31.1625 61.944 31.0576 62.4549 30.8491C62.9658 30.6406 63.4301 30.3326 63.8209 29.943C64.2117 29.5534 64.5211 29.0899 64.7311 28.5797C64.9411 28.0694 65.0476 27.5224 65.0443 26.9706C65.0443 23.9109 62.5668 22.2634 60.2132 20.6654C58.1445 19.2657 56.1873 17.9402 55.6794 15.7105C55.6794 15.5619 55.6794 15.4008 55.6051 15.2522C55.5923 15.0831 55.5923 14.9133 55.6051 14.7443C55.587 14.051 55.7049 13.3608 55.9519 12.7128C56.1369 12.3046 56.4017 11.9377 56.7308 11.6335C57.0598 11.3294 57.4464 11.0941 57.8678 10.9418C58.2892 10.7894 58.7368 10.7229 59.1843 10.7462C59.6318 10.7695 60.0701 10.8822 60.4733 11.0776C61.1263 11.3757 61.6641 11.8788 62.005 12.5104C62.3458 13.1421 62.4711 13.8678 62.3617 14.5772C62.2524 15.2866 61.9144 15.9409 61.3991 16.4406C60.8839 16.9403 60.2195 17.2581 59.5071 17.3456L59.7301 19.6745C60.6735 19.5617 61.5721 19.2086 62.3399 18.649C63.1077 18.0894 63.719 17.342 64.1152 16.4785C64.7189 15.1446 64.7683 13.6255 64.2527 12.2552C63.737 10.8848 62.6985 9.77512 61.3652 9.16997C60.6918 8.85471 59.9624 8.67643 59.2195 8.64549C58.4766 8.61454 57.7349 8.73156 57.0376 8.98974C56.3403 9.24791 55.7013 9.6421 55.1576 10.1494C54.614 10.6567 54.1766 11.2669 53.8709 11.9447L53.8585 11.9076Z" fill="white"/>
<path d="M42.2149 20.6988C39.8366 22.2968 37.3839 23.9443 37.3839 27.0039C37.3806 27.5558 37.487 28.1027 37.697 28.613C37.907 29.1233 38.2164 29.5867 38.6072 29.9763C38.998 30.3659 39.4623 30.674 39.9732 30.8825C40.4841 31.091 41.0314 31.1958 41.5832 31.1909C42.4296 31.189 43.2521 30.9102 43.9252 30.3971C44.5983 29.884 45.085 29.1647 45.311 28.349C45.5371 27.5334 45.49 26.6662 45.177 25.8798C44.864 25.0934 44.3023 24.4311 43.5775 23.9938L42.4255 25.8643C42.6744 26.0138 42.8791 26.2268 43.0184 26.4815C43.1577 26.7362 43.2267 27.0234 43.2183 27.3136C43.2151 27.7496 43.0405 28.1668 42.7322 28.475C42.4239 28.7833 42.0067 28.9579 41.5708 28.9612C41.3118 28.9662 41.0545 28.919 40.8141 28.8226C40.5737 28.7262 40.3551 28.5824 40.1714 28.3998C39.9876 28.2172 39.8425 27.9996 39.7445 27.7598C39.6466 27.52 39.5978 27.263 39.6012 27.0039C39.6012 25.1335 41.385 23.9319 43.4537 22.5445C45.8444 20.9341 48.7802 18.9522 49.0651 15.2607C49.0779 15.0669 49.0779 14.8724 49.0651 14.6785V14.6785C49.0604 13.747 48.8884 12.824 48.5573 11.9533V11.9533C48.2449 11.2439 47.7868 10.6082 47.2128 10.0875C46.6387 9.56678 45.9614 9.17267 45.2251 8.93079C43.8538 8.50371 42.3738 8.5918 41.0629 9.17853C39.7377 9.77981 38.7017 10.8775 38.1781 12.2353C37.6545 13.593 37.6851 15.1021 38.2634 16.4375C38.6537 17.3183 39.2691 18.0807 40.0475 18.6483C40.826 19.2158 41.7401 19.5684 42.698 19.6706L42.9582 17.4657C42.2313 17.3936 41.549 17.0821 41.0184 16.58C40.4879 16.078 40.1392 15.4139 40.0271 14.6921C39.9151 13.9703 40.0461 13.2317 40.3995 12.5925C40.7529 11.9532 41.3087 11.4495 41.9796 11.1605C42.7864 10.7971 43.6978 10.7399 44.5438 10.9995C44.981 11.1451 45.3824 11.3816 45.7219 11.6932C46.0613 12.0049 46.331 12.3848 46.5134 12.808C46.7613 13.4515 46.8792 14.1378 46.8602 14.8272C46.873 14.9962 46.873 15.166 46.8602 15.3351C46.8602 15.4837 46.8602 15.6447 46.7859 15.7934C46.2408 17.9736 44.2836 19.299 42.2149 20.6988Z" fill="white"/>
<path d="M48.5683 105.33C48.8994 104.459 49.0714 103.536 49.0762 102.604V102.604C49.0889 102.411 49.0889 102.216 49.0762 102.022V102.022C48.7913 98.306 45.8555 96.3488 43.4647 94.7384C41.396 93.351 39.6122 92.1494 39.6122 90.279C39.6089 90.02 39.6576 89.7629 39.7555 89.5231C39.8535 89.2833 39.9986 89.0657 40.1824 88.8831C40.3661 88.7005 40.5847 88.5567 40.8251 88.4603C41.0655 88.3639 41.3228 88.3167 41.5818 88.3217C42.0072 88.3278 42.4141 88.497 42.7184 88.7943C43.0226 89.0917 43.2011 89.4946 43.217 89.9197C43.2175 90.2049 43.1435 90.4852 43.0023 90.7329C42.861 90.9807 42.6575 91.1871 42.4118 91.3319L43.5638 93.2395C44.2918 92.8056 44.857 92.1444 45.1723 91.3577C45.4877 90.5711 45.5357 89.7026 45.309 88.8859C45.0823 88.0693 44.5935 87.3498 43.9178 86.8383C43.2421 86.3267 42.4169 86.0515 41.5694 86.0549C41.015 86.0498 40.4653 86.1559 39.9526 86.3669C39.4399 86.5778 38.9746 86.8894 38.5843 87.2831C38.194 87.6769 37.8866 88.1449 37.6802 88.6594C37.4738 89.1739 37.3726 89.7246 37.3825 90.279C37.3825 93.3386 39.86 94.9861 42.2136 96.5841C44.2823 97.9839 46.2395 99.3093 46.7473 101.539C46.7473 101.688 46.7474 101.849 46.8217 101.997C46.8345 102.166 46.8345 102.336 46.8217 102.505C46.8407 103.195 46.7228 103.881 46.4748 104.524C46.2925 104.948 46.0228 105.328 45.6833 105.639C45.3439 105.951 44.9424 106.187 44.5052 106.333C43.6631 106.589 42.7566 106.532 41.9534 106.172C41.3005 105.874 40.7627 105.371 40.4218 104.739C40.0809 104.107 39.9557 103.382 40.065 102.672C40.1744 101.963 40.5124 101.309 41.0276 100.809C41.5429 100.309 42.2072 99.9915 42.9197 99.9039L42.6595 97.699C41.4598 97.8359 40.3382 98.363 39.4671 99.1993C38.596 100.036 38.0236 101.135 37.8379 102.328C37.6522 103.521 37.8633 104.742 38.439 105.804C39.0147 106.865 39.923 107.708 41.0244 108.203C42.3333 108.798 43.8163 108.886 45.1865 108.451C45.9229 108.209 46.6001 107.815 47.1742 107.294C47.7483 106.774 48.2064 106.138 48.5187 105.429L48.5683 105.33Z" fill="white"/>
<path d="M60.2132 96.5347C62.5916 94.9367 65.0443 93.2892 65.0443 90.2295C65.0476 89.6783 64.9411 89.1319 64.7309 88.6223C64.5207 88.1127 64.2111 87.6501 63.8202 87.2615C63.4293 86.8728 62.9648 86.566 62.454 86.3588C61.9431 86.1517 61.3961 86.0484 60.8449 86.055C59.8188 86.055 58.8345 86.4618 58.1077 87.1862C57.3809 87.9107 56.971 88.8937 56.9677 89.9198C56.9709 90.5867 57.1444 91.2417 57.4717 91.8227C57.7991 92.4037 58.2694 92.8915 58.8382 93.2397L59.9902 91.332C59.681 91.1462 59.4413 90.864 59.308 90.5289C59.1746 90.1937 59.155 89.824 59.252 89.4766C59.3491 89.1291 59.5575 88.8232 59.8452 88.6056C60.133 88.3881 60.4842 88.271 60.8449 88.2723C61.1082 88.2671 61.3698 88.3157 61.6136 88.4151C61.8573 88.5146 62.0782 88.6628 62.2627 88.8508C62.4471 89.0387 62.5912 89.2623 62.6861 89.5079C62.781 89.7535 62.8247 90.016 62.8145 90.2791C62.8145 92.1496 61.0307 93.3511 58.9621 94.7385C56.5713 96.3489 53.6355 98.3309 53.3506 102.022C53.3506 102.22 53.3506 102.406 53.3506 102.605C53.354 103.536 53.5261 104.459 53.8585 105.33C54.1708 106.039 54.6289 106.675 55.203 107.196C55.7771 107.716 56.4543 108.11 57.1907 108.352C57.7517 108.53 58.3364 108.622 58.9249 108.625C59.7787 108.633 60.624 108.455 61.4024 108.104C62.5037 107.609 63.412 106.766 63.9877 105.705C64.5634 104.643 64.7746 103.422 64.5889 102.229C64.4032 101.036 63.8308 99.9366 62.9597 99.1004C62.0886 98.2641 60.967 97.737 59.7672 97.6L59.5071 99.805C60.2195 99.8925 60.8839 100.21 61.3991 100.71C61.9144 101.21 62.2524 101.864 62.3617 102.573C62.4711 103.283 62.3458 104.008 62.005 104.64C61.6641 105.272 61.1263 105.775 60.4733 106.073C59.6701 106.433 58.7636 106.491 57.9215 106.234C57.4836 106.09 57.0814 105.854 56.7418 105.542C56.4022 105.23 56.1329 104.85 55.9519 104.425C55.704 103.782 55.5861 103.096 55.6051 102.406C55.5923 102.237 55.5923 102.067 55.6051 101.898C55.6051 101.75 55.6051 101.589 55.6794 101.44C56.1873 99.2599 58.1445 97.9345 60.2132 96.5347Z" fill="white"/>
<path d="M11.0105 36.5975L13.8224 37.0186L12.051 34.7889C8.42151 30.2427 5.44855 28.0006 3.25599 28.1865C2.79076 28.2097 2.33897 28.3503 1.94264 28.595C1.5463 28.8397 1.21828 29.1807 0.989096 29.5862C0.745615 29.9834 0.60557 30.4353 0.581766 30.9005C0.557963 31.3658 0.651159 31.8296 0.852834 32.2495C1.81905 34.2686 5.22557 35.7799 11.0105 36.5975ZM2.9463 30.7382C2.98885 30.6439 3.0563 30.5629 3.14142 30.5039C3.22653 30.445 3.3261 30.4104 3.42941 30.4038C3.83819 30.4038 5.2999 30.6639 8.22332 33.8103C3.80103 32.7946 2.98346 31.5806 2.85959 31.3328C2.80755 31.2401 2.78447 31.1339 2.7933 31.028C2.80213 30.922 2.84247 30.8211 2.90914 30.7382H2.9463Z" fill="white"/>
<path d="M12.0636 32.9661C12.6481 33.6902 13.3622 34.2992 14.1694 34.7623V34.7623L14.5163 34.9357L14.8012 35.0719C15.7006 35.494 16.6815 35.7139 17.675 35.7161C19.8572 35.5563 21.9748 34.9041 23.8687 33.8084C26.0984 32.7184 28.0309 31.7769 29.6536 32.706C29.8883 32.8353 30.0933 33.0124 30.2554 33.2257C30.4176 33.439 30.5333 33.684 30.5951 33.9447C30.6908 34.4404 30.6074 34.9541 30.3597 35.394C30.1361 35.7667 29.7763 36.0377 29.3563 36.1497C29.15 36.2103 28.9333 36.2273 28.72 36.1996C28.5067 36.1719 28.3016 36.1 28.1176 35.9886C27.8692 35.851 27.6616 35.6503 27.5159 35.4066C27.3701 35.163 27.2914 34.8851 27.2876 34.6012H25.0579C25.0716 35.2696 25.2578 35.9232 25.5986 36.4983C25.9393 37.0735 26.4231 37.5508 27.0027 37.8839C27.585 38.2251 28.2478 38.4048 28.9228 38.4042C29.2657 38.4015 29.607 38.3557 29.9385 38.2679C30.4288 38.1396 30.8884 37.9146 31.2904 37.6061C31.6925 37.2977 32.0288 36.912 32.2797 36.4717C32.8115 35.555 32.9837 34.4734 32.7628 33.4368C32.6259 32.8833 32.3744 32.3646 32.0244 31.9144C31.6745 31.4642 31.2339 31.0924 30.7313 30.8231C28.0804 29.2994 25.4171 30.6001 22.8406 31.8512C20.6108 32.9537 18.4802 33.9819 16.3372 33.3253C16.1882 33.2847 16.0431 33.2308 15.9036 33.1643L15.4453 32.9661C14.8298 32.6297 14.2867 32.1751 13.8473 31.6283C13.579 31.2595 13.3908 30.8386 13.2948 30.3927C13.1988 29.9469 13.1972 29.4858 13.2899 29.0393C13.4887 28.1757 14.0007 27.4166 14.7268 26.9087C15.0799 26.651 15.4811 26.4667 15.9066 26.3667C16.3321 26.2667 16.7734 26.253 17.2043 26.3265C18.067 26.4726 18.8372 26.9534 19.3473 27.6643C19.6669 28.119 19.8653 28.6477 19.9238 29.2004C19.9823 29.753 19.899 30.3115 19.6818 30.8231L21.7257 31.7026C22.2038 30.5959 22.306 29.363 22.0165 28.1927C21.7271 27.0225 21.062 25.9793 20.1231 25.2231C19.1842 24.467 18.0233 24.0394 16.8182 24.006C15.6131 23.9726 14.4303 24.3352 13.4509 25.0382C12.2842 25.8787 11.4648 27.1166 11.1469 28.519C10.9884 29.2779 10.9915 30.0617 11.1558 30.8193C11.3202 31.5769 11.6421 32.2915 12.1007 32.9166L12.0636 32.9661Z" fill="white"/>
<path d="M19.5455 53.1189C19.2904 53.1991 19.0209 53.2229 18.7556 53.1887C18.4904 53.1544 18.2358 53.063 18.0094 52.9207C16.3991 51.9792 16.2504 49.8362 16.077 47.3587C15.8788 44.4849 15.6187 40.9545 12.5838 38.861C12.4351 38.7495 12.2741 38.6504 12.113 38.5513C11.3068 38.0825 10.4206 37.7675 9.4993 37.6223V37.6223C8.75598 37.542 8.00412 37.6111 7.28787 37.8255C6.57163 38.0399 5.90544 38.3952 5.32845 38.8707C4.75145 39.3461 4.27529 39.932 3.92791 40.5941C3.58054 41.2561 3.36897 41.9809 3.30562 42.7259V42.7259C3.23213 43.4478 3.30224 44.1771 3.51189 44.8719C3.72155 45.5666 4.06661 46.213 4.52719 46.7737C4.98778 47.3345 5.55479 47.7986 6.19554 48.1392C6.83628 48.4799 7.53811 48.6903 8.26057 48.7585H8.79322C9.65338 48.7561 10.5013 48.5547 11.2707 48.17C12.04 47.7854 12.7099 47.2279 13.2279 46.5412L11.4441 45.2033C11.1071 45.6604 10.6569 46.0219 10.1378 46.2521C9.61867 46.4823 9.04855 46.5734 8.48354 46.5164C8.04928 46.471 7.62878 46.3378 7.2476 46.1248C6.86643 45.9119 6.53253 45.6237 6.2662 45.2777C5.99141 44.9454 5.78532 44.5619 5.65986 44.1494C5.5344 43.7368 5.49208 43.3035 5.53535 42.8745V42.8745C5.5694 42.4242 5.69331 41.9852 5.89977 41.5835C6.10623 41.1819 6.39105 40.8256 6.73743 40.5358C7.08381 40.246 7.48473 40.0285 7.91653 39.8962C8.34834 39.7638 8.80228 39.7193 9.25156 39.7653C9.93667 39.8754 10.5933 40.1195 11.184 40.4838C11.3231 40.5686 11.4556 40.6639 11.5804 40.7687L11.952 41.0783C13.5871 42.6144 13.7606 44.968 13.934 47.4455C14.1322 50.3069 14.3428 53.2675 16.9813 54.7912C17.6243 55.167 18.3547 55.3678 19.0995 55.3734C19.5207 55.378 19.9395 55.311 20.3382 55.1752C21.3484 54.852 22.2012 54.1627 22.729 53.2427V53.2427C23.2382 52.3529 23.3755 51.298 23.1111 50.3075C22.8466 49.317 22.2018 48.4709 21.3168 47.9533C20.7337 47.6279 20.077 47.457 19.4092 47.457C18.7414 47.457 18.0847 47.6279 17.5015 47.9533L18.443 49.8734C18.6602 49.7517 18.9024 49.6813 19.151 49.6674C19.3996 49.6536 19.6481 49.6967 19.8775 49.7935C20.107 49.8903 20.3112 50.0382 20.4748 50.2259C20.6384 50.4136 20.7569 50.6362 20.8214 50.8768C20.8798 51.0834 20.8956 51.2997 20.868 51.5126C20.8403 51.7256 20.7696 51.9307 20.6603 52.1155C20.4324 52.5815 20.0328 52.9411 19.5455 53.1189V53.1189Z" fill="white"/>
<path d="M91.4418 80.6523L88.6299 80.2188L90.4137 82.4485C93.9193 86.8336 96.7932 89.0633 98.9733 89.0633H99.2087C99.6711 89.0301 100.118 88.8811 100.507 88.63C100.897 88.3789 101.217 88.0338 101.438 87.6264C101.682 87.2313 101.821 86.7807 101.843 86.317C101.865 85.8532 101.768 85.3916 101.562 84.9755C100.608 82.9687 97.2019 81.5194 91.4418 80.6523ZM99.5184 86.4991C99.4782 86.5952 99.4114 86.6778 99.3258 86.737C99.2401 86.7963 99.1393 86.8298 99.0353 86.8336C98.738 86.8336 97.2886 86.7469 94.1794 83.4271C98.6141 84.4428 99.4317 85.6568 99.5555 85.9046C99.6237 86.0024 99.6571 86.1202 99.6504 86.2392C99.6436 86.3583 99.5971 86.4716 99.5184 86.5611V86.4991Z" fill="white"/>
<path d="M90.2895 84.2703C89.706 83.5499 88.9967 82.9413 88.1961 82.4741V82.4741C88.035 82.375 87.8616 82.3007 87.7006 82.214C84.3684 80.6284 81.1724 82.214 78.5959 83.4527C76.3538 84.5428 74.4213 85.4966 72.7986 84.5552C72.5638 84.4276 72.3592 84.251 72.1989 84.0372C72.0385 83.8234 71.9262 83.5776 71.8695 83.3164C71.7615 82.825 71.8458 82.3108 72.1049 81.8795V81.8795C72.2116 81.694 72.3542 81.5317 72.5243 81.4019C72.6945 81.2722 72.8888 81.1777 73.0959 81.1239C73.3025 81.0654 73.5188 81.0496 73.7318 81.0773C73.9447 81.1049 74.1498 81.1756 74.3346 81.2849C74.579 81.4259 74.7828 81.6279 74.926 81.871C75.0693 82.1141 75.1472 82.3901 75.1522 82.6723H77.3819C77.3883 81.98 77.2104 81.2985 76.8664 80.6977C76.5225 80.0969 76.0249 79.5984 75.4247 79.2534C74.5341 78.7419 73.477 78.6046 72.4854 78.8717C71.4937 79.1388 70.6485 79.7884 70.1353 80.6779V80.6779C69.6038 81.5993 69.4318 82.6846 69.6522 83.7252C69.7783 84.2878 70.021 84.8176 70.3645 85.2806C70.708 85.7436 71.1447 86.1295 71.6466 86.4133C72.4275 86.8717 73.3176 87.1113 74.2231 87.107C76.0987 86.9266 77.9123 86.339 79.5373 85.3851C81.767 84.295 83.8977 83.2669 86.0407 83.911C86.1931 83.9537 86.3421 84.0075 86.4866 84.0721L86.9326 84.2703C87.5435 84.603 88.0824 85.0535 88.5181 85.5957C88.7777 85.9614 88.9619 86.375 89.0601 86.8125C89.1583 87.25 89.1685 87.7027 89.0901 88.1442C89.0117 88.5857 88.8463 89.0072 88.6035 89.3842C88.3607 89.7612 88.0454 90.0861 87.6758 90.3401C87.0911 90.7625 86.3839 90.9813 85.6628 90.963C84.9418 90.9447 84.2466 90.6904 83.684 90.2389C83.1214 89.7874 82.7226 89.1638 82.5486 88.4638C82.3746 87.7638 82.4351 87.026 82.7209 86.3637L80.6769 85.4842C80.3064 86.3575 80.1654 87.311 80.2673 88.2542C80.3692 89.1973 80.7106 90.0987 81.2592 90.8727C82.1198 92.0546 83.4129 92.8481 84.8563 93.0801C86.2998 93.3122 87.7764 92.964 88.9641 92.1115C89.5721 91.6843 90.0894 91.1409 90.4862 90.5127C90.8829 89.8844 91.1513 89.1838 91.2757 88.4512C91.4001 87.7187 91.3781 86.9687 91.2109 86.2447C91.0438 85.5207 90.7348 84.837 90.3019 84.2331L90.2895 84.2703Z" fill="white"/>
<path d="M92.9531 79.6794H93.5353C94.9374 79.6695 96.2855 79.1372 97.3162 78.1866C98.3469 77.236 98.9864 75.9354 99.1096 74.5387V74.5387C99.2207 73.3421 98.9386 72.142 98.3061 71.1203C97.6736 70.0985 96.7252 69.3108 95.6047 68.8766C94.4842 68.4424 93.2527 68.3854 92.0969 68.7142C90.941 69.043 89.9239 69.7397 89.1997 70.6986L90.9959 72.0364C91.2933 71.6351 91.6784 71.307 92.1218 71.0771C92.5652 70.8471 93.0552 70.7214 93.5546 70.7094C94.0539 70.6975 94.5494 70.7997 95.0033 71.0081C95.4572 71.2166 95.8575 71.526 96.1738 71.9126C96.7228 72.587 96.9852 73.4499 96.9046 74.3157V74.3157C96.8706 74.766 96.7467 75.205 96.5402 75.6067C96.3338 76.0083 96.049 76.3646 95.7026 76.6544C95.3562 76.9442 94.9553 77.1617 94.5235 77.294C94.0917 77.4264 93.6377 77.4709 93.1884 77.4249C92.5045 77.3106 91.8486 77.0667 91.256 76.7065L90.8472 76.4216L90.488 76.1243C88.8529 74.6006 88.6794 72.2346 88.506 69.7572C88.3078 66.8957 88.1096 63.9475 85.4587 62.4114C84.9823 62.1333 84.4554 61.9527 83.9085 61.88C83.3616 61.8073 82.8058 61.8441 82.2733 61.9882C81.7407 62.1323 81.2422 62.3808 80.8066 62.7193C80.3709 63.0578 80.007 63.4795 79.7358 63.9599C79.3162 64.6931 79.1475 65.5432 79.2554 66.3811C79.3633 67.2189 79.7419 67.9986 80.3336 68.6015C80.9253 69.2044 81.6978 69.5976 82.5334 69.7212C83.3691 69.8449 84.2223 69.6922 84.9632 69.2864L83.8855 67.3292C83.6388 67.4717 83.359 67.5466 83.0742 67.5466C82.7893 67.5466 82.5095 67.4717 82.2628 67.3292C82.076 67.2215 81.9124 67.078 81.7813 66.9068C81.6503 66.7356 81.5544 66.5402 81.4991 66.3319C81.4438 66.1235 81.4303 65.9062 81.4593 65.6926C81.4884 65.479 81.5593 65.2732 81.6682 65.0871C81.7918 64.8593 81.9602 64.6589 82.1633 64.4979C82.3664 64.3369 82.6 64.2187 82.85 64.1504C83.1 64.0822 83.3612 64.0652 83.618 64.1006C83.8747 64.1359 84.1216 64.2229 84.3439 64.3563C85.9666 65.2977 86.1153 67.4407 86.2763 69.9182C86.4745 72.7921 86.7346 76.3348 89.7695 78.4283C89.9182 78.5398 90.0792 78.6389 90.2403 78.738C91.0496 79.1974 91.9349 79.5079 92.854 79.6547V79.6547L92.9531 79.6794Z" fill="white"/>
<path d="M88.6299 37.0174L91.4418 36.5962C97.2019 35.7167 100.608 34.2674 101.562 32.2854C101.756 31.8651 101.847 31.4045 101.826 30.9421C101.806 30.4796 101.675 30.0289 101.444 29.6274C101.214 29.226 100.891 28.8855 100.502 28.6346C100.113 28.3837 99.6694 28.2296 99.2087 28.1852C97.0161 28.0117 94.0432 30.2415 90.4137 34.7876L88.6299 37.0174ZM98.9609 30.4025C99.0643 30.4091 99.1638 30.4437 99.2489 30.5027C99.334 30.5616 99.4015 30.6426 99.444 30.737C99.498 30.8222 99.5266 30.921 99.5266 31.0219C99.5266 31.1228 99.498 31.2216 99.444 31.3068C99.3202 31.5793 98.5026 32.7933 94.0679 33.7843C97.1152 30.6626 98.5769 30.4025 98.9609 30.4025Z" fill="white"/>
<path d="M13.785 80.2188L10.9731 80.6523C5.22532 81.5194 1.81879 82.9687 0.852577 84.9631C0.663811 85.384 0.577762 85.8437 0.601521 86.3044C0.62528 86.765 0.758167 87.2134 0.989231 87.6126C1.22029 88.0119 1.54292 88.3505 1.93052 88.6005C2.31812 88.8506 2.75959 89.005 3.21856 89.0509H3.45393C5.6341 89.0509 8.50797 86.8212 12.0136 82.4361L13.785 80.2188ZM3.39199 86.8336C3.28792 86.8298 3.18712 86.7963 3.10151 86.737C3.01589 86.6778 2.94904 86.5952 2.90888 86.4991C2.85492 86.4139 2.82628 86.3151 2.82628 86.2142C2.82628 86.1134 2.85492 86.0146 2.90888 85.9293C3.03275 85.6568 3.85032 84.4428 8.27261 83.4519C5.15099 86.7469 3.68928 86.8584 3.39199 86.8336Z" fill="white"/>
<path d="M20.0906 67.3499C19.8439 67.4923 19.5641 67.5673 19.2792 67.5673C18.9944 67.5673 18.7145 67.4923 18.4679 67.3499L17.3902 69.3071C17.9722 69.636 18.6293 69.8088 19.2978 69.8088C19.9663 69.8088 20.6235 69.636 21.2055 69.3071C22.0904 68.7895 22.7352 67.9434 22.9997 66.9529C23.2641 65.9624 23.1268 64.9075 22.6176 64.0177V64.0177C22.0898 63.0977 21.237 62.4084 20.2269 62.0852C19.6761 61.9084 19.0939 61.8511 18.5193 61.9173C17.9446 61.9836 17.3907 62.1717 16.8947 62.4693C14.2562 64.0053 14.0456 66.9535 13.8474 69.815C13.6739 72.2924 13.5005 74.6584 11.8654 76.1821C11.7513 76.2878 11.6314 76.3871 11.5062 76.4794L11.0974 76.7767C10.5025 77.1296 9.84724 77.369 9.16494 77.4827C8.71535 77.5304 8.26075 77.4872 7.82823 77.3555C7.39571 77.2238 6.99411 77.0065 6.64735 76.7164C6.3006 76.4262 6.01577 76.0693 5.80985 75.6668C5.60393 75.2643 5.48112 74.8245 5.44874 74.3735V74.3735C5.40547 73.9445 5.44779 73.5112 5.57325 73.0987C5.69871 72.6861 5.9048 72.3026 6.17959 71.9704C6.44592 71.6244 6.77982 71.3361 7.161 71.1232C7.54217 70.9102 7.96267 70.777 8.39693 70.7316C8.9617 70.6771 9.531 70.7693 10.0497 70.9993C10.5684 71.2294 11.0188 71.5894 11.3575 72.0447L13.1413 70.7068C12.5708 69.9493 11.8161 69.3501 10.9489 68.9664C10.0816 68.5826 9.13067 68.427 8.18635 68.5143C7.46389 68.5825 6.76206 68.7929 6.12131 69.1336C5.48056 69.4742 4.91356 69.9383 4.45298 70.4991C3.99239 71.0598 3.64733 71.7062 3.43767 72.4009C3.22801 73.0956 3.15791 73.825 3.2314 74.5469C3.34896 75.9436 3.98496 77.2458 5.01428 78.1972C6.0436 79.1485 7.3917 79.6802 8.79332 79.6877H9.37553C10.2946 79.5409 11.1799 79.2305 11.9893 78.771V78.771L12.46 78.4737C15.4949 76.3803 15.755 72.8375 15.9532 69.9636C16.1266 67.4861 16.2753 65.3431 17.8857 64.4017C18.1133 64.2624 18.3678 64.1727 18.6325 64.1385C18.8972 64.1044 19.1661 64.1265 19.4217 64.2035C19.9031 64.3621 20.3089 64.693 20.5613 65.1325V65.1325C20.6706 65.3173 20.7413 65.5224 20.769 65.7354C20.7967 65.9483 20.7808 66.1646 20.7224 66.3713C20.6413 66.7649 20.4159 67.1139 20.0906 67.3499V67.3499Z" fill="white"/>
<path d="M32.2427 80.6777C31.9909 80.2365 31.6544 79.8494 31.2524 79.5387C30.8505 79.228 30.391 78.9999 29.9006 78.8675C29.4101 78.7351 28.8983 78.701 28.3946 78.7672C27.8909 78.8334 27.4053 78.9986 26.9657 79.2532C26.3868 79.5872 25.9037 80.0647 25.5631 80.6397C25.2225 81.2146 25.0357 81.8677 25.0209 82.5358H27.2506C27.2547 82.2504 27.3334 81.9709 27.4791 81.7254C27.6247 81.4798 27.832 81.2766 28.0805 81.1361C28.2656 81.0274 28.4707 80.9572 28.6835 80.9295C28.8963 80.9018 29.1126 80.9173 29.3193 80.975C29.5288 81.0307 29.7253 81.1272 29.8975 81.259C30.0697 81.3908 30.2142 81.5553 30.3226 81.743V81.743C30.5705 82.1784 30.654 82.6883 30.558 83.18C30.4977 83.4413 30.3826 83.6869 30.2203 83.9004C30.058 84.1139 29.8522 84.2906 29.6166 84.4187C27.9938 85.3601 26.0614 84.4187 23.8317 83.3162C21.2303 82.0775 18.0468 80.5043 14.7146 82.0775C14.5411 82.1642 14.3677 82.2385 14.2067 82.3376C13.3998 82.8011 12.6858 83.4101 12.1008 84.1338V84.1338C11.6429 84.7592 11.3214 85.4738 11.1571 86.2313C10.9928 86.9888 10.9893 87.7724 11.147 88.5313C11.4649 89.9337 12.2843 91.1717 13.4511 92.0122C14.4304 92.7152 15.6132 93.0777 16.8183 93.0443C18.0234 93.0109 19.1843 92.5834 20.1232 91.8272C21.0621 91.071 21.7272 90.0279 22.0167 88.8576C22.3061 87.6873 22.204 86.4544 21.7258 85.3478L19.6819 86.2273C19.9063 86.7485 19.9923 87.3189 19.9316 87.8832C19.8708 88.4475 19.6653 88.9865 19.3351 89.448C18.8235 90.1545 18.0535 90.6303 17.1928 90.7719C16.332 90.9134 15.4502 90.7092 14.7393 90.2036C14.0242 89.6843 13.5223 88.9226 13.3272 88.0606C13.2344 87.614 13.2361 87.153 13.3321 86.7072C13.4281 86.2613 13.6163 85.8405 13.8846 85.4716C14.3208 84.925 14.8647 84.4739 15.4826 84.1462C15.6421 84.115 15.8035 84.0943 15.9657 84.0843C16.106 84.0198 16.2509 83.9659 16.3992 83.9232C18.5423 83.2791 20.6729 84.3072 22.9026 85.3973C24.5251 86.3568 26.34 86.9448 28.2168 87.1192C29.1224 87.1235 30.0124 86.8839 30.7934 86.4255C31.2966 86.1435 31.7345 85.7582 32.0783 85.2949C32.422 84.8316 32.6638 84.3008 32.7877 83.7374C33.0098 82.7009 32.8375 81.6188 32.3046 80.7025L32.2427 80.6777Z" fill="white"/>
<path d="M99.1215 42.6608C99.0549 41.9171 98.8412 41.1941 98.4928 40.5337C98.1444 39.8732 97.6682 39.2886 97.0919 38.8138C96.5157 38.339 95.8508 37.9834 95.136 37.7677C94.4211 37.5519 93.6705 37.4804 92.9278 37.5573V37.5573C92.0066 37.7024 91.1203 38.0175 90.3141 38.4863C90.153 38.5854 89.992 38.6845 89.8434 38.796C86.8085 40.8895 86.5483 44.4199 86.3501 47.2937C86.1891 49.7712 86.0404 51.9266 84.4177 52.8556C84.196 52.9908 83.9489 53.0792 83.6918 53.1155C83.4347 53.1518 83.1729 53.1353 82.9224 53.0669C82.6719 52.9984 82.438 52.8796 82.235 52.7176C82.032 52.5556 81.8643 52.3539 81.742 52.1248V52.1248C81.634 51.9394 81.5642 51.7344 81.5365 51.5217C81.5089 51.309 81.524 51.0928 81.581 50.8861C81.6418 50.643 81.758 50.4174 81.9205 50.2268C82.0831 50.0362 82.2875 49.8858 82.5179 49.7875C82.7483 49.6891 82.9983 49.6454 83.2484 49.6597C83.4984 49.6741 83.7418 49.7462 83.9594 49.8703L85.0371 47.9131C84.4532 47.5899 83.7968 47.4204 83.1294 47.4204C82.4621 47.4204 81.8056 47.5899 81.2218 47.9131C80.3368 48.4307 79.692 49.2768 79.4275 50.2673C79.1631 51.2578 79.3004 52.3127 79.8096 53.2025V53.2025C80.1784 53.8414 80.7067 54.3737 81.343 54.7472C81.9792 55.1206 82.7014 55.3225 83.4391 55.3331C84.1764 55.3296 84.8993 55.1286 85.5326 54.7509C88.1835 53.2273 88.3817 50.2667 88.5799 47.4052C88.7533 44.9277 88.9267 42.5741 90.5618 41.0381C90.6758 40.9283 90.7957 40.825 90.9211 40.7284L91.3175 40.4435C91.91 40.0833 92.5659 39.8394 93.2499 39.725C93.6989 39.6808 94.1521 39.7265 94.5832 39.8595C95.0143 39.9926 95.4146 40.2102 95.7606 40.4997C96.1066 40.7891 96.3914 41.1447 96.5984 41.5456C96.8054 41.9464 96.9304 42.3845 96.9661 42.8343C97.0466 43.7001 96.7842 44.563 96.2352 45.2374C95.919 45.624 95.5186 45.9333 95.0647 46.1418C94.6109 46.3503 94.1154 46.4525 93.616 46.4405C93.1167 46.4286 92.6266 46.3028 92.1832 46.0729C91.7398 45.8429 91.3548 45.5148 91.0573 45.1135L89.2612 46.4514C89.772 47.1397 90.4369 47.6988 91.2027 48.0839C91.9685 48.4689 92.8139 48.6692 93.6711 48.6687C93.8567 48.6811 94.0429 48.6811 94.2285 48.6687C95.685 48.5246 97.0249 47.8084 97.9539 46.6774C98.8829 45.5463 99.3251 44.0929 99.1834 42.6361L99.1215 42.6608Z" fill="white"/>
<path d="M73.4926 38.5002C74.506 38.4972 75.4779 38.0975 76.2003 37.3867C76.9226 36.6759 77.338 35.7105 77.3574 34.6973H75.1277C75.1255 35.0579 75.0042 35.4076 74.7827 35.6921C74.5611 35.9766 74.2518 36.1799 73.9027 36.2703C73.5537 36.3607 73.1845 36.3333 72.8527 36.1922C72.5209 36.0511 72.245 35.8042 72.068 35.4901C71.8081 35.0545 71.7239 34.5362 71.8326 34.0408C71.8893 33.7796 72.0017 33.5338 72.162 33.32C72.3223 33.1062 72.5269 32.9296 72.7617 32.802C74.3844 31.873 76.3169 32.802 78.559 33.9045C80.4513 35.0037 82.5698 35.6562 84.7527 35.8122C85.7462 35.8099 86.7271 35.5901 87.6265 35.168L87.9115 35.0318L88.2583 34.8583C89.0453 34.3709 89.7343 33.7407 90.2898 33.0002V33.0002C90.7484 32.3752 91.0704 31.6606 91.2347 30.903C91.3991 30.1453 91.4021 29.3616 91.2436 28.6027C90.93 27.2017 90.115 25.9637 88.952 25.1219C87.7614 24.272 86.2825 23.929 84.8394 24.168C84.1221 24.281 83.4346 24.5365 82.8176 24.9195C82.2007 25.3024 81.6666 25.8051 81.247 26.3978C80.6974 27.1736 80.3554 28.0772 80.2535 29.0225C80.1516 29.9678 80.2932 30.9235 80.6648 31.7987L82.7335 30.8201C82.5371 30.3627 82.4472 29.8667 82.4707 29.3696C82.4942 28.8724 82.6304 28.3871 82.8691 27.9503C83.1077 27.5136 83.4426 27.1368 83.8483 26.8485C84.2541 26.5602 84.72 26.3679 85.211 26.2863C85.641 26.2075 86.0826 26.2173 86.5086 26.3153C86.9346 26.4133 87.3361 26.5973 87.6885 26.8561C88.397 27.389 88.8825 28.1659 89.0511 29.0363C89.1438 29.4828 89.1422 29.9438 89.0462 30.3897C88.9502 30.8356 88.762 31.2564 88.4937 31.6252C88.0543 32.172 87.5112 32.6267 86.8957 32.9631L86.4374 33.1613C86.2979 33.2278 86.1528 33.2817 86.0038 33.3223V33.3223C83.8608 33.9788 81.7302 32.9507 79.5004 31.8482C76.9239 30.6095 74.2606 29.2964 71.6097 30.8201C71.106 31.1046 70.6681 31.4922 70.3244 31.9575C69.9808 32.4228 69.7391 32.9554 69.6153 33.5205C69.3945 34.557 69.5666 35.6387 70.0984 36.5554C70.441 37.1513 70.9358 37.6455 71.5322 37.9872C72.1287 38.329 72.8052 38.506 73.4926 38.5002V38.5002Z" fill="white"/>
<path d="M143.704 33.6335V55.9307H139.988V43.8407H126.523V55.9184H122.807V33.6211H126.523V40.5828H139.988V33.6335H143.704Z" fill="white"/>
<path d="M167.76 33.6335V55.9307H164.044V38.254L150.591 55.9184H146.875V33.6211H150.591V51.2111L164.044 33.6335H167.76Z" fill="white"/>
<path d="M197.936 55.9177H193.948L187.37 46.6272H185.574V55.9177H181.858V46.6272H180.062L173.471 55.9177H169.495L177.584 44.5709L169.817 33.6328H173.806L180.384 42.911H181.858V33.6328H185.574V42.911H187.036L193.626 33.6328H197.602L189.872 44.5337L197.936 55.9177Z" fill="white"/>
<path d="M143.704 63.9538V86.2511H139.988V74.1734H126.523V86.2387H122.807V63.9414H126.523V70.9155H139.988V63.9414L143.704 63.9538Z" fill="white"/>
<path d="M171.96 75.1031C171.96 81.5073 166.15 86.71 158.966 86.71C151.781 86.71 146.033 81.5073 146.033 75.1031C146.033 68.6988 151.855 63.4961 159.028 63.4961C166.2 63.4961 171.96 68.6864 171.96 75.1031ZM168.244 75.1031C168.244 70.4826 164.082 66.7416 158.953 66.7416C153.825 66.7416 149.675 70.4578 149.675 75.1031C149.675 79.7483 153.825 83.4521 158.953 83.4521C164.082 83.4521 168.256 79.7112 168.256 75.1031H168.244Z" fill="white"/>
<path d="M194.17 79.1297C194.126 81.2224 193.252 83.2118 191.741 84.6603C190.229 86.1087 188.205 86.8975 186.112 86.8532C184.019 86.8088 182.03 85.9349 180.581 84.4238C179.133 82.9126 178.344 80.888 178.388 78.7952H182.105C182.191 79.6022 182.509 80.3669 183.021 80.9968C183.532 81.6268 184.216 82.095 184.988 82.3447C185.76 82.5945 186.588 82.6152 187.372 82.4042C188.155 82.1933 188.861 81.7598 189.404 81.1561C189.946 80.5525 190.302 79.8046 190.428 79.0029C190.555 78.2012 190.446 77.3801 190.115 76.6389C189.785 75.8977 189.247 75.2682 188.566 74.8264C187.885 74.3847 187.091 74.1497 186.279 74.1499H177.93V86.2152H174.214V63.918H184.433C187.778 63.918 190.478 66.2096 190.478 69.0339C190.503 69.6194 190.383 70.2019 190.132 70.731C190.03 70.9443 189.886 71.1352 189.71 71.2926C189.533 71.45 189.327 71.5707 189.103 71.6477C189.58 71.6475 190.046 71.7899 190.441 72.0565C191.636 72.7974 192.611 73.8434 193.266 75.0867C193.921 76.33 194.233 77.7256 194.17 79.1297ZM186.737 69.0463C186.669 68.4937 186.387 67.9899 185.952 67.6426C185.517 67.2953 184.963 67.1322 184.409 67.1882H177.918V70.9044H184.433C184.981 70.9544 185.527 70.7919 185.958 70.4507C186.389 70.1094 186.673 69.6155 186.75 69.0711L186.737 69.0463Z" fill="white"/>
<path d="M244.6 33.6335V55.9307H240.883V38.254L227.418 55.9184H223.702V33.6211H227.418V51.2111L240.883 33.6335H244.6Z" fill="white"/>
<path d="M220.543 33.6335V55.9307H216.827V43.8407H203.362V55.9184H199.646V33.6211H203.362V40.5828H216.827V33.6335H220.543Z" fill="white"/>
<path d="M212.541 63.9538V67.2117H200.005V86.2387H196.289V63.9414L212.541 63.9538Z" fill="white"/>
<path d="M238.244 75.1031C238.244 81.5073 232.422 86.71 225.25 86.71C218.078 86.71 212.243 81.5073 212.243 75.1031C212.243 68.6988 218.065 63.4961 225.25 63.4961C232.435 63.4961 238.244 68.6864 238.244 75.1031ZM234.528 75.1031C234.528 70.4826 230.366 66.7416 225.25 66.7416C220.134 66.7416 215.959 70.4578 215.959 75.1031C215.959 79.7483 220.122 83.4521 225.25 83.4521C230.378 83.4521 234.528 79.7112 234.528 75.1031Z" fill="white"/>
<path d="M260.455 71.8569C260.455 73.9497 259.623 75.9567 258.144 77.4365C256.664 78.9163 254.657 79.7477 252.564 79.7477C250.471 79.7477 248.464 78.9163 246.984 77.4365C245.505 75.9567 244.673 73.9497 244.673 71.8569H248.389C248.476 72.6639 248.794 73.4286 249.306 74.0586C249.817 74.6885 250.5 75.1567 251.273 75.4065C252.045 75.6563 252.873 75.6769 253.657 75.466C254.44 75.255 255.146 74.8215 255.688 74.2179C256.231 73.6142 256.587 72.8664 256.713 72.0647C256.839 71.263 256.731 70.4419 256.4 69.7007C256.07 68.9595 255.531 68.3299 254.851 67.8882C254.17 67.4465 253.376 67.2115 252.564 67.2117H244.203V86.2387H240.486V63.9414H252.564C253.602 63.943 254.629 64.1491 255.587 64.5477C256.546 64.9464 257.416 65.5299 258.149 66.2649C258.881 67 259.462 67.8721 259.858 68.8316C260.254 69.7911 260.456 70.8191 260.455 71.8569Z" fill="white"/>
<path d="M287.669 75.1031C287.669 81.5073 281.847 86.71 274.662 86.71C267.478 86.71 261.668 81.5073 261.668 75.1031C261.668 68.6988 267.49 63.4961 274.662 63.4961C281.835 63.4961 287.669 68.6864 287.669 75.1031ZM283.953 75.1031C283.953 70.4826 279.791 66.7416 274.662 66.7416C269.534 66.7416 265.384 70.4578 265.384 75.1031C265.384 79.7483 269.534 83.4521 274.662 83.4521C279.791 83.4521 283.953 79.7112 283.953 75.1031Z" fill="white"/>
<path d="M311.579 82.9932L311.108 88.5675H307.862V86.2387H291.152V88.5551H287.906L287.436 83.4391H288.365C289.393 83.4391 290.223 82.8198 290.223 82.0517L290.681 63.9414H308.791V82.9808L311.579 82.9932ZM305.075 66.741H294.323L293.939 82.0641C293.94 82.3772 293.903 82.6892 293.827 82.9932H305.075V66.741Z" fill="white"/>
<path d="M268.668 33.6335V55.9307H264.951V38.254L251.474 55.9184H247.758V33.6211H251.474V51.2111L264.951 33.6335H268.668Z" fill="white"/>
<path d="M261.694 28.9883H254.732V31.7754H261.694V28.9883Z" fill="white"/>
</svg>
