<svg width="195" height="404" viewBox="0 0 195 404" fill="none" xmlns="http://www.w3.org/2000/svg">
<path d="M80.5667 303.016V404" stroke="#6B3913" stroke-width="26.6918" stroke-miterlimit="10"/>
<path d="M194.968 99.0051V123.272C173.858 118.504 96.6543 83.1679 80.5666 56.6873V0.0649414C110.614 47.747 158.962 71.0771 182.029 79.9323C189.86 82.9124 194.968 90.5756 194.968 99.0051Z" fill="#207851"/>
<path d="M80.5667 0.0649414V56.6873C64.3939 83.1679 -12.7247 118.504 -33.8344 123.272V99.0051C-33.8344 90.5756 -28.7272 82.9124 -20.8111 79.9323C2.17126 71.0771 50.5194 47.747 80.5667 0.0649414Z" fill="#207851"/>
<path d="M194.968 152.988V177.255C173.858 172.487 96.6543 137.151 80.5666 110.67V54.0479C110.614 101.73 158.962 125.06 182.029 133.915C189.86 136.981 194.968 144.559 194.968 152.988Z" fill="#207851"/>
<path d="M80.5667 54.0479V110.67C64.3939 137.151 -12.7247 172.487 -33.8344 177.255V152.988C-33.8344 144.559 -28.7272 136.895 -20.8111 133.915C2.17126 125.06 50.5194 101.73 80.5667 54.0479Z" fill="#207851"/>
<path d="M194.968 207.056V231.323C173.858 226.555 96.6543 191.219 80.5666 164.738V108.116C110.614 155.798 158.962 179.128 182.029 187.983C189.86 190.963 194.968 198.542 194.968 207.056Z" fill="#207851"/>
<path d="M80.5667 108.116V164.738C64.3939 191.219 -12.7247 226.555 -33.8344 231.323V207.056C-33.8344 198.627 -28.7272 190.963 -20.8111 187.983C2.17126 179.043 50.5194 155.798 80.5667 108.116Z" fill="#207851"/>
<path d="M194.968 261.039V285.306C173.858 280.537 96.6543 245.202 80.5666 218.721V162.099C110.614 209.781 158.962 233.111 182.029 241.966C189.86 245.031 194.968 252.609 194.968 261.039Z" fill="#207851"/>
<path d="M80.5667 162.099V218.721C64.3939 245.202 -12.7247 280.537 -33.8344 285.306V261.039C-33.8344 252.609 -28.7272 244.946 -20.8111 241.966C2.17126 233.111 50.5194 209.781 80.5667 162.099Z" fill="#207851"/>
<path d="M194.968 315.022V339.289C173.858 334.52 96.6543 299.185 80.5666 272.704V216.082C110.614 263.764 158.962 287.094 182.029 295.949C189.86 299.014 194.968 306.592 194.968 315.022Z" fill="#207851"/>
<path d="M80.5667 216.082V272.704C64.3939 299.185 -12.7247 334.52 -33.8344 339.289V315.022C-33.8344 306.592 -28.7272 298.929 -20.8111 295.949C2.17126 287.094 50.5194 263.849 80.5667 216.082Z" fill="#207851"/>
<path d="M194.968 369.09V393.357C173.858 388.588 96.6543 353.253 80.5666 326.772V270.15C110.614 317.832 158.962 341.162 182.029 350.017C189.86 352.997 194.968 360.66 194.968 369.09Z" fill="#207851"/>
<path d="M80.5667 270.15V326.772C64.3939 353.253 -12.7247 388.588 -33.8344 393.357V369.09C-33.8344 360.66 -28.7272 352.997 -20.8111 350.017C2.17126 341.162 50.5194 317.832 80.5667 270.15Z" fill="#207851"/>
<path d="M81.9736 148.048C81.2539 148.049 80.5565 147.781 80.0013 147.29C79.446 146.799 79.0677 146.116 78.9314 145.359C78.7951 144.601 78.9093 143.816 79.2544 143.139C79.5995 142.462 80.1539 141.935 80.8222 141.649C81.4905 141.363 82.231 141.336 82.9162 141.571C83.6014 141.807 84.1884 142.292 84.5764 142.942C84.9643 143.592 85.1289 144.366 85.0418 145.132C84.9547 145.898 84.6213 146.607 84.0991 147.138C83.5251 147.721 82.7645 148.047 81.9736 148.048Z" fill="#FFD407"/>
<path d="M3.092 204.614C2.32464 204.614 1.58379 204.313 1.01034 203.766C0.43689 203.219 0.0708728 202.466 -0.0180857 201.649C-0.107044 200.832 0.087253 200.008 0.527865 199.334C0.968478 198.661 1.62466 198.184 2.37157 197.996C3.11847 197.807 3.90399 197.92 4.57871 198.311C5.25342 198.703 5.77024 199.347 6.03086 200.121C6.29148 200.895 6.27773 201.744 5.99219 202.508C5.70665 203.272 5.16924 203.896 4.48223 204.262L4.38195 204.313C3.97651 204.509 3.53695 204.612 3.092 204.614ZM17.2482 196.925C16.5656 196.923 15.9027 196.68 15.3631 196.231C14.8235 195.783 14.4377 195.156 14.2658 194.448C14.094 193.739 14.1459 192.99 14.4134 192.317C14.6809 191.644 15.1489 191.084 15.7443 190.727L15.8446 190.669C16.5634 190.251 17.4077 190.156 18.1917 190.406C18.9757 190.655 19.6353 191.228 20.0253 191.998C20.4153 192.769 20.5037 193.674 20.2712 194.515C20.0387 195.355 19.5043 196.062 18.7855 196.481H18.7454C18.2894 196.762 17.7743 196.915 17.2482 196.925ZM31.0033 188.441C30.2506 188.444 29.522 188.157 28.951 187.631C28.38 187.105 28.005 186.376 27.8949 185.578C27.7847 184.78 27.9467 183.966 28.3512 183.285C28.7557 182.605 29.3755 182.103 30.0969 181.873C30.8183 181.643 31.593 181.699 32.2787 182.032C32.9645 182.365 33.5154 182.951 33.8303 183.684C34.1452 184.417 34.203 185.247 33.9931 186.022C33.7832 186.797 33.3197 187.465 32.6877 187.903L32.5874 187.975C32.1081 188.28 31.5609 188.441 31.0033 188.441ZM44.3708 179.269C43.7111 179.267 43.069 179.04 42.5388 178.619C42.0085 178.198 41.618 177.606 41.4245 176.929C41.2309 176.253 41.2445 175.528 41.4632 174.861C41.6819 174.193 42.0942 173.619 42.6398 173.221L42.72 173.164C43.0563 172.898 43.4393 172.709 43.8458 172.607C44.2523 172.505 44.6739 172.493 45.085 172.57C45.4961 172.648 45.8883 172.814 46.2378 173.059C46.5874 173.304 46.8869 173.622 47.1185 173.994C47.3501 174.367 47.5088 174.786 47.5851 175.226C47.6614 175.666 47.6537 176.118 47.5624 176.554C47.4712 176.991 47.2982 177.404 47.0541 177.767C46.81 178.13 46.4997 178.436 46.1421 178.667H46.0953C45.5875 179.049 44.9844 179.259 44.3642 179.269H44.3708ZM57.344 169.473C56.693 169.472 56.0589 169.251 55.5323 168.84C55.0058 168.43 54.6137 167.852 54.412 167.188C54.2104 166.525 54.2095 165.81 54.4096 165.145C54.6097 164.481 55.0004 163.902 55.526 163.49C55.8486 163.227 56.2162 163.036 56.6079 162.925C56.9997 162.815 57.4078 162.789 57.809 162.848C58.2103 162.907 58.5968 163.05 58.9465 163.269C59.2962 163.488 59.6022 163.778 59.8471 164.124C60.092 164.47 60.2709 164.864 60.3737 165.284C60.4765 165.704 60.5012 166.142 60.4462 166.572C60.3913 167.002 60.2579 167.416 60.0536 167.791C59.8493 168.166 59.5781 168.494 59.2556 168.757L59.1553 168.836C58.6284 169.251 57.9913 169.474 57.3373 169.473H57.344ZM69.9095 159.083C69.2709 159.086 68.6472 158.876 68.1249 158.482C67.6025 158.088 67.2072 157.53 66.9937 156.885C66.7801 156.239 66.7588 155.539 66.9327 154.88C67.1066 154.221 67.4672 153.637 67.9645 153.207L68.0313 153.15C68.6677 152.599 69.4822 152.341 70.2957 152.434C71.1092 152.527 71.855 152.962 72.369 153.644C72.8831 154.327 73.1233 155.2 73.0368 156.072C72.9504 156.944 72.5443 157.744 71.9079 158.295L71.8545 158.345C71.3019 158.823 70.613 159.084 69.9028 159.083H69.9095Z" fill="#FFD407"/>
<path d="M82.0269 148.048C81.5272 148.05 81.0345 147.923 80.5908 147.676C80.1471 147.43 79.7657 147.072 79.4791 146.633C79.1925 146.195 79.0092 145.688 78.945 145.157C78.8808 144.626 78.9374 144.086 79.1102 143.583C79.283 143.08 79.5668 142.63 79.9372 142.271C80.3076 141.911 80.7537 141.653 81.2373 141.519C81.721 141.384 82.2278 141.377 82.7145 141.499C83.2011 141.62 83.6532 141.866 84.032 142.215L84.1389 142.315C84.5921 142.768 84.9078 143.357 85.045 144.004C85.1822 144.652 85.1346 145.329 84.9082 145.947C84.6819 146.565 84.2873 147.096 83.7759 147.471C83.2644 147.845 82.6597 148.047 82.0402 148.048H82.0269Z" fill="#FFD407"/>
<path d="M160.902 204.613C160.457 204.612 160.017 204.509 159.612 204.312L159.512 204.262C159.145 204.074 158.817 203.81 158.546 203.486C158.274 203.162 158.065 202.784 157.93 202.373C157.795 201.962 157.737 201.526 157.759 201.091C157.781 200.657 157.882 200.23 158.058 199.838C158.234 199.445 158.479 199.093 158.782 198.802C159.084 198.511 159.437 198.287 159.82 198.142C160.204 197.997 160.61 197.935 161.016 197.958C161.421 197.982 161.819 198.091 162.185 198.279H162.225C162.862 198.596 163.379 199.137 163.691 199.811C164.003 200.486 164.091 201.254 163.941 201.99C163.79 202.725 163.411 203.384 162.864 203.857C162.318 204.33 161.638 204.589 160.935 204.592L160.902 204.613ZM146.746 196.925C146.275 196.929 145.81 196.819 145.385 196.601C144.961 196.384 144.588 196.066 144.295 195.671C144.003 195.276 143.798 194.814 143.697 194.322C143.595 193.829 143.6 193.318 143.711 192.828C143.821 192.337 144.035 191.881 144.334 191.492C144.634 191.103 145.013 190.793 145.442 190.585C145.87 190.377 146.338 190.276 146.808 190.291C147.278 190.305 147.739 190.435 148.156 190.669L148.25 190.726C148.845 191.084 149.313 191.644 149.58 192.317C149.848 192.99 149.9 193.739 149.728 194.448C149.556 195.156 149.17 195.783 148.631 196.231C148.091 196.679 147.428 196.923 146.746 196.925ZM132.997 188.441C132.44 188.441 131.892 188.28 131.413 187.975L131.306 187.903C130.944 187.684 130.627 187.388 130.374 187.034C130.122 186.68 129.938 186.275 129.835 185.843C129.731 185.412 129.711 184.962 129.773 184.521C129.836 184.08 129.981 183.658 130.2 183.279C130.419 182.9 130.707 182.572 131.047 182.315C131.387 182.058 131.772 181.878 132.179 181.784C132.585 181.691 133.005 181.686 133.414 181.771C133.822 181.856 134.21 182.029 134.555 182.278H134.588C135.168 182.649 135.619 183.214 135.871 183.887C136.122 184.559 136.16 185.302 135.979 186C135.799 186.698 135.409 187.313 134.87 187.75C134.331 188.187 133.673 188.422 132.997 188.419V188.441ZM119.63 179.276C119.029 179.277 118.442 179.09 117.939 178.738L117.785 178.631C117.133 178.121 116.694 177.357 116.561 176.504C116.428 175.65 116.611 174.775 117.072 174.065C117.534 173.355 118.236 172.867 119.029 172.705C119.821 172.544 120.642 172.721 121.314 173.199L119.55 175.915L121.327 173.207C121.884 173.596 122.308 174.169 122.537 174.838C122.765 175.508 122.785 176.238 122.594 176.921C122.403 177.604 122.011 178.202 121.477 178.627C120.943 179.051 120.295 179.279 119.63 179.276ZM106.636 169.473C105.985 169.473 105.35 169.249 104.825 168.835L104.732 168.757C104.078 168.231 103.645 167.449 103.529 166.581C103.413 165.714 103.623 164.833 104.113 164.131C104.603 163.43 105.333 162.966 106.143 162.842C106.952 162.718 107.774 162.943 108.428 163.468C108.954 163.881 109.345 164.461 109.545 165.126C109.745 165.79 109.743 166.506 109.541 167.17C109.338 167.834 108.945 168.412 108.417 168.822C107.89 169.232 107.255 169.452 106.603 169.452L106.636 169.473ZM94.0711 159.083C93.3656 159.088 92.6795 158.836 92.1261 158.367L92.0793 158.316C91.7642 158.044 91.5022 157.708 91.3083 157.327C91.1144 156.946 90.9924 156.528 90.9493 156.096C90.9062 155.665 90.9428 155.228 91.0569 154.812C91.1711 154.395 91.3606 154.007 91.6147 153.669C91.8689 153.332 92.1825 153.051 92.5378 152.843C92.8932 152.635 93.2832 152.504 93.6857 152.458C94.0882 152.412 94.4952 152.451 94.8836 152.573C95.272 152.696 95.6341 152.899 95.9492 153.171L96.0227 153.229C96.5165 153.661 96.8737 154.246 97.0451 154.904C97.2164 155.562 97.1936 156.261 96.9798 156.905C96.766 157.548 96.3716 158.105 95.8508 158.499C95.3301 158.893 94.7084 159.105 94.0711 159.105V159.083Z" fill="#FFD407"/>
<path d="M175.419 211.357C175.035 211.354 174.654 211.276 174.296 211.127C173.548 210.814 172.943 210.201 172.61 209.418C172.277 208.635 172.241 207.743 172.511 206.933C172.78 206.122 173.334 205.455 174.054 205.075C174.774 204.694 175.604 204.629 176.368 204.893L176.635 205.001C177.29 205.3 177.829 205.833 178.159 206.509C178.49 207.186 178.592 207.963 178.449 208.711C178.306 209.459 177.926 210.131 177.374 210.613C176.822 211.095 176.131 211.358 175.419 211.357Z" fill="#FFD407"/>
<path d="M81.9731 251.699C81.253 251.702 80.5541 251.438 79.9953 250.951C79.4364 250.464 79.0522 249.784 78.9081 249.028C78.764 248.272 78.8689 247.485 79.2048 246.802C79.5408 246.119 80.087 245.582 80.7507 245.282C81.4144 244.983 82.1545 244.939 82.8449 245.158C83.5354 245.378 84.1335 245.847 84.5376 246.486C84.9418 247.125 85.1269 247.894 85.0615 248.663C84.9961 249.432 84.6841 250.153 84.1788 250.703L84.0718 250.81C83.503 251.382 82.7526 251.699 81.9731 251.699Z" fill="#FFD407"/>
<path d="M3.092 308.257C2.38971 308.255 1.70926 307.995 1.16287 307.522C0.61649 307.049 0.236842 306.391 0.0865545 305.655C-0.0637334 304.92 0.0243025 304.151 0.336175 303.477C0.648048 302.802 1.1651 302.261 1.80204 301.944C2.54426 301.568 3.39529 301.522 4.16922 301.816C4.94314 302.11 5.57708 302.72 5.93259 303.514C6.10712 303.904 6.20804 304.327 6.22958 304.76C6.25111 305.192 6.19282 305.625 6.05808 306.033C5.92333 306.441 5.71479 306.816 5.44437 307.138C5.17394 307.459 4.84698 307.72 4.48223 307.906L4.38196 307.956C3.97757 308.156 3.53731 308.259 3.092 308.257ZM17.2482 300.576C16.5634 300.577 15.8976 300.334 15.3555 299.886C14.8134 299.437 14.4258 298.808 14.2536 298.098C14.0814 297.387 14.1344 296.635 14.4043 295.96C14.6741 295.286 15.1455 294.726 15.7443 294.37L15.8446 294.313C16.5616 293.927 17.3905 293.855 18.1559 294.113C18.9212 294.371 19.563 294.938 19.9452 295.694C20.3274 296.45 20.4201 297.336 20.2037 298.165C19.9872 298.993 19.4786 299.698 18.7855 300.131H18.7454C18.2906 300.416 17.7747 300.569 17.2482 300.576ZM31.0034 292.092C30.2489 292.096 29.5183 291.808 28.9458 291.281C28.3732 290.754 27.9971 290.024 27.8864 289.224C27.7758 288.424 27.9379 287.608 28.3433 286.925C28.7486 286.243 29.3699 285.741 30.093 285.51C30.8161 285.279 31.5926 285.336 32.28 285.669C32.9673 286.003 33.5193 286.591 33.8348 287.326C34.1502 288.061 34.2078 288.893 33.9971 289.669C33.7864 290.446 33.3215 291.115 32.6877 291.554L32.5874 291.619C32.1101 291.93 31.5619 292.093 31.0034 292.092ZM44.3709 282.92C43.7111 282.918 43.069 282.69 42.5388 282.269C42.0086 281.848 41.618 281.256 41.4245 280.58C41.2309 279.904 41.2445 279.179 41.4632 278.512C41.6819 277.844 42.0942 277.27 42.6398 276.872L42.72 276.807C43.4005 276.368 44.2128 276.227 44.9879 276.413C45.7631 276.599 46.4414 277.098 46.8821 277.807C47.3227 278.516 47.4917 279.379 47.3539 280.218C47.216 281.056 46.782 281.806 46.1421 282.31H46.0953C45.5897 282.698 44.9856 282.91 44.3642 282.92H44.3709ZM57.344 273.117C56.6034 273.122 55.8851 272.846 55.3168 272.336C54.7486 271.827 54.3673 271.118 54.2409 270.336C54.1145 269.554 54.2511 268.749 54.6264 268.064C55.0017 267.379 55.5914 266.86 56.2906 266.598C56.9897 266.336 57.7529 266.348 58.4443 266.633C59.1357 266.917 59.7105 267.456 60.0663 268.152C60.4221 268.849 60.5359 269.658 60.3875 270.436C60.239 271.214 59.8379 271.91 59.2556 272.4L59.1553 272.479C58.6286 272.895 57.9914 273.119 57.3374 273.117H57.344ZM69.9095 262.727C69.2725 262.728 68.6509 262.517 68.1303 262.123C67.6097 261.73 67.2156 261.173 67.0024 260.529C66.7891 259.886 66.7671 259.187 66.9394 258.53C67.1117 257.872 67.4698 257.288 67.9645 256.858L68.0314 256.794C68.6706 256.265 69.4774 256.026 70.279 256.128C71.0806 256.229 71.8132 256.663 72.32 257.337C72.8268 258.01 73.0675 258.87 72.9904 259.731C72.9134 260.593 72.5248 261.388 71.9079 261.946L71.8545 261.989C71.3033 262.47 70.6135 262.731 69.9028 262.727H69.9095Z" fill="#FFD407"/>
<path d="M82.0268 251.699C81.2472 251.7 80.4966 251.382 79.9281 250.81L82 248.36L84.1054 245.945L82 248.36L84.1255 245.966C84.5787 246.419 84.8944 247.007 85.0316 247.655C85.1688 248.303 85.1211 248.98 84.8948 249.598C84.6685 250.216 84.2739 250.747 83.7624 251.122C83.251 251.496 82.6463 251.697 82.0268 251.699Z" fill="#FFD407"/>
<path d="M160.902 308.257C160.457 308.259 160.017 308.156 159.612 307.956L159.512 307.906C159.145 307.718 158.817 307.454 158.546 307.13C158.274 306.805 158.065 306.427 157.93 306.016C157.795 305.605 157.737 305.17 157.759 304.735C157.781 304.3 157.883 303.874 158.058 303.481C158.234 303.088 158.48 302.736 158.782 302.445C159.085 302.154 159.437 301.93 159.821 301.785C160.204 301.641 160.61 301.578 161.016 301.602C161.422 301.625 161.819 301.734 162.185 301.922H162.226C162.862 302.24 163.379 302.78 163.691 303.455C164.003 304.129 164.091 304.898 163.941 305.633C163.791 306.369 163.411 307.027 162.865 307.5C162.318 307.974 161.638 308.233 160.936 308.235L160.902 308.257ZM146.746 300.575C146.223 300.575 145.71 300.43 145.255 300.153C144.565 299.722 144.057 299.021 143.838 298.197C143.619 297.373 143.707 296.491 144.082 295.735C144.458 294.979 145.092 294.408 145.852 294.143C146.611 293.878 147.437 293.939 148.156 294.313L148.25 294.37C148.849 294.726 149.32 295.285 149.59 295.96C149.86 296.635 149.913 297.387 149.741 298.097C149.568 298.808 149.181 299.437 148.639 299.886C148.097 300.334 147.431 300.577 146.746 300.575ZM132.997 292.091C132.439 292.093 131.891 291.929 131.413 291.618L131.306 291.561C130.61 291.099 130.113 290.36 129.925 289.505C129.737 288.65 129.873 287.751 130.304 287.004C130.735 286.257 131.425 285.724 132.222 285.522C133.019 285.321 133.858 285.467 134.555 285.929H134.588C135.167 286.302 135.616 286.867 135.866 287.54C136.116 288.212 136.154 288.954 135.973 289.651C135.793 290.349 135.404 290.964 134.867 291.402C134.329 291.84 133.673 292.077 132.997 292.077V292.091ZM119.63 282.919C119.031 282.92 118.444 282.736 117.939 282.389L117.785 282.274C117.453 282.026 117.17 281.71 116.951 281.344C116.733 280.978 116.584 280.57 116.513 280.142C116.442 279.715 116.45 279.276 116.537 278.852C116.624 278.428 116.788 278.027 117.02 277.67C117.252 277.314 117.547 277.01 117.888 276.776C118.229 276.543 118.61 276.383 119.009 276.307C119.407 276.23 119.816 276.239 120.212 276.332C120.607 276.426 120.982 276.601 121.314 276.85L119.55 279.559L121.328 276.857C121.886 277.245 122.312 277.817 122.541 278.487C122.771 279.156 122.792 279.888 122.6 280.571C122.409 281.254 122.016 281.853 121.48 282.276C120.945 282.699 120.295 282.925 119.63 282.919ZM106.637 273.117C105.986 273.116 105.352 272.895 104.825 272.486L104.732 272.407C104.119 271.866 103.724 271.092 103.629 270.247C103.534 269.402 103.747 268.55 104.223 267.868C104.698 267.187 105.401 266.728 106.184 266.587C106.967 266.446 107.771 266.634 108.428 267.112C108.954 267.524 109.345 268.104 109.545 268.769C109.745 269.434 109.743 270.149 109.541 270.813C109.338 271.477 108.945 272.056 108.418 272.466C107.89 272.875 107.255 273.096 106.603 273.095L106.637 273.117ZM94.0713 262.727C93.3654 262.735 92.6785 262.482 92.1263 262.01L92.0796 261.967C91.7441 261.702 91.4621 261.367 91.2507 260.982C91.0392 260.597 90.9026 260.17 90.849 259.727C90.7954 259.284 90.826 258.834 90.939 258.404C91.0519 257.974 91.2449 257.573 91.5062 257.225C91.7675 256.877 92.0919 256.59 92.4596 256.38C92.8274 256.17 93.231 256.042 93.6461 256.003C94.0612 255.965 94.4793 256.017 94.8752 256.157C95.271 256.296 95.6364 256.52 95.9494 256.815L96.0229 256.879C96.5181 257.31 96.8764 257.895 97.0485 258.553C97.2206 259.211 97.1981 259.91 96.984 260.554C96.7699 261.198 96.3748 261.755 95.8531 262.148C95.3314 262.541 94.7089 262.75 94.0713 262.748V262.727Z" fill="#FFD407"/>
<path d="M175.419 315C175.032 315.002 174.648 314.924 174.289 314.771H174.242C173.516 314.424 172.942 313.79 172.64 313C172.339 312.211 172.333 311.328 172.625 310.534C172.916 309.741 173.482 309.098 174.204 308.741C174.926 308.383 175.749 308.338 176.501 308.615L176.635 308.673C177.286 308.975 177.82 309.508 178.148 310.183C178.475 310.857 178.576 311.632 178.433 312.377C178.291 313.122 177.913 313.792 177.364 314.273C176.815 314.755 176.128 315.019 175.419 315.021V315Z" fill="#FFD407"/>
<path d="M81.9735 40.6342C81.3534 40.6342 80.7478 40.4342 80.2353 40.0601C79.7228 39.6859 79.3272 39.1551 79.1001 38.5365C78.8729 37.918 78.8247 37.2405 78.9617 36.5922C79.0987 35.9439 79.4145 35.3549 79.8681 34.9017C80.4667 34.3086 81.2582 33.9906 82.0729 34.0161C82.8876 34.0415 83.6606 34.4084 84.226 35.0378C84.786 35.6674 85.0911 36.5089 85.0748 37.3787C85.0585 38.2485 84.7222 39.0761 84.1391 39.6811L84.0722 39.7528C83.5026 40.3221 82.7521 40.6373 81.9735 40.6342Z" fill="#FFD407"/>
<path d="M3.092 97.2007C2.32464 97.2015 1.58379 96.8999 1.01034 96.3533C0.43689 95.8066 0.0708728 95.053 -0.0180857 94.2359C-0.107044 93.4188 0.087253 92.5951 0.527866 91.9216C0.968478 91.248 1.62466 90.7716 2.37157 90.583C3.11848 90.3943 3.90399 90.5066 4.57871 90.8985C5.25342 91.2903 5.77025 91.9344 6.03086 92.7082C6.29148 93.4819 6.27774 94.3314 5.99219 95.095C5.70665 95.8586 5.16924 96.4831 4.48223 96.8495L4.38196 96.8997C3.97651 97.0962 3.53695 97.1988 3.092 97.2007ZM17.2482 89.4904C16.5618 89.4897 15.8952 89.2438 15.3537 88.7916C14.8122 88.3394 14.4267 87.7066 14.2581 86.9933C14.0895 86.28 14.1473 85.5267 14.4225 84.8526C14.6977 84.1785 15.1746 83.6219 15.7778 83.2707L15.8446 83.2348C16.2005 83.0278 16.591 82.898 16.9937 82.8527C17.3964 82.8075 17.8035 82.8478 18.1917 82.9712C18.5799 83.0946 18.9417 83.2988 19.2563 83.5721C19.5709 83.8454 19.8322 84.1825 20.0253 84.5641C20.2184 84.9457 20.3395 85.3643 20.3817 85.796C20.4239 86.2278 20.3863 86.6642 20.2712 87.0804C20.1561 87.4966 19.9656 87.8844 19.7107 88.2217C19.4558 88.559 19.1414 88.8392 18.7855 89.0462L18.7119 89.0892C18.2633 89.3528 17.7598 89.4908 17.2482 89.4904ZM31.0034 81.0063C30.2489 81.0105 29.5183 80.7228 28.9458 80.1961C28.3732 79.6693 27.9971 78.9388 27.8864 78.1387C27.7757 77.3385 27.9379 76.5225 28.3433 75.8402C28.7486 75.158 29.3699 74.6554 30.093 74.4247C30.8161 74.1939 31.5926 74.2505 32.28 74.5841C32.9673 74.9177 33.5193 75.5059 33.8348 76.2407C34.1502 76.9755 34.2078 77.8076 33.9971 78.5843C33.7864 79.361 33.3215 80.0301 32.6877 80.4689L32.5874 80.5406C32.1102 80.8535 31.5627 81.0219 31.0034 81.0278V81.0063ZM44.3709 71.8343C43.7077 71.8337 43.0624 71.6043 42.5303 71.18C41.9983 70.7556 41.6078 70.1589 41.4166 69.4782C41.2254 68.7974 41.2438 68.0688 41.4689 67.4001C41.694 66.7313 42.1139 66.1581 42.6665 65.7651C43.3452 65.2724 44.1776 65.0863 44.9834 65.2473C45.7891 65.4083 46.5032 65.9033 46.9708 66.6249C47.1994 66.9824 47.36 67.3846 47.4434 67.8087C47.5268 68.2328 47.5314 68.6703 47.4569 69.0962C47.3824 69.5222 47.2303 69.9282 47.0093 70.2911C46.7882 70.654 46.5026 70.9665 46.1688 71.2109L46.0685 71.2826C45.5662 71.6511 44.9728 71.8507 44.3642 71.8558L44.3709 71.8343ZM57.344 62.0389C56.5981 62.0461 55.8741 61.769 55.3009 61.2571C54.7278 60.7451 54.3428 60.0317 54.2147 59.2438C54.0866 58.456 54.2235 57.6449 54.6012 56.9553C54.9789 56.2656 55.5728 55.7421 56.2769 55.4782C56.9811 55.2142 57.7498 55.2269 58.4461 55.514C59.1423 55.8011 59.7208 56.3439 60.0785 57.0457C60.4362 57.7475 60.5498 58.5627 60.3991 59.346C60.2484 60.1292 59.8431 60.8296 59.2556 61.3224L59.1286 61.4227C58.6089 61.8318 57.9821 62.0549 57.3374 62.0604L57.344 62.0389ZM69.9095 51.6488C69.1707 51.6584 68.4524 51.3886 67.8808 50.8868C67.3092 50.3849 66.9209 49.6831 66.7841 48.9047C66.6473 48.1263 66.7708 47.3211 67.1329 46.6307C67.4949 45.9402 68.0724 45.4087 68.7638 45.1295C69.4552 44.8503 70.2163 44.8413 70.9133 45.1041C71.6103 45.3668 72.1985 45.8846 72.5747 46.5663C72.951 47.248 73.091 48.0501 72.9703 48.8315C72.8496 49.613 72.4758 50.3238 71.9146 50.8391L71.7943 50.9465C71.2571 51.408 70.5911 51.6628 69.9028 51.6703L69.9095 51.6488Z" fill="#FFD407"/>
<path d="M82.0269 40.6353C81.2481 40.6391 80.4974 40.3238 79.9282 39.754C79.3286 39.1595 78.9719 38.3354 78.9356 37.4607C78.8993 36.586 79.1863 35.7312 79.7343 35.082C80.0037 34.762 80.3293 34.502 80.6925 34.3169C81.0557 34.1318 81.4492 34.0252 81.8508 34.0033C82.2524 33.9813 82.6541 34.0444 83.033 34.1889C83.4118 34.3334 83.7604 34.5565 84.0588 34.8455L84.1256 34.9028C84.5788 35.3556 84.8944 35.944 85.0316 36.5916C85.1688 37.2393 85.1212 37.9162 84.8949 38.5344C84.6686 39.1526 84.274 39.6835 83.7625 40.0582C83.2511 40.4329 82.6463 40.634 82.0269 40.6353Z" fill="#FFD407"/>
<path d="M160.902 97.2008C160.457 97.1989 160.017 97.0964 159.612 96.8998L159.511 96.8497C159.145 96.6615 158.817 96.3977 158.545 96.0735C158.274 95.7493 158.065 95.371 157.93 94.9601C157.795 94.5492 157.737 94.1138 157.759 93.6789C157.781 93.2439 157.882 92.8178 158.058 92.4249C158.233 92.032 158.479 91.6801 158.782 91.3891C159.084 91.0982 159.437 90.874 159.82 90.7292C160.204 90.5845 160.61 90.5222 161.015 90.5457C161.421 90.5692 161.818 90.6782 162.185 90.8664H162.225C162.862 91.1836 163.379 91.7241 163.691 92.3987C164.003 93.0733 164.091 93.8418 163.941 94.5772C163.79 95.3127 163.411 95.9713 162.864 96.4444C162.318 96.9174 161.637 97.1767 160.935 97.1793L160.902 97.2008ZM146.745 89.4906C146.234 89.4903 145.731 89.3524 145.282 89.0893L145.208 89.0463C144.526 88.6068 144.028 87.9018 143.819 87.0784C143.61 86.255 143.705 85.3768 144.086 84.6271C144.466 83.8774 145.102 83.314 145.86 83.0547C146.618 82.7953 147.441 82.8599 148.156 83.235L148.223 83.2708C148.826 83.6223 149.303 84.1795 149.579 84.8544C149.854 85.5292 149.911 86.2832 149.741 86.9969C149.572 87.7106 149.185 88.3434 148.643 88.795C148.1 89.2467 147.432 89.4914 146.745 89.4906ZM132.997 81.0065C132.44 81.007 131.892 80.8461 131.413 80.5407L131.306 80.4691C130.944 80.2497 130.627 79.9541 130.374 79.6002C130.121 79.2462 129.938 78.8412 129.834 78.4093C129.731 77.9774 129.71 77.5276 129.773 77.0869C129.836 76.6462 129.981 76.2236 130.2 75.8445C130.419 75.4654 130.707 75.1377 131.047 74.8809C131.387 74.6241 131.772 74.4435 132.178 74.3501C132.585 74.2567 133.005 74.2523 133.413 74.3372C133.822 74.422 134.21 74.5944 134.554 74.844H134.588C135.168 75.2149 135.619 75.7802 135.87 76.4526C136.122 77.1251 136.16 77.8675 135.979 78.5656C135.798 79.2636 135.408 79.8786 134.87 80.3158C134.331 80.753 133.673 80.9881 132.997 80.985V81.0065ZM119.63 71.8345C119.025 71.8342 118.435 71.6423 117.932 71.2827L117.832 71.2111C117.189 70.7025 116.755 69.9466 116.621 69.1023C116.487 68.2579 116.664 67.3908 117.114 66.6831C117.564 65.9754 118.252 65.4821 119.034 65.3069C119.816 65.1318 120.631 65.2883 121.307 65.7437C121.86 66.137 122.28 66.7109 122.505 67.3804C122.73 68.0498 122.748 68.7791 122.556 69.4603C122.364 70.1414 121.972 70.7381 121.439 71.1618C120.906 71.5856 120.26 71.8139 119.596 71.813L119.63 71.8345ZM106.643 62.0319C106.007 62.0341 105.388 61.8209 104.872 61.4228L104.752 61.3225C104.097 60.797 103.665 60.0145 103.549 59.1471C103.433 58.2797 103.643 57.3984 104.133 56.6971C104.623 55.9958 105.353 55.5321 106.162 55.4077C106.972 55.2834 107.794 55.5088 108.448 56.0343L106.576 58.6784L108.441 56.0415C108.966 56.4551 109.355 57.0356 109.554 57.7004C109.753 58.3653 109.752 59.0804 109.549 59.7441C109.347 60.4078 108.955 60.9863 108.428 61.397C107.902 61.8078 107.268 62.0299 106.616 62.0319H106.643ZM94.0776 51.6417C93.3918 51.6387 92.7272 51.386 92.1927 50.9252L92.0725 50.8177C91.4694 50.2505 91.0959 49.454 91.031 48.5968C90.9661 47.7396 91.215 46.8889 91.7249 46.2249C92.2348 45.561 92.9657 45.1358 93.7628 45.0394C94.56 44.943 95.3608 45.183 95.9958 45.7086L94.0308 48.2667L96.0359 45.723C96.5324 46.1535 96.8927 46.7382 97.067 47.3968C97.2414 48.0555 97.2213 48.7558 97.0097 49.4018C96.7981 50.0478 96.4054 50.6078 95.8852 51.005C95.365 51.4022 94.7429 51.6171 94.1043 51.6203L94.0776 51.6417Z" fill="#FFD407"/>
<path d="M175.419 103.944C175.032 103.943 174.648 103.863 174.289 103.707H174.243C173.865 103.548 173.521 103.311 173.229 103.009C172.937 102.708 172.703 102.347 172.541 101.949C172.379 101.55 172.292 101.121 172.285 100.686C172.277 100.252 172.35 99.8197 172.498 99.4151C172.646 99.0105 172.868 98.6411 173.149 98.3281C173.431 98.0152 173.767 97.7647 174.139 97.591C174.51 97.4174 174.91 97.3239 175.316 97.316C175.721 97.3081 176.124 97.3858 176.502 97.5448L176.635 97.6022C177.29 97.9016 177.829 98.4345 178.16 99.1108C178.49 99.7871 178.593 100.565 178.449 101.313C178.306 102.061 177.926 102.733 177.374 103.215C176.822 103.697 176.131 103.959 175.419 103.958V103.944Z" fill="#FFD407"/>
</svg>
