<svg width="168" height="439" viewBox="0 0 168 439" fill="none" xmlns="http://www.w3.org/2000/svg">
<g clip-path="url(#clip0_251_79872)">
<path d="M111.646 26.9344V438.085" stroke="#5B4119" stroke-width="2" stroke-miterlimit="10"/>
<path d="M0.488281 95.317V118.489C21.0303 113.942 95.9065 80.1897 111.646 54.919V0.967609C87.6913 35.864 53.2411 62.5234 13.1158 77.2165C9.39937 78.6283 6.20428 81.113 3.95051 84.3436C1.69674 87.5742 0.489798 91.3994 0.488281 95.317Z" fill="#1E7851"/>
<path d="M111.646 0.963669V55.0026C127.298 80.2732 202.263 114.026 222.805 118.573V95.4006C222.821 91.4681 221.623 87.6233 219.368 84.3754C217.113 81.1275 213.908 78.6297 210.177 77.2126C170.025 62.5662 135.562 35.8964 111.646 0.963669Z" fill="#1E7851"/>
<path d="M0.488449 146.905V170.077C21.0305 165.53 95.9067 131.777 111.647 106.507V52.4676C87.6651 87.3399 53.2236 113.993 13.116 128.717C9.38536 130.134 6.18045 132.631 3.92551 135.879C1.67057 139.127 0.47197 142.972 0.488449 146.905Z" fill="#1E7851"/>
<path d="M111.646 52.4676V106.507C127.298 131.777 202.263 165.53 222.805 170.077V146.905C222.821 142.972 221.623 139.127 219.368 135.879C217.113 132.631 213.908 130.134 210.177 128.717C170.058 114.013 135.61 87.3559 111.646 52.4676Z" fill="#1E7851"/>
<path d="M0.488281 198.495V221.666C21.0303 217.119 95.9065 183.367 111.646 158.096V104.057C87.6908 138.933 53.2376 165.565 13.1158 180.219C9.39231 181.672 6.19812 184.191 3.94678 187.449C1.69543 190.707 0.490624 194.555 0.488281 198.495Z" fill="#1E7851"/>
<path d="M111.646 104.057V158.359C127.298 183.629 202.263 217.382 222.805 221.929V198.757C222.802 194.817 221.598 190.97 219.346 187.712C217.095 184.453 213.901 181.935 210.177 180.482C170.001 165.789 135.534 139.055 111.646 104.057Z" fill="#1E7851"/>
<path d="M0.488583 250.085V273.258C21.0306 268.711 95.9068 234.958 111.647 209.687V155.561C87.6916 190.457 53.2414 217.117 13.1161 231.81C9.37843 233.243 6.17058 235.757 3.91607 239.02C1.66157 242.283 0.466463 246.141 0.488583 250.085Z" fill="#1E7851"/>
<path d="M111.646 155.561V209.687C127.298 234.958 202.263 268.711 222.805 273.258V250.085C222.827 246.141 221.632 242.283 219.377 239.02C217.123 235.757 213.915 233.243 210.177 231.81C170.025 217.164 135.562 190.494 111.646 155.561Z" fill="#1E7851"/>
<path d="M0.491089 301.588V324.498C21.0331 319.951 95.9093 286.286 111.649 261.015V206.889C87.6941 241.785 53.2439 268.445 13.1186 283.138C9.34501 284.571 6.11007 287.109 3.85155 290.409C1.59303 293.709 0.419984 297.611 0.491089 301.588Z" fill="#1E7851"/>
<path d="M111.646 207.151V261.278C127.298 286.548 202.263 320.214 222.805 324.761V301.588C222.821 297.656 221.623 293.811 219.368 290.563C217.113 287.315 213.908 284.817 210.177 283.4C170.025 268.754 135.562 242.084 111.646 207.151Z" fill="#1E7851"/>
<path d="M0.488449 353.179V376.351C21.0305 371.804 95.9067 338.051 111.647 312.781V258.742C87.6915 293.638 53.2412 320.298 13.116 334.991C9.38536 336.408 6.18045 338.906 3.92551 342.154C1.67057 345.402 0.47197 349.247 0.488449 353.179Z" fill="#1E7851"/>
<path d="M111.646 258.742V312.781C127.298 338.051 202.263 371.804 222.805 376.351V353.179C222.821 349.247 221.623 345.402 219.368 342.154C217.113 338.906 213.908 336.408 210.177 334.991C170.025 320.345 135.562 293.674 111.646 258.742Z" fill="#1E7851"/>
<path d="M0.488449 404.77V427.942C21.0305 423.395 95.9067 389.642 111.647 364.372V310.333C87.6651 345.205 53.2236 371.858 13.116 386.582C9.38536 387.999 6.18045 390.497 3.92551 393.745C1.67057 396.992 0.47197 400.837 0.488449 404.77Z" fill="#1E7851"/>
<path d="M111.646 310.333V364.372C127.298 389.642 202.263 423.395 222.805 427.942V404.77C222.821 400.837 221.623 396.992 219.368 393.745C217.113 390.497 213.908 387.999 210.177 386.582C170.058 371.878 135.61 345.221 111.646 310.333Z" fill="#1E7851"/>
<path d="M111.658 258.655L127.131 223.941H96.1843L111.658 258.655Z" fill="#FFD301"/>
<path d="M111.658 189.226L96.1843 223.94H127.131L111.658 189.226Z" fill="#BB872B"/>
<path d="M111.658 107.555L127.131 72.8408H96.1843L111.658 107.555Z" fill="#E5342B"/>
<path d="M111.658 38.127L96.1843 72.8414H127.131L111.658 38.127Z" fill="white"/>
<path d="M111.644 189.051C121.957 189.051 130.318 180.829 130.318 170.688C130.318 160.546 121.957 152.325 111.644 152.325C101.33 152.325 92.969 160.546 92.969 170.688C92.969 180.829 101.33 189.051 111.644 189.051Z" fill="#E5342B"/>
<path d="M130.321 258.742C129.994 263.404 127.88 267.771 124.405 270.96C120.931 274.149 116.355 275.923 111.602 275.923C106.849 275.923 102.273 274.149 98.7989 270.96C95.3243 267.771 93.2101 263.404 92.8831 258.742" fill="#2DA7D3"/>
<path d="M111.62 107.522L88.9827 129.781L111.62 152.041L134.257 129.782L111.62 107.522Z" fill="#FFCD01"/>
<path d="M111.675 277.202L89.0381 299.461L111.675 321.72L134.312 299.461L111.675 277.202Z" fill="white"/>
</g>
<defs>
<clipPath id="clip0_251_79872">
<rect width="444.633" height="437.209" fill="white" transform="translate(0.488281 0.876465)"/>
</clipPath>
</defs>
</svg>
