<svg width="914" height="887" viewBox="0 0 914 887" fill="none" xmlns="http://www.w3.org/2000/svg">
<mask id="mask0_369_31159" style="mask-type:alpha" maskUnits="userSpaceOnUse" x="0" y="0" width="914" height="887">
<rect width="914" height="887" fill="#001D3D"/>
</mask>
<g mask="url(#mask0_369_31159)">
<path d="M613.31 554.788V547.313L632.924 538.761L682.426 448.853L677.828 440.3V425.136H706.638H730.707H759.445V440.3L754.919 448.853L804.421 538.761L824.035 547.313V554.788H613.31Z" fill="#D3D3D3"/>
<path d="M662.596 553.662C662.812 539.648 674.163 528.364 688.245 528.364H687.311V518.878C687.311 509.247 693.921 501.054 703.189 497.892C709.152 495.879 714.541 492.574 718.78 488.118C722.947 492.574 728.335 496.958 734.37 498.97C743.639 502.132 750.248 510.325 750.248 519.956V528.364H748.165C762.175 528.364 773.598 539.648 773.814 553.662H860.245V589.956L857.012 597.574L853.06 606.63V619.279L848.678 626.897V647.595L846.522 649.751V711.487L850.186 721.98L846.522 730.388V886.776H739.759H697.585H590.822V730.46L587.158 722.052L590.822 711.559V649.823L588.666 647.667V626.969L584.284 619.351V606.702L580.332 597.646L577.099 590.028V553.806H662.596V553.662Z" fill="#FFD407"/>
<path d="M715.978 649.608C692.772 649.608 673.948 668.437 673.948 691.651V792.124H763.397V691.651C763.397 668.437 744.573 649.608 721.367 649.608H715.978Z" fill="#EA4993"/>
<path d="M408.692 646.948C414.655 644.72 419.972 641.199 424.139 636.384C428.306 641.199 433.622 644.72 439.586 646.948C448.782 650.398 455.32 659.166 455.32 669.587V679.793H424.139H392.957V669.587C392.957 659.238 399.495 650.398 408.692 646.948Z" fill="#FBBB16"/>
<path d="M515.024 646.949C520.987 644.721 526.304 641.199 530.471 636.384C534.638 641.199 539.955 644.721 545.918 646.949C555.114 650.398 561.652 659.166 561.652 669.587V679.793H530.471H499.29V669.587C499.29 659.238 505.828 650.398 515.024 646.949Z" fill="#FBBB16"/>
<path d="M302.287 646.949C308.251 644.721 313.567 641.199 317.734 636.384C321.901 641.199 327.218 644.721 333.181 646.949C342.378 650.398 348.916 659.166 348.916 669.587V679.793H317.734H286.553V669.587C286.553 659.238 293.163 650.398 302.287 646.949Z" fill="#FBBB16"/>
<path d="M590.822 668.725H107.943V886.776H590.822V668.725Z" fill="#FBBB16"/>
<path d="M77.4807 649.751V636.096H257.384V649.751L260.473 651.117V656.435L255.156 661.825V666.353L252.282 669.228V886.776H167.432H82.6537V669.228L79.7798 666.353V661.825L74.3914 656.435V651.117L77.4807 649.751Z" fill="#FBBB16"/>
<path d="M110.242 636.096L147.674 584.782L142.286 580.541V576.948L167.432 569.905L192.578 576.948V580.541L187.262 584.782L224.622 636.096H110.242Z" fill="#D3D3D3"/>
<path d="M123.031 840.061C116.781 840.061 111.679 845.164 111.679 851.416V886.776H134.455V851.416C134.383 845.164 129.282 840.061 123.031 840.061Z" fill="#F39313"/>
<path d="M167.432 840.061C161.182 840.061 156.08 845.164 156.08 851.416V886.776H178.856V851.416C178.784 845.164 173.683 840.061 167.432 840.061Z" fill="#F39313"/>
<path d="M211.905 840.061C205.654 840.061 200.553 845.164 200.553 851.416V886.776H223.328V851.416C223.257 845.164 218.156 840.061 211.905 840.061Z" fill="#F39313"/>
<path d="M211.905 747.565C218.084 747.565 223.041 752.524 223.041 758.705V800.03H200.769V758.705C200.769 752.524 205.726 747.565 211.905 747.565Z" fill="#F39313"/>
<path d="M167.432 747.565C173.611 747.565 178.568 752.524 178.568 758.705V800.03H156.296V758.705C156.296 752.524 161.325 747.565 167.432 747.565Z" fill="#F39313"/>
<path d="M123.031 747.565C129.21 747.565 134.167 752.524 134.167 758.705V800.03H111.895V758.705C111.895 752.524 116.852 747.565 123.031 747.565Z" fill="#F39313"/>
<path d="M550.013 761.005C544.697 761.005 538.949 763.376 538.949 768.551V799.958H561.149V768.551C561.149 763.376 555.402 761.005 550.013 761.005Z" fill="#F39313"/>
<path d="M521.921 768.551C521.921 763.376 516.102 761.005 510.785 761.005C505.469 761.005 499.721 763.376 499.721 768.551V799.958H521.921V768.551Z" fill="#F39313"/>
<path d="M542.613 827.412C538.59 826.909 534.566 826.477 530.399 826.477C526.232 826.477 522.209 826.909 518.185 827.412C512.222 828.131 506.331 829.28 500.727 831.077L499.721 831.436V886.776H501.158H502.595H558.132H559.569H561.006V831.365L560 831.005C554.468 829.209 548.576 828.131 542.613 827.412Z" fill="#F39313"/>
<path d="M443.681 761.005C438.364 761.005 432.616 763.376 432.616 768.551V799.958H454.817V768.551C454.817 763.376 448.997 761.005 443.681 761.005Z" fill="#F39313"/>
<path d="M415.589 768.551C415.589 763.376 409.769 761.005 404.453 761.005C399.136 761.005 393.388 763.376 393.388 768.551V799.958H415.589V768.551Z" fill="#F39313"/>
<path d="M436.281 827.412C432.257 826.909 428.234 826.477 424.067 826.477C419.9 826.477 415.876 826.909 411.853 827.412C405.89 828.131 399.998 829.28 394.394 831.077L393.388 831.436V886.776H394.825H396.262H451.799H453.236H454.673V831.365L453.667 831.005C448.063 829.209 442.244 828.131 436.281 827.412Z" fill="#F39313"/>
<path d="M337.276 761.005C331.96 761.005 326.212 763.376 326.212 768.551V799.958H348.413V768.551C348.484 763.376 342.665 761.005 337.276 761.005Z" fill="#F39313"/>
<path d="M309.256 768.551C309.256 763.376 303.437 761.005 298.12 761.005C292.804 761.005 287.056 763.376 287.056 768.551V799.958H309.256V768.551Z" fill="#F39313"/>
<path d="M329.948 827.412C325.925 826.909 321.901 826.477 317.734 826.477C313.567 826.477 309.544 826.909 305.52 827.412C299.557 828.131 293.666 829.28 288.062 831.077L287.056 831.436V886.776H288.493H289.93H345.467H346.904H348.341V831.365L347.335 831.005C341.731 829.209 335.839 828.131 329.948 827.412Z" fill="#F39313"/>
<path d="M922.321 659.094C916.358 656.866 911.041 653.345 906.874 648.53C902.707 653.345 897.39 656.866 891.427 659.094C882.231 662.544 875.693 671.312 875.693 681.733V691.938H906.874H938.055V681.733C938.055 671.384 931.517 662.544 922.321 659.094Z" fill="#FBBB16"/>
<path d="M846.523 680.871H1329.4V898.922H846.523V680.871Z" fill="#FBBB16"/>
<path d="M887.332 773.151C892.648 773.151 898.396 775.522 898.396 780.697V812.104H876.195V780.697C876.195 775.522 881.943 773.151 887.332 773.151Z" fill="#F39313"/>
<path d="M894.732 839.558C898.755 839.055 902.779 838.623 906.946 838.623C911.113 838.623 915.136 839.055 919.16 839.558C925.123 840.276 931.014 841.426 936.618 843.223L937.624 843.582V898.922H936.187H934.75H879.213H877.776H876.339V843.51L877.345 843.151C882.877 841.354 888.769 840.276 894.732 839.558Z" fill="#F39313"/>
<path d="M718.636 820.225C702.902 820.225 687.814 823.818 673.948 830.43V886.776H763.325V830.43C749.458 823.818 734.371 820.225 718.636 820.225Z" fill="#6B3913"/>
<path d="M374.629 807.432V892.669" stroke="#6B3913" stroke-width="26.6918" stroke-miterlimit="10"/>
<path d="M278.068 635.234V655.717C295.886 651.692 361.05 621.866 374.629 599.515V551.722C349.268 591.969 308.459 611.661 288.989 619.135C282.379 621.651 278.068 628.119 278.068 635.234Z" fill="#207851"/>
<path d="M374.629 551.722V599.515C388.28 621.866 453.373 651.692 471.191 655.717V635.234C471.191 628.119 466.88 621.651 460.198 619.135C440.8 611.661 399.991 591.969 374.629 551.722Z" fill="#207851"/>
<path d="M278.068 680.799V701.281C295.886 697.257 361.05 667.431 374.629 645.08V597.287C349.268 637.534 308.459 657.226 288.989 664.7C282.379 667.287 278.068 673.684 278.068 680.799Z" fill="#207851"/>
<path d="M374.629 597.287V645.08C388.28 667.431 453.373 697.257 471.191 701.281V680.799C471.191 673.684 466.88 667.216 460.198 664.7C440.8 657.226 399.991 637.534 374.629 597.287Z" fill="#207851"/>
<path d="M278.068 726.436V746.918C295.886 742.894 361.05 713.068 374.629 690.717V642.924C349.268 683.171 308.459 702.863 288.989 710.337C282.379 712.852 278.068 719.249 278.068 726.436Z" fill="#207851"/>
<path d="M374.629 642.924V690.717C388.28 713.068 453.373 742.894 471.191 746.918V726.436C471.191 719.321 466.88 712.852 460.198 710.337C440.8 702.791 399.991 683.171 374.629 642.924Z" fill="#207851"/>
<path d="M278.068 772.001V792.483C295.886 788.459 361.05 758.633 374.629 736.282V688.489C349.268 728.736 308.459 748.428 288.989 755.902C282.379 758.489 278.068 764.886 278.068 772.001Z" fill="#207851"/>
<path d="M374.629 688.489V736.282C388.28 758.633 453.373 788.459 471.191 792.483V772.001C471.191 764.886 466.88 758.418 460.198 755.902C440.8 748.428 399.991 728.736 374.629 688.489Z" fill="#207851"/>
<path d="M278.068 817.566V838.049C295.886 834.024 361.05 804.198 374.629 781.847V734.054C349.268 774.301 308.459 793.993 288.989 801.467C282.379 804.054 278.068 810.451 278.068 817.566Z" fill="#207851"/>
<path d="M374.629 734.054V781.847C388.28 804.198 453.373 834.024 471.191 838.049V817.566C471.191 810.451 466.88 803.983 460.198 801.467C440.8 793.993 399.991 774.372 374.629 734.054Z" fill="#207851"/>
<path d="M278.068 863.203V883.685C295.886 879.661 361.05 849.835 374.629 827.484V779.691C349.268 819.937 308.459 839.63 288.989 847.104C282.379 849.619 278.068 856.088 278.068 863.203Z" fill="#207851"/>
<path d="M374.629 779.691V827.484C388.28 849.835 453.373 879.661 471.191 883.685V863.203C471.191 856.088 466.88 849.619 460.198 847.104C440.8 839.63 399.991 819.937 374.629 779.691Z" fill="#207851"/>
<path d="M374.629 722.842L388.064 692.154H361.194L374.629 722.842Z" fill="#FFD407"/>
<path d="M374.629 661.466L361.194 692.154H388.064L374.629 661.466Z" fill="#F7A600"/>
<path d="M374.629 661.322C383.597 661.322 390.867 654.05 390.867 645.08C390.867 636.109 383.597 628.837 374.629 628.837C365.662 628.837 358.392 636.109 358.392 645.08C358.392 654.05 365.662 661.322 374.629 661.322Z" fill="#E7362C"/>
<path d="M390.867 722.986C390.867 731.97 383.61 739.228 374.629 739.228C365.648 739.228 358.392 731.898 358.392 722.986" fill="#00A5C8"/>
<path d="M374.64 589.287L354.928 609.004L374.64 628.722L394.351 609.004L374.64 589.287Z" fill="#00A5C8"/>
<path d="M374.66 739.339L354.948 759.057L374.66 778.775L394.371 759.057L374.66 739.339Z" fill="white"/>
</g>
</svg>
