<svg width="32" height="32" viewBox="0 0 32 32" fill="none" xmlns="http://www.w3.org/2000/svg">
<path d="M30.231 17.3358C30.7232 16.743 31.0231 15.9606 31.0231 15.1045C31.0231 13.2593 29.6312 11.7576 27.9208 11.7576H21.8995C22.4959 9.80526 22.7503 7.21474 22.7503 6.10431V4.98941C22.7503 2.52906 20.8944 0.526855 18.6138 0.526855H17.5797C17.1054 0.526855 16.6918 0.874935 16.5767 1.37177L16.0134 3.80312C15.2241 7.20805 12.7181 10.9648 10.1246 11.6475C9.67024 10.407 8.54858 9.52635 7.23872 9.52635H1.0341C0.463278 9.52635 0 10.0262 0 10.642V30.7235C0 31.3393 0.463278 31.8391 1.0341 31.8391H7.23872C8.47206 31.8391 9.53925 31.0589 10.0391 29.9314L13.5922 31.2092C14.7539 31.6272 15.9645 31.8391 17.1895 31.8391H25.8526C27.563 31.8391 28.9549 30.3375 28.9549 28.4922C28.9549 28.0571 28.8777 27.6406 28.737 27.2591C30.0524 26.8716 31.0231 25.5707 31.0231 24.0297C31.0231 23.1736 30.7232 22.3912 30.231 21.7984C30.7232 21.2056 31.0231 20.4232 31.0231 19.5671C31.0231 18.711 30.7232 17.9286 30.231 17.3358ZM8.27282 28.4922C8.27282 29.1073 7.80885 29.6079 7.23872 29.6079H2.06821V11.7576H7.23872C7.80885 11.7576 8.27282 12.2582 8.27282 12.8733V28.4922ZM25.8526 18.4515H27.9208C28.4909 18.4515 28.9549 18.952 28.9549 19.5671C28.9549 20.1822 28.4909 20.6827 27.9208 20.6827H25.8526C25.2817 20.6827 24.8185 21.1825 24.8185 21.7984C24.8185 22.4142 25.2817 22.914 25.8526 22.914H27.9208C28.4909 22.914 28.9549 23.4146 28.9549 24.0297C28.9549 24.6447 28.4909 25.1453 27.9208 25.1453H25.8526C25.2817 25.1453 24.8185 25.6451 24.8185 26.2609C24.8185 26.8768 25.2817 27.3766 25.8526 27.3766C26.4227 27.3766 26.8867 27.8771 26.8867 28.4922C26.8867 29.1073 26.4227 29.6079 25.8526 29.6079H17.1895C16.1872 29.6079 15.1965 29.4346 14.2458 29.0924L10.341 27.6882V13.8833C11.9632 13.5508 13.5509 12.4426 14.9841 10.6286C16.3836 8.85696 17.5184 6.50817 18.0196 4.34457L18.387 2.75813H18.6138C19.7541 2.75813 20.6821 3.75923 20.6821 4.98941V6.10431C20.6821 7.60224 20.2477 10.4754 19.6921 11.7576H17.5797C17.0089 11.7576 16.5456 12.2574 16.5456 12.8733C16.5456 13.4891 17.0089 13.9889 17.5797 13.9889H27.9208C28.4909 13.9889 28.9549 14.4895 28.9549 15.1045C28.9549 15.7196 28.4909 16.2202 27.9208 16.2202H25.8526C25.2817 16.2202 24.8185 16.72 24.8185 17.3358C24.8185 17.9517 25.2817 18.4515 25.8526 18.4515Z" fill="white"/>
</svg>
