<svg width="32" height="32" viewBox="0 0 32 32" fill="none" xmlns="http://www.w3.org/2000/svg">
<path d="M30.9282 17.3358C31.4205 16.743 31.7203 15.9606 31.7203 15.1045C31.7203 13.2593 30.3284 11.7576 28.618 11.7576H22.5968C23.1931 9.80525 23.4475 7.21474 23.4475 6.10431V4.98941C23.4475 2.52906 21.5917 0.526855 19.3111 0.526855H18.277C17.8027 0.526855 17.3891 0.874935 17.2739 1.37177L16.7107 3.80312C15.9213 7.20805 13.4153 10.9648 10.8218 11.6475C10.3675 10.407 9.24585 9.52635 7.93598 9.52635H1.73137C1.16054 9.52635 0.697266 10.0262 0.697266 10.642V30.7235C0.697266 31.3393 1.16054 31.8391 1.73137 31.8391H7.93598C9.16932 31.8391 10.2365 31.0589 10.7363 29.9314L14.2895 31.2092C15.4512 31.6272 16.6617 31.8391 17.8868 31.8391H26.5498C28.2602 31.8391 29.6521 30.3375 29.6521 28.4922C29.6521 28.0571 29.5749 27.6406 29.4343 27.2591C30.7497 26.8716 31.7203 25.5707 31.7203 24.0297C31.7203 23.1736 31.4205 22.3912 30.9282 21.7984C31.4205 21.2056 31.7203 20.4232 31.7203 19.5671C31.7203 18.711 31.4205 17.9286 30.9282 17.3358ZM8.97009 28.4922C8.97009 29.1073 8.50612 29.6079 7.93598 29.6079H2.76547V11.7576H7.93598C8.50612 11.7576 8.97009 12.2582 8.97009 12.8733V28.4922ZM26.5498 18.4515H28.618C29.1882 18.4515 29.6521 18.952 29.6521 19.5671C29.6521 20.1822 29.1882 20.6827 28.618 20.6827H26.5498C25.979 20.6827 25.5157 21.1825 25.5157 21.7984C25.5157 22.4142 25.979 22.914 26.5498 22.914H28.618C29.1882 22.914 29.6521 23.4146 29.6521 24.0297C29.6521 24.6447 29.1882 25.1453 28.618 25.1453H26.5498C25.979 25.1453 25.5157 25.6451 25.5157 26.2609C25.5157 26.8768 25.979 27.3766 26.5498 27.3766C27.12 27.3766 27.5839 27.8771 27.5839 28.4922C27.5839 29.1073 27.12 29.6079 26.5498 29.6079H17.8868C16.8844 29.6079 15.8937 29.4346 14.9431 29.0924L11.0383 27.6882V13.8833C12.6605 13.5508 14.2481 12.4426 15.6814 10.6286C17.0809 8.85696 18.2157 6.50817 18.7168 4.34457L19.0843 2.75813H19.3111C20.4514 2.75813 21.3793 3.75923 21.3793 4.98941V6.10431C21.3793 7.60224 20.945 10.4754 20.3893 11.7576H18.277C17.7062 11.7576 17.2429 12.2574 17.2429 12.8733C17.2429 13.4891 17.7062 13.9889 18.277 13.9889H28.618C29.1882 13.9889 29.6521 14.4895 29.6521 15.1045C29.6521 15.7196 29.1882 16.2202 28.618 16.2202H26.5498C25.979 16.2202 25.5157 16.72 25.5157 17.3358C25.5157 17.9517 25.979 18.4515 26.5498 18.4515Z" fill="#066A59"/>
</svg>
