<svg width="34" height="32" viewBox="0 0 34 32" fill="none" xmlns="http://www.w3.org/2000/svg">
<path d="M32.3074 15.0247C32.8225 15.6174 33.1364 16.3999 33.1364 17.2559C33.1364 19.1012 31.6798 20.6028 29.89 20.6028H23.5891C24.2131 22.5552 24.4793 25.1457 24.4793 26.2562V27.3711C24.4793 29.8314 22.5372 31.8336 20.1508 31.8336H19.0686C18.5723 31.8336 18.1394 31.4855 18.019 30.9887L17.4296 28.5574C16.6035 25.1524 13.9812 21.3957 11.2672 20.7129C10.7918 21.9535 9.618 22.8341 8.2473 22.8341H1.7545C1.15716 22.8341 0.672363 22.3343 0.672363 21.7185V1.63698C0.672363 1.02115 1.15716 0.521343 1.7545 0.521343H8.2473C9.53792 0.521343 10.6547 1.30155 11.1777 2.42909L14.8959 1.15131C16.1115 0.733315 17.3783 0.521343 18.6603 0.521343H27.7257C29.5155 0.521343 30.9721 2.02299 30.9721 3.86826C30.9721 4.30336 30.8913 4.71986 30.7441 5.10141C32.1206 5.48891 33.1364 6.78975 33.1364 8.33082C33.1364 9.18689 32.8225 9.96932 32.3074 10.5621C32.8225 11.1549 33.1364 11.9373 33.1364 12.7934C33.1364 13.6494 32.8225 14.4319 32.3074 15.0247ZM9.32943 3.86826C9.32943 3.25317 8.84391 2.75262 8.2473 2.75262H2.83663V20.6028H8.2473C8.84391 20.6028 9.32943 20.1023 9.32943 19.4872V3.86826ZM27.7257 13.909H29.89C30.4866 13.909 30.9721 13.4085 30.9721 12.7934C30.9721 12.1783 30.4866 11.6777 29.89 11.6777H27.7257C27.1284 11.6777 26.6436 11.1779 26.6436 10.5621C26.6436 9.94626 27.1284 9.44646 27.7257 9.44646H29.89C30.4866 9.44646 30.9721 8.94591 30.9721 8.33082C30.9721 7.71573 30.4866 7.21518 29.89 7.21518H27.7257C27.1284 7.21518 26.6436 6.71537 26.6436 6.09954C26.6436 5.48371 27.1284 4.9839 27.7257 4.9839C28.3223 4.9839 28.8078 4.48335 28.8078 3.86826C28.8078 3.25317 28.3223 2.75262 27.7257 2.75262H18.6603C17.6114 2.75262 16.5747 2.92592 15.5798 3.26805L11.4937 4.67226V18.4772C13.1912 18.8096 14.8526 19.9178 16.3525 21.7319C17.817 23.5035 19.0044 25.8523 19.5289 28.0159L19.9134 29.6023H20.1508C21.344 29.6023 22.315 28.6012 22.315 27.3711V26.2562C22.315 24.7582 21.8605 21.8851 21.2791 20.6028H19.0686C18.4713 20.6028 17.9865 20.103 17.9865 19.4872C17.9865 18.8714 18.4713 18.3716 19.0686 18.3716H29.89C30.4866 18.3716 30.9721 17.871 30.9721 17.2559C30.9721 16.6408 30.4866 16.1403 29.89 16.1403H27.7257C27.1284 16.1403 26.6436 15.6405 26.6436 15.0247C26.6436 14.4088 27.1284 13.909 27.7257 13.909Z" fill="#CC2525"/>
</svg>
