<svg width="34" height="32" viewBox="0 0 34 32" fill="none" xmlns="http://www.w3.org/2000/svg">
<path d="M32.6102 15.0247C33.1253 15.6174 33.4391 16.3999 33.4391 17.2559C33.4391 19.1012 31.9825 20.6028 30.1927 20.6028H23.8918C24.5158 22.5552 24.782 25.1457 24.782 26.2562V27.3711C24.782 29.8314 22.84 31.8336 20.4535 31.8336H19.3714C18.875 31.8336 18.4422 31.4855 18.3217 30.9887L17.7323 28.5574C16.9063 25.1524 14.2839 21.3957 11.5699 20.7129C11.0945 21.9535 9.92073 22.8341 8.55003 22.8341H2.05723C1.45989 22.8341 0.975098 22.3343 0.975098 21.7185V1.63698C0.975098 1.02115 1.45989 0.521343 2.05723 0.521343H8.55003C9.84065 0.521343 10.9574 1.30155 11.4804 2.42909L15.1987 1.15131C16.4143 0.733315 17.6811 0.521343 18.963 0.521343H28.0284C29.8183 0.521343 31.2748 2.02299 31.2748 3.86826C31.2748 4.30336 31.194 4.71986 31.0469 5.10141C32.4233 5.48891 33.4391 6.78975 33.4391 8.33082C33.4391 9.18689 33.1253 9.96932 32.6102 10.5621C33.1253 11.1549 33.4391 11.9373 33.4391 12.7934C33.4391 13.6494 33.1253 14.4319 32.6102 15.0247ZM9.63216 3.86826C9.63216 3.25317 9.14665 2.75262 8.55003 2.75262H3.13936V20.6028H8.55003C9.14665 20.6028 9.63216 20.1023 9.63216 19.4872V3.86826ZM28.0284 13.909H30.1927C30.7893 13.909 31.2748 13.4085 31.2748 12.7934C31.2748 12.1783 30.7893 11.6777 30.1927 11.6777H28.0284C27.4311 11.6777 26.9463 11.1779 26.9463 10.5621C26.9463 9.94626 27.4311 9.44646 28.0284 9.44646H30.1927C30.7893 9.44646 31.2748 8.94591 31.2748 8.33082C31.2748 7.71573 30.7893 7.21518 30.1927 7.21518H28.0284C27.4311 7.21518 26.9463 6.71537 26.9463 6.09954C26.9463 5.48371 27.4311 4.9839 28.0284 4.9839C28.625 4.9839 29.1106 4.48335 29.1106 3.86826C29.1106 3.25317 28.625 2.75262 28.0284 2.75262H18.963C17.9141 2.75262 16.8774 2.92592 15.8826 3.26805L11.7964 4.67226V18.4772C13.4939 18.8096 15.1554 19.9178 16.6552 21.7319C18.1197 23.5035 19.3072 25.8523 19.8316 28.0159L20.2161 29.6023H20.4535C21.6467 29.6023 22.6178 28.6012 22.6178 27.3711V26.2562C22.6178 24.7582 22.1633 21.8851 21.5818 20.6028H19.3714C18.774 20.6028 18.2892 20.103 18.2892 19.4872C18.2892 18.8714 18.774 18.3716 19.3714 18.3716H30.1927C30.7893 18.3716 31.2748 17.871 31.2748 17.2559C31.2748 16.6408 30.7893 16.1403 30.1927 16.1403H28.0284C27.4311 16.1403 26.9463 15.6405 26.9463 15.0247C26.9463 14.4088 27.4311 13.909 28.0284 13.909Z" fill="white"/>
</svg>
