<svg width="21" height="11" viewBox="0 0 21 11" fill="none" xmlns="http://www.w3.org/2000/svg">
<path d="M5.06643 8.77961C7.50566 11.1134 10.2726 10.9604 10.2726 10.9604H11.5299C11.5299 10.9604 11.9113 10.9209 12.1047 10.7285C12.282 10.5509 12.2767 10.2203 12.2767 10.2203C12.2767 10.2203 12.2498 8.67599 13.0342 8.4441C13.8025 8.22207 14.7965 9.93908 15.8442 10.6002C16.6393 11.0986 17.2411 10.99 17.2411 10.99L20.0403 10.9555C20.0403 10.9555 21.5071 10.8716 20.814 9.81573C20.7549 9.72692 20.411 9.03124 18.7293 7.6004C16.9725 6.10048 17.2089 6.34225 19.3257 3.75194C20.6152 2.17308 21.131 1.21096 20.9698 0.796515C20.814 0.401801 19.8684 0.505414 19.8684 0.505414L16.7092 0.525149C16.7092 0.525149 16.4728 0.495546 16.3009 0.58929C16.1289 0.683035 16.0215 0.900128 16.0215 0.900128C16.0215 0.900128 15.5218 2.12374 14.8556 3.15987C13.4479 5.35053 12.8892 5.46894 12.6581 5.33079C12.1262 5.01502 12.2552 4.05784 12.2552 3.37696C12.2552 1.25044 12.6044 0.367264 11.5728 0.135369C11.229 0.0613604 10.9765 0.00708722 10.1007 0.0021533C8.97242 -0.00771455 8.02144 0.00708721 7.47879 0.24885C7.11882 0.411669 6.84481 0.771846 7.01136 0.791581C7.2209 0.816251 7.6937 0.909995 7.94085 1.22083C8.26322 1.62541 8.25247 2.53326 8.25247 2.53326C8.25247 2.53326 8.44052 5.03476 7.81728 5.34559C7.39283 5.55775 6.8072 5.12357 5.55535 3.1352C4.91062 2.11881 4.42707 0.988938 4.42707 0.988938C4.42707 0.988938 4.33573 0.77678 4.16918 0.668233C3.96501 0.530083 3.68563 0.490612 3.68563 0.490612L0.687632 0.510348C0.687632 0.510348 0.236321 0.520215 0.0697652 0.702771C-0.0806719 0.855722 0.0590197 1.1863 0.0590197 1.1863C0.0590197 1.1863 2.40691 6.2337 5.06643 8.77961Z" fill="#161310"/>
</svg>
