<svg width="20" height="16" viewBox="0 0 20 16" fill="none" xmlns="http://www.w3.org/2000/svg">
<path d="M20 1.89305C19.2639 2.21429 18.4741 2.43216 17.6442 2.52942C18.4915 2.02968 19.1402 1.23702 19.4476 0.295398C18.6527 0.758193 17.7754 1.09424 16.8406 1.27641C16.092 0.489895 15.0271 0 13.8461 0C11.5803 0 9.74312 1.80937 9.74312 4.03969C9.74312 4.35601 9.77936 4.66496 9.84936 4.96039C6.44001 4.79174 3.41684 3.18301 1.39347 0.738495C1.03977 1.33425 0.838563 2.02842 0.838563 2.76943C0.838563 4.1714 1.56343 5.40841 2.66324 6.13213C1.99085 6.10999 1.35847 5.92782 0.804838 5.62502V5.67549C0.804838 7.63256 2.21958 9.2659 4.09546 9.63764C3.75177 9.72873 3.38935 9.7792 3.01442 9.7792C2.74948 9.7792 2.49327 9.75335 2.24206 9.70411C2.76445 11.3104 4.27919 12.4785 6.07387 12.5105C4.67037 13.5937 2.90069 14.2374 0.978564 14.2374C0.647387 14.2374 0.321177 14.2177 0 14.182C1.81592 15.3304 3.97177 16 6.28883 16C13.8362 16 17.9617 9.84321 17.9617 4.50374L17.9479 3.98063C18.754 3.41439 19.4513 2.70297 20 1.89305Z" fill="#161310"/>
</svg>
