<svg width="13" height="20" viewBox="0 0 13 20" fill="none" xmlns="http://www.w3.org/2000/svg">
<path fill-rule="evenodd" clip-rule="evenodd" d="M1.00254 4.99853C0.985459 7.74045 3.38681 10.0099 6.3153 10.0192C9.27352 10.0288 11.6915 7.81094 11.7066 5.07462C11.7214 2.27362 9.34293 0.00748295 6.37962 1.96939e-05C3.42229 -0.00765087 1.01939 2.22635 1.00254 4.99853ZM6.35833 2.55867C7.81182 2.55992 8.97169 3.64375 8.97679 5.00517C8.98167 6.36638 7.82491 7.45726 6.37186 7.46203C4.91437 7.467 3.74452 6.39084 3.73366 5.03461C3.72235 3.66075 4.89264 2.55722 6.35833 2.55867ZM0.926347 12.474C2.19355 13.4006 3.67365 13.7786 5.31521 13.9387C5.27061 13.9832 5.23217 14.0224 5.19723 14.0581C5.1413 14.1151 5.09431 14.1631 5.04531 14.2093C4.81139 14.4285 4.57748 14.6478 4.34356 14.8671C3.37373 15.7764 2.40372 16.6859 1.43154 17.5935C1.18205 17.8263 1.0033 18.0859 0.98556 18.4257C0.959835 18.9281 1.29316 19.428 1.81698 19.6654C2.30976 19.8892 2.8154 19.8187 3.24031 19.427C4.18661 18.5547 5.12737 17.6775 6.05304 16.7865C6.28457 16.5638 6.41076 16.5153 6.67312 16.7718C7.27919 17.3648 7.9015 17.9431 8.52388 18.5216C8.82725 18.8035 9.13064 19.0855 9.43218 19.3692C9.67236 19.5954 9.9427 19.7567 10.2893 19.7791C10.8364 19.8141 11.3944 19.4867 11.6437 18.9891C11.8717 18.5338 11.7852 18.0484 11.3711 17.6569C10.5986 16.9267 9.82238 16.1997 9.04611 15.4728C8.60114 15.0561 8.15616 14.6394 7.71189 14.2221C7.64871 14.1627 7.59712 14.1099 7.51876 14.0297C7.49206 14.0024 7.46224 13.9719 7.42781 13.9368C8.32576 13.8365 9.23303 13.6853 10.0613 13.3851C10.9373 13.0674 11.7257 12.6123 12.3813 11.9832C12.8087 11.5729 12.8131 11.057 12.4662 10.5285C12.1626 10.0657 11.635 9.87147 11.0693 10.0073C10.7783 10.0774 10.5273 10.2146 10.2924 10.383C7.92191 11.8738 4.67761 11.8319 2.31597 10.3148C2.2002 10.2397 2.07934 10.1698 1.95248 10.1138C1.29737 9.82502 0.667096 9.95959 0.291637 10.4626C-0.147249 11.0504 -0.0913628 11.6208 0.463288 12.1188C0.578016 12.2218 0.704794 12.3135 0.831381 12.405C0.863113 12.428 0.894832 12.4509 0.926347 12.474Z" fill="#161310"/>
</svg>
