<svg width="17" height="17" viewBox="0 0 17 17" fill="none" xmlns="http://www.w3.org/2000/svg">
<path d="M16.2736 9.13986C16.5275 8.83696 16.6821 8.43715 16.6821 7.99971C16.6821 7.05681 15.9643 6.2895 15.0821 6.2895H11.9767C12.2843 5.29187 12.4155 3.96817 12.4155 3.40076V2.83107C12.4155 1.57387 11.4583 0.550781 10.2821 0.550781H9.7488C9.50417 0.550781 9.29084 0.728644 9.23146 0.982515L8.94097 2.22489C8.53386 3.96475 7.24142 5.88437 5.90382 6.23325C5.66951 5.59933 5.09102 5.14936 4.41546 5.14936H1.21546C0.921062 5.14936 0.682129 5.40475 0.682129 5.71943V15.9807C0.682129 16.2954 0.921062 16.5508 1.21546 16.5508H4.41546C5.05155 16.5508 5.60195 16.1521 5.85973 15.576L7.69226 16.2289C8.29137 16.4425 8.91573 16.5508 9.54755 16.5508H14.0155C14.8976 16.5508 15.6155 15.7835 15.6155 14.8406C15.6155 14.6182 15.5756 14.4054 15.5031 14.2105C16.1815 14.0124 16.6821 13.3477 16.6821 12.5603C16.6821 12.1228 16.5275 11.723 16.2736 11.4201C16.5275 11.1172 16.6821 10.7174 16.6821 10.28C16.6821 9.84256 16.5275 9.44275 16.2736 9.13986ZM4.9488 14.8406C4.9488 15.1549 4.70951 15.4106 4.41546 15.4106H1.7488V6.2895H4.41546C4.70951 6.2895 4.9488 6.54527 4.9488 6.85957V14.8406ZM14.0155 9.70993H15.0821C15.3762 9.70993 15.6155 9.9657 15.6155 10.28C15.6155 10.5943 15.3762 10.8501 15.0821 10.8501H14.0155C13.7211 10.8501 13.4821 11.1055 13.4821 11.4201C13.4821 11.7348 13.7211 11.9902 14.0155 11.9902H15.0821C15.3762 11.9902 15.6155 12.246 15.6155 12.5603C15.6155 12.8746 15.3762 13.1304 15.0821 13.1304H14.0155C13.7211 13.1304 13.4821 13.3857 13.4821 13.7004C13.4821 14.0151 13.7211 14.2705 14.0155 14.2705C14.3095 14.2705 14.5488 14.5263 14.5488 14.8406C14.5488 15.1549 14.3095 15.4106 14.0155 15.4106H9.54755C9.03057 15.4106 8.51964 15.3221 8.02933 15.1473L6.01546 14.4297V7.37567C6.85208 7.20579 7.67093 6.63952 8.41013 5.71259C9.13191 4.80731 9.71715 3.60712 9.97564 2.50157L10.1652 1.69092H10.2821C10.8702 1.69092 11.3488 2.20247 11.3488 2.83107V3.40076C11.3488 4.16617 11.1248 5.6343 10.8382 6.2895H9.7488C9.4544 6.2895 9.21546 6.54489 9.21546 6.85957C9.21546 7.17425 9.4544 7.42964 9.7488 7.42964H15.0821C15.3762 7.42964 15.6155 7.68541 15.6155 7.99971C15.6155 8.31401 15.3762 8.56978 15.0821 8.56978H14.0155C13.7211 8.56978 13.4821 8.82518 13.4821 9.13986C13.4821 9.45453 13.7211 9.70993 14.0155 9.70993Z" fill="white"/>
</svg>
