<svg width="39" height="38" viewBox="0 0 39 38" fill="none" xmlns="http://www.w3.org/2000/svg">
<path d="M12.2779 15.0407C11.7023 14.1811 11.4844 13.2843 12.332 12.466C13.0214 11.7813 13.7978 11.7727 14.9696 12.363C15.2494 11.7389 15.6628 11.2722 16.3459 11.057C17.0405 10.8675 17.6303 11.0676 18.1229 11.4671C18.373 11.2608 18.5972 11.0662 18.8188 10.935C19.5614 10.5062 20.2834 10.5844 20.9613 11.1178C22.2796 12.1706 23.572 13.2351 24.902 14.3137C25.0122 14.4194 25.1483 14.5134 25.3336 14.6474C25.3647 14.509 25.3958 14.3705 25.4386 14.2579C25.6653 13.378 26.1149 12.6461 27.0312 12.3255C27.7285 12.0727 28.3753 12.1226 28.8769 12.6113C29.3578 12.3629 29.7634 12.0864 30.2391 11.9648C30.5994 11.8642 31.0297 11.9186 31.3939 12.034C31.8333 12.1776 32.0226 12.5275 32.0279 13.0227C32.0204 15.0788 32.4886 17.0132 33.3028 18.8846C33.5037 19.2604 34.025 20.8287 34.0613 21.1855C34.5322 23.6786 33.7108 25.7291 31.8368 27.3843C30.8337 28.2729 29.7347 29.0182 28.3998 29.3103C27.8606 29.4294 27.2657 29.3561 26.6798 29.3719C26.5528 29.3671 26.4141 29.3365 26.3104 29.3833C24.8213 30.025 23.3541 29.817 21.9853 29.0669C21.1259 28.6155 20.3352 28.0396 19.5846 27.4146C17.5015 25.7743 15.4703 24.1106 13.4273 22.421C12.9348 22.0215 12.4823 21.5728 12.433 20.9109C12.3486 20.1715 12.565 19.545 13.2208 19.0622C12.9369 18.8483 12.7049 18.611 12.4326 18.423C11.2894 17.7576 11.1077 15.9737 12.2779 15.0407ZM26.2364 28.3904C27.0659 28.0157 27.7994 27.4977 28.5239 26.8905C29.8172 25.7464 30.544 23.2099 30.1834 21.4446C30.0563 20.8178 29.7996 20.2496 29.5312 19.6555C28.7312 17.7465 28.2254 15.798 28.1435 13.7512C28.1058 13.1151 27.958 12.9953 27.3269 13.1871C27.1078 13.255 26.7683 13.4706 26.6478 13.6183C26.3497 14.064 26.3018 14.3033 26.2604 14.6953C26.206 15.404 26.3021 16.1693 26.3229 16.9063C26.3359 17.2114 26.3606 17.5424 26.3101 17.8451C26.2142 18.3238 25.7593 18.5604 25.3342 18.3793C25.0594 18.2546 24.7988 18.0924 24.5526 17.8926C22.1998 16.001 19.8847 14.1234 17.5579 12.22C16.819 11.6207 15.987 12.0588 15.7965 12.6736C15.7227 12.9246 15.7551 13.0655 15.9638 13.2511C17.7371 14.6893 19.5104 16.1274 21.272 17.5397C21.5676 17.7794 21.6208 18.0353 21.4458 18.2698C21.2592 18.4785 21.0168 18.4947 20.7213 18.255C19.0089 16.8827 17.3225 15.4986 15.636 14.1145C15.181 13.7292 14.7001 13.3555 14.2192 12.9818C13.7992 12.674 13.2743 12.7556 12.9037 13.1097C12.5991 13.4027 12.5577 13.7947 12.8455 14.2245C13.0374 14.511 13.2811 14.7741 13.539 14.9997C15.3733 16.5036 17.2334 17.9958 19.0676 19.4997C19.4008 19.7535 19.4539 20.0094 19.2531 20.2557C19.0665 20.4644 18.8241 20.4806 18.5169 20.2151C16.7552 18.8027 14.9819 17.3646 13.2462 15.9406C12.939 15.675 12.6565 15.7405 12.4764 16.1018C12.2133 16.6249 12.3404 17.2517 12.7954 17.6371C14.0878 18.7016 15.4061 19.7543 16.6985 20.8188C17.2028 21.2441 17.7213 21.6319 18.2255 22.0572C18.4718 22.257 18.4991 22.5246 18.3124 22.7333C18.1518 22.9303 17.8977 22.9206 17.6255 22.7326C17.5879 22.7185 17.5646 22.6668 17.527 22.6527C16.4809 21.788 15.4089 20.9349 14.3369 20.0819C14.1023 19.908 13.83 19.7199 13.5307 19.8863C13.2313 20.0526 13.1406 20.4046 13.1912 20.7239C13.2094 20.9023 13.3027 21.1089 13.4103 21.278C13.5672 21.487 13.7759 21.6726 13.9846 21.8583C15.6101 23.1766 17.2097 24.5066 18.8495 25.7873C19.7737 26.5205 20.6461 27.2771 21.6248 27.9235C23.0753 28.8544 24.5983 29.2549 26.2364 28.3904ZM27.9512 28.4555C28.0523 28.472 28.1158 28.4744 28.1936 28.4393C28.7897 28.17 29.4093 27.9523 29.9704 27.6055C32.1607 26.305 33.4565 24.4755 33.158 21.8113C33.1605 21.1259 32.6289 19.8111 32.4422 19.3978C31.5697 17.3972 31.0431 15.3336 31.0182 13.1367C31.0169 12.8574 30.8808 12.7634 30.6384 12.7796C30.1161 12.7979 29.6871 13.0228 29.4266 13.4826C29.1519 13.9799 28.9783 14.4937 29.108 15.0571C29.3557 16.1582 29.6151 17.285 29.9522 18.3767C30.187 19.1726 30.5513 19.91 30.8378 20.6824C31.7611 23.6242 30.3501 26.7186 27.9512 28.4555ZM25.4857 17.4711C25.4312 16.9359 25.3858 16.4899 25.2885 16.0673C25.2561 15.9265 25.1744 15.7457 25.0642 15.64C24.6585 15.2945 24.2268 14.9608 23.8211 14.6154C22.6881 13.6966 21.5435 12.752 20.3847 11.8448C19.953 11.5111 19.4825 11.506 19.1145 11.7967C18.8384 12.0147 18.8358 12.078 19.1197 12.2919C20.6584 13.5561 22.2113 14.7828 23.75 16.0471C24.2776 16.524 24.857 16.9776 25.4857 17.4711Z" fill="#066A59" stroke="#066A59" stroke-width="0.5"/>
<path d="M20.8585 8.3341C20.887 8.25902 20.8947 8.06891 21.001 7.95871C22.0597 6.64068 23.1184 5.32266 24.1888 4.03047C24.3897 3.78422 24.6839 3.74461 24.855 3.91611C25.0754 4.12756 25.0534 4.35521 24.8785 4.58975C23.8197 5.90777 22.7351 7.2375 21.6387 8.5414C21.4353 8.85102 20.9933 8.77079 20.8585 8.3341Z" fill="#066A59" stroke="#066A59" stroke-width="0.5"/>
<path d="M7.41669 27.2832C7.26634 27.2268 7.06414 27.1937 6.92803 27.0997C6.731 26.9399 6.753 26.7122 6.91369 26.5152C7.1949 26.1705 7.47611 25.8258 7.75731 25.481C8.54651 24.5336 9.29812 23.572 10.0873 22.6245C10.1275 22.5753 10.1677 22.526 10.1819 22.4885C10.3802 22.3056 10.585 22.2753 10.8079 22.4234C11.0166 22.609 11.0581 22.8391 10.8715 23.0478C10.6422 23.3691 10.3752 23.6763 10.1342 23.9718C9.33072 24.9568 8.52727 25.9418 7.72382 26.9268C7.65515 27.0511 7.56313 27.1238 7.41669 27.2832Z" fill="#066A59" stroke="#066A59" stroke-width="0.5"/>
<path d="M20.0747 3.21414C20.0669 3.40425 20.0877 3.51928 20.0566 3.65772C19.8415 4.56349 19.5889 5.45513 19.3739 6.36089C19.2716 6.68703 19.0357 6.85579 18.7842 6.78279C18.5328 6.70978 18.4161 6.45149 18.4925 6.13706C18.7335 5.21958 18.9485 4.31382 19.227 3.41047C19.2464 3.24619 19.4447 3.06331 19.6119 3.01888C19.7532 2.98616 19.9126 3.13184 20.0747 3.21414Z" fill="#066A59" stroke="#066A59" stroke-width="0.5"/>
<path d="M12.6864 24.3732C13.1387 24.2 13.4576 24.4914 13.3786 24.8692C13.3423 25.1343 13.2426 25.3971 13.1687 25.6482C13.0016 26.3146 12.8229 26.9552 12.6558 27.6216C12.5651 27.9735 12.3551 28.1306 12.0661 28.0435C11.7887 27.9822 11.6837 27.7497 11.7744 27.3977C12.0011 26.5178 12.2278 25.6379 12.4545 24.7579C12.5374 24.5961 12.6579 24.4483 12.6864 24.3732Z" fill="#066A59" stroke="#066A59" stroke-width="0.5"/>
<path d="M25.1768 10.0844C24.788 10.26 24.3992 10.4357 24.0363 10.5996C23.7252 10.7401 23.4479 10.6788 23.3312 10.4205C23.2145 10.1623 23.3259 9.9253 23.6512 9.74724C24.4288 9.39594 25.1805 9.05635 25.9582 8.70505C26.2951 8.55282 26.5842 8.63994 26.7009 8.89823C26.8176 9.15653 26.6802 9.40518 26.3432 9.55741C25.9285 9.74477 25.5397 9.92043 25.1768 10.0844Z" fill="#066A59" stroke="#066A59" stroke-width="0.5"/>
<path d="M6.71955 20.9732C7.10836 20.7976 7.49717 20.6219 7.86006 20.458C8.17111 20.3175 8.42257 20.3905 8.53925 20.6488C8.64427 20.8812 8.54451 21.144 8.25938 21.2728C7.45584 21.6358 6.6523 21.9988 5.82284 22.3736C5.53771 22.5024 5.31218 22.4177 5.20716 22.1852C5.09047 21.9269 5.17598 21.7017 5.46111 21.5729C5.86417 21.3597 6.30482 21.1606 6.71955 20.9732Z" fill="#066A59" stroke="#066A59" stroke-width="0.5"/>
</svg>
