<svg width="37" height="11" viewBox="0 0 37 11" fill="none" xmlns="http://www.w3.org/2000/svg">
<path d="M5.06158 6.4963L5.42027 4.66297H3.66665L3.30796 6.4963H5.06158ZM4.14491 10.8006L4.70288 8.13035H2.94926L2.3913 10.8006H0.518114L1.07608 8.13035H0V6.45644H1.43478L1.79347 4.62312H0V2.98906H2.11231L2.67028 0.199219H4.54346L3.98549 2.98906H5.73911L6.29708 0.199219H8.17026L7.61229 2.98906H8.56881V4.62312H7.2536L6.8949 6.45644H8.56881V8.13035H6.53621L5.97824 10.8006H4.14491Z" fill="white"/>
<path d="M14.6268 11C13.5507 11 12.6739 10.7608 11.9964 10.2427C11.3188 9.7246 11 9.00721 11 8.13041C11 6.97461 11.6377 6.05795 12.8732 5.38042C11.837 4.78259 11.3188 3.94564 11.3188 2.90941C11.3188 2.07246 11.6377 1.39492 12.2355 0.836953C12.8333 0.278984 13.6703 0 14.6667 0C15.7029 0 16.5 0.23913 17.0579 0.757244C17.6159 1.27536 17.8949 1.91304 17.8949 2.67028C17.8949 3.74636 17.3768 4.62317 16.3406 5.221C17.0181 5.57969 17.5362 5.97824 17.855 6.41664C18.1739 6.85505 18.3333 7.37316 18.3333 8.01084C18.3333 8.88765 17.9746 9.60504 17.2971 10.163C16.6195 10.721 15.7427 11 14.6268 11ZM13.3913 2.90941C13.3913 3.50723 13.8696 4.02535 14.7862 4.4239C15.5435 4.02535 15.942 3.50723 15.942 2.86955C15.942 2.55072 15.8224 2.27173 15.5833 2.07246C15.3442 1.87318 15.0652 1.75362 14.6667 1.75362C14.2681 1.75362 13.9891 1.87318 13.75 2.11231C13.5109 2.31159 13.3913 2.59057 13.3913 2.90941ZM14.6667 9.24634C15.1051 9.24634 15.4637 9.12678 15.7427 8.88765C16.0217 8.64852 16.1811 8.32968 16.1811 7.93113C16.1811 7.21374 15.5833 6.65577 14.4275 6.21737C13.5906 6.61592 13.1522 7.21374 13.1522 7.93113C13.1522 8.32968 13.3116 8.64852 13.5906 8.88765C13.9094 9.12678 14.2681 9.24634 14.6667 9.24634Z" fill="white"/>
<path d="M26.3041 9.60522C25.6266 10.5219 24.6701 11.0001 23.4346 11.0001C22.1991 11.0001 21.2426 10.5219 20.565 9.60522C19.8875 8.6487 19.5288 7.29364 19.5288 5.50016C19.5288 3.70669 19.8875 2.35163 20.565 1.43496C21.2426 0.518298 22.1991 0.0400391 23.4346 0.0400391C24.6701 0.0400391 25.6266 0.518298 26.3041 1.43496C26.9817 2.35163 27.3404 3.70669 27.3404 5.50016C27.3404 7.29364 26.9817 8.6487 26.3041 9.60522ZM23.4346 9.04725C23.9926 9.04725 24.3513 8.76827 24.6302 8.2103C24.8694 7.65233 25.0288 6.73567 25.0288 5.46031C25.0288 4.22481 24.9092 3.30814 24.6701 2.79003C24.431 2.23206 24.0324 1.95308 23.4744 1.95308C22.9165 1.95308 22.5179 2.23206 22.2788 2.79003C22.0397 3.348 21.9201 4.22481 21.9201 5.46031C21.9201 6.73567 22.0397 7.65233 22.2788 8.2103C22.4781 8.76827 22.9165 9.04725 23.4346 9.04725Z" fill="white"/>
<path d="M35.3911 9.60522C34.7135 10.5219 33.757 11.0001 32.5215 11.0001C31.286 11.0001 30.3295 10.5219 29.6519 9.60522C28.9744 8.6487 28.6157 7.29364 28.6157 5.50016C28.6157 3.70669 28.9744 2.35163 29.6519 1.43496C30.3295 0.518298 31.286 0.0400391 32.5215 0.0400391C33.757 0.0400391 34.7135 0.518298 35.3911 1.43496C36.0686 2.35163 36.4273 3.70669 36.4273 5.50016C36.3874 7.29364 36.0686 8.6487 35.3911 9.60522ZM32.5215 9.04725C33.0795 9.04725 33.4382 8.76827 33.7172 8.2103C33.9563 7.65233 34.1157 6.73567 34.1157 5.46031C34.1157 4.22481 33.9961 3.30814 33.757 2.79003C33.5179 2.23206 33.1193 1.95308 32.5614 1.95308C32.0034 1.95308 31.6048 2.23206 31.3657 2.79003C31.1266 3.348 31.007 4.22481 31.007 5.46031C31.007 6.73567 31.1266 7.65233 31.3657 8.2103C31.565 8.76827 31.9635 9.04725 32.5215 9.04725Z" fill="white"/>
</svg>
