<svg width="18" height="16" viewBox="0 0 18 16" fill="none" xmlns="http://www.w3.org/2000/svg">
<path d="M12.5369 1.3042C13.6168 1.3042 14.6031 1.74846 15.314 2.55517C15.9922 3.32474 16.3657 4.35538 16.3657 5.45725C16.3657 6.65667 15.8975 7.77223 14.892 8.96799C13.9935 10.0367 12.7007 11.1383 11.2039 12.4138L11.1985 12.4184C10.6423 12.8924 10.0672 13.3825 9.45505 13.9181L9.43661 13.9343C9.35699 14.0039 9.25772 14.0388 9.15845 14.0388C9.05918 14.0388 8.95991 14.004 8.88029 13.9343L8.86185 13.9181C8.24774 13.3808 7.67091 12.8892 7.1131 12.4139C5.61616 11.1383 4.32344 10.0367 3.42486 8.96799C2.41945 7.77225 1.95117 6.65667 1.95117 5.45725C1.95117 4.35538 2.32468 3.32474 3.00284 2.5552C3.71383 1.74849 4.70013 1.3042 5.78004 1.3042C7.29886 1.3042 8.26044 2.2113 8.79963 2.97229C8.93956 3.16976 9.05853 3.36776 9.15845 3.55408C9.25837 3.36776 9.37737 3.16976 9.51727 2.97229C10.0565 2.2113 11.018 1.3042 12.5369 1.3042Z" stroke="#161310" stroke-width="2"/>
</svg>
