<svg width="21" height="12" viewBox="0 0 21 12" fill="none" xmlns="http://www.w3.org/2000/svg">
<path d="M20.2138 5.40158C17.1783 1.73643 13.9145 -0.0657747 10.5127 0.0210604C5.02436 0.1739 1.2464 5.20958 1.08819 5.42366C1.08088 5.4337 1.07584 5.44474 1.06955 5.45528C1.06426 5.46331 1.05947 5.4716 1.05468 5.48038C1.04335 5.50046 1.03377 5.52053 1.02571 5.54136C1.02193 5.5514 1.01866 5.56144 1.01538 5.57148C1.00908 5.59131 1.00379 5.61113 1.00001 5.63121C0.997494 5.64426 0.995982 5.65731 0.994722 5.67061C0.992959 5.68768 0.991699 5.70475 0.991699 5.72206C0.991699 5.73913 0.992959 5.75619 0.994722 5.77326C0.996234 5.78656 0.997746 5.79936 1.00001 5.81266C1.00379 5.83274 1.00908 5.85257 1.01538 5.87239C1.01866 5.88243 1.02193 5.89247 1.02571 5.90251C1.03377 5.92334 1.0436 5.94342 1.05468 5.96349C1.05947 5.97203 1.064 5.98006 1.06955 5.98859C1.07584 5.99888 1.08088 6.01017 1.08819 6.02021C1.2464 6.23454 5.02436 11.27 10.5127 11.4228C10.5976 11.4251 10.682 11.4263 10.7664 11.4263C14.0765 11.4263 17.2536 9.61609 20.2138 6.0423C20.2916 5.94844 20.3269 5.83475 20.3266 5.72206C20.3269 5.60913 20.2916 5.49544 20.2138 5.40158ZM10.5469 10.4197C6.27973 10.304 3.01899 6.77638 2.13798 5.72206C3.01899 4.66774 6.27948 1.13988 10.5469 1.02418C13.5253 0.946632 16.4182 2.52723 19.1632 5.72206C16.4184 8.91714 13.5283 10.5055 10.5469 10.4197Z" fill="#9A8571"/>
<path d="M10.9108 2.41772C9.08153 2.41772 7.59363 3.89995 7.59363 5.72199C7.59363 7.54428 9.08153 9.02651 10.9108 9.02651C12.7401 9.02651 14.228 7.54428 14.228 5.72199C14.228 3.89995 12.7401 2.41772 10.9108 2.41772ZM10.9108 8.02263C9.63728 8.02263 8.60135 6.99064 8.60135 5.72199C8.60135 4.45359 9.63728 3.4216 10.9108 3.4216C12.1843 3.4216 13.2202 4.45359 13.2202 5.72199C13.2202 6.99039 12.1843 8.02263 10.9108 8.02263Z" fill="#9A8571"/>
</svg>
