<svg width="23" height="21" viewBox="0 0 23 21" fill="none" xmlns="http://www.w3.org/2000/svg">
<path d="M20.1009 7.3252H2.70312C2.01277 7.3252 1.45312 7.88484 1.45312 8.5752V18.531C1.45312 19.2214 2.01277 19.781 2.70312 19.781H20.1009C20.7913 19.781 21.3509 19.2214 21.3509 18.531V8.5752C21.3509 7.88484 20.7913 7.3252 20.1009 7.3252Z" stroke="#F1EAE0" stroke-width="1.5"/>
<path d="M16.7515 7.33936V6.21134C16.7515 3.25688 14.3565 0.861816 11.402 0.861816C8.44755 0.861816 6.05249 3.25688 6.05249 6.21134V7.33936" stroke="#F1EAE0" stroke-width="1.5"/>
<path d="M9.6673 13.9642L9.07211 14.4205L9.6673 13.9642ZM13.1365 13.9637L12.5412 13.5076L13.1365 13.9637ZM12.813 12.7113C12.813 13.0083 12.7134 13.2828 12.5412 13.5076L13.7318 14.4199C14.0955 13.9454 14.313 13.3531 14.313 12.7113H12.813ZM11.4017 11.3618C12.2018 11.3618 12.813 11.9864 12.813 12.7113H14.313C14.313 11.1172 12.9889 9.86182 11.4017 9.86182V11.3618ZM9.99048 12.7113C9.99048 11.9864 10.6017 11.3618 11.4017 11.3618V9.86182C9.81454 9.86182 8.49048 11.1172 8.49048 12.7113H9.99048ZM10.2625 13.5078C10.0901 13.2831 9.99048 13.0085 9.99048 12.7113H8.49048C8.49048 13.3533 8.70821 13.9459 9.07211 14.4205L10.2625 13.5078ZM11.4019 15.7443C11.2296 15.7443 11.0898 15.6046 11.0898 15.4323H9.58983C9.58983 16.4331 10.4011 17.2443 11.4019 17.2443V15.7443ZM11.714 15.4323C11.714 15.6046 11.5743 15.7443 11.4019 15.7443V17.2443C12.4027 17.2443 13.214 16.433 13.214 15.4323H11.714ZM9.07211 14.4205C9.42468 14.8804 9.58983 15.1707 9.58983 15.4323H11.0898C11.0898 14.5937 10.5793 13.921 10.2625 13.5078L9.07211 14.4205ZM12.5412 13.5076C12.2245 13.9208 11.714 14.5937 11.714 15.4323H13.214C13.214 15.1705 13.3792 14.8801 13.7318 14.4199L12.5412 13.5076Z" fill="#F1EAE0"/>
<rect x="1.77478" y="7.50554" width="19.5762" height="12.2755" stroke="#161310" stroke-width="1.5"/>
<path d="M17.3451 7.50554C17.3451 3.83631 14.7563 0.861816 11.5628 0.861816C8.36934 0.861816 5.78052 3.83631 5.78052 7.50554" stroke="#161310" stroke-width="1.5"/>
<path d="M12.5349 14.6745L12.138 14.0381L11.7849 14.2584V14.6745H12.5349ZM10.2693 14.6746H11.0193V14.2584L10.6661 14.0382L10.2693 14.6746ZM12.796 12.854C12.796 13.3526 12.5347 13.7908 12.138 14.0381L12.9318 15.3109C13.7493 14.8011 14.296 13.8917 14.296 12.854H12.796ZM11.4021 11.4602C12.1719 11.4602 12.796 12.0842 12.796 12.854H14.296C14.296 11.2558 13.0003 9.96016 11.4021 9.96016V11.4602ZM10.0082 12.854C10.0082 12.0842 10.6322 11.4602 11.4021 11.4602V9.96016C9.80382 9.96016 8.50818 11.2558 8.50818 12.854H10.0082ZM10.6661 14.0382C10.2694 13.7908 10.0082 13.3526 10.0082 12.854H8.50818C8.50818 13.8918 9.0549 14.8012 9.87245 15.311L10.6661 14.0382ZM11.0193 15.1978V14.6746H9.51929V15.1978H11.0193ZM11.4021 15.5806C11.1907 15.5806 11.0193 15.4093 11.0193 15.1978H9.51929C9.51929 16.2377 10.3622 17.0806 11.4021 17.0806V15.5806ZM11.7849 15.1978C11.7849 15.4093 11.6135 15.5806 11.4021 15.5806V17.0806C12.4419 17.0806 13.2849 16.2377 13.2849 15.1978H11.7849ZM11.7849 14.6745V15.1978H13.2849V14.6745H11.7849Z" fill="#161310"/>
</svg>
