<svg width="27" height="28" viewBox="0 0 27 28" fill="none" xmlns="http://www.w3.org/2000/svg">
<path d="M21.4272 17.8334C19.8564 17.8334 18.4558 18.5819 17.5599 19.7387L10.0579 15.5482C10.2337 15.0435 10.3301 14.4992 10.3301 13.9378C10.3301 13.3708 10.2337 12.8321 10.0523 12.3217L17.5486 8.13694C18.4388 9.29938 19.8451 10.0536 21.4215 10.0536C24.1093 10.0536 26.3037 7.86476 26.3037 5.17131C26.3037 2.47785 24.1149 0.289062 21.4215 0.289062C18.728 0.289062 16.5392 2.47785 16.5392 5.17131C16.5392 5.73835 16.6356 6.28271 16.8171 6.78738L9.32644 10.9722C8.43618 9.80405 7.02991 9.05555 5.45353 9.05555C2.76575 9.05555 0.571289 11.2443 0.571289 13.9378C0.571289 16.6313 2.76575 18.82 5.4592 18.82C7.03558 18.82 8.44185 18.0659 9.33778 16.8978L16.8341 21.0882C16.6526 21.5986 16.5506 22.1486 16.5506 22.7156C16.5506 25.4034 18.7394 27.5979 21.4328 27.5979C24.1263 27.5979 26.3151 25.4091 26.3151 22.7156C26.3151 20.0222 24.1206 17.8334 21.4272 17.8334ZM21.4272 1.82575C23.2757 1.82575 24.7784 3.32842 24.7784 5.17698C24.7784 7.02554 23.2757 8.5282 21.4272 8.5282C19.5786 8.5282 18.0759 7.02554 18.0759 5.17698C18.0759 3.32842 19.5843 1.82575 21.4272 1.82575ZM5.4592 17.289C3.61064 17.289 2.10798 15.7864 2.10798 13.9378C2.10798 12.0892 3.61064 10.5866 5.4592 10.5866C7.30777 10.5866 8.81043 12.0892 8.81043 13.9378C8.81043 15.7864 7.3021 17.289 5.4592 17.289ZM21.4272 26.0612C19.5786 26.0612 18.0759 24.5585 18.0759 22.71C18.0759 20.8614 19.5786 19.3587 21.4272 19.3587C23.2757 19.3587 24.7784 20.8614 24.7784 22.71C24.7784 24.5585 23.2757 26.0612 21.4272 26.0612Z" fill="#161310" fill-opacity="0.9"/>
</svg>
