<svg width="377" height="501" viewBox="0 0 377 501" fill="none" xmlns="http://www.w3.org/2000/svg">
<mask id="mask0" mask-type="alpha" maskUnits="userSpaceOnUse" x="0" y="0" width="377" height="501">
<rect x="0.00732422" y="0.690918" width="376.612" height="499.741" fill="#F9F6EF"/>
</mask>
<g mask="url(#mask0)">
<path d="M76.3638 344.793H131.502" stroke="#F2EEE5" stroke-width="3.89091" stroke-miterlimit="10" stroke-linecap="round" stroke-linejoin="round"/>
<path d="M268.649 410.605H359.979H486.166H580.312C597.665 410.605 612.81 404.4 621.258 395.06C625.749 390.134 628.26 384.313 628.26 378.108V377.469" stroke="#F2EEE5" stroke-width="3.89091" stroke-miterlimit="10" stroke-linecap="round" stroke-linejoin="round"/>
<path d="M118.637 344.792H141.918C204.347 344.792 186.641 410.413 243.189 410.413H282.215" stroke="#F2EEE5" stroke-width="3.89091" stroke-miterlimit="10" stroke-linecap="round" stroke-linejoin="round"/>
<path d="M249.804 260.477C249.804 254.907 254.093 250.426 259.423 250.426C260.035 250.426 260.709 250.49 261.261 250.618C261.69 245.496 265.794 241.463 270.818 241.463C272.533 241.463 274.188 241.911 275.535 242.744" stroke="#F2EEE5" stroke-width="3.99894" stroke-miterlimit="10" stroke-linecap="round" stroke-linejoin="round"/>
<path d="M237.061 283.205C237.061 277.507 232.65 272.833 227.136 272.833C226.462 272.833 225.85 272.897 225.237 273.025C224.808 267.712 220.519 263.614 215.373 263.614C213.597 263.614 211.942 264.126 210.472 264.959C209.492 260.349 205.51 256.828 200.792 256.828C200.057 256.828 199.322 256.956 198.587 257.084C196.749 254.715 193.992 253.243 190.867 253.243C186.395 253.243 182.658 256.316 181.371 260.605C181.249 260.605 181.065 260.605 180.942 260.605C176.899 260.605 173.407 263.166 171.875 266.751C170.527 266.047 168.996 265.599 167.342 265.599C162.502 265.599 158.519 269.184 157.6 273.986C157.539 273.986 157.478 273.986 157.417 273.986C151.964 273.986 147.492 278.595 147.492 284.357" stroke="#F2EEE5" stroke-width="3.89091" stroke-miterlimit="10" stroke-linecap="round" stroke-linejoin="round"/>
<path d="M96.2134 331.22C96.2134 325.522 91.8023 320.849 86.2884 320.849C85.6145 320.849 85.0019 320.913 84.3892 321.041C83.9604 315.727 79.6718 311.63 74.5256 311.63C72.7489 311.63 71.0947 312.142 69.6244 312.974C68.6441 308.365 64.6619 304.843 59.9445 304.843C59.2093 304.843 58.4742 304.971 57.739 305.1C55.901 302.731 53.1441 301.258 50.0196 301.258C45.5473 301.258 41.8101 304.331 40.5235 308.621C40.401 308.621 40.2172 308.621 40.0947 308.621C36.0512 308.621 32.5591 311.182 31.0275 314.767C29.6796 314.062 28.148 313.614 26.4939 313.614C21.6539 313.614 17.6717 317.199 16.7528 322.001C16.6915 322.001 16.6302 322.001 16.569 322.001C11.1164 322.001 6.64404 326.61 6.64404 332.372" stroke="#F2EEE5" stroke-width="3.89091" stroke-miterlimit="10" stroke-linecap="round" stroke-linejoin="round"/>
<path d="M255.012 357.917V390.695H518.758V357.917" stroke="#F2EEE5" stroke-width="3.89091" stroke-miterlimit="10" stroke-linecap="round" stroke-linejoin="round"/>
<path d="M426.799 343.768H346.971" stroke="#F2EEE5" stroke-width="3.89091" stroke-miterlimit="10" stroke-linecap="round" stroke-linejoin="round"/>
<path d="M509.201 364.639H266.408" stroke="#F2EEE5" stroke-width="3.89091" stroke-miterlimit="10" stroke-linecap="round" stroke-linejoin="round"/>
<path d="M338.333 357.917H252.44" stroke="#F2EEE5" stroke-width="3.89091" stroke-miterlimit="10" stroke-linecap="round" stroke-linejoin="round"/>
<path d="M338.332 370.593H324.67V390.568H338.332V370.593Z" stroke="#F2EEE5" stroke-width="3.89091" stroke-miterlimit="10" stroke-linecap="round" stroke-linejoin="round"/>
<path d="M325.957 370.529H312.294V390.504H325.957V370.529Z" stroke="#F2EEE5" stroke-width="3.89091" stroke-miterlimit="10" stroke-linecap="round" stroke-linejoin="round"/>
<path d="M313.52 370.465H299.858V390.44H313.52V370.465Z" stroke="#F2EEE5" stroke-width="3.89091" stroke-miterlimit="10" stroke-linecap="round" stroke-linejoin="round"/>
<path d="M301.145 370.465H287.483V390.44H301.145V370.465Z" stroke="#F2EEE5" stroke-width="3.89091" stroke-miterlimit="10" stroke-linecap="round" stroke-linejoin="round"/>
<path d="M288.707 370.401H275.045V390.375H288.707V370.401Z" stroke="#F2EEE5" stroke-width="3.89091" stroke-miterlimit="10" stroke-linecap="round" stroke-linejoin="round"/>
<path d="M276.332 370.337H262.67V390.311H276.332V370.337Z" stroke="#F2EEE5" stroke-width="3.89091" stroke-miterlimit="10" stroke-linecap="round" stroke-linejoin="round"/>
<path d="M349.36 333.397H338.333V357.917" stroke="#F2EEE5" stroke-width="3.89091" stroke-miterlimit="10" stroke-linecap="round" stroke-linejoin="round"/>
<path d="M366.515 364.767V380.452" stroke="#F2EEE5" stroke-width="3.89091" stroke-miterlimit="10" stroke-linecap="round" stroke-linejoin="round"/>
<path d="M338.333 366.624V390.696" stroke="#F2EEE5" stroke-width="3.89091" stroke-miterlimit="10" stroke-linecap="round" stroke-linejoin="round"/>
<path d="M417.855 386.214H357.448" stroke="#F2EEE5" stroke-width="3.89091" stroke-miterlimit="10" stroke-linecap="round" stroke-linejoin="round"/>
<path d="M415.037 381.733H360.328" stroke="#F2EEE5" stroke-width="3.89091" stroke-miterlimit="10" stroke-linecap="round" stroke-linejoin="round"/>
<path d="M399.046 338.327H374.724" stroke="#F2EEE5" stroke-width="3.89091" stroke-miterlimit="10" stroke-linecap="round" stroke-linejoin="round"/>
<path d="M381.158 324.882H392.614L396.535 310.222H377.482L381.158 324.882Z" stroke="#F2EEE5" stroke-width="3.89091" stroke-miterlimit="10" stroke-linecap="round" stroke-linejoin="round"/>
<path d="M386.241 255.676L375.765 261.117L386.548 263.87" stroke="#F2EEE5" stroke-width="3.89091" stroke-miterlimit="10" stroke-linecap="round" stroke-linejoin="round"/>
<path d="M400.517 310.222H372.764" stroke="#F2EEE5" stroke-width="3.89091" stroke-miterlimit="10" stroke-linecap="round" stroke-linejoin="round"/>
<path d="M396.228 338.583H377.114V343.769H396.228V338.583Z" stroke="#F2EEE5" stroke-width="3.89091" stroke-miterlimit="10" stroke-linecap="round" stroke-linejoin="round"/>
<path d="M349.36 334.55V343.001" stroke="#F2EEE5" stroke-width="3.89091" stroke-miterlimit="10" stroke-linecap="round" stroke-linejoin="round"/>
<path d="M351.75 338.454H334.412" stroke="#F2EEE5" stroke-width="3.89091" stroke-miterlimit="10" stroke-linecap="round" stroke-linejoin="round"/>
<path d="M338.333 324.946V333.461" stroke="#F2EEE5" stroke-width="3.89091" stroke-miterlimit="10" stroke-linecap="round" stroke-linejoin="round"/>
<path d="M351.75 351.131H334.596" stroke="#F2EEE5" stroke-width="3.89091" stroke-miterlimit="10" stroke-linecap="round" stroke-linejoin="round"/>
<path d="M250.969 349.082H281.295" stroke="#F2EEE5" stroke-width="3.89091" stroke-miterlimit="10" stroke-linecap="round" stroke-linejoin="round"/>
<path d="M255.135 350.875V356.765" stroke="#F2EEE5" stroke-width="3.89091" stroke-miterlimit="10" stroke-linecap="round" stroke-linejoin="round"/>
<path d="M259.975 350.683V356.573" stroke="#F2EEE5" stroke-width="3.89091" stroke-miterlimit="10" stroke-linecap="round" stroke-linejoin="round"/>
<path d="M264.816 350.491V356.381" stroke="#F2EEE5" stroke-width="3.89091" stroke-miterlimit="10" stroke-linecap="round" stroke-linejoin="round"/>
<path d="M269.655 350.299V356.189" stroke="#F2EEE5" stroke-width="3.89091" stroke-miterlimit="10" stroke-linecap="round" stroke-linejoin="round"/>
<path d="M274.495 350.043V355.997" stroke="#F2EEE5" stroke-width="3.89091" stroke-miterlimit="10" stroke-linecap="round" stroke-linejoin="round"/>
<path d="M279.274 349.851V355.805" stroke="#F2EEE5" stroke-width="3.89091" stroke-miterlimit="10" stroke-linecap="round" stroke-linejoin="round"/>
<path d="M256.36 390.567H242.391H221.868V326.995" stroke="#F2EEE5" stroke-width="3.89091" stroke-miterlimit="10" stroke-linecap="round" stroke-linejoin="round"/>
<path d="M321.3 331.476H222.051H79.5483" stroke="#F2EEE5" stroke-width="3.89091" stroke-miterlimit="10" stroke-linecap="round" stroke-linejoin="round"/>
<path d="M74.4644 285.317H392.245H597.115L597.054 315.983" stroke="#F2EEE5" stroke-width="3.89091" stroke-miterlimit="10" stroke-linecap="round" stroke-linejoin="round"/>
<path d="M208.512 338.519H155.64H79.7329" stroke="#F2EEE5" stroke-width="3.89091" stroke-miterlimit="10" stroke-linecap="round" stroke-linejoin="round"/>
<path d="M221.867 344.984H109.752" stroke="#F2EEE5" stroke-width="3.89091" stroke-miterlimit="10" stroke-linecap="round" stroke-linejoin="round"/>
<path d="M166.484 331.604V301.963H75.0767V311.949" stroke="#F2EEE5" stroke-width="3.89091" stroke-miterlimit="10" stroke-linecap="round" stroke-linejoin="round"/>
<path d="M176.409 261.502V253.243H69.3179" stroke="#F2EEE5" stroke-width="3.89091" stroke-miterlimit="10" stroke-linecap="round" stroke-linejoin="round"/>
<path d="M455.899 284.357C455.899 270.528 445.729 267.776 440.705 267.776C438.867 267.776 437.213 268.352 435.804 269.312V269.248C435.804 264.062 431.761 259.773 426.737 259.773C423.49 259.773 420.672 261.566 419.079 264.254C417.486 261.566 414.668 259.773 411.421 259.773C406.458 259.773 402.354 263.998 402.354 269.248C402.354 269.504 402.354 269.76 402.415 270.016C401.312 269.504 400.148 269.248 398.861 269.248C394.818 269.248 391.387 272.065 390.223 275.906C388.691 274.562 386.67 273.729 384.464 273.729C379.502 273.729 375.397 277.955 375.397 283.205" stroke="#F2EEE5" stroke-width="3.89091" stroke-miterlimit="10" stroke-linecap="round" stroke-linejoin="round"/>
<path d="M209.001 284.357C206.857 279.556 202.14 278.403 199.444 278.403C198.158 278.403 196.994 278.787 196.013 279.492C196.013 279.492 196.013 279.492 196.013 279.428C196.013 275.778 193.195 272.833 189.703 272.833C187.436 272.833 185.476 274.114 184.312 275.971C183.209 274.114 181.187 272.833 178.92 272.833C175.428 272.833 172.61 275.778 172.61 279.428C172.61 279.62 172.61 279.812 172.61 280.004C171.875 279.684 171.017 279.492 170.159 279.492C167.341 279.492 164.891 281.476 164.094 284.165" stroke="#F2EEE5" stroke-width="3.89091" stroke-miterlimit="10" stroke-linecap="round" stroke-linejoin="round"/>
<path d="M258.442 282.948C260.035 277.315 264.323 276.738 267.019 276.738C268.183 276.738 269.286 277.123 270.205 277.763C270.205 277.763 270.205 277.763 270.205 277.699C270.205 274.306 272.839 271.553 276.086 271.553" stroke="#F2EEE5" stroke-width="3.89091" stroke-miterlimit="10" stroke-linecap="round" stroke-linejoin="round"/>
<path d="M343.847 233.973H276.272V285.317H343.847V233.973Z" stroke="#F2EEE5" stroke-width="3.89091" stroke-miterlimit="10" stroke-linecap="round" stroke-linejoin="round"/>
<path d="M343.479 233.973H410.748V259.709" stroke="#F2EEE5" stroke-width="3.89091" stroke-miterlimit="10" stroke-linecap="round" stroke-linejoin="round"/>
<path d="M249.804 285.317V204.523H200.424V256.828" stroke="#F2EEE5" stroke-width="3.89091" stroke-miterlimit="10" stroke-linecap="round" stroke-linejoin="round"/>
<path d="M317.074 331.477V357.917" stroke="#F2EEE5" stroke-width="3.59525" stroke-miterlimit="10" stroke-linecap="round" stroke-linejoin="round"/>
<path d="M344.949 259.773H275.474" stroke="#F2EEE5" stroke-width="3.67939" stroke-miterlimit="10" stroke-linecap="round" stroke-linejoin="round"/>
<path d="M287.237 224.946V233.973" stroke="#F2EEE5" stroke-width="3.89091" stroke-miterlimit="10" stroke-linecap="round" stroke-linejoin="round"/>
<path d="M241.105 193.383V202.41" stroke="#F2EEE5" stroke-width="3.89091" stroke-miterlimit="10" stroke-linecap="round" stroke-linejoin="round"/>
<path d="M293.486 312.718C293.486 309.197 288.83 306.316 283.071 306.316H182.291" stroke="#F2EEE5" stroke-width="3.89091" stroke-miterlimit="10" stroke-linecap="round" stroke-linejoin="round"/>
<path d="M356.16 318.16C356.16 316.303 352.423 314.831 347.89 314.831H281.111" stroke="#F2EEE5" stroke-width="3.89091" stroke-miterlimit="10" stroke-linecap="round" stroke-linejoin="round"/>
<path d="M308.926 284.997L324.855 313.742" stroke="#F2EEE5" stroke-width="3.89091" stroke-miterlimit="10" stroke-linecap="round" stroke-linejoin="round"/>
<path d="M299.246 285.637L315.174 314.382" stroke="#F2EEE5" stroke-width="3.89091" stroke-miterlimit="10" stroke-linecap="round" stroke-linejoin="round"/>
<path d="M311.805 290.182H301.757" stroke="#F2EEE5" stroke-width="3.89091" stroke-miterlimit="10" stroke-linecap="round" stroke-linejoin="round"/>
<path d="M315.112 296.584H305.249" stroke="#F2EEE5" stroke-width="3.89091" stroke-miterlimit="10" stroke-linecap="round" stroke-linejoin="round"/>
<path d="M318.36 302.986H308.742" stroke="#F2EEE5" stroke-width="3.89091" stroke-miterlimit="10" stroke-linecap="round" stroke-linejoin="round"/>
<path d="M321.606 309.325H312.233" stroke="#F2EEE5" stroke-width="3.89091" stroke-miterlimit="10" stroke-linecap="round" stroke-linejoin="round"/>
<path d="M212.74 306.636L199.139 331.092" stroke="#F2EEE5" stroke-width="3.59525" stroke-miterlimit="10" stroke-linecap="round" stroke-linejoin="round"/>
<path d="M221.009 307.149L207.409 331.605" stroke="#F2EEE5" stroke-width="3.59525" stroke-miterlimit="10" stroke-linecap="round" stroke-linejoin="round"/>
<path d="M210.288 312.014H218.865" stroke="#F2EEE5" stroke-width="3.59525" stroke-miterlimit="10" stroke-linecap="round" stroke-linejoin="round"/>
<path d="M206.062 318.544H214.394" stroke="#F2EEE5" stroke-width="3.59525" stroke-miterlimit="10" stroke-linecap="round" stroke-linejoin="round"/>
<path d="M201.895 325.138H209.921" stroke="#F2EEE5" stroke-width="3.59525" stroke-miterlimit="10" stroke-linecap="round" stroke-linejoin="round"/>
<path d="M318.483 331.476L307.21 323.985H234.121L222.052 331.476" stroke="#F2EEE5" stroke-width="3.59525" stroke-miterlimit="10" stroke-linecap="round" stroke-linejoin="round"/>
<path d="M203.488 390.695H61.9663" stroke="#F2EEE5" stroke-width="3.40706" stroke-miterlimit="10" stroke-linecap="round" stroke-linejoin="round"/>
<path d="M152.21 344.984H143.02V378.723H152.21V344.984Z" stroke="#F2EEE5" stroke-width="3.40706" stroke-miterlimit="10" stroke-linecap="round" stroke-linejoin="round"/>
<path d="M126.907 344.984H117.717V378.723H126.907V344.984Z" stroke="#F2EEE5" stroke-width="3.40706" stroke-miterlimit="10" stroke-linecap="round" stroke-linejoin="round"/>
<path d="M103.933 344.729H94.7437V378.467H103.933V344.729Z" stroke="#F2EEE5" stroke-width="3.40706" stroke-miterlimit="10" stroke-linecap="round" stroke-linejoin="round"/>
<path d="M160.296 295.817L166.607 302.027L160.296 295.817Z" stroke="#F2EEE5" stroke-width="3.89091" stroke-miterlimit="10" stroke-linecap="round" stroke-linejoin="round"/>
<path d="M67.1743 295.817H160.297" stroke="#F2EEE5" stroke-width="3.89091" stroke-miterlimit="10" stroke-linecap="round" stroke-linejoin="round"/>
<path d="M249.498 236.085H200.119" stroke="#F2EEE5" stroke-width="3.89091" stroke-miterlimit="10" stroke-linecap="round" stroke-linejoin="round"/>
<path d="M249.314 266.047H222.909" stroke="#F2EEE5" stroke-width="3.89091" stroke-miterlimit="10" stroke-linecap="round" stroke-linejoin="round"/>
<path d="M301.634 356.764H307.209V348.89L304.452 346.585L301.634 348.89V356.764Z" stroke="#F2EEE5" stroke-width="3.30727" stroke-miterlimit="10" stroke-linecap="round" stroke-linejoin="round"/>
<path d="M287.912 356.764H293.487V348.89L290.73 346.585L287.912 348.89V356.764Z" stroke="#F2EEE5" stroke-width="3.30727" stroke-miterlimit="10" stroke-linecap="round" stroke-linejoin="round"/>
<path d="M230.997 357.917H236.572V350.042L233.754 347.738L230.997 350.042V357.917Z" stroke="#F2EEE5" stroke-width="3.30727" stroke-miterlimit="10" stroke-linecap="round" stroke-linejoin="round"/>
<path d="M156.435 314.51H160.417V308.812L158.456 307.148L156.435 308.812V314.51Z" stroke="#F2EEE5" stroke-width="2.9182" stroke-miterlimit="10" stroke-linecap="round" stroke-linejoin="round"/>
<path d="M141.303 314.51H145.285V308.812L143.263 307.148L141.303 308.812V314.51Z" stroke="#F2EEE5" stroke-width="2.9182" stroke-miterlimit="10" stroke-linecap="round" stroke-linejoin="round"/>
<path d="M129.784 314.51H133.828V308.812L131.806 307.148L129.784 308.812V314.51Z" stroke="#F2EEE5" stroke-width="2.9182" stroke-miterlimit="10" stroke-linecap="round" stroke-linejoin="round"/>
<path d="M118.941 314.51H122.984V308.812L120.963 307.148L118.941 308.812V314.51Z" stroke="#F2EEE5" stroke-width="2.9182" stroke-miterlimit="10" stroke-linecap="round" stroke-linejoin="round"/>
<path d="M101.359 314.51H105.341V308.812L103.319 307.148L101.359 308.812V314.51Z" stroke="#F2EEE5" stroke-width="2.9182" stroke-miterlimit="10" stroke-linecap="round" stroke-linejoin="round"/>
<path d="M89.8413 314.511H93.8848V308.813L91.8631 307.148L89.8413 308.813V314.511Z" stroke="#F2EEE5" stroke-width="2.9182" stroke-miterlimit="10" stroke-linecap="round" stroke-linejoin="round"/>
<path d="M156.435 326.418H160.417V320.72L158.457 319.056L156.435 320.72V326.418Z" stroke="#F2EEE5" stroke-width="2.9182" stroke-miterlimit="10" stroke-linecap="round" stroke-linejoin="round"/>
<path d="M141.303 326.418H145.285V320.72L143.264 319.056L141.303 320.72V326.418Z" stroke="#F2EEE5" stroke-width="2.9182" stroke-miterlimit="10" stroke-linecap="round" stroke-linejoin="round"/>
<path d="M129.785 326.418H133.828V320.72L131.806 319.056L129.785 320.72V326.418Z" stroke="#F2EEE5" stroke-width="2.9182" stroke-miterlimit="10" stroke-linecap="round" stroke-linejoin="round"/>
<path d="M118.941 326.418H122.984V320.72L120.963 319.056L118.941 320.72V326.418Z" stroke="#F2EEE5" stroke-width="2.9182" stroke-miterlimit="10" stroke-linecap="round" stroke-linejoin="round"/>
<path d="M101.359 326.418H105.341V320.72L103.319 319.056L101.359 320.72V326.418Z" stroke="#F2EEE5" stroke-width="2.9182" stroke-miterlimit="10" stroke-linecap="round" stroke-linejoin="round"/>
<path d="M230.997 375.65H236.572V367.776L233.754 365.471L230.997 367.776V375.65Z" stroke="#F2EEE5" stroke-width="3.30727" stroke-miterlimit="10" stroke-linecap="round" stroke-linejoin="round"/>
<path d="M319.525 341.144H222.052" stroke="#F2EEE5" stroke-width="3.30727" stroke-miterlimit="10" stroke-linecap="round" stroke-linejoin="round"/>
<path d="M245.822 342.936V389.287" stroke="#F2EEE5" stroke-width="3.30727" stroke-miterlimit="10" stroke-linecap="round" stroke-linejoin="round"/>
<path d="M311.805 331.604V339.735" stroke="#F2EEE5" stroke-width="3.89091" stroke-miterlimit="10" stroke-linecap="round" stroke-linejoin="round"/>
<path d="M303.596 331.604V339.735" stroke="#F2EEE5" stroke-width="3.89091" stroke-miterlimit="10" stroke-linecap="round" stroke-linejoin="round"/>
<path d="M295.325 331.604V339.735" stroke="#F2EEE5" stroke-width="3.89091" stroke-miterlimit="10" stroke-linecap="round" stroke-linejoin="round"/>
<path d="M287.115 331.604V339.735" stroke="#F2EEE5" stroke-width="3.89091" stroke-miterlimit="10" stroke-linecap="round" stroke-linejoin="round"/>
<path d="M278.844 331.604V339.735" stroke="#F2EEE5" stroke-width="3.89091" stroke-miterlimit="10" stroke-linecap="round" stroke-linejoin="round"/>
<path d="M270.634 331.604V339.735" stroke="#F2EEE5" stroke-width="3.89091" stroke-miterlimit="10" stroke-linecap="round" stroke-linejoin="round"/>
<path d="M262.426 331.604V339.735" stroke="#F2EEE5" stroke-width="3.89091" stroke-miterlimit="10" stroke-linecap="round" stroke-linejoin="round"/>
<path d="M254.155 331.604V339.735" stroke="#F2EEE5" stroke-width="3.89091" stroke-miterlimit="10" stroke-linecap="round" stroke-linejoin="round"/>
<path d="M245.945 331.604V339.735" stroke="#F2EEE5" stroke-width="3.89091" stroke-miterlimit="10" stroke-linecap="round" stroke-linejoin="round"/>
<path d="M237.675 331.604V339.735" stroke="#F2EEE5" stroke-width="3.89091" stroke-miterlimit="10" stroke-linecap="round" stroke-linejoin="round"/>
<path d="M229.465 331.604V339.735" stroke="#F2EEE5" stroke-width="3.89091" stroke-miterlimit="10" stroke-linecap="round" stroke-linejoin="round"/>
<path d="M247.598 381.092H221.009" stroke="#F2EEE5" stroke-width="3.89091" stroke-miterlimit="10" stroke-linecap="round" stroke-linejoin="round"/>
<path d="M170.099 301.963H103.933" stroke="#F2EEE5" stroke-width="3.89091" stroke-miterlimit="10" stroke-linecap="round" stroke-linejoin="round"/>
<path d="M150.922 302.667V331.092" stroke="#F2EEE5" stroke-width="3.89091" stroke-miterlimit="10" stroke-linecap="round" stroke-linejoin="round"/>
<path d="M112.142 302.603V331.028" stroke="#F2EEE5" stroke-width="3.89091" stroke-miterlimit="10" stroke-linecap="round" stroke-linejoin="round"/>
<path d="M297.285 320.208H291.587V326.483H297.285V320.208Z" stroke="#F2EEE5" stroke-width="3.89091" stroke-miterlimit="10" stroke-linecap="round" stroke-linejoin="round"/>
<path d="M245.884 316.495H240.186V326.931H245.884V316.495Z" stroke="#F2EEE5" stroke-width="2.80016" stroke-miterlimit="10" stroke-linecap="round" stroke-linejoin="round"/>
<path d="M187.007 315.663H166.422V331.668H187.007V315.663Z" stroke="#F2EEE5" stroke-width="3.89091" stroke-miterlimit="10" stroke-linecap="round" stroke-linejoin="round"/>
<path d="M181.678 320.208V325.778" stroke="#F2EEE5" stroke-width="2.79775" stroke-miterlimit="10" stroke-linecap="round" stroke-linejoin="round"/>
<path d="M176.777 320.208V325.778" stroke="#F2EEE5" stroke-width="2.79775" stroke-miterlimit="10" stroke-linecap="round" stroke-linejoin="round"/>
<path d="M172.182 320.208V325.778" stroke="#F2EEE5" stroke-width="2.79775" stroke-miterlimit="10" stroke-linecap="round" stroke-linejoin="round"/>
<path d="M127.826 187.238L131.502 236.277" stroke="#F2EEE5" stroke-width="3.89091" stroke-miterlimit="10" stroke-linecap="round" stroke-linejoin="round"/>
<path d="M123.354 187.174L119.31 236.278" stroke="#F2EEE5" stroke-width="3.89091" stroke-miterlimit="10" stroke-linecap="round" stroke-linejoin="round"/>
<path d="M132.238 210.221H118.576" stroke="#F2EEE5" stroke-width="3.89091" stroke-miterlimit="10" stroke-linecap="round" stroke-linejoin="round"/>
<path d="M131.747 177.314H119.065" stroke="#F2EEE5" stroke-width="3.89091" stroke-miterlimit="10" stroke-linecap="round" stroke-linejoin="round"/>
<path d="M131.747 167.903H119.065" stroke="#F2EEE5" stroke-width="3.89091" stroke-miterlimit="10" stroke-linecap="round" stroke-linejoin="round"/>
<path d="M129.541 187.302H121.208" stroke="#F2EEE5" stroke-width="3.89091" stroke-miterlimit="10" stroke-linecap="round" stroke-linejoin="round"/>
<path d="M129.419 177.314L127.581 187.301" stroke="#F2EEE5" stroke-width="3.89091" stroke-miterlimit="10" stroke-linecap="round" stroke-linejoin="round"/>
<path d="M121.393 177.314L123.108 187.173" stroke="#F2EEE5" stroke-width="3.89091" stroke-miterlimit="10" stroke-linecap="round" stroke-linejoin="round"/>
<path d="M128.071 169.12V177.315" stroke="#F2EEE5" stroke-width="3.89091" stroke-miterlimit="10" stroke-linecap="round" stroke-linejoin="round"/>
<path d="M122.679 169.12V177.315" stroke="#F2EEE5" stroke-width="3.89091" stroke-miterlimit="10" stroke-linecap="round" stroke-linejoin="round"/>
<path d="M126.661 153.115V167.007" stroke="#F2EEE5" stroke-width="3.89091" stroke-miterlimit="10" stroke-linecap="round" stroke-linejoin="round"/>
<path d="M124.15 153.115V167.007" stroke="#F2EEE5" stroke-width="3.89091" stroke-miterlimit="10" stroke-linecap="round" stroke-linejoin="round"/>
<path d="M128.562 153.115H122.251" stroke="#F2EEE5" stroke-width="3.89091" stroke-miterlimit="10" stroke-linecap="round" stroke-linejoin="round"/>
<path d="M125.375 133.396V153.115" stroke="#F2EEE5" stroke-width="3.89091" stroke-miterlimit="10" stroke-linecap="round" stroke-linejoin="round"/>
<path d="M352.328 186.256L356.004 235.296" stroke="#F2EEE5" stroke-width="3.89091" stroke-miterlimit="10" stroke-linecap="round" stroke-linejoin="round"/>
<path d="M347.856 186.193L343.812 235.296" stroke="#F2EEE5" stroke-width="3.89091" stroke-miterlimit="10" stroke-linecap="round" stroke-linejoin="round"/>
<path d="M356.739 209.24H343.077" stroke="#F2EEE5" stroke-width="3.89091" stroke-miterlimit="10" stroke-linecap="round" stroke-linejoin="round"/>
<path d="M356.248 176.333H343.566" stroke="#F2EEE5" stroke-width="3.89091" stroke-miterlimit="10" stroke-linecap="round" stroke-linejoin="round"/>
<path d="M356.248 166.922H343.566" stroke="#F2EEE5" stroke-width="3.89091" stroke-miterlimit="10" stroke-linecap="round" stroke-linejoin="round"/>
<path d="M354.042 186.32H345.71" stroke="#F2EEE5" stroke-width="3.89091" stroke-miterlimit="10" stroke-linecap="round" stroke-linejoin="round"/>
<path d="M353.92 176.333L352.082 186.32" stroke="#F2EEE5" stroke-width="3.89091" stroke-miterlimit="10" stroke-linecap="round" stroke-linejoin="round"/>
<path d="M345.894 176.333L347.609 186.192" stroke="#F2EEE5" stroke-width="3.89091" stroke-miterlimit="10" stroke-linecap="round" stroke-linejoin="round"/>
<path d="M352.573 168.138V176.333" stroke="#F2EEE5" stroke-width="3.89091" stroke-miterlimit="10" stroke-linecap="round" stroke-linejoin="round"/>
<path d="M347.181 168.139V176.333" stroke="#F2EEE5" stroke-width="3.89091" stroke-miterlimit="10" stroke-linecap="round" stroke-linejoin="round"/>
<path d="M351.161 152.133V166.026" stroke="#F2EEE5" stroke-width="3.89091" stroke-miterlimit="10" stroke-linecap="round" stroke-linejoin="round"/>
<path d="M348.651 152.133V166.026" stroke="#F2EEE5" stroke-width="3.89091" stroke-miterlimit="10" stroke-linecap="round" stroke-linejoin="round"/>
<path d="M353.064 152.133H346.753" stroke="#F2EEE5" stroke-width="3.89091" stroke-miterlimit="10" stroke-linecap="round" stroke-linejoin="round"/>
<path d="M349.877 132.415V152.133" stroke="#F2EEE5" stroke-width="3.89091" stroke-miterlimit="10" stroke-linecap="round" stroke-linejoin="round"/>
<path d="M158.459 236.15H76.3638V252.987H158.459V236.15Z" stroke="#F2EEE5" stroke-width="3.64041" stroke-miterlimit="10" stroke-linecap="round" stroke-linejoin="round"/>
<path d="M99.3384 252.923V285.637" stroke="#F2EEE5" stroke-width="3.89091" stroke-miterlimit="10" stroke-linecap="round" stroke-linejoin="round"/>
<path d="M200.731 249.722L187.069 244.152H158.458" stroke="#F2EEE5" stroke-width="3.89091" stroke-miterlimit="10" stroke-linecap="round" stroke-linejoin="round"/>
<path d="M150.984 242.488V251.963" stroke="#F2EEE5" stroke-width="3.89091" stroke-miterlimit="10" stroke-linecap="round" stroke-linejoin="round"/>
<path d="M140.446 242.488V251.963" stroke="#F2EEE5" stroke-width="3.89091" stroke-miterlimit="10" stroke-linecap="round" stroke-linejoin="round"/>
<path d="M129.909 242.488V251.963" stroke="#F2EEE5" stroke-width="3.89091" stroke-miterlimit="10" stroke-linecap="round" stroke-linejoin="round"/>
<path d="M119.371 242.488V251.963" stroke="#F2EEE5" stroke-width="3.89091" stroke-miterlimit="10" stroke-linecap="round" stroke-linejoin="round"/>
<path d="M108.833 242.488V251.963" stroke="#F2EEE5" stroke-width="3.89091" stroke-miterlimit="10" stroke-linecap="round" stroke-linejoin="round"/>
<path d="M98.2339 242.488V251.963" stroke="#F2EEE5" stroke-width="3.89091" stroke-miterlimit="10" stroke-linecap="round" stroke-linejoin="round"/>
<path d="M87.6968 242.488V251.963" stroke="#F2EEE5" stroke-width="3.89091" stroke-miterlimit="10" stroke-linecap="round" stroke-linejoin="round"/>
<path d="M344.091 274.498H380.544" stroke="#F2EEE5" stroke-width="3.67939" stroke-miterlimit="10" stroke-linecap="round" stroke-linejoin="round"/>
<path d="M352.362 280.964V284.677" stroke="#F2EEE5" stroke-width="2.9182" stroke-miterlimit="10" stroke-linecap="round" stroke-linejoin="round"/>
<path d="M360.326 281.092V284.741" stroke="#F2EEE5" stroke-width="2.9182" stroke-miterlimit="10" stroke-linecap="round" stroke-linejoin="round"/>
<path d="M368.168 281.092V284.741" stroke="#F2EEE5" stroke-width="2.9182" stroke-miterlimit="10" stroke-linecap="round" stroke-linejoin="round"/>
<path d="M426.247 417.264C424.838 417.84 422.725 418.416 420.293 418.416C415.043 418.352 410.945 415.087 405.439 415.151C400.125 415.215 395.963 418.416 390.969 418.416C385.399 418.48 381.366 415.151 375.987 415.151C370.289 415.151 366.448 418.416 361.134 418.416C355.564 418.416 351.722 415.151 346.408 415.151C340.966 415.087 336.932 418.416 331.554 418.416C326.368 418.48 321.631 415.087 316.252 415.151C311.066 415.215 306.521 418.416 301.655 418.416C296.533 418.416 291.795 415.087 286.673 415.151C281.231 415.151 277.005 418.672 270.987 418.352C266.633 418.096 263.176 415.791 259.014 415.279C252.292 414.383 247.938 418.416 242.048 418.416C236.862 418.416 232.636 415.151 227.322 415.151C222.008 415.151 217.654 418.416 212.34 418.416C207.09 418.416 202.673 415.087 197.359 415.151C192.109 415.215 187.819 418.416 182.633 418.416C177.447 418.416 173.093 415.151 167.907 415.151C162.721 415.087 158.175 418.416 152.925 418.416C147.932 418.416 143.002 415.151 138.072 415.151C133.014 415.151 128.148 418.416 123.218 418.416C118.544 418.416 114.703 415.855 110.157 415.279C108.492 415.087 106.892 415.151 105.291 415.471C101.77 416.175 98.5685 418.096 94.599 418.416C88.5806 418.928 84.0349 415.151 78.2727 415.215C71.8062 415.279 67.5165 419.824 59.8336 418.032C56.0561 417.135 53.111 415.279 48.7573 415.215C43.5713 415.215 39.0256 418.416 34.0316 418.48C28.8456 418.544 24.0438 415.087 18.7297 415.215C12.9675 415.279 8.67785 418.992 2.65953 418.416C-2.0783 417.968 -5.7277 415.151 -11.0417 415.215C-16.0357 415.279 -20.9016 418.48 -25.7674 418.48C-30.8254 418.48 -35.3711 415.215 -40.4931 415.215C-45.5511 415.151 -50.1608 418.48 -55.3468 418.48C-61.1731 418.544 -64.1822 415.215 -70.3286 415.215" stroke="#F2EEE5" stroke-width="2.79741" stroke-miterlimit="10" stroke-linecap="round" stroke-linejoin="round"/>
<path d="M426.247 424.114C424.838 424.69 422.725 425.267 420.293 425.267C415.043 425.202 410.945 421.937 405.439 422.001C400.125 422.065 395.963 425.267 390.969 425.267C385.399 425.331 381.366 422.001 375.987 422.001C370.289 422.001 366.448 425.267 361.134 425.267C355.564 425.267 351.722 422.001 346.408 422.001C340.966 421.937 336.932 425.267 331.554 425.267C326.368 425.331 321.631 421.937 316.252 422.001C311.066 422.065 306.521 425.267 301.655 425.267C296.533 425.267 291.795 421.937 286.673 422.001C281.231 422.001 277.005 425.523 270.987 425.202C266.633 424.946 263.176 422.642 259.014 422.129C252.292 421.233 247.938 425.267 242.048 425.267C236.862 425.267 232.636 422.001 227.322 422.001C222.008 422.001 217.654 425.267 212.34 425.267C207.09 425.267 202.673 421.937 197.359 422.001C192.109 422.065 187.819 425.267 182.633 425.267C177.447 425.267 173.093 422.001 167.907 422.001C162.721 421.937 158.175 425.267 152.925 425.267C147.932 425.267 143.002 422.001 138.072 422.001C133.014 422.001 128.148 425.267 123.218 425.267C118.544 425.267 114.703 422.706 110.157 422.129C108.492 421.937 106.892 422.001 105.291 422.322C101.77 423.026 98.5685 424.946 94.599 425.267C88.5806 425.779 84.0349 422.001 78.2727 422.065C71.8062 422.129 67.5165 426.675 59.8336 424.882C56.0561 423.986 53.111 422.129 48.7573 422.065C43.5713 422.065 39.0256 425.266 34.0316 425.331C28.8456 425.395 24.0438 421.937 18.7297 422.065C12.9675 422.129 8.67785 425.843 2.65953 425.267C-2.0783 424.818 -5.7277 422.001 -11.0417 422.065C-16.0357 422.129 -20.9016 425.331 -25.7674 425.331C-30.8254 425.331 -35.3711 422.065 -40.4931 422.065C-45.5511 422.001 -50.1608 425.331 -55.3468 425.331C-61.1731 425.395 -64.1822 422.065 -70.3286 422.065" stroke="#F2EEE5" stroke-width="2.79741" stroke-miterlimit="10" stroke-linecap="round" stroke-linejoin="round"/>
<path d="M426.247 430.58C424.838 431.156 422.725 431.732 420.293 431.732C415.043 431.668 410.945 428.403 405.439 428.467C400.125 428.531 395.963 431.732 390.969 431.732C385.399 431.796 381.366 428.467 375.987 428.467C370.289 428.467 366.448 431.732 361.134 431.732C355.564 431.732 351.722 428.467 346.408 428.467C340.966 428.403 336.932 431.732 331.554 431.732C326.368 431.796 321.631 428.403 316.252 428.467C311.066 428.531 306.521 431.732 301.655 431.732C296.533 431.732 291.795 428.403 286.673 428.467C281.231 428.467 277.005 431.988 270.987 431.668C266.633 431.412 263.176 429.107 259.014 428.595C252.292 427.699 247.938 431.732 242.048 431.732C236.862 431.732 232.636 428.467 227.322 428.467C222.008 428.467 217.654 431.732 212.34 431.732C207.09 431.732 202.673 428.403 197.359 428.467C192.109 428.531 187.819 431.732 182.633 431.732C177.447 431.732 173.093 428.467 167.907 428.467C162.721 428.403 158.175 431.732 152.925 431.732C147.932 431.732 143.002 428.467 138.072 428.467C133.014 428.467 128.148 431.732 123.218 431.732C118.544 431.732 114.703 429.171 110.157 428.595C108.492 428.403 106.892 428.467 105.291 428.787C101.77 429.492 98.5685 431.412 94.599 431.732C88.5806 432.244 84.0349 428.467 78.2727 428.531C71.8062 428.595 67.5165 433.141 59.8336 431.348C56.0561 430.452 53.111 428.595 48.7573 428.531C43.5713 428.531 39.0256 431.732 34.0316 431.796C28.8456 431.86 24.0438 428.403 18.7297 428.531C12.9675 428.595 8.67785 432.308 2.65953 431.732C-2.0783 431.284 -5.7277 428.467 -11.0417 428.531C-16.0357 428.595 -20.9016 431.796 -25.7674 431.796C-30.8254 431.796 -35.3711 428.531 -40.4931 428.531C-45.5511 428.467 -50.1608 431.796 -55.3468 431.796C-61.1731 431.86 -64.1822 428.531 -70.3286 428.531" stroke="#F2EEE5" stroke-width="2.79741" stroke-miterlimit="10" stroke-linecap="round" stroke-linejoin="round"/>
<path d="M428.458 437.379C427.05 437.955 424.937 438.531 422.504 438.531C417.254 438.467 413.156 435.202 407.65 435.266C402.336 435.33 398.175 438.531 393.181 438.531C387.611 438.595 383.577 435.266 378.199 435.266C372.501 435.266 368.659 438.531 363.345 438.531C357.775 438.531 353.934 435.266 348.619 435.266C343.177 435.202 339.144 438.531 333.766 438.531C328.58 438.595 323.842 435.202 318.464 435.266C313.278 435.33 308.732 438.531 303.866 438.531C298.744 438.531 294.006 435.202 288.884 435.266C283.442 435.266 279.217 438.787 273.198 438.467C268.845 438.211 265.387 435.906 261.226 435.394C254.503 434.498 250.15 438.531 244.259 438.531C239.073 438.531 234.848 435.266 229.534 435.266C224.22 435.266 219.866 438.531 214.552 438.531C209.302 438.531 204.884 435.202 199.57 435.266C194.32 435.33 190.03 438.531 184.844 438.531C179.658 438.531 175.305 435.266 170.119 435.266C164.933 435.202 160.387 438.531 155.137 438.531C150.143 438.531 145.213 435.266 140.283 435.266C135.225 435.266 130.359 438.531 125.429 438.531C120.756 438.531 116.914 435.97 112.368 435.394C110.704 435.202 109.103 435.266 107.503 435.586C103.981 436.29 100.78 438.211 96.8104 438.531C90.7921 439.043 86.2463 435.266 80.4841 435.33C74.0176 435.394 69.728 439.939 62.045 438.147C58.2675 437.25 55.3224 435.394 50.9687 435.33C45.7827 435.33 41.237 438.531 36.2431 438.595C31.0571 438.659 26.2552 435.202 20.9412 435.33C15.1789 435.394 10.8893 439.107 4.87096 438.531C0.133129 438.083 -3.51627 435.266 -8.83032 435.33C-13.8242 435.394 -18.6901 438.595 -23.556 438.595C-28.614 438.595 -33.1597 435.33 -38.2817 435.33C-43.3396 435.266 -47.9494 438.595 -53.1354 438.595C-58.9617 438.659 -61.9708 435.33 -68.1172 435.33" stroke="#F2EEE5" stroke-width="2.79741" stroke-miterlimit="10" stroke-linecap="round" stroke-linejoin="round"/>
<path d="M428.458 444.229C427.049 444.805 424.936 445.381 422.503 445.381C417.253 445.317 413.156 442.052 407.65 442.116C402.336 442.18 398.174 445.381 393.18 445.381C387.61 445.445 383.576 442.116 378.198 442.116C372.5 442.116 368.659 445.381 363.345 445.381C357.775 445.381 353.933 442.116 348.619 442.116C343.177 442.052 339.143 445.381 333.765 445.381C328.579 445.445 323.841 442.052 318.463 442.116C313.277 442.18 308.732 445.381 303.866 445.381C298.744 445.381 294.006 442.052 288.884 442.116C283.442 442.116 279.216 445.637 273.198 445.317C268.844 445.061 265.387 442.756 261.225 442.244C254.503 441.348 250.149 445.381 244.259 445.381C239.073 445.381 234.847 442.116 229.533 442.116C224.219 442.116 219.865 445.381 214.551 445.381C209.301 445.381 204.884 442.052 199.57 442.116C194.319 442.18 190.03 445.381 184.844 445.381C179.658 445.381 175.304 442.116 170.118 442.116C164.932 442.052 160.386 445.381 155.136 445.381C150.142 445.381 145.213 442.116 140.283 442.116C135.225 442.116 130.359 445.381 125.429 445.381C120.755 445.381 116.914 442.82 112.368 442.244C110.703 442.052 109.103 442.116 107.502 442.436C103.981 443.141 100.779 445.061 96.8099 445.381C90.7916 445.893 86.2458 442.116 80.4836 442.18C74.0171 442.244 69.7275 446.79 62.0445 444.997C58.2671 444.101 55.3219 442.244 50.9682 442.18C45.7822 442.18 41.2365 445.381 36.2426 445.445C31.0566 445.509 26.2547 442.052 20.9407 442.18C15.1784 442.244 10.8888 445.957 4.87047 445.381C0.13264 444.933 -3.51676 442.116 -8.83081 442.18C-13.8247 442.244 -18.6906 445.445 -23.5565 445.445C-28.6144 445.445 -33.1602 442.18 -38.2822 442.18C-43.3401 442.116 -47.9499 445.445 -53.1359 445.445C-58.9621 445.509 -61.9713 442.18 -68.1177 442.18" stroke="#F2EEE5" stroke-width="2.79741" stroke-miterlimit="10" stroke-linecap="round" stroke-linejoin="round"/>
<path d="M428.458 450.695C427.049 451.271 424.936 451.847 422.503 451.847C417.253 451.783 413.156 448.518 407.65 448.582C402.336 448.646 398.174 451.847 393.18 451.847C387.61 451.911 383.576 448.582 378.198 448.582C372.5 448.582 368.659 451.847 363.345 451.847C357.775 451.847 353.933 448.582 348.619 448.582C343.177 448.518 339.143 451.847 333.765 451.847C328.579 451.911 323.841 448.518 318.463 448.582C313.277 448.646 308.732 451.847 303.866 451.847C298.744 451.847 294.006 448.518 288.884 448.582C283.442 448.582 279.216 452.103 273.198 451.783C268.844 451.527 265.387 449.222 261.225 448.71C254.503 447.814 250.149 451.847 244.259 451.847C239.073 451.847 234.847 448.582 229.533 448.582C224.219 448.582 219.865 451.847 214.551 451.847C209.301 451.847 204.884 448.518 199.57 448.582C194.319 448.646 190.03 451.847 184.844 451.847C179.658 451.847 175.304 448.582 170.118 448.582C164.932 448.518 160.386 451.847 155.136 451.847C150.142 451.847 145.213 448.582 140.283 448.582C135.225 448.582 130.359 451.847 125.429 451.847C120.755 451.847 116.914 449.286 112.368 448.71C110.703 448.518 109.103 448.582 107.502 448.902C103.981 449.606 100.779 451.527 96.8099 451.847C90.7916 452.359 86.2458 448.582 80.4836 448.646C74.0171 448.71 69.7275 453.256 62.0445 451.463C58.2671 450.567 55.3219 448.71 50.9682 448.646C45.7822 448.646 41.2365 451.847 36.2426 451.911C31.0566 451.975 26.2547 448.518 20.9407 448.646C15.1784 448.71 10.8888 452.423 4.87047 451.847C0.13264 451.399 -3.51676 448.582 -8.83081 448.646C-13.8247 448.71 -18.6906 451.911 -23.5565 451.911C-28.6144 451.911 -33.1602 448.646 -38.2822 448.646C-43.3401 448.582 -47.9499 451.911 -53.1359 451.911C-58.9621 451.975 -61.9713 448.646 -68.1177 448.646" stroke="#F2EEE5" stroke-width="2.79741" stroke-miterlimit="10" stroke-linecap="round" stroke-linejoin="round"/>
<path d="M197.936 395.049C197.552 395.049 197.167 395.049 196.847 395.113C192.11 395.561 188.076 398.314 183.21 398.314C178.024 398.314 173.67 395.049 168.484 395.049C163.298 394.984 158.753 398.314 153.503 398.314C148.509 398.314 143.579 395.049 138.649 395.049C133.591 395.049 128.725 398.314 123.795 398.314C119.121 398.314 115.28 395.753 110.734 395.177C109.069 394.985 107.469 395.049 105.868 395.369C102.347 396.073 99.1457 397.993 95.1761 398.314C89.1578 398.826 84.6121 395.049 78.8498 395.113C72.3833 395.177 68.0937 399.722 60.4107 397.929C56.6333 397.033 53.6881 395.177 49.3345 395.113C44.1485 395.113 39.6027 398.314 34.6088 398.378C29.4228 398.442 24.6209 394.985 19.3069 395.113C13.5447 395.177 9.25501 398.89 3.23668 398.314C-1.50114 397.865 -5.15055 395.049 -10.4646 395.113C-15.4585 395.177 -20.3244 398.378 -25.1903 398.378C-30.2482 398.378 -34.794 395.113 -39.916 395.113C-44.9739 395.049 -49.5837 398.378 -54.7697 398.378C-60.5959 398.442 -63.6051 395.113 -69.7515 395.113" stroke="#F2EEE5" stroke-width="2.79741" stroke-miterlimit="10" stroke-linecap="round" stroke-linejoin="round"/>
<path d="M209.14 404.651C205.427 403.691 201.969 401.835 197.936 401.899C192.686 401.963 188.396 405.164 183.21 405.164C178.024 405.164 173.67 401.899 168.484 401.899C163.298 401.835 158.753 405.164 153.503 405.164C148.509 405.164 143.579 401.899 138.649 401.899C133.591 401.899 128.725 405.164 123.795 405.164C119.121 405.164 115.28 402.603 110.734 402.027C109.069 401.835 107.469 401.899 105.868 402.219C102.347 402.923 99.1457 404.844 95.1761 405.164C89.1578 405.676 84.612 401.899 78.8498 401.963C72.3833 402.027 68.0937 406.572 60.4107 404.78C56.6333 403.883 53.6881 402.027 49.3345 401.963C44.1485 401.963 39.6027 405.164 34.6088 405.228C29.4228 405.292 24.6209 401.835 19.3069 401.963C13.5446 402.027 9.255 405.74 3.23668 405.164C-1.50115 404.715 -5.15056 401.899 -10.4646 401.963C-15.4585 402.027 -20.3244 405.228 -25.1903 405.228C-30.2482 405.228 -34.794 401.963 -39.916 401.963C-44.9739 401.899 -49.5837 405.228 -54.7697 405.228C-60.5959 405.292 -63.6051 401.963 -69.7515 401.963" stroke="#F2EEE5" stroke-width="2.79741" stroke-miterlimit="10" stroke-linecap="round" stroke-linejoin="round"/>
<path d="M222.521 409.325C219.383 410.285 216.374 411.63 212.981 411.63C207.731 411.63 203.313 408.301 197.999 408.365C192.749 408.429 188.46 411.63 183.274 411.63C178.088 411.63 173.734 408.365 168.548 408.365C163.362 408.301 158.816 411.63 153.566 411.63C148.572 411.63 143.642 408.365 138.712 408.365C133.654 408.365 128.789 411.63 123.859 411.63C119.185 411.63 115.343 409.069 110.798 408.493C109.133 408.301 107.532 408.365 105.932 408.685C102.41 409.389 99.2091 411.31 95.2396 411.63C89.2213 412.142 84.6755 408.365 78.9133 408.429C72.4468 408.493 68.1572 413.038 60.4742 411.246C56.6967 410.349 53.7516 408.493 49.3979 408.429C44.2119 408.429 39.6662 411.63 34.6723 411.694C29.4863 411.758 24.6844 408.301 19.3704 408.429C13.6081 408.493 9.31848 412.206 3.30015 411.63C-1.43767 411.182 -5.08708 408.365 -10.4011 408.429C-15.3951 408.493 -20.2609 411.694 -25.1268 411.694C-30.1848 411.694 -34.7305 408.429 -39.8525 408.429C-44.9104 408.365 -49.5202 411.694 -54.7062 411.694C-60.5325 411.758 -63.5416 408.429 -69.688 408.429" stroke="#F2EEE5" stroke-width="2.79741" stroke-miterlimit="10" stroke-linecap="round" stroke-linejoin="round"/>
<path d="M37.1431 132.452H24.4146V121.635H37.1431L34.4898 127.053L37.1431 132.452Z" stroke="#F2EEE5" stroke-width="4" stroke-miterlimit="10"/>
<path d="M-16.5327 195.181H25.2385" stroke="#F2EEE5" stroke-width="4" stroke-miterlimit="10"/>
<path d="M66.2033 195.181H25.2388" stroke="#F2EEE5" stroke-width="4" stroke-miterlimit="10"/>
<path d="M-2.89014 195.181V181.345H52.0579L51.7352 194.168" stroke="#F2EEE5" stroke-width="4" stroke-miterlimit="10"/>
<path d="M2.20166 180.801L24.6111 145.163L47.0206 180.801" stroke="#F2EEE5" stroke-width="4" stroke-miterlimit="10"/>
<path d="M-6.49268 195.294V210.01H-0.289737V195.294" stroke="#F2EEE5" stroke-width="4" stroke-miterlimit="10"/>
<path d="M11.4346 195.293V210.01H17.6375V195.293" stroke="#F2EEE5" stroke-width="4" stroke-miterlimit="10"/>
<path d="M29.3623 195.293V210.01H35.5652V195.293" stroke="#F2EEE5" stroke-width="4" stroke-miterlimit="10"/>
<path d="M47.2896 195.293V210.01H53.4925V195.293" stroke="#F2EEE5" stroke-width="4" stroke-miterlimit="10"/>
<path d="M63.6753 277.332V228.064L67.0815 194.899V194.656" stroke="#F2EEE5" stroke-width="4" stroke-miterlimit="10"/>
<path d="M67.0815 194.712V197.018" stroke="#F2EEE5" stroke-width="4" stroke-miterlimit="10"/>
<path d="M-13.9331 228.926H63.6753" stroke="#F2EEE5" stroke-width="4" stroke-miterlimit="10"/>
<path d="M24.6108 110.067V146.625" stroke="#F2EEE5" stroke-width="4" stroke-miterlimit="10"/>
<path d="M67.0815 195.293H67.1171" stroke="#F2EEE5" stroke-width="4" stroke-miterlimit="10"/>
<path d="M57.1489 228.926H63.7104" stroke="#F2EEE5" stroke-width="4" stroke-miterlimit="10"/>
<rect width="376.612" height="39.991" transform="matrix(1 0 0 -1 0.00732422 463.256)" fill="url(#paint0_linear)"/>
<rect width="376.612" height="39.991" transform="matrix(1 0 0 -1 0.00732422 459.565)" fill="url(#paint1_linear)"/>
<rect width="376.612" height="113.205" transform="matrix(1 0 0 -1 0.00732422 473.1)" fill="url(#paint2_linear)"/>
<rect width="376.612" height="113.205" transform="matrix(1 0 0 -1 0.00732422 468.178)" fill="url(#paint3_linear)"/>
<rect width="376.612" height="113.205" transform="matrix(1 0 0 -1 0.00732422 455.873)" fill="url(#paint4_linear)"/>
</g>
<defs>
<linearGradient id="paint0_linear" x1="188.306" y1="0" x2="188.306" y2="54.8447" gradientUnits="userSpaceOnUse">
<stop stop-color="#F9F6EF"/>
<stop offset="0.395833" stop-color="#F9F6EF" stop-opacity="0"/>
</linearGradient>
<linearGradient id="paint1_linear" x1="188.306" y1="0" x2="188.306" y2="54.8447" gradientUnits="userSpaceOnUse">
<stop stop-color="#F9F6EF"/>
<stop offset="0.395833" stop-color="#F9F6EF" stop-opacity="0"/>
</linearGradient>
<linearGradient id="paint2_linear" x1="188.306" y1="0" x2="188.306" y2="155.252" gradientUnits="userSpaceOnUse">
<stop stop-color="#F9F6EF"/>
<stop offset="0.395833" stop-color="#F9F6EF" stop-opacity="0"/>
</linearGradient>
<linearGradient id="paint3_linear" x1="188.306" y1="0" x2="188.306" y2="155.252" gradientUnits="userSpaceOnUse">
<stop stop-color="#F9F6EF"/>
<stop offset="0.395833" stop-color="#F9F6EF" stop-opacity="0"/>
</linearGradient>
<linearGradient id="paint4_linear" x1="188.306" y1="0" x2="188.306" y2="155.252" gradientUnits="userSpaceOnUse">
<stop stop-color="#F9F6EF"/>
<stop offset="0.395833" stop-color="#F9F6EF" stop-opacity="0"/>
</linearGradient>
</defs>
</svg>
