<svg width="14" height="21" viewBox="0 0 14 21" fill="none" xmlns="http://www.w3.org/2000/svg">
<path d="M5.8508 14.3333C4.23505 14.1757 2.77821 13.8037 1.53093 12.8916C1.37616 12.7782 1.21638 12.6688 1.07515 12.542C0.529214 12.0518 0.474206 11.4904 0.906193 10.9118C1.27575 10.4167 1.89612 10.2843 2.54094 10.5686C2.66579 10.6237 2.78476 10.6924 2.89871 10.7663C5.22323 12.2596 8.41653 12.3008 10.7498 10.8335C10.981 10.6678 11.2281 10.5327 11.5144 10.4637C12.0713 10.33 12.5906 10.5212 12.8894 10.9767C13.2308 11.4969 13.2265 12.0047 12.8058 12.4086C12.1606 13.0278 11.3846 13.4757 10.5223 13.7884C9.70704 14.0839 8.81403 14.2327 7.93019 14.3314C8.06357 14.4672 8.12643 14.5339 8.20982 14.6123C9.40995 15.7396 10.6153 16.8623 11.8115 17.9931C12.2191 18.3784 12.3042 18.8561 12.0798 19.3043C11.8345 19.7941 11.2852 20.1164 10.7467 20.0819C10.4056 20.0598 10.1395 19.901 9.90306 19.6784C8.99739 18.8264 8.0747 17.99 7.18737 17.1219C6.92913 16.8694 6.80493 16.9172 6.57704 17.1363C5.66591 18.0133 4.73995 18.8768 3.80852 19.7353C3.39029 20.1208 2.89259 20.1902 2.40756 19.97C1.89197 19.7364 1.56389 19.2443 1.58921 18.7498C1.60667 18.4153 1.78261 18.1598 2.02818 17.9306C3.21587 16.8219 4.40029 15.7102 5.58515 14.5996C5.66351 14.5257 5.73664 14.4474 5.8508 14.3333Z" fill="white"/>
<path d="M6.83555 10.474C3.95308 10.4649 1.58948 8.23109 1.60629 5.53227C1.62288 2.80366 3.98801 0.604774 6.89885 0.612324C9.81559 0.61967 12.1567 2.85018 12.1421 5.60716C12.1272 8.30047 9.74727 10.4834 6.83555 10.474ZM9.4552 5.5388C9.45018 4.19878 8.30855 3.13198 6.8779 3.13076C5.43525 3.12933 4.28335 4.21551 4.29448 5.56778C4.30518 6.9027 5.45664 7.96194 6.89121 7.95704C8.32142 7.95235 9.46 6.87862 9.4552 5.5388Z" fill="white"/>
</svg>
