<svg width="23" height="13" viewBox="0 0 23 13" fill="none" xmlns="http://www.w3.org/2000/svg">
<path d="M5.64495 10.1915C8.2025 12.683 11.1037 12.5197 11.1037 12.5197H12.4219C12.4219 12.5197 12.8219 12.4775 13.0247 12.2721C13.2106 12.0825 13.2049 11.7295 13.2049 11.7295C13.2049 11.7295 13.1768 10.0808 13.9992 9.83327C14.8048 9.59623 15.847 11.4293 16.9455 12.1351C17.7792 12.6672 18.4102 12.5513 18.4102 12.5513L21.3452 12.5144C21.3452 12.5144 22.8831 12.4249 22.1564 11.2976C22.0944 11.2028 21.7339 10.4601 19.9706 8.93253C18.1285 7.33123 18.3764 7.58933 20.5959 4.82392C21.9479 3.13834 22.4887 2.11118 22.3197 1.66872C22.1564 1.24732 21.1649 1.35794 21.1649 1.35794L17.8525 1.37901C17.8525 1.37901 17.6046 1.3474 17.4243 1.44748C17.2441 1.54757 17.1314 1.77933 17.1314 1.77933C17.1314 1.77933 16.6075 3.08566 15.909 4.19183C14.433 6.53057 13.8471 6.65699 13.6049 6.5095C13.0472 6.17239 13.1824 5.1505 13.1824 4.42359C13.1824 2.15332 13.5486 1.21045 12.467 0.962879C12.1064 0.883868 11.8417 0.825926 10.9234 0.820658C9.74042 0.810123 8.74331 0.825926 8.17434 1.08403C7.7969 1.25786 7.5096 1.64238 7.68423 1.66345C7.90394 1.68979 8.39967 1.78987 8.65881 2.12172C8.99681 2.55365 8.98554 3.52286 8.98554 3.52286C8.98554 3.52286 9.18271 6.19346 8.52924 6.52531C8.0842 6.75181 7.47017 6.28827 6.15759 4.16549C5.48158 3.08039 4.97458 1.87415 4.97458 1.87415C4.97458 1.87415 4.87881 1.64765 4.70418 1.53176C4.49011 1.38428 4.19717 1.34214 4.19717 1.34214L1.05375 1.36321C1.05375 1.36321 0.580548 1.37374 0.405913 1.56864C0.248179 1.73193 0.394646 2.08485 0.394646 2.08485C0.394646 2.08485 2.85643 7.47345 5.64495 10.1915Z" fill="white"/>
</svg>
