<svg width="330" height="213" viewBox="0 0 330 213" fill="none" xmlns="http://www.w3.org/2000/svg">
<path d="M147.81 21.358C143.327 20.9797 171.921 63.344 171.921 63.344C171.921 63.344 166.059 118.106 168.003 116.469C171.648 113.401 185.266 79.1001 185.266 79.1001C185.266 79.1001 222.436 142.895 223.465 141.407C269.051 76.0416 327.374 26.9441 327.374 26.9441C327.374 26.9441 155.767 22.0294 147.81 21.358Z" stroke="#F3F3F3" stroke-width="4" stroke-miterlimit="10" stroke-linecap="round" stroke-linejoin="round"/>
<path d="M168.003 116.47C168.003 116.47 190.052 109.327 199.183 102.783" stroke="#F3F3F3" stroke-width="4" stroke-miterlimit="10" stroke-linecap="round" stroke-linejoin="round"/>
<path d="M172.529 62.8331L327.374 26.9446" stroke="#F3F3F3" stroke-width="4" stroke-miterlimit="10" stroke-linecap="round" stroke-linejoin="round"/>
<path d="M185.266 79.1005L326.337 27.1946" stroke="#F3F3F3" stroke-width="4" stroke-miterlimit="10" stroke-linecap="round" stroke-linejoin="round"/>
<path d="M3.64551 146.987C31.6395 155.035 62.7487 151.489 88.1625 137.22C92.4964 134.802 96.7555 131.987 99.21 127.67C101.664 123.353 101.753 117.416 98.2161 113.955C94.3096 110.215 87.5062 110.968 83.3373 114.432C79.3598 117.733 77.176 123.995 80.2131 128.339C81.4873 130.225 83.4241 131.417 85.3455 132.359C97.7015 138.365 112.369 136.092 125.617 132.846C135.339 130.412 145.428 127.403 152.822 120.683" stroke="#F3F3F3" stroke-width="4" stroke-miterlimit="10" stroke-linecap="round" stroke-linejoin="round"/>
</svg>
