<svg width="380" height="374" viewBox="0 0 380 374" fill="none" xmlns="http://www.w3.org/2000/svg">
<mask id="mask0" mask-type="alpha" maskUnits="userSpaceOnUse" x="0" y="0" width="380" height="374">
<rect width="380" height="374" rx="20" fill="#E5212D"/>
</mask>
<g mask="url(#mask0)">
<path d="M319.918 228.094L319.843 242.102L352.322 242.278L352.398 228.269L319.918 228.094Z" fill="#FA6307"/>
<path d="M319.754 258.04L319.677 272.048L352.152 272.226L352.228 258.218L319.754 258.04Z" fill="#FA6307"/>
<path d="M320.086 198.142L320.01 212.15L352.489 212.328L352.566 198.32L320.086 198.142Z" fill="#FA6307"/>
<path d="M328.821 163.099L322.34 175.517L351.663 190.822L358.145 178.404L328.821 163.099Z" fill="#FA6307"/>
<path d="M343.042 136.381L333.281 146.429L359.723 172.116L369.484 162.068L343.042 136.381Z" fill="#FA6307"/>
<path d="M370.131 121.468L357.276 127.044L371.359 159.516L384.215 153.94L370.131 121.468Z" fill="#FA6307"/>
<path d="M370.371 335.798L358.523 369.769L371.75 374.381L383.597 340.411L370.371 335.798Z" fill="#FA6307"/>
<path d="M359.004 323.857L335.681 348.973L345.946 358.506L369.269 333.39L359.004 323.857Z" fill="#FA6307"/>
<path d="M351.117 307.502L322.283 321.085L328.254 333.758L357.087 320.175L351.117 307.502Z" fill="#FA6307"/>
<path d="M319.592 287.988L319.516 301.997L351.996 302.172L352.071 288.164L319.592 287.988Z" fill="#FA6307"/>
<path d="M250.446 212.433L245.195 225.421L279.678 239.365L284.929 226.378L250.446 212.433Z" fill="#FA6307"/>
<path d="M289.016 193.079L253.34 193.582L253.538 207.589L289.213 207.086L289.016 193.079Z" fill="#FA6307"/>
<path d="M279.927 163.04L247.015 177.723L252.722 190.516L285.634 175.833L279.927 163.04Z" fill="#FA6307"/>
<path d="M259.554 137.041L234.364 163.168L244.448 172.891L269.639 146.764L259.554 137.041Z" fill="#FA6307"/>
<path d="M231.947 121.384L217.774 154.012L230.622 159.593L244.795 126.965L231.947 121.384Z" fill="#FA6307"/>
<path d="M213.003 117.607H198.994V153.564H213.003V117.607Z" fill="#FA6307"/>
<path d="M146.201 241.261L146.127 255.269L180.961 255.453L181.035 241.444L146.201 241.261Z" fill="#FA6307"/>
<path d="M229.457 241.26L229.383 255.268L264.217 255.451L264.291 241.443L229.457 241.26Z" fill="#FA6307"/>
<path d="M160.566 212.491L126.955 226.43L132.322 239.37L165.932 225.43L160.566 212.491Z" fill="#FA6307"/>
<path d="M123.163 193.489L123.078 207.497L159.748 207.721L159.833 193.713L123.163 193.489Z" fill="#FA6307"/>
<path d="M131.729 162.965L126.602 176.007L160.98 189.523L166.107 176.48L131.729 162.965Z" fill="#FA6307"/>
<path d="M152.32 136.981L142.381 146.859L168.34 172.98L178.28 163.102L152.32 136.981Z" fill="#FA6307"/>
<path d="M179.934 121.359L167.168 127.127L182.336 160.693L195.102 154.924L179.934 121.359Z" fill="#FA6307"/>
<path d="M230.506 335.551L217.428 340.571L230.494 374.606L243.572 369.585L230.506 335.551Z" fill="#FA6307"/>
<path d="M243.291 323.844L233.626 333.991L259.753 358.877L269.418 348.73L243.291 323.844Z" fill="#FA6307"/>
<path d="M251.619 307.238L246.24 320.171L279.55 334.025L284.929 321.091L251.619 307.238Z" fill="#FA6307"/>
<path d="M251.301 287.675L251.253 301.683L288.558 301.809L288.605 287.801L251.301 287.675Z" fill="#FA6307"/>
<path d="M280.044 257.712L245.731 272.483L251.27 285.35L285.583 270.579L280.044 257.712Z" fill="#FA6307"/>
<path d="M182.507 336.419L168.448 369.285L181.327 374.795L195.386 341.929L182.507 336.419Z" fill="#FA6307"/>
<path d="M167.729 323.72L142.47 348.84L152.349 358.773L177.608 333.653L167.729 323.72Z" fill="#FA6307"/>
<path d="M159.026 306.819L126.819 321.141L132.511 333.94L164.718 319.618L159.026 306.819Z" fill="#FA6307"/>
<path d="M123.212 288.171L123 302.177L158.969 302.721L159.18 288.714L123.212 288.171Z" fill="#FA6307"/>
<path d="M131.627 257.608L126.694 270.72L160.369 283.388L165.302 270.276L131.627 257.608Z" fill="#FA6307"/>
<path d="M212.941 341.739H198.933V378.21H212.941V341.739Z" fill="#FA6307"/>
</g>
</svg>
