<svg width="64" height="64" viewBox="0 0 64 64" fill="none" xmlns="http://www.w3.org/2000/svg">
<path d="M59 1L19.953 8.7369V44.2308C18.3223 43.1375 16.3624 42.4987 14.2555 42.4987C8.60055 42.4987 4 47.097 4 52.7493C4 58.4016 8.60055 63 14.2555 63C19.5252 63 23.8773 59.0062 24.4462 53.8883H24.5111V26.1459L54.442 20.2152V35.1191C52.8113 34.0258 50.8513 33.387 48.7445 33.387C43.0895 33.387 38.489 37.9853 38.489 43.6376C38.489 49.2899 43.0895 53.8883 48.7445 53.8883C54.8107 53.8883 59.6149 48.6093 58.9351 42.4987H59V1ZM14.2555 58.4441C11.1138 58.4441 8.55801 55.8895 8.55801 52.7493C8.55801 49.6091 11.1138 47.0545 14.2555 47.0545C17.3972 47.0545 19.953 49.6091 19.953 52.7493C19.953 55.8895 17.3972 58.4441 14.2555 58.4441ZM48.7445 49.3324C45.6028 49.3324 43.047 46.7778 43.047 43.6376C43.047 40.4974 45.6028 37.9428 48.7445 37.9428C51.8862 37.9428 54.442 40.4974 54.442 43.6376C54.442 46.7778 51.8862 49.3324 48.7445 49.3324ZM54.442 15.5708L24.5111 21.5015V12.4785L54.442 6.54782V15.5708Z" fill="white"/>
</svg>
