<svg width="99" height="78" viewBox="0 0 99 78" fill="none" xmlns="http://www.w3.org/2000/svg">
<path d="M29 42.5874C29 42.5874 43.5 47.5874 42.3844 75.2584" stroke="white" stroke-width="4" stroke-miterlimit="10" stroke-linecap="square" stroke-linejoin="bevel"/>
<path d="M42 36.5874C42 36.5874 42 24.879 52 16.5874" stroke="white" stroke-width="4" stroke-miterlimit="10" stroke-linecap="square" stroke-linejoin="bevel"/>
<path d="M49.5 51.5874C55.8757 33.2079 71 30.5874 71 30.5874" stroke="white" stroke-width="4" stroke-miterlimit="10" stroke-linecap="square" stroke-linejoin="bevel"/>
<path d="M33.7753 15.0933C35.3081 15.0933 36.5507 13.8607 36.5507 12.3403C36.5507 10.8199 35.3081 9.5874 33.7753 9.5874C32.2426 9.5874 31 10.8199 31 12.3403C31 13.8607 32.2426 15.0933 33.7753 15.0933Z" stroke="white" stroke-width="4" stroke-miterlimit="10" stroke-linecap="square" stroke-linejoin="bevel"/>
<path d="M25.3137 59.1559C27.464 59.1559 29.2072 57.4268 29.2072 55.2938C29.2072 53.1609 27.464 51.4318 25.3137 51.4318C23.1633 51.4318 21.4202 53.1609 21.4202 55.2938C21.4202 57.4268 23.1633 59.1559 25.3137 59.1559Z" stroke="white" stroke-width="4" stroke-miterlimit="10" stroke-linecap="square" stroke-linejoin="bevel"/>
<path d="M68 59.5874C70.7614 59.5874 73 57.3488 73 54.5874C73 51.826 70.7614 49.5874 68 49.5874C65.2386 49.5874 63 51.826 63 54.5874C63 57.3488 65.2386 59.5874 68 59.5874Z" stroke="white" stroke-width="4" stroke-miterlimit="10" stroke-linecap="square" stroke-linejoin="bevel"/>
<path d="M93.5091 17.6187L91.365 23.2561L93.1395 29.0205L87.1155 28.7233L82.1817 32.1924L80.6027 26.3714L75.7788 22.751L80.827 19.4505L82.7796 13.744L87.4785 17.5252L93.5091 17.6187Z" stroke="white" stroke-width="4"/>
<path d="M67.5389 6.47379L66.3445 9.61404L67.333 12.825L63.9774 12.6595L61.229 14.5919L60.3495 11.3494L57.6624 9.33266L60.4744 7.49417L61.5621 4.31538L64.1795 6.42167L67.5389 6.47379Z" stroke="white" stroke-width="4"/>
<path d="M9.55444 21.8628L15.8393 24.1554L22.2056 22.0998L21.9674 28.7855L25.8896 34.2051L19.4575 36.0445L15.5153 41.4495L11.7783 35.9006L5.41957 33.8215L9.54207 28.5527L9.55444 21.8628Z" stroke="white" stroke-width="4"/>
</svg>
