<svg width="83" height="71" viewBox="0 0 83 71" fill="none" xmlns="http://www.w3.org/2000/svg">
<path d="M20 62.6292L18 64.6292C14.6863 67.9429 9.31371 67.9429 6 64.6292V64.6292C2.68629 61.3154 2.68629 55.9429 6 52.6292L30 28.6292C32.7614 25.8677 32.7614 21.3906 30 18.6292V18.6292C27.2386 15.8677 22.7614 15.8677 20 18.6292L5.5 33.1292" stroke="white" stroke-width="4"/>
<path d="M46 27.1292C46 27.1292 48.3953 32.2612 51 34.6292C53.3297 36.7471 58 38.6292 58 38.6292" stroke="white" stroke-width="4"/>
<path d="M52 19.6292L17 57.6292L25.5 66.6292L65.5 32.1292" stroke="white" stroke-width="4"/>
<circle cx="66.5" cy="17.1292" r="14.5" stroke="white" stroke-width="4"/>
<path d="M53 3.62915L61 13.6292" stroke="white" stroke-width="4"/>
<path d="M63 16.6292L77 33.1292" stroke="white" stroke-width="4"/>
</svg>
