<svg width="380" height="374" viewBox="0 0 380 374" fill="none" xmlns="http://www.w3.org/2000/svg">
<mask id="mask0" mask-type="alpha" maskUnits="userSpaceOnUse" x="0" y="0" width="380" height="374">
<rect width="380" height="374" rx="20" fill="#3EA8CF"/>
</mask>
<g mask="url(#mask0)">
<path d="M580 165.489C541.043 165.489 520.743 153.5 502.837 142.919C486.736 133.411 474.023 125.902 445.967 125.902C417.91 125.902 405.197 133.411 389.097 142.919C371.19 153.5 350.897 165.489 311.934 165.489C272.993 165.489 252.71 153.5 234.814 142.919C218.731 133.411 206.029 125.902 178 125.902V86C216.941 86 237.223 97.9894 255.119 108.57C271.203 118.079 283.905 125.587 311.934 125.587C339.99 125.587 352.703 118.079 368.803 108.57C386.71 97.9894 407.004 86 445.967 86C484.924 86 505.223 97.9894 523.13 108.57C539.23 118.079 551.944 125.587 580 125.587V165.489Z" fill="#1C9CC4"/>
<path d="M580 257.178C541.043 257.178 520.743 245.189 502.837 234.608C486.736 225.1 474.023 217.591 445.967 217.591C417.91 217.591 405.197 225.1 389.097 234.608C371.19 245.189 350.897 257.178 311.934 257.178C272.993 257.178 252.71 245.189 234.814 234.608C218.731 225.1 206.029 217.591 178 217.591V177.689C216.941 177.689 237.223 189.678 255.119 200.259C271.203 209.768 283.905 217.276 311.934 217.276C339.99 217.276 352.703 209.768 368.803 200.259C386.71 189.678 407.004 177.689 445.967 177.689C484.924 177.689 505.223 189.678 523.13 200.259C539.23 209.768 551.944 217.276 580 217.276V257.178Z" fill="#1C9CC4"/>
<path d="M580 348.862C541.043 348.862 520.743 336.872 502.837 326.292C486.736 316.783 474.023 309.275 445.967 309.275C417.91 309.275 405.197 316.783 389.097 326.292C371.19 336.872 350.897 348.862 311.934 348.862C272.993 348.862 252.71 336.872 234.814 326.292C218.731 316.783 206.029 309.275 178 309.275V269.372C216.941 269.372 237.223 281.362 255.119 291.942C271.203 301.451 283.905 308.96 311.934 308.96C339.99 308.96 352.703 301.451 368.803 291.942C386.71 281.362 407.004 269.372 445.967 269.372C484.924 269.372 505.223 281.362 523.13 291.942C539.23 301.451 551.944 308.96 580 308.96V348.862Z" fill="#1C9CC4"/>
</g>
</svg>
