<svg width="101" height="101" viewBox="0 0 101 101" fill="none" xmlns="http://www.w3.org/2000/svg">
<g clip-path="url(#clip0_540_4920)">
<path d="M100.5 50.0249C100.5 59.914 97.5676 69.581 92.0735 77.8034C86.5794 86.0259 78.7705 92.4345 69.6342 96.2189C60.4979 100.003 50.4446 100.993 40.7455 99.0642C31.0465 97.1349 22.1373 92.3729 15.1447 85.3802C8.15206 78.3876 3.39002 69.4785 1.46076 59.7794C-0.468503 50.0804 0.521664 40.027 4.30605 30.8907C8.09043 21.7544 14.4991 13.9455 22.7215 8.45142C30.944 2.95735 40.611 0.0249023 50.5 0.0249023C63.7608 0.0249023 76.4785 5.29274 85.8554 14.6696C95.2322 24.0464 100.5 36.7641 100.5 50.0249Z" fill="#FF4D1C"/>
<path d="M61.05 50.0249L45.22 59.1649V40.8849L61.05 50.0249Z" fill="white"/>
<path d="M20.7999 71.8549H20.7299C20.3203 72.0944 19.8661 72.2476 19.3951 72.3051C18.9241 72.3625 18.4464 72.3231 17.9912 72.1892C17.536 72.0552 17.113 71.8296 16.7482 71.5262C16.3834 71.2229 16.0845 70.8481 15.8699 70.4249C15.0899 68.9549 15.2099 67.4249 16.6199 66.5449L17.2599 67.7749C17.0783 67.8803 16.9208 68.0227 16.7976 68.1929C16.6745 68.363 16.5884 68.5571 16.5451 68.7626C16.5017 68.9681 16.502 69.1804 16.5459 69.3858C16.5898 69.5912 16.6763 69.7851 16.7999 69.9549C17.3899 71.0749 18.6499 71.3649 20.0599 70.6449H20.1299C21.5499 69.9049 22.0299 68.7949 21.3999 67.6449C21.2405 67.2208 20.9193 66.8772 20.5068 66.6897C20.0943 66.5022 19.6243 66.4861 19.1999 66.6449L18.5599 65.4749C18.9137 65.3322 19.2922 65.2609 19.6736 65.2651C20.055 65.2694 20.4318 65.3491 20.7823 65.4997C21.1328 65.6503 21.45 65.8688 21.7156 66.1426C21.9812 66.4164 22.19 66.74 22.3299 67.0949C22.5879 67.4971 22.7537 67.9514 22.8155 68.4253C22.8773 68.8991 22.8335 69.3808 22.6873 69.8357C22.5411 70.2906 22.296 70.7076 21.9697 71.0567C21.6434 71.4057 21.2439 71.6783 20.7999 71.8549Z" fill="white"/>
<path d="M12.9101 63.0449L17.1801 60.1049L11.9801 59.4149L11.5601 57.7049L18.5001 56.0749L18.8301 57.3749L13.5601 58.5949L19.3301 59.4549L19.4301 59.8649L14.7301 63.2149L19.9701 61.9849L20.2701 63.1549L13.3501 64.7749L12.9101 63.0449Z" fill="white"/>
<path d="M14.7799 54.6149H14.6999C14.2144 54.6205 13.7328 54.5279 13.284 54.3425C12.8352 54.1572 12.4286 53.8829 12.0885 53.5364C11.7485 53.1898 11.482 52.778 11.3053 52.3258C11.1285 51.8735 11.045 51.3902 11.0599 50.9049C11.0389 50.4285 11.119 49.953 11.2949 49.5097C11.4707 49.0664 11.7384 48.6653 12.0803 48.3329C12.4222 48.0004 12.8306 47.7441 13.2787 47.5807C13.7267 47.4173 14.2043 47.3506 14.6799 47.3849H14.7599C15.2461 47.3738 15.7295 47.4619 16.1806 47.6438C16.6316 47.8257 17.0409 48.0976 17.3834 48.4429C17.7259 48.7882 17.9944 49.1996 18.1726 49.6522C18.3509 50.1047 18.435 50.5888 18.4199 51.0749C18.4409 51.554 18.3603 52.032 18.1834 52.4777C18.0065 52.9235 17.7374 53.3267 17.3936 53.661C17.0499 53.9953 16.6393 54.2532 16.1888 54.4176C15.7383 54.582 15.2582 54.6492 14.7799 54.6149ZM14.7799 48.7649H14.6999C13.2299 48.7649 12.1399 49.5249 12.1399 50.9249C12.1407 51.2497 12.2099 51.5708 12.3432 51.867C12.4764 52.1633 12.6706 52.4281 12.9131 52.6442C13.1557 52.8603 13.4411 53.0229 13.7507 53.1212C14.0603 53.2195 14.3871 53.2515 14.7099 53.2149H14.7899C15.1071 53.2587 15.43 53.2349 15.7374 53.145C16.0448 53.0552 16.3297 52.9013 16.5733 52.6935C16.817 52.4857 17.0139 52.2288 17.1512 51.9394C17.2885 51.6501 17.363 51.3351 17.3699 51.0149C17.3499 49.6749 16.3099 48.7749 14.7599 48.7749L14.7799 48.7649Z" fill="white"/>
<path d="M12.49 45.5349L11.49 45.3049L12.56 40.1049L13.56 40.3349L13.16 42.2749L19.16 43.6249L18.9 44.9349L12.9 43.5849L12.49 45.5349Z" fill="white"/>
<path d="M14.1699 35.5449C14.7699 34.0749 15.8299 33.3949 17.1699 33.9849C18.5699 34.5849 18.7899 35.8549 18.1699 37.2649L17.7899 38.1849L20.3199 39.2549L19.8199 40.4849L13.1799 37.6549L14.1699 35.5449ZM16.7699 35.1849C15.9799 34.8449 15.4899 35.1849 15.1699 35.9549L14.7999 36.8549L17.0699 37.8549L17.4299 36.9649C17.5311 36.8104 17.5945 36.6343 17.6152 36.4508C17.6359 36.2673 17.6133 36.0815 17.5491 35.9084C17.4849 35.7352 17.3809 35.5796 17.2456 35.4539C17.1103 35.3283 16.9474 35.2361 16.7699 35.1849Z" fill="white"/>
<path d="M18.82 27.0849L19.71 27.6649L18.02 30.2849L19.68 31.3749L21.04 29.2649L21.88 29.8249L20.56 31.9249L22.32 33.0849L24.1 30.3249L24.99 30.9049L22.47 34.7749L16.47 30.7749L18.82 27.0849Z" fill="white"/>
<path d="M20.9699 26.0049L20.1899 25.2849L23.7899 21.4349L24.5599 22.1549L23.2199 23.5949L27.7199 27.8249L26.8199 28.8249L22.3099 24.5749L20.9699 26.0049Z" fill="white"/>
<path d="M26.77 18.9949L28.41 21.1849L29.21 20.6049C30.42 19.7049 31.69 19.6049 32.61 20.8249C33.52 22.0349 33.12 23.2449 31.86 24.1849L30.04 25.5749L25.71 19.7749L26.77 18.9949ZM31.56 21.6049C31.467 21.4569 31.3413 21.3323 31.1925 21.2407C31.0437 21.149 30.8758 21.0928 30.7018 21.0764C30.5279 21.06 30.3524 21.0838 30.1891 21.1459C30.0258 21.2081 29.879 21.307 29.76 21.4349L28.99 22.0049L30.47 24.0049L31.24 23.4349C31.4057 23.3583 31.5505 23.2427 31.6618 23.0979C31.7732 22.9532 31.8477 22.7836 31.8792 22.6037C31.9107 22.4238 31.898 22.239 31.8424 22.065C31.7868 21.8911 31.6899 21.7332 31.56 21.6049Z" fill="white"/>
<path d="M37.3699 13.1549C38.7399 12.6449 39.7499 12.8649 40.2299 14.0949C40.3776 14.408 40.4083 14.7636 40.3166 15.0974C40.2249 15.4312 40.0168 15.7212 39.7299 15.9149C39.9328 15.8537 40.1458 15.8334 40.3566 15.8552C40.5674 15.877 40.7718 15.9404 40.9578 16.0418C41.1439 16.1432 41.308 16.2806 41.4405 16.4459C41.573 16.6112 41.6714 16.8012 41.7299 17.0049C42.2199 18.2549 41.6399 19.1949 40.1799 19.7349L37.5599 20.7749L34.9399 14.0549L37.3699 13.1549ZM40.4599 17.4549C40.1899 16.7449 39.6799 16.5449 38.7599 16.8949L37.6399 17.3149L38.4799 19.4649L39.6799 19.0149C40.4999 18.6649 40.7399 18.1549 40.4599 17.4549ZM39.0699 14.6349C38.8199 13.9949 38.3499 13.8549 37.5599 14.1549L36.5599 14.5249L37.3199 16.4549L38.3199 16.0749C39.1399 15.7749 39.3399 15.3149 39.0699 14.6349Z" fill="white"/>
<path d="M42.6201 11.5149L43.9401 11.3249L44.8201 16.6349L47.2201 10.8449L48.5601 10.6549L49.7201 17.7749L48.3901 17.9649L47.5601 12.5849L45.1701 18.4049L43.8401 18.5949L42.6201 11.5149Z" fill="white"/>
<path d="M50.6399 18.9449L50.7699 16.5749H51.2199C51.7099 16.4249 51.9199 15.8249 52.0899 14.7649C52.2799 13.3649 52.4399 11.5049 52.4899 10.5749L57.3499 10.9549L57.0099 17.0349L57.8599 17.0949L57.7299 19.4649L56.5599 19.4049V18.1049L51.8599 17.7349L51.7399 19.0349L50.6399 18.9449ZM52.7299 16.7749L55.7299 17.0049L56.0099 12.0049L53.6199 11.7749C53.5399 12.6349 53.4199 13.9249 53.2799 14.9849C53.2319 15.615 53.044 16.2265 52.7299 16.7749Z" fill="white"/>
<path d="M65.0199 12.8449L64.7499 13.8449L61.7499 12.9949L61.2499 14.8849L63.6999 15.5649L63.4499 16.5649L61.0099 15.8749L60.4899 17.8749L63.6999 18.7749L63.4299 19.7749L58.9299 18.5149L60.7199 11.6249L65.0199 12.8449Z" fill="white"/>
<path d="M65.8499 16.8749V16.8049C66.0499 16.3671 66.3394 15.976 66.6996 15.6567C67.0598 15.3375 67.4829 15.0971 67.9416 14.9511C68.4002 14.8051 68.8844 14.7568 69.3629 14.8091C69.8414 14.8614 70.3036 15.0133 70.7199 15.2549C71.1568 15.4576 71.5477 15.7476 71.8683 16.1071C72.1889 16.4665 72.4326 16.8877 72.5844 17.3449C72.7362 17.802 72.7927 18.2853 72.7507 18.7652C72.7087 19.245 72.5689 19.7111 72.3399 20.1349V20.2049C72.1428 20.6441 71.8558 21.037 71.4973 21.3583C71.1388 21.6796 70.7169 21.9221 70.2588 22.0701C69.8008 22.218 69.3167 22.2682 68.8381 22.2174C68.3594 22.1666 67.8967 22.0158 67.4799 21.7749C67.0405 21.5722 66.6472 21.2815 66.3246 20.9208C66.0019 20.5601 65.7566 20.1371 65.6038 19.6779C65.4511 19.2187 65.3941 18.733 65.4364 18.2509C65.4787 17.7688 65.6195 17.3005 65.8499 16.8749ZM71.0999 19.5749V19.5049C71.2768 19.2374 71.3957 18.9359 71.4492 18.6198C71.5026 18.3036 71.4894 17.9797 71.4103 17.669C71.3312 17.3582 71.188 17.0675 70.9899 16.8153C70.7918 16.5632 70.5431 16.3553 70.2599 16.2049C68.9999 15.5449 67.7999 16.0749 67.1099 17.4449V17.5149C66.9371 17.7881 66.8224 18.094 66.7732 18.4135C66.724 18.733 66.7412 19.0592 66.8238 19.3718C66.9064 19.6843 67.0526 19.9765 67.2532 20.23C67.4539 20.4834 67.7047 20.6928 67.9899 20.8449C69.1899 21.4649 70.4099 20.9549 71.0999 19.5749Z" fill="white"/>
<path fill-rule="evenodd" clip-rule="evenodd" d="M27.38 77.6649C34.1913 83.5095 42.9401 86.5991 51.9112 86.3279C60.8822 86.0566 69.4284 82.4441 75.8742 76.1987C82.3199 69.9532 86.2003 61.5253 86.7545 52.5673C87.3087 43.6092 84.4967 34.7673 78.87 27.7749L79.66 27.1649C80.6023 28.3746 81.4706 29.6403 82.26 30.9549C86.5781 38.1545 88.323 46.6072 87.2089 54.9282C86.0948 63.2492 82.1877 70.9451 76.1278 76.7552C70.0678 82.5654 62.2143 86.1451 53.8538 86.9081C45.4933 87.6711 37.1215 85.5721 30.11 80.9549C28.9393 80.1874 27.8141 79.3527 26.74 78.4549L27.38 77.6649Z" fill="white"/>
</g>
<defs>
<clipPath id="clip0_540_4920">
<rect width="100" height="100" fill="white" transform="translate(0.5 0.0249023)"/>
</clipPath>
</defs>
</svg>
