<svg width="33" height="34" viewBox="0 0 33 34" fill="none" xmlns="http://www.w3.org/2000/svg">
<path fill-rule="evenodd" clip-rule="evenodd" d="M23.6195 28.3242C13.7675 28.3242 5.75285 20.0577 5.75285 9.89922C5.75285 7.92747 7.30751 6.32422 9.21951 6.32422C9.36485 6.32422 9.50885 6.33384 9.65552 6.35309L11.0702 12.707C10.8951 12.8009 10.7077 12.902 10.5249 13.0006L10.3528 13.0933C9.20352 13.7121 8.29685 14.2016 8.77285 15.281C10.3408 19.8817 13.9395 23.5942 18.3475 25.1892C19.4706 25.6533 19.9063 24.794 20.5089 23.6058L20.5168 23.5901C20.586 23.455 20.6573 23.314 20.7278 23.1743L20.7281 23.1738C20.7852 23.0607 20.842 22.9484 20.8968 22.8407L27.0568 24.2982C27.0768 24.4467 27.0862 24.5966 27.0862 24.7492C27.0862 26.721 25.5315 28.3242 23.6195 28.3242ZM29.4208 22.6977C29.2702 22.2508 28.9075 21.9153 28.4595 21.8095L20.5075 19.9271C20.0688 19.8253 19.6102 19.9532 19.2862 20.275C19.0955 20.462 19.0915 20.4675 18.2248 22.1738C15.3848 20.8401 13.0582 18.449 11.7195 15.4597C13.3715 14.5673 13.3755 14.5632 13.5582 14.368C13.8702 14.0325 13.9955 13.5595 13.8955 13.1085L12.0702 4.90797C11.9675 4.44597 11.6408 4.07059 11.2075 3.91522C10.8902 3.80247 10.5635 3.71722 10.2408 3.66359C9.90885 3.60447 9.56618 3.57422 9.21951 3.57422C5.83685 3.57422 3.08618 6.41084 3.08618 9.89922C3.08618 21.5757 12.2968 31.0742 23.6195 31.0742C27.0008 31.0742 29.7528 28.2376 29.7528 24.7492C29.7528 24.3945 29.7222 24.0438 29.6662 23.7028C29.6128 23.3591 29.5302 23.0222 29.4208 22.6977ZM17.7523 11.8242C19.9576 11.8242 21.7523 13.675 21.7523 15.9492C21.7523 16.7096 22.3483 17.3242 23.0856 17.3242C23.823 17.3242 24.419 16.7096 24.419 15.9492C24.419 12.1583 21.4283 9.07422 17.7523 9.07422C17.0163 9.07422 16.419 9.68884 16.419 10.4492C16.419 11.2096 17.0163 11.8242 17.7523 11.8242ZM27.0856 15.9492C27.0856 10.6431 22.8976 6.32422 17.7523 6.32422C17.0163 6.32422 16.419 5.70959 16.419 4.94922C16.419 4.18884 17.0163 3.57422 17.7523 3.57422C24.3696 3.57422 29.7523 9.12509 29.7523 15.9492C29.7523 16.7096 29.1563 17.3242 28.419 17.3242C27.6816 17.3242 27.0856 16.7096 27.0856 15.9492Z" fill="white"/>
<path d="M9.65552 6.35309L10.1436 6.24443L10.0675 5.90288L9.72058 5.85735L9.65552 6.35309ZM11.0702 12.707L11.3066 13.1476L11.6406 12.9683L11.5582 12.5983L11.0702 12.707ZM10.5249 13.0006L10.7622 13.4406L10.7623 13.4406L10.5249 13.0006ZM10.3528 13.0933L10.5899 13.5336L10.5902 13.5334L10.3528 13.0933ZM8.77285 15.281L9.24612 15.1197L9.23911 15.0991L9.23034 15.0792L8.77285 15.281ZM18.3475 25.1892L18.5385 24.7271L18.5281 24.7229L18.5176 24.7191L18.3475 25.1892ZM20.5089 23.6058L20.9548 23.832L20.9548 23.832L20.5089 23.6058ZM20.5168 23.5901L20.0718 23.3622L20.0709 23.364L20.5168 23.5901ZM20.7278 23.1743L21.1741 23.3998L21.175 23.3979L20.7278 23.1743ZM20.7281 23.1738L20.2818 22.9484L20.2809 22.9502L20.7281 23.1738ZM20.8968 22.8407L21.012 22.3542L20.6298 22.2637L20.4514 22.6136L20.8968 22.8407ZM27.0568 24.2982L27.5524 24.2315L27.5065 23.8908L27.172 23.8117L27.0568 24.2982ZM28.4595 21.8095L28.3443 22.296L28.3445 22.2961L28.4595 21.8095ZM29.4208 22.6977L29.8947 22.5381L29.8946 22.538L29.4208 22.6977ZM20.5075 19.9271L20.6227 19.4405L20.6205 19.44L20.5075 19.9271ZM19.2862 20.275L19.6363 20.6319L19.6385 20.6298L19.2862 20.275ZM18.2248 22.1738L18.0123 22.6264L18.4511 22.8325L18.6706 22.4003L18.2248 22.1738ZM11.7195 15.4597L11.4819 15.0198L11.0735 15.2404L11.2632 15.6641L11.7195 15.4597ZM13.5582 14.368L13.9233 14.7096L13.9243 14.7085L13.5582 14.368ZM13.8955 13.1085L14.3837 13.0002L14.3836 12.9998L13.8955 13.1085ZM12.0702 4.90797L11.5821 5.01643L11.5821 5.0166L12.0702 4.90797ZM11.2075 3.91522L11.3763 3.44456L11.3749 3.44407L11.2075 3.91522ZM10.2408 3.66359L10.1532 4.15588L10.1589 4.15683L10.2408 3.66359ZM29.6662 23.7028L29.1721 23.7795L29.1728 23.7839L29.6662 23.7028ZM5.25285 9.89922C5.25285 20.3192 13.477 28.8242 23.6195 28.8242V27.8242C14.0581 27.8242 6.25285 19.7962 6.25285 9.89922H5.25285ZM9.21951 5.82422C7.01698 5.82422 5.25285 7.66594 5.25285 9.89922H6.25285C6.25285 8.189 7.59805 6.82422 9.21951 6.82422V5.82422ZM9.72058 5.85735C9.55303 5.83535 9.38729 5.82422 9.21951 5.82422V6.82422C9.34241 6.82422 9.46467 6.83233 9.59045 6.84884L9.72058 5.85735ZM11.5582 12.5983L10.1436 6.24443L9.16747 6.46176L10.5821 12.8156L11.5582 12.5983ZM10.7623 13.4406C10.9451 13.342 11.132 13.2412 11.3066 13.1476L10.8338 12.2664C10.6581 12.3606 10.4702 12.462 10.2876 12.5605L10.7623 13.4406ZM10.5902 13.5334L10.7622 13.4406L10.2876 12.5605L10.1155 12.6533L10.5902 13.5334ZM9.23034 15.0792C9.14099 14.8766 9.1346 14.7445 9.14991 14.6564C9.16523 14.5682 9.21149 14.4712 9.31969 14.3547C9.56139 14.0945 9.98745 13.8579 10.5899 13.5336L10.1158 12.6531C9.56891 12.9475 8.96697 13.2651 8.587 13.6741C8.38438 13.8923 8.22138 14.1587 8.16466 14.4852C8.10793 14.8118 8.16671 15.1456 8.31536 15.4827L9.23034 15.0792ZM18.5176 24.7191C14.2574 23.1775 10.7669 19.582 9.24612 15.1197L8.29958 15.4423C9.91476 20.1815 13.6216 24.0109 18.1774 25.6594L18.5176 24.7191ZM20.0629 23.3797C19.7458 24.005 19.527 24.4214 19.2808 24.6529C19.1737 24.7536 19.0827 24.7967 18.994 24.8112C18.9015 24.8262 18.7592 24.8183 18.5385 24.7271L18.1566 25.6513C18.4973 25.7921 18.8307 25.8509 19.1546 25.7982C19.4823 25.7449 19.7484 25.5859 19.9659 25.3813C20.3691 25.0022 20.6694 24.3948 20.9548 23.832L20.0629 23.3797ZM20.0709 23.364L20.0629 23.3797L20.9548 23.832L20.9628 23.8162L20.0709 23.364ZM20.2815 22.9489C20.2109 23.0888 20.1403 23.2285 20.0718 23.3622L20.9619 23.818C21.0318 23.6814 21.1037 23.5392 21.1741 23.3998L20.2815 22.9489ZM20.2809 22.9502L20.2806 22.9507L21.175 23.3979L21.1753 23.3974L20.2809 22.9502ZM20.4514 22.6136C20.396 22.7222 20.3389 22.8354 20.2818 22.9484L21.1744 23.3993C21.2316 23.286 21.2879 23.1745 21.3423 23.0678L20.4514 22.6136ZM27.172 23.8117L21.012 22.3542L20.7817 23.3273L26.9417 24.7848L27.172 23.8117ZM27.5862 24.7492C27.5862 24.5761 27.5756 24.4038 27.5524 24.2315L26.5613 24.365C26.5781 24.4896 26.5862 24.6171 26.5862 24.7492H27.5862ZM23.6195 28.8242C25.822 28.8242 27.5862 26.9825 27.5862 24.7492H26.5862C26.5862 26.4594 25.241 27.8242 23.6195 27.8242V28.8242ZM28.3445 22.2961C28.6192 22.361 28.8498 22.5689 28.9471 22.8575L29.8946 22.538C29.6906 21.9328 29.1958 21.4697 28.5745 21.3229L28.3445 22.2961ZM20.3923 20.4136L28.3443 22.296L28.5747 21.3229L20.6227 19.4405L20.3923 20.4136ZM19.6385 20.6298C19.8399 20.4297 20.1226 20.3511 20.3945 20.4142L20.6205 19.44C20.0151 19.2996 19.3804 19.4767 18.9339 19.9202L19.6385 20.6298ZM18.6706 22.4003C19.1071 21.541 19.3185 21.1255 19.4454 20.8987C19.5078 20.7872 19.5399 20.7394 19.5595 20.7136C19.576 20.6919 19.5883 20.679 19.6363 20.6319L18.9361 19.918C18.8887 19.9644 18.829 20.0223 18.764 20.1076C18.7022 20.1888 18.6434 20.2841 18.5727 20.4105C18.4332 20.6598 18.2093 21.1003 17.7791 21.9474L18.6706 22.4003ZM11.2632 15.6641C12.649 18.7585 15.06 21.2399 18.0123 22.6264L18.4374 21.7213C15.7097 20.4403 13.4674 18.1394 12.1758 15.2554L11.2632 15.6641ZM13.1931 14.0264C13.1466 14.0761 13.1337 14.0889 13.1125 14.1061C13.0877 14.126 13.0418 14.1588 12.9343 14.2227C12.7153 14.3529 12.3139 14.5704 11.4819 15.0198L11.9571 15.8996C12.7771 15.4567 13.2037 15.2259 13.4454 15.0822C13.5683 15.0091 13.6609 14.9484 13.7398 14.8848C13.8223 14.8183 13.8785 14.7575 13.9233 14.7096L13.1931 14.0264ZM13.4074 13.2167C13.4725 13.5105 13.3898 13.8149 13.192 14.0275L13.9243 14.7085C14.3506 14.2501 14.5185 13.6085 14.3837 13.0002L13.4074 13.2167ZM11.5821 5.0166L13.4075 13.2171L14.3836 12.9998L12.5582 4.79933L11.5821 5.0166ZM11.0388 4.38588C11.3056 4.48154 11.5155 4.71674 11.5821 5.01643L12.5583 4.7995C12.4195 4.1752 11.9761 3.65964 11.3763 3.44456L11.0388 4.38588ZM10.1589 4.15683C10.4513 4.20543 10.7494 4.28308 11.0401 4.38636L11.3749 3.44407C11.0309 3.32186 10.6757 3.22901 10.3228 3.17036L10.1589 4.15683ZM9.21951 4.07422C9.53722 4.07422 9.85054 4.10195 10.1532 4.15585L10.3285 3.17134C9.96715 3.10699 9.59514 3.07422 9.21951 3.07422V4.07422ZM3.58618 9.89922C3.58618 6.67237 6.12738 4.07422 9.21951 4.07422V3.07422C5.54631 3.07422 2.58618 6.14932 2.58618 9.89922H3.58618ZM23.6195 30.5742C12.5874 30.5742 3.58618 21.3142 3.58618 9.89922H2.58618C2.58618 21.8372 12.0063 31.5742 23.6195 31.5742V30.5742ZM29.2528 24.7492C29.2528 27.976 26.7104 30.5742 23.6195 30.5742V31.5742C27.2913 31.5742 30.2528 28.4992 30.2528 24.7492H29.2528ZM29.1728 23.7839C29.2247 24.0997 29.2528 24.4232 29.2528 24.7492H30.2528C30.2528 24.3657 30.2197 23.988 30.1596 23.6218L29.1728 23.7839ZM28.947 22.8574C29.0473 23.155 29.1232 23.4641 29.1721 23.7795L30.1603 23.6262C30.1025 23.2541 30.0131 22.8894 29.8947 22.5381L28.947 22.8574ZM22.2523 15.9492C22.2523 13.4134 20.2482 11.3242 17.7523 11.3242V12.3242C19.6671 12.3242 21.2523 13.9365 21.2523 15.9492H22.2523ZM23.0856 16.8242C22.6388 16.8242 22.2523 16.4481 22.2523 15.9492H21.2523C21.2523 16.9711 22.0578 17.8242 23.0856 17.8242V16.8242ZM23.919 15.9492C23.919 16.4481 23.5324 16.8242 23.0856 16.8242V17.8242C24.1135 17.8242 24.919 16.9711 24.919 15.9492H23.919ZM17.7523 9.57422C21.1378 9.57422 23.919 12.4199 23.919 15.9492H24.919C24.919 11.8968 21.7188 8.57422 17.7523 8.57422V9.57422ZM16.919 10.4492C16.919 9.9507 17.3065 9.57422 17.7523 9.57422V8.57422C16.7261 8.57422 15.919 9.42699 15.919 10.4492H16.919ZM17.7523 11.3242C17.3065 11.3242 16.919 10.9477 16.919 10.4492H15.919C15.919 11.4715 16.7261 12.3242 17.7523 12.3242V11.3242ZM17.7523 6.82422C22.6071 6.82422 26.5856 10.9046 26.5856 15.9492H27.5856C27.5856 10.3816 23.1882 5.82422 17.7523 5.82422V6.82422ZM15.919 4.94922C15.919 5.97145 16.7261 6.82422 17.7523 6.82422V5.82422C17.3065 5.82422 16.919 5.44774 16.919 4.94922H15.919ZM17.7523 3.07422C16.7261 3.07422 15.919 3.92699 15.919 4.94922H16.919C16.919 4.4507 17.3065 4.07422 17.7523 4.07422V3.07422ZM30.2523 15.9492C30.2523 8.86357 24.6602 3.07422 17.7523 3.07422V4.07422C24.0791 4.07422 29.2523 9.38662 29.2523 15.9492H30.2523ZM28.419 17.8242C29.4468 17.8242 30.2523 16.9711 30.2523 15.9492H29.2523C29.2523 16.4481 28.8658 16.8242 28.419 16.8242V17.8242ZM26.5856 15.9492C26.5856 16.9711 27.3911 17.8242 28.419 17.8242V16.8242C27.9722 16.8242 27.5856 16.4481 27.5856 15.9492H26.5856Z" fill="#FF4D1C"/>
</svg>
