<svg width="32" height="37" viewBox="0 0 32 37" fill="none" xmlns="http://www.w3.org/2000/svg">
<path fill-rule="evenodd" clip-rule="evenodd" d="M30.4972 15.0157C30.7985 15.0143 31.0996 14.9989 31.3995 14.9695H31.4047V8.81297C29.1142 8.64416 26.9555 7.669 25.306 6.05801C23.6565 4.44701 22.6211 2.3027 22.3809 0H17.1244L17.0695 25.8312C17.0695 29.0004 14.2934 31.4973 11.1499 31.4973C9.64067 31.4973 8.19322 30.8928 7.12601 29.8169C6.0588 28.7409 5.45924 27.2816 5.45924 25.76C5.45924 24.2384 6.0588 22.779 7.12601 21.7031C8.19322 20.6271 9.64067 20.0227 11.1499 20.0227C11.325 20.0227 11.4942 20.046 11.6636 20.0693C11.722 20.0774 11.7804 20.0854 11.839 20.0925V14.5529C11.7847 14.5495 11.7304 14.5457 11.6762 14.5419C11.5019 14.5296 11.3274 14.5173 11.1499 14.5173C8.94468 14.5173 6.78896 15.1766 4.95536 16.4119C3.12177 17.6471 1.69265 19.4027 0.848742 21.4568C0.00483016 23.5109 -0.215974 25.7711 0.214248 27.9517C0.644471 30.1323 1.7064 32.1354 3.26574 33.7075C4.82509 35.2796 6.81181 36.3502 8.97469 36.784C11.1376 37.2177 13.3794 36.9951 15.4168 36.1443C17.4542 35.2935 19.1956 33.8526 20.4208 32.004C21.6459 30.1554 22.2999 27.982 22.2999 25.7587V10.5492C23.191 11.9213 24.407 13.0482 25.8381 13.8279C27.2692 14.6077 28.8705 15.0159 30.4972 15.0157Z" fill="#021333"/>
</svg>
