<svg width="137" height="105" viewBox="0 0 137 105" fill="none" xmlns="http://www.w3.org/2000/svg">
<path d="M2.26807 56.5909C2.26807 56.5909 76.9703 75.8161 130.555 42.8962" stroke="#FF5D30" stroke-width="3" stroke-linecap="round" stroke-linejoin="bevel"/>
<path d="M15.7302 38.1558C15.7302 38.1558 70.6351 38.1558 111.55 1.81226" stroke="#FF5D30" stroke-width="3" stroke-linecap="round" stroke-linejoin="bevel"/>
<path d="M12.299 58.6978L7.28369 98.4649L22.0658 88.4573L33.4163 101.362L38.9596 62.1214" stroke="#FF5D30" stroke-width="3" stroke-linecap="round" stroke-linejoin="bevel"/>
<path d="M53.7417 62.1215L56.6453 103.996L70.3715 87.9307L84.8896 101.362L81.722 60.0146" stroke="#FF5D30" stroke-width="3" stroke-linecap="round" stroke-linejoin="bevel"/>
<path d="M36.0574 36.3123L40.8088 52.3771" stroke="#FF5D30" stroke-width="3" stroke-linecap="round" stroke-linejoin="bevel"/>
<path d="M56.1184 31.5718L65.0932 52.3771" stroke="#FF5D30" stroke-width="3" stroke-linecap="round" stroke-linejoin="bevel"/>
<path d="M73.5381 25.5146L84.8886 47.1101" stroke="#FF5D30" stroke-width="3" stroke-linecap="round" stroke-linejoin="bevel"/>
<path d="M93.8635 14.9802L108.646 39.7359" stroke="#FF5D30" stroke-width="3" stroke-linecap="round" stroke-linejoin="bevel"/>
<path d="M93.8635 57.6445L108.646 96.0949L116.037 76.8697L135.042 88.9842L120.788 48.1636" stroke="#FF5D30" stroke-width="3" stroke-linecap="round" stroke-linejoin="bevel"/>
</svg>
