<svg width="42" height="26" viewBox="0 0 42 26" fill="none" xmlns="http://www.w3.org/2000/svg">
<path fill-rule="evenodd" clip-rule="evenodd" d="M6.51423 0.692261H2.02603C0.74367 0.692261 0.487183 1.3022 0.487183 1.97459C0.487183 3.17569 2.0088 9.13249 7.57205 17.0108C11.2809 22.3911 16.5063 25.3076 21.2613 25.3076C24.1142 25.3076 24.4672 24.6599 24.4672 23.5441V19.4777C24.4672 18.1821 24.7374 17.9235 25.6408 17.9235C26.3065 17.9235 27.4477 18.2599 30.1105 20.8539C33.1537 23.9284 33.6554 25.3076 35.367 25.3076H39.8552C41.1377 25.3076 41.7788 24.6599 41.409 23.3816C41.0042 22.1075 39.5513 20.2589 37.6233 18.0677C36.5772 16.8187 35.0081 15.4737 34.5325 14.801C33.8669 13.9364 34.057 13.552 34.5325 12.7835C34.5325 12.7835 40.0007 5.00112 40.5714 2.35911C40.8566 1.3982 40.5714 0.692261 39.2141 0.692261H34.7259C33.5847 0.692261 33.0586 1.3022 32.7732 1.97459C32.7732 1.97459 30.4909 7.59519 27.2576 11.2462C26.2114 12.3029 25.7359 12.6393 25.1652 12.6393C24.88 12.6393 24.467 12.3029 24.467 11.3423V2.35911C24.467 1.20607 24.1359 0.692261 23.1847 0.692261H16.1318C15.4187 0.692261 14.9897 1.22732 14.9897 1.73453C14.9897 2.82745 16.6064 3.07956 16.7731 6.15403V12.8315C16.7731 14.2955 16.5113 14.561 15.9408 14.561C14.4192 14.561 10.7181 8.91523 8.52295 2.45511C8.09282 1.19947 7.66128 0.692261 6.51423 0.692261Z" fill="#021333"/>
</svg>
