<svg width="42" height="29" viewBox="0 0 42 29" fill="none" xmlns="http://www.w3.org/2000/svg">
<path d="M39.601 2.48944C38.1135 0.721258 35.3673 0 30.1226 0H11.0842C5.71942 0 2.92664 0.767783 1.44478 2.65029C0 4.48573 0 7.19012 0 10.9331V18.0671C0 25.3183 1.71422 29 11.0842 29H30.1227C34.6709 29 37.1912 28.3635 38.8216 26.8031C40.4937 25.203 41.2071 22.5903 41.2071 18.0671V10.9331C41.2071 6.98581 41.0954 4.26547 39.601 2.48944ZM26.4551 15.485L17.8099 20.0033C17.6166 20.1043 17.4052 20.1544 17.1941 20.1544C16.9551 20.1544 16.7167 20.0901 16.5055 19.9622C16.1077 19.7212 15.8649 19.2901 15.8649 18.8252V9.81754C15.8649 9.35336 16.1071 8.92268 16.504 8.68155C16.901 8.44042 17.3949 8.42394 17.8068 8.63795L26.4521 13.1271C26.8919 13.3555 27.1681 13.8096 27.1688 14.305C27.1693 14.8008 26.8943 15.2556 26.4551 15.485Z" fill="#021333"/>
</svg>
